<svg xmlns="http://www.w3.org/2000/svg" viewBox="0 0 87.672 55"><title>at-the-edge</title><circle cx="26.187" cy="28.813" r="26.187" style="fill:#ffd45c"/><path d="M52.375,28.813A26.187,26.187,0,0,0,26.187,2.626a26.494,26.494,0,0,0-2.714.14,29.512,29.512,0,0,1,4.481,52.169A26.184,26.184,0,0,0,52.375,28.813Z" style="fill:#ffc81a"/><path d="M25.341,24.789a2.133,2.133,0,0,0-1.669.507c-.709.6-1.484.378-1.977-.509a.8.8,0,0,0-.97-.5c-1.184.168-1.723-.552-1.183-1.616.27-.532.148-.641-.319-.91-.683-.395-1.273-.916-2.149-.742-.219.044-.492-.151-.3-.36.5-.543.313-1.141.3-1.751-.011-.534.454-.755.872-.927a2.226,2.226,0,0,0,1.612-2.659c-.281-1.53.721-2.361,1.734-3.172a1.679,1.679,0,0,0,.634-.658c1-2.548,3.294-3.394,5.581-4.238a2.945,2.945,0,0,1,2.4-.271c.24.112.6.082.617.446.01.3-.313.345-.517.437-.378.17-.775.3-1.169.431-.745.249-1.6.361-1.665,1.414a.345.345,0,0,1-.193.235c-1.168.442-1.131,1.578-1.453,2.5-.261.75.038,1.2.847,1.271a5.882,5.882,0,0,1,1.753.122c.945.381.989.925.262,1.607a9.072,9.072,0,0,1-3.757,2,6.216,6.216,0,0,0-.96.392c-.3.149-.726.291-.645.7.068.346.472.165.726.2.557.085.64.423.56.907-.195,1.173.08,1.647,1.2,2.01.656.212,1.33.37,2,.532.581.14.663.442.487,1C27.6,24.462,27.139,24.789,25.341,24.789Z" style="fill:#e2a926"/><path d="M29.389,36.1c-.77-.493-1.444-.153-2.123-.111a3.716,3.716,0,0,1-2.772-.939,14.068,14.068,0,0,0-2.666-1.97,2,2,0,0,1-1.076-1.454,1.973,1.973,0,0,0-.738-1.432c-.549-.365-.3-.812,0-1.154.333-.383.7-.4,1.171-.043,1.509,1.147,3.235,2.237,5.113,1.923,2.775-.463,5.788-.329,8.142-2.362a5.488,5.488,0,0,0,1.225-1.248,10.382,10.382,0,0,1,.935-1.374c.486-.569,1.073-1.129,1.867-.569.825.582.3,1.321.02,1.944-.195.427-.634.737-.876,1.15-.45.766-1.685,1.113-1.162,2.448.14.356-.644.838-1.071,1.177a1.524,1.524,0,0,0-.641,1.23,2.127,2.127,0,0,1-1.769,2.134C31.763,35.785,30.432,35.218,29.389,36.1Z" style="fill:#f99b21"/><path d="M35.071,48.284c-1.176.806-2.1,1.464-3.051,2.082a2.411,2.411,0,0,1-1.46.369,23.511,23.511,0,0,1-4.571-.484c-.887-.229-1.115-.569-.729-1.321.2-.394-.031-.531-.265-.743-1.147-1.035-2.6-1.213-4.024-1.5-.938-.192-1.938-.4-2.386-1.607.429-.04.932.157,1.093-.324.148-.443-.322-.62-.505-.923a2.355,2.355,0,0,0-2.385-1.208,1.5,1.5,0,0,1-.506-.042c-.338-.091-.862-.049-.837-.535.022-.42.533-.332.834-.4.423-.1.873-.086,1.3-.16.678-.116.807-.493.33-.97a16.756,16.756,0,0,1-1.255-1.842c-.2-.261-.335-.637.036-.9s.557.077.737.3a6.5,6.5,0,0,0,2.193,1.518,6.908,6.908,0,0,1,2.806,2.85c.17.331.306.68.491,1,.552.963.816.993,1.6.214.364-.363.731-.713.974.1.114.381.3.327.607.179.679-.327.846.055.821.661a4.318,4.318,0,0,0,0,1.418c.121.42.327.882.813.683,1.012-.415,1.29.391,1.626.939.9,1.474,1.829,1.825,3.349,1.069A4.258,4.258,0,0,1,35.071,48.284Z" style="fill:#e2a926"/><path d="M44.56,22.587a6.189,6.189,0,0,1,2.4,4.608c.034.378-.09.835.212,1.1.822.712.553,1.456.175,2.236a2.949,2.949,0,0,0-.111,1.839c.057.333.262.764.705.477.568-.369.618-.012.746.386.425,1.318-.25,2.443-.657,3.6-.345.978-.864,1.893-1.251,2.858-.263.655-1.27.714-1.2,1.643.031.43-.283.887-.243,1.313.173,1.866-1.463,2.053-2.517,2.75-.346.229-.481-.167-.417-.462a6.011,6.011,0,0,1,.707-1.727,2.411,2.411,0,0,0,.161-2.634,1.686,1.686,0,0,1,.211-2.19,2.753,2.753,0,0,0,.546-3.091A.883.883,0,0,1,44,34.49a9.01,9.01,0,0,0,.684-4.164,10.777,10.777,0,0,1,.318-3.7,2.951,2.951,0,0,0-.265-2.611A1.494,1.494,0,0,1,44.56,22.587Z" style="fill:#e2a926"/><path d="M35.412,8.229a1.471,1.471,0,0,1,1.419.1c.851.523,1.742.982,2.611,1.477.345.2.674.452.487.908-.379.926.217,1.175.906,1.362a4.923,4.923,0,0,1,3.25,2.2c.325.557.173.744-.315.875-.632.17-1.271.321-1.915.438-1.584.289-2.242.987-2.113,2.545a1.143,1.143,0,0,1-.576,1.172c-.5.388-1.129.481-1.629.893s-.8-.132-.83-.516a1.711,1.711,0,0,0-.646-1.241c-.572-.479-.517-.884.074-1.332.748-.567.713-.94-.074-1.494-.282-.2-.582-.374-.881-.548-1.012-.588-1.064-1.371-.015-1.925.859-.454,1.319-.852.562-1.762a.636.636,0,0,1-.058-.59A1.719,1.719,0,0,0,35.412,8.229Z" style="fill:#e2a926"/><path d="M4.837,31.608c.886.23.652.962.892,1.423.15.288.191.637.638.588.385-.042.366-.352.453-.619A4.114,4.114,0,0,0,6.9,30.852c-.212-1.069-.428-2.188.965-2.781.554-.236.572-1.047,1.115-1.381.167-.1.292-.312.517-.245.248.074.223.314.221.509a5.687,5.687,0,0,1-.061,1.575c-.776,2.518-.82,5.175-1.546,7.706a4.2,4.2,0,0,0,2.153,4.493c.257.115.415.233.423.507a3.137,3.137,0,0,0,1.651,2.516,4.207,4.207,0,0,1,1.65,2.343.957.957,0,0,1-.494,1.128.689.689,0,0,1-.98-.2c-.831-1.485-2.571-1.98-3.543-3.276A18.427,18.427,0,0,1,4.837,31.608Z" style="fill:#f99b21"/><path d="M8.661,22.1c.314-.677-.1-.976-.516-1.244-.626-.4-1.14-.811-.745-1.68.181-.4-.105-.621-.443-.81-.729-.407-.832-.915-.122-1.44.64-.472,1.107-.944.517-1.782-.17-.241-.153-.622.305-.47.752.249,1.087-.223,1.442-.71.061-.084.091-.2.166-.263.406-.352.754-1.162,1.24-.923s-.082.867-.21,1.323a2.815,2.815,0,0,0-.051.494c1.121-.319.588,1.457,1.671,1.308.325-.045.612.438.515.884-.11.505-.515.493-.909.463-1.159-.089-1.738.658-1.19,1.729.477.933.612,1.667-.335,2.337a.518.518,0,0,0-.182.654c.287.668-.048,1.079-.647,1.1C8.389,23.1,8.89,22.38,8.661,22.1Z" style="fill:#e2a926"/><path d="M18.841,8.206c-.078.9-.268,1.651-1.215,2.018a1.325,1.325,0,0,0-.773,1.272c-.032,1.089-.945,1.462-1.614,2.034a.223.223,0,0,1-.358-.046c-.166-.259-.4-.524-.194-.854.366-.59.537-1.094-.282-1.49-.316-.153-.141-.433.123-.538A2.7,2.7,0,0,0,16.35,8.761c.106-.392.541-.482.958-.48C17.788,8.284,18.267,8.237,18.841,8.206Z" style="fill:#f99b21"/><path d="M40.023,41.335a2,2,0,0,1-2.313.447,1.325,1.325,0,0,0-1.463.276c-.831.7-1.719.275-2.592.161a.223.223,0,0,1-.206-.3c.082-.3.122-.647.505-.716.683-.123,1.172-.333.919-1.206-.1-.337.227-.395.482-.269a2.7,2.7,0,0,0,2.588.122c.362-.184.72.08,1,.391C39.26,40.6,39.616,40.929,40.023,41.335Z" style="fill:#f99b21"/><circle cx="63.558" cy="49.315" r="5.63" style="fill:#c4b192"/><path d="M64.116,48.719c-.145-.006-.219-.029-.162-.181a2.385,2.385,0,0,1,.435-.744c.054-.061.109-.113.148-.009.06.161.265.3.141.5A1.1,1.1,0,0,1,64.116,48.719Z" style="fill:#694a3a"/><path d="M59.429,49.5a1.7,1.7,0,0,1-.09.467.172.172,0,0,1-.155.145.185.185,0,0,1-.175-.123.951.951,0,0,1,.083-.864c.059-.072.1-.066.165,0A.442.442,0,0,1,59.429,49.5Z" style="fill:#694a3a"/><path d="M61.112,47.2c.123.035.219.086.153.225-.084.177-.175.352-.275.521-.056.093-.155.117-.225.018a.453.453,0,0,1-.018-.456A.514.514,0,0,1,61.112,47.2Z" style="fill:#694a3a"/><path d="M61.524,44.9c-.031.136-.066.291-.2.313a1.179,1.179,0,0,0-.423.2c-.084.049-.194.107-.264,0s.027-.175.1-.225c.2-.134.353-.345.615-.367C61.416,44.82,61.511,44.781,61.524,44.9Z" style="fill:#694a3a"/><path d="M66.377,48.309c-.168.01-.226-.115-.248-.256s.164-.294.363-.3a.179.179,0,0,1,.206.189A.381.381,0,0,1,66.377,48.309Z" style="fill:#694a3a"/><path d="M62.286,53.57c-.066-.012-.151-.025-.179-.1-.035-.095.052-.13.117-.164.113-.06.227-.12.344-.169.061-.026.143-.042.184.029a.172.172,0,0,1-.032.209A.986.986,0,0,1,62.286,53.57Z" style="fill:#694a3a"/><path d="M63.233,44.866c.122,0,.213.053.208.155a.2.2,0,0,1-.227.2c-.136-.028-.383-.021-.376-.16C62.849,44.868,63.108,44.934,63.233,44.866Z" style="fill:#694a3a"/><path d="M66.545,45.164a.5.5,0,0,1,.249.331.143.143,0,0,1-.145.188c-.148,0-.214-.1-.219-.237C66.428,45.34,66.413,45.227,66.545,45.164Z" style="fill:#694a3a"/><path d="M59.978,52.664c.166.014.37.176.351.278-.012.064-.059.082-.119.078-.08-.005-.364-.242-.355-.3C59.866,52.637,59.934,52.671,59.978,52.664Z" style="fill:#694a3a"/><path d="M61.945,50.179c0,.114-.026.187-.135.188-.077,0-.14-.037-.13-.119.012-.1.059-.2.17-.212S61.922,50.139,61.945,50.179Z" style="fill:#694a3a"/><path d="M65.351,53.717c-.054-.011-.144.028-.147-.083s.287-.388.418-.374c.107.012.194.068.2.185S65.555,53.718,65.351,53.717Z" style="fill:#694a3a"/><path d="M68.361,48.459a.758.758,0,0,1,.343.571.179.179,0,0,1-.136.229c-.117.019-.114-.092-.133-.172A1.675,1.675,0,0,1,68.361,48.459Z" style="fill:#694a3a"/><path d="M67.44,52.341a.207.207,0,0,1-.1.205.146.146,0,0,1-.152,0c-.057-.032-.06-.079-.039-.137a.992.992,0,0,1,.04-.153c.042-.074.045-.22.145-.2S67.435,52.21,67.44,52.341Z" style="fill:#694a3a"/><path d="M63.76,54.144a.22.22,0,0,1-.211.138c-.045,0-.1-.04-.083-.087.034-.081.087-.162.2-.155A.093.093,0,0,1,63.76,54.144Z" style="fill:#694a3a"/><path d="M67.574,49.544h0l-.042-.142c-.016-.066-.028-.132-.049-.2-.029-.088-.074-.182-.176-.18s-.1.118-.119.193a4.354,4.354,0,0,1-.083.62.21.21,0,0,0,.1.3q0,.022.006.043c.208-.035.291-.2.365-.366A.39.39,0,0,0,67.574,49.544Z" style="fill:#694a3a"/><circle cx="78.384" cy="9.229" r="9.229" style="fill:#62a4d1"/><path d="M87.439,7.205a6.964,6.964,0,0,0-.991-2.489h0a2.638,2.638,0,0,0-.457-.737,2.591,2.591,0,0,0-.157,1.1,1.916,1.916,0,0,1-.131.732c-.034.094-.084.2-.207.185-.145-.017-.111-.146-.113-.238,0-.213,0-.427,0-.64,0-.131.049-.313-.133-.346a.4.4,0,0,0-.4.164,1.941,1.941,0,0,0-.161.335c-.136.31-.162.655-.319.96-.119.231-.3.375-.542.286s-.023-.286-.008-.423c.033-.3-.084-.632-.324-.665-.343-.047-.378.23-.458.473-.116.353-.018.723-.124,1.076-.076.254-.2.253-.381.127a1.078,1.078,0,0,1-.43-1.087,1.19,1.19,0,0,0-.2-1.032,1.441,1.441,0,0,1-.293-.982,4.3,4.3,0,0,0-.83-2.128.153.153,0,0,0-.049-.056c-.169-.114-.355-.172-.514-.014-.18.179.009.3.119.4a1.556,1.556,0,0,1,.6,1.422,1.76,1.76,0,0,0,.038.3c.029.449.332.837.269,1.312-.031.233-.038.472-.263.585a.566.566,0,0,1-.655-.146.519.519,0,0,0-.546-.149c-.247.077-.378-.082-.42-.3a2.616,2.616,0,0,1-.01-.413c-.009-.4-.249-.6-.8-.655-.377-.038-.209.3-.3.452a1.69,1.69,0,0,0-.1.359A1.8,1.8,0,0,0,78.438,6.6c.285.4.225.69-.226.911a.667.667,0,0,0-.42.646c.012.406-.149.491-.53.51a.65.65,0,0,1-.692-.439c-.1-.214-.16-.447-.252-.666-.044-.106-.07-.285-.237-.23a.29.29,0,0,0-.171.342,1.647,1.647,0,0,0,.156.421c.16.312.332.617.5.925a.564.564,0,0,1,.055.471c-.035.1-.1.236-.244.127s-.269-.226-.424-.069-.018.3.044.449a1.906,1.906,0,0,0,.123.271c.074.117.115.239.006.341a.333.333,0,0,1-.38.073c-.08-.036-.157-.08-.237-.114-.107-.045-.229-.079-.318.008s.032.156.046.237a1.809,1.809,0,0,1,.047.331c0,.193.077.458-.14.539-.167.062-.267-.186-.392-.3a.481.481,0,0,0-.817.083c-.1.132-.171.278-.272.405a.4.4,0,0,1-.714-.1,1.077,1.077,0,0,1-.074-.441.435.435,0,0,0-.439-.5c-.36-.04-.452-.184-.349-.529a2.8,2.8,0,0,1,.359-.741.684.684,0,0,0,.094-.8.948.948,0,0,1,.027-1.149.394.394,0,0,0-.041-.547.556.556,0,0,1-.22-.659c.031-.088.02-.147-.1-.126-.273.049-.223-.113-.166-.267.133-.363.27-.723.407-1.086-.464-.054-.791.284-.934.861a7.1,7.1,0,0,0,0,1.677c-.006.42-.22.767-.459.7-.346-.09-.354-.4-.371-.7-.026-.452.117-.892.086-1.346-.013-.2-.07-.369-.246-.423-.15-.045-.211.139-.291.244-.15.2-.307.379-.59.223a7.184,7.184,0,0,0-.5,2.144,8.824,8.824,0,0,0,.79,4.778c.276-.1.436-.366.711-.476a.324.324,0,0,0,.166-.52c-.045-.078-.158-.176-.045-.26.088-.065.191.013.271.076a2.154,2.154,0,0,1,.708.955.581.581,0,0,0,.608.4,1.329,1.329,0,0,0,.617-.132c.281-.138.558-.287.851-.4a.44.44,0,0,1,.575.112.438.438,0,0,0,.573.115c.4-.157.506-.091.572.328a6.3,6.3,0,0,0,.075.709.669.669,0,0,0,1.089.382,1.1,1.1,0,0,0,.4-.663,2.384,2.384,0,0,0-.02-.933.663.663,0,0,1,.518-.859c.095-.033.193-.055.288-.089.528-.186.65-.406.519-.944-.035-.146-.107-.3-.014-.437a.7.7,0,0,0,.04-.645c-.191-.683-.154-.748.5-.987.447-.162.548-.306.538-.808,0-.2.067-.371.269-.39a2.43,2.43,0,0,1,1.581.353.47.47,0,0,1,.185.359,1.124,1.124,0,0,0,.773,1.008.683.683,0,0,1,.458.845c-.014.125-.024.25-.034.375-.041.5,0,.549.5.518.292-.018.556-.011.639.344.01,0,.018,0,.027,0l0,.081a.757.757,0,0,1,.2.353,2.187,2.187,0,0,1,.186.758c0,.174.018.549.3.426.408-.176.409.1.51.31.042.086.043.227.164.22.151-.01.122-.156.14-.265.05-.306-.152-.6-.049-.919.416.287.424.3.707.171.3-.14.39,0,.5.25.091.214-.041.457.122.649A9.06,9.06,0,0,0,87.439,7.205Z" style="fill:#3063af"/></svg>