<svg xmlns="http://www.w3.org/2000/svg" viewBox="0 0 83.836 55"><title>civil-wars</title><path d="M63.075,0,26.889,26.481a18.135,18.135,0,0,0,.643,4.435l25.709.771,16.775-13.3A81.256,81.256,0,0,0,63.075,0Z" style="fill:#e4524e"/><path d="M39.271,30.507a4.3,4.3,0,0,0,6.106-.321,4.889,4.889,0,0,0,.964-1.8l-8.163.386A4.179,4.179,0,0,0,39.271,30.507Z" style="fill:none"/><path d="M70.017,18.382,27.532,30.916A7.658,7.658,0,0,0,29.2,34.129l11.376.578a7.071,7.071,0,0,0,2.314,3.921,7.217,7.217,0,0,0,5.4,1.928A7.37,7.37,0,0,0,53.5,38.114,7.514,7.514,0,0,0,55.362,34l17.161-.836A82.586,82.586,0,0,0,70.017,18.382ZM51.12,35.929a4.411,4.411,0,0,1-6.106.321,4.348,4.348,0,0,1-1.157-1.671l8.163-.386A4.1,4.1,0,0,1,51.12,35.929Z" style="fill:#c43e28"/><polygon points="75.094 1.478 69.824 6.62 70.788 8.098 77.151 4.113 75.094 1.478" style="fill:#ffc81a"/><polygon points="83 10.734 76.058 13.305 76.444 15.04 83.836 14.012 83 10.734" style="fill:#ffc81a"/><polygon points="82.1 21.403 74.709 20.503 74.259 22.239 81.329 24.681 82.1 21.403" style="fill:#ffc81a"/><path d="M20.76,14.567,56.946,41.048a18.135,18.135,0,0,1-.643,4.435l-27.316-2.25L13.819,32.949A82.067,82.067,0,0,1,20.76,14.567Z" style="fill:#7aa0ce"/><path d="M38.821,50.753a4.3,4.3,0,0,1-6.106-.321,4.889,4.889,0,0,1-.964-1.8l8.163.386A3.812,3.812,0,0,1,38.821,50.753Z" style="fill:none"/><path d="M11.312,47.6l17.161.836A7.425,7.425,0,0,0,35.543,55a7.482,7.482,0,0,0,5.4-1.928,7.9,7.9,0,0,0,2.314-3.921l11.376-.578A7.087,7.087,0,0,0,56.3,45.354L13.819,32.821A84.475,84.475,0,0,0,11.312,47.6Zm20.439,1.028,8.163.386a4.348,4.348,0,0,1-1.157,1.671,4.3,4.3,0,0,1-6.106-.321A4.944,4.944,0,0,1,31.751,48.632Z" style="fill:#5382c2"/><polygon points="8.741 15.981 14.076 21.187 13.048 22.601 6.684 18.681 8.741 15.981" style="fill:#ffc81a"/><polygon points="0.836 25.237 7.777 27.872 7.391 29.543 0 28.515 0.836 25.237" style="fill:#ffc81a"/><polygon points="1.8 35.906 9.127 35.006 9.577 36.742 2.571 39.248 1.8 35.906" style="fill:#ffc81a"/></svg>