<svg xmlns="http://www.w3.org/2000/svg" viewBox="0 0 114.652 55"><title>college-admissions-playbook</title><path d="M74.819,19.357,63.987,43.305c21.744-2.4,31.441-2.914,50.6-24.626a.252.252,0,0,0-.3-.4C98.442,24.284,92.273,24.3,74.819,19.357Z" style="fill:#ffc81a"/><path d="M107.627,22.958C89.95,37.588,83.966,38.732,65.282,40.589l-.527,1.1c20.01-2.016,27.766-3.235,46.152-20.413a.252.252,0,0,0-.262-.42c-14.6,4.478-19.537,4.317-35.708-.216l-.4.848C89.79,25.79,92.987,26.358,107.627,22.958Z" style="fill:#c43e28"/><polygon points="63.987 43.305 63.438 36.34 67.067 36.464 69.381 40.117 63.987 43.305" style="fill:#e2a926"/><path d="M28.015,46.692q1.446-.685,2.9-1.294c-2.219-6.68-4.345-12.189-6.571-18.958C25.539,32.845,26.742,39.331,28.015,46.692Z" style="fill:none"/><path d="M20.045,2.906c1.373,7.911,2.668,14.827,3.963,21.751-.306-7.818-.5-14.242-.79-21.836Q21.628,2.825,20.045,2.906Z" style="fill:none"/><path d="M81.671,14.343C62.09,8.8,42.268.2,23.109,0c.02.5,1.121,25.844,1.232,26.438,2.226,6.769,7.313,21.22,7.472,21.721,12.323-5.215,24.944-6.649,37.568-8.043Z" style="fill:#ffd45c"/><path d="M28.015,46.692c-1.273-7.361-2.477-13.847-3.674-20.252-.1-.3-.2-.594-.3-.9-.012-.3-.022-.583-.034-.879-1.3-6.925-2.59-13.84-3.963-21.751q1.583-.083,3.173-.084c-.013-.337-.026-.686-.04-1.027-1.455,0-2.906.05-4.353.156,2.9,16.707,5.49,29.4,8.4,46.235,1.331-.651,2.666-1.248,4-1.8-.107-.326-.214-.663-.321-.983Q29.461,46.009,28.015,46.692Z" style="fill:#c43e28"/><path d="M70.676,37.4c-13.36,1.329-26.732,2.508-39.764,8,.106.32.214.657.321.983,12.761-5.31,25.841-6.557,38.917-7.874Z" style="fill:#c43e28"/><path d="M24.042,25.537c.1.309.2.6.3.9l-.333-1.782C24.02,24.954,24.03,25.236,24.042,25.537Z" style="fill:#c43e28"/><path d="M80.742,16.292l.4-.848C61.754,10.012,42.139,1.753,23.178,1.795c.013.342.027.691.04,1.027C42.036,2.787,61.494,10.874,80.742,16.292Z" style="fill:#c43e28"/><path d="M.107,13.722Q.054,15.342,0,16.963a48.992,48.992,0,0,1,10.287-4.277,81.311,81.311,0,0,0-9.52,8.293q.53,1.2,1.06,2.419a75.032,75.032,0,0,1,16.95-12.539l-.559-3.217A49.887,49.887,0,0,0,.107,13.722Z" style="fill:#ffc81a"/><path d="M7.427,55q-.55-1.2-1.1-2.384a79.2,79.2,0,0,1,9.6-7.763A49.231,49.231,0,0,0,5.651,48.5q.025-1.625.051-3.249a50.756,50.756,0,0,1,18.187-4.967l.561,3.234A73.453,73.453,0,0,0,7.427,55Z" style="fill:#ffc81a"/><path d="M.107,13.722Q.054,15.342,0,16.963a49,49,0,0,1,10.287-4.277,81.32,81.32,0,0,0-9.52,8.293q.53,1.2,1.06,2.419A75.158,75.158,0,0,1,18.347,11.1q-.3-1.674-.61-3.381A49.818,49.818,0,0,0,.107,13.722Z" style="fill:#ffd45c"/><path d="M5.7,45.252q-.025,1.624-.051,3.249a49.231,49.231,0,0,1,10.272-3.648,79.2,79.2,0,0,0-9.6,7.763Q6.877,53.8,7.427,55A73.467,73.467,0,0,1,24.315,43.587q-.3-1.659-.591-3.285A50.709,50.709,0,0,0,5.7,45.252Z" style="fill:#ffd45c"/><path d="M23.422,1.794c-.1-.6-.208-1.187-.313-1.793.024.613.046,1.2.069,1.794Z" style="fill:#c43e28"/><path d="M24.042,25.537c.1.309.2.6.3.9l-.333-1.782C24.02,24.954,24.03,25.236,24.042,25.537Z" style="fill:#c43e28"/><path d="M23.6,2.824c-.06-.34-.12-.688-.18-1.03h-.243c.013.342.027.691.04,1.027C23.346,2.822,23.474,2.824,23.6,2.824Z" style="fill:#c43e28"/><path d="M25.633,51.068c2.052-1.079,4.112-2.043,6.18-2.908C28.8,30.686,26.113,17.352,23.109,0a56.457,56.457,0,0,0-6.676.346C19.6,18.533,22.453,32.721,25.633,51.068Z" style="fill:#c43e28"/><path d="M22.043,11.929l-.057.015a.686.686,0,0,1-.88-.54q-.5-2.877-1-5.752a.882.882,0,0,1,.62-.967l.057-.016a.685.685,0,0,1,.881.543l1,5.767A.859.859,0,0,1,22.043,11.929Z" style="fill:#ffd45c"/><path d="M27.749,44.879l-.057.012a.727.727,0,0,1-.884-.583l-1-5.781a.828.828,0,0,1,.622-.93l.057-.013a.726.726,0,0,1,.884.586q.5,2.9,1,5.794A.807.807,0,0,1,27.749,44.879Z" style="fill:#ffd45c"/><path d="M54.332,12.143c-3.093-.7-6.184-1.341-9.262-1.864a.446.446,0,0,0-.552.553q.439,2.577.876,5.135a.936.936,0,0,0,.776.737l.239.029h0a1,1,0,0,1,.749.73q1.044,6.057,2.078,12a.78.78,0,0,1-.831.8q-1.447-.017-2.889,0a1.213,1.213,0,0,1-1.168-.991q-1.04-6.1-2.088-12.308a.49.49,0,0,1,.547-.616h0l.185.017a.484.484,0,0,0,.548-.6q-.439-2.595-.882-5.208a.978.978,0,0,0-.778-.771c-3.073-.438-6.135-.745-9.184-.874a.546.546,0,0,0-.54.7q.458,2.816.914,5.613a.826.826,0,0,0,.774.714H34.1a.882.882,0,0,1,.748.713q1.3,7.931,2.591,15.7a1.242,1.242,0,0,0,.617.839q2.01,1.714,4.015,3.391h0a1.217,1.217,0,0,0,.85.326c3.406-.328,6.827-.482,10.255-.53a.91.91,0,0,0,.783-.475q1.378-1.636,2.764-3.157h0a.775.775,0,0,0,.31-.744q-1.2-6.638-2.413-13.442c-.059-.342.184-.561.557-.5h0l.24.042c.374.065.619-.147.558-.485q-.421-2.343-.842-4.706A1.106,1.106,0,0,0,54.332,12.143Z" style="fill:#c43e28"/><path d="M53,35.267c-3.393.015-6.777.134-10.149.423q-2.287-1.783-4.578-3.612-1.421-8.534-2.856-17.265-.724-.017-1.447-.022-.373-2.283-.748-4.579c2.84.106,5.692.365,8.551.739q.366,2.16.727,4.308-.782-.077-1.561-.143,1.235,7.357,2.459,14.561.847.719,1.7,1.429,2.124-.049,4.258-.023c.314-.37.63-.735.944-1.1q-1.217-6.959-2.448-14.079-.771-.11-1.54-.211-.358-2.086-.717-4.185c2.869.468,5.742,1.034,8.624,1.658q.349,1.956.694,3.9-.774-.142-1.545-.278,1.356,7.649,2.694,15.093Q54.518,33.509,53,35.267Zm-9.9-.69c3.085-.226,6.182-.311,9.285-.307q1.267-1.463,2.544-2.83-1.4-7.809-2.81-15.838.773.138,1.546.283-.173-.97-.345-1.943c-2.159-.439-4.316-.842-6.469-1.193q.178,1.026.353,2.049.771.114,1.542.236,1.354,7.8,2.69,15.4-.729.822-1.455,1.677c-1.715-.01-3.427.01-5.138.071q-1.209-1-2.421-2.024-1.356-8.025-2.729-16.236c.519.042,1.041.089,1.561.139q-.179-1.071-.36-2.144c-2.143-.242-4.283-.416-6.415-.507q.184,1.124.368,2.245c.482.013.967.03,1.449.052q1.485,9.007,2.955,17.8Q41.167,33.059,43.09,34.577Z" style="fill:#ffd45c"/></svg>