<svg xmlns="http://www.w3.org/2000/svg" viewBox="0 0 46.93 55"><defs><style>.cls-1{fill:#e2a926;}.cls-2{fill:#eee;}.cls-3{fill:#bbb;}.cls-4{fill:#ccc;}.cls-5{fill:#aaa;}.cls-6{fill:#ffc81a;}</style></defs><title>contact-us</title><g id="Layer_2" data-name="Layer 2"><g id="Layer_1-2" data-name="Layer 1"><g id="contact-us"><polygon class="cls-1" points="46.93 23.84 23.59 8.2 0 23.84 11.35 33.52 11.35 23.84 35.84 23.84 35.84 33.39 46.93 23.84"/><polygon class="cls-2" points="6.27 0 6.27 25.37 23.03 43.81 40.91 25.25 40.91 5.85 35.95 4.63 35.46 0 6.27 0"/><rect class="cls-3" x="12.51" y="6.95" width="7.7" height="7.7"/><rect class="cls-3" x="12.51" y="17.26" width="22.18" height="7.65"/><rect class="cls-3" x="23.47" y="9.17" width="11.21" height="3.25"/><polygon class="cls-3" points="12.51 27.97 34.68 27.97 34.68 29.39 34.04 30.8 32 31.23 15.18 31.23 13.28 30.74 12.51 29.47 12.51 28.05 12.51 27.97"/><polygon class="cls-3" points="19.17 33.85 24.56 33.85 24.56 36.12 23.77 36.92 19.75 36.3 19.17 33.85"/><polygon class="cls-4" points="35.46 0 35.46 5.85 40.91 5.85 35.46 0"/><polygon class="cls-4" points="23.59 36.76 6.27 25.37 6.27 27.97 23.8 46.25 40.91 27.84 40.91 25.25 23.59 36.76"/><polygon class="cls-3" points="12.51 31.23 15.18 31.23 12.51 29.47 12.51 31.23"/><polygon class="cls-5" points="34.68 31.23 34.68 29.39 31.92 31.23 34.68 31.23"/><polygon class="cls-3" points="24.56 37.1 24.56 36.12 23.59 36.76 19.17 33.85 15.22 33.85 20.16 37.1 24.56 37.1"/><polygon class="cls-5" points="12.51 31.23 15.18 31.23 12.51 29.47 12.51 31.23"/><polygon class="cls-5" points="24.56 37.1 24.56 36.12 23.59 36.76 19.17 33.85 5.03 33.85 9.98 37.1 24.56 37.1"/><polygon class="cls-6" points="46.93 55 46.93 23.84 23.59 39.36 24.23 50.7 46.93 55"/><polygon class="cls-1" points="23.59 39.36 7.79 42.98 0 55 46.93 55 23.59 39.36"/><polygon class="cls-6" points="0 23.84 0 55 0.13 54.94 23.59 39.36 0 23.84"/></g></g></g></svg>