<svg xmlns="http://www.w3.org/2000/svg" viewBox="0 0 53.631 55"><title>data-mine</title><circle cx="20.244" cy="20.424" r="15.224" transform="translate(-1.822 1.983) rotate(-5.367)" style="fill:#fff"/><rect x="32.765" y="33.442" width="3.737" height="3.242" transform="translate(36.326 -14.192) rotate(46.616)" style="fill:#555"/><path d="M40.5,35.655,39.4,34.49a1.9,1.9,0,0,0-2.672-.075l-2.975,2.812a1.9,1.9,0,0,0-.075,2.672l1.1,1.166C34.066,40.308,39.788,34.9,40.5,35.655Z" style="fill:#454545"/><rect x="40.012" y="33.961" width="7.873" height="22.145" rx="1.89" ry="1.89" transform="translate(-18.924 42.492) rotate(-43.384)" style="fill:#555"/><path d="M33.932,5.724c3.208,3.653,2.582,25.342-8.834,29.07-4.986,1.628-16.673,1.722-20.139-1.686A19.947,19.947,0,1,0,33.932,5.724Z" style="fill:#e2a926"/><path d="M33.932,5.724A19.947,19.947,0,0,0,4.958,33.108,19.947,19.947,0,0,0,33.932,5.724ZM19.559,33.732a13.789,13.789,0,1,1,14.173-13.4A13.754,13.754,0,0,1,19.559,33.732Z" style="fill:#ffc81a"/><path d="M19.722,20.934l4.561,9.3c.14-.047.257-.093.4-.14A11.027,11.027,0,0,0,31.509,21Z" style="fill:#079d85"/><path d="M19.792,8.836a4.154,4.154,0,0,0-.538.023V19.442H29.872a8.983,8.983,0,0,0,.07-1.119C29.966,13.078,25.405,8.836,19.792,8.836Z" style="fill:#62a4d1"/><path d="M17.757,21.027V10.211a9.679,9.679,0,0,0,.491,19.347,5.821,5.821,0,0,0,3.6-.7Z" style="fill:#e4524e"/></svg>