<svg xmlns="http://www.w3.org/2000/svg" viewBox="0 0 73.425 55"><title>debate-club</title><path d="M17.237,2.524a2.524,2.524,0,0,0-5.048,0V5.463h5.048Z" style="fill:#aaa"/><path d="M17.237,6.018V4.744H12.189V6.018A2.533,2.533,0,0,0,14.2,8.488v1.5h-.071a1.942,1.942,0,0,0-1.936,1.936v4.669a1.942,1.942,0,0,0,1.936,1.936H15.3a1.942,1.942,0,0,0,1.936-1.936V11.921A1.942,1.942,0,0,0,15.3,9.985H15.23v-1.5A2.533,2.533,0,0,0,17.237,6.018Z" style="fill:#454545"/><polygon points="22.695 52.292 6.73 52.292 3.193 23.743 4.5 22.655 24.553 22.669 26.232 23.743 22.695 52.292" style="fill:#ffc81a"/><polygon points="2.848 20.954 3.193 23.743 26.232 23.743 26.578 20.954 2.848 20.954" style="fill:#f99b21"/><rect y="10.839" width="29.425" height="11.258" style="fill:#ffd45c"/><rect x="2.848" y="50.739" width="23.73" height="4.261" style="fill:#f99b21"/><rect x="12.189" y="4.271" width="5.048" height="1.069" style="fill:#f99b21"/><path d="M14.713,17.27l1.916,1.4L15.9,16.39l1.916-1.344H15.488l-.776-2.331-.776,2.331H11.606l1.916,1.344L12.8,18.667Zm0,0" style="fill:#f99b21"/><path d="M9.095,17.794l1.2.873-.453-1.423,1.2-.84H9.58l-.485-1.457L8.61,16.4H7.153l1.2.84L7.9,18.667Zm0,0" style="fill:#f99b21"/><path d="M20.331,17.794l1.2.873-.453-1.423,1.2-.84H20.815l-.485-1.457L19.846,16.4H18.389l1.2.84-.453,1.423Zm0,0" style="fill:#f99b21"/><path d="M61.237,2.524a2.524,2.524,0,0,0-5.048,0V5.463h5.048Z" style="fill:#aaa"/><path d="M61.237,6.018V4.744H56.189V6.018A2.533,2.533,0,0,0,58.2,8.488v1.5h-.071a1.942,1.942,0,0,0-1.936,1.936v4.669a1.942,1.942,0,0,0,1.936,1.936H59.3a1.942,1.942,0,0,0,1.936-1.936V11.921A1.942,1.942,0,0,0,59.3,9.985H59.23v-1.5A2.533,2.533,0,0,0,61.237,6.018Z" style="fill:#454545"/><polygon points="66.695 52.292 50.73 52.292 47.193 23.743 48.5 22.655 68.553 22.669 70.232 23.743 66.695 52.292" style="fill:#e4524e"/><polygon points="46.848 20.954 47.193 23.743 70.232 23.743 70.578 20.954 46.848 20.954" style="fill:#c43e28"/><rect x="44" y="10.839" width="29.425" height="11.258" style="fill:#ee6f70"/><rect x="46.848" y="50.739" width="23.73" height="4.261" style="fill:#c43e28"/><rect x="56.189" y="4.271" width="5.048" height="1.069" style="fill:#c43e28"/><path d="M58.713,17.27l1.916,1.4L59.9,16.39l1.916-1.344H59.488l-.776-2.331-.776,2.331H55.606l1.916,1.344L56.8,18.667Zm0,0" style="fill:#c43e28"/><path d="M53.095,17.794l1.2.873-.453-1.423,1.2-.84H53.58l-.485-1.457L52.61,16.4H51.153l1.2.84L51.9,18.667Zm0,0" style="fill:#c43e28"/><path d="M64.331,17.794l1.2.873-.453-1.423,1.2-.84H64.815l-.485-1.457L63.846,16.4H62.389l1.2.84-.453,1.423Zm0,0" style="fill:#c43e28"/></svg>