<svg xmlns="http://www.w3.org/2000/svg" viewBox="0 0 74.418 55"><title>eat-run</title><path d="M72.625,17.553a12.729,12.729,0,0,1,1.622,4.038c.127,1.567.457,3.431-.387,4.819A15.6,15.6,0,0,1,68.112,31.5a17.261,17.261,0,0,1-4.12,1.463l.53-10.944Z" style="fill:#888"/><path d="M74.14,28.475a3.65,3.65,0,0,0-.514-2.839l-6.586,4.777L2.186,38.186s-.473-1.4-1.016-.123C-.21,41.3-.314,43.444.569,45.477A15.437,15.437,0,0,0,5.7,51.821a36.423,36.423,0,0,0,5.747,2.572s-.043-.4.189-.323.63.032.748.2a.6.6,0,0,1,.094.372s8.092.722,12.21.124a53.8,53.8,0,0,0,10.984-2.446,6.793,6.793,0,0,0,1.67-.307c2.264-.758,6.2-2.286,6.628-2.505.361-.186.094-.531-.065-.87l.965-.7a1.283,1.283,0,0,0,1.177.1,33.891,33.891,0,0,0,3.718-3.619,4.838,4.838,0,0,0,1.028-2.14c.791-1.517,1.073-2.469,2.2-3.343,1.364-1.056,11.238-2.963,13.312-3.7a18.812,18.812,0,0,0,4.665-2.546L71,32.7S73.654,29.8,74.14,28.475Z" style="fill:#454545"/><path d="M8.55,46.864a5.168,5.168,0,0,1,1.062,1.762,4.274,4.274,0,0,0,2.6,2.507,44.223,44.223,0,0,0,16.636-.2c7.023-1.686,10.362-3.553,14.193-6.532s5.4-2.875,6.376-3.832,1.674-3.338,2.87-4.357a10.509,10.509,0,0,1,4.927-2.025A46.3,46.3,0,0,0,64.6,32.818c1.624-.48,7.624-5.636,7.673-6.622s-.245-2.15-1.873-2.072S8.55,46.864,8.55,46.864Z" style="fill:#ddd"/><path d="M70.731,10.143l-9.76,6.295L47.142,20.1l-29.914,5.18s-2.077.945-3.21,1.588-4.476,2.391-5.791,3.1a14.146,14.146,0,0,0-3.571,2.5.244.244,0,0,0-.048.018,9.056,9.056,0,0,0-1.459,1.758c-.9,1.23-2.253,3.245-1.96,4.437s1.442,4.01,3.53,5.047a15.814,15.814,0,0,1,3.329,2.167l.5.978A51.443,51.443,0,0,0,14.22,48.32c.848-.009,5.184,1.014,7.462.44.066-.017.186-.037.279-.061l.006,0a56.922,56.922,0,0,0,11.907-2.645c.887-.338,2.154-2.258,2.847-2.652,4.486-2.549,6.883-3.894,8.139-4.418.882-.368,1.652-.684,2.521-1.1a12.018,12.018,0,0,0,1.21-.6,46.984,46.984,0,0,1,4.282-3.917c2.715-1.9,6.889-3.11,7.378-3.361.869-.446,7.31-5.729,7.31-5.729L71.479,18.6l1.134-6.164Z" style="fill:#3063af"/><path d="M70.046,1.285A8.715,8.715,0,0,1,72.2,4.57a14.748,14.748,0,0,1,.495,3.1,15.159,15.159,0,0,0,.1,3.7,9.052,9.052,0,0,1,.279,4.4c-.4,1.485-.321,2.879-.875,4.353s-4.245,5.824-7.953,7.454a16.232,16.232,0,0,0-2.674,1.72,5.952,5.952,0,0,1-1.784.887A11.275,11.275,0,0,1,62.566,26.9c1.41-.877,6.184-4.824,7.277-6.971s2.663-6.157,2.191-7.2-.555-1.911-1.241-1.406-.446,1.388-1.174,1.4a3.373,3.373,0,0,1-1.609-.638Z" style="fill:#a33322"/><path d="M66.19,15.938a5.43,5.43,0,0,1-.661,1.964,2.712,2.712,0,0,1-2.589,1.284c-1.43-.157-4.726-1.1-5.873-1.1s-5.655,1.327-11.857,5.954-8.575,5.617-8.722,8.049,1.436,8.985,2.038,9.178,3.522-1.649,4.4-1.941,3.308-1.265,3.88-1.353l.572-.088s-2.849,1.454-3.773,2.052c-1.455.941-4.218,3.209-5.695,4.115-.961.59-4.04,2.007-4.04,2.007a.776.776,0,0,0,.1-.784c-.178-.48-1.827-11.529-3.4-12.094s-4.962,1.428-6.414.962-1.9-.189-4.145-2.9-4.06-3.45-3.43-5.787,3.375-2.6,3.375-2.6,2.654-3.651,3.786-4.164,5.316-4.881,5.861-4.978S32.076,11.3,32.9,10.713s2.549-2.385,2.858-2.5,5.789-4.486,5.789-4.486l2.961-.077Z" style="fill:#c43e28"/><path d="M53.28,5.53a9.734,9.734,0,0,0,3.256.047,24,24,0,0,0,4.036-1.248c1.2-.615,4.357-4.37,5.069-4.323a18.452,18.452,0,0,1,4.405,1.279c.3.325,1.118.9.814,3.124s-.81,4.783-.935,5.879-1.2,5.7-3.244,6.829a6.341,6.341,0,0,1-7.054-1.034c-2.431-2.242-5.42-4.529-5.42-4.529Z" style="fill:#888"/><path d="M67.09,4.163c-.375.058-.8-.506-.8-.506l.082.632c.082.632-1.965,1.683-3.071,2.575s-9,2.629-9,2.629L53.2,11.7a4.735,4.735,0,0,1,1.161-.05h0a11.772,11.772,0,0,1,3.1.636,6.516,6.516,0,0,1,2.7,1.71,5.11,5.11,0,0,0,2.463,1.161,2.674,2.674,0,0,0,3-1.322,6.163,6.163,0,0,0,.566-1.115l0-.007a11.924,11.924,0,0,0,.641-2.47c.342-2.143.53-3.534.66-4.382a30.018,30.018,0,0,1,.952-3.184S67.464,4.105,67.09,4.163Z" style="fill:#454545"/><path d="M46.722.352s.419-.428.693-.34.254.017.663.494,3.286,3.37,3.845,3.852,3.522,2.66,3.254,3.7a3.484,3.484,0,0,1-1.036,1.667Z" style="fill:#c43e28"/><path d="M46.614.014c.332.071.706.832,1.134,1.251s5.13,4.7,5.682,5.134,1.431,1.671,1.206,2.507-.7,2.912-.7,2.912-5.6,2.548-5.98,2.793S39.3,20.976,36.887,22.819s-5.834,5.976-6.9,6.411-3.449.773-3.936.941-1.015.669-1.191.612-4.333-6.236-4.168-6.616c0,0,20.732-20.372,20.958-20.537s1.245-1.654,1.693-1.77a4.418,4.418,0,0,1,1,.041c.063.028.319-.2.561-.534a4.68,4.68,0,0,1,.89-.741A4.025,4.025,0,0,1,46.614.014Z" style="fill:#3063af"/><path d="M44.343,1.9s.463-.565.561-.534,2.577,2.883,3.011,3.281S50.9,7.618,50.134,9.32a5.292,5.292,0,0,1-1.881,2.488c-.426.317-2.542,2.189-2.653,2.132a7.237,7.237,0,0,1,1-1.1c.535-.455,2.655-2.542,2.885-3.528s.14-2.053-1.625-3.961S44.371,2.083,44.343,1.9Z" style="fill:#c43e28"/><path d="M59.673,16.125c-2.431-2.242-5.18-3.349-8.618-1.274s-3.43.9-3.1-.672c.15-.711.646-1.019,2.362-1.695a18.372,18.372,0,0,1,3.889-.932,6.843,6.843,0,0,1,2.418.173A10.155,10.155,0,0,1,60.168,14C60.53,14.566,59.673,16.125,59.673,16.125Z" style="fill:#888"/><path d="M24.624,19.692a38.285,38.285,0,0,0-.182,5.762c.12.53,1.09,3.968,1.09,3.968l.911.919a11.123,11.123,0,0,0,1.4-.755,6.188,6.188,0,0,0-.5-1.621,48.971,48.971,0,0,1-1.486-5.625c.037-.475.116-2.815.163-2.962s-.669-.516-.884-.353A1.389,1.389,0,0,0,24.624,19.692Z" style="fill:#454545"/><path d="M45.209,15.524c-.266-.109-5.765-5.585-5.857-5.731a15.465,15.465,0,0,1-.2-2.637c.029-.524,1.458-2.013,1.593-2.433s-.262-.339-.262-.339S36.53,7.82,36.039,8.2s-.3.646-.3.646-1.067.794-1.323.943-2.161,2.181-2.558,2.332-2.836,2.4-3.169,2.646A17.513,17.513,0,0,0,26.754,16.6a10.025,10.025,0,0,1-1.707,1.562,32.367,32.367,0,0,0-3.493,3.005,10.211,10.211,0,0,0-1,2.252s.27.388.373.282a11.731,11.731,0,0,1,1.335-.545s.573-.628,1.091-1.087a1.7,1.7,0,0,1,1.091-.438l.655-.161.151,3.233c-1.023-.287-2.086-.608-2.819-.844-.585-.188-.842.378-.945.811a6.149,6.149,0,0,0-1.826-.774s-.557.8-.359,1.044,1.913,1.913,2.21,2.287,2.112,2.232,2.3,2.572.855.947,1.134.874a3.211,3.211,0,0,0,1.187-.662,28.068,28.068,0,0,0-3.5-4.322c.553.228,1.211.483,1.787.689,1.29.461,4.3.847,4.807.988s2.621.286,2.621.286.832-1.147,1.066-1.443.031-.315-.15-.327c-.069,0-.635-.06-1.363-.134L26.075,24.7a38.8,38.8,0,0,1-.323-4.625c.164-.295.808-.2.954-.227a46.356,46.356,0,0,1,4.408,1.509c.015.1,2.3,4.38,2.3,4.38l1.531-1.734s1.486-1.378,1.561-1.539-.625-.363-.625-.363l-2.878-1.435A40.928,40.928,0,0,1,31.1,16.508a5,5,0,0,1,1.361-.7,34.156,34.156,0,0,1,3.566,1.1,20.929,20.929,0,0,1,2.852,2.238s1.122.407,1.45.466,1.788-1.234,1.738-1.3a8.16,8.16,0,0,0-.821-.4l-3.5-2.168-.84-2.728a3.833,3.833,0,0,1,2.335.31c1.368.579,2.9,3.229,3.345,3.88s.381.98.381.98l1.462-1.014,1.5-1.119A3.452,3.452,0,0,0,45.209,15.524Z" style="fill:#454545"/><path d="M32.7,25.022c-.182-.012-3.753-.371-4.753-.507-.331-.045-.886-.172-1.536-.34a14.3,14.3,0,0,1-.438-2.033,26.642,26.642,0,0,1,.123-3.415c.047-.147-.669-.516-.883-.353a1.389,1.389,0,0,0-.516.669s-.26,2.817-.259,4.588c-.775-.225-1.521-.453-2.078-.632-.695-.223-.928.618-.988,1.036-.708-.749-1.025-1.086-1.076-1.157-.177-.242.26-.814.26-.814-.916-.294-1.264.6-1.339,1.409s2.279,3.445,3.72,5.021a7.418,7.418,0,0,0,4.293,2.515c.95,0,.642-.7.548-.914a2.931,2.931,0,0,0-.8-.628,5.358,5.358,0,0,0,.944-.533,6.184,6.184,0,0,0-.5-1.621c-.053-.1-.221-.568-.424-1.192,1,.177,1.907.312,2.167.384.511.141,2.621.286,2.621.286s.832-1.147,1.066-1.443S32.878,25.034,32.7,25.022Zm-10.883-.517c.6.272,1.662.7,2.538,1.013.114.041.241.081.378.12.221.812.546,1.974.731,2.631C24.517,27.329,23,25.75,21.814,24.505Z" style="fill:#ddd"/><path d="M34.957,23.213c-.048-.1-.236-.457-.478-.908a2.709,2.709,0,0,1,.52.586c.109.107.441-.254.654-.581s.932-.887.843-1.059a19.166,19.166,0,0,0-2.82-1.625c-.115-.037-.431-.161-.816-.314-.415-.789-2.128-4.042-2.442-4.55-.358-.579-.624-.442-1.051-.116a.616.616,0,0,0-.155.8c.1.123.538,1.516.979,2.824-1.121-.416-3.582-1.342-4.3-1.575-.912-.293-1.3.231-1.887.616s-.228,1.382-.228,1.382c.152.085.75-.767,1.31-.568.3.1,5.363,2.053,5.9,2.254.026.051.05.1.071.131.438.705,1.858,3.5,2.449,4.232a2.32,2.32,0,0,1,.214,2.346c-.258.864.506.807.506.807.553.1.848-.695,1.246-2A3.369,3.369,0,0,0,34.957,23.213Z" style="fill:#ddd"/><path d="M40.384,16.231a15.1,15.1,0,0,0-1.97-.955c-.042-.013-.13-.047-.255-.1-.095-.245-.159-.417-.17-.464-.051-.218-2.4-3.572-2.824-4.192s-1-.1-1.3.166.359,1.2.359,1.2.413,1,.847,2.033c-1.428-.577-2.927-1.17-3.649-1.4-1.534-.493-2.015-.063-2.507.4s-.139,1.394-.139,1.394c.316.081.783-.518,1.122-.631s3.579,1.407,4.979,1.817a8.753,8.753,0,0,1,1.049.4c.039.084.071.15.092.188.241.44,1.181,2.6,1.549,3.52a17.734,17.734,0,0,1,.52,2.081c.118.26-.364,1.072-.3,1.174s.639.205.639.205c.93.178,1.148-.941,1.4-2.09a4.491,4.491,0,0,0-.4-2.629c-.043-.118-.143-.373-.27-.694.374.28,1.086.977,1.086.977.183.059,1.128-.625,1.591-.94s.4-.435.018-.558A11.2,11.2,0,0,1,40.384,16.231Z" style="fill:#ddd"/><path d="M45.579,15.3c.127-.02.348-.392.146-.517a4.291,4.291,0,0,1-1.125-.764,17.664,17.664,0,0,0-2.522-1.654,8.457,8.457,0,0,1-.55-.764c-.211-.41-2.416-3.456-2.529-3.855s.183-1.009.109-1.093a.274.274,0,0,0-.183-.119s-1.146.055-1.38.846a3.935,3.935,0,0,0,.314,2.409,28.5,28.5,0,0,0-2.717-1.327,1.414,1.414,0,0,0-1.972.555c-.268.458.174,1.334.174,1.334s.6-.526.8-.538a33.987,33.987,0,0,1,4.7,2.3,11.3,11.3,0,0,1,1.088.734,14.767,14.767,0,0,0,1.186,1.407,6.582,6.582,0,0,1,1.946,3.225c-.043.51-.53,1.462-.158,1.682a1.145,1.145,0,0,0,1.57-.684,7.451,7.451,0,0,0,.129-2.63A9.444,9.444,0,0,1,45.579,15.3Z" style="fill:#ddd"/><path d="M5.6,38.829c.357,1.966,2.948,3.9,6.156,5.228s9.2,1.081,9.762.941-6.8-1.334-8.789-2.555c-2.292-1.4-5.33-3.029-5.225-6.64a9.449,9.449,0,0,1,1.505-2.634S4.722,33.985,5.6,38.829Z" style="fill:#5382c2"/></svg>