<svg xmlns="http://www.w3.org/2000/svg" viewBox="0 0 55.741 55"><title>economic-intelligence</title><polygon points="48.833 52.597 27.87 54.91 6.908 52.597 14.956 47.792 40.785 47.792 48.833 52.597" style="fill:#ccc"/><rect x="6.908" y="52.597" width="41.926" height="2.403" style="fill:#ddd"/><rect x="19.521" y="41.225" width="16.698" height="8.609" style="fill:#ddd"/><rect x="19.521" y="41.225" width="16.698" height="1.442" style="fill:#aaa"/><rect width="55.741" height="41.325" rx="4.645" ry="4.645" style="fill:#ddd"/><rect x="2.823" y="3.364" width="50.095" height="34.598" style="fill:#a0ddf7"/><rect x="40.148" y="16.6" width="7.963" height="21.361" style="fill:#62a4d1"/><rect x="29.19" y="27.652" width="7.963" height="10.309" style="fill:#62a4d1"/><rect x="18.232" y="23.768" width="7.963" height="14.194" style="fill:#62a4d1"/><rect x="7.274" y="30.036" width="7.963" height="7.924" style="fill:#62a4d1"/><polygon points="50.105 8.485 42.782 8.275 44.98 11.036 26.49 23.865 22.012 17.628 5.556 28.15 7.091 30.551 21.272 21.485 25.81 27.806 46.759 13.271 48.667 15.668 50.105 8.485" style="fill:#c43e28"/></svg>