<svg xmlns="http://www.w3.org/2000/svg" viewBox="0 0 66.839 55"><title>en-route</title><path d="M61.826,55h-3.05L34.23,45.657,8.038,55H5.013A5.028,5.028,0,0,1,0,49.987V13.332c0-1.379,1.242-6.062,6.062-6.062H11.92L13.288,9.04l.82-1.771h38.6l1.2,1.393.986-1.393h5.882c4.82,0,6.062,4.684,6.062,6.062V49.987A5.028,5.028,0,0,1,61.826,55Z" style="fill:#79564b"/><path d="M58.776,55H54.894l-.729-1.149L52.705,55h-38.6l-1.083-2.121L11.919,55H8.038a3.462,3.462,0,0,1-2.485-1.061A3.651,3.651,0,0,1,4.52,51.387V18.742A3.651,3.651,0,0,1,5.554,16.19a3.462,3.462,0,0,1,2.485-1.061H58.776A3.462,3.462,0,0,1,61.26,16.19a3.651,3.651,0,0,1,1.033,2.552V51.387a3.651,3.651,0,0,1-1.033,2.552A3.462,3.462,0,0,1,58.776,55Z" style="fill:#694a3a"/><path d="M41.669,1.292l-16.393.042a.219.219,0,0,0-.132-.042,5.4,5.4,0,0,0-5.378,5.6,6.7,6.7,0,0,0,.273,1.868,7,7,0,0,0,.775,1.734h2.3A7,7,0,0,1,21.806,6.37c0-1.874,1.423-2.569,3.168-2.745A.572.572,0,0,0,25.28,3.5a.289.289,0,0,0,.051-.063l16.262.088a.547.547,0,0,0,.246.1c1.745.176,3.168.872,3.168,2.745A7,7,0,0,1,43.7,10.492H46a7,7,0,0,0,.775-1.734,6.7,6.7,0,0,0,.273-1.868A5.4,5.4,0,0,0,41.669,1.292Z" style="fill:#aaa"/><path d="M24.351,2.207V3.859a1.123,1.123,0,0,0,1.075,1.159H41.388a1.123,1.123,0,0,0,1.075-1.159V2.207c-1.034.283-5.224-.792-9.387-.8C29.189,1.4,25.316,2.471,24.351,2.207Z" style="fill:#555"/><path d="M41.388,0H25.426a1.123,1.123,0,0,0-1.075,1.159V2.207a37.777,37.777,0,0,0,9.056.907,37.777,37.777,0,0,0,9.056-.907V1.159A1.123,1.123,0,0,0,41.388,0Z" style="fill:#454545"/><path d="M22.624,36.042l-7.288-3.35-7.288-3.35a1.594,1.594,0,0,1-.78-2.108L8.7,24.126l1.429-3.108a1.594,1.594,0,0,1,2.108-.78l7.288,3.35,7.288,3.35a1.594,1.594,0,0,1,.78,2.108l-1.429,3.108-1.429,3.108a1.594,1.594,0,0,1-2.108.78Z" style="fill:#e4524e"/><path d="M23.364,36.874a2.049,2.049,0,0,1-.858-.188L7.636,29.851a2.065,2.065,0,0,1-1.012-2.733l2.993-6.512a2.064,2.064,0,0,1,2.734-1.012l14.871,6.835a2.063,2.063,0,0,1,1.012,2.733L25.24,35.674A2.064,2.064,0,0,1,23.364,36.874Zm-.328-1.341a.794.794,0,0,0,1.051-.389l2.993-6.512a.794.794,0,0,0-.389-1.051L11.821,20.746a.793.793,0,0,0-1.051.389L7.777,27.647A.8.8,0,0,0,8.166,28.7Z" style="fill:#fff"/><rect x="43.249" y="19.718" width="9.679" height="9.679" transform="matrix(0.957, 0.29, -0.29, 0.957, 9.192, -12.894)" style="fill:#a0ddf7"/><path d="M51.708,31.326,41.321,28.177,44.469,17.79l10.387,3.149Zm-8.922-3.932,8.139,2.467,2.467-8.139-8.139-2.467Z" style="fill:#fff"/><rect x="11.919" y="7.269" width="2.189" height="47.731" style="fill:#c4b192"/><rect x="52.705" y="7.269" width="2.189" height="47.731" style="fill:#c4b192"/><circle cx="39.947" cy="43.612" r="5.803" style="fill:#44ba8f"/><path d="M39.947,50.026a6.414,6.414,0,1,1,6.414-6.414A6.421,6.421,0,0,1,39.947,50.026Zm0-11.606a5.192,5.192,0,1,0,5.192,5.192A5.2,5.2,0,0,0,39.947,38.42Z" style="fill:#fff"/></svg>