<svg xmlns="http://www.w3.org/2000/svg" viewBox="0 0 71.002 55"><title>for-parents</title><path d="M21.7,27.388s-.936-1.652-1.516-1.136-2.311,4.613-3.084,6.11-2.8,4.08-3.521,4.239S9.326,37.891,9,38.078s-.016,4.373,1.147,6.207,3.976,5.477,3.976,5.477,4.361-4.638,6.122-4.39,4.028,1.07,4.19.916-.446-15.643-.446-15.643Z" style="fill:#e6c49d"/><path d="M24.335,44.746a18.8,18.8,0,0,1-4.217-.291c-1.762-.249-6.1,3.765-6.1,3.765s-2.812-3.643-3.976-5.477c0,0-.721-4.851-1.051-4.664s-.016,4.373,1.147,6.207,3.976,5.477,3.976,5.477,4.334-4.014,6.1-3.765a18.8,18.8,0,0,0,4.217.292C24.593,46.135,24.466,44.621,24.335,44.746Z" style="fill:#c4b192"/><path d="M56.838,4.536s-13.48,6.121-15.861,6.781-8.431,4.087-9.986,6.208-2.309,5.166-3.874,6.052-3.8,3.257-3.929,4.982-2.038,7.627-1.777,9.546a60.76,60.76,0,0,0,2.262,8.09s.3,1.04,2.173-.272,4.326-14.482,4.441-14.609a25.634,25.634,0,0,1,2.987-3.75A30.026,30.026,0,0,0,36.1,25.841a2.4,2.4,0,0,0,.588-.832,2.406,2.406,0,0,0,3.056,1.323,21.645,21.645,0,0,0-2.275,2.037c-.176.349,11.1,1.036,12.815.436s5.083-1.885,6.126-3.785,4.935-6,5.036-7.8S64.18,14.67,64.18,14.67L58,3.769Z" style="fill:#79564b"/><path d="M19.916,29.46c.772-1.5-.31-2.692.271-3.208s2.66-.7,3.144-.722a4.19,4.19,0,0,0,2.062-.981c.722-.6,1.12.986,1.129,2.1s-2.268,2.158-2.909,2.458S21.7,27.388,21.7,27.388Z" style="fill:#e6c49d"/><path d="M30.765,41.479a3.573,3.573,0,0,1,.044,1.714,4.009,4.009,0,0,1-1.347,1.459L25.6,43.768a1.227,1.227,0,0,1-.621-1.3c.132-.944,1.232-.843,2.03-.715A24.9,24.9,0,0,0,30.765,41.479Z" style="fill:#e6c49d"/><path d="M30.922,37.1a8.51,8.51,0,0,1,.216,2.428c-.132.944-.373,1.95-.373,1.95s-3.468.631-3.821.571-3.123-.55-3.033-1.876.334-2.276,1.763-2.158a5.577,5.577,0,0,0,2.828-.124C29.522,37.545,30.922,37.1,30.922,37.1Z" style="fill:#e6c49d"/><path d="M31.639,33.505s.7,1.138.572,1.676a9.068,9.068,0,0,1-1.29,1.919s-4.045,1.915-4.564,1.716-1.907-.4-2.015-1.409-.459-1.885,1.029-2.583a25.686,25.686,0,0,1,2.588-1.06Z" style="fill:#e6c49d"/><path d="M30.791,29.348A2.128,2.128,0,0,1,32.138,30.7a5.271,5.271,0,0,1-.4,2.98c-.066.037-2.258,1.54-3.29.588-1.007-.929-1.478-1.279-.07-3.091S30.791,29.348,30.791,29.348Z" style="fill:#e6c49d"/><path d="M22.281,28.214l.005-.012c-.045-.057-.089-.113-.131-.168Z" style="fill:none"/><path d="M20.187,26.252c.018-.016.041-.03.061-.045A.428.428,0,0,0,20.187,26.252Z" style="fill:#e6c49d"/><path d="M20.137,26.3a.7.7,0,0,1,.05-.051A.528.528,0,0,0,20.137,26.3Z" style="fill:#e6c49d"/><path d="M25.883,24.37l-.1.061a.369.369,0,0,1,.1.042Z" style="fill:#f1dcb3"/><path d="M37.468,28.369a40.932,40.932,0,0,1-3.862,3.746,6.612,6.612,0,0,0-2.165,3.221c-.28,1.156-.328,4.923.127,5.726a5.321,5.321,0,0,0,.575.812c.547.637,1.2.289,1.823-.065.9-.508,4.78-5.617,5.758-6.421s8.694-5.925,10.412-6.524Z" style="fill:#79564b"/><path d="M7.642,47.6l8.6,2.978s1.708-4.166,1.327-5.232c-.351-.982-2.446-2.179-2.753-3.175s.048-3.257-.457-4.162c-.7-1.247-4.5-1.68-4.5-1.68Z" style="fill:#e07471"/><path d="M8.009,44.465l7.026,3.424,1.207,2.693L6.386,55,5.179,52.307Z" style="fill:#a33322"/><path d="M0,40.751l9.856-4.417,5.179,11.556L5.179,52.307Z" style="fill:#c43e28"/><path d="M58,3.769l-.525.345,5.468,9.652s-2.633.744-2.734,2.546-3.346,6.2-4.389,8.1-5.031,3.224-6.748,3.823-9.38,6-10.359,6.8-4.995,6.258-5.891,6.766a.881.881,0,0,1-.674.073c.546.635,1.283,1.184,1.907.831.9-.508,4.913-5.962,5.891-6.766s8.641-6.2,10.359-6.8,5.705-1.923,6.748-3.823,4.289-6.294,4.389-8.1S64.18,14.67,64.18,14.67Z" style="fill:#694a3a"/><path d="M62.769,8.132l6.9,3.135L71,14.249l-9.856,4.417L59.81,15.685Z" style="fill:#1b54a5"/><path d="M54.76,4.417,64.616,0l5.05,11.267L59.81,15.685Z" style="fill:#3063af"/><circle cx="60.216" cy="4.512" r="1.246" transform="translate(-0.107 1.781) rotate(-1.693)" style="fill:#ffc81a"/></svg>