<svg xmlns="http://www.w3.org/2000/svg" viewBox="0 0 77.981 55"><title>for-better</title><path d="M70.435,13.622C68.306-.738,54.126-2.5,46.4,2.607a17.454,17.454,0,0,0-6.248,8.055c-.372-.738-.677-1.348-.987-1.955C34.327-.765,23.718-1.584,17.337,1.915,11.449,5.143,8.35,12.968,10.055,20.167A22.507,22.507,0,0,0,11.64,24.62h-.02a7.431,7.431,0,0,0,.583,1.149h.008A30.764,30.764,0,0,0,17.79,33c7.438,7.328,15.771,13.743,22.332,22C44.988,48.888,50.8,43.814,56.47,38.585c2.594-2.394,5.254-4.745,7.608-7.363a31.858,31.858,0,0,0,3.6-4.783h0a5.24,5.24,0,0,0,.653-1.149h0A18.425,18.425,0,0,0,70.435,13.622Z" style="fill:#e4524e"/><path d="M70.435,13.622C68.716,2.03,59.146-1.351,51.453.463c5.3,1.288,10.006,5.365,11.162,13.159.645,4.351-2.48,11.09-7.219,18.279C51.417,37.938,44.988,48.888,40.122,55,44.988,48.888,50.8,43.814,56.47,38.585c2.594-2.394,5.254-4.745,7.608-7.363a31.858,31.858,0,0,0,3.6-4.783h0a5.24,5.24,0,0,0,.653-1.149h0A18.425,18.425,0,0,0,70.435,13.622Z" style="fill:#c43e28"/><path d="M75.8,20.175a2.169,2.169,0,0,0-1.914,1.159H60.616a1,1,0,0,0-.979.8l-1.322,6.326L54.931,11.142a1,1,0,0,0-1.947-.068l-3.8,14.093H46.253l-2.064-4.423a1.023,1.023,0,0,0-.927-.577,1,1,0,0,0-.9.615L40.729,24.7l-1.541-3.287a1,1,0,0,0-1.885.223L34.159,36.905l-7.3-25.568a1,1,0,0,0-.961-.726h-.022a1,1,0,0,0-.951.769l-2.8,11.786H4.115a2.179,2.179,0,1,0-.025,2H22.913a1,1,0,0,0,.973-.769l2.1-8.833,7.372,25.809a1,1,0,0,0,.961.726h.038a1,1,0,0,0,.942-.8l3.359-16.316,1.222,2.607a1.031,1.031,0,0,0,.927.576,1,1,0,0,0,.9-.615l1.629-3.909,1.375,2.947a1,1,0,0,0,.906.577H49.95a1,1,0,0,0,.965-.74l2.879-10.676L57.3,33.692a1,1,0,0,0,.975.808.983.983,0,0,0,.985-.8l2.167-10.371h12.44A2.174,2.174,0,1,0,75.8,20.175Z" style="fill:#a33322"/></svg>