<svg xmlns="http://www.w3.org/2000/svg" viewBox="0 0 93.978 55"><title>high-school-notes</title><path d="M23.917,44.46c.937.69,2.587,1.893,2.659,3.064l53.4-29.043L78.6,14.7Z" style="fill:#e2a926"/><path d="M75.239,9.531,21.428,39.676c1.523,1.1,3.3,3.007,3.314,4.762,0,.076,0,.166,0,.244l53.79-29.265Z" style="fill:#ffc81a"/><path d="M91.142,9.208c.186.288.7-.175.91.017l1.755,1.568a.634.634,0,0,0,.136.094h0l-.3-2.067a4.455,4.455,0,0,0-.4-1.223l-.1-.188h0l-2.53-4.738c-.032-.06-.073-.126-.116-.194l0,0a4.475,4.475,0,0,0-.674-.812L88.072.094A.632.632,0,0,0,87.936,0h0l-.043,3.2c.051.356.838.276.838.276h0Z" style="fill:#e07471"/><polygon points="22.223 39.913 22.223 39.913 22.274 39.879 22.223 39.913" style="fill:none"/><path d="M22.223,39.913c-.4-.037-6.825,3.557-11.373,6.683a28.773,28.773,0,0,0-4.631,3.972s-1.408,1.214-1.294,1.424c.209.387,2.039.4,2.039.4s7.322-1.862,9.415-2.77a36.654,36.654,0,0,0,8.364-4.938C25.464,43.715,23.506,40.033,22.223,39.913Z" style="fill:#e6c49d"/><path d="M22.223,39.913h0V39.9h0V39.84A3.963,3.963,0,0,0,20.577,36.7L5.081,50.229A3.294,3.294,0,0,1,6,50.708Z" style="fill:#f1dcb3"/><path d="M74.112,7.533,20.576,36.717c1.005.719,1.646,3.176,1.647,3.2L75.8,10.562Z" style="fill:#ffd45c"/><path d="M24.744,44.683,6.385,52.628c.009.248-.07.462.522.521l19.67-5.625A2.829,2.829,0,0,0,24.744,44.683Z" style="fill:#c4b192"/><path d="M6.964,52.391a2.832,2.832,0,0,0-.331-1.252,2.728,2.728,0,0,0-.413-.571,3.1,3.1,0,0,0-.818-.618l-4.02,3.508-.97.847c-.658.575-.511.849.328.609l4.224-1.208,1.943-.556A3.479,3.479,0,0,0,6.964,52.391Z" style="fill:#555"/><path d="M89.29,4.51l-.659-1.219a4.455,4.455,0,0,1-.4-1.223L87.936,0,76.889,6.02l1.4,3.84Z" style="fill:#eeada1"/><polygon points="78.307 15.471 79.943 18.499 82.789 16.931 82.388 15.315 81.196 13.954 80.087 13.987 78.307 15.471" style="fill:#ddd"/><path d="M91.946,9.336c-.044-.068-.525-.969-.557-1.029L88.742,3.372l-10.2,5.586.6,2.249,1.831,2.543.218.266Z" style="fill:#ee6f70"/><path d="M92.086,9.207a4.475,4.475,0,0,1-.674-.812l-10.255,5.58,1.631,2.956L93.978,10.87a.634.634,0,0,1-.136-.094Z" style="fill:#e4524e"/><polygon points="78.479 8.706 75.561 10.288 78.307 15.471 81.158 13.975 78.602 8.926 78.479 8.706" style="fill:#eee"/><polygon points="78.602 8.926 76.95 5.987 74.093 7.543 75.73 10.599 78.602 8.926" style="fill:#fff"/></svg>