<svg xmlns="http://www.w3.org/2000/svg" viewBox="0 0 65.177 55"><title>i-am-the-law</title><path d="M62.779,45.08,50.836,37.46a5.206,5.206,0,0,0-4.92-.357L35.57,30.5,43.677,17.8a2.721,2.721,0,0,0-.828-3.746l-5.287-3.373L16.829,22.083,16.048,44.4l5.287,3.373a2.721,2.721,0,0,0,3.746-.828L32.192,35.8l10.444,6.663a5.2,5.2,0,0,0,2.389,4.107l11.943,7.619A5.215,5.215,0,0,0,64.148,52.6l.217-.341A5.215,5.215,0,0,0,62.779,45.08Z" style="fill:#694a3a"/><polygon points="32.594 7.508 17.306 22.312 11.08 41.23 16.048 44.399 37.562 10.677 32.594 7.508" style="fill:#79564b"/><path d="M24.814,5.763,6.219,34.91a2.721,2.721,0,0,0,.828,3.746L11.08,41.23,32.594,7.508,28.561,4.935A2.721,2.721,0,0,0,24.814,5.763Z" style="fill:#8a614c"/><path d="M.939,38.8l22.735,14.5a2.041,2.041,0,0,0,2.81-.621l.539-.846L15.216,42.853.857,35.147l-.539.846A2.041,2.041,0,0,0,.939,38.8Z" style="fill:#79564b"/><path d="M27.557,51a2.041,2.041,0,0,0-.621-2.81L4.2,33.689a2.041,2.041,0,0,0-2.81.621l-.534.837L27.023,51.841Z" style="fill:#694a3a"/><path d="M48.816,17.632a2.041,2.041,0,0,0-.621-2.81L25.46.318a2.041,2.041,0,0,0-2.81.621l-.534.837L32.89,11.71l15.392,6.759Z" style="fill:#694a3a"/><path d="M22.2,5.431l22.735,14.5a2.041,2.041,0,0,0,2.81-.621l.539-.846L22.116,1.776l-.539.846A2.041,2.041,0,0,0,22.2,5.431Z" style="fill:#79564b"/></svg>