<svg xmlns="http://www.w3.org/2000/svg" viewBox="0 0 55 55"><title>international-student-counsel</title><path d="M52.522,27.423c0,15.188-10.055,25.245-25.24,25.245-9.486,0-17.626-2.472-22.568-9.781A27.5,27.5,0,0,1,42.878,4.7C50.192,9.639,52.522,17.93,52.522,27.423Z" style="fill:#76bbd6"/><path d="M1.633,18.149c.043-.122.092-.242.137-.363C1.724,17.907,1.677,18.027,1.633,18.149Z" style="fill:#b6dfd0"/><path d="M.413,22.771c.082-.465.173-.927.277-1.383Q.534,22.074.413,22.771Z" style="fill:#b6dfd0"/><path d="M.236,23.95c.044-.326.087-.653.141-.975C.323,23.3.278,23.624.236,23.95Z" style="fill:#b6dfd0"/><path d="M.71,21.3c.1-.449.219-.893.343-1.333Q.865,20.627.71,21.3Z" style="fill:#b6dfd0"/><path d="M1.122,19.723c.1-.334.2-.663.314-.992Q1.27,19.223,1.122,19.723Z" style="fill:#b6dfd0"/><path d="M49.852,28.011s-.17.113-.283.17a1.116,1.116,0,0,1-.509.056c-.283,0-.226.057-.4.057-.226,0-.113.113-.339.17-.17,0-.339.056-.452.056s-.113-.17-.17-.17a.122.122,0,0,1-.113-.113V27.9c0-.113-.057-.17-.17-.283-.113-.057-.113-.17-.226-.283a1.14,1.14,0,0,0-.509-.4c-.17-.056,0-.113-.283-.452s-.113-.113-.17-.4c0-.113-.057-.17-.113-.17-.057-.056-.113-.056-.226-.17-.226-.226-.17-.113-.226-.226-.057-.057,0-.283,0-.4a6.678,6.678,0,0,0-.339-.735c-.057-.226-.226-.113-.17-.17s0-.056-.057-.17c-.057-.057-.057-.17-.113-.283a1.746,1.746,0,0,0-.4-.791c-.17-.226-.113-.17-.113-.339s-.339-.452-.339-.509c0-.113-.113-.283-.057-.226a2.46,2.46,0,0,1,.226.4c.057.113,0,.057.283.283s.057-.057.113-.283a.615.615,0,0,0-.057-.283c-.057-.283-.17-.565-.226-.565h-.283c-.17,0-.113-.056-.283-.056s-.113-.113-.4-.113-.283.17-.509.226-.565-.283-.678-.283H41.77c-.057,0-.113-.057-.17-.113h-.113a1.35,1.35,0,0,1-.4-.17.677.677,0,0,1-.226-.226c-.113-.17-.339-.057-.452-.057s-.17.17-.283.283c-.113.057,0,.339,0,.452,0,.17-.113.056-.17.113a.576.576,0,0,1-.509-.113l-.17-.17c-.113-.113-.452-.057-.509-.057-.113,0-.113,0-.17-.226a.418.418,0,0,0-.17-.283,3.18,3.18,0,0,1-.565.113c-.17,0-.283-.056-.4-.056-.057,0-.113-.057-.17-.113s-.113-.113-.17-.113a.209.209,0,0,1-.17-.113s-.113-.113-.057-.226c0-.113.113-.17.17-.283s-.057-.283-.113-.339.17-.283.17-.283-.226.113-.226,0-.283-.17-.283-.17a2.448,2.448,0,0,0-.283.056h-.961a3.111,3.111,0,0,1-.678.056,1.517,1.517,0,0,1-.565,0,1.282,1.282,0,0,0-.226.057.7.7,0,0,0-.4.113c-.113.056-.113.113-.226.113a.7.7,0,0,0-.4.113c-.17.057,0,0-.057.057s-.057.113-.113.113h-.057a.34.34,0,0,0-.226-.056H31.88a.7.7,0,0,1-.283-.113.39.39,0,0,0-.283-.17c-.17-.056-.17.057-.17.057a.279.279,0,0,1-.057.17c0,.057-.113.17-.113.283s-.226.113-.226.17c-.057.057-.17.057-.339.113s-.283.057-.4.17c-.113.17-.226.226-.283.339,0,.113-.113.17-.113.283a1.15,1.15,0,0,0,.057.283v.17s-.226.17-.226.283c0,.17-.4.113-.4.113a1.548,1.548,0,0,0-.4.226.817.817,0,0,1-.4.113c-.057,0,.057.283-.4.452a.794.794,0,0,0-.509.622.592.592,0,0,1-.17.226.874.874,0,0,0-.17.339,4.245,4.245,0,0,0-.4.452.806.806,0,0,0-.113.226c0,.17.057.17.113.283s0,.113.17.113c.113.057,0,.283,0,.509v.339c0,.17-.057.283-.057.509v.17a.208.208,0,0,1-.057.17c-.057.057-.283.4-.283.4a.585.585,0,0,0-.057.226V27.5c0,.113,0,0-.057.226s0,0-.057.17.226.283.226.283l.113.113c.113.113.339.057.339.057-.057.113.113.226.17.226h.057a.794.794,0,0,0,.226.226c.113.057.057.113.226.226a.564.564,0,0,1,.226.283.2.2,0,0,0,.057.113v.283c0,.057.17.17.283.226a.592.592,0,0,0,.339.17c.057,0,.057.056.113.056.113.057.113.113.17.17a5.541,5.541,0,0,0,.565.4s.283.17.509.283c.226.17.283.057.283.057h.057a.34.34,0,0,0,.226-.057,2.355,2.355,0,0,1,.339-.113,1.169,1.169,0,0,1,.452-.113h.565c.226,0,.113.056.226.113s.17,0,.226,0h.057c.113-.057.17-.057.283-.113a.954.954,0,0,0,.283-.113.606.606,0,0,1,.339-.113c.113,0,.17-.113.283-.113.17,0,.17-.113.17-.113h.057c.113,0,.283-.057.339-.057h.509c.17,0,.17.057.452.226s.057.17,0,.339.057.17.226.17.339-.113.452-.113a1.646,1.646,0,0,0,.452-.113l.17.17a.908.908,0,0,1,.283.339.337.337,0,0,1,0,.4c0,.057-.057.057-.057.113-.057.056-.057.226-.113.339v.17c0,.113-.17.226-.226.565-.057.283.339.735.678,1.018l.17.17a.3.3,0,0,1,.17.226c.057.113.057.226.113.339.057.226.057.4.113.565.113.339.339.339.226.4-.113,0-.057.509.057.565s.17.565-.17,1.018a4.771,4.771,0,0,0-.678,1.639c0,.057-.057.17-.057.226a6.218,6.218,0,0,0,.678,1.866s.113.961.113,1.357c-.057.339.283.735.4.961,0,.056.057.056.057.113a2.846,2.846,0,0,0,.226.9c.283.4-.17.791.057,1.3s.509.339.848.057c.4-.283.565,0,.735-.057.17,0,.565-.283.848-.283s.226-.452.735-.678a1.1,1.1,0,0,0,.791-.848c.113-.509.452-.622.791-.9A.493.493,0,0,0,43.3,42.2c0-.057,0-.113-.057-.113-.113-.4.735-.678.735-.678q.254,0,.339-.678a1.206,1.206,0,0,0-.17-1.018c-.226-.283.113-.339.283-.452a2.457,2.457,0,0,0,.4-.339c.113-.113.17-.283.283-.4a2.636,2.636,0,0,1,.565-.283c.113-.113.339-.226.452-.452.17-.226.17-.226.113-.452s0-.226.057-.678a1.565,1.565,0,0,1,.057-.565.585.585,0,0,1-.057-.226,2.01,2.01,0,0,1-.113-.565c-.057-.283,0-.4-.057-.509a.956.956,0,0,1-.113-.509c0-.283.17-.113.17-.339a.44.44,0,0,1,.17-.4c.113-.057,0-.339.113-.4a.975.975,0,0,0,.339-.339l.283-.283c.057-.057.283-.4.4-.509a2.61,2.61,0,0,1,.4-.4c.057-.057.283-.057.283-.17.057-.057.339-.452.4-.509a1.987,1.987,0,0,0,.4-.509,3.5,3.5,0,0,1,.339-.791c.226-.4.283-1.244.4-1.413C50.078,27.955,49.852,28.011,49.852,28.011ZM29.845,22.3h0Z" style="fill:#b6dfd0"/><path d="M7.918,11.618a3.97,3.97,0,0,1-.339.509c-.057.056-.057.4-.113.452s-.226.4-.339.452a1.624,1.624,0,0,0-.226.339c.057.056.057.113.113.226.057-.057.17-.057.226-.113.057-.113.113-.17.17-.283.113-.057.17-.057.283-.113,0-.056-.057-.17-.057-.226v-.283a.956.956,0,0,0,.339-.4A.8.8,0,0,0,8.2,12.07c.113-.056.283-.452.339-.509S7.918,11.618,7.918,11.618Z" style="fill:#b6dfd0"/><path d="M13.23,11.787a1.745,1.745,0,0,1-.622-.113c-.283,0-.509.17-.565.056s.452-.339.452-.339.339-.339.057-.226-.791.113-.509.057c.226-.113-.17-.113-.17-.113-.057-.057-.057-.113-.113-.17,0,0-.4.057-.283-.057.057-.057-.339,0-.226-.057.057-.056.113-.226.057-.226a1.108,1.108,0,0,0-.678.113c-.226.113-.057.4.057.339a.273.273,0,0,1,.226,0,1.811,1.811,0,0,0-.283.17,3.356,3.356,0,0,0-.452.226.294.294,0,0,0,.113-.226c.057-.057.057-.17.113-.226v-.17l-.339.17a1.235,1.235,0,0,0-.283.17l-.17.17c.057-.113.057-.226.113-.339a1.234,1.234,0,0,1-.226.283c-.057.057.057.791,0,.791-.057.057-.283-.226-.283-.226a1.816,1.816,0,0,1,.17-.283c0-.113-.226-.226-.226-.226-.113.17-.283.339-.4.509-.057.113-.17.17-.226.283a.51.51,0,0,0,.057.283c.113-.056.226-.056.339-.113-.113.113-.226.17-.339.283,0,.057.057.113.057.17.113-.056.17-.056.283-.113a2.27,2.27,0,0,0,.735-.226,3.527,3.527,0,0,0,.622-.283c.057-.056.113-.17.17-.226,0,0,.452,0,.509.17s.339.17.4.283a.514.514,0,0,1-.226.452c-.17.113-.226.509-.226.509s0,.17-.113.226-.4.057-.452.113a1.547,1.547,0,0,0-.283.226s-.283.509-.057.4.113-.113.283-.17c.113-.056.622-.452.735-.056a.345.345,0,0,0,.509.226c.113,0,.452.057.452-.057,0-.057.283-.17,0-.339s-.17-.339,0-.226.339.17.452-.057c.057-.283.339-.339.057-.565-.283-.17-.283-.283-.283-.283-.283.056-.17-.17-.057-.226a.469.469,0,0,1,.452.17c.057.113.113.17.226-.057s0-.283.339-.452S13.626,11.844,13.23,11.787Z" style="fill:#b6dfd0"/><path d="M12.965,17.489a1.765,1.765,0,0,0-.244.347.7.7,0,0,1-.283.452,2.115,2.115,0,0,0-.226.622l.452-.17a2.027,2.027,0,0,0,.678-.4c0,.056.057.113.057.17a.34.34,0,0,1,.226.057.977.977,0,0,0,.226-.17.564.564,0,0,0,.057-.226l-.057-.056c0-.056-.057-.113-.057-.226v-.226a.81.81,0,0,0-.4.113.2.2,0,0,1-.226.056c.057-.056.057-.113.113-.226,0,0-.226,0-.283.057.17-.113.678-.622.4-.509l-.011.005C13.362,17.294,13.265,17.36,12.965,17.489Z" style="fill:#b6dfd0"/><path d="M7.522,10.487c.113-.056.17-.113.283-.113,0,.057.057.057.057.113.057,0,.113-.056.17-.056a.51.51,0,0,0-.057-.283c-.057,0-.17-.056-.226-.056-.057.056-.113.056-.226.113s-.226.17-.339.226h.226C7.522,10.43,7.522,10.43,7.522,10.487Z" style="fill:#b6dfd0"/><path d="M7.409,11.618c.113-.057.283,0,.283-.113a.585.585,0,0,1,.057-.226.34.34,0,0,1,.057-.226c-.113,0-.226.057-.339.057v.17s-.057.283-.057.226c-.057-.113-.113-.339-.113-.283a1.86,1.86,0,0,0-.17.339c.057.057.057.17.113.226C7.183,11.731,7.3,11.674,7.409,11.618Z" style="fill:#b6dfd0"/><path d="M6.9,12.918a3.467,3.467,0,0,0,.339-.226c.113-.057-.057-.4-.057-.4.057,0,.113-.057.17-.057,0,0,.17-.339.113-.452s-.283.226-.339.226a2.667,2.667,0,0,1-.283.113c-.057.056-.113.113-.113.17v.283l-.17-.057c-.17.057-.226.4-.226.4.057,0,.17.057.226.057,0,0-.057.283.17.17C6.957,13.087,6.9,12.918,6.9,12.918Z" style="fill:#b6dfd0"/><path d="M22.85,6.8c.012,0,.014-.007,0,0Z" style="fill:#b6dfd0"/><path d="M24.7,2.46a2.666,2.666,0,0,0-.848.339,3.893,3.893,0,0,1-.565.226c-.057,0,.226-.17,0-.226h-.057l-.113-.113h-.17c-.057-.056-.113-.056-.17-.113l-.226.113H22.1l-.17.17L21.877,2.8c-.057,0-.113.057-.17.057s-.17.057-.226.057c-.057.057-.113.057-.113.113-.057,0-.113,0-.113.057-.057.056-.113.056-.17.113s-.17.057-.226.113L20.8,3.251a.427.427,0,0,0-.226.057.78.78,0,0,1-.226.17l-.113.113c-.057,0-.057,0-.113-.057-.113.057-.17.057-.283.113a.2.2,0,0,1-.057.113.055.055,0,0,1-.057-.057c-.057,0-.17.057-.226.057-.057.056-.057.113-.113.113l-.17.17h-.113c-.057.057-.17.057-.226.113h-.113c-.057.057-.113.17-.17.226-.057,0-.057,0-.113.057l-.113.113c-.057,0-.113.057-.17.057a.055.055,0,0,1-.057-.057l-.17.17c-.057.056-.17.113-.226.17-.057.113-.113.17-.17.283a.428.428,0,0,1-.226.113s.17-.17-.283,0-.735.283-.848.339a3.988,3.988,0,0,0-.509.4c0,.056-.339.226-.339.226s-1.243.848-.961.791.4.113.057.226c-.339.17-.622.509-1.074.735-.452.17-.678.565-.283.4s.848-.339.848-.339-1.017.735-.565.678a2.507,2.507,0,0,0,.735-.113c.339-.17.4-.452.791-.4s.452-.057.509.226c.057.226.226.452.113.678a1.189,1.189,0,0,1-.4.4s-.057.283.226.113.452-.452.452-.339a2.153,2.153,0,0,0,.283.339,1.817,1.817,0,0,0-.452.057c-.17.056-.339.226-.17.283a1.417,1.417,0,0,0,.565-.113c.057,0-.057.283-.17.339a5.479,5.479,0,0,0-.509.4,1.18,1.18,0,0,0-.283.791c.113.4.17.452.226.678s0,.678.17.735.17.226.4.17a1.24,1.24,0,0,0,.452-.17c.057,0,.113.056.17.113.113.057.17,0,.452-.113.057-.113.17-.17.226-.283a2.772,2.772,0,0,0,.226-.565,1.139,1.139,0,0,0,.113-.339c-.057-.113,0,.057.283-.283s.339-.4.283-.565-.113-.226-.057-.226a1.28,1.28,0,0,1,.4-.339c.283-.113.17.113.622-.339a4.28,4.28,0,0,0,.735-.735c.226-.283,0-.226.339-.452s.283-.17.622-.4.452-.4.622-.452.678-.509,1.13-.791A2.881,2.881,0,0,1,22.85,6.8a.19.19,0,0,1-.069.013c-.057.057-.791.17-.961.226s.113-.283.113-.283.226-.226.283-.113.113.17.452.057c.283-.113.509-.226.283-.339a1.857,1.857,0,0,0-.339-.17.611.611,0,0,0-.339-.057.821.821,0,0,1-.339-.056,3.259,3.259,0,0,1,.509-.283c.283-.113.339-.113.452-.17s.339,0,.339-.113c0-.056-.113-.056-.17-.056a1.416,1.416,0,0,0,.4-.226c.17-.17.339-.339.113-.283-.226.113.17-.226.17-.226s.113-.283-.226-.17-.622,0-.226-.113.622-.283.565-.283H23.29s-.057-.113.509-.452c.509-.339.565-.622.735-.678a1.656,1.656,0,0,1,.452-.226.636.636,0,0,0,.283-.226S25.155,2.347,24.7,2.46Z" style="fill:#b6dfd0"/><path d="M24.137,7.378c-.226.17-.226.113-.4.17a.911.911,0,0,0-.4.226.911.911,0,0,1-.4.226c-.113.056-.057-.057-.226-.113-.113-.057-.678.452-.565.509s.283-.113.509-.226,0,.113-.057.113-.339.339-.339.339a1.329,1.329,0,0,0,.452-.113c-.057.113-.113.17-.17.283,0,0,.339-.17.4-.113a.835.835,0,0,0,.509-.057c.17-.057.339-.113.339-.226a1.954,1.954,0,0,1,.678-.509,1.393,1.393,0,0,0,.452-.565C24.816,7.152,24.307,7.208,24.137,7.378Z" style="fill:#b6dfd0"/><path d="M8.2,11.391a.828.828,0,0,0,.226-.113s0-.283-.113-.283a2.256,2.256,0,0,1-.226.17l-.17.339A1.45,1.45,0,0,1,8.2,11.391Z" style="fill:#b6dfd0"/><path d="M7.748,28.124c.113.057.226-.113.226-.113s.113.113.113.17c-.057.056.17,0,.17,0s.057.113,0,.17c-.057.113.509.057.735-.17,0,0-.4-.17-.9-.339-.509-.113-.509,0-.678-.113-.113-.057-.113-.057-.339,0a.676.676,0,0,0-.4.4c-.057.113,0,.17,0,.17.057,0,.339-.283.452-.283s.113.113.226.113A.483.483,0,0,1,7.748,28.124Z" style="fill:#b6dfd0"/><path d="M23.346,35.643a.58.58,0,0,0,.17-.735,1.833,1.833,0,0,0-.452-.961c-.17-.226.057-.4-.226-.4-.283.056-.17.17-.622,0a7.533,7.533,0,0,1-.791-.339,2.447,2.447,0,0,0-.678-.283,1.4,1.4,0,0,0-.452.057c-.17,0-.339.113-.452.057-.17-.057-.452-.226-.678.113a.175.175,0,0,0-.057.113c0-.113-.057-.226-.057-.339-.057-.113-.057-.113-.4-.226a3.852,3.852,0,0,1-.678-.17.342.342,0,0,0-.339.17c0,.057-.057.057-.057.113a.172.172,0,0,0,0-.226c-.113-.17-.226-.113-.339-.113a3.184,3.184,0,0,0-.4.057s-.226-.113-.057-.226.17-.113.113-.283c-.057-.113.057-.057-.226-.113-.283-.113-.17-.17-.283-.283a4.162,4.162,0,0,1-.283-.339A.2.2,0,0,1,16,31.233h-.057a5.866,5.866,0,0,0-.735-.226h-.057a1.525,1.525,0,0,0-.509,0,1.581,1.581,0,0,1-.339.057h-.057a2.05,2.05,0,0,0-.4-.17c-.113.057-.339-.452-.565-.4a.841.841,0,0,1-.4,0s.17-.17.113-.226c-.113-.057-.113,0-.283-.057s-.509-.056-.283-.113.17-.057.17-.057c-.17,0-.4.057-.565.057a.442.442,0,0,1-.17.226c-.113.057-.226-.113-.4-.057s-.17.113-.339.17a.116.116,0,0,1-.17-.113.209.209,0,0,0-.17-.113,1.437,1.437,0,0,0-.4.113c-.057,0-.339.283-.17.4s.283.226.17.283-.283,0-.283-.113c-.057-.17.113-.283,0-.4l-.113-.113a.055.055,0,0,1,.057-.057l.113-.113s.057-.17-.057-.056c-.17.056-.17.056-.226.17s-.057.17-.17.226-.113.113-.113.17a.2.2,0,0,1-.057.113s-.113-.226-.17-.113-.226.17-.226.283a2.223,2.223,0,0,1,.113.339s-.339.113-.283.283-.113.339-.113.339.17-.4-.113-.509c-.226-.057-.226-.113-.4-.057s-.113.226-.283.283c-.057,0-.057.057-.113.057-.057.057-.113.057-.283-.057-.226-.113-.283-.113-.283-.226a.569.569,0,0,1-.17-.057H7.07c-.113.057-.226,0-.283.057.057.113.113.4.339.4.283,0,.226,0,.339.113s.17.113.283.057.339,0,.339.113c.057.113.283.113.226-.057L8.2,31.968l.057-.056c.057-.113.057-.17.113-.226s.17-.17.283-.057a.955.955,0,0,1,.113.283c0,.056.17.113.17.17a4.709,4.709,0,0,1,.226.848c0,.057.113.283-.057.4-.113.113-.226.113-.17.226s.113.056.057.113-.057.17-.113.17-.226,0-.113.226c.113.17,0,.226,0,.283a.441.441,0,0,0,0,.283c.057.17.113.4.283.339.17-.113.057.113.057.226,0,.057-.057.057-.057.113-.057.057-.057.17.057.565,0,.057-.057.283.17.339.226,0,.339.057.565.339a1.916,1.916,0,0,1,.509.791,2.059,2.059,0,0,0,.565.622,2.21,2.21,0,0,1,.226.283,1.087,1.087,0,0,0,.4.4c.283.17.509.226.678.339.17.057.452,0,.565.113.17.17.339.339.452.339h.057c.057.057.17.113.17.057s.565,1.3.735,1.752.735,1.865.735,1.922c0,0,.4.735.226.678s.17.226.226.4.113.113.226.452.283.791.339.961.283.9.283.9-.226,0,0,.283.509.339.565.565-.057.452.17.678c.226.17.226.509.339.452.113,0,.057.17.17.452s.226.339.283.283c.057-.113-.113-.283-.17-.509s-.17-.4-.057-.339a1.014,1.014,0,0,1,.283.4,2.785,2.785,0,0,0,.226.509,2.5,2.5,0,0,1,.17.452.34.34,0,0,1-.057.226s-.17-.056-.113.057a1.592,1.592,0,0,1,.057.452,2,2,0,0,1,.339-.057c.113,0,.226-.057.226,0s0,.339-.057.4c-.057,0-.057.4-.057.4a2.553,2.553,0,0,0,.4.4,1.523,1.523,0,0,1,.452.4.7.7,0,0,1,.113.17,2.016,2.016,0,0,0,.4.4s.057-.056.17.056a.826.826,0,0,0,.283.17s.057.113.113.113A1.283,1.283,0,0,1,20.69,53a3.355,3.355,0,0,0,.452.226c.057,0,.283-.113.4-.057a.624.624,0,0,0,.452,0c.057,0,.339-.113.4-.113h.057s.113-.113.17-.113.17-.056.226-.056a1.281,1.281,0,0,0,.226-.057c.057-.057.17-.113.226-.226a1.549,1.549,0,0,1-1.356-.17c-.565-.509-.283-.339-.622-.565s-.565-.339-.4-.452.17,0,.113-.283-.113-.4,0-.452.17.113.057-.283-.226-.339-.4-.339c-.17.057-.339,0-.509-.226s-.17-.452,0-.565c.17-.056.17-.283.113-.4s-.226-.057-.113-.339c.113-.226.283-.283.057-.4-.226-.057-.452,0-.509-.113s-.565-.4-.17-.452c.339-.056.565.113.622-.056s.113-.226-.057-.4-.509-.4-.339-.452c.17,0,.961,0,1.074-.339a.831.831,0,0,0,.057-.622c-.057-.226-.17-.113-.339-.339-.17-.17.17-.283-.113-.339-.283-.113-.509-.057-.565-.17V44.8h.4c.339,0,.452.226.678.113.283-.113.452-.113.509-.283a5.175,5.175,0,0,0-.057-.9,1.371,1.371,0,0,1,0-.509.282.282,0,0,1,.17.283c0,.226.057,0,.113-.283,0-.339-.057-.4.113-.622.17-.17.17-.226-.057-.452s-.565-.452-.452-.622.339-.565.4-.678c.113-.113.452-.509.678-.509a2.78,2.78,0,0,0,.791-.057c0-.056-.226-.226,0-.226s.226-.113.226-.113c0-.17-.057-.283-.057-.452,0,0,.113-.283.057-.4a2.331,2.331,0,0,0-.17-.452c-.057-.17.113-.17.057-.4a13.179,13.179,0,0,0-.565-1.526c-.113-.339.113-.17.226-.057.113.057-.057-.057.057-.283a.893.893,0,0,0,0-.4C23.064,35.869,23.177,35.812,23.346,35.643ZM19.334,51.923l.024.024Z" style="fill:#b6dfd0"/><path d="M48.891,36.208s-.057.339-.057.452-.057.113-.17.283-.226.226-.339.4-.4.17-.509.283-.4.226-.509.4-.057.17-.113.509a1.673,1.673,0,0,0,.113.565c.113.283-.113.17-.283.452s-.17.226-.339.509c-.113.283.057.283.113.4s0,.226-.057.452,0,.17.226.452.452,0,.565,0,.339-.226.339-.226c.339-.9.678-1.809.961-2.657v-.057c0-.283-.057-.4.17-.4.17,0,.057-.17.057-.17S49,37.791,49,37.565s.17.056.283.056A1.432,1.432,0,0,0,49.343,37c.057-.452.057-.339-.226-.678C48.891,36.038,48.891,36.208,48.891,36.208Z" style="fill:#b6dfd0"/><path d="M4.979,12.579c-.17.113-.339.226-.283.226s.339-.17.509-.226a2.463,2.463,0,0,0,.4-.226,5.2,5.2,0,0,1,.509-.17c.113-.17.283-.339.4-.509-.113.056-.283.056-.4.113,0,0,0-.226-.113-.17a.7.7,0,0,0-.226.452c0,.113-.452.113-.452.113.057-.056.17-.113.226-.17H5.092l.17-.17a1.235,1.235,0,0,1-.283.17c-.057-.057.057-.283.057-.283s-.051.038-.115.077c-.2.282-.386.569-.572.858a.974.974,0,0,0,.122-.031C4.583,12.579,5.149,12.466,4.979,12.579Z" style="fill:#b6dfd0"/><path d="M4.133,13.516a.33.33,0,0,1,.111-.259,1.754,1.754,0,0,0-.158-.182c-.117.19-.229.382-.341.575C3.919,13.605,4,13.561,4.133,13.516Z" style="fill:#b6dfd0"/><path d="M1.053,19.967c.023-.081.045-.163.069-.244C1.1,19.8,1.076,19.886,1.053,19.967Z" style="fill:#b6dfd0"/><path d="M1.436,18.731c.065-.194.127-.39.2-.582C1.564,18.342,1.5,18.536,1.436,18.731Z" style="fill:#b6dfd0"/><path d="M.69,21.389.71,21.3Z" style="fill:#b6dfd0"/><path d="M.377,22.976c.011-.068.025-.136.036-.2C.4,22.84.388,22.907.377,22.976Z" style="fill:#b6dfd0"/><path d="M6.787,31.29c0,.057.057.057,0,0Z" style="fill:#b6dfd0"/><path d="M10.795,20.3a1.89,1.89,0,0,0,.175-.151C11,20.12,10.9,20.187,10.795,20.3Z" style="fill:#b6dfd0"/><path d="M.119,28.237c.057.17.113.4.226.452s.226,0,.283.113a.5.5,0,0,0,.283.226c.113.057,0,0,.057.17s.17,0,.283.17c.17.17.565.283.622.509.057.283.113.283.057.4s-.113.226,0,.339c.113.057.565.339.678.283a2,2,0,0,0,.339-.057s.452.17.622.226a.612.612,0,0,0,.339.057c.17,0,.452.113.509-.057.057-.113.113-.283.226-.283s.452.283.509.283a.055.055,0,0,1,.057.057c.057.056.226.056.339.113h.283c.226-.057.113,0,.339-.057h.113l.057.057c.057.056,0,.17.113.17.057-.17.226-.113.339-.113-.057-.057-.113-.17-.057-.17s.057,0,.17.056.113.113.226.113c.113.057.17.057.17-.057a.257.257,0,0,1,0-.283c.057-.17-.057-.339-.057-.4v-.226a.428.428,0,0,0-.113-.226l-.113-.113a.677.677,0,0,0-.4,0c-.283.113-.339.226-.452.17H6.109c-.113,0-.17.113-.17.056v-.056c.057-.17.057-.056.113-.283s0-.17.057-.339a.248.248,0,0,1,.057-.17c0-.057,0-.057-.057-.17a.356.356,0,0,1,0-.339c.057-.113.17-.339-.113-.283-.283.113-.735.226-.678.4.057.226.057.339-.057.452s-.113.17-.057.226.057.17-.113.057c-.17-.057-.226.17-.452.226s-.113-.17-.283-.113-.113.057-.226-.056-.283-.17-.339-.4a4.947,4.947,0,0,1-.113-.9c-.057-.226.057-.283.057-.339v-.339a.352.352,0,0,1,.17-.4c.226-.17.17-.057.226-.226s-.17-.17.17-.226c.339-.113.339-.113.452-.113.113-.056.17-.113.283-.056s.17.113.283,0a.2.2,0,0,0,.057-.226s-.17-.113.283-.17c.4,0,.339-.283.509-.17.113.17.226.226.283.113s.057-.283.17-.17.339.113.283.226a.615.615,0,0,0,.057.283,1.137,1.137,0,0,0,.226.452c.113.17.283.339.339.113.057-.283.113-.17,0-.509s-.226-.622-.226-.678a.59.59,0,0,1,.057-.678,4.462,4.462,0,0,1,.452-.622c.17-.113.17-.057.283-.226.057-.17.057-.226.113-.226s0-.057.057-.113c.057,0,.113-.113.113-.113a.208.208,0,0,0-.057-.17c-.057,0-.113.057-.17.057l.17-.17a.2.2,0,0,0-.057-.113s-.17.057-.17,0a.255.255,0,0,0,.17-.17,2.452,2.452,0,0,0-.057-.283s-.057-.509.057-.113.057.565.17.283.057-.4.057-.4H8.6s.226-.4.17-.509c0-.17-.057-.113.17-.226s.339-.283.452-.283c.057,0,.17-.057.226-.057-.057,0-.113,0-.057-.283.113-.4.17-.452.339-.565s.17-.283.339-.283a.2.2,0,0,0,.113-.056c.113-.057.17-.057.17-.113s0-.113.057-.113l.113-.113a.723.723,0,0,0,.108-.075c.1-.118.208-.185.175-.151a1.89,1.89,0,0,1-.175.151.681.681,0,0,0-.164.3c-.113.226.057.509.17.283s.113-.226.283-.283.283-.226.4-.283.339-.283.4-.283.17-.17.283-.339.057-.226-.113-.17c-.113.057,0-.226-.057-.226s-.226.17-.17.283a.18.18,0,0,1-.17.17c-.057,0-.17.113-.283.113s-.339.057-.339-.056-.057-.226.057-.339c.057-.113.057-.056.113-.17s.283-.452,0-.339-.339.057-.565.226-.339.4-.452.4c-.057,0-.17.226-.283.4a.779.779,0,0,1-.17.226l-.057.057c-.057.057-.17,0-.17,0a.976.976,0,0,1,.17-.226,2.393,2.393,0,0,0,.283-.4c.113-.113.113-.17.226-.226a2.256,2.256,0,0,1,.226-.17l.17-.17c.057-.057,0-.17.113-.226a6.647,6.647,0,0,1,.622-.283c.17-.057.4-.226.509-.226a2.05,2.05,0,0,0,.4-.17.793.793,0,0,0,.226-.226c.17-.17.113-.226.509-.452l.017-.008c.053-.061.1-.105.1-.105v-.057l.328-.164a.578.578,0,0,0,.011-.118c0-.226.057-.283,0-.339s-.226.113-.226-.057c-.057-.17-.17-.057-.283.057s-.226.283-.339.339-.339,0-.113-.113a1.188,1.188,0,0,0,.4-.283c.17-.113.113-.113.226-.17.113-.113.113-.113-.113-.057a.839.839,0,0,1-.339.057c-.226-.057-.4-.057-.4-.17,0-.17.057,0,.113-.283a3.369,3.369,0,0,0-.339-1.131,2.362,2.362,0,0,1-.4.622c-.226.226-.4.339-.4.452-.057.113-.113.226-.17.057s-.113-.113-.17-.113-.4.113-.057-.226c.339-.4.17-.226.17-.4,0-.113-.113-.113-.283-.057-.113.057-.17,0-.226-.17-.057-.113-.17-.17-.4-.057s-.339.283-.452.226c-.113,0-.452-.057-.4.283,0,.339-.113.4-.113.509s.057.226-.057.283-.452.4-.226.565.226.17.226.339-.113.622-.848,1.131v.565c.057.17.057.17-.057.283s-.057.226-.17.283-.17.17-.226,0-.113,0-.113-.226-.113-.113.057-.339,0-.113.057-.283c.113-.226.113-.339.057-.283-.057,0-.622.17-.622.17A.264.264,0,0,0,6.9,18.4c-.17.056-.4-.226-.622-.17a2.562,2.562,0,0,0-.452.17,1.647,1.647,0,0,0,.113-.452c-.057-.17-.283-.057-.283-.057s.452-1.413,1.13-1.639c.113-.057.339-.4.113-.283-.226.057.17-.17.283-.226s.057-.056.283-.17c.17-.057-.057.113.226-.17.339-.283.4-.339.339-.4,0-.057-.226.113-.339.057a.437.437,0,0,0-.17-.057A2.659,2.659,0,0,0,7.8,14.9a.432.432,0,0,0,.283-.113c.057-.056.057,0,.113-.17,0-.17,0-.17.17-.226.113-.057.17-.113.283-.113.17,0,0-.057.226-.113s0,0,.283-.226.452-.226.4-.4-.339,0-.113-.226.339-.226.283-.339-.283-.17-.339-.113a.237.237,0,0,0-.283.113,2.326,2.326,0,0,0-.17.452c-.057.113-.17.056-.226.226-.113.17-.17.17-.283.283s0,.113-.113.113c-.057,0-.226-.113-.057-.17s.339-.17.17-.283c-.17-.17-.283-.226-.4,0-.113.17-.17.339-.17.226,0-.056-.057-.452-.113-.283s-.283.226-.339.4c-.113.17-.283.226-.339.339s-.17.226-.226.339,0,.226-.057.226-.113.226-.17,0c-.057-.17-.113-.226-.226-.17a1.171,1.171,0,0,1-.339.113c-.057,0-.113.056-.226.113a1.625,1.625,0,0,1-.339.226.313.313,0,0,0-.339-.17c-.226.057-.4.113-.452.226s-.17.226-.17.339,0,.283-.057.226c-.057,0-.057-.113-.17-.226s-.057-.113-.226-.056-.791.339-.791.339-.113-.056.113-.17.283-.4-.113-.283c-.372.106-.444.211-.545.176-.356.735-.677,1.491-.968,2.261-.045.121-.094.241-.137.363-.069.192-.132.388-.2.582-.109.329-.217.658-.314.992-.024.081-.046.163-.069.244-.124.44-.239.884-.343,1.333l-.02.089c-.1.456-.194.918-.277,1.383-.012.068-.025.136-.036.2-.055.322-.1.649-.141.975A27.723,27.723,0,0,0,0,27.5c0,.15.009.3.011.448A.972.972,0,0,1,.119,28.237Z" style="fill:#b6dfd0"/><path d="M13.061,17.384s-.042.044-.1.105c.3-.129.4-.195.424-.326l-.328.164Z" style="fill:#b6dfd0"/><path d="M40.3,14.1c0,.056.057.056,0,0Z" style="fill:#b6dfd0"/><path d="M46.535,8.113H46.2a.394.394,0,0,0,.113-.226c0-.17-.226-.057-.283-.057a.828.828,0,0,0-.226.113.558.558,0,0,0-.339.113,1.242,1.242,0,0,0-.283.339c0,.056-.057.17-.057.226,0,0-.4.057-.509-.057s-.283-.283.057-.283c.283,0-.057-.283-.339-.339-.226,0-.339,0-.226.283.057.283.339.452.339.565,0,.17-.113.057-.113.057a.39.39,0,0,0-.283-.17.961.961,0,0,0-.565.339c-.057.113.283.339.17.4a.861.861,0,0,1-.678-.17c-.17-.17-.452.057-.113.226s.226.4.113.226a1.3,1.3,0,0,0-.4-.283,1.15,1.15,0,0,1-.283-.056s.057-.113-.113-.283a.268.268,0,0,1-.057-.339,1.41,1.41,0,0,1-.452-.226c-.17-.17.057-.056.17-.056a4.262,4.262,0,0,0,.848.226c.339.056.848-.057.848-.283a.6.6,0,0,0-.452-.509,1.186,1.186,0,0,1-.622-.226.984.984,0,0,0-.791-.283c-.283,0-.4-.056-.452-.113-.113-.057-.509.057-.509.057S40.544,7.1,40.6,7.1h.113a.35.35,0,0,1-.226-.113,2.222,2.222,0,0,0-.339-.113c0,.057,0,.057-.057.113,0-.113-.057-.17-.057-.283a.78.78,0,0,1-.226.17c-.057.057-.113.17-.17.226V6.869l-.226.226c0-.113.057-.226.057-.339a.391.391,0,0,0-.283,0c-.17.056-.283.17-.226.283,0,.057-.113,0-.17,0a2.447,2.447,0,0,0-.283.057s0,.056-.17.056-.283-.113-.283,0-.226.17-.283.17-.057.283-.057.283-.339.057-.4,0-.17.057-.17.226-.113.17-.17.226c-.057,0-.226.226-.226.226,0,.113-.057.17-.057.283,0,0-.057.283-.113.283-.113,0-.226.283-.339.283s-.17.283-.226.283H35.4s0,.283-.057.339-.113.056-.283.113-.283.057-.283.113a.828.828,0,0,0,.113.226c.17,0,.283.057.452.057H34.78a.962.962,0,0,1,.057.4.8.8,0,0,1,.339-.113,2.393,2.393,0,0,0-.283.4,1.182,1.182,0,0,0,.226.339s0,.17.4.113c.452-.056.452-.226.565-.226s.226-.4.226-.226c.057.17.057.17.17.17h.057c.226,0-.283.113,0,.226s.17.113.339.452.057.4.113.452a.243.243,0,0,0,.226.226.294.294,0,0,0,.226-.113c0-.113.17-.057.339-.057s.283,0,.283-.339a1.634,1.634,0,0,1,0-.565s.565-.17.509-.452c-.113-.283-.452-.17-.565-.678s.339-.509.565-.678a4.113,4.113,0,0,0,.4-.339s-.226-.057-.113-.17.113-.226.226-.226.339-.056.4-.056h.113c.17,0,.4.056.339.17s0,.226-.057.226a4.111,4.111,0,0,0-.509.452s-.339.113-.226.4a3.506,3.506,0,0,1,.17.622s0,.113.17.113c.113.056.226.17.339.17h.4c.057,0,.283-.057.339-.057s.17.057.226,0c.057,0,.17-.17.17-.17h.283c.057,0,.17.056.226.056-.057.056-.17.113-.226.17l-.113.113h-.791s-.565.226-.17.452c.057.057.113.057.17.113.226.17.17.4.057.4a.245.245,0,0,1-.226-.113s-.226-.339-.509-.283c-.283.113-.226.113-.057.339s0,.17.113.283c.057.113-.057.17.057.283.057.057,0,.057-.113.113s-.226.057-.113.113c.226.057-.452.057-.452.057l-.17-.17a4.611,4.611,0,0,0-.509.113l-.509.17h-.057c-.057,0-.113-.057-.17-.057,0,0-.226-.17-.283-.113-.452.056-.622.113-.678.113a.432.432,0,0,1-.283-.113c-.057-.056-.226,0-.226-.226s.057-.17.226-.283.226-.113.113-.17c-.057-.113-.283,0-.226-.17s.17-.283.057-.339c-.113,0-.226,0-.283.113a.422.422,0,0,1-.17.17s-.283,0-.283.113V12.3a3.856,3.856,0,0,0,.283.4s0,.226-.113.17c-.113,0,.057,0-.4.113h-.057c-.509.113-.509-.057-.678.226-.113.283,0,.339-.339.4h-.057c-.283.057-.17.113-.226.17a.34.34,0,0,1-.226.056.175.175,0,0,0-.057-.113.359.359,0,0,0-.185-.041l-.041.041c0,.113,0,.283-.113.283s-.17.17-.17.17A.457.457,0,0,1,32.8,14.1c-.17-.17-.226-.113-.113.056.057.17.113.226-.057.226h-.339a1.115,1.115,0,0,0-.509-.057,2.342,2.342,0,0,1,.057.565c0,.113.17-.113.452.113a1.937,1.937,0,0,1,.509.509,1.754,1.754,0,0,1,.113.4c0,.17.113.622-.057.622h-.17a.584.584,0,0,0-.226.057c-.565-.113-1.187-.226-1.808-.339,0,0-.791.057-.509.452v.113c0,.113.057.283.057.452,0,.339-.226.452-.283.565s-.17.339-.057.339.17.565.17.565-.057.056.283.056c.283,0,.226.056.283.056h.057a.3.3,0,0,1,.452.17c.113.226.113.283.283.283s.057-.226.283-.226.283-.056.565-.056h.452s.17-.226.283-.226c.113.056.113-.4.283-.4s-.113-.4.113-.622c.283-.17.283-.4.509-.4a2,2,0,0,0,.4-.057c.057-.17.057-.283.113-.452,0,0-.113-.283.226-.283.283,0,.622.226.848.226a.446.446,0,0,0,.339-.283.055.055,0,0,1,.057-.056c.057-.113,0-.226.339-.113.4.113.509.113.565.4,0,.283,0,.17.226.4a2,2,0,0,0,.678.452.8.8,0,0,1,.678.4c.226.4.509.509.339.565-.226.057.057.17-.283.17h-.565c-.226,0-.339.113-.226.17a3.427,3.427,0,0,0,.791.4.818.818,0,0,0,.113-.4.44.44,0,0,0,.339-.17c.057-.17.17-.283.283-.283s-.17-.283-.226-.4c-.113-.057.113-.339.339,0,.226.283.509.113.057-.226a1.98,1.98,0,0,0-.678-.339.812.812,0,0,1-.113-.17.6.6,0,0,1-.452,0,.429.429,0,0,1-.113-.226.978.978,0,0,0-.283-.283,3.458,3.458,0,0,1-.339-.283s-.17-.4.057-.4c.17,0,.17-.057.226-.057s.057.057.113.113a2.434,2.434,0,0,0,.4.4c.057.057.17.283.339.339s.226.17.339.226a1.15,1.15,0,0,1,.283.056h.057c.17.113.283.226.452.339a1.745,1.745,0,0,0,.057.509c.057.056.17.452.283.4h.057c.057,0,.113.056.113.17a2.225,2.225,0,0,1,.113.339c.057.057.113.17.17.226a.828.828,0,0,0,.226.113,2,2,0,0,1,.339.057.427.427,0,0,0-.057-.226H41c-.057-.056-.113-.17-.17-.226.113.057.17.113.283.113l.113-.113a2.455,2.455,0,0,1-.339-.4,1.238,1.238,0,0,0-.17-.283s-.057-.226.057-.113c.113.17.113.113.226-.056.113-.113-.113-.113.113-.113.17-.057.283-.113.339-.057.057.113.283.17.339.17v.226a.955.955,0,0,0,.113.509c.057.113.17.283.226.283a.294.294,0,0,1,.226.113c.057.113.17.283.17.283.113,0,.283.056.4.056,0,0,.113.113.17,0a.813.813,0,0,0,.113-.17.268.268,0,0,1,.339.056c.17.17.17.17.4.17s.113-.283.283-.226a1.405,1.405,0,0,0,.452.056c.057,0,.113,0,.113.057v.113c0,.113.057.565.057.678a.311.311,0,0,1-.113.283c-.113.057-.226.113-.226.283s.057.283.057.4a2.087,2.087,0,0,0,.113.735,3.9,3.9,0,0,0,.17.452c.17.283.113.113.4.509.339.4.17.565.4.791s.339.113.509.565c0,0-.057.622.17.791.283.17.339.113.509.509s.339.4.509.565c.057.057.113.113.113.17v.226a1.854,1.854,0,0,0,0,.565,2.566,2.566,0,0,0,.113.452c.113.113.057.226.4.113.283-.113.057-.226.4-.226a2.233,2.233,0,0,0,.735-.17.277.277,0,0,1,.283-.283c.226,0,.283-.113.452-.226s.339-.113.339-.226.113-.283.17-.283h.622c.113,0-.17-.283.057-.283s.339.057.339-.113.283-.226.283-.226v-.226c0-.057-.113-.283.057-.283s.057,0,.283-.17a.418.418,0,0,0,.17-.509c-.057-.113-.057-.056-.113-.17-.057-.057-.17-.226-.226-.226A.84.84,0,0,1,51.451,24a.681.681,0,0,1-.283-.283.175.175,0,0,0-.057-.113,1.211,1.211,0,0,1-.057-.339,4.122,4.122,0,0,1-.509.565c-.17.056-.509,0-.622.056h-.057a1.7,1.7,0,0,1-.509-.565c-.113-.226.057-.226-.17-.452a3.955,3.955,0,0,1-.452-.565.208.208,0,0,1-.057-.17c0-.113.339-.622.509-.339s.339.678.735.791a.789.789,0,0,0,.452.4c.283.057.622-.283.735-.17s.113.452.452.509a8.758,8.758,0,0,1,.848.226h.226a2.557,2.557,0,0,1,.678,0c.565,0,.565-.17.678.057s.057.4.4.4H54.5c0,.213-.045.473.328.455-.328-2.97-3.583-5.226-4.778-7.834-1.379-3.01-.831-6.3-3.147-8.607a1.018,1.018,0,0,1-.258-.069C46.591,8,46.591,8.056,46.535,8.113ZM40.318,14.1c.057.056,0,.056,0,0l.057.056Zm.918-1.752h0Zm8.8,13.341v0Zm3.447-6.105h0Z" style="fill:#b6dfd0"/><path d="M33.519,13.6c.113-.17.226-.113.283-.283s.113-.17,0-.226c-.17-.056-.283.113-.452,0-.113-.113.057-.056-.057-.283s0-.226-.17-.4-.283-.056-.283-.056.113-.339-.17-.452c-.339-.113-.452-.057-.452-.057s0-.056.283-.17a.4.4,0,0,0,.283-.339,2.328,2.328,0,0,0-.509-.113c-.113,0-.226.113-.283.057a.211.211,0,0,1,.17-.226,1.052,1.052,0,0,0,.226-.17c-.17-.057-.4-.057-.565-.113a2.5,2.5,0,0,1-.283.339.339.339,0,0,0-.17.339c0,.113.283.17.283.17s-.226.17-.113.17h.339a.7.7,0,0,0-.283.113h.226s-.283.17-.226.226c.057,0,.4-.057.4-.057s.17-.056.17.113a.592.592,0,0,0,.17.339s.283.057-.057.17-.283.113-.4.113.226.226.113.283-.4-.056-.4,0a.252.252,0,0,0,.226.17c.113,0,.339.226.509-.057,0,0-.113.283-.339.226a.4.4,0,0,0-.509.339,1.565,1.565,0,0,1,.452-.056c.283,0,.283-.057.452,0h.9a.638.638,0,0,0,.254-.041C33.466,13.675,33.448,13.7,33.519,13.6Z" style="fill:#b6dfd0"/><path d="M33.546,13.668h.013l.016-.016A.135.135,0,0,1,33.546,13.668Z" style="fill:#b6dfd0"/><path d="M36.232,17.553c.17,0,.226-.113.17-.283,0-.17-.283-.226-.339-.113C36.119,17.157,36.062,17.5,36.232,17.553Z" style="fill:#b6dfd0"/><path d="M.175,29.537a1.689,1.689,0,0,1,.452.226s.283.339.283.113c0-.283-.113-.4-.283-.452s-.17-.339-.283-.509c-.1-.207-.25-.23-.318-.361.007.189.014.377.025.565l.067.135A2.448,2.448,0,0,0,.175,29.537Z" style="fill:#b6dfd0"/><path d="M8.709,10.883c-.113.057.057.4.113.339.057,0,.226-.113.4-.17s.339-.17.509-.226l.509-.17c.113-.057.226-.17.509-.339a.564.564,0,0,0,.283-.452,3.9,3.9,0,0,0-.565.226c-.057,0-.565.339-1.13.565s.113-.283.113-.283a7.568,7.568,0,0,1,.678-.339,3.355,3.355,0,0,0,.452-.226c.226-.113.452-.17.735-.283,0,0,.283-.113.17-.17-.057-.057-.17-.226.057-.283a4.082,4.082,0,0,0,.4-.226c0-.057.057-.113.057-.17,0,0,.622-.339.678-.4s-.226.113-.339.17.057-.4.17-.509a8.963,8.963,0,0,1,1.017-.452,3.349,3.349,0,0,0,.452-.226c.17-.113.283-.452.452-.509s.452-.339.622-.4c.17-.113.622-.4.622-.4a1.415,1.415,0,0,1,.4-.226.638.638,0,0,0-.565-.057,2.757,2.757,0,0,1-.622.226c-.226.113-.283.113-.622.283a8.3,8.3,0,0,0-.791.339c-.339.17-.283.113-.791.339a4.106,4.106,0,0,0-1.017.622,1.9,1.9,0,0,1-.961.452.568.568,0,0,0-.283.339.34.34,0,0,0,.057.226c0,.057.057.113.057.17,0,0-.17.056-.226,0s-.283,0-.283,0a2.246,2.246,0,0,0-.226.17,3.35,3.35,0,0,1-.452.226c-.113.056-.226.4-.226.4,0,.113.057.17.057.283a1.451,1.451,0,0,0,.283.113,2.754,2.754,0,0,1,.4-.17,3.247,3.247,0,0,1,.4-.226h.283a.279.279,0,0,1-.057.17h-.17a2.654,2.654,0,0,0-.283.113c-.057.056-.17.226-.283.283a.954.954,0,0,1-.283.113.611.611,0,0,1-.283.226,1.741,1.741,0,0,1-.565.057c-.17,0-.226.339-.226.339a2.755,2.755,0,0,1,.4-.17C8.766,10.487,8.822,10.826,8.709,10.883Z" style="fill:#b6dfd0"/><path d="M36.119,18.458h.17c0-.056.057-.056.057-.113h.17s.057-.509.057-.565c0,0-.113-.113-.113-.17-.057-.057-.17,0-.17,0a3568886.757,3568886.757,0,0,0-.226.113c-.057.113,0,.17,0,.226A1.565,1.565,0,0,0,36.119,18.458Z" style="fill:#b6dfd0"/><path d="M3.566,14.9c0,.057.057.113.057.17a3.6,3.6,0,0,1,.509-.17,2.045,2.045,0,0,0,.735-.509c.057-.113.113.056.4.056s.226-.056.509-.17,0-.17.057-.226a.824.824,0,0,0,.452-.283c.113-.17-.509.056-.509-.283a2.325,2.325,0,0,1,.283-.848c.057,0,.113-.113.113-.113-.113.057-.283.113-.4.17,0,.113.057.226.057.339a.394.394,0,0,0-.226-.113c-.17,0-.4.339-.339.565,0-.056-.057-.17-.17-.113-.057.113,0-.226-.057-.113s-.226.113-.4.113c-.17-.057-.17.056-.4.113-.044.011-.077.022-.111.033l0,.024a2.4,2.4,0,0,0-.464.244c-.059.1-.119.2-.177.308.048.027.074.042-.037.069h0c-.029.052-.06.1-.088.153.24-.031.713-.1.713-.1a4.4,4.4,0,0,0-.509.17,1.465,1.465,0,0,0-.293.092c-.073.135-.14.274-.21.41C3.228,15.064,3.566,14.9,3.566,14.9Z" style="fill:#b6dfd0"/><path d="M3.668,13.784a2.4,2.4,0,0,1,.464-.244l0-.024c-.137.045-.214.089-.389.134Z" style="fill:#b6dfd0"/><path d="M30.3,13.37c.226.056.226,0,.452-.057s.226-.057.509-.113.057-.452.17-.565c0,0,.17.113-.057-.057-.17-.17-.283-.226.113-.17.452.057,0-.17-.113-.283-.113-.057-.17-.057-.452-.057s-.17.283-.17.283a.294.294,0,0,1-.283-.057c-.226-.113-.283-.057-.283.226s.057.17.226.17,0,.113-.17.113-.226.17-.226.283C30.015,13.313,30.071,13.313,30.3,13.37Z" style="fill:#b6dfd0"/><path d="M35.949,4.382c.17,0,.283-.226.452-.226s0,.226,0,.226c-.509.113-.509.056-.113.339s.283,0,.509.113.113,0,.283-.339.057-.226.339-.283.226.226.339.283a1.669,1.669,0,0,0,.509.113c.283,0,.339-.113.17-.113a.731.731,0,0,1-.565-.226,2.1,2.1,0,0,0-.848-.339.756.756,0,0,1,.283.057,2.33,2.33,0,0,0,.678.056,1.118,1.118,0,0,0,.565-.113c.283-.113.113-.283.113-.283H37.136c-.283,0-.4.113-.848.113h-.735c-.226,0-.226.17-.17.4C35.5,4.382,35.779,4.382,35.949,4.382Z" style="fill:#b6dfd0"/><path d="M54.777,24.7a.115.115,0,0,1,.071-.107c0-.045-.01-.094-.016-.145-.061-.519-1.229-1.707-1.229-1.712-.022-.135-6.531-14.562-6.7-14.73A27.631,27.631,0,0,0,42.889,4.7a27.56,27.56,0,0,1,4.1,21.158c-.078.367-.162.731-.255,1.092a42.119,42.119,0,0,1,.036,4.532c-.057.113-2.28,4.568-2.28,4.794s-6.93,5.385-6.96,5.082A27.377,27.377,0,0,1,20.1,47.591h-.064q-.27,0-.539-.007c-.27.078-1.182.593-1.408.423-.226-.226-1.241-.38-1.3-.606l0-.009A27.331,27.331,0,0,1,4.715,42.887,27.5,27.5,0,0,0,55,27.5q0-1.269-.114-2.51C54.88,24.934,54.782,24.761,54.777,24.7Z" style="fill:#62a4d1"/><path d="M52.754,16.6q.079.182.155.366Q52.833,16.782,52.754,16.6Z" style="fill:#86cdaf"/><path d="M52.983,17.146c.055.134.109.269.161.4C53.091,17.415,53.037,17.281,52.983,17.146Z" style="fill:#86cdaf"/><path d="M47.834,8.985l.054.06Z" style="fill:#86cdaf"/><path d="M52.247,15.493c.05.1.1.208.148.313C52.346,15.7,52.3,15.6,52.247,15.493Z" style="fill:#86cdaf"/><path d="M51.973,14.944c.045.088.089.178.134.267C52.062,15.122,52.018,15.032,51.973,14.944Z" style="fill:#86cdaf"/><path d="M54.066,20.374q.072.268.138.539Q54.138,20.643,54.066,20.374Z" style="fill:#86cdaf"/><path d="M53.185,17.658a27.306,27.306,0,0,1,.869,2.673A27.286,27.286,0,0,0,53.185,17.658Z" style="fill:#86cdaf"/><path d="M48.263,9.467l.058.067Z" style="fill:#86cdaf"/><path d="M49.919,11.57l.037.052Z" style="fill:#86cdaf"/><path d="M48.694,9.975l.039.047Z" style="fill:#86cdaf"/><path d="M50.274,12.081l.086.129Z" style="fill:#86cdaf"/><path d="M50.952,13.132l.109.179Z" style="fill:#86cdaf"/><path d="M51.278,13.677c.035.061.071.121.106.182C51.349,13.8,51.313,13.738,51.278,13.677Z" style="fill:#86cdaf"/><path d="M50.618,12.6l.1.162Z" style="fill:#86cdaf"/><path d="M51.6,14.255c.029.053.059.1.087.157C51.664,14.359,51.634,14.307,51.6,14.255Z" style="fill:#86cdaf"/><path d="M52.508,16.046q.077.169.152.339Q52.585,16.215,52.508,16.046Z" style="fill:#86cdaf"/><path d="M47.4,8.52l.022.024Z" style="fill:#86cdaf"/><path d="M19.56,47.57a.472.472,0,0,0-.064.013q.269.006.539.007A1.662,1.662,0,0,0,19.56,47.57Z" style="fill:#86cdaf"/><path d="M37.525,41.362c.03.3.063.681.063.895-.057.339.283.735.4.961,0,.056.057.056.057.113a2.845,2.845,0,0,0,.226.9c.283.4-.17.791.057,1.3s.509.339.848.057c.4-.283.565,0,.735-.057.17,0,.565-.283.848-.283s.226-.452.735-.678a1.1,1.1,0,0,0,.791-.848c.113-.509.452-.622.791-.9A.493.493,0,0,0,43.3,42.2c0-.057,0-.113-.057-.113-.113-.4.735-.678.735-.678q.254,0,.339-.678a1.206,1.206,0,0,0-.17-1.018c-.226-.283.113-.339.283-.452a2.457,2.457,0,0,0,.4-.339c.113-.113.17-.283.283-.4a2.636,2.636,0,0,1,.565-.283c.113-.113.339-.226.452-.452.17-.226.17-.226.113-.452s0-.226.057-.678a1.565,1.565,0,0,1,.057-.565.585.585,0,0,1-.057-.226,2.01,2.01,0,0,1-.113-.565c-.057-.283,0-.4-.057-.509a.956.956,0,0,1-.113-.509c0-.283.17-.113.17-.339a.44.44,0,0,1,.17-.4c.113-.057,0-.339.113-.4a.975.975,0,0,0,.339-.339l.283-.283c.057-.057.283-.4.4-.509a2.61,2.61,0,0,1,.4-.4c.057-.057.283-.057.283-.17.057-.057.339-.452.4-.509a1.988,1.988,0,0,0,.4-.509,3.5,3.5,0,0,1,.339-.791c.226-.4.283-1.244.4-1.413.4-.283.17-.226.17-.226s-.17.113-.283.17a1.116,1.116,0,0,1-.509.056c-.283,0-.226.057-.4.057-.226,0-.113.113-.339.17-.17,0-.339.056-.452.056s-.113-.17-.17-.17a.122.122,0,0,1-.113-.113V27.9c0-.113-.057-.17-.17-.283-.113-.057-.113-.17-.226-.283a1.159,1.159,0,0,0-.466-.379A27.51,27.51,0,0,1,37.525,41.362Z" style="fill:#86cdaf"/><path d="M20.073,47.591h0Z" style="fill:#86cdaf"/><path d="M16.791,47.4c.057.226-.057.452.17.678.226.17.226.509.339.452.113,0,.057.17.17.452s.226.339.283.283c.057-.113-.113-.283-.17-.509s-.17-.4-.057-.339a1.014,1.014,0,0,1,.283.4,2.785,2.785,0,0,0,.226.509,2.5,2.5,0,0,1,.17.452.34.34,0,0,1-.057.226s-.17-.056-.113.057a1.592,1.592,0,0,1,.056.452,2,2,0,0,1,.339-.057c.113,0,.226-.057.226,0s0,.339-.057.4c-.057,0-.057.4-.057.4a2.552,2.552,0,0,0,.4.4,1.523,1.523,0,0,1,.452.4.7.7,0,0,1,.113.17,2.016,2.016,0,0,0,.4.4s.057-.056.17.056a.827.827,0,0,0,.283.17s.057.113.113.113A1.283,1.283,0,0,1,20.69,53a3.355,3.355,0,0,0,.452.226c.057,0,.283-.113.4-.057a.624.624,0,0,0,.452,0c.056,0,.339-.113.4-.113h.057s.113-.113.17-.113.17-.056.226-.056a1.281,1.281,0,0,0,.226-.057c.057-.057.17-.113.226-.226a1.549,1.549,0,0,1-1.356-.17c-.565-.509-.283-.339-.622-.565s-.565-.339-.4-.452.17,0,.113-.283-.113-.4,0-.452.17.113.056-.283-.226-.339-.4-.339c-.17.057-.339,0-.509-.226s-.17-.452,0-.565c.17-.056.17-.283.113-.4s-.226-.057-.113-.339c.113-.226.283-.283.056-.4-.226-.057-.452,0-.509-.113s-.5-.361-.234-.439q-1.372-.03-2.709-.192Zm2.567,4.546-.024-.024Z" style="fill:#86cdaf"/><path d="M48.891,36.208s-.057.339-.057.452-.057.113-.17.283-.226.226-.339.4-.4.17-.509.283-.4.226-.509.4-.057.17-.113.509a1.673,1.673,0,0,0,.113.565c.113.283-.113.17-.283.452s-.17.226-.339.509c-.113.283.057.283.113.4s0,.226-.057.452,0,.17.226.452.452,0,.565,0,.339-.226.339-.226c.339-.9.678-1.809.961-2.657v-.057c0-.283-.057-.4.17-.4.17,0,.057-.17.057-.17S49,37.791,49,37.565s.17.056.283.056A1.432,1.432,0,0,0,49.343,37c.057-.452.057-.339-.226-.678C48.891,36.038,48.891,36.208,48.891,36.208Z" style="fill:#86cdaf"/><path d="M48.734,10.023q.619.752,1.186,1.547Q49.354,10.775,48.734,10.023Z" style="fill:#86cdaf"/><path d="M52.106,15.211c.047.094.094.188.14.283C52.2,15.4,52.154,15.3,52.106,15.211Z" style="fill:#86cdaf"/><path d="M49.956,11.622q.161.228.318.459Q50.117,11.85,49.956,11.622Z" style="fill:#86cdaf"/><path d="M48.321,9.533q.189.219.374.442Q48.51,9.752,48.321,9.533Z" style="fill:#86cdaf"/><path d="M47.889,9.045q.189.209.375.422Q48.078,9.254,47.889,9.045Z" style="fill:#86cdaf"/><path d="M52.4,15.806c.038.08.075.16.112.24C52.471,15.966,52.433,15.886,52.4,15.806Z" style="fill:#86cdaf"/><path d="M50.722,12.763q.117.183.23.369Q50.838,12.947,50.722,12.763Z" style="fill:#86cdaf"/><path d="M51.384,13.859c.075.131.148.263.221.4C51.532,14.122,51.459,13.99,51.384,13.859Z" style="fill:#86cdaf"/><path d="M51.061,13.311q.11.182.216.366Q51.171,13.493,51.061,13.311Z" style="fill:#86cdaf"/><path d="M50.36,12.209q.131.195.258.392Q50.491,12.4,50.36,12.209Z" style="fill:#86cdaf"/><path d="M51.692,14.412q.143.264.281.532Q51.835,14.676,51.692,14.412Z" style="fill:#86cdaf"/><path d="M47.424,8.544q.208.218.411.441Q47.631,8.762,47.424,8.544Z" style="fill:#86cdaf"/><path d="M54.2,20.913l.008.034Z" style="fill:#86cdaf"/><path d="M47.4,8.52q-.245-.257-.5-.508h0Q47.155,8.263,47.4,8.52Z" style="fill:#86cdaf"/><path d="M54.054,20.33l.012.044Z" style="fill:#86cdaf"/><path d="M53.144,17.55l.041.107Z" style="fill:#86cdaf"/><path d="M52.66,16.386l.094.214Z" style="fill:#86cdaf"/><path d="M52.909,16.966l.074.181Z" style="fill:#86cdaf"/><path d="M46.535,8.113H46.2a.394.394,0,0,0,.113-.226c0-.17-.226-.057-.283-.057a.828.828,0,0,0-.226.113.558.558,0,0,0-.339.113,1.242,1.242,0,0,0-.283.339c0,.056-.057.17-.057.226l-.027,0a27.4,27.4,0,0,1,2.5,11.466,27.61,27.61,0,0,1-.608,5.771c.114.132.228.17.341.284.057.057.113.113.113.17v.226a1.854,1.854,0,0,0,0,.565,2.565,2.565,0,0,0,.113.452c.113.113.056.226.4.113.283-.113.057-.226.4-.226a2.233,2.233,0,0,0,.735-.17.277.277,0,0,1,.283-.283c.226,0,.283-.113.452-.226s.339-.113.339-.226.113-.283.17-.283h.622c.113,0-.17-.283.057-.283s.339.057.339-.113.283-.226.283-.226v-.226c0-.057-.113-.283.057-.283s.057,0,.283-.17a.418.418,0,0,0,.17-.509c-.057-.113-.057-.056-.113-.17-.057-.057-.17-.226-.226-.226A.839.839,0,0,1,51.451,24a.681.681,0,0,1-.283-.283.175.175,0,0,0-.057-.113,1.211,1.211,0,0,1-.057-.339,4.122,4.122,0,0,1-.509.565c-.17.056-.509,0-.622.056h-.057a1.7,1.7,0,0,1-.509-.565c-.113-.226.057-.226-.17-.452a3.957,3.957,0,0,1-.452-.565.208.208,0,0,1-.056-.17c0-.113.339-.622.509-.339s.339.678.735.791a.789.789,0,0,0,.452.4c.283.057.622-.283.735-.17s.113.452.452.509a8.757,8.757,0,0,1,.848.226h.226a2.556,2.556,0,0,1,.678,0c.565,0,.565-.17.678.057s.057.4.4.4H54.5c0,.213-.045.473.328.455a27.451,27.451,0,0,0-.618-3.505l-.008-.034q-.066-.27-.138-.539l-.012-.044a27.306,27.306,0,0,0-.869-2.673l-.041-.107c-.052-.135-.107-.27-.161-.4l-.074-.181q-.076-.184-.155-.366l-.094-.214q-.075-.17-.152-.339c-.037-.08-.075-.16-.112-.24-.049-.1-.1-.209-.148-.313s-.093-.189-.14-.283-.088-.178-.134-.267q-.138-.268-.281-.532c-.029-.053-.058-.1-.087-.157-.073-.132-.146-.264-.221-.4-.035-.061-.071-.121-.106-.182q-.107-.184-.216-.366l-.109-.179q-.114-.185-.23-.369l-.1-.162q-.127-.2-.258-.392l-.086-.129q-.157-.231-.318-.459l-.037-.052q-.566-.795-1.186-1.547l-.039-.047q-.185-.223-.374-.442l-.058-.067q-.185-.213-.375-.422l-.054-.06q-.2-.223-.411-.441L47.4,8.52q-.246-.258-.5-.509a1.006,1.006,0,0,1-.255-.068C46.591,8,46.591,8.056,46.535,8.113Zm3.5,17.581v0Zm3.447-6.105h0Z" style="fill:#86cdaf"/><path d="M54.848,24.6a.6.6,0,0,1-.231.023,1.678,1.678,0,0,1,.269.367C54.873,24.856,54.862,24.727,54.848,24.6Z" style="fill:#89be49"/></svg>