<svg xmlns="http://www.w3.org/2000/svg" viewBox="0 0 61.86 55"><defs><style>.cls-1{fill:#888;}.cls-2{fill:#454545;}.cls-3{fill:#eee;}.cls-4{fill:#bbb;}.cls-5{fill:#ccc;}.cls-6{fill:#fff;}.cls-7{fill:#555;}.cls-8{fill:#e2a926;}.cls-9{fill:#ffc81a;}.cls-10{fill:#999;}</style></defs><title>jobs</title><g id="Layer_2" data-name="Layer 2"><g id="Layer_1-2" data-name="Layer 1"><g id="jobs"><polygon class="cls-1" points="53.59 34.54 47.03 41.68 19.18 41.68 19.18 0 61.86 0 61.86 30.84 53.59 34.54"/><polygon class="cls-2" points="61.86 30.84 50.55 30.84 50.55 41.68 61.86 30.84"/><polygon class="cls-3" points="52.31 45.74 51.08 48.62 13.19 48.62 13.19 10.75 55.87 10.75 55.87 44.02 52.31 45.74"/><rect class="cls-4" x="18.38" y="29.68" width="12.79" height="12.79"/><rect class="cls-4" x="26.53" y="16.83" width="22.38" height="2.86"/><rect class="cls-4" x="34.8" y="39.61" width="14.12" height="2.86"/><rect class="cls-4" x="34.8" y="33.92" width="14.12" height="2.86"/><rect class="cls-4" x="34.8" y="28.22" width="14.12" height="2.86"/><rect class="cls-4" x="34.8" y="22.53" width="14.12" height="2.86"/><polygon class="cls-5" points="55.87 44.02 51.08 44.02 51.08 48.62 55.87 44.02"/><circle class="cls-6" cx="22.66" cy="20.66" r="14.22"/><rect class="cls-7" x="11.75" y="34.22" width="3.22" height="2.8" transform="translate(50.76 42.53) rotate(121.04)"/><path class="cls-8" d="M37.59,28.23c-2.29,3.51-20.47,8-26.21-.61-2.51-3.77-5.3-13.46-3.27-17.13A17.21,17.21,0,1,0,37.59,28.23Z"/><path class="cls-9" d="M37.59,28.23A17.21,17.21,0,0,0,8.11,10.49,17.21,17.21,0,0,0,37.59,28.23ZM11,22.77a11.9,11.9,0,1,1,14.42,8.68A11.87,11.87,0,0,1,11,22.77Z"/><path class="cls-2" d="M14.23,40.63l.71-1.19a1.64,1.64,0,0,0-.56-2.24l-3-1.82a1.64,1.64,0,0,0-2.24.56L8.4,37.13C8.87,36.36,14.69,39.86,14.23,40.63Z"/><rect class="cls-7" x="-2.33" y="42.27" width="19.11" height="6.79" rx="1.63" ry="1.63" transform="translate(-35.63 28.32) rotate(-58.96)"/><path class="cls-10" d="M16.93,17.54H18.2v3.54a1.47,1.47,0,0,1-.26.86,1.67,1.67,0,0,1-.73.58,2.68,2.68,0,0,1-1.07.2,2.47,2.47,0,0,1-1.52-.41,1.38,1.38,0,0,1-.55-1.17h1.28a.73.73,0,0,0,.19.56.85.85,0,0,0,.6.18.8.8,0,0,0,.58-.21.78.78,0,0,0,.22-.59Z"/><path class="cls-10" d="M24.91,20.21a2.65,2.65,0,0,1-.32,1.32,2.18,2.18,0,0,1-.92.88,3.2,3.2,0,0,1-2.74,0,2.21,2.21,0,0,1-.93-.87,2.58,2.58,0,0,1-.33-1.31V20A2.64,2.64,0,0,1,20,18.66a2.2,2.2,0,0,1,.93-.88,3.2,3.2,0,0,1,2.74,0,2.2,2.2,0,0,1,.93.88A2.63,2.63,0,0,1,24.91,20ZM23.63,20a1.87,1.87,0,0,0-.35-1.22,1.38,1.38,0,0,0-2,0A1.86,1.86,0,0,0,21,20v.25a1.9,1.9,0,0,0,.35,1.22,1.37,1.37,0,0,0,2,0,1.89,1.89,0,0,0,.35-1.21Z"/><path class="cls-10" d="M26.4,22.65V17.54h2.16a3.28,3.28,0,0,1,1.7.36,1.15,1.15,0,0,1,.58,1,1,1,0,0,1-.23.66A1.33,1.33,0,0,1,30,20a1.35,1.35,0,0,1,.75.4,1,1,0,0,1,.27.73,1.26,1.26,0,0,1-.57,1.12,2.93,2.93,0,0,1-1.61.39Zm1.27-3h.94q1,0,1-.64a.55.55,0,0,0-.24-.5,1.48,1.48,0,0,0-.77-.15h-.89Zm0,.74v1.38h1.09a1.2,1.2,0,0,0,.7-.18.57.57,0,0,0,.25-.49q0-.7-.88-.71Z"/></g></g></g></svg>