<svg xmlns="http://www.w3.org/2000/svg" viewBox="0 0 78.894 55"><title>ken-walshs-washington</title><path d="M39.517,4.57c-6.567,0-7.7,6.522-7.7,7.282,0,3.124,3.447,5.032,7.7,5.032s7.7-1.908,7.7-5.032C47.217,11.038,45.782,4.57,39.517,4.57Z" style="fill:#ccc"/><rect x="14.022" y="37.98" width="51.038" height="14.256" style="fill:#aaa"/><rect x="14.022" y="33.094" width="51.038" height="17.515" style="fill:#bbb"/><polygon points="50.304 50.577 50.304 36.315 28.731 36.315 28.731 50.577 39.769 50.986 50.304 50.577" style="fill:#ccc"/><polygon points="50.304 52.907 50.304 50.577 28.731 50.577 28.731 52.907 39.483 53.197 50.304 52.907" style="fill:#bbb"/><rect x="28.731" y="52.907" width="21.573" height="2.093" style="fill:#ccc"/><rect x="14.022" y="32.87" width="51.038" height="2.093" style="fill:#ccc"/><polygon points="78.894 21.072 0.141 21.072 0.141 34.858 7.587 36.284 17.077 34.858 17.077 33.159 28.731 33.159 28.731 34.858 37.732 36.184 50.304 34.858 50.304 33.159 61.817 33.159 61.817 34.858 70.552 35.48 78.894 34.858 78.894 21.072" style="fill:#ddd"/><path d="M39.517,20.151c-9.229,0-10.821,6.712-10.821,7.545,0,3.422,4.824,6.277,10.8,6.277S50.338,31.119,50.338,27.7C50.338,26.8,48.322,20.151,39.517,20.151Z" style="fill:#ccc"/><path d="M39.517,18.417c-9.229,0-10.821,8.013-10.821,8.846,0,3.422,4.845,5.721,10.821,5.721s10.821-2.3,10.821-5.721A10.662,10.662,0,0,0,39.517,18.417Z" style="fill:#eee"/><path d="M47.8,21.623A9,9,0,0,0,39.517,16.2a8.851,8.851,0,0,0-8.386,5.426H30.049v3.758a4.006,4.006,0,0,0,.168,1.149c.632,2.121,3.016,3.588,6.161,4.167a17.417,17.417,0,0,0,3.14.276,16.623,16.623,0,0,0,4.131-.493c2.553-.66,4.463-1.959,5.1-3.746a3.986,3.986,0,0,0,.235-1.353V21.623Z" style="fill:#ccc"/><path d="M39.517,12.608c-8.075,0-9.469,8.221-9.469,9.054,0,3.422,4.239,5.513,9.469,5.513s9.469-2.091,9.469-5.513C48.986,20.77,47.221,12.608,39.517,12.608Z" style="fill:#eee"/><path d="M47.076,16.836a8.206,8.206,0,0,0-7.559-4.883,8.073,8.073,0,0,0-7.648,4.883h-.988v3.382a3.561,3.561,0,0,0,.153,1.034c.576,1.909,2.751,3.229,5.619,3.75a16.1,16.1,0,0,0,2.864.248,15.356,15.356,0,0,0,3.767-.444c2.329-.594,4.071-1.763,4.654-3.371a3.544,3.544,0,0,0,.214-1.217V16.836Z" style="fill:#ccc"/><path d="M39.517,8.572c-7.365,0-8.636,7.5-8.636,8.264,0,3.124,3.867,5.032,8.636,5.032s8.636-1.908,8.636-5.032C48.153,16.022,46.544,8.572,39.517,8.572Z" style="fill:#eee"/><path d="M39.517,6.333c-6.567,0-7.7,7.5-7.7,8.264,0,3.124,3.447,5.032,7.7,5.032s7.7-1.908,7.7-5.032C47.217,13.783,45.782,6.333,39.517,6.333Z" style="fill:#ccc"/><path d="M39.517,5.553c-6.567,0-7.7,6.522-7.7,7.282,0,3.124,3.447,5.032,7.7,5.032s7.7-1.908,7.7-5.032C47.217,12.021,45.782,5.553,39.517,5.553Z" style="fill:#eee"/><path d="M41.5,3.194H37.535V6.971h0c0,.486.887,1.112,1.982,1.112S41.5,7.457,41.5,6.971h0Z" style="fill:#ccc"/><path d="M37.535,3.194c0-.8.887-1.456,1.982-1.456S41.5,2.39,41.5,3.194c0,.47-.919,1.138-2.013,1.138S37.535,3.685,37.535,3.194Z" style="fill:#ccc"/><path d="M39.517,0c-.455,0-.936,1.1-.936,1.686A4.177,4.177,0,0,0,38.9,3.023a1.015,1.015,0,0,0,.568.218.823.823,0,0,0,.663-.218,4.177,4.177,0,0,0,.321-1.338C40.454,1.1,39.972,0,39.517,0" style="fill:#ccc"/><polygon points="17.077 55 0 55 0 53.652 10.245 49.894 17.077 53.652 17.077 55" style="fill:#ccc"/><polygon points="17.077 53.652 0 53.652 0 41.309 2.129 41.309 17.077 51.598 17.077 53.652" style="fill:#bbb"/><polygon points="17.077 51.598 2.129 51.598 2.129 38.344 10.453 37.434 17.077 38.344 17.077 51.598" style="fill:#ccc"/><path d="M4.834,36.549l-1.2,1.795V51.85c0,.69.559,1.04,1.249,1.04s1.249-.351,1.249-1.04V38.344Z" style="fill:#eee"/><path d="M9.439,36.627,8.354,38.344V51.85c0,.69.559,1.04,1.249,1.04s1.249-.351,1.249-1.04V38.344Z" style="fill:#eee"/><path d="M14.251,36.5l-1.18,1.847V51.85c0,.69.559,1.04,1.249,1.04s1.249-.351,1.249-1.04V38.344Z" style="fill:#eee"/><polygon points="17.077 38.344 2.129 38.344 2.129 36.679 17.077 36.951 17.077 38.344" style="fill:#bbb"/><path d="M31.98,36.655,30.744,38.36V51.85c0,.69.559,1.04,1.249,1.04s1.249-.351,1.249-1.04V38.344Z" style="fill:#eee"/><path d="M37.064,36.549l-1.34,1.795V51.85c0,.69.559,1.04,1.249,1.04s1.249-.351,1.249-1.04V38.344Z" style="fill:#eee"/><path d="M41.694,36.679,40.7,38.344V51.85c0,.69.559,1.04,1.249,1.04S43.2,52.54,43.2,51.85V38.344Z" style="fill:#eee"/><path d="M46.9,36.653l-1.215,1.691V51.85c0,.69.559,1.04,1.249,1.04s1.249-.351,1.249-1.04V38.344Z" style="fill:#eee"/><polygon points="50.304 38.344 50.304 36.951 38.203 35.623 28.731 36.951 28.731 38.344 50.304 38.344" style="fill:#bbb"/><rect x="28.731" y="34.858" width="21.573" height="2.093" style="fill:#ccc"/><polygon points="61.817 55 78.894 55 78.894 53.652 75.049 52.283 61.817 53.652 61.817 55" style="fill:#ccc"/><polygon points="61.817 53.652 78.894 53.652 78.894 41.309 76.765 41.309 61.817 51.598 61.817 53.652" style="fill:#bbb"/><polygon points="61.817 51.598 76.765 51.598 76.765 38.344 69.813 37.374 61.817 38.344 61.817 51.598" style="fill:#ccc"/><path d="M75.256,38.344V51.85c0,.69-.559,1.04-1.249,1.04s-1.249-.351-1.249-1.04V38.344l1.011-1.52Z" style="fill:#eee"/><path d="M70.539,38.344V51.85c0,.69-.559,1.04-1.249,1.04s-1.249-.351-1.249-1.04V38.344l1.317-1.607Z" style="fill:#eee"/><path d="M65.822,38.344V51.85c0,.69-.559,1.04-1.249,1.04s-1.249-.351-1.249-1.04V38.344l1.122-1.578Z" style="fill:#eee"/><polygon points="61.817 38.344 76.765 38.344 76.765 36.679 67.014 36.679 61.817 36.951 61.817 38.344" style="fill:#bbb"/><rect x="61.817" y="34.858" width="17.077" height="2.093" style="fill:#ccc"/><rect x="0.141" y="34.858" width="16.936" height="2.093" style="fill:#ccc"/></svg>