<svg xmlns="http://www.w3.org/2000/svg" viewBox="0 0 52.106 55"><title>knowledge-bank</title><path d="M47.177,32.634a19.627,19.627,0,0,0-29.4-26.013c-3.848,4.349-4.926,9.181-5.066,14.562-.041,1.566-.467,4.209-1.391,5.254-1.676,1.894-3.361,3.645-4.5,4.933a2.589,2.589,0,0,0-.635,1.721c-.037,1.7,14.721,15,16.265,14.393a1.79,1.79,0,0,0,.393-.179c1.443-1.02,3.827-5.394,5.917-6.382s9.454-2.547,9.454-2.547A19.505,19.505,0,0,0,47.177,32.634Z" style="fill:#ffc81a"/><path d="M39.336,24.177a4.97,4.97,0,0,0-6.673.133L29.724,27.1l-4.329-3.831,2.412-3.257a4.951,4.951,0,1,0-7.418.814l2.982,2.648L9.806,41.559l1.2.9L24.495,24.471l4.148,3.671L12.433,43.722,13.469,44.8l16.3-15.665,2.991,2.638a5.025,5.025,0,0,0,6.578-7.6ZM21.427,19.76a3.533,3.533,0,1,1,5.328-.831c-.032.054-2.511,3.323-2.511,3.323ZM33.692,30.612,30.875,28.12s2.944-2.859,2.993-2.9a3.468,3.468,0,1,1-.176,5.39Z" style="fill:#f99b21"/><path d="M6.962,37.012c-.5.566-2.561-.31-2.808-.032-.6.682,1.165,2.652.7,3.183s-2.244-.365-2.713.166.7,2.645.2,3.213-1.849-.353-2.285.14c-.317.358,1,3.809,2.213,6.024.456.829,1.933.671,2.242.945.37.328.4,1.671,1.643,2.224,2.569,1.144,6.048,2.347,6.274,2.091.335-.379-.8-2.46-.527-2.763.047-.053.2-.063.361-.06.321.005.709-.414,1.218-.367.544.05,1.212.56,1.583.39a.76.76,0,0,0,.265-.173c.67-.758-.417-2.068-.082-2.447s3.191.282,3.189.029c-.006-.862-.476-2.235-.32-2.411.474-.535,2.285.467,3.829-.138L6.186,33.091C6.15,34.791,7.334,36.591,6.962,37.012Z" style="fill:#ddd"/><path d="M18.106,47.166v0c.185-.209,2.8.924,4.346.32l-.517-.457L5.826,38.51Z" style="fill:#aaa"/><path d="M15.237,49.546c.465-.228,2.6,1.127,3.052.617a.907.907,0,0,0,.137-.588l-15-8.174Z" style="fill:#aaa"/><path d="M12.253,52.143c.677.019,2.087.354,2.8.023L.783,44.45Z" style="fill:#aaa"/><path d="M4.867,50.625c-.962-.851-2.054-1.218-2.607-.92a7.314,7.314,0,0,0,1.27,1.718,11.977,11.977,0,0,0,2.615,1.451A3.193,3.193,0,0,0,4.867,50.625Z" style="fill:#aaa"/><path d="M46.8,18.37a18.051,18.051,0,0,1,.874,4.5A15.747,15.747,0,0,0,21.3,8.1,17.963,17.963,0,0,1,46.8,18.37Z" style="fill:#ffd45c"/></svg>