<svg xmlns="http://www.w3.org/2000/svg" viewBox="0 0 68.205 55"><title>law-admissions-lowdown</title><path d="M40.549,7.988H35.794l-3.5,36.6L35.794,55h4.755A2.448,2.448,0,0,0,43,52.552V50.364l-4.325-2.906L43,44.588V30l-4.908-6.376L43,17.459V10.433A2.448,2.448,0,0,0,40.549,7.988Z" style="fill:#aaa"/><rect x="32.38" y="44.588" width="10.616" height="1.483" style="fill:#555"/><rect x="32.38" y="48.181" width="10.616" height="2.182" style="fill:#555"/><rect x="32.38" y="46.071" width="10.616" height="2.11" style="fill:#ddd"/><rect x="32.38" y="17.459" width="10.616" height="2.183" style="fill:#555"/><rect x="32.38" y="27.82" width="10.616" height="2.18" style="fill:#555"/><rect x="32.38" y="19.642" width="10.616" height="8.178" style="fill:#ddd"/><rect x="14.403" y="7.935" height="1.483" style="fill:#ffd45c"/><rect x="14.403" y="11.53" height="1.482" style="fill:#ffd45c"/><rect x="14.403" y="9.418" height="2.112" style="fill:#c43e28"/><rect x="14.403" y="43.353" height="1.48" style="fill:#ffd45c"/><rect x="14.403" y="46.947" height="1.48" style="fill:#ffd45c"/><rect x="14.403" y="44.833" height="2.114" style="fill:#c43e28"/><path d="M11.955,3.993H7.2L2.17,22.81,7.2,55h4.753A2.447,2.447,0,0,0,14.4,52.552V48.427l-1.564-.71,1.564-.77V44.833l-.928-.594.928-.858V13.012l-.68-.638.68-.844V9.438l-1.317-.647L14.4,7.935V6.442A2.449,2.449,0,0,0,11.955,3.993Z" style="fill:#c43e28"/><rect x="4.361" y="7.935" width="10.042" height="1.483" style="fill:#ffd45c"/><rect x="4.361" y="11.53" width="10.042" height="1.482" style="fill:#ffd45c"/><rect x="4.361" y="43.353" width="10.042" height="1.48" style="fill:#ffd45c"/><rect x="4.361" y="46.947" width="10.042" height="1.48" style="fill:#ffd45c"/><path d="M2.448,3.993A2.448,2.448,0,0,0,0,6.442V7.935l1.272.827L0,9.418V11.53l.941.976L0,13.012V43.353l1.444.814L0,44.833v2.114l1.285.936L0,48.427v4.125A2.445,2.445,0,0,0,2.448,55H7.2V3.993Z" style="fill:#a33322"/><rect y="7.935" width="7.202" height="1.483" style="fill:#f0b91c"/><rect y="11.53" width="7.202" height="1.482" style="fill:#f0b91c"/><rect y="43.353" width="7.202" height="1.48" style="fill:#f0b91c"/><rect y="46.947" width="7.202" height="1.48" style="fill:#f0b91c"/><path d="M16.851,0A2.447,2.447,0,0,0,14.4,2.448V10.5l.982,1.226-.982.953v3.268l.927,1.14L14.4,18.127V36.869l1.518,1.318-1.518.864V42.5l1.609,1.14L14.4,44.657v7.892A2.447,2.447,0,0,0,16.851,55h4.754l3.9-26.914L21.605,0Z" style="fill:#694a3a"/><rect x="14.404" y="10.5" width="11.601" height="2.18" style="fill:#c4b192"/><rect x="14.404" y="15.948" width="11.601" height="2.179" style="fill:#c4b192"/><rect x="14.404" y="36.869" width="11.601" height="2.181" style="fill:#c4b192"/><rect x="14.404" y="42.5" width="11.601" height="2.18" style="fill:#c4b192"/><path d="M26.36,0H21.605V55H26.36a2.447,2.447,0,0,0,2.447-2.449V44.68l-1.991-1.25,1.991-.931V39.051l-1.673-1.5,1.673-.682V18.127l-.882-1.312.882-.867V12.68l-1.018-1.5,1.018-.681V2.448A2.447,2.447,0,0,0,26.36,0Z" style="fill:#79564b"/><rect x="21.606" y="10.5" width="7.202" height="2.18" style="fill:#f1dcb3"/><rect x="21.605" y="15.948" width="7.202" height="2.179" style="fill:#f1dcb3"/><rect x="21.605" y="36.869" width="7.202" height="2.181" style="fill:#f1dcb3"/><rect x="21.606" y="42.5" width="7.202" height="2.18" style="fill:#f1dcb3"/><path d="M31.04,7.988a2.447,2.447,0,0,0-2.448,2.445v7.026l4.83,5L28.592,30V44.588l5.788,3.078-5.788,2.7v2.188A2.447,2.447,0,0,0,31.04,55h4.754V7.988Z" style="fill:#999"/><rect x="28.592" y="44.588" width="7.202" height="1.483" style="fill:#454545"/><rect x="28.592" y="48.181" width="7.202" height="2.182" style="fill:#454545"/><rect x="28.592" y="46.071" width="7.202" height="2.11" style="fill:#ccc"/><rect x="28.592" y="17.459" width="7.202" height="2.183" style="fill:#454545"/><rect x="28.592" y="27.82" width="7.202" height="2.18" style="fill:#454545"/><rect x="28.592" y="19.642" width="7.202" height="8.178" style="fill:#ccc"/><path d="M44.122,6.635a2,2,0,0,0-1.414,2.449l1.386,5.172,5.376,4.279-2.446,6.654,3.208,11.973,5.394,5.39L53.16,48.094l1.453,5.423a2,2,0,0,0,2.449,1.414l4.83-1.294L58.88,28.149,48.951,5.341Z" style="fill:#5382c2"/><rect x="44.224" y="13.089" width="8.733" height="2.159" transform="matrix(0.966, -0.259, 0.259, 0.966, -2.011, 13.059)" style="fill:#f0b91c"/><rect x="46.594" y="21.936" width="8.733" height="2.159" transform="matrix(0.966, -0.259, 0.259, 0.966, -4.22, 13.974)" style="fill:#f0b91c"/><rect x="45.409" y="15.092" width="8.733" height="7" transform="matrix(0.966, -0.259, 0.259, 0.966, -3.116, 13.516)" style="fill:#a33322"/><rect x="50.361" y="35.995" width="8.733" height="2.159" transform="translate(-7.731 15.428) rotate(-15)" style="fill:#f0b91c"/><rect x="52.732" y="44.842" width="8.733" height="2.159" transform="translate(-9.94 16.343) rotate(-15)" style="fill:#f0b91c"/><rect x="51.547" y="37.998" width="8.733" height="7" transform="matrix(0.966, -0.259, 0.259, 0.966, -8.835, 15.885)" style="fill:#a33322"/><path d="M53.781,4.047l-4.83,1.294,12.941,48.3,4.83-1.294a2,2,0,0,0,1.414-2.449l-1.453-5.423-6.9-2.267,3.968-8.665L60.546,21.565l-5.888-4.49,2.959-6.442L56.231,5.461A2,2,0,0,0,53.781,4.047Z" style="fill:#7aa0ce"/><rect x="51.015" y="11.502" width="7" height="2.159" transform="translate(-1.399 14.538) rotate(-15)" style="fill:#ffd45c"/><rect x="53.385" y="20.349" width="7" height="2.159" transform="translate(-3.608 15.453) rotate(-15)" style="fill:#ffd45c"/><rect x="52.2" y="13.505" width="7" height="7" transform="translate(-2.503 14.996) rotate(-15)" style="fill:#c43e28"/><rect x="57.152" y="34.408" width="7" height="2.159" transform="translate(-7.118 16.907) rotate(-15)" style="fill:#ffd45c"/><rect x="59.523" y="43.254" width="7" height="2.159" transform="matrix(0.966, -0.259, 0.259, 0.966, -9.327, 17.822)" style="fill:#ffd45c"/><rect x="58.338" y="36.41" width="7" height="7" transform="matrix(0.966, -0.259, 0.259, 0.966, -8.222, 17.365)" style="fill:#c43e28"/></svg>