<svg xmlns="http://www.w3.org/2000/svg" viewBox="0 0 55.741 55"><title>making-the-online-grade</title><polygon points="48.833 52.597 27.87 54.91 6.908 52.597 14.956 47.792 40.785 47.792 48.833 52.597" style="fill:#ccc"/><rect x="6.908" y="52.597" width="41.926" height="2.403" style="fill:#ddd"/><rect x="19.521" y="41.225" width="16.698" height="8.609" style="fill:#ddd"/><rect x="19.521" y="41.225" width="16.698" height="1.442" style="fill:#aaa"/><rect width="55.741" height="41.325" rx="4.645" ry="4.645" style="fill:#ddd"/><rect x="2.823" y="3.364" width="50.095" height="34.598" style="fill:#62a4d1"/><rect x="12.296" y="11.063" width="34.503" height="22.553" rx="2" ry="2" style="fill:#5382c2"/><rect x="10.619" y="9.386" width="34.503" height="22.553" rx="2" ry="2" style="fill:#fff"/><rect x="13.272" y="12.039" width="29.186" height="3.317" style="fill:#aaa"/><rect x="13.272" y="17.346" width="29.186" height="1.327" style="fill:#ccc"/><rect x="13.277" y="20.663" width="29.186" height="1.327" style="fill:#ccc"/><rect x="13.277" y="23.979" width="19.9" height="1.327" style="fill:#ccc"/><rect x="13.28" y="26.977" width="19.9" height="1.99" transform="translate(-0.12 0.1) rotate(-0.247)" style="fill:#aaa"/></svg>