<svg xmlns="http://www.w3.org/2000/svg" viewBox="0 0 55.74 55"><defs><style>.cls-1{fill:#ccc;}.cls-2{fill:#ddd;}.cls-3{fill:#aaa;}.cls-4{fill:#454545;}.cls-5{fill:#fff;}.cls-6{fill:#ffc81a;}.cls-7{fill:#888;}</style></defs><title>media-kit</title><g id="Layer_2" data-name="Layer 2"><g id="Layer_1-2" data-name="Layer 1"><g id="media-kit"><polygon class="cls-1" points="48.83 52.6 27.87 54.91 6.91 52.6 14.96 47.79 40.78 47.79 48.83 52.6"/><rect class="cls-2" x="6.91" y="52.6" width="41.93" height="2.4"/><rect class="cls-2" x="19.52" y="41.23" width="16.7" height="8.61"/><rect class="cls-3" x="19.52" y="41.23" width="16.7" height="1.44"/><rect class="cls-2" width="55.74" height="41.33" rx="4.65" ry="4.65"/><g id="Object"><rect class="cls-4" x="2.82" y="3.36" width="50.1" height="34.6"/><polygon class="cls-5" points="49.17 34.66 47 34.66 41.18 30.61 34.73 34.66 30.63 34.66 20.94 29.59 8.45 34.66 6.58 34.66 6.58 14.13 17.84 10.62 6.58 6.66 49.17 6.66 35.12 10.08 49.17 14.13 49.17 34.66"/><rect class="cls-6" x="8.45" y="17.17" width="38.55" height="5.6"/><rect class="cls-6" x="34.73" y="26.26" width="12.27" height="8.4"/><rect class="cls-7" x="8.45" y="26.26" width="22.24" height="8.4"/><rect class="cls-7" x="6.58" y="6.66" width="42.59" height="7.47"/><path class="cls-4" d="M23,11.48H8.45V8.68H23Z"/></g></g></g></g></svg>