<svg xmlns="http://www.w3.org/2000/svg" viewBox="0 0 49.438 55"><title>my-money</title><path d="M44.9,34.16l.608-7.2.608-7.2-.6-.051C46.829,11.56,48.7,1.811,48.7,1.811L27.248,0s.234,10.02.171,18.173l-.366-.031-.637,7.546-.579,6.862,1.992-.636c-.426,2.615,1.532,6.754,1.027,9.762-.193,1.15-2.865,1.289-3.046,2.36-.728,4.311-1.305,7.686-1.305,7.686L44.44,54.21S44.074,41.7,44.13,34.095Z" style="fill:#079d85"/><path d="M46.38,32.31l-.645-7.061-.645-7.061-.592.054c-.122-8.086.018-17.821.018-17.821L23.488,2.344s1.941,9.636,3.275,17.52L26.4,19.9l.676,7.4.615,6.725.465-.043c.106,7.585-.151,19.763-.151,19.763l20.3-1.632s-.676-3.772-1.489-8.383c-.089-.5-4.629-1.2-4.72-1.716-.57-3.241,3.272-6.541,2.8-9.339Z" style="fill:#44ba8f"/><path d="M47.372,1.418S45.2,21.947,45.2,28.79C45.2,34.86,47.372,55,47.372,55H25.416s2.174-20.539,2.174-26.742c0-6.71-2.174-26.84-2.174-26.84Z" style="fill:#b6dfd0"/><path d="M28.41,19.871H26.775V34.617H28.41l-1.359,18.9H45.738l-1.359-18.9h1.907V19.871H44.379L45.738,2.9H27.051Zm15.58,28.288-3.908,3.636H32.706L29.07,48.158l.815-13.542H42.9ZM40.082,4.623,43.719,8.26,42.9,19.871H29.885L29.07,8.26l3.636-3.636Z" style="fill:#44ba8f"/><path d="M39.881,43.89a3.263,3.263,0,0,1-.2,1.146,1.972,1.972,0,0,1-.691.906l-.585-.671a1.478,1.478,0,0,0,.518-.59,1.929,1.929,0,0,0,.211-.791H36.7a4.271,4.271,0,0,1-.254.719,2.507,2.507,0,0,1-.389.609,1.691,1.691,0,0,1-.552.417,1.733,1.733,0,0,1-.753.153,1.76,1.76,0,0,1-.739-.153,1.807,1.807,0,0,1-.58-.417,2.121,2.121,0,0,1-.393-.609,2.246,2.246,0,0,1-.178-.719h-.633v-.46h.633a2.848,2.848,0,0,1,.192-1.022,2.04,2.04,0,0,1,.585-.839l.576.633a1.519,1.519,0,0,0-.6,1.228H36q.125-.384.269-.749a2.684,2.684,0,0,1,.36-.647,1.614,1.614,0,0,1,.532-.451,1.669,1.669,0,0,1,.787-.168,1.8,1.8,0,0,1,.777.163,1.883,1.883,0,0,1,.595.436,2.053,2.053,0,0,1,.393.638,2.6,2.6,0,0,1,.173.777h.681v.46Zm-6.273,0a1.326,1.326,0,0,0,.389.753,1.072,1.072,0,0,0,.763.283.98.98,0,0,0,.422-.081.919.919,0,0,0,.3-.221,1.4,1.4,0,0,0,.216-.326q.091-.187.178-.408Zm5.525-.46a1.387,1.387,0,0,0-.374-.82,1.034,1.034,0,0,0-.777-.331.96.96,0,0,0-.777.355,1.6,1.6,0,0,0-.225.37,3.8,3.8,0,0,0-.158.427Z" style="fill:#44ba8f"/><path d="M39.881,12.95a3.263,3.263,0,0,1-.2,1.146,1.972,1.972,0,0,1-.691.906l-.585-.671a1.478,1.478,0,0,0,.518-.59,1.929,1.929,0,0,0,.211-.791H36.7a4.271,4.271,0,0,1-.254.719,2.507,2.507,0,0,1-.389.609,1.691,1.691,0,0,1-.552.417,1.733,1.733,0,0,1-.753.153,1.76,1.76,0,0,1-.739-.153,1.807,1.807,0,0,1-.58-.417,2.121,2.121,0,0,1-.393-.609,2.246,2.246,0,0,1-.178-.719h-.633v-.46h.633a2.848,2.848,0,0,1,.192-1.022,2.04,2.04,0,0,1,.585-.839l.576.633a1.519,1.519,0,0,0-.6,1.228H36q.125-.384.269-.749a2.684,2.684,0,0,1,.36-.647,1.614,1.614,0,0,1,.532-.451,1.669,1.669,0,0,1,.787-.168,1.8,1.8,0,0,1,.777.163,1.883,1.883,0,0,1,.595.436,2.053,2.053,0,0,1,.393.638,2.6,2.6,0,0,1,.173.777h.681v.46Zm-6.273,0A1.326,1.326,0,0,0,34,13.7a1.072,1.072,0,0,0,.763.283.98.98,0,0,0,.422-.081.919.919,0,0,0,.3-.221,1.4,1.4,0,0,0,.216-.326q.091-.187.178-.408Zm5.525-.46a1.387,1.387,0,0,0-.374-.82,1.034,1.034,0,0,0-.777-.331.96.96,0,0,0-.777.355,1.6,1.6,0,0,0-.225.37,3.8,3.8,0,0,0-.158.427Z" style="fill:#44ba8f"/><path d="M49.438,26.688a3.764,3.764,0,0,0-1.74-3.2,3.788,3.788,0,0,0-1.708-6.96s-7.225,1.216-9.376,1.27a60.643,60.643,0,0,1-9.156-.776c-.553-.463-1.076-.9-1.31-1.09-.6-.493-3.749,1.65-4.291,2.845a6.8,6.8,0,0,0-.123,1.831H14.21v19.14h9.7c.569,1.36,2.432,2.1,3.448,2.309a60.112,60.112,0,0,0,8.142.682,43.444,43.444,0,0,0,8.5-.682c1.285-.325,3.733-1.677,3.733-3.765a3.7,3.7,0,0,0-.759-2.246A3.784,3.784,0,0,0,48.078,29.6,3.712,3.712,0,0,0,49.438,26.688Z" style="fill:#e6c49d"/><path d="M46.97,36.053s-.4,4.291-12.308,3.8c-10-.123-10.768-1.6-10.768-1.6H19.566v1.509h4.341c.569,1.36,2.432,2.1,3.448,2.309a60.112,60.112,0,0,0,8.142.682,43.449,43.449,0,0,0,8.5-.682c1.285-.325,3.733-1.677,3.733-3.765A3.7,3.7,0,0,0,46.97,36.053Z" style="fill:#c4b192"/><path d="M11.049,28.69l9.563,10.037V41.02H0V38.711Z" style="fill:#a33322"/><path d="M0,19.507H20.612v19.2H0Z" style="fill:#c43e28"/><path d="M26.691,41.88c-.158-.052-.32-.113-.488-.182-.135.8-.267,1.583-.394,2.339.217.067.441.131.669.193C26.549,43.457,26.621,42.672,26.691,41.88Z" style="fill:#117d68"/><path d="M46,41.1c.084.943.17,1.885.256,2.81.188-.062.379-.123.558-.188-.164-.927-.333-1.888-.5-2.859C46.215,40.948,46.11,41.027,46,41.1Z" style="fill:#079d85"/><path d="M27.355,42.064a6.188,6.188,0,0,1-.664-.184c-.07.792-.142,1.578-.213,2.35q.588.162,1.219.3l.171-2.378C27.684,42.126,27.509,42.1,27.355,42.064Z" style="fill:#86cdaf"/><path d="M45.073,44.267q.62-.167,1.189-.355c-.086-.925-.173-1.867-.256-2.81a6.739,6.739,0,0,1-1.114.639Z" style="fill:#86cdaf"/><path d="M33.608,43.43H36c.078-.24.163-.474.252-.7l-.751.019c-.443,0-1.035-.021-1.7-.053-.009.016-.022.029-.03.046A1.52,1.52,0,0,0,33.608,43.43Z" style="fill:#86cdaf"/><path d="M38.922,44.682a1.929,1.929,0,0,0,.211-.791H36.7a4.268,4.268,0,0,1-.254.719,2.506,2.506,0,0,1-.388.609,1.668,1.668,0,0,1-.206.156c.879,0,1.735-.032,2.574-.083l-.017-.02A1.478,1.478,0,0,0,38.922,44.682Z" style="fill:#86cdaf"/><path d="M36.979,43a3.8,3.8,0,0,0-.158.427h2.312a1.388,1.388,0,0,0-.348-.781c-.528.021-1.07.039-1.622.054A1.6,1.6,0,0,0,36.979,43Z" style="fill:#86cdaf"/><path d="M34.759,44.926a.98.98,0,0,0,.422-.081.918.918,0,0,0,.3-.221,1.4,1.4,0,0,0,.216-.326q.091-.187.177-.408H33.608a1.326,1.326,0,0,0,.388.753A1.072,1.072,0,0,0,34.759,44.926Z" style="fill:#86cdaf"/><path d="M39.709,42.653a2.6,2.6,0,0,1,.173.777h.681v.46h-.681a3.263,3.263,0,0,1-.2,1.146c-.023.061-.064.11-.092.167A34.6,34.6,0,0,0,43.7,44.6l-.195-2.427a25.9,25.9,0,0,1-3.83.437C39.687,42.623,39.7,42.635,39.709,42.653Z" style="fill:#86cdaf"/><path d="M33.43,45.219a2.121,2.121,0,0,1-.393-.609,2.246,2.246,0,0,1-.178-.719h-.633v-.46h.633a2.814,2.814,0,0,1,.123-.78c-1.158-.068-2.441-.168-3.564-.291l-.149,2.482a37.767,37.767,0,0,0,4.284.466C33.516,45.273,33.465,45.256,33.43,45.219Z" style="fill:#86cdaf"/><path d="M44.891,41.74a5.786,5.786,0,0,1-.716.272c-.061.018-.122.037-.179.051-.155.039-.323.07-.487.1L43.7,44.6c.171-.037.344-.072.511-.111.294-.069.577-.143.857-.218Z" style="fill:#079d85"/><path d="M28.171,42.2c-.106-.016-.2-.032-.3-.048L27.7,44.533c.149.034.3.067.452.1.364.076.738.145,1.12.21l.149-2.482C28.971,42.31,28.547,42.258,28.171,42.2Z" style="fill:#079d85"/><path d="M32.226,43.43v.46h.633a2.246,2.246,0,0,0,.178.719,2.121,2.121,0,0,0,.393.609c.035.037.086.055.123.089.749.04,1.51.068,2.291.068h0a1.668,1.668,0,0,0,.206-.156,2.506,2.506,0,0,0,.388-.609,4.268,4.268,0,0,0,.254-.719h2.437a1.929,1.929,0,0,1-.211.791,1.478,1.478,0,0,1-.518.59l.017.02q.592-.036,1.166-.088c.028-.057.069-.107.092-.167a3.263,3.263,0,0,0,.2-1.146h.681v-.46h-.681a2.6,2.6,0,0,0-.173-.777c-.007-.018-.022-.03-.029-.047-.294.016-.591.031-.894.043a1.388,1.388,0,0,1,.348.781H36.821A3.8,3.8,0,0,1,36.979,43a1.6,1.6,0,0,1,.183-.3l-.914.024c-.089.229-.174.463-.252.7H33.608a1.52,1.52,0,0,1,.158-.691c.008-.017.021-.03.03-.046-.261-.012-.533-.027-.813-.043a2.814,2.814,0,0,0-.123.78Zm3.645.46q-.086.221-.177.408a1.4,1.4,0,0,1-.216.326.918.918,0,0,1-.3.221.98.98,0,0,1-.422.081A1.072,1.072,0,0,1,34,44.643a1.326,1.326,0,0,1-.388-.753Z" style="fill:#079d85"/></svg>