<svg xmlns="http://www.w3.org/2000/svg" viewBox="0 0 54.309 55"><title>on-retirement</title><rect x="7.161" y="26.483" width="35.868" height="1.712" transform="matrix(0.274, 0.962, -0.962, 0.274, 44.508, -4.289)" style="fill:#f99b21"/><path d="M46.959,42.936c.073.055,4.365,1.187,4.365,1.187l.164.913-6.446-1.15Z" style="fill:#dc8527"/><path d="M43.6,44.525c.256.146,7.761,2.155,7.761,2.155l.267-1.608-7.115-2.081Z" style="fill:#f99b21"/><polygon points="33.251 30.557 32.01 30.557 31.262 32.243 32.495 43.954 33.726 43.984 33.251 30.557" style="fill:#ffc81a"/><polygon points="33.251 30.557 34.832 44.396 33.779 44.48 32.485 32.243 33.251 30.557" style="fill:#dc8527"/><polygon points="22.477 43.679 21.353 42.51 38.989 43.024 39.859 43.271 22.477 43.679" style="fill:#f99b21"/><polygon points="22.458 42.68 39.859 43.271 39.859 45.175 22.458 45.128 22.031 43.967 22.458 42.68" style="fill:#dc8527"/><polygon points="40.732 50.606 27.51 47.566 38.934 24.37 38.025 23.662 25.015 47.492 24.353 51.592 25.825 50.998 27.036 48.597 39.819 51.482 40.732 50.606" style="fill:#f99b21"/><polygon points="38.194 47.154 22.458 42.68 33.471 40.207 47.421 42.151 38.194 47.154" style="fill:#76bbd6"/><path d="M47.421,42.151l-13.95-1.945s2.058-9.784,2.939-12.984a32.359,32.359,0,0,1,1.616-3.561l14.052.63Z" style="fill:#a0ddf7"/><path d="M38.162,48.044l9.806-5.126s.523-2.965.74-3.944c.811-3.677,3.369-14.682,3.369-14.682s-3.024,10.131-3.835,13.559c-.252,1.065-.822,4.3-.822,4.3l-9.258,4.355Z" style="fill:#5382c2"/><polygon points="37.595 46.285 46.909 46.479 54.283 46.877 54.283 48.781 37.595 48.734 37.595 46.285" style="fill:#dc8527"/><polygon points="37.595 46.285 36.49 46.115 53.604 46.624 54.283 46.877 37.595 46.285" style="fill:#f99b21"/><polygon points="22.458 45.128 21.353 44.739 21.353 42.51 22.458 42.68 22.458 45.128" style="fill:#ffd45c"/><polygon points="38.974 55 40.519 54.247 54.309 25.559 53.635 24.37 48.146 34.097 38.974 55" style="fill:#f99b21"/><polygon points="51.549 31.251 50.308 31.251 49.56 32.937 51.278 49.258 52.542 49.49 51.549 31.251" style="fill:#ffc81a"/><polygon points="51.549 31.251 53.583 49.066 52.542 49.49 50.783 32.937 51.549 31.251" style="fill:#f99b21"/><polygon points="37.595 48.734 36.49 48.345 36.49 47.648 35.797 46.712 36.49 46.115 37.595 46.285 37.595 48.734" style="fill:#ffd45c"/><polygon points="52.077 24.292 38.992 50.886 26.217 47.784 38.025 23.662 36.676 23.617 22.569 51.077 24.353 51.592 25.303 49.65 38.052 52.765 37.191 54.485 38.974 55 53.635 24.37 52.077 24.292" style="fill:#ffd45c"/><polygon points="28.046 44.048 22.459 42.68 33.471 40.207 28.046 44.048" style="fill:#76bbd6"/><polygon points="36.49 47.648 22.462 44.253 22.458 42.68 36.49 46.115 36.49 47.648" style="fill:#62a4d1"/><path d="M17.734,1.07C6.176,4.167-1.208,14.763.163,25.539a.189.189,0,0,0,.3.126A11.78,11.78,0,0,1,11.1,23.388a10.386,10.386,0,0,1,2.834,1.372.189.189,0,0,0,.112.033c-.009-.032-.043-.067-.026-.1C21.648,11.647,12.558,2.457,17.734,1.07Z" style="fill:#ee6f70"/><path d="M17.734,1.07c5.176-1.387,3.945,9.72,15.029,18.6.027.022.017.067.026.1a.189.189,0,0,0,.085-.087,10.386,10.386,0,0,1,1.77-2.608,11.778,11.778,0,0,1,10.342-3.347.189.189,0,0,0,.2-.26C40.983,3.457,29.291-2.027,17.734,1.07Z" style="fill:#c43e28"/><path d="M18.7.923a.994.994,0,1,0-1.884.5c-4.448,2.333-5.732,12.323-2.8,23.268l.026.1a.187.187,0,0,0,.129-.055,19.032,19.032,0,0,1,8.6-4.862,19.031,19.031,0,0,1,9.882-.087.187.187,0,0,0,.135-.014l-.026-.1C29.831,8.729,23.723.719,18.7.923Z" style="fill:#e4524e"/></svg>