<svg xmlns="http://www.w3.org/2000/svg" viewBox="0 0 58.33 55"><title>op-ed</title><path d="M23.343,15.07S20.512,0,22.183,0c1.725,0,4.08,1.314,4.08,3.073A43.047,43.047,0,0,1,24.39,13.941Z" style="fill:#c4b192"/><path d="M33.75,21.461a3.115,3.115,0,0,0-1.456-2.649,3.145,3.145,0,0,0-1.4-5.784H23.722a61.4,61.4,0,0,0,1.4-9.893A3.133,3.133,0,0,0,22,0c-1.671,0-2.1,1.081-2.157,2.7-.054.432-.162,1.081-.216,1.892-.377,5.3-5.984,8.865-5.931,8.865h0a3.07,3.07,0,0,0-1.4,2.649v.216H9.381V31.36h3.127a3.12,3.12,0,0,0,2.857,1.946h13.8a3.133,3.133,0,0,0,3.127-3.135,2.98,2.98,0,0,0-.647-1.892A3.128,3.128,0,0,0,33.7,25.305a3.167,3.167,0,0,0-1.132-2.433C33.319,22.332,33.75,22.434,33.75,21.461Z" style="fill:#e6c49d"/><path d="M28.99,18.428H26.956a3.146,3.146,0,0,0-3.127,3.189,2.98,2.98,0,0,0,.647,1.892,3.181,3.181,0,0,0-2.049,2.973,3.086,3.086,0,0,0,1.132,2.433,3.051,3.051,0,0,0-1.24,2.487,3.179,3.179,0,0,0,.54,1.767H15.468a3.12,3.12,0,0,1-2.857-1.946H9.484a5.025,5.025,0,0,1-.087-.541,16.706,16.706,0,0,0,.087,2.672h3.127A3.12,3.12,0,0,0,15.468,35.3h13.8a3.155,3.155,0,0,0,2.917-3.351C32.187,33.678,32.842,18.428,28.99,18.428Z" style="fill:#c4b192"/><path d="M24.311,36.807c0,3.7,1.294,4.84,2.911,5h7.224a29.71,29.71,0,0,0-1.456,9.784h0v.216A3.146,3.146,0,0,0,36.118,55c1.671,0,2.488-1.081,2.542-2.757.054-.432.162-1.081.216-1.892.431-5.46,5.653-9.082,5.653-9.082h0c.863-.541,2.423-1.568,2.423-2.649V38.4H48.9V36.268S24.311,27.974,24.311,36.807Z" style="fill:#694a3a"/><path d="M24.311,31.4a3.282,3.282,0,0,0,1.456,2.7A3.216,3.216,0,0,0,27.222,40h7.224a29.71,29.71,0,0,0-1.456,9.784h0V50a3.146,3.146,0,0,0,3.127,3.189c1.671,0,2.1-1.081,2.157-2.757.054-.432.162-1.081.216-1.892.431-5.46,6.038-9.082,6.038-9.082h0a3.186,3.186,0,0,0,1.456-2.649v-.216H48.9V20.374H45.768a3.2,3.2,0,0,0-2.911-1.946H28.947a3.146,3.146,0,0,0-3.127,3.189,2.98,2.98,0,0,0,.647,1.892,3.181,3.181,0,0,0-2.049,2.973,3.086,3.086,0,0,0,1.132,2.433A3.051,3.051,0,0,0,24.311,31.4Z" style="fill:#694a3a"/><path d="M24.311,31.4a3.282,3.282,0,0,0,1.456,2.7A3.216,3.216,0,0,0,27.222,40h7.224a29.71,29.71,0,0,0-1.456,9.784h0V50a3.146,3.146,0,0,0,3.127,3.189c1.671,0,2.1-1.081,2.157-2.757.054-.432.162-1.081.216-1.892.431-5.46,6.038-9.082,6.038-9.082h0a3.186,3.186,0,0,0,1.456-2.649v-.216H48.9V20.374H45.768a3.2,3.2,0,0,0-2.911-1.946H28.947a3.146,3.146,0,0,0-3.127,3.189,2.98,2.98,0,0,0,.647,1.892,3.181,3.181,0,0,0-2.049,2.973,3.086,3.086,0,0,0,1.132,2.433A3.051,3.051,0,0,0,24.311,31.4Z" style="fill:#79564b"/><path d="M0,33.462l5.638-1.214,4.39,1.213V35.4H0Z" style="fill:#1b54a5"/><path d="M0,15.461H10.028v18H0Z" style="fill:#3063af"/><ellipse cx="5.284" cy="30.705" rx="1.563" ry="1.568" style="fill:#ffc81a"/><path d="M48.248,37.456l5.692-1.214,4.39,1.213v1.935H48.25Z" style="fill:#1b54a5"/><path d="M58.33,37.456H48.248V19.293H58.33Z" style="fill:#3063af"/><ellipse cx="53.047" cy="22.049" rx="1.617" ry="1.622" style="fill:#ffc81a"/></svg>