<svg xmlns="http://www.w3.org/2000/svg" viewBox="0 0 79.662 55"><title>planning-to-retire</title><path d="M67.305,16.214c-.1-.027-.227-.053-.359-.079-.042.445-54.771.815-58.058,2.9-10,3.68-8.482,6.977-8.482,6.977,2.137,1.11,12.014,16.5,15.27,15.663.015,0,10.752-2.91,20.365-5.517.841,1.3,1.487,2.42,1.844,2.36.841-.141,35.07-3.177,36.556-5.334.8-1.157,1.984-11.9,1.945-12.028C75.693,18.835,72.4,17.538,67.305,16.214Z" style="fill:#694a3a"/><path d="M67.513,25.913c-2.038,7.7-7.329,13.1-15.338,10.371-7.37-2.512-9.389-8.448-6.93-15.942C47.633,13.063,55.278,2.714,62.109,4.2,68.534,5.6,69.394,18.806,67.513,25.913Z" style="fill:#e2a926"/><path d="M38.878,32.9l-.007-.134-.125.008C38.788,32.82,38.834,32.86,38.878,32.9Z" style="fill:none"/><path d="M32.986,15.981c3.2,7.291,2.419,14.815-5.548,17.664-7.332,2.621-12.607-.767-15.347-8.163C9.429,18.3,8.97,5.44,15.241,2.35,21.138-.556,30.035,9.247,32.986,15.981Z" style="fill:#e2a926"/><path d="M32.986,15.981A29.929,29.929,0,0,0,29.26,9.892C26.2,14.98,24.71,22.445,24.922,27.831a20.467,20.467,0,0,0,1.144,6.24q.674-.178,1.372-.426C35.405,30.8,36.181,23.272,32.986,15.981Z" style="fill:#dc8527"/><path d="M58.466,32.678a15.133,15.133,0,0,1-5.562.27,18.715,18.715,0,0,0,1.431-9.261c-.354-3.62-2.353-8.18-4.411-12.168a31.993,31.993,0,0,0-4.678,8.822c-1.518,4.626-1.312,8.648.792,11.645l-.017.006c.132.188.277.37.423.55l.018.024a12.313,12.313,0,0,0,5.714,3.717c7.239,2.467,12.248-1.72,14.651-8.228A18.257,18.257,0,0,1,58.466,32.678Z" style="fill:#dc8527"/><path d="M52.326,20.76c.868,8.883-2.577,16.632-12.06,16.9-8.726.243-13.169-5.2-13.516-14.041C26.412,15.033,30.4,1.168,38.157.057,45.453-.988,51.524,12.556,52.326,20.76Z" style="fill:#ffc81a"/><path d="M38.149,2.225c-1.912.111-3.5,1.538-4.792,3.347a5.544,5.544,0,0,1,2.38-.936C42.6,3.8,47.727,12.654,47.727,12.654S44.135,1.877,38.149,2.225Z" style="fill:#ffd45c"/><path d="M16.416,4.071c-1.85.5-3.113,2.214-4.015,4.248a5.544,5.544,0,0,1,2.141-1.4c6.547-2.2,12.2,3.489,12.2,3.489S22.207,2.519,16.416,4.071Z" style="fill:#ffc81a"/><path d="M72.643,40.831a9.941,9.941,0,0,0,5.268-5.789c2.4-4.05,1.668-10.837,1.574-9.805a5.256,5.256,0,0,1-1.343,2.952,62.59,62.59,0,0,0-1.756-7.032c-1,2.147-4.723,7.948-7.459,7.213.022.006-.218-2.247-.207-2.326-3.1,3.848-6.585,6.826-11.472,7.982-1.425.337-4.785.761-6.25.042a2.925,2.925,0,0,1-1.448-3.006s-8.77,5.761-11.419.871c-.874-1.614-3.228-4.541-3.117-6.306-3.185,2.647-17.735,11.044-14.858.908-4,4.559-14.974,1.957-19.748-.522C-1.286,28.113,2.788,38.2,3.869,40.3c1.746,3.4,4.556,5.676,7.029,8.443-.48-1.631-.027-2.221-.071-3.015.084,1.526,7.364,5.516,8.836,6.25,2.073,1.035,7.5,3.556,9.9,2.922-.572.151-1.459-3.027-1.534-3.51A49.48,49.48,0,0,0,41.8,54.157c4.356.279,14.989,1.358,18.4-1.991-.6.594-2.845-1.888-3.148-2.362,4.666-.437,8.51-.826,12.81-3.006,1.8-.912,3.695-1.837,4.908-3.545.07-.1,1.627-2.668,1.536-2.623C75.35,41.105,73.684,40.912,72.643,40.831Z" style="fill:#79564b"/><rect x="7.281" y="34.573" width="14.472" height="2.091" transform="translate(0.609 -0.242) rotate(0.976)" style="fill:#694a3a"/><rect x="25.663" y="42.428" width="11.512" height="2.091" transform="translate(16.522 -8.055) rotate(19.731)" style="fill:#694a3a"/><rect x="43.58" y="40.102" width="8.968" height="2.091" transform="translate(7.868 -7.715) rotate(9.991)" style="fill:#694a3a"/><path d="M62.235,8.947c2,.857,3.39,3.628,3.645,7.285.953-4.6-.612-8.172-3.355-9.634C58.416,4.406,53.9,9.675,53.9,9.675S56.538,6.5,62.235,8.947Z" style="fill:#ffc81a"/><rect x="62.147" y="34.451" width="12.429" height="2.091" transform="translate(-7.439 49.19) rotate(-37.681)" style="fill:#694a3a"/></svg>