<svg xmlns="http://www.w3.org/2000/svg" viewBox="0 0 85.122 55"><title>pocket-listing</title><rect x="61.401" y="1.345" width="6.66" height="22.394" style="fill:#999"/><rect x="58.891" y="1.345" width="6.66" height="22.394" style="fill:#ccc"/><polygon points="69.658 2.03 67.631 2.03 66.653 0.898 67.625 0 69.658 0 69.658 2.03" style="fill:#888"/><rect x="56.671" width="10.96" height="2.03" style="fill:#aaa"/><path d="M41.739,1.222.139,19.768a.242.242,0,0,0,.1.461H84.88a.242.242,0,0,0,.1-.461L43.382,1.222A1.934,1.934,0,0,0,41.739,1.222Z" style="fill:#79564b"/><path d="M41.757,6.747,8.69,19.391a.242.242,0,0,0-.141.22V53.23H76.572V19.611a.242.242,0,0,0-.141-.22L43.364,6.747A1.934,1.934,0,0,0,41.757,6.747Z" style="fill:#c4b192"/><path d="M55.464,51.33V25.887H29.657V51.33H6.309a.242.242,0,0,0-.242.242v3.186A.242.242,0,0,0,6.309,55h72.5a.242.242,0,0,0,.242-.242V51.572a.242.242,0,0,0-.242-.242Z" style="fill:#79564b"/><rect x="31.982" y="28.189" width="21.158" height="26.811" style="fill:#c43e28"/><rect x="43.995" y="30.955" width="6.77" height="21.278" style="fill:#fff"/><rect x="34.356" y="30.955" width="6.77" height="21.278" style="fill:#fff"/><rect x="40.488" y="39.312" width="1.201" height="3.931" rx="0.568" ry="0.568" style="fill:#694a3a"/><rect x="43.433" y="39.312" width="1.201" height="3.931" rx="0.568" ry="0.568" style="fill:#694a3a"/><rect x="13.3" y="28.943" width="11.606" height="18.377" style="fill:#79564b"/><rect x="60.215" y="28.943" width="11.606" height="18.377" style="fill:#79564b"/><rect x="58.764" y="23.139" width="14.508" height="2.902" style="fill:#8a614c"/><rect x="27.058" y="16.957" width="9.412" height="2.902" style="fill:#8a614c"/><rect x="37.855" y="16.957" width="9.412" height="2.902" style="fill:#8a614c"/><rect x="48.652" y="16.957" width="9.412" height="2.902" style="fill:#8a614c"/><rect x="32.456" y="12.72" width="9.412" height="2.902" style="fill:#8a614c"/><rect x="43.254" y="12.72" width="9.412" height="2.902" style="fill:#8a614c"/><polygon points="23.131 45.106 23.131 31.156 17.302 35.719 15.075 45.106 23.131 45.106" style="fill:#ccc"/><polygon points="15.075 45.106 23.131 31.156 15.075 31.156 15.075 45.106" style="fill:#fff"/><polygon points="61.989 45.106 70.046 45.106 70.046 31.156 64.11 35.433 61.989 45.106" style="fill:#ccc"/><polygon points="61.989 31.156 61.989 45.106 70.046 31.156 61.989 31.156" style="fill:#fff"/><rect x="11.849" y="23.139" width="14.508" height="2.902" style="fill:#8a614c"/></svg>