<svg xmlns="http://www.w3.org/2000/svg" viewBox="0 0 49.703 55"><title>policy-dose</title><path d="M27.215,10.316l-11.994,1.2-11.741-1.2A1.567,1.567,0,0,1,1.9,8.734V1.582A1.567,1.567,0,0,1,3.481,0h23.8a1.567,1.567,0,0,1,1.582,1.582V8.734A1.664,1.664,0,0,1,27.215,10.316Z" style="fill:#ddd"/><path d="M0,52.785a1.567,1.567,0,0,0,1.582,1.582H29.114A1.554,1.554,0,0,0,30.7,52.848v-13.1L15.791,37.532,0,39.747Z" style="fill:#ddd"/><path d="M29.114,12.532H1.582A1.567,1.567,0,0,0,0,14.114V19.24L15.063,21.18,30.7,19.24V14.114A1.567,1.567,0,0,0,29.114,12.532Z" style="fill:#ddd"/><rect y="19.24" width="30.696" height="20.506" style="fill:#c43e28"/><polygon points="23.987 27.468 17.785 27.468 17.785 21.456 13.797 21.456 13.797 27.468 7.911 27.468 7.911 31.456 13.797 31.456 13.797 37.532 17.785 37.532 17.785 31.456 23.987 31.456 23.987 27.468" style="fill:#fff"/><path d="M4.62,7.595h0a.423.423,0,0,1-.443-.38V2.342a.408.408,0,0,1,.38-.38H4.62a.408.408,0,0,1,.38.38V7.215C5.063,7.405,4.873,7.595,4.62,7.595Z" style="fill:#aaa"/><path d="M7.342,7.595h0a.423.423,0,0,1-.443-.38V2.342a.408.408,0,0,1,.38-.38h.063a.408.408,0,0,1,.38.38V7.215A.365.365,0,0,1,7.342,7.595Z" style="fill:#aaa"/><path d="M10.063,7.595h0a.423.423,0,0,1-.443-.38V2.342a.408.408,0,0,1,.38-.38h.063a.408.408,0,0,1,.38.38V7.215A.408.408,0,0,1,10.063,7.595Z" style="fill:#aaa"/><path d="M12.785,7.595h0a.423.423,0,0,1-.443-.38V2.342a.408.408,0,0,1,.38-.38h.063a.408.408,0,0,1,.38.38V7.215A.408.408,0,0,1,12.785,7.595Z" style="fill:#aaa"/><path d="M15.506,7.595h0a.423.423,0,0,1-.443-.38V2.342a.408.408,0,0,1,.38-.38h.063a.408.408,0,0,1,.38.38V7.215A.408.408,0,0,1,15.506,7.595Z" style="fill:#aaa"/><path d="M18.165,7.595h0a.423.423,0,0,1-.443-.38V2.342a.408.408,0,0,1,.38-.38h.063a.408.408,0,0,1,.38.38V7.215C18.608,7.405,18.418,7.595,18.165,7.595Z" style="fill:#aaa"/><path d="M20.886,7.595h0a.423.423,0,0,1-.443-.38V2.342a.408.408,0,0,1,.38-.38h.063a.408.408,0,0,1,.38.38V7.215A.365.365,0,0,1,20.886,7.595Z" style="fill:#aaa"/><path d="M23.608,7.595h0a.423.423,0,0,1-.443-.38V2.342a.408.408,0,0,1,.38-.38h.063a.408.408,0,0,1,.38.38V7.215A.408.408,0,0,1,23.608,7.595Z" style="fill:#aaa"/><path d="M26.329,7.595h0a.423.423,0,0,1-.443-.38V2.342a.408.408,0,0,1,.38-.38h.063a.408.408,0,0,1,.38.38V7.215A.408.408,0,0,1,26.329,7.595Z" style="fill:#aaa"/><path d="M26.709,12.785H3.734a.77.77,0,0,1-.759-.759V11.013a.77.77,0,0,1,.759-.759H26.709a.77.77,0,0,1,.759.759v1.013A.731.731,0,0,1,26.709,12.785Z" style="fill:#aaa"/><path d="M28.316,30.142l.19-.19c3.734-3.544,7.824-.268,7.824-.268l5.826,6.069L38.1,40.19Z" style="fill:#a0ddf7"/><path d="M37.785,40l4.35-4.269,6.03,6.358s3.544,3.544-.127,7.152a6.7,6.7,0,0,1-.759.633Z" style="fill:#e4524e"/><path d="M28.505,29.952l.19.19L38,39.888l-3.608,3.481L28.379,37.1S24.835,33.5,28.505,29.952Z" style="fill:#76bbd6"/><path d="M37.952,39.838l9.453,9.909c-3.544,2.785-7.025-.063-7.025-.063l-6.037-6.366Z" style="fill:#c43e28"/><path d="M48.165,49.114v.253A5.7,5.7,0,0,1,43.1,55l-8.8-.19L34.43,48.8Z" style="fill:#a0ddf7"/><path d="M34.81,48.8l-.123,6.021-8.675-.2s-5.063,0-4.937-5.127a6.77,6.77,0,0,1,.09-.949Z" style="fill:#e4524e"/><path d="M48.165,49.367h-.253L34.43,49.051l.127-5,8.671.19A4.768,4.768,0,0,1,48.165,49.367Z" style="fill:#76bbd6"/><path d="M34.8,49.059l-13.665-.325c.57-4.43,5-4.937,5-4.937l8.734.26Z" style="fill:#c43e28"/></svg>