<svg xmlns="http://www.w3.org/2000/svg" viewBox="0 0 61.318 55"><title>scholarship-search-insider</title><polygon points="23.554 0 23.554 43.482 53.765 43.482 56.39 37.804 61.318 36.244 61.318 0 23.554 0" style="fill:#44ba8f"/><polygon points="61.318 36.244 53.765 36.244 53.765 43.482 61.318 36.244" style="fill:#079d85"/><polygon points="17.305 36.991 17.305 54.773 47.516 54.773 50.142 49.096 55.069 47.535 55.069 7.569 38.746 7.569 17.305 36.991" style="fill:#eee"/><polygon points="55.069 47.535 47.516 47.535 47.516 54.774 55.069 47.535" style="fill:#ccc"/><rect x="35.105" y="16.155" width="11.965" height="3.191" style="fill:#bbb"/><rect x="25.304" y="22.287" width="21.766" height="3.191" style="fill:#bbb"/><rect x="25.304" y="28.419" width="21.766" height="3.191" style="fill:#bbb"/><rect x="25.304" y="40.683" width="21.766" height="3.191" style="fill:#bbb"/><rect x="28.394" y="34.551" width="18.677" height="3.191" style="fill:#bbb"/><path d="M43.075,19.346l-1.417-1.512,1.1-1.678c-.07-.376-.13-.752-.224-1.128a18.687,18.687,0,0,0-3.791-7.458H29.258C32.237,8.8,19.977,32.207,17.305,30.5v6.491a18.687,18.687,0,0,0,11.526.812c.069-.017.133-.044.2-.061l1.876-1.867,4.716-1.324a18.758,18.758,0,0,0,3.088-2.941L38.2,30.042l2.662-1.623a18.867,18.867,0,0,0,1.275-2.941l-.931-1.47,1.686-1.721A18.658,18.658,0,0,0,43.075,19.346Z" style="fill:#ccc"/><path d="M35.105,19.346h2.172a12.987,12.987,0,0,0-.371-2.919c-.023-.093-.057-.18-.082-.272H35.105Z" style="fill:#bbb"/><path d="M36.906,16.427a12.987,12.987,0,0,1,.371,2.919h5.8a18.745,18.745,0,0,0-.314-3.191H36.823C36.848,16.247,36.883,16.334,36.906,16.427Z" style="fill:#aaa"/><path d="M25.3,25.478H35.856A13.005,13.005,0,0,0,37,22.287H25.3Z" style="fill:#bbb"/><path d="M35.856,25.478h6.281a18.742,18.742,0,0,0,.755-3.191H37A13.005,13.005,0,0,1,35.856,25.478Z" style="fill:#aaa"/><path d="M33.781,28.419H25.3V31.61h3.824A12.89,12.89,0,0,0,33.781,28.419Z" style="fill:#bbb"/><path d="M29.128,31.61h9.586a18.909,18.909,0,0,0,2.033-2.955c.042-.077.075-.158.117-.236H33.781A12.89,12.89,0,0,1,29.128,31.61Z" style="fill:#aaa"/><path d="M25.3,37.742h3.728a18.707,18.707,0,0,0,6.592-3.191H25.3Z" style="fill:#aaa"/><circle cx="23.207" cy="18.865" r="13.846" transform="matrix(0.858, -0.513, 0.513, 0.858, -6.392, 14.583)" style="fill:#fff"/><rect x="12.178" y="33.452" width="3.343" height="2.901" transform="translate(50.896 41.031) rotate(121.038)" style="fill:#555"/><path d="M38.968,27.248c-2.377,3.643-21.222,8.314-27.178-.629C9.189,22.713,6.3,12.662,8.4,8.856A17.847,17.847,0,1,0,38.968,27.248Z" style="fill:#e2a926"/><path d="M38.968,27.248A17.847,17.847,0,0,0,8.4,8.856,17.847,17.847,0,0,0,38.968,27.248ZM11.375,21.591a12.338,12.338,0,1,1,14.95,9A12.306,12.306,0,0,1,11.375,21.591Z" style="fill:#ffc81a"/><path d="M14.749,40.1l.74-1.23a1.7,1.7,0,0,0-.577-2.321l-3.138-1.888a1.7,1.7,0,0,0-2.321.577l-.74,1.23C9.193,35.674,15.229,39.306,14.749,40.1Z" style="fill:#454545"/><rect x="-2.412" y="41.804" width="19.814" height="7.044" rx="1.691" ry="1.691" transform="translate(-35.206 28.378) rotate(-58.962)" style="fill:#555"/><path d="M27.45,19.113a5.861,5.861,0,0,0-1.425-.888c-.463-.222-1.018-.444-1.684-.685V13.877a1.858,1.858,0,0,1,.611.407,2.356,2.356,0,0,1,.537,1.684h3.145a4.114,4.114,0,0,0-1.092-2.96,4.789,4.789,0,0,0-3.016-1.369V9.584H22.788v2a5.292,5.292,0,0,0-3.127,1.184,3.277,3.277,0,0,0-1.184,2.59,3.236,3.236,0,0,0,.352,1.573,3.363,3.363,0,0,0,.962,1.147,6.644,6.644,0,0,0,1.48.87c.444.2.962.389,1.536.592v3.774a2.142,2.142,0,0,1-1.147-.537,2.253,2.253,0,0,1-.611-1.7H17.9a4.041,4.041,0,0,0,1.221,3.071,5.566,5.566,0,0,0,3.46,1.351v1.85h1.739V25.5a5.434,5.434,0,0,0,3.182-1.166,3.208,3.208,0,0,0,1.147-2.572,3.356,3.356,0,0,0-.315-1.48A3.214,3.214,0,0,0,27.45,19.113Zm-5.329-2.627a1.466,1.466,0,0,1-.481-1.147,1.51,1.51,0,0,1,.5-1.2,1.646,1.646,0,0,1,.666-.352v3.108A1.806,1.806,0,0,1,22.122,16.486Zm2.812,6.439a1.974,1.974,0,0,1-.592.3V20.112a2.616,2.616,0,0,1,.648.426,1.55,1.55,0,0,1,.5,1.221A1.421,1.421,0,0,1,24.934,22.924Z" style="fill:#bbb"/></svg>