<svg xmlns="http://www.w3.org/2000/svg" viewBox="0 0 64.039 55"><title>strictly-business</title><path d="M62.038,49.3v1.877A3.826,3.826,0,0,1,58.213,55H5.827A3.826,3.826,0,0,1,2,51.174V49.3C2,47.184,62.038,47.184,62.038,49.3Z" style="fill:#694a3a"/><rect x="2.001" y="26.687" width="60.037" height="26.4" rx="3.826" ry="3.826" style="fill:#79564b"/><path d="M64.039,25.749v2.625a5.1,5.1,0,0,1-5.1,5.1H5.1a5.1,5.1,0,0,1-5.1-5.1V24.749C0,23.34,64.039,24.34,64.039,25.749Z" style="fill:#694a3a"/><path d="M41.952,0H22.087a1.593,1.593,0,0,0-1.593,1.593V7.587h3.337l.062-4.968H40.208V7.587h3.337V1.593A1.593,1.593,0,0,0,41.952,0Z" style="fill:#888"/><path d="M2.55,6.379H61.489a2.55,2.55,0,0,1,2.55,2.55V25.749a5.1,5.1,0,0,1-5.1,5.1H5.1a5.1,5.1,0,0,1-5.1-5.1V8.93A2.55,2.55,0,0,1,2.55,6.379Z" style="fill:#79564b"/><path d="M28.315,31.476v4.9l3.224,1.313a1.275,1.275,0,0,0,.962,0l3.224-1.313v-4.9Z" style="fill:#fff"/><path d="M29.59,24.437h4.86a1.275,1.275,0,0,1,1.275,1.275v5.9h-7.41v-5.9A1.275,1.275,0,0,1,29.59,24.437Z" style="fill:#c4b192"/></svg>