<svg xmlns="http://www.w3.org/2000/svg" viewBox="0 0 79.278 55"><title>student-loan-ranger</title><polygon points="25.298 54.998 0 29.406 0.205 22.383 4.692 24.533 0.193 21.126 0.153 13.884 31.959 32.4 35.131 43.132 25.298 54.998" style="fill:#86cdaf"/><path d="M79.246,18.933l-.03-7.278s-25.2,2.34-31.7,5.662c-6.919,3.536-21.979,21.767-21.979,21.767L25.3,55S48.251,41.54,56.085,37.479c5.706-2.958,23.193-10.888,23.193-10.888l-.027-6.38a41.223,41.223,0,0,0-5.992,1.454A24.053,24.053,0,0,1,79.246,18.933Z" style="fill:#44ba8f"/><polygon points="38.116 40.285 25.417 47.318 17.41 40.073 25.433 46.139 38.116 40.285" style="fill:#009c84"/><path d="M51.4,25.311,25.543,39.3s-8.109-8.908-10.863-11.686C11.12,24.022.153,13.884.153,13.884s11.268,9.706,14.811,13.2C17.736,29.809,25.55,38.37,25.55,38.37Z" style="fill:#009c84"/><path d="M79.216,11.655S57.864,21.669,51.4,25.311c-6.56,3.7-25.877,13.214-25.877,13.214s-9.2-9.961-12.4-13.051C9.975,22.443.153,13.884.153,13.884L55.09,0Z" style="fill:#b6dfd0"/><polygon points="75.002 12.124 27.034 34.71 4.367 13.997 53.448 2.326 75.002 12.124" style="fill:#44ba8f"/><polygon points="67.651 13.214 32.665 29.034 24.688 28.787 11.365 17.369 11.859 14.139 49.048 4.784 55.049 5.397 67.949 10.486 67.651 13.214" style="fill:#b6dfd0"/><path d="M31.792,25.226l-.778-.6c1.211-.561,1.438-1.4.639-2.3-1.235-1.387-3.406-1.579-6.013-1.822l-3.6-2.762.029,0a11.1,11.1,0,0,1,2.992.109l-.382-.888a13.023,13.023,0,0,0-3.433-.077c-.1.01-.179.03-.274.042l-1.037-.795-1.77.469,1.1.791c-.99.5-1.109,1.271-.234,2.113,1.121,1.076,3.143,1.615,5.77,1.864l3.91,2.809a5.977,5.977,0,0,1-.922.17,13.423,13.423,0,0,1-3.712-.192l.426.91a15.493,15.493,0,0,0,4.059.155,10.757,10.757,0,0,0,1.3-.215l.466.335Zm-2.1-2.614c.4.387.389.758.073,1.062l-2.639-2.023A4.95,4.95,0,0,1,29.7,22.613ZM20.71,19.2c-.3-.288-.418-.625-.191-.908l2.671,1.919A4.523,4.523,0,0,1,20.71,19.2Z" style="fill:#44ba8f"/><polygon points="45.312 28.736 20.012 8.864 36.617 4.666 62.244 19.874 61.971 22.482 45.535 30.27 45.312 28.736" style="fill:#117d68"/><path d="M59.577,12l-.569-.345c.791-.48.893-1.072.291-1.62-.931-.849-2.425-.806-4.22-.763l-2.633-1.6.02-.005A7.626,7.626,0,0,1,54.515,7.5L54.2,6.925a8.957,8.957,0,0,0-2.348.222c-.068.015-.12.034-.184.051l-.758-.46L49.729,7.2l.8.452c-.644.42-.677.956-.026,1.461.833.645,2.248.852,4.057.812l2.847,1.605a4.171,4.171,0,0,1-.618.19,9.216,9.216,0,0,1-2.546.165l.348.587a10.646,10.646,0,0,0,2.781-.218A7.5,7.5,0,0,0,58.248,12l.34.192Zm-1.6-1.617a.453.453,0,0,1,.117.719L56.169,9.929A3.328,3.328,0,0,1,57.981,10.38Zm-6.35-1.611c-.223-.173-.325-.393-.188-.6l1.945,1.1A3.036,3.036,0,0,1,51.631,8.769Z" style="fill:#44ba8f"/><polygon points="60.247 35.604 45.731 43.194 44.607 27.567 61.539 18.706 60.247 35.604" style="fill:#117d68"/><polygon points="45.291 27.918 19.991 8.046 36.597 3.848 62.223 19.057 61.951 21.664 45.515 29.452 45.291 27.918" style="fill:#44ba8f"/><polygon points="60.932 35.954 46.416 43.544 45.291 27.918 62.223 19.057 60.932 35.954" style="fill:#079d85"/><path d="M48.048,19.411a12.686,12.686,0,1,0,16.9,6.095A12.72,12.72,0,0,0,48.048,19.411ZM60.8,23.786,54.534,26.5l-5-5.046A10.27,10.27,0,0,1,60.8,23.786ZM48.88,21.753l.672,7.081-6.315,3.183A10.269,10.269,0,0,1,48.88,21.753ZM44.14,35.247a10.161,10.161,0,0,1-.8-2.491l6.887,1.537,1.015,6.6A10.191,10.191,0,0,1,44.14,35.247Zm8.112,5.808,3.38-5.721,6.424,1.047a10.267,10.267,0,0,1-9.8,4.674ZM62.6,35.408,58.291,30.52l3.118-6.052a10.18,10.18,0,0,1,1.2,10.94Z" style="fill:#ffc81a"/></svg>