<svg xmlns="http://www.w3.org/2000/svg" viewBox="0 0 72.193 55"><title>tech-blog</title><path d="M0,48.526A6.474,6.474,0,0,0,6.474,55H65.719a6.474,6.474,0,0,0,6.474-6.474v-4.56L30.5,37.792,0,43.966Z" style="fill:#454545"/><path d="M0,43.967a6.474,6.474,0,0,0,6.474,6.474H65.719a6.474,6.474,0,0,0,6.474-6.474V14.745L29.552,8.232,0,14.745Z" style="fill:#555"/><path d="M65.719,0H6.474A6.474,6.474,0,0,0,0,6.474v8.271H72.193V6.474A6.474,6.474,0,0,0,65.719,0Z" style="fill:#ddd"/><circle cx="8.093" cy="8.174" r="2.184" style="fill:#44ba8f"/><circle cx="14.313" cy="8.174" r="2.184" style="fill:#f99b21"/><circle cx="20.665" cy="8.174" r="2.184" style="fill:#e4524e"/><path d="M12.4,25.816a7.925,7.925,0,0,1-.205,1.87,4.332,4.332,0,0,1-.622,1.449,2.924,2.924,0,0,1-1.036.937,3.029,3.029,0,0,1-1.453.332,3.089,3.089,0,0,1-1.306-.27,2.6,2.6,0,0,1-1-.831,4.1,4.1,0,0,1-.643-1.429,8.253,8.253,0,0,1-.226-2.058,7.834,7.834,0,0,1,.208-1.873A4.424,4.424,0,0,1,6.74,22.49a2.892,2.892,0,0,1,1.036-.937,3.034,3.034,0,0,1,1.449-.332,3.089,3.089,0,0,1,1.306.27,2.583,2.583,0,0,1,1,.834,4.144,4.144,0,0,1,.643,1.432A8.253,8.253,0,0,1,12.4,25.816Zm-5.291-.041c0,.141,0,.283,0,.424s.01.278.024.41l3.78-2.8a3.189,3.189,0,0,0-.26-.636,2.019,2.019,0,0,0-.376-.5,1.675,1.675,0,0,0-1.972-.215,1.878,1.878,0,0,0-.646.673,3.694,3.694,0,0,0-.41,1.107A7.243,7.243,0,0,0,7.113,25.775Zm4.088.082q0-.232-.017-.461c-.011-.153-.024-.3-.038-.448l-3.78,2.81a3.514,3.514,0,0,0,.26.656A2.01,2.01,0,0,0,8,28.929a1.629,1.629,0,0,0,.506.335,1.651,1.651,0,0,0,.646.12A1.62,1.62,0,0,0,10,29.158a1.883,1.883,0,0,0,.646-.67,3.651,3.651,0,0,0,.41-1.1A7.243,7.243,0,0,0,11.2,25.857Z" style="fill:#fff"/><path d="M19.821,30.279H14.208V29.172h2.3V22.651l-2.14,1.162L13.928,22.8l2.844-1.5h1.053v7.868h2Z" style="fill:#fff"/><path d="M27.518,30.279H21.906V29.172h2.3V22.651l-2.14,1.162L21.625,22.8l2.844-1.5h1.053v7.868h2Z" style="fill:#fff"/><path d="M35.5,25.816a7.925,7.925,0,0,1-.205,1.87,4.332,4.332,0,0,1-.622,1.449,2.924,2.924,0,0,1-1.036.937,3.029,3.029,0,0,1-1.453.332,3.089,3.089,0,0,1-1.306-.27,2.6,2.6,0,0,1-1-.831,4.1,4.1,0,0,1-.643-1.429A8.253,8.253,0,0,1,29,25.816a7.834,7.834,0,0,1,.208-1.873,4.424,4.424,0,0,1,.622-1.453,2.892,2.892,0,0,1,1.036-.937,3.034,3.034,0,0,1,1.449-.332,3.089,3.089,0,0,1,1.306.27,2.583,2.583,0,0,1,1,.834,4.144,4.144,0,0,1,.643,1.432A8.253,8.253,0,0,1,35.5,25.816ZM30.2,25.775c0,.141,0,.283,0,.424s.01.278.024.41l3.78-2.8a3.189,3.189,0,0,0-.26-.636,2.019,2.019,0,0,0-.376-.5,1.675,1.675,0,0,0-1.972-.215,1.878,1.878,0,0,0-.646.673,3.694,3.694,0,0,0-.41,1.107A7.243,7.243,0,0,0,30.2,25.775Zm4.088.082q0-.232-.017-.461c-.011-.153-.024-.3-.038-.448l-3.78,2.81a3.514,3.514,0,0,0,.26.656,2.01,2.01,0,0,0,.379.516,1.629,1.629,0,0,0,.506.335,1.651,1.651,0,0,0,.646.12,1.62,1.62,0,0,0,.844-.226,1.883,1.883,0,0,0,.646-.67,3.651,3.651,0,0,0,.41-1.1A7.243,7.243,0,0,0,34.292,25.857Z" style="fill:#fff"/><path d="M42.913,30.279H37.3V29.172h2.3V22.651l-2.14,1.162L37.02,22.8l2.844-1.5h1.053v7.868h2Z" style="fill:#fff"/><path d="M50.89,25.816a7.925,7.925,0,0,1-.205,1.87,4.332,4.332,0,0,1-.622,1.449,2.924,2.924,0,0,1-1.036.937,3.029,3.029,0,0,1-1.453.332,3.089,3.089,0,0,1-1.306-.27,2.6,2.6,0,0,1-1-.831,4.1,4.1,0,0,1-.643-1.429,8.253,8.253,0,0,1-.226-2.058,7.834,7.834,0,0,1,.208-1.873,4.424,4.424,0,0,1,.622-1.453,2.892,2.892,0,0,1,1.036-.937,3.034,3.034,0,0,1,1.449-.332,3.089,3.089,0,0,1,1.306.27,2.583,2.583,0,0,1,1,.834,4.144,4.144,0,0,1,.643,1.432A8.253,8.253,0,0,1,50.89,25.816ZM45.6,25.775c0,.141,0,.283,0,.424s.01.278.024.41l3.78-2.8a3.189,3.189,0,0,0-.26-.636,2.019,2.019,0,0,0-.376-.5,1.675,1.675,0,0,0-1.972-.215,1.878,1.878,0,0,0-.646.673,3.694,3.694,0,0,0-.41,1.107A7.243,7.243,0,0,0,45.6,25.775Zm4.088.082q0-.232-.017-.461c-.011-.153-.024-.3-.038-.448l-3.78,2.81a3.514,3.514,0,0,0,.26.656,2.01,2.01,0,0,0,.379.516,1.629,1.629,0,0,0,.506.335,1.651,1.651,0,0,0,.646.12,1.62,1.62,0,0,0,.844-.226,1.883,1.883,0,0,0,.646-.67,3.651,3.651,0,0,0,.41-1.1A7.243,7.243,0,0,0,49.687,25.857Z" style="fill:#fff"/><path d="M58.587,25.816a7.925,7.925,0,0,1-.205,1.87,4.332,4.332,0,0,1-.622,1.449,2.924,2.924,0,0,1-1.036.937,3.029,3.029,0,0,1-1.453.332,3.089,3.089,0,0,1-1.306-.27,2.6,2.6,0,0,1-1-.831,4.1,4.1,0,0,1-.643-1.429,8.253,8.253,0,0,1-.226-2.058,7.834,7.834,0,0,1,.208-1.873,4.424,4.424,0,0,1,.622-1.453,2.892,2.892,0,0,1,1.036-.937,3.034,3.034,0,0,1,1.449-.332,3.089,3.089,0,0,1,1.306.27,2.583,2.583,0,0,1,1,.834,4.144,4.144,0,0,1,.643,1.432A8.253,8.253,0,0,1,58.587,25.816ZM53.3,25.775c0,.141,0,.283,0,.424s.01.278.024.41l3.78-2.8a3.189,3.189,0,0,0-.26-.636,2.019,2.019,0,0,0-.376-.5,1.675,1.675,0,0,0-1.972-.215,1.878,1.878,0,0,0-.646.673,3.694,3.694,0,0,0-.41,1.107A7.243,7.243,0,0,0,53.3,25.775Zm4.088.082q0-.232-.017-.461c-.011-.153-.024-.3-.038-.448l-3.78,2.81a3.514,3.514,0,0,0,.26.656,2.01,2.01,0,0,0,.379.516,1.629,1.629,0,0,0,.506.335,1.651,1.651,0,0,0,.646.12,1.62,1.62,0,0,0,.844-.226,1.883,1.883,0,0,0,.646-.67,3.651,3.651,0,0,0,.41-1.1A7.243,7.243,0,0,0,57.384,25.857Z" style="fill:#fff"/><path d="M66.285,25.816a7.925,7.925,0,0,1-.205,1.87,4.332,4.332,0,0,1-.622,1.449,2.924,2.924,0,0,1-1.036.937,3.029,3.029,0,0,1-1.453.332,3.089,3.089,0,0,1-1.306-.27,2.6,2.6,0,0,1-1-.831,4.1,4.1,0,0,1-.643-1.429,8.253,8.253,0,0,1-.226-2.058A7.834,7.834,0,0,1,60,23.943a4.424,4.424,0,0,1,.622-1.453,2.892,2.892,0,0,1,1.036-.937,3.034,3.034,0,0,1,1.449-.332,3.089,3.089,0,0,1,1.306.27,2.583,2.583,0,0,1,1,.834,4.144,4.144,0,0,1,.643,1.432A8.253,8.253,0,0,1,66.285,25.816Zm-5.291-.041c0,.141,0,.283,0,.424s.01.278.024.41l3.78-2.8a3.189,3.189,0,0,0-.26-.636,2.019,2.019,0,0,0-.376-.5,1.675,1.675,0,0,0-1.972-.215,1.878,1.878,0,0,0-.646.673,3.694,3.694,0,0,0-.41,1.107A7.243,7.243,0,0,0,60.994,25.775Zm4.088.082q0-.232-.017-.461c-.011-.153-.024-.3-.038-.448l-3.78,2.81a3.514,3.514,0,0,0,.26.656,2.01,2.01,0,0,0,.379.516,1.629,1.629,0,0,0,.506.335,1.651,1.651,0,0,0,.646.12,1.62,1.62,0,0,0,.844-.226,1.883,1.883,0,0,0,.646-.67,3.651,3.651,0,0,0,.41-1.1A7.243,7.243,0,0,0,65.081,25.857Z" style="fill:#fff"/><path d="M12.4,39.816a7.925,7.925,0,0,1-.205,1.87,4.332,4.332,0,0,1-.622,1.449,2.924,2.924,0,0,1-1.036.937,3.029,3.029,0,0,1-1.453.332,3.089,3.089,0,0,1-1.306-.27,2.6,2.6,0,0,1-1-.831,4.1,4.1,0,0,1-.643-1.429,8.253,8.253,0,0,1-.226-2.058,7.834,7.834,0,0,1,.208-1.873A4.424,4.424,0,0,1,6.74,36.49a2.892,2.892,0,0,1,1.036-.937,3.034,3.034,0,0,1,1.449-.332,3.089,3.089,0,0,1,1.306.27,2.583,2.583,0,0,1,1,.834,4.144,4.144,0,0,1,.643,1.432A8.253,8.253,0,0,1,12.4,39.816Zm-5.291-.041c0,.141,0,.283,0,.424s.01.278.024.41l3.78-2.8a3.189,3.189,0,0,0-.26-.636,2.019,2.019,0,0,0-.376-.5,1.675,1.675,0,0,0-1.972-.215,1.878,1.878,0,0,0-.646.673,3.694,3.694,0,0,0-.41,1.107A7.243,7.243,0,0,0,7.113,39.775Zm4.088.082q0-.232-.017-.461c-.011-.153-.024-.3-.038-.448l-3.78,2.81a3.514,3.514,0,0,0,.26.656A2.01,2.01,0,0,0,8,42.929a1.629,1.629,0,0,0,.506.335,1.651,1.651,0,0,0,.646.12A1.62,1.62,0,0,0,10,43.158a1.883,1.883,0,0,0,.646-.67,3.651,3.651,0,0,0,.41-1.1A7.243,7.243,0,0,0,11.2,39.857Z" style="fill:#fff"/><path d="M19.821,44.279H14.208V43.172h2.3V36.651l-2.14,1.162L13.928,36.8l2.844-1.5h1.053v7.868h2Z" style="fill:#fff"/><path d="M27.518,44.279H21.906V43.172h2.3V36.651l-2.14,1.162L21.625,36.8l2.844-1.5h1.053v7.868h2Z" style="fill:#fff"/><path d="M35.5,39.816a7.925,7.925,0,0,1-.205,1.87,4.332,4.332,0,0,1-.622,1.449,2.924,2.924,0,0,1-1.036.937,3.029,3.029,0,0,1-1.453.332,3.089,3.089,0,0,1-1.306-.27,2.6,2.6,0,0,1-1-.831,4.1,4.1,0,0,1-.643-1.429A8.253,8.253,0,0,1,29,39.816a7.834,7.834,0,0,1,.208-1.873,4.424,4.424,0,0,1,.622-1.453,2.892,2.892,0,0,1,1.036-.937,3.034,3.034,0,0,1,1.449-.332,3.089,3.089,0,0,1,1.306.27,2.583,2.583,0,0,1,1,.834,4.144,4.144,0,0,1,.643,1.432A8.253,8.253,0,0,1,35.5,39.816ZM30.2,39.775c0,.141,0,.283,0,.424s.01.278.024.41l3.78-2.8a3.189,3.189,0,0,0-.26-.636,2.019,2.019,0,0,0-.376-.5,1.675,1.675,0,0,0-1.972-.215,1.878,1.878,0,0,0-.646.673,3.694,3.694,0,0,0-.41,1.107A7.243,7.243,0,0,0,30.2,39.775Zm4.088.082q0-.232-.017-.461c-.011-.153-.024-.3-.038-.448l-3.78,2.81a3.514,3.514,0,0,0,.26.656,2.01,2.01,0,0,0,.379.516,1.629,1.629,0,0,0,.506.335,1.651,1.651,0,0,0,.646.12,1.62,1.62,0,0,0,.844-.226,1.883,1.883,0,0,0,.646-.67,3.651,3.651,0,0,0,.41-1.1A7.243,7.243,0,0,0,34.292,39.857Z" style="fill:#fff"/><path d="M42.913,44.279H37.3V43.172h2.3V36.651l-2.14,1.162L37.02,36.8l2.844-1.5h1.053v7.868h2Z" style="fill:#fff"/><path d="M50.89,39.816a7.925,7.925,0,0,1-.205,1.87,4.332,4.332,0,0,1-.622,1.449,2.924,2.924,0,0,1-1.036.937,3.029,3.029,0,0,1-1.453.332,3.089,3.089,0,0,1-1.306-.27,2.6,2.6,0,0,1-1-.831,4.1,4.1,0,0,1-.643-1.429,8.253,8.253,0,0,1-.226-2.058,7.834,7.834,0,0,1,.208-1.873,4.424,4.424,0,0,1,.622-1.453,2.892,2.892,0,0,1,1.036-.937,3.034,3.034,0,0,1,1.449-.332,3.089,3.089,0,0,1,1.306.27,2.583,2.583,0,0,1,1,.834,4.144,4.144,0,0,1,.643,1.432A8.253,8.253,0,0,1,50.89,39.816ZM45.6,39.775c0,.141,0,.283,0,.424s.01.278.024.41l3.78-2.8a3.189,3.189,0,0,0-.26-.636,2.019,2.019,0,0,0-.376-.5,1.675,1.675,0,0,0-1.972-.215,1.878,1.878,0,0,0-.646.673,3.694,3.694,0,0,0-.41,1.107A7.243,7.243,0,0,0,45.6,39.775Zm4.088.082q0-.232-.017-.461c-.011-.153-.024-.3-.038-.448l-3.78,2.81a3.514,3.514,0,0,0,.26.656,2.01,2.01,0,0,0,.379.516,1.629,1.629,0,0,0,.506.335,1.651,1.651,0,0,0,.646.12,1.62,1.62,0,0,0,.844-.226,1.883,1.883,0,0,0,.646-.67,3.651,3.651,0,0,0,.41-1.1A7.243,7.243,0,0,0,49.687,39.857Z" style="fill:#fff"/><path d="M58.587,39.816a7.925,7.925,0,0,1-.205,1.87,4.332,4.332,0,0,1-.622,1.449,2.924,2.924,0,0,1-1.036.937,3.029,3.029,0,0,1-1.453.332,3.089,3.089,0,0,1-1.306-.27,2.6,2.6,0,0,1-1-.831,4.1,4.1,0,0,1-.643-1.429,8.253,8.253,0,0,1-.226-2.058,7.834,7.834,0,0,1,.208-1.873,4.424,4.424,0,0,1,.622-1.453,2.892,2.892,0,0,1,1.036-.937,3.034,3.034,0,0,1,1.449-.332,3.089,3.089,0,0,1,1.306.27,2.583,2.583,0,0,1,1,.834,4.144,4.144,0,0,1,.643,1.432A8.253,8.253,0,0,1,58.587,39.816ZM53.3,39.775c0,.141,0,.283,0,.424s.01.278.024.41l3.78-2.8a3.189,3.189,0,0,0-.26-.636,2.019,2.019,0,0,0-.376-.5,1.675,1.675,0,0,0-1.972-.215,1.878,1.878,0,0,0-.646.673,3.694,3.694,0,0,0-.41,1.107A7.243,7.243,0,0,0,53.3,39.775Zm4.088.082q0-.232-.017-.461c-.011-.153-.024-.3-.038-.448l-3.78,2.81a3.514,3.514,0,0,0,.26.656,2.01,2.01,0,0,0,.379.516,1.629,1.629,0,0,0,.506.335,1.651,1.651,0,0,0,.646.12,1.62,1.62,0,0,0,.844-.226,1.883,1.883,0,0,0,.646-.67,3.651,3.651,0,0,0,.41-1.1A7.243,7.243,0,0,0,57.384,39.857Z" style="fill:#fff"/><path d="M66,44.279H60.392V43.172h2.3V36.651l-2.14,1.162L60.112,36.8l2.844-1.5h1.053v7.868h2Z" style="fill:#fff"/></svg>