<svg xmlns="http://www.w3.org/2000/svg" viewBox="0 0 51.238 55"><title>the-chase</title><path d="M51.238,20.866l-1.152-4.3-3.56.954a24.816,24.816,0,0,0-6.14-7.07l2.186-3.84L36.395,3.043l-2.186,3.84A24.815,24.815,0,0,0,25.165,5.1l-1-3.736-4.3,1.152.792,2.956A24.951,24.951,0,1,0,48.43,21.619Z" style="fill:#888"/><path d="M41.76,1.35C39.208-.123,36.632-.44,36.007.643l-.049.085L33.944,4.217l9.242,5.336L45.2,6.064l.049-.085C45.874,4.9,44.312,2.824,41.76,1.35Z" style="fill:#aaa"/><path d="M36.061,10.783a22.142,22.142,0,1,0,8.1,30.247A22.142,22.142,0,0,0,36.061,10.783Z" style="fill:#aaa"/><path d="M42.545,19.819a20.155,20.155,0,0,0-7.425-7.408l-22.132,6.2,1.876,28.9a20.263,20.263,0,0,0,27.681-27.69Z" style="fill:#3063af"/><polygon points="26.236 43.031 29.215 34.96 37.55 32.839 30.798 27.51 31.357 18.93 21.637 28.343 21.645 35.758 26.236 43.031" style="fill:#76bbd6"/><path d="M31.358,18.924l3.762-6.514a20.262,20.262,0,1,0-20.256,35.1Z" style="fill:#c43e28"/><polygon points="24.205 23.702 16.215 20.517 18.547 28.798 13.05 35.415 21.644 35.756 21.645 35.758 31.357 18.93 31.358 18.924 24.205 23.702" style="fill:#eeada1"/><path d="M34.36,13.726l-1.88-.045L33.5,15.21c.285.146.575.276.855.438A18.718,18.718,0,0,1,43.691,30.9,18.731,18.731,0,0,0,34.36,13.726Z" style="fill:#5382c2"/><path d="M34.358,13.725A18.724,18.724,0,0,0,6.289,30.936,18.7,18.7,0,0,1,33.5,15.21l.857-1.484Z" style="fill:#e4524e"/><path d="M33.549,14.783,24.956,26.994a2.992,2.992,0,1,0,2.633,1.582L33.89,15A.205.205,0,0,0,33.549,14.783Z" style="fill:#fff"/></svg>