<svg xmlns="http://www.w3.org/2000/svg" viewBox="0 0 42.036 55"><title>the-short-list</title><path d="M40.4,7.2H1.639A1.644,1.644,0,0,0,0,8.843V53.361A1.644,1.644,0,0,0,1.639,55H40.4a1.644,1.644,0,0,0,1.639-1.639V8.843A1.644,1.644,0,0,0,40.4,7.2Z" style="fill:#79564b"/><rect x="3.018" y="9.602" width="36" height="43" style="fill:#fff"/><rect x="8.592" y="9.651" width="24.554" height="1.968" style="fill:#999"/><rect x="8.592" y="6.522" width="24.554" height="3.812" style="fill:#aaa"/><path d="M30.931,4.036H27.087a2.339,2.339,0,0,1-1.973-1.42A4.354,4.354,0,0,0,20.962,0a4.364,4.364,0,0,0-4.153,2.616,2.371,2.371,0,0,1-1.991,1.42h-4.01c-1.218,0-2.215,1.72-2.215,2.621V7.2H33.146V6.657C33.146,5.756,32.149,4.036,30.931,4.036ZM20.9,5.578c-1.427,0-1.744-.317-1.744-1.373s.545-1.645,1.972-1.645,1.464.5,1.464,1.553S22.328,5.578,20.9,5.578Z" style="fill:#bbb"/><path d="M20.938,2.052a2.042,2.042,0,1,0,2.042,2.042A2.042,2.042,0,0,0,20.938,2.052Zm0,3.354A1.313,1.313,0,1,1,22.25,4.093,1.313,1.313,0,0,1,20.938,5.406Z" style="fill:#999"/><path d="M6.093,16.135V24h7.863V16.135Zm6.225,6.225H7.731V17.773h4.587Z" style="fill:#ccc"/><polygon points="13.622 15.453 9.965 19.11 8.204 17.35 6.984 18.569 9.965 21.549 14.842 16.672 13.622 15.453" style="fill:#e4524e"/><rect x="15.859" y="16.95" width="18.661" height="2.455" style="fill:#ccc"/><rect x="15.859" y="20.811" width="18.661" height="2.455" style="fill:#ccc"/><path d="M6.093,27.559v7.863h7.863V27.559Zm6.225,6.225H7.731V29.2h4.587Z" style="fill:#ccc"/><rect x="15.859" y="28.375" width="18.661" height="2.455" style="fill:#ccc"/><rect x="15.859" y="32.236" width="18.661" height="2.455" style="fill:#ccc"/><path d="M6.093,39.324v7.863h7.863V39.324Zm6.225,6.225H7.731V40.963h4.587Z" style="fill:#ccc"/><rect x="15.859" y="40.14" width="18.661" height="2.455" style="fill:#ccc"/><rect x="15.859" y="44.001" width="18.661" height="2.455" style="fill:#ccc"/></svg>