<svg xmlns="http://www.w3.org/2000/svg" viewBox="0 0 107.669 55"><title>the-run</title><path d="M106.057,49.821l-.587.124-4.687-.093-.469-.78h0L98.97,47.946l-1.58.632-.327,1.243-4.406-.094L92.234,47.7l-1.39-1.228L89.28,47.2l-.342,2.616-4.437.031-.376-3.52-1.4-1.573-1.578,1.069-.3,3.994-4.5-.031-.359-4.835L72.407,40.7l-3.154,3.119-.387,4.631L64.449,48.4l-.229-7.6L45.09,39.725l-.949-.044-.016,8.7-4.391.141L39.641,39.6s-.687-.578-.439-.874h0L34.47,36.29l2.525,12.567,4.288,1.465,6.281,1.625,4.571-.524,1.59.269,1.888.32.521.088,4.473.193,11.66,1.073.791-.027,33.627-1.162V50.151Z" style="fill:#c43e28"/><path d="M97.949,37.467,89.28,36.7l-.331.475-4.542-.125-.283-1.223L82.7,34.675l-2,.571-.094.584.282,1.177-4.726-.04.458-1.208-.1-1.219-2.7-1.569-5.029.26L68.733,34.5l.446,1.284-4.9-.083.5-1.281-.164-1.89-3.836-2.787L47.615,28.467l-3.971.461.331,5.551.414,1.3-4.665-.028.083-1.159.359-.386.028-5.078,2.688-.279-4.474-2.962-1.065,5.234L35.8,40.632l-.33,12.76,25.979,1.045,11.607-1.1-.791.027-11.66-1.073-4.994-.282-3.479-.589-.371-.773-.207.676-2.389-.4-1.271-1.2-2.072.631-8.519-1.442-.086-.03-.225-.025-.532-2.889.614-5.813.294-1.736,1.832.31c-.248.3,2.863-.212,2.863-.212l3.025,1.209,1.218.206,1.373,1.215,1.092-.8,2.2.373c-.052.105.762.281.762.281l3.876.5.521.088.268.359.31-.261,2.447.414L60.58,43.3l1.342-.726,2.175.368.352-3.225,4.438.229.366,3.869,2.179.369,1.533,1.564,1.3-1.085,1.724.292.689-3.991h3.888l.579,4.864h0l2.983.5.444-5.3,4.291.047L89.28,47.2l2.954.5.3-6.5,4.433-.071.423,7.449,2.923.495.258-7.707,4.362-.047.536,8.627,1.216.206v-10.5ZM45.283,39.725h0Z" style="fill:#eee"/><path d="M81.4,22.1V19.52H77.712v0H77.69V22.1H74.654a3.8,3.8,0,0,1-1.9.52l.456.932L91.6,28.065l15.1-1.056.114-3.826.718-1.083Z" style="fill:#eee"/><polygon points="76.52 30.166 76.52 34.54 76.759 34.58 76.711 30.439 80.495 30.365 80.411 35.199 80.587 35.228 80.695 35.247 80.695 30.166 76.52 30.166" style="fill:none"/><path d="M105.694,28.974l-9.573-.7L94.09,27.009,73.467,23.518l-1.034,1.246-1.2-1.625L64.1,20.887l-23.926.966-3.189,2.719L39.1,28.205h0l3.781.64h0l1.111.072.391.183,2.123.359,1.37-.763.8,1.13,10.584,1.792,1.72-2.481.744,2.9,2.894.49.289-3.35,3.6-.125.281,4.181,2.541.43,1.594-.559.936.987,2.658.45.366-4.094,3.479-.021.329,4.821,3.43.581v-.015l.784.1-.022-5.387h3.625l.145,5.1.624,1.07,13.272,2.247.279-.032.334.136,3.521.6h0v-10.5Zm-8.549,7.967-4.4.345-.521-.088.6-1.42.137-5.3,3.6-.032.222,5.391Zm8.214-.074-4.916.275.5-1.427.085-5.3,3.721-.032-.011,5.423Z" style="fill:#c43e28"/><polygon points="105.223 35.567 104.978 35.567 104.978 30.166 100.805 30.166 100.805 35.567 100.559 35.567 100.559 35.813 100.314 35.813 100.314 37.286 105.47 37.286 105.47 35.813 105.223 35.813 105.223 35.567" style="fill:none"/><polygon points="97.129 35.567 96.884 35.567 96.884 30.166 92.71 30.166 92.71 35.567 92.465 35.567 92.465 35.813 92.219 35.813 92.219 37.198 92.741 37.286 97.375 37.286 97.375 35.813 97.129 35.813 97.129 35.567" style="fill:none"/><polygon points="84.417 35.877 84.124 35.827 84.124 35.827 84.417 35.877" style="fill:#c43e28"/><polygon points="80.695 35.247 80.695 35.247 80.587 35.228 80.695 35.247" style="fill:#c43e28"/><rect x="20.033" y="41.361" width="4.796" height="8.418" style="fill:none"/><path d="M38.257,20.341c.065.008-4.5,1.87-4.464,1.8-.283.052-3.96.085-3.96.085v-2.7H26.15v2.7L.1,22.227l.87.908L.982,25.02l2.67,1.1c-.9.681-2.67,1.858-2.67,1.858v24.2l32.95,1.547,3.144-13.568,3.1-18.3ZM8.582,49.784h-4.8V41.356h4.8ZM3.81,36.945l.453-1.086.107-5.344,3.722-.024.155,5.5.358.871Zm5.716,4.1h0Zm7.188,8.724H11.929v-8.4h4.784ZM11.874,36.933l.429-.954.346-5.511,3.424.012.227,5.4.453,1.062ZM24.829,49.779h-4.8V41.361h4.8ZM19.985,36.921l.429-1.121.179-5.3,3.65.012.119,5.237.429,1.157Zm12.9,12.819H28.135V41.4h4.751ZM28.037,37l.5-1.2.107-5.356,3.71-.024.072,5.392.549,1.217Z" style="fill:#5382c2"/><rect x="11.929" y="41.371" width="4.784" height="8.397" style="fill:none"/><polygon points="16.073 30.479 12.649 30.467 12.303 35.979 11.874 36.933 16.753 36.945 16.299 35.883 16.073 30.479" style="fill:none"/><rect x="3.782" y="41.356" width="4.801" height="8.427" style="fill:none"/><polygon points="8.092 30.491 4.37 30.515 4.263 35.859 3.81 36.945 8.605 36.861 8.247 35.99 8.092 30.491" style="fill:none"/><polygon points="24.363 35.752 24.244 30.515 20.594 30.503 20.415 35.8 19.985 36.921 24.793 36.909 24.363 35.752" style="fill:none"/><rect x="28.135" y="41.4" width="4.751" height="8.34" style="fill:none"/><polygon points="32.356 30.42 28.646 30.444 28.538 35.8 28.037 37.004 32.976 37.028 32.427 35.812 32.356 30.42" style="fill:none"/><polygon points="106.702 27.009 94.09 27.009 101.603 28.494 105.694 28.974 106.687 29.142 106.687 27.992 107.669 27.009 106.702 27.009" style="fill:#bbb"/><polygon points="64.9 32.168 64.618 32.525 65.118 32.61 65.118 32.61 65.118 32.61 64.9 32.168" style="fill:#a33322"/><path d="M40.862,39.532l4.228.192h0l-5.888-1h0C38.956,39.024,40.862,39.532,40.862,39.532Z" style="fill:#a33322"/><path d="M38.626,39.725h.721v9.051H44.5V39.725h.588l-3.2-1.1s-2.93.4-2.684.106a3.291,3.291,0,0,0-.577,1Zm1.8.961h3v7h-3Z" style="fill:#a33322"/><polygon points="48.653 28.535 48.662 28.536 48.662 28.531 48.653 28.535" style="fill:none"/><path d="M64.675,43.04h0V40.186h4v3.531h0l.341.339.237-.241h0v-4.09h.721a3.543,3.543,0,0,0-6.6,0H64.1v3.217h0l.328.446Z" style="fill:none"/><polygon points="42.881 28.846 39.867 28.846 39.867 34.247 39.622 34.247 39.622 34.493 39.377 34.493 39.377 35.966 44.532 35.966 44.532 34.493 44.287 34.493 44.287 34.247 44.042 34.247 44.042 29.042 42.882 28.846 42.881 28.846" style="fill:none"/><polygon points="53.414 35.966 53.414 37.535 54.844 37.535 54.844 35.966 54.844 35.826 53.414 35.826 53.414 35.966" style="fill:none"/><polygon points="45.268 39.725 45.283 39.725 45.283 39.724 45.268 39.724 45.268 39.725" style="fill:none"/><polygon points="60.525 29.792 61.164 29.859 60.979 29.137 60.525 29.792" style="fill:none"/><polygon points="54.118 30.169 53.86 30.704 54.19 30.304 54.118 30.169" style="fill:#fff"/><polygon points="68.292 33.147 68.293 33.146 68.292 33.147 68.292 33.147" style="fill:#c43e28"/><polygon points="43.644 28.928 42.881 28.846 42.881 28.846 42.882 28.846 44.042 29.042 44.042 29.042 43.644 28.928" style="fill:#c43e28"/><polygon points="54.2 30.292 54.19 30.304 54.454 30.803 54.2 30.292" style="fill:#c43e28"/><polygon points="53.86 30.704 53.86 30.704 53.86 30.704 53.86 30.704" style="fill:#c43e28"/><polygon points="56.252 31.109 56.252 31.109 56.252 31.109 56.252 31.109" style="fill:#c43e28"/><polygon points="68.675 43.717 68.675 43.717 68.885 44.345 69.253 43.815 69.016 44.056 68.675 43.717" style="fill:#c43e28"/><polygon points="64.675 43.04 64.675 43.04 64.675 43.04 64.425 43.389 64.097 42.942 64.32 43.575 64.675 43.04" style="fill:#c43e28"/><polygon points="69.253 43.815 69.253 43.815 69.253 43.815 69.253 43.815 68.675 43.717 68.675 43.717 68.885 44.345 69.253 43.815" style="fill:#a33322"/><polygon points="64.32 43.575 64.675 43.04 64.675 43.04 64.097 42.942 64.097 42.942 64.32 43.575" style="fill:#a33322"/><path d="M66.675,37.975a3.478,3.478,0,0,0-3.3,2.25H64.1v3.217l.223.633.855-.535V41.186h3v3.031l.711.628.367-.53v-4.09h.721A3.478,3.478,0,0,0,66.675,37.975Z" style="fill:#bbb"/><polygon points="45.268 39.725 45.283 39.725 45.283 39.724 45.268 39.724 45.268 39.725" style="fill:none"/><polygon points="69.705 34.493 69.134 34.493 69.134 33.291 68.794 32.85 68.205 33.133 68.205 34.846 65.205 34.846 65.205 32.625 64.605 32.168 64.276 32.467 64.276 34.493 63.705 34.493 63.705 35.966 69.705 35.966 69.705 34.493" style="fill:#bbb"/><polygon points="53.414 35.966 53.414 37.535 54.844 37.535 54.844 35.966 54.844 35.826 53.414 35.826 53.414 35.966" style="fill:none"/><polygon points="45.268 39.725 45.283 39.725 45.283 39.724 45.268 39.724 45.268 39.725" style="fill:none"/><polygon points="44.287 34.247 44.042 34.247 44.042 29.042 43.644 28.928 42.881 28.846 39.867 28.846 39.867 34.247 39.622 34.247 39.622 34.493 39.377 34.493 39.377 35.966 44.532 35.966 44.532 34.493 44.287 34.493 44.287 34.247" style="fill:none"/><polygon points="67.673 12.645 69.903 15.002 72.532 14.647 72.532 12.645 67.673 12.645" style="fill:#a33322"/><rect x="52.135" y="51.691" width="1.59" style="fill:#fff"/><rect x="49.398" y="51.692" width="2.159" style="fill:#fff"/><polygon points="65.146 11.605 55.548 8.64 49.045 8.879 41.87 11.834 40.019 14.819 40.869 17.75 55.777 19.487 73.598 17.75 73.659 17.75 74.665 17.75 75.879 16.026 65.146 11.605" style="fill:#eee"/><polygon points="61.922 42.574 61.723 32.035 60.663 30.375 59.259 31.618 59.159 42.106 60.36 43.685 61.922 42.574" style="fill:#bbb"/><polygon points="48.774 40.348 48.675 29.826 47.958 28.078 46.506 29.459 46.308 39.931 47.554 41.274 48.774 40.348" style="fill:#bbb"/><polygon points="45.268 39.725 45.283 39.725 45.283 39.724 45.268 39.724 45.268 39.725" style="fill:none"/><polygon points="84.124 46.332 84.124 46.332 84.353 46.879 84.702 46.43 84.702 46.43 84.124 46.332 84.124 46.332" style="fill:#ccc"/><polygon points="88.702 47.107 88.702 47.107 88.948 47.714 89.28 47.205 89.28 47.205 89.28 47.205 88.702 47.107" style="fill:#ccc"/><polygon points="90.016 41.045 90.016 41.045 86.579 38.795 83.388 41.045 83.388 41.045 84.124 41.045 84.124 46.332 84.124 46.332 84.635 46.794 85.202 46.514 85.202 42.006 88.202 42.006 88.202 47.107 89.28 47.205 89.28 47.205 89.28 41.045 90.016 41.045" style="fill:#bbb"/><polygon points="102.969 38.971 102.826 38.911 102.565 38.945 102.831 38.915 102.969 38.971" style="fill:#ccc"/><polygon points="100.599 49.447 100.891 49.171 100.313 49.073 100.599 49.447" style="fill:#ccc"/><polygon points="103.648 49.948 105.47 49.946 102.873 49.506 103.648 49.948" style="fill:#ccc"/><path d="M103.158,39.049l-.189-.079-.138-.056-.266.031-.013,0c-.717.505-2.975,2.1-2.976,2.1h.736v8.028h0l1.039.509,1.521-.076,2.6.439v-8.9h.736S104.057,39.637,103.158,39.049Zm1.234,9.957h-3v-7h3Z" style="fill:#bbb"/><polygon points="75.985 44.954 76.231 45.292 76.563 45.052 75.985 44.954 75.985 44.954" style="fill:#ccc"/><path d="M78.563,38.795a3.477,3.477,0,0,0-3.3,2.25h.721v3.91l.518.42.559-.239v-3.13h3v3.724l.761.356.316-.258h0V41.045h.721A3.477,3.477,0,0,0,78.563,38.795Z" style="fill:#bbb"/><polygon points="92.234 47.705 92.234 47.705 92.497 48.194 92.812 47.803 92.812 47.803 92.234 47.705 92.234 47.705" style="fill:#ccc"/><polygon points="96.812 48.48 97.091 48.883 97.39 48.578 97.39 48.578 96.812 48.48" style="fill:#ccc"/><path d="M97.39,41.045h.721a3.543,3.543,0,0,0-6.6,0h.721V47.7h0l.518.3.56-.114V42.006h3V48.48l.48.232.6-.134h0Z" style="fill:#bbb"/><polygon points="71.432 44.184 72.763 45.335 74.262 44.663 73.863 34.09 72.543 32.575 71.333 33.662 71.432 44.184" style="fill:#bbb"/><polygon points="45.268 39.725 45.283 39.725 45.283 39.724 45.268 39.724 45.268 39.725" style="fill:none"/><polygon points="77.02 34.625 76.701 34.274 76.52 34.54 76.52 34.54 77.02 34.625 77.02 34.625" style="fill:#ccc"/><polygon points="75.607 35.813 75.607 37.286 81.607 37.286 81.607 35.813 81.036 35.813 81.036 35.305 80.5 35.115 80.108 35.147 80.108 36.166 77.108 36.166 77.108 34.639 76.591 34.359 76.179 34.482 76.179 35.813 75.607 35.813" style="fill:#bbb"/><polygon points="89.702 37.286 89.702 36.773 88.286 36.437 86.128 36.166 85.203 36.166 85.205 36.009 84.76 35.889 84.034 35.813 83.702 35.813 83.702 37.286 89.702 37.286" style="fill:#bbb"/><polygon points="92.728 37.286 92.186 37.102 91.797 37.127 91.797 37.286 92.728 37.286" style="fill:#bbb"/><polygon points="81.922 41.045 81.922 41.045 81.907 41.045 81.907 41.045 81.922 41.045" style="fill:#fff"/><polygon points="75.293 41.045 75.293 41.045 75.309 41.045 75.309 41.045 75.293 41.045" style="fill:#fff"/><rect x="51.557" y="51.692" width="0.578" style="fill:#fff"/><polygon points="45.283 39.725 45.283 39.724 45.268 39.724 45.268 39.725 45.283 39.725" style="fill:#fff"/><path d="M45.224,39.725h0a3.478,3.478,0,0,0-3.3-2.25A3.533,3.533,0,0,0,39.2,38.728l5.888,1Z" style="fill:#bbb"/><polygon points="70.034 39.725 70.034 39.724 70.018 39.724 70.018 39.725 70.034 39.725" style="fill:#fff"/><polygon points="63.405 39.724 63.405 39.725 63.42 39.725 63.42 39.724 63.405 39.724" style="fill:#fff"/><polygon points="70.974 23.08 70.974 23.08 70.974 23.08 70.974 23.08" style="fill:#fff"/><polygon points="57.493 41.045 57.493 41.045 57.478 41.045 57.478 41.045 57.493 41.045" style="fill:#fff"/><path d="M57.434,41.045h0a3.549,3.549,0,0,0-6.458-.324l1.419.443,4.318.528v-.647Z" style="fill:#bbb"/><polygon points="58.076 52.428 56.713 52.465 56.713 52.197 56.4 51.935 55.614 52.011 55.614 52.953 52.635 52.953 52.635 51.506 51.835 51.156 51.557 51.324 51.557 51.692 51.557 51.692 51.557 51.692 49.168 51.693 49.168 50.92 47.435 49.873 45.825 50.354 45.825 51.685 40.922 51.685 40.922 50.888 39.025 50.888 39.025 50.33 38.043 50.33 38.043 49.593 37.306 49.593 37.306 48.912 36.994 48.856 35.39 47.673 34.565 51.165 34.563 55 73.271 55 65.558 52.458 58.076 52.428" style="fill:#bbb"/><path d="M57.947,10.386l7.2,1.219L53.895,6.97V4.1a1.812,1.812,0,0,0,1.466-.089,2.124,2.124,0,0,1,.866-.21,6.207,6.207,0,0,1,2.355.844L58.3,1.627a8.025,8.025,0,0,0-1.278-.373c-.3-.024-.724.1-1.291.1-1.51,0-1.806-.768-1.841-.877V0h-.246V6.982l-4.6,1.9,3.046.516Z" style="fill:#c43e28"/><rect x="49.577" y="21.85" width="4.283" height="0.001" style="fill:#c43e28"/><rect x="53.86" y="21.851" width="0.595" style="fill:#c43e28"/><path d="M70.773,23.062l-.216-.117-.273.034a.928.928,0,0,0,.411.087C70.72,23.066,70.747,23.064,70.773,23.062Z" style="fill:#a33322"/><polygon points="73.863 34.09 73.67 28.974 105.694 28.974 94.09 27.009 73.619 27.009 73.467 23.518 72.341 22.28 71.233 23.14 71.333 33.662 73.863 34.09" style="fill:#a33322"/><polygon points="105.223 35.567 104.978 35.567 104.978 30.166 100.805 30.166 100.805 35.567 100.559 35.567 100.559 35.813 100.314 35.813 100.314 37.286 105.47 37.286 105.47 35.813 105.223 35.813 105.223 35.567" style="fill:none"/><polygon points="97.129 35.567 96.884 35.567 96.884 30.166 92.71 30.166 92.71 35.567 92.465 35.567 92.465 35.813 92.219 35.813 92.219 37.198 92.741 37.286 97.375 37.286 97.375 35.813 97.129 35.813 97.129 35.567" style="fill:none"/><polygon points="76.179 34.483 77.108 34.641 77.108 31.166 80.108 31.166 80.108 35.149 81.036 35.304 81.036 30.166 76.179 30.166 76.179 34.483" style="fill:#a33322"/><polygon points="85.203 31.166 88.203 31.166 88.203 36.166 86.128 36.166 89.702 36.773 89.702 35.813 89.131 35.813 89.131 30.166 84.273 30.166 84.273 35.813 84.033 35.813 85.203 36.011 85.203 31.166" style="fill:#a33322"/><path d="M97.226,35.813V30.166H92.368v5.647H91.8v1.313l.935.16H97.8V35.813Zm-3.929.353v-5h3v5Z" style="fill:#a33322"/><path d="M105.32,35.813V30.166h-4.857v5.647h-.571v1.473h6V35.813Zm-3.928.353v-5h3v5Z" style="fill:#a33322"/><polygon points="61.153 22.835 61.153 22.835 61.153 22.835 61.153 22.835" style="fill:#c43e28"/><polygon points="70.935 49.593 70.932 49.593 70.932 49.597 71.163 49.597 71.163 49.593 71.165 49.593 71.165 48.86 70.935 48.86 70.935 49.593" style="fill:#c43e28"/><rect x="53.724" y="51.691" width="2.41" style="fill:#c43e28"/><polygon points="49.086 48.858 49.085 48.858 48.856 48.858 48.854 48.858 48.774 40.348 46.308 39.931 46.14 48.858 45.825 48.858 45.825 50.354 49.168 50.92 49.168 48.858 49.086 48.858" style="fill:#a33322"/><polygon points="102.873 49.506 102.873 49.506 105.47 49.946 102.873 49.506" style="fill:#a33322"/><polygon points="100.891 49.171 100.313 49.073 100.313 49.073 100.891 49.171 100.891 49.171" style="fill:#a33322"/><polygon points="105.47 50.096 105.47 49.946 102.873 49.506 100.313 49.073 100.313 50.096 105.47 50.096" style="fill:#a33322"/><polygon points="81.141 45.827 81.141 45.827 81.141 45.827 81.141 45.827" style="fill:#a33322"/><polygon points="76.563 45.052 76.563 45.052 75.985 44.954 75.985 44.954 75.985 44.954 76.563 45.052" style="fill:#a33322"/><polygon points="81.141 50.096 81.141 45.827 81.141 45.827 80.064 45.644 80.064 49.006 77.063 49.006 77.063 45.136 75.985 44.954 75.985 44.954 75.985 50.096 81.141 50.096" style="fill:#a33322"/><polygon points="89.28 50.096 89.28 47.205 88.202 47.022 88.202 49.006 85.202 49.006 85.202 46.514 84.124 46.332 84.124 50.096 89.28 50.096" style="fill:#a33322"/><polygon points="97.39 50.096 97.39 48.578 96.313 48.397 96.313 49.006 93.313 49.006 93.313 47.887 92.234 47.705 92.234 50.096 97.39 50.096" style="fill:#a33322"/><rect x="56.135" y="51.69" width="0.578" style="fill:#c43e28"/><polygon points="38.654 39.724 38.655 39.725 38.67 39.725 38.67 39.724 38.654 39.724" style="fill:#c43e28"/><path d="M106.685,52.176H75.01V48.86h-.59l-.158-4.2-2.83-.479.044,4.673v0h-.311v.733h0v0h-.734v.733h-.982v.559h-1.9v.8l-5.195,0V48.866h-.314l-.119-6.292-2.763-.468-.064,6.76h-.313V51.69H56.713v-10h0l-5.737-.971a3.233,3.233,0,0,0-.14.324h.721v10.28l1.078.182v-8.5h2.979v9l2.463.417L73.271,55H75.16v-.614h32.261v-2.21Z" style="fill:#a33322"/><polygon points="50.865 41.045 50.865 41.045 50.88 41.045 50.88 41.045 50.865 41.045" style="fill:#c43e28"/><rect x="70.932" y="48.86" width="0.003" height="0.733" style="fill:#c43e28"/><polygon points="70.935 48.856 70.935 48.86 71.165 48.86 71.246 48.86 71.246 48.856 70.935 48.856" style="fill:#c43e28"/><polygon points="70.198 49.593 70.198 49.597 70.428 49.597 70.932 49.597 70.932 49.593 70.198 49.593" style="fill:#c43e28"/><polygon points="34.998 12.645 34.998 14.665 39.102 15.405 39.901 12.645 34.998 12.645" style="fill:#1b54a5"/><polygon points="41.454 14.296 41.87 11.834 31.669 16.036 32.638 17.75 34.133 17.75 38.241 19.622 40.869 17.75 41.201 15.757 41.454 14.296" style="fill:#3063af"/><polygon points="34.881 22.958 34.876 22.958 34.881 22.958 34.881 22.958" style="fill:#3063af"/><polygon points="9.541 41.045 9.541 41.045 9.525 41.045 9.526 41.045 9.541 41.045" style="fill:#3063af"/><polygon points="2.912 41.045 2.912 41.045 2.928 41.045 2.928 41.045 2.912 41.045" style="fill:#3063af"/><polygon points="3.192 40.759 3.192 40.759 3.192 40.759 3.192 40.759" style="fill:#3063af"/><path d="M71.233,23.14l0-.168a.84.84,0,0,0-.406-.568c.027-.276-.451-.547-.353-.551H63.628Z" style="fill:#fff"/><polygon points="37.306 48.856 36.994 48.856 37.076 40.154 35.453 44.567 35.642 48.63 37.306 48.912 37.306 48.856" style="fill:#a33322"/><polygon points="102.554 38.947 103.162 39.05 102.771 38.794 102.554 38.947" style="fill:#a33322"/><polygon points="9.525 41.045 9.541 41.045 9.541 41.045 9.525 41.045 9.525 41.045" style="fill:none"/><polygon points="3.192 40.759 3.192 40.759 3.192 40.759 3.192 40.759" style="fill:#3063af"/><path d="M3.8,30.166v5.647H3.226v1.473h6V35.813H8.655V30.166Zm.929,6v-5h3v5Z" style="fill:#1b54a5"/><path d="M11.892,30.166v5.647h-.571v1.473h6V35.813H16.75V30.166Zm.928,6v-5h3v5Z" style="fill:#1b54a5"/><path d="M11.007,41.045h.736V50.1H16.9V41.045h.736L14.2,38.795Zm4.814,7.961h-3v-7h3Z" style="fill:#1b54a5"/><path d="M19.987,30.166v5.647h-.571v1.473h6V35.813h-.571V30.166Zm.929,6v-5h3v5Z" style="fill:#1b54a5"/><path d="M28.082,30.166v5.647H27.51v1.473h6V35.813h-.571V30.166Zm.929,6v-5h3v5Z" style="fill:#1b54a5"/><path d="M27.2,41.045h.736V50.1h5.156V41.045h.736l-3.437-2.25Zm4.814,7.961h-3v-7h3Z" style="fill:#1b54a5"/><path d="M6.182,38.795a3.478,3.478,0,0,0-3.3,2.25H3.6V50.1H8.76V41.045h.721A3.477,3.477,0,0,0,6.182,38.795Zm-2.99,1.964Zm4.49,8.247h-3v-7h3Z" style="fill:#1b54a5"/><path d="M22.431,38.795a3.478,3.478,0,0,0-3.3,2.25h.721V50.1h5.156V41.045h.721A3.477,3.477,0,0,0,22.431,38.795Zm1.5,10.211h-3v-7h3Z" style="fill:#1b54a5"/><path d="M34.083,17.75v4.137a.512.512,0,0,0-.29.252.591.591,0,0,0-.058.268.6.6,0,0,0,.249.511.732.732,0,0,0,.238.109,1.072,1.072,0,0,0,.325.033,1.817,1.817,0,0,0,.481-.091l-.09,2.04H0l.982.982v1.982H34.8l-1.066,24.2H.123v2.21H32.042V55h2.521l1.078-6.37,1.435-8.476.162-17.186a2.1,2.1,0,0,0,.248.064,1.533,1.533,0,0,0,.289.031.859.859,0,0,0,.51-.145.6.6,0,0,0,.249-.511.529.529,0,0,0-.492-.554h2.132l2.5-1.681L40.869,17.75Zm.8,5.208h0Z" style="fill:#1b54a5"/><path d="M74.654,22.1h0a.574.574,0,0,0-.477-.249h-.518v-4.1H40.869l-.041.243L52.963,20.86l10.666.993h6.844a.535.535,0,0,0-.537.558.6.6,0,0,0,.249.511.681.681,0,0,0,.1.058l.489.083a1.848,1.848,0,0,0,.459-.091l0,.168,2.234.378-.024-.546a1.175,1.175,0,0,0,1.044-.052.6.6,0,0,0,.248-.511A.572.572,0,0,0,74.654,22.1Z" style="fill:#bbb"/><path d="M59.341,22.978a4.342,4.342,0,0,1-.638.087.694.694,0,0,1-.408-.138.6.6,0,0,1-.249-.511.539.539,0,0,1,.559-.558l-4.15-.007h0v6.994h1.8v.494l3.026.32Z" style="fill:none"/><polygon points="61.153 22.835 61.153 22.835 61.153 22.835 61.153 22.835" style="fill:none"/><path d="M52.077,28.846H53.86V21.851H49.346a.538.538,0,0,1,.559.558.6.6,0,0,1-.249.511.709.709,0,0,1-.184.093.738.738,0,0,1-.192.036,6.387,6.387,0,0,1-.671-.077l.052,5.566,3.415.361Z" style="fill:none"/><polygon points="54.2 30.292 54.19 30.304 54.118 30.169 53.86 30.704 53.86 30.704 53.86 30.704 54.455 30.805 54.454 30.803 54.2 30.292" style="fill:#a33322"/><polygon points="48.662 28.536 48.675 29.826 48.662 28.536 48.662 28.536" style="fill:#a33322"/><polygon points="64.097 48.776 69.253 48.776 69.253 43.815 69.253 43.815 69.253 43.815 68.175 43.632 68.175 47.686 65.175 47.686 65.175 43.125 64.097 42.942 64.097 42.942 64.097 42.942 64.097 48.776" style="fill:#a33322"/><polygon points="69.134 28.846 64.276 28.846 64.276 32.467 65.205 32.625 65.205 29.846 68.205 29.846 68.205 33.133 69.134 33.291 69.134 28.846" style="fill:#a33322"/><path d="M44.383,34.493V29.042l-.463-.114-.887-.083H39.526v5.647h-.571v1.473h6V34.493Zm-3.929.353v-5h3v5Z" style="fill:#bbb"/><polygon points="44.383 28.846 44.383 29.1 42.875 28.846 44.383 28.846" style="fill:#a33322"/><polygon points="53.803 9.55 53.273 9.597 41.454 14.296 40.082 15.029 41.272 15.375 68.876 15.396 55.033 9.895 53.803 9.55" style="fill:#ccc"/><polygon points="53.778 9.396 53.273 9.597 55.033 9.895 53.778 9.396" style="fill:#a33322"/><polygon points="38.737 15.374 41.272 15.375 41.454 14.296 38.737 15.374" style="fill:#1b54a5"/><polygon points="52.216 34.632 55.992 34.632 55.992 31.065 53.96 29.292 52.216 30.426 52.216 34.632" style="fill:#bbb"/><polygon points="54.397 20.028 54.348 20.08 54.408 20.086 54.397 20.028" style="fill:#ccc"/><path d="M62.316,21.853h1.313l-22.8-3.86-.653,3.86,5.719,0a.539.539,0,0,0-.559.558.642.642,0,0,0,.093.344.587.587,0,0,0,.156.167.859.859,0,0,0,.51.145,1.764,1.764,0,0,0,.535-.094l-.122,6.489,2.169.367L48.61,22.97a6.387,6.387,0,0,0,.671.077.738.738,0,0,0,.192-.036.709.709,0,0,0,.184-.093.6.6,0,0,0,.249-.511.538.538,0,0,0-.559-.558h.23l4.022,0v2.875h.012a.9.9,0,0,0,.074,1.49c-.389.882-.908,2.035-1.106,2.378a4.435,4.435,0,0,1-1.045,1.085.3.3,0,0,0,.1.409l.578.03v.305l3.776.639V30.12l.684-.03a.3.3,0,0,0,.1-.409,4.859,4.859,0,0,1-1.1-1.128c-.2-.344-.689-1.463-1.06-2.328a.9.9,0,0,0,.086-1.5h.012V21.855l3.888,0a.539.539,0,0,0-.559.558.6.6,0,0,0,.249.511.694.694,0,0,0,.408.138,4.342,4.342,0,0,0,.638-.087l-.082,8.64,2.465.417-.171-9.057a1.176,1.176,0,0,0,1.044-.051.6.6,0,0,0,.248-.511A.54.54,0,0,0,62.316,21.853Z" style="fill:#a33322"/></svg>