<svg xmlns="http://www.w3.org/2000/svg" viewBox="0 0 57.844 55"><title>thomas-jefferson-street</title><path d="M1,21s5.487,3.859,6.971,3.859h19.9V14.444H7.987C6.94,14.444,1,18.311,1,18.311-.334,19.051-.334,20.262,1,21Z" style="fill:#e4524e"/><path d="M56.842,7.887s-5.487-3.859-6.971-3.859h-19.9V14.444h19.89c1.047,0,6.985-3.867,6.985-3.867C58.179,9.838,58.179,8.627,56.842,7.887Z" style="fill:#a0ddf7"/><path d="M24.694,0a2.786,2.786,0,0,0-2.778,2.778V52.222A2.786,2.786,0,0,0,24.694,55H26.98l2.634-30.476L26.98,0Z" style="fill:#ffd45c"/><path d="M28.711,0H26.7V55h2.008a2.786,2.786,0,0,0,2.778-2.778V2.778A2.786,2.786,0,0,0,28.711,0Z" style="fill:#ffc81a"/></svg>