<svg xmlns="http://www.w3.org/2000/svg" viewBox="0 0 82.018 55"><title>views-you-can-use</title><path d="M36.62,10.144H77.927a4.091,4.091,0,0,1,4.091,4.091V40.647a4.091,4.091,0,0,1-4.091,4.091H64.26V55L53.935,44.738H36.62a4.091,4.091,0,0,1-4.091-4.091V14.235A4.091,4.091,0,0,1,36.62,10.144Z" style="fill:#5382c2"/><path d="M36.62,7.486H77.927a4.091,4.091,0,0,1,4.091,4.091V37.989a4.091,4.091,0,0,1-4.091,4.091H64.26V52.342L53.935,42.08H36.62a4.091,4.091,0,0,1-4.091-4.091V11.577A4.091,4.091,0,0,1,36.62,7.486Z" style="fill:#7aa0ce"/><rect x="38.014" y="17.049" width="31.668" height="3.054" style="fill:#5382c2"/><rect x="38.014" y="30.408" width="35.071" height="3.054" style="fill:#5382c2"/><rect x="38.014" y="23.729" width="24.044" height="3.054" style="fill:#5382c2"/><path d="M45.4,2.658H4.091A4.091,4.091,0,0,0,0,6.75V33.161a4.091,4.091,0,0,0,4.091,4.091H17.758V47.514L28.083,37.253H45.4a4.091,4.091,0,0,0,4.091-4.091V6.75A4.091,4.091,0,0,0,45.4,2.658Z" style="fill:#e2a926"/><path d="M45.4,0H4.091A4.091,4.091,0,0,0,0,4.091V30.5a4.091,4.091,0,0,0,4.091,4.091H17.758V44.856L28.083,34.594H45.4A4.091,4.091,0,0,0,49.489,30.5V4.091A4.091,4.091,0,0,0,45.4,0Z" style="fill:#ffd45c"/><rect x="6.727" y="9.837" width="22.769" height="3.054" style="fill:#e2a926"/><rect x="6.727" y="23.197" width="26.172" height="3.054" style="fill:#e2a926"/><rect x="6.727" y="16.517" width="33.667" height="3.054" style="fill:#e2a926"/></svg>