<svg xmlns="http://www.w3.org/2000/svg" viewBox="0 0 63.19 55"><title>washington-whispers</title><path d="M46.094,31.215c-.007-.1-.024-.193-.033-.29a15.9,15.9,0,0,0-3.316-8.231c-.038-.049-.081-.1-.119-.145h-.141c-3.952-5.034-10.858-8.376-18.73-8.376l-.081,0-.063,0c-.167,0-.331.01-.5.013-.2,0-.392.008-.588.016-7.36.327-13.619,3.576-17.364,8.347h0c-.039.049-.081.1-.119.145A15.885,15.885,0,0,0,1.73,30.925c-.009.1-.025.193-.033.29-.027.365-.045.731-.045,1.1A15.219,15.219,0,0,0,3.377,39.3c.074.145.145.292.224.435a18.658,18.658,0,0,0,4.726,5.532,6.255,6.255,0,0,1-.159,2.408h0c-.045.193-.09.385-.147.58C6.929,51.97,2.112,54.4,2.112,54.4c10.836,2.44,13.963-3.306,14.014-3.4,5.641,2.051,13.8.731,19.225-2.592,3.075-1.883,7.713-5.74,9.377-9.164a18.009,18.009,0,0,0,1.41-6.927C46.138,31.946,46.12,31.579,46.094,31.215Z" style="fill:#c43e28"/><path d="M34,45.787a19.6,19.6,0,0,0,8.33-7.817c.016-.029.031-.057.046-.086H2.109c.015.029.03.057.046.086,1.131,2.052,4.752,5.608,4.752,5.608l-.019,2.547Z" style="fill:#fff"/><path d="M.309,29.326l0-.032a15.746,15.746,0,0,1,3.263-8.109l.043-.053H40.861a15.8,15.8,0,0,1,3.312,8.161l0,.032Z" style="fill:#fff"/><path d="M22.243,12.521H22.1l.063,0Z"/><path d="M44.441,29.562c-.007-.1-.024-.193-.033-.29a15.9,15.9,0,0,0-3.316-8.231c-.038-.049-.081-.1-.119-.145h-.141c-3.952-5.034-10.858-8.376-18.73-8.376l-.081,0-.063,0c-.167,0-.331.01-.5.013-.2,0-.392.008-.588.016-7.36.327-13.619,3.576-17.364,8.347h0c-.039.049-.081.1-.119.145A15.885,15.885,0,0,0,.077,29.272c-.009.1-.025.193-.033.29-.027.365-.045.731-.045,1.1a15.219,15.219,0,0,0,1.724,6.984c.074.145.145.292.224.435a18.658,18.658,0,0,0,4.726,5.532,6.255,6.255,0,0,1-.159,2.408h0c-.045.193-.09.385-.147.58A28.9,28.9,0,0,1,2.112,54.4c6.261.075,9.726-2.871,11.485-5.2a12.569,12.569,0,0,0,.807-1.207c.059-.1.12-.2.171-.294a26.729,26.729,0,0,0,7.668,1.107c11.623,0,16.463-5.372,17.443-6.667A44.383,44.383,0,0,0,42.674,37.4l.087-.209a13.434,13.434,0,0,0,1.724-6.527C44.485,30.293,44.468,29.927,44.441,29.562ZM3.733,21.369H40.748a15.541,15.541,0,0,1,3.167,7.721H.57A15.53,15.53,0,0,1,3.733,21.369ZM33.944,45.551H7.093a6.019,6.019,0,0,0,.046-2.012l-.03-.179-.141-.113A18.188,18.188,0,0,1,2.511,38.12H41.977a17.061,17.061,0,0,1-1.569,2.275A20.409,20.409,0,0,1,33.944,45.551Z" style="fill:#e4524e"/><polygon points="22.099 12.521 22.1 12.521 22.101 12.521 22.099 12.521"/><path d="M22.243,12.521H22.1l.062,0Z"/><path d="M22.163,12.523l-.062,0h0l.062,0Z" style="fill:#c43e28"/><path d="M44.441,29.562c0-.055-.012-.109-.018-.163l-.272-.272c.006.056.017.111.022.166l0,.032H23.326l-.227.227,8.331,8.331.236.236L38.389,39.3c-1.184,2.06.743,2.714-1.29,4.253l.711.711c.7-.536,2.448-1.083,3.06-1.689,1.252-1.238,1.818-4.782,1.893-4.927h0a15.232,15.232,0,0,0,1.723-6.984C44.485,30.293,44.468,29.927,44.441,29.562Z" style="fill:#c43e28"/><path d="M41.977,38.12H31.666L37.1,43.552A18.317,18.317,0,0,0,41.977,38.12Z" style="fill:#ccc"/><path d="M56.462,31.345A16.781,16.781,0,0,0,63.19,18.289C63.19,8.188,53.151,0,40.768,0S18.346,8.188,18.346,18.289,28.384,36.577,40.768,36.577a26.942,26.942,0,0,0,7.73-1.116c1.259,2.282,4.758,6.847,12.563,6.753C61.061,42.214,55.789,35.418,56.462,31.345Z" style="fill:#5382c2"/><polygon points="28.786 14.33 29.966 16.721 32.605 17.105 30.696 18.966 31.146 21.594 28.786 20.353 26.426 21.594 26.877 18.966 24.967 17.105 27.606 16.721 28.786 14.33" style="fill:#fff"/><polygon points="39.981 14.33 41.161 16.721 43.8 17.105 41.89 18.966 42.341 21.594 39.981 20.353 37.621 21.594 38.071 18.966 36.162 17.105 38.8 16.721 39.981 14.33" style="fill:#fff"/><polygon points="51.175 14.33 52.355 16.721 54.994 17.105 53.085 18.966 53.535 21.594 51.175 20.353 48.815 21.594 49.266 18.966 47.356 17.105 49.995 16.721 51.175 14.33" style="fill:#fff"/><path d="M45.774,5.088a38.45,38.45,0,0,1,11.548,5.555S54.178,5.53,45.908,3.618c-9.22-2.132-14.049,1.7-14.049,1.7S39.009,3.257,45.774,5.088Z" style="fill:#7aa0ce"/></svg>