<svg id="Layer_1" data-name="Layer 1" xmlns="http://www.w3.org/2000/svg" xmlns:xlink="http://www.w3.org/1999/xlink" viewBox="0 0 511.96 408.43"><defs><style>.cls-1{fill:url(#linear-gradient);}.cls-2{fill:#e9272a;}.cls-3{fill:#fff;}.cls-4{fill:#be2126;}.cls-5{fill:url(#linear-gradient-2);}.cls-6{fill:url(#linear-gradient-3);}.cls-7{fill:url(#linear-gradient-4);}.cls-8{fill:url(#linear-gradient-5);}.cls-9{fill:url(#linear-gradient-6);}.cls-10{fill:url(#linear-gradient-7);}.cls-11,.cls-15{fill:#231f20;}.cls-12{fill:url(#radial-gradient);}.cls-13{fill:url(#linear-gradient-8);}.cls-14{opacity:0.76;fill:url(#linear-gradient-9);}.cls-15,.cls-17{opacity:0.27;}.cls-16{fill:#0460a7;}.cls-18{fill:#8e8e8e;}</style><linearGradient id="linear-gradient" x1="9588.09" y1="179.08" x2="9510.52" y2="205.79" gradientTransform="matrix(-1, 0, 0, 1, 9939.94, 0)" gradientUnits="userSpaceOnUse"><stop offset="0" stop-color="#1b3d6c"/><stop offset="1" stop-color="#0561a8"/></linearGradient><linearGradient id="linear-gradient-2" x1="160.36" y1="179.69" x2="81.16" y2="206.96" gradientTransform="matrix(1, 0, 0, 1, 0, 0)" xlink:href="#linear-gradient"/><linearGradient id="linear-gradient-3" x1="129.14" y1="313.47" x2="167.93" y2="340.26" gradientTransform="translate(118.44 -112.66) rotate(18.27)" gradientUnits="userSpaceOnUse"><stop offset="0" stop-color="#d1d3d4"/><stop offset="0.95" stop-color="#58595b"/><stop offset="0.96" stop-color="#545456"/><stop offset="0.98" stop-color="#474748"/><stop offset="1" stop-color="#333031"/><stop offset="1" stop-color="#2d2a2b"/></linearGradient><linearGradient id="linear-gradient-4" x1="316.54" y1="444.19" x2="331.96" y2="456.23" gradientTransform="matrix(0, 1.85, -0.9, 0, 618.67, -396.29)" gradientUnits="userSpaceOnUse"><stop offset="0" stop-color="#a1a3a6"/><stop offset="0.15" stop-color="#6f7073"/><stop offset="1" stop-color="#231f20"/></linearGradient><linearGradient id="linear-gradient-5" x1="191.67" y1="249.99" x2="208.23" y2="262.93" gradientTransform="translate(118.44 -112.66) rotate(18.27)" gradientUnits="userSpaceOnUse"><stop offset="0" stop-color="#a1a3a6"/><stop offset="0.21" stop-color="#6f7073"/><stop offset="0.33" stop-color="#575659"/><stop offset="0.48" stop-color="#403e40"/><stop offset="0.64" stop-color="#302d2e"/><stop offset="0.81" stop-color="#262223"/><stop offset="1" stop-color="#231f20"/></linearGradient><linearGradient id="linear-gradient-6" x1="287.24" y1="42.56" x2="287.24" y2="229.46" gradientTransform="translate(28.92 -45.47) rotate(7.9)" gradientUnits="userSpaceOnUse"><stop offset="0" stop-color="#d1d3d4"/><stop offset="0.15" stop-color="#afb1b4"/><stop offset="0.31" stop-color="#8f9193"/><stop offset="0.49" stop-color="#737376"/><stop offset="0.67" stop-color="#5e5e60"/><stop offset="0.84" stop-color="#515153"/><stop offset="1" stop-color="#4d4d4f"/></linearGradient><linearGradient id="linear-gradient-7" x1="287.24" y1="104.03" x2="287.24" y2="48.07" gradientTransform="translate(28.92 -45.47) rotate(7.9)" gradientUnits="userSpaceOnUse"><stop offset="0" stop-color="#8a8c8e"/><stop offset="1" stop-color="#fafafb"/></linearGradient><radialGradient id="radial-gradient" cx="288.85" cy="136.56" r="65.84" gradientTransform="translate(28.92 -45.47) rotate(7.9)" gradientUnits="userSpaceOnUse"><stop offset="0" stop-color="#f4fbfe"/><stop offset="0.41" stop-color="#f2f9fc"/><stop offset="0.63" stop-color="#eaf3f7"/><stop offset="0.81" stop-color="#dce8ee"/><stop offset="0.96" stop-color="#c9d9e1"/><stop offset="1" stop-color="#c3d4dd"/></radialGradient><linearGradient id="linear-gradient-8" x1="411.88" y1="63.06" x2="411.88" y2="3.96" gradientTransform="translate(-98.31 267.78) rotate(-28.38)" gradientUnits="userSpaceOnUse"><stop offset="0" stop-color="#c3d4dd"/><stop offset="0.79" stop-color="#f4fbfe"/><stop offset="0.98" stop-color="#fff"/></linearGradient><linearGradient id="linear-gradient-9" x1="393.96" y1="146.53" x2="448.89" y2="86.62" gradientTransform="matrix(0.24, -0.21, 0.66, 0.75, -63.23, 259.05)" gradientUnits="userSpaceOnUse"><stop offset="0" stop-color="#9fa1a4"/><stop offset="0.05" stop-color="#b1b2b5"/><stop offset="0.15" stop-color="#c9cacc"/><stop offset="0.24" stop-color="#dbdbdd"/><stop offset="0.35" stop-color="#e6e6e7"/><stop offset="0.47" stop-color="#e9e9ea"/><stop offset="0.65" stop-color="#e6e6e7"/><stop offset="0.78" stop-color="#dcddde"/><stop offset="0.91" stop-color="#cccdcf"/><stop offset="1" stop-color="#babcbe"/></linearGradient></defs><title>Artboard 1</title><polygon class="cls-1" points="436.19 168.74 435.62 169.39 412.38 202.4 424.64 219.69 355.4 219.69 355.4 219.6 355.4 168.74 436.19 168.74"/><polygon class="cls-2" points="435.62 235.29 357.69 235.29 355.69 233.98 355.6 225.97 357.69 223.74 427.56 223.84 435.62 235.29"/><polygon class="cls-3" points="427.56 223.74 355.4 223.74 355.4 223.2 355.4 219.69 424.43 219.69 427.56 223.74"/><path class="cls-4" d="M355.18,218s.28,11.55.28,15.25c.06.49-.11,1.74,2.56,2-7.52-3.43,5.89-5.39,11.24-4.79Z"/><path class="cls-4" d="M399.41,218.14v9.21c-2.9,3.19-6.73,3.07-11.32,3.37H355.4V218.14Z"/><polygon class="cls-5" points="74.44 169.6 75 170.26 97.94 203.27 85.84 220.56 156.89 220.56 156.89 220.47 156.89 169.6 74.44 169.6"/><polygon class="cls-2" points="75 236.16 154.64 236.16 156.6 234.86 156.7 226.85 154.64 224.61 82.95 224.72 75 236.16"/><polygon class="cls-3" points="82.95 224.61 156.89 224.61 156.89 224.07 156.89 220.56 86.06 220.56 82.95 224.61"/><path class="cls-4" d="M157.12,218.9s-.29,11.54-.29,15.25c-.06.49.11,1.74-2.57,2,7.52-3.43-5.88-5.39-11.25-4.8Z"/><path class="cls-4" d="M112.88,219v9.21c2.9,3.19,6.73,3.08,11.32,3.37h32.69V219Z"/><path class="cls-6" d="M199,187.56l-102.58,73c-6.18,18.33,15.31,40.61,29.49,36.8l98.73-77.55Z"/><ellipse class="cls-7" cx="213.44" cy="203.06" rx="5.75" ry="21" transform="translate(-80.51 183.49) rotate(-39.76)"/><path class="cls-8" d="M246,168.88,201.69,202c-2.38,7.06,5.89,15.64,11.35,14.17l42.78-34.82Z"/><path class="cls-9" d="M281.88,221.3A93.45,93.45,0,1,1,387.3,141.58,93.55,93.55,0,0,1,281.88,221.3Z"/><path class="cls-10" d="M306.06,47.12a80.56,80.56,0,0,0-80.83,39.69h0L220.42,84a86.14,86.14,0,0,1,86.4-42.4h0A86.13,86.13,0,0,1,378.4,106h0L373,107.32a80.56,80.56,0,0,0-67-60.2Z"/><path class="cls-11" d="M286.07,196.23a68.75,68.75,0,1,1,77.55-58.65A68.82,68.82,0,0,1,286.07,196.23Z"/><path class="cls-12" d="M287.2,194.72a65.84,65.84,0,1,1,74.27-56.16A65.9,65.9,0,0,1,287.2,194.72Z"/><path class="cls-13" d="M294,127.45c-21.36,11.54-45,9.27-52.78-5.07S244.57,87,265.93,75.45s45-9.27,52.79,5.06S315.4,115.91,294,127.45Z"/><polygon class="cls-14" points="132.66 246.84 102.44 269.71 98.67 265.46 128.9 242.59 132.66 246.84"/><rect class="cls-15" x="112.97" y="208.02" width="283.49" height="18.9"/><path class="cls-16" d="M399,213.43c0,5.08-5.77,9.18-12.92,9.18H124.42c-7.14,0-12.92-4.11-12.92-9.18V165.16c0-5.07,5.78-9.19,12.92-9.19H386.13c7.15,0,12.92,4.11,12.92,9.19Z"/><rect class="cls-2" x="112.87" y="210.91" width="285.91" height="12.76"/><rect class="cls-16" x="127.46" y="156.31" width="254.66" height="51.14"/><g id="U.S.News"><path class="cls-3" d="M155,208.67c-9.89,0-17.3-3.8-17.3-13.29V167.63h8.7v27c0,4.25,3.11,6.76,8.8,6.76,5,0,8.5-2.51,8.5-6.72v-27h8.69V195.9C172.39,204.46,165.15,208.67,155,208.67Z"/><path class="cls-3" d="M170.22,208.15v-8.24H178v8.24Z"/><path class="cls-3" d="M196.86,208.72c-12,0-16.34-3.69-17.94-8.82a17.62,17.62,0,0,1-.56-4.16h8.94a7.37,7.37,0,0,0,.56,2.57c1.11,2.35,3.72,3.38,9,3.38,6,0,8.15-1.7,8.15-4.36,0-3.34-1.66-4.52-8.1-5.75-1.16-.21-4.07-.78-5.83-1.13-7.75-1.48-12.52-5.13-12.52-11.84,0-6.88,5.43-11.49,17.1-11.49,10,0,14.63,3.54,16.64,8.66a12.63,12.63,0,0,1,.91,3.9h-8.95a5.8,5.8,0,0,0-.55-2c-1.06-2.26-3.22-3.44-8.25-3.44-6.59,0-7.89,1.49-7.89,3.79,0,3,2.36,4.16,8.85,5.5,2,.41,4.62,1,5.53,1.13,7.89,1.53,12,4.87,12,11.79C214,203.79,208.28,208.72,196.86,208.72Z"/><path class="cls-3" d="M212,208.15v-8.24h7.75v8.24Z"/><path class="cls-3" d="M246.68,208.15l-16-27.44v27.44H222.4V167.63h10.1l15.28,26.11V167.63h8.31v40.52Z"/><path class="cls-3" d="M286.16,205.93c-2.55,1.69-6.13,2.72-10.87,2.72-6.5,0-11.78-2-14.59-6.52a17,17,0,0,1-2.24-9.09,15.42,15.42,0,0,1,2.56-8.85c2.81-4.18,7.88-6.62,14.28-6.62,6.71,0,11.29,2.5,13.9,6.35A18.26,18.26,0,0,1,291.7,196H266.88a5.15,5.15,0,0,0,1.59,3.53c1.24,1.36,3.62,2.23,6.83,2.23a13.21,13.21,0,0,0,5.38-1,4.12,4.12,0,0,0,2.44-2.34h8.37A12.25,12.25,0,0,1,286.16,205.93Zm-4.37-19.07c-1.23-1.25-3.25-2.29-6.44-2.29-3,0-5.28.82-6.71,2.13a6.23,6.23,0,0,0-1.81,3.58h16.4A5.27,5.27,0,0,0,281.8,186.86Z"/><path class="cls-3" d="M333.41,208.15H323.34S317.58,191,317.48,190c-.06-.38-.37-2.15-.37-2.15s-.33,1.77-.38,2.09c0,1-5.8,18.2-5.8,18.2H300.79L290.3,178.26h8.9l7,22.23,6.44-22.23h9.49l6.6,22.23,6.87-22.23H344Z"/><path class="cls-3" d="M359.66,208.7c-9.91,0-14.61-2-15.83-6.91a12.62,12.62,0,0,1-.32-3H352a4.64,4.64,0,0,0,.26,1.53c.54,1.41,2.77,1.79,7.42,1.79,4.84,0,6.34-.87,6.34-2.61s-1.76-2.06-6.08-2.72c-1.12-.16-4.63-.7-6.38-1-6.45-.92-9.54-3.8-9.54-9.51,0-5.32,4.69-8.8,14.11-8.8,8,0,13.11,2.12,14.61,6.4a15,15,0,0,1,.53,3.59H365a3.73,3.73,0,0,0-.38-1.63c-.58-.82-2.13-1.52-6.18-1.52-4.69,0-6.07.76-6.07,2.18s.91,1.79,5.06,2.45c1.71.27,5.8.86,6.82,1,7,1.09,10.13,3.75,10.13,9.34C374.36,205.54,369.78,208.7,359.66,208.7Z"/></g><g id="_World_Report" data-name="&amp; World Report"><path class="cls-3" d="M265.6,173.13a2.16,2.16,0,0,0,.43-1.24h2.24a3.62,3.62,0,0,1-1.09,2.52c.54.4,1.14.88,1.72,1.34h-3a3.22,3.22,0,0,1-.38-.31,5.71,5.71,0,0,1-2.2.39c-1.91,0-3.61-.34-3.68-1.84,0-.12,0-.32,0-.42,0-.93.88-1.51,1.82-2a3.25,3.25,0,0,1-.66-1.72v-.42c.05-1,1-1.94,2.67-1.94a2.2,2.2,0,0,1,2.47,1.88,2.47,2.47,0,0,1,0,.35,2.93,2.93,0,0,1-1.59,2.26Zm-3.61.5c0,.4.35.55,1.18.55a3,3,0,0,0,.7-.08c-.46-.4-.94-.79-1.26-1.12C262.24,173.19,262,173.43,262,173.63Zm2-3.69v-.16a.48.48,0,0,0-.51-.51.54.54,0,0,0-.54.53,2.08,2.08,0,0,0,0,.22,1.43,1.43,0,0,0,.33.75C263.64,170.54,263.91,170.27,263.94,169.94Z"/><path class="cls-3" d="M280.92,175.75h-2.67s-1.2-4.69-1.23-5c0,.28-1.23,5-1.23,5h-2.66l-2.28-8.14h2.62s1.22,5,1.22,5.29c0-.26,1.18-5.29,1.18-5.29h2.51s1.22,5,1.22,5.29c0-.26,1.2-5.29,1.2-5.29h2.36Z"/><path class="cls-3" d="M291.76,171.62c0,2.86-1.33,4.26-4.25,4.26s-4.27-1.47-4.27-4.24c0-2.6,1.31-4.17,4.27-4.17S291.76,168.89,291.76,171.62Zm-2.46.06c0-1.62-.43-2.28-1.79-2.28s-1.77.63-1.77,2.28.61,2.29,1.78,2.29S289.3,173.49,289.3,171.68Z"/><path class="cls-3" d="M300.16,171.73a1.53,1.53,0,0,1-1,.78l1.86,3.25h-2.74l-1.4-2.74h-1.65v2.74h-2.41v-8.14h5.05a2.47,2.47,0,0,1,2.15.85,2.71,2.71,0,0,1,.47,1.72A3,3,0,0,1,300.16,171.73Zm-2.11-1.85c-.12-.26-.37-.34-.72-.34h-2v1.66h2.09c.31,0,.57-.07.65-.27a1.26,1.26,0,0,0,.09-.52A1.55,1.55,0,0,0,298.05,169.87Z"/><path class="cls-3" d="M302.2,175.75v-8.14h2.48v6.13h3.82v2Z"/><path class="cls-3" d="M314.23,175.75h-4.5v-8.14h4.37c1.44,0,2.35.36,2.83,1.06a4.38,4.38,0,0,1,.59,2.85c0,1.73-.12,2.37-.56,3.05A2.93,2.93,0,0,1,314.23,175.75Zm.93-4.23a3.33,3.33,0,0,0-.25-1.56,1.35,1.35,0,0,0-1.21-.44h-1.54v4.32h1.54a1.4,1.4,0,0,0,1.23-.46A4.46,4.46,0,0,0,315.16,171.53Z"/><path class="cls-3" d="M328.91,171.73a1.57,1.57,0,0,1-1,.78l1.86,3.25h-2.74L325.64,173H324v2.74h-2.41v-8.14h5.05a2.51,2.51,0,0,1,2.16.85,2.8,2.8,0,0,1,.46,1.72A3.16,3.16,0,0,1,328.91,171.73Zm-2.12-1.85c-.12-.26-.37-.34-.72-.34h-2v1.66h2.11c.29,0,.56-.07.65-.27a1.53,1.53,0,0,0,.09-.52A1.45,1.45,0,0,0,326.79,169.87Z"/><path class="cls-3" d="M331.06,175.75v-8.14h6.77v1.92h-4.38v1.19h4.22v1.94h-4.22v1.2h4.43v1.89Z"/><path class="cls-3" d="M346.57,172.4a2.88,2.88,0,0,1-2.21.83l-2.46,0v2.55h-2.46v-8.14h4.91a2.48,2.48,0,0,1,2.8,2.8A2.83,2.83,0,0,1,346.57,172.4Zm-2-2.5a.77.77,0,0,0-.77-.39h-1.94v1.87h1.92a.81.81,0,0,0,.81-.38,1.26,1.26,0,0,0,.09-.53A1.23,1.23,0,0,0,344.6,169.9Z"/><path class="cls-3" d="M356.53,171.62c0,2.86-1.33,4.26-4.25,4.26s-4.27-1.47-4.27-4.24c0-2.6,1.31-4.17,4.27-4.17S356.53,168.89,356.53,171.62Zm-2.46.06c0-1.62-.43-2.28-1.78-2.28s-1.77.63-1.77,2.28.61,2.29,1.77,2.29S354.06,173.49,354.06,171.68Z"/><path class="cls-3" d="M365,171.73a1.54,1.54,0,0,1-1,.78l1.86,3.25h-2.74L361.7,173H360v2.74h-2.4v-8.14h5a2.52,2.52,0,0,1,2.16.85,2.82,2.82,0,0,1,.46,1.72A3.06,3.06,0,0,1,365,171.73Zm-2.13-1.85c-.11-.26-.36-.34-.71-.34h-2.06v1.66h2.11c.3,0,.56-.07.64-.27a1.27,1.27,0,0,0,.1-.52A1.25,1.25,0,0,0,362.84,169.87Z"/><path class="cls-3" d="M371.05,169.58v6.18h-2.49v-6.18H366v-2h7.57v2Z"/></g><path class="cls-2" d="M112,210.8v16.76c3.46-4.34,8.32-3.45,14.29-4.11Z"/><rect class="cls-3" x="112.43" y="207.59" width="286.36" height="4.25"/><path class="cls-3" d="M112,199v16.77c3.46-4.34,8.32-3.47,14.29-4.13Z"/><path class="cls-16" d="M111.45,194.55v16.77c3.46-4.34,8.32-3.45,14.29-4.13Z"/><path class="cls-2" d="M398.69,210.8v16.76c-3.45-4.34-8.32-3.45-14.29-4.11Z"/><path class="cls-16" d="M399,194.55v16.77c-3.45-4.34-8.32-3.45-14.28-4.13Z"/><path class="cls-3" d="M398.78,199.09l-14.17,12.53c5.91.65,10.72-.18,14.17,4Z"/><path class="cls-16" d="M399.18,194.71v16.78c-3.45-4.34-8.32-3.46-14.29-4.12Z"/><g class="cls-17"><path class="cls-11" d="M141.48,289.33h-7.15L145.95,242h9.29l10.66,47.36h-7.27l-2.44-11.44H144ZM151,253.17c-.24-1-.6-4.47-.6-4.47s-.42,3.51-.65,4.47c-.12.53-4.23,18.53-4.23,18.53h9.23Z"/><path class="cls-11" d="M195,282.12c-2,5.12-5.9,7.75-12.69,7.75-6.08,0-10.07-2.21-12.21-6.19-2-3.76-3-10.78-3-18.23,0-7.09.6-12.75,2.5-16.86,2.08-4.46,6.38-7,12.86-7,7.51,0,11.56,3.4,13.11,8.82a30.24,30.24,0,0,1,1,8.46h-7.09a24.91,24.91,0,0,0-.84-6.67c-.83-2.68-3.33-4-6.37-4s-5,1.19-6,3.34c-1.31,2.74-1.79,9.3-1.79,13.94,0,5.6.42,11.32,1.43,14.06,1.19,3.22,3.93,4,6.55,4a5.83,5.83,0,0,0,5.9-3.69,19.59,19.59,0,0,0,1.19-7h7.09A27,27,0,0,1,195,282.12Z"/><path class="cls-11" d="M204.62,289.33h-7.15L209.09,242h9.29L229,289.33h-7.27l-2.44-11.44H207.18Zm9.53-36.16c-.24-1-.6-4.47-.6-4.47s-.42,3.51-.65,4.47c-.12.53-4.23,18.53-4.23,18.53h9.23Z"/><path class="cls-11" d="M247.27,289.33H232.2V242h14.35c5.54,0,8.82,1.61,10.79,4.82,1.9,2.92,2.38,10.55,2.38,18,0,8.58-.48,16.8-2.26,19.48C255.43,287.42,252.87,289.33,247.27,289.33Zm5.36-24.54c0-3.87-.36-11.56-1.31-13.34-1.07-2.21-2.68-3.1-5.42-3.1h-6.67v34.85h6.91c2.62,0,4.29-.78,5.3-2.74S252.63,268.78,252.63,264.79Z"/><path class="cls-11" d="M264.48,289.33V242h23.77v6.61H271.51v13.64h15.84v6.61H271.51v13.88h16.92v6.61Z"/><path class="cls-11" d="M321.79,289.33V257.82L314,289.33h-6.67l-7.81-31.27.06,31.27H293V242h9.53L311,276.22,319.35,242h9.23v47.36Z"/><path class="cls-11" d="M334.72,289.33V242H342v47.36Z"/><path class="cls-11" d="M374.63,282.12c-2,5.12-5.9,7.75-12.69,7.75-6.08,0-10.07-2.21-12.21-6.19-2-3.76-3-10.78-3-18.23,0-7.09.6-12.75,2.5-16.86,2.09-4.46,6.37-7,12.87-7,7.5,0,11.56,3.4,13.1,8.82a30.19,30.19,0,0,1,1,8.46h-7.09a25,25,0,0,0-.83-6.67c-.84-2.68-3.34-4-6.38-4s-5,1.19-6,3.34c-1.31,2.74-1.79,9.3-1.79,13.94,0,5.6.42,11.32,1.43,14.06,1.19,3.22,3.94,4,6.56,4a5.83,5.83,0,0,0,5.9-3.69,19.58,19.58,0,0,0,1.19-7h7.09A27,27,0,0,1,374.63,282.12Z"/><path class="cls-11" d="M151.87,348.46V301.1h7.33v47.36Z"/><path class="cls-11" d="M184.7,348.46,172,316.88v31.57h-6.67V301.1H173L185.35,332V301.1H192v47.36Z"/><path class="cls-11" d="M210.73,349c-9.05,0-14.36-3.4-14.6-14h7c.3,5.78,3,7.75,7.21,7.75s6.79-1.91,6.79-6.13c0-5-4.23-7.33-8.88-9.77-5.6-3-11.73-6.08-11.73-14.3,0-7.51,4.53-11.86,13.52-11.86s13.7,4.23,13.7,14h-7.09c0-5.06-1.37-7.57-6.73-7.57-4.05,0-6.19,1.61-6.19,5.36,0,4.59,4.88,6.67,9.83,9.29,5.36,2.86,10.78,6.38,10.78,14.3C224.37,344.23,219.67,349,210.73,349Z"/><path class="cls-11" d="M228.9,348.46V301.1h7.33v47.36Z"/><path class="cls-11" d="M264.22,348.46l-.36-3.33c-1.43,2.08-4.23,3.87-9.06,3.87-5.54,0-9.35-2.08-11.44-6.73-1.73-3.88-2.44-8.64-2.44-17.4,0-7.57.53-13.46,2.32-17,1.91-3.81,5.42-7.21,12.39-7.21,7.27,0,10.78,3.22,12.27,7.15,1,2.5,1.43,7.5,1.43,9h-6.91a18.77,18.77,0,0,0-1.31-6.55c-.89-2.2-2.68-3-5.3-3-2.8,0-4.77,1-5.84,3.4-1.13,2.68-1.73,7.5-1.73,14.35s.3,11.8,1.61,14.48c1.07,2.27,3,3.4,6.08,3.4,3.93,0,6.43-2.08,7-5.18.06-.84.06-9.24.06-9.24h-8.64v-6.13h15.25v14.53c0,5.6.06,11.56.06,11.68Z"/><path class="cls-11" d="M294.54,348.46V328.08H281.67v20.37h-7.09V301.1h7.09v20.2h12.87V301.1h7v47.36Z"/><path class="cls-11" d="M322.12,307.71v40.75h-7.21V307.71H305V301.1h27.16v6.61Z"/><path class="cls-11" d="M348,349c-9.05,0-14.36-3.4-14.6-14h7c.3,5.78,3,7.75,7.2,7.75s6.79-1.91,6.79-6.13c0-5-4.23-7.33-8.88-9.77-5.6-3-11.73-6.08-11.73-14.3,0-7.51,4.53-11.86,13.52-11.86s13.7,4.23,13.7,14H354c0-5.06-1.37-7.57-6.73-7.57-4.05,0-6.2,1.61-6.2,5.36,0,4.59,4.88,6.67,9.83,9.29,5.36,2.86,10.78,6.38,10.78,14.3C361.68,344.23,357,349,348,349Z"/></g><path class="cls-11" d="M141.48,287.24h-7.15l11.62-47.36h9.29l10.66,47.36h-7.27l-2.44-11.44H144ZM151,251.09c-.24-1-.6-4.47-.6-4.47s-.42,3.52-.65,4.47c-.12.53-4.23,18.53-4.23,18.53h9.23Z"/><path class="cls-11" d="M195,280c-2,5.12-5.9,7.75-12.69,7.75-6.08,0-10.07-2.21-12.21-6.2-2-3.75-3-10.78-3-18.23,0-7.09.6-12.75,2.5-16.86,2.08-4.47,6.38-7,12.86-7,7.51,0,11.56,3.4,13.11,8.82a30.23,30.23,0,0,1,1,8.46h-7.09a24.9,24.9,0,0,0-.84-6.67c-.83-2.68-3.33-4-6.37-4s-5,1.19-6,3.33c-1.31,2.74-1.79,9.3-1.79,13.94,0,5.6.42,11.32,1.43,14.06,1.19,3.22,3.93,4,6.55,4a5.83,5.83,0,0,0,5.9-3.69,19.6,19.6,0,0,0,1.19-7h7.09A27.06,27.06,0,0,1,195,280Z"/><path class="cls-11" d="M204.62,287.24h-7.15l11.62-47.36h9.29L229,287.24h-7.27l-2.44-11.44H207.18Zm9.53-36.16c-.24-1-.6-4.47-.6-4.47s-.42,3.52-.65,4.47c-.12.53-4.23,18.53-4.23,18.53h9.23Z"/><path class="cls-11" d="M247.27,287.24H232.2V239.89h14.35c5.54,0,8.82,1.61,10.79,4.83,1.9,2.92,2.38,10.54,2.38,18,0,8.58-.48,16.8-2.26,19.48C255.43,285.34,252.87,287.24,247.27,287.24Zm5.36-24.54c0-3.87-.36-11.56-1.31-13.34-1.07-2.21-2.68-3.1-5.42-3.1h-6.67v34.85h6.91c2.62,0,4.29-.77,5.3-2.74S252.63,266.69,252.63,262.7Z"/><path class="cls-11" d="M264.48,287.24V239.89h23.77v6.61H271.51v13.64h15.84v6.61H271.51v13.88h16.92v6.61Z"/><path class="cls-11" d="M321.79,287.24V255.73L314,287.24h-6.67L299.57,256l.06,31.27H293V239.89h9.53L311,274.14l8.34-34.25h9.23v47.36Z"/><path class="cls-11" d="M334.72,287.24V239.89H342v47.36Z"/><path class="cls-11" d="M374.63,280c-2,5.12-5.9,7.75-12.69,7.75-6.08,0-10.07-2.21-12.21-6.2-2-3.75-3-10.78-3-18.23,0-7.09.6-12.75,2.5-16.86,2.09-4.47,6.37-7,12.87-7,7.5,0,11.56,3.4,13.1,8.82a30.17,30.17,0,0,1,1,8.46h-7.09a25,25,0,0,0-.83-6.67c-.84-2.68-3.34-4-6.38-4s-5,1.19-6,3.33c-1.31,2.74-1.79,9.3-1.79,13.94,0,5.6.42,11.32,1.43,14.06,1.19,3.22,3.94,4,6.56,4a5.83,5.83,0,0,0,5.9-3.69,19.59,19.59,0,0,0,1.19-7h7.09A27,27,0,0,1,374.63,280Z"/><path class="cls-11" d="M151.87,346.37V299h7.33v47.36Z"/><path class="cls-11" d="M184.7,346.37,172,314.8v31.58h-6.67V299H173l12.39,30.92V299H192v47.36Z"/><path class="cls-11" d="M210.73,346.91c-9.05,0-14.36-3.4-14.6-14h7c.3,5.77,3,7.75,7.21,7.75s6.79-1.91,6.79-6.14c0-5-4.23-7.33-8.88-9.77-5.6-3-11.73-6.08-11.73-14.3,0-7.51,4.53-11.86,13.52-11.86s13.7,4.23,13.7,14h-7.09c0-5.06-1.37-7.57-6.73-7.57-4.05,0-6.19,1.61-6.19,5.36,0,4.59,4.88,6.67,9.83,9.29,5.36,2.86,10.78,6.37,10.78,14.3C224.37,342.14,219.67,346.91,210.73,346.91Z"/><path class="cls-11" d="M228.9,346.37V299h7.33v47.36Z"/><path class="cls-11" d="M264.22,346.37l-.36-3.34c-1.43,2.08-4.23,3.87-9.06,3.87-5.54,0-9.35-2.08-11.44-6.73-1.73-3.87-2.44-8.64-2.44-17.4,0-7.57.53-13.46,2.32-17,1.91-3.81,5.42-7.21,12.39-7.21,7.27,0,10.78,3.22,12.27,7.15,1,2.5,1.43,7.5,1.43,9h-6.91a18.76,18.76,0,0,0-1.31-6.55c-.89-2.2-2.68-3-5.3-3-2.8,0-4.77,1-5.84,3.4-1.13,2.68-1.73,7.5-1.73,14.35s.3,11.8,1.61,14.48c1.07,2.26,3,3.4,6.08,3.4,3.93,0,6.43-2.08,7-5.19.06-.83.06-9.23.06-9.23h-8.64v-6.14h15.25v14.54c0,5.6.06,11.56.06,11.68Z"/><path class="cls-11" d="M294.54,346.37V326H281.67v20.38h-7.09V299h7.09v20.2h12.87V299h7v47.36Z"/><path class="cls-11" d="M322.12,305.63v40.75h-7.21V305.63H305V299h27.16v6.62Z"/><path class="cls-11" d="M348,346.91c-9.05,0-14.36-3.4-14.6-14h7c.3,5.77,3,7.75,7.2,7.75s6.79-1.91,6.79-6.14c0-5-4.23-7.33-8.88-9.77-5.6-3-11.73-6.08-11.73-14.3,0-7.51,4.53-11.86,13.52-11.86s13.7,4.23,13.7,14H354c0-5.06-1.37-7.57-6.73-7.57-4.05,0-6.2,1.61-6.2,5.36,0,4.59,4.88,6.67,9.83,9.29,5.36,2.86,10.78,6.37,10.78,14.3C361.68,342.14,357,346.91,348,346.91Z"/><path class="cls-18" d="M379.53,310.22a6.82,6.82,0,0,1-11.62-4.91,6.52,6.52,0,0,1,2.13-5,6.7,6.7,0,0,1,4.7-1.86,6.86,6.86,0,0,1,4.79,11.75Zm-8.8-8.87a5.68,5.68,0,0,0,0,8,5.6,5.6,0,0,0,8,0,5.54,5.54,0,0,0,1.65-4,5.48,5.48,0,0,0-1.64-4,5.55,5.55,0,0,0-8,0Zm1,7.77v-7.58h3.67a3.66,3.66,0,0,1,1.49.39,1.91,1.91,0,0,1,1,1.81,1.66,1.66,0,0,1-.53,1.38,2.49,2.49,0,0,1-1.31.51,2.56,2.56,0,0,1,1.08.44,2.06,2.06,0,0,1,.67,1.7v.68a1.71,1.71,0,0,0,0,.22,1.09,1.09,0,0,0,.05.22l.07.21h-1.89a5.56,5.56,0,0,1-.12-1,3.49,3.49,0,0,0-.13-.93.92.92,0,0,0-.56-.56,2.23,2.23,0,0,0-.68-.12l-.44,0h-.42v2.68Zm3.62-6.09a3.31,3.31,0,0,0-1.15-.16h-.48v2.2h.77a1.84,1.84,0,0,0,1.08-.28,1,1,0,0,0,.39-.9A.87.87,0,0,0,375.36,303Z"/></svg>