<?xml version="1.0" encoding="utf-8"?>
<!-- Generator: Adobe Illustrator 21.0.0, SVG Export Plug-In . SVG Version: 6.00 Build 0)  -->
<svg version="1.1" id="Layer_1" xmlns="http://www.w3.org/2000/svg" xmlns:xlink="http://www.w3.org/1999/xlink" x="0px" y="0px"
	 viewBox="0 0 123.8 123.8" style="enable-background:new 0 0 123.8 123.8;" xml:space="preserve">
<style type="text/css">
	.st0{fill:#FFFFFF;}
	.st1{fill:url(#SVGID_1_);}
	.st2{fill:url(#SVGID_2_);}
	.st3{clip-path:url(#SVGID_4_);}
	.st4{fill:#005FA6;}
	.st5{clip-path:url(#SVGID_6_);}
	.st6{clip-path:url(#SVGID_8_);}
	.st7{fill:#C32127;}
</style>
<title>best-countries-logo</title>
<image style="overflow:visible;opacity:0.4;enable-background:new    ;" width="126" height="126" xlink:href="D5C86876BC813046.png"  transform="matrix(0.9821 0 0 0.9821 0 -0.2)">
</image>
<circle class="st0" cx="62.2" cy="61.9" r="57"/>
<radialGradient id="SVGID_1_" cx="451.0048" cy="442.5851" r="86.88" gradientTransform="matrix(0.63 0 0 0.63 -220.2995 -216.6252)" gradientUnits="userSpaceOnUse">
	<stop  offset="0.23" style="stop-color:#A8A8AB;stop-opacity:0.2"/>
	<stop  offset="0.62" style="stop-color:#A6A6A9;stop-opacity:0.6"/>
	<stop  offset="0.81" style="stop-color:#9F9EA4;stop-opacity:0.81"/>
	<stop  offset="0.97" style="stop-color:#92919A;stop-opacity:0.97"/>
	<stop  offset="1" style="stop-color:#8F8D97"/>
</radialGradient>
<circle class="st1" cx="62.2" cy="61.9" r="54.3"/>
<radialGradient id="SVGID_2_" cx="456.3048" cy="439.0051" r="86.26" gradientTransform="matrix(0.63 0 0 0.63 -220.2995 -216.6252)" gradientUnits="userSpaceOnUse">
	<stop  offset="0.23" style="stop-color:#67656E;stop-opacity:0.7"/>
	<stop  offset="0.44" style="stop-color:#64626B;stop-opacity:0.78"/>
	<stop  offset="0.6" style="stop-color:#5C5961;stop-opacity:0.84"/>
	<stop  offset="0.75" style="stop-color:#4D4B50;stop-opacity:0.9"/>
	<stop  offset="0.88" style="stop-color:#393639;stop-opacity:0.95"/>
	<stop  offset="1" style="stop-color:#221F1F"/>
</radialGradient>
<path class="st2" d="M80,11.7c0.1,0,0.2,0.1,0.3,0.1c0.4,0.1,0.7,0.1,1,0.1c0.1,0,0.2,0,0.2-0.1l0.4-0.6c-0.5-0.2-1-0.4-1.5-0.5l0,0
	l-0.1,0.1c-0.1,0-0.2,0.1-0.3,0.2c-0.1,0.1-0.2,0.1-0.2,0.4C79.8,11.5,80,11.7,80,11.7z M79.5,14.2c0.1,0.1,0.2,0.2,0.3,0.2H80
	c0.2-0.1,0.4-0.1,0.8-0.3H81c0.4,0,1,0.1,1.4,0.1h0.2l0.1,0.1l0.3,0.3c0.1,0.1,0.2,0.2,0.4,0.2h0.1l0.5,0.5c0.1,0.1,0.2,0.1,0.3,0.1
	c0.1,0,0.2-0.1,0.3-0.1l0.1-0.1c0.1,0,0.1,0,0.1,0.1c0.3,0.3,0.3,0.4,0.3,0.4s0.1,0.2,0.2,0.2h0.3c0.3,0,0.6,0,0.9,0.1
	c0.1,0,0.1,0,0.2-0.1s0.1-0.1,0.1-0.2v-0.1c0-0.1,0-0.1,0.1-0.2c0-0.1,0-0.1,0.1-0.1h0.1c0.2,0,0.3,0.1,0.4,0.3l0.2,0.2
	c0.1,0,0.1,0.1,0.3,0.1s0.2-0.1,0.3-0.2v-1.1c0-0.2-0.1-0.4-0.2-0.6c-1.9-1-3.9-2-5.9-2.8c-0.4,0.2-0.6,0.5-0.7,0.9
	c-0.1,0.1-0.1,0.1-0.1,0.2h-0.1c-0.1,0-0.2,0-0.3-0.1c-0.2-0.1-0.5-0.1-0.7-0.1c-0.3,0-0.7,0.2-0.8,0.5c-0.1,0.2-0.1,0.4-0.1,0.6
	s0,0.4,0.1,0.6C79.5,13.9,79.5,14.1,79.5,14.2z M26.9,21.5L26.9,21.5c-0.1,0-0.1-0.1-0.2-0.1c-0.2,0-0.3,0.1-0.4,0.3
	c-0.1,0.2-0.1,0.4-0.2,0.6L26,22.5l-0.6,0.3c-0.1,0.1-0.2,0.1-0.3,0.2c-0.1,0.1-0.2,0.2-0.2,0.4c0,0.1,0.1,0.2,0.1,0.3
	s0.1,0.1,0.2,0.1s0.3,0.1,0.4,0.1c0.2,0,0.5,0,0.7-0.1s0.4-0.1,0.6-0.4c0.1-0.2,0.1-0.3,0.1-0.5V22C27.1,21.9,27.1,21.7,26.9,21.5z
	 M78.3,15.2c-0.2,0.1-0.4,0.3-0.4,0.6c0,0.4,0.3,0.6,0.7,0.6c0.1,0,0.2,0,0.3-0.1c0.2-0.1,0.3-0.4,0.3-0.6c0-0.2-0.1-0.3-0.2-0.4
	c-0.1-0.1-0.2-0.2-0.4-0.2C78.6,15.2,78.4,15.2,78.3,15.2z M52.8,8.7L52.8,8.7c0.5,0,0.9-0.1,1.3-0.1c0.3-0.1,0.6-0.2,0.8-0.5
	c-0.9,0.1-1.8,0.3-2.7,0.4c0,0.1,0,0.1,0.1,0.1C52.5,8.7,52.7,8.7,52.8,8.7z M67.4,8.7c0.1,0,0.3,0,0.4-0.1c0.3-0.2,0.5-0.4,0.6-0.7
	V7.8c-0.6-0.1-1.3-0.1-1.9-0.2c0,0.1,0.1,0.2,0.1,0.4C66.8,8.3,67,8.7,67.4,8.7z M105,70.2L105,70.2c-0.5-0.2-1.1-0.3-1.3-0.7
	c-0.2-0.3-0.4-0.6-0.7-0.8c-0.3-0.2-0.6-0.4-0.9-0.4h-0.2c-0.1,0.1-0.3,0.1-0.5,0.1s-0.3,0-0.4-0.2c-0.4-0.4-1.1-0.8-1.3-1
	c-0.4-0.4-0.9-0.6-1.4-0.6H98c-0.1,0-0.2,0-0.3,0.1c0-0.2-0.1-0.4-0.2-0.5C97.4,66,97.2,66,97,66l0,0c0.1-0.1,0.2-0.3,0.2-0.5
	c0-0.2,0-0.5-0.1-0.7c-0.1-0.3-0.4-0.6-0.7-0.6l0,0c-0.2-0.5-0.4-1-0.7-1.5c-0.6-0.8-1.3-1.5-2-1.5h-0.2c-0.2,0.1-0.5,0.1-0.7,0.1
	s-0.3,0-0.4-0.4c-0.3-0.8-0.8-1-0.9-1.3c-0.1-0.2-0.3-0.4-0.6-0.3l0,0h-0.4l-0.1-0.2C90.3,59,90.2,59,90.1,59
	c0.3-0.5,0.4-1.1,0.4-1.7v-0.2c0-0.1,0-0.1-0.1-0.1c0-0.1-0.1-0.1-0.2-0.1h-0.1c-0.2,0.1-0.2,0.2-0.2,0.3c-0.1,0.2-0.2,0.3-0.2,0.5
	v0.1c-0.1-0.1-0.2-0.3-0.4-0.5c-0.2-0.2-0.4-0.3-0.7-0.2c-0.2,0-0.5,0.1-0.7,0.2c-0.2,0.1-0.4,0.3-0.4,0.6l0,0v-0.1
	c-0.1-0.3-0.5-0.5-0.8-0.5s-0.5,0.1-0.7,0.3c-0.1-0.1-0.1-0.3-0.2-0.4s-0.1-0.2-0.2-0.4s-0.1-0.3-0.4-0.3s-0.9,0.4-1.3,1.2
	c0,0.1,0,0.1-0.1,0.2v-0.2c0-0.2,0.1-0.3,0.2-0.4c0.1-0.2,0.2-0.5,0.2-0.7s-0.1-0.5-0.3-0.5h-0.2c-0.3,0-0.6,0.2-0.8,0.4l-0.3,0.3
	l0,0.1l0,0c-0.6,0.2-1,0.7-1.2,1.3c-0.3,0.6-0.5,0.9-0.7,1h-0.3c0-0.2-0.1-0.3-0.2-0.4c-0.2-0.3-0.6-0.5-1-0.6c-0.1,0-0.3,0-0.3,0.2
	s-0.5,0.4-1,0.7h-0.1c-0.1,0-0.4-0.3-0.5-0.5c-0.3-0.3-0.4-0.8-0.3-1.2v-0.3c0-0.7,0.1-1.3,0.2-2v-0.2c0-0.4-0.2-0.9-0.5-1.2
	s-0.5-0.6-0.9-0.6h-0.1c-0.2,0-0.4,0.2-0.6,0.3s-0.3,0.2-0.4,0.2l0,0c-0.1,0-0.1,0-0.2-0.1s-0.2-0.1-0.4-0.1c0-0.1,0.1-0.3,0.1-0.4
	v-1c0-0.4,0-0.6,0.3-0.8c0.3-0.4,0.4-0.8,0.4-1.3c0-0.2,0-0.5-0.1-0.7s-0.2-0.4-0.4-0.5h-0.2c-0.4,0-0.9,0.2-1.2,0.2h-0.2
	c-0.5,0.1-1,0.5-0.9,1.1l0,0v0.6c0,0.1,0,0.3-0.1,0.3l0,0c-0.1-0.1-0.2-0.2-0.4-0.2c-0.3,0-0.5,0.2-0.7,0.4s-0.3,0.3-0.4,0.2
	s-0.3-0.1-0.6-0.5c-0.6-0.5-1-1.2-1.2-2c0-0.5-0.1-1-0.1-1.4c0-0.3,0-0.7,0.1-1s0.2-0.7,0.2-1c0-0.2,0-0.4-0.1-0.6
	c0-0.2-0.1-0.3-0.2-0.4l0,0c0.2-0.2,0.4-0.4,0.6-0.5c0.5-0.3,0.9-0.7,1.2-1.2c0.1-0.1,0.3-0.1,0.4,0h0.5c0.6,0,0.5,0,1.1,0.4
	c0.2,0.1,0.3,0.2,0.5,0.2s0.4-0.2,0.5-0.4s0.1-0.3,0.1-0.5c0,0,0-0.3,0.4-0.3H74c0.5,0,1-0.2,1.2-0.1l0,0c0,0.2,0.1,0.3,0.2,0.4
	c0.1,0.2,0.3,0.4,0.6,0.5c0.1,0,0.2,0,0.3-0.1l0.1-0.1c0.1,0.5,0.2,0.9,0.3,1.4c0.2,0.5,0.3,0.9,0.7,1.1c0.1,0,0.1,0.1,0.2,0.4
	c0,0.1,0.1,0.3,0.1,0.4s0.2,0.3,0.4,0.3h0.1c0.2,0,0.3-0.1,0.4-0.2c0.3-0.4,0.4-0.9,0.4-1.4c0-0.2,0-0.4-0.1-0.5
	c-0.1-0.4-0.2-0.8-0.3-1.2c-0.1-0.4-0.2-0.8-0.4-1.2c0-0.1-0.1-0.2-0.1-0.4s0.1-0.5,0.3-0.6c0.3-0.2,0.7-0.6,1.2-1s0.8-0.9,1-1.1
	s0.4-0.3,0.6-0.5s0.5-0.4,0.5-0.8c0-0.1,0-0.3-0.1-0.4c-0.2-0.4-0.3-0.7-0.4-0.9c0.1,0.1,0.2,0.1,0.3,0.1c0.2,0,0.4-0.1,0.5-0.3
	c0.2-0.2,0.3-0.4,0.3-0.7c0-0.1,0-0.2-0.1-0.3c0-0.1,0-0.1-0.1-0.2v-0.1h0.1c0.2,0,0.3-0.1,0.4-0.2c0.1-0.1,0.1-0.3,0.1-0.5
	c0-0.1,0-0.3-0.1-0.4c0.1,0,0.2-0.1,0.3-0.1H83c0.1,0,0.2,0.1,0.4,0.1c0.2,0,0.5,0,0.7-0.1c0.2-0.1,0.4-0.2,0.6-0.4
	c0-0.1,0.1-0.2,0.1-0.3c0-0.2-0.1-0.4-0.2-0.6c-0.1-0.1-0.1-0.3-0.1-0.4c0.1-0.4,0.4-0.7,0.8-0.8h0.5c0.1,0,0.2,0,0.3-0.1
	c0.1,0,0.2-0.1,0.3-0.3l0,0l0.1-0.1c0,0.2,0,0.5,0.1,0.7c0,0.2,0.1,0.3,0.2,0.5s0.3,0.3,0.4,0.3c0.3,0,0.6-0.2,0.8-0.4
	c0.1-0.1,0.2-0.2,0.3-0.2l0.1-0.1l0,0c0.1-0.1,1.1-0.3,1.3-0.4c0,0,0.4-0.1,0.7-0.2s0.3-0.1,0.5-0.2s0.3-0.3,0.3-0.5v-0.2
	c-0.1-0.4-0.3-0.9-0.5-1.3c-0.1-0.1-0.2-0.2-0.3-0.2s-0.3,0.2-0.4,0.3c-0.1,0.1-0.2,0.2-0.2,0.4C89.7,29,89.7,29,89.6,29l0,0v-0.7
	c0-0.1-0.1-0.3-0.4-0.3c-0.1,0-0.2,0.1-0.3,0.1c-0.1,0.1-0.2,0.2-0.3,0.3l0,0c-0.1-0.1-0.1-0.1-0.1-0.2l0,0c0.1-0.2,0.2-0.4,0.2-0.6
	s-0.1-0.4-0.2-0.6c-0.2-0.4-0.5-0.6-0.9-0.6c-0.3,0-0.6,0.1-0.9,0.3c-0.3,0.2-0.4,0.2-0.5,0.3l0,0c0.3-0.4,0.8-0.6,1.1-1.1h0.1
	c0.1,0,0.3,0.1,0.4,0.1l0.2,0.2c0.1,0.1,0.2,0.1,0.3,0l0,0v0.1c0,0.2,0,0.4,0.1,0.5c0,0.2,0.2,0.4,0.4,0.4c0.3,0,0.5-0.1,0.7-0.3
	c0.1-0.1,0.2-0.1,0.3-0.2s0.2-0.2,0.2-0.3h0.1c0.2,0,0.4-0.1,0.6-0.3c0.3-0.3,0.6-0.3,0.9-0.5s0.3-0.4,0.4-0.5s0.2-0.2,0.2-0.2
	l0.1,0.1c0,0.1,0,0.2-0.2,0.4c-0.3,0.3-0.5,0.7-0.6,1.1s-0.2,0.7-0.2,0.7c-0.1,0.1-0.2,0.3-0.2,0.5s0.1,0.3,0.2,0.4s0.3,0.1,0.4,0.1
	h0.7c0.2,0,0.3,0,0.5-0.1H93c0.1,0,0.2,0.1,0.2,0.2s0.2,0.2,0.3,0.2c0.2,0,0.3-0.1,0.4-0.2l0.1-0.1h0.2c0.1,0,0.1,0,0.2,0.1
	s0.2,0.2,0.4,0.2c0.2,0,0.3-0.1,0.3-0.3c0-0.1,0.1-0.2,0.1-0.4c0-0.2,0-0.3-0.1-0.5c-0.2-0.3-0.4-0.7-0.5-1.1s-0.3-0.6-0.7-0.7
	c-0.1,0-0.2,0-0.3,0.1h-0.1c-0.1,0-0.1,0-0.1-0.1s-0.1-0.2-0.3-0.3L93,25.1c0.1-0.3,0.2-0.6,0.4-0.8c0-0.2,0.1-0.3,0.2-0.5
	s0.2-0.5,0.2-0.7c0-0.3-0.2-0.6-0.5-0.6c-0.2-0.1-0.4-0.2-0.6-0.3c-0.1-0.1-0.2-0.2-0.2-0.3c-0.1-0.3-0.3-0.7-0.6-0.9
	c-0.1-0.1-0.3-0.2-0.4-0.3s-0.2-0.2-0.4-0.2h-0.5c-0.1,0-0.2,0-0.2-0.1l0,0c-0.2-0.6-0.5-1.1-0.9-1.6c-0.1-0.2-0.4-0.6-0.7-1.1
	c-0.1-0.2-0.3-0.4-0.4-0.6s-0.2-0.3-0.3-0.4c-0.1-0.1-0.2-0.1-0.3-0.1c-0.4,0-0.5,0.3-0.9,1c-0.4,0.7-0.6,0.7-0.7,0.7
	s-0.1,0-0.2-0.1S85.7,18,85.6,18s-0.1-0.1-0.3-0.4v-0.1c0-0.1,0-0.1,0.1-0.1c0.1-0.1,0.2-0.3,0.2-0.5c0-0.1,0-0.2-0.1-0.2
	c-0.2-0.3-0.5-0.4-0.8-0.5s-0.6-0.1-0.9-0.2c-0.1,0-0.3-0.2-0.6-0.4c-0.3-0.3-0.6-0.4-1-0.5h-0.4c-0.5,0-1.1,0.1-1.6,0.2
	c-0.2,0-0.3,0.1-0.4,0.2c-0.2,0.4-0.3,0.9-0.3,1.3v0.3c0,0.2,0,0.4,0.1,0.5v0.1c-0.1,0-0.2,0.1-0.3,0.1s-0.1,0-0.2,0.1
	S79,18.1,79,18.2s0.1,0.3,0.2,0.3l0.2,0.2c0.2,0.2,0.5,0.4,0.6,0.7c0.1,0.2,0.2,0.3,0.3,0.5v0.2c0,0.2-0.1,0.3-0.2,0.5
	C80,20.8,79.7,21,79.6,21l0,0c-0.1-0.2-0.3-0.4-0.6-0.4c-0.1,0-0.2,0-0.3,0.1c-0.1,0.1-0.2,0.2-0.2,0.4v0.3c0.1,0.2,0.2,0.4,0.3,0.6
	c0.1,0.1,0.1,0.2,0.1,0.3c0,0.2,0.1,0.5,0.1,0.7c0.1,0.2,0.1,0.5,0.1,0.7v0.2C79,24,79,24,78.9,24h-0.5c-0.1-0.1-0.1-0.1-0.1-0.2
	c0.2-0.2,0.1-0.4,0.2-0.5c0-0.3,0-0.7-0.1-1c0-0.1-0.1-0.2-0.2-0.2s-0.2,0-0.3,0.1c0,0.1,0,0.1-0.1,0.2c0-0.1-0.1-0.2-0.1-0.3
	c-0.1-0.1-0.1-0.3-0.1-0.4c0-0.2-0.1-0.5-0.2-0.7s-0.4-0.2-0.6-0.2c-0.1,0-0.2,0-0.3,0.1h-0.2c-0.3,0-0.8-0.3-1.6-0.4
	c-0.7-0.1-1.3-0.4-1.8-0.8c-0.2-0.2-0.5-0.3-0.8-0.3c-0.2,0-0.4,0.1-0.6,0.2c0-0.2-0.1-0.3-0.1-0.5c-0.1-0.2-0.2-0.5-0.5-0.6
	c-0.2-0.1-0.3-0.1-0.5-0.1l0,0c-0.1-0.1-0.1-0.3-0.1-0.4v-0.3c0-0.3,0-0.4,0.2-0.6c0.3-0.3,0.6-0.6,1-0.9c0.4-0.3,0.7-0.7,1-1.1
	c0.2-0.6,0.2-0.7,0.6-0.8h1c0.1,0,0.2,0,0.3-0.1c0.2-0.1,0.3-0.3,0.2-0.4v-0.3l0.1,0.1c0.1,0.1,0.2,0.2,0.3,0.2l0,0
	c-0.2,0.1-0.3,0.4-0.3,0.6c0,0.3,0.2,0.4,0.3,0.4h0.4c0.3,0,0.6-0.1,0.8-0.3c0.2-0.1,0.4-0.2,0.4-0.3c0.1-0.1,0.1-0.1,0.2-0.1
	c0.1-0.1,0.3-0.1,0.4-0.1h0.1c0.1,0.2,0.1,0.4,0.2,0.6l0,0c-0.1-0.1-0.2-0.2-0.4-0.2c-0.2,0-0.4,0.1-0.6,0.3c0,0.1,0,0.1-0.1,0.2
	c0,0.2,0.1,0.4,0.3,0.5c0.1,0.1,0.3,0.1,0.5,0.1s0.4-0.1,0.5-0.3c0-0.1,0-0.1,0.1-0.2c0-0.1,0-0.2-0.1-0.2c0.1,0.1,0.2,0.2,0.4,0.2
	c0.2,0,0.4-0.1,0.6-0.2c0.2-0.1,0.4-0.4,0.4-0.7s-0.2-0.5-0.4-0.7c-0.3-0.2-0.6-0.4-0.9-0.5c-0.2-0.1-0.4-0.2-0.5-0.4
	c-0.1-0.1-0.1-0.2-0.2-0.3c0.2-0.2,0.4-0.3,0.7-0.3c0.2-0.1,0.3-0.1,0.5-0.2c0.3-0.1,0.5-0.5,0.5-0.8v-0.2c-0.1-0.3-0.3-0.6-0.5-0.8
	c-0.1,0-0.1,0-0.2-0.1c-0.3,0.1-0.1,0,0,0c-1.8-0.6-3.7-1-5.6-1.4c0.1,0.1,0.1,0.2,0.2,0.3c0.2,0.3,0.5,0.5,0.8,0.6h-0.1
	c-0.2,0-0.4,0.1-0.6,0.3c-0.1,0.1-0.2,0.1-0.2,0.2V9.7c-0.2-0.5-0.5-0.8-0.9-1.1c-0.1-0.1-0.1-0.1-0.1-0.2l-2-0.3
	c0.1,0.4,0.2,0.8,0.3,1.2c0.1,0.4,0.1,0.8,0.2,1.3v0.2c-0.3-0.1-0.4,0-0.7,0.1h-0.1v-0.5c0-0.3,0-0.7-0.1-1V9.3l0,0V9.1
	c0-0.1-0.1-0.2-0.1-0.3h-0.2c-0.2,0-0.4,0.1-0.6,0.1h-0.5c-0.2,0-0.3,0-0.4,0.1c-0.2,0.1-0.3,0.3-0.3,0.5s0.2,0.5,0.4,0.5
	c0.1,0,0.2,0.2,0.2,0.4c0,0.2,0,0.2-0.1,0.2c-0.2,0-0.5,0.1-0.7,0.1c-0.7,0-1.6-0.1-2-0.1s-0.6,0.1-0.9,0.1h-0.4
	c0.2-0.1,0.4-0.2,0.6-0.2h0.2c0.7,0.1,1.5-0.2,1.9-0.8c0.1-0.2,0.1-0.3,0.1-0.5c0-0.4-0.2-0.7-0.6-0.7c-0.2-0.1-0.5-0.1-0.7-0.1
	c-0.3,0-0.5-0.1-0.9-0.6h-2c-2.4,0-4.7,0.2-7,0.4c0.3,0.5,0.6,1.1,0.6,1.1l0,0l0.6,0.6L56.3,10h-0.1c-0.3-0.2-0.6-0.3-0.9-0.4
	c-0.3-0.1-0.5-0.1-0.6-0.2c-0.2-0.2-0.5-0.3-0.8-0.3S53.3,9,53,9h-0.7c-0.2,0-0.3,0-0.5-0.1c-0.2,0-0.3-0.1-0.5-0.1
	c-0.1,0-0.2,0-0.3,0.1L50.9,9c-0.1,0.1-0.3,0.2-0.4,0.4c0.3-0.5,0.2-0.6,0.2-0.7c-7.6,1.7-14.8,5-21.1,9.7l0.1,0.1
	c0.2,0.1,0.3,0.2,0.4,0.2s0.2,0,0.3-0.2c0.1-0.1,0.1-0.2,0.1-0.3v-0.1c0.1,0.1,0.2,0.2,0.2,0.3c0.1,0.1,0.2,0.2,0.3,0.3
	c0.1,0.1,0.3,0.1,0.4,0s0.1-0.1,0.2-0.1c0.1-0.1,0.2-0.1,0.3-0.1l0,0c0,0.1,0,0.1-0.1,0.2s-0.3,0.2-0.4,0.3s-0.5,0.3-0.8,0.5
	c-0.3,0.2-0.7,0.4-0.9,0.5c-0.2,0.2-0.5,0.3-0.7,0.5c-0.1,0.1-0.2,0.2-0.4,0.2c-0.1,0-0.1,0-0.1,0.1l0,0c-0.2,0-0.3,0.2-0.4,0.3
	c-0.1,0.2-0.1,0.5,0,0.8c0.1,0.1,0.2,0.2,0.4,0.2h0.1c0.8-0.2,1.5-0.5,2.2-0.9H31c0.2,0,0.4-0.1,0.9-0.4c0.5-0.3,0.8-0.6,1.1-0.8
	c0.1-0.1,0.2-0.2,0.3-0.2s0.1,0,0.1-0.1l0,0c0.1,0.3,0.4,0.6,0.7,0.7h0.2c0.6,0,0.9-0.6,1-0.7c0.3-0.3,0.4-0.7,0.4-1.1
	c0-0.1,0-0.2-0.1-0.3c0-0.1-0.2-0.2-0.3-0.2h-0.2c0.1-0.2,0.3-0.3,0.3-0.6c0-0.3,0.1-0.5,0.2-0.8c0,0.1,0,0.2-0.1,0.3
	c0,0.1-0.1,0.3-0.1,0.4s0,0.3,0.1,0.4s0.2,0.1,0.3,0.1c0.4,0,0.7-0.2,0.9-0.5c0.1-0.1,0.1-0.1,0.3-0.1s0.4-0.1,0.7-0.4l0.6-0.6
	l0.1-0.1l0,0c0.1,0,0.2,0.1,0.4,0.3c0.2,0.2,0.3,0.3,0.6,0.3c0.1,0,0.2,0,0.3-0.1l0,0c0.2,0,0.4,0.1,0.6,0.2
	c0.3,0.1,0.5,0.2,0.8,0.2c0.4,0.1,0.8,0.2,1.2,0.4c0.2,0.1,0.5,0.2,0.7,0.3s0.3,0.2,0.5,0.2c0.2,0.1,0.4,0.2,0.6,0.3
	c0.2,0.2,0.4,0.5,0.4,0.8c0,0.3,0.1,0.7,0.3,0.9c0.1,0.1,0.3,0.2,0.5,0.2h0.1c0.2,0,0.3,0.1,0.5,0.2c0.1,0.1,0.2,0.1,0.2,0.2v1
	c-0.1,0.6,0.1,1.1,0.5,1.5c0.2,0.1,0.4,0.3,0.6,0.5c0.2,0.2,0.4,0.3,0.6,0.3c0.1,0,0.1,0,0.2-0.1c0.2-0.2,0.2-0.4,0.2-0.6v-0.5
	l0.1,0.1c0.1,0.1,0.2,0.2,0.4,0.2l0.1,0.1c0.2,0.2,0.3,0.5,0.4,0.8V24c0,0.1-0.1,0.2-0.1,0.4c0,0.6,0.3,1.2,0.9,1.2
	c0.1,0,0.3,0.2,0.5,0.4c0.1,0.1,0.2,0.2,0.3,0.4l0.3,0.3l0.2,0.2l0.1,0.1l0,0c0,0.2,0.1,0.5,0.1,0.9c0.1,0.3,0.1,0.7,0.1,1
	c0,0.4-0.2,2.4-0.2,3.2v0.1c0.1,1,0.4,2,1,2.9c0.3,0.4,0.5,0.8,0.7,1.3c0.1,0.4,0.3,0.8,0.6,1.1c0.1,0.1,0.2,0.3,0.4,0.5
	c0.1,0.3,0.4,0.5,0.7,0.5H55c0.1,0,0.2,0.1,0.3,0.2c0.2,0.3,0.4,0.7,0.5,1c0.2,0.5,0.4,1.1,0.6,1.7c0.1,0.2,0.2,0.5,0.3,0.7
	s0.2,0.4,0.4,0.5c0.1,0,0.2,0.1,0.3,0.2c0.1,0.1,0.1,0.1,0.1,0.2l0,0c-0.2,0.3-0.4,0.7-0.5,1.1c0,0.1,0,0.3,0.1,0.4
	c0.1,0.1,0.2,0.1,0.3,0.1c0.2,0,0.3,0,0.5-0.1l0.2,0.2c0.2,0.3,0.3,0.5,0.5,0.8c0.1,0.2,0.2,0.3,0.2,0.4l0,0V46
	c0,0.3,0.2,0.6,0.4,0.7c0.2,0.1,0.3,0.2,0.4,0.2l0,0c0.1,0.2,0.2,0.3,0.3,0.5s0.3,0.4,0.6,0.4c0.2,0,0.3-0.1,0.4-0.2
	c0.1-0.1,0.2-0.3,0.2-0.5c-0.1-0.4-0.2-0.7-0.5-1c-0.2-0.2-0.4-0.4-0.6-0.6c-0.1,0-0.1-0.2-0.1-0.6c-0.1-0.5-0.3-0.9-0.6-1.3
	c-0.2-0.3-0.4-0.6-0.5-0.9c0.4,0.5,0.9,1.1,1.1,1.4c0.3,0.5,0.6,0.9,0.8,1.4c0.1,0.3,0.3,0.5,0.4,0.8c0.1,0.1,0.1,0.2,0.2,0.3
	c0.1,0.1,0.2,0.2,0.3,0.2s0.3,0.3,0.4,0.5c0.2,0.1,0.3,0.3,0.3,0.5c0,0.1,0.1,0.2,0.1,0.3c0.1,0.2,0.1,0.3,0.1,0.5l0,0
	c-0.1,0.1-0.1,0.2-0.1,0.3c0,0.6,0.3,1.2,0.7,1.7c0.4,0.3,1.8,1.2,2,1.3l0.4,0.6c0.2,0.3,0.5,0.6,0.9,0.6c0.5,0,0.9,0.1,0.9,0.2
	s0.2,0.2,0.3,0.4c0.1,0.2,0.3,0.4,0.6,0.4c0.2,0,0.3-0.1,0.4-0.3s0.3-0.4,0.3-0.5s0.1-0.1,0.3-0.1s0.2,0.1,0.3,0.2s0.2,0.3,0.4,0.5
	s0.4,0.5,0.6,0.8s0.5,0.5,0.9,0.5h0.1c0.1,0.1,0.2,0.1,0.3,0.2c0.2,0.1,0.4,0.2,0.6,0.2c0.1,0,0.2,0,0.3-0.1l0,0
	c0.2,0.1,0.4,0.2,0.5,0.3c0.2,0.1,0.8,0.6,0.7,1.1v0.2c0,0.6,0.3,1.1,0.8,1.4c0.3,0.3,0.7,0.6,0.9,1c0.2,0.2,0.4,0.4,0.6,0.5
	c0.1,0,0.2,0.1,0.3,0.1h0.1c0.1,0.1,0.1,0.2,0.2,0.3s0.2,0.3,0.4,0.3s0.3-0.1,0.5-0.2c0.3-0.2,0.5-0.6,0.5-1l0,0
	c0.1,0,0.3,0,0.3,0.1s0.2,0.3,0.3,0.6c0,0.1,0.1,0.3,0.1,0.4s0.1,0.2,0.2,0.3l0,0c0.1,0.1,0.1,0.3,0.1,0.4c0.1,0.3,0.1,0.5,0.1,0.8
	c0,0.2,0,0.3-0.1,0.5c-0.1,0.4-0.1,0.8-0.2,1.1v0.2l-0.2,0.2c-0.1,0.2-0.2,0.3-0.3,0.5c-0.1,0.1-0.1,0.2-0.2,0.3
	c-0.3,0.2-0.5,0.4-0.7,0.7c-0.3,0.3-0.4,0.6-0.5,1v0.1c0,0.3,0.1,0.5,0.2,0.8c0.1,0.3,0.2,0.5,0.2,0.8v0.1c0,0.1-0.2,0.3-0.3,0.6
	c-0.2,0.3-0.3,0.6-0.3,1v0.3c0.1,0.4,0.4,0.8,0.8,1c0.3,0.2,0.5,0.4,0.5,0.6c0.1,0.6,0.2,1.1,0.5,1.6c0.2,0.6,0.4,1.1,0.5,1.4
	c0.1,0.4,0.3,0.9,0.6,1.2c0.2,0.4,0.4,0.8,0.4,1.2c0,0.5,0.3,1,0.7,1.4c0.3,0.2,0.6,0.4,0.9,0.5c0.1,0.1,0.3,0.2,0.4,0.3
	c0.2,0.2,0.4,0.4,0.6,0.5c0.4,0.3,0.7,0.7,0.8,1.1c0.1,0.4,0.2,0.8,0.2,1.2v0.3c0,0.2-0.2,2.4-0.3,3.6v0.7c0,0.6,0.1,1.1,0.1,1.4
	v0.3c-0.2,0.3-0.6,0.5-0.6,1c0,0.2,0.1,0.3,0.2,0.5l0,0L83,90.3c0,0.1-0.1,0.1-0.1,0.2s-0.1,0.2-0.1,0.3s0.1,0.4,0.1,0.7
	C83,91.8,83,92,83,92.3v0.2c-0.2,0.5-0.4,1.1-0.5,1.6c-0.2,0.4-0.4,0.9-0.4,1.4v0.4c0,0.1,0,0-0.1,0.2c-0.2,0.2-0.3,0.4-0.3,0.7
	c0,0.3,0.1,0.5,0.3,0.7c0.1,0.1,0.1,0,0.1,0.2v0.2c0,0.3-0.1,0.6-0.2,0.8s-0.2,0.5-0.2,0.8s0.1,0.7,0.1,1c0.1,0.2,0.1,0.4,0.1,0.6
	s0,0.3-0.1,0.5c-0.1,0.3-0.2,0.6-0.4,0.8c-0.3,0.5-0.6,0.8-0.6,1.3v0.1c0,0.2,0.1,0.4,0.2,0.6c0,0.1,0,0.1,0.1,0.2l0,0
	c0,0.2-0.1,0.3-0.2,0.5c-0.1,0.3-0.2,0.6-0.2,0.9v0.1c0,0.3,0.2,0.6,0.5,0.6c0.1,0,0.1,0,0.1,0.1c-0.1,0.1-0.1,0.1-0.1,0.2
	c-0.1,0.1-0.2,0.3-0.2,0.5s0.1,0.3,0.2,0.4c0.2,0.2,0.4,0.3,0.4,0.4s0.1,0.1,0.1,0.3v0.4c0,0.9,0.8,1.2,0.8,1.3s0.2,0.3,0.3,0.4
	c0.1,0.2,0.3,0.3,0.5,0.4c0,0.1,0,0.1,0.1,0.2c0.9-0.4,1.9-0.8,2.8-1.3c-0.2-0.1-0.3-0.3-0.4-0.5c-0.2-0.2-0.4-0.5-0.5-0.8v-0.5
	c0-0.3,0.1-0.7,0.2-0.7c0.5-0.5,1-1,1.5-1.5c0.2-0.2,0.2-0.4,0.3-0.6c0.1-0.3,0.2-0.5,0.2-0.8c0-0.1,0-0.3-0.1-0.4s-0.2-0.1-0.3-0.1
	h-0.6c0,0,0-0.2,0.4-0.5c0.3-0.2,0.5-0.6,0.6-0.9c0.1-0.2,0.2-0.3,0.3-0.5c0.4-0.3,0.6-0.7,0.8-1.2c0-0.1,0.1-0.2,0.1-0.3
	c0-0.1,0-0.2-0.1-0.3c-0.1-0.1-0.1-0.1-0.2-0.1c-0.2,0-0.3,0.1-0.4,0.1l-0.1-0.1c-0.1-0.1-0.1-0.3-0.1-0.5c0.1,0,0.2,0.1,0.3,0.1
	s0.5,0.2,0.7,0.3H89c0.1,0,0.2,0,0.3-0.1c0.1-0.1,0.1-0.3,0.1-0.4c0-0.2,0-0.4-0.1-0.6V99c0-0.1,0-0.3,0.1-0.4l0,0
	c0.2,0.1,0.3,0.1,0.5,0.1c0.6,0,1.5-0.2,1.7-0.2s0.2-0.2,0.3-0.4c0.3-0.4,0.6-1.2,0.8-1.4c0.1-0.2,0.2-0.5,0.2-0.7s-0.1-0.5-0.3-0.6
	l-0.1-0.1c0.2,0.1,0.5,0.2,0.7,0.2c0.5,0,0.9-0.3,1.2-0.7c0.6-0.6,1-1.3,1.3-2.1c0-0.4,0.1-0.8,0.3-1.1c0.1,0.1,0.2,0.1,0.3,0.1
	c0.1,0,0.3-0.1,0.3-0.2s0.1-0.2,0.2-0.4c0.1-0.3,0.2-0.6,0.4-0.8c0.1-0.2,0.3-0.4,0.5-0.8c0.1-0.2,0.1-0.3,0.1-0.5
	c0-0.5-0.2-1-0.2-1.3s0-0.2,0.1-0.3c0.6-0.5,1.6-1.2,1.6-1.2c0.1,0,0.1,0,0.2-0.1c0.2-0.1,0.5-0.2,0.7-0.3c0.3-0.1,0.6-0.1,0.9-0.2
	c0.3,0,0.7-0.2,0.8-0.5c0.2-0.6,0.4-1.2,0.7-1.8c0.4-0.5,0.6-1,0.6-1.6c0-0.1,0-0.2-0.1-0.3l0,0c0-0.3,0.1-0.7,0.2-1
	c0.1-0.4,0.2-0.7,0.2-1.1v-0.1c0-0.3-0.2-0.7-0.2-1.1c0-0.3,0.1-0.7,0.4-0.9c0.4-0.4,0.8-0.9,1.1-1.4c0.3-0.4,0.5-0.8,0.6-1.2
	c0-0.1,0.2-0.5,0.3-1c0.1-0.5,0.2-1,0.3-1.5V72C105.9,71.3,105.6,70.6,105,70.2z M79.2,30.7c0.1-0.2,0.2-0.4,0.4-0.5l0.1-0.1h0.2
	c0.2,0,0.5-0.1,0.8-0.1h0.2c-0.2,0.1-0.3,0.2-0.5,0.3c-0.2,0.1-0.3,0.2-0.5,0.2c-0.2,0.1-0.3,0.2-0.4,0.4c0,0.1-0.2,0.2-0.4,0.3
	c-0.1,0-0.1,0-0.1,0.1C78.9,31.2,79,31,79.2,30.7z M78.4,28.9c0,0.1,0.1,0.2,0.1,0.3l0,0C78.5,29,78.4,29,78.4,28.9z M78.3,31.7
	C78.2,31.7,78.2,31.9,78.3,31.7c-0.1,0.2-0.4,0.4-0.6,0.5c0-0.1,0-0.1,0.1-0.1l0,0C77.9,32,78.1,31.9,78.3,31.7z M76.9,28.5
	L76.9,28.5v-0.3V28.5h1c-0.1,0-0.1,0-0.1,0.1c-0.1,0.1-0.1,0.3-0.1,0.5s-0.1,0.4-0.1,0.7c0,0.2,0,0.4,0.1,0.5l0,0
	c0,0.1-0.1,0.2-0.2,0.3c-0.1,0.1-0.1,0.1-0.2,0.1l0,0c0-0.2-0.1-0.5-0.1-0.7v-0.4c0-0.5-0.2-0.9-0.6-1.2
	C76.7,28.5,76.8,28.5,76.9,28.5z M76.4,28.3h-0.2c-0.7,0.1-1,0.9-1.2,1c-0.2,0.2-0.2,0.4-0.2,0.7v1.5c0,0.2,0,0.4-0.1,0.5l-0.1,0.1
	l0,0L74.5,32c0-0.2-0.1-0.3-0.1-0.5v-0.9c0-0.3-0.1-0.8-0.1-1.1s0-0.5,0.1-0.6c0.1-0.4,0.6-0.6,1-0.7h0.1
	C75.8,28.2,76.1,28.2,76.4,28.3L76.4,28.3z M72.4,26.9L72.4,26.9c0.2-0.1,0.5-0.2,0.7-0.3L73,26.3l0.1,0.3L74,26
	c0.1-0.1,0.3-0.2,0.5-0.3c0.3,0.5,0.8,0.8,1.3,1c0,0.1,0,0.1-0.1,0.2c0,0.1-0.1,0.1-0.1,0.2l0,0c-0.4,0-0.7-0.1-1.1-0.2
	c-0.1,0-0.1,0-0.1-0.1s0-0.1-0.1-0.1c0-0.1-0.2-0.2-0.3-0.2h-0.1c-0.3,0.1-0.7,0.2-1,0.4c-0.1,0-0.2,0.1-0.3,0.1h-0.1
	C72.5,27,72.4,27,72.4,26.9L72.4,26.9z M76,12.3h-0.3l-0.1-0.1C75.8,12.3,75.9,12.3,76,12.3z M73.8,9.3h0.6c0.2,0,0.5,0,0.7,0.1h0.1
	v0.1c0,0.1,0,0.2-0.1,0.3v0.1c-0.1,0-0.2,0.1-0.4,0.2c-0.2,0.1-0.4,0.3-0.5,0.6l0,0v-0.2c0-0.3-0.1-0.6-0.3-0.8
	c-0.1-0.1-0.2-0.2-0.4-0.3C73.6,9.3,73.7,9.3,73.8,9.3z M52.8,26.5c0.1,0.1,0.1,0.3,0.1,0.4C52.9,26.7,52.8,26.7,52.8,26.5z
	 M58,41.2c0-0.1,0-0.1,0.1-0.2l0,0c0,0.1,0.1,0.2,0.1,0.3s0.1,0.5,0.2,0.7l0,0C58.3,41.7,58.2,41.5,58,41.2z M96.1,66.7
	c-0.1,0.1-0.1,0.1-0.5,0.2h-0.3c0.1,0,0.1,0,0.1-0.1C95.6,66.9,95.9,66.7,96.1,66.7z M80.5,46.5c0-0.4-0.3-0.7-0.7-0.7l0,0h-0.1
	c-0.3,0-0.5,0.3-0.5,0.6c0,0.2,0.1,0.3,0.2,0.5c0.1,0.1,0.3,0.2,0.5,0.2h0.2L80,46.8l0.1,0.3C80.3,47,80.7,46.7,80.5,46.5z M80,51.5
	c-0.4,0.1-0.5,0.5-0.5,0.9c0,0.2,0,0.4,0.1,0.6c0.1,0.2,0.3,0.3,0.5,0.3h0.2c0.3-0.1,0.5-0.5,0.5-0.8C80.8,52.1,80.6,51.6,80,51.5
	C80.1,51.5,80.1,51.5,80,51.5z M81.8,49.9c0-0.3-0.2-0.6-0.4-0.8c-0.2-0.2-0.5-0.4-0.8-0.5h-0.1c-0.2-0.1-0.4-0.2-0.6-0.3
	c-0.2-0.2-0.5-0.4-0.7-0.6c-0.5-0.4-1.1-0.7-1.7-0.6c-0.3,0-0.7,0.1-1,0.3c-0.3,0.1-0.7,0.2-0.7,0.2s-0.2,0.1-0.2,0.3V48
	c0,0.2,0.1,0.4,0.2,0.6c0.2,0.1,0.3,0.1,0.5,0.1h2.2c0.2,0.3,0.4,0.5,0.7,0.7c0.2,0.2,0.5,0.3,0.7,0.5s0.6,0.3,0.9,0.3
	c0.1,0,0.3,0,0.4-0.1C81.6,50.3,81.7,50.2,81.8,49.9L81.8,49.9z M86.7,50.7L86.7,50.7c-0.4,0.1-0.5,0.5-0.5,0.9c0,0.2,0,0.4,0.1,0.6
	c0.1,0.2,0.3,0.3,0.5,0.3H87c0.3-0.1,0.5-0.5,0.5-0.8C87.5,51.3,87.3,50.8,86.7,50.7C86.8,50.7,86.8,50.7,86.7,50.7z M84.1,49.7
	c-0.3,0-0.6,0.1-0.8,0.1c-0.3,0.1-0.6,0.4-0.8,0.7L82,51c-0.1,0.1-0.1,0.2-0.1,0.3s0.1,0.2,0.2,0.2c0.3,0.1,0.7,0.1,1,0.1
	c0.2,0,0.4,0.2,0.7,0.4c0.1,0.1,0.2,0.1,0.3,0.1c0.2,0,0.4-0.1,0.6-0.2c0.1,0,0.1,0,0.2-0.1l0,0l0.1,0.1c0.1,0.1,0.1,0.2,0.3,0.2
	c0.2,0,0.3-0.1,0.3-0.3l0,0c0-0.1,0-0.3,0.1-0.4v-0.1c0-0.8-0.5-1.4-1.2-1.7C84.4,49.7,84.3,49.7,84.1,49.7z"/>
<path class="st0" d="M116.8,61.8c0-7.3-1.4-14.5-4.3-21.2c-2.7-6.5-6.7-12.4-11.7-17.4c-5-4.9-10.9-8.9-17.3-11.7
	c-6.6-2.8-13.7-4.2-20.9-4.3h-0.9c-7.1,0-14.2,1.4-20.8,4.2c-6.5,2.7-12.4,6.7-17.3,11.7c-5,5-9,10.9-11.7,17.4
	c-2.9,6.7-4.3,14-4.3,21.3v0.1c0,7.3,1.4,14.5,4.3,21.2c2.7,6.5,6.7,12.5,11.7,17.4c10.1,10.2,23.9,15.9,38.2,16h0.9
	c7.2,0,14.3-1.5,20.9-4.3c6.5-2.7,12.4-6.7,17.3-11.7c5-5,9-10.9,11.7-17.4C115.4,76.3,116.9,69.1,116.8,61.8L116.8,61.8z
	 M22.5,88.8c-4-8.3-6.2-17.4-6.2-26.7h19.1c-0.1,9,1.1,18,3.5,26.7H22.5z M39,89.5c1,3.7,2.4,7.3,4.1,10.7c1.4,2.8,3,5.5,4.9,8h-9.1
	c-6.8-4.9-12.4-11.3-16.2-18.8C22.8,89.5,39,89.5,39,89.5L39,89.5z M16.2,61.5c0.1-9.2,2.2-18.4,6.2-26.7h16.4
	c-2.4,8.7-3.6,17.7-3.5,26.7H16.2z M22.8,34.1c3.7-7.5,9.3-14,16.2-18.8h9.1c-1.9,2.4-3.6,5.1-4.9,7.9c-1.7,3.4-3,7-4.1,10.7H22.8
	V34.1z M39.9,14.6c5.1-3.3,10.9-5.5,17-6.3c-1.9,0.8-3.7,1.9-5.3,3.3c-1,0.9-2.1,2-3,3H39.9z M47.9,9.8c-1.3,0.5-2.6,1.1-3.9,1.7
	c-1.8,0.9-3.6,1.9-5.3,3.1h-2.5C39.9,12.6,43.9,11,47.9,9.8z M35,15.3h2.7c-3.1,2.3-6,4.9-8.5,7.9C26.4,26.5,24,30.1,22,34h-5.9
	C20.7,26.2,27.2,19.8,35,15.3L35,15.3z M15.7,34.8h6c-0.9,1.9-1.7,3.8-2.4,5.8c-2.4,6.7-3.6,13.8-3.6,20.9H8.5
	C8.4,52.1,10.9,42.9,15.7,34.8z M8.5,62.1h7.2c0,7.1,1.2,14.2,3.6,20.9c0.7,2,1.5,3.9,2.4,5.8h-6C10.9,80.7,8.4,71.5,8.5,62.1
	L8.5,62.1z M16,89.5h5.9c2,3.9,4.4,7.5,7.2,10.8c2.5,3,5.4,5.6,8.5,7.9H35C27.2,103.6,20.7,97.2,16,89.5L16,89.5z M36.2,109h2.5
	c1.7,1.2,3.5,2.2,5.3,3.1c1.3,0.6,2.6,1.2,3.9,1.7C43.8,112.6,39.9,111,36.2,109L36.2,109z M40,109h8.6c0.9,1.1,1.9,2.1,3,3
	c1.6,1.4,3.4,2.5,5.3,3.3C50.8,114.4,45.1,112.3,40,109L40,109z M61.8,115.6c-4.3-0.1-8.5-2.4-12.3-6.7h12.3V115.6z M61.8,108.3
	H48.9c-2-2.6-3.8-5.3-5.2-8.3c-1.6-3.4-2.9-6.8-4-10.4h22L61.8,108.3L61.8,108.3L61.8,108.3z M61.8,88.8H39.5
	C37.1,80.1,36,71.1,36,62.1h25.7L61.8,88.8L61.8,88.8z M61.8,61.5H36c-0.1-9,1.1-18,3.5-26.7h22.2L61.8,61.5L61.8,61.5z M61.8,34.1
	H39.7c1-3.6,2.3-7.1,4-10.4c1.4-3,3.2-5.7,5.2-8.3h12.9L61.8,34.1z M61.8,14.6H49.5c3.7-4.2,7.9-6.5,12.3-6.7V14.6z M108.4,34.1
	h-5.1c-2-3.9-4.4-7.5-7.3-10.8c-2.6-3-5.5-5.6-8.7-7.9h2.2C97.4,19.9,103.9,26.3,108.4,34.1L108.4,34.1z M87,88.8
	c2.5-8.7,3.7-17.7,3.7-26.7h18.4c0,9.3-2.2,18.4-6.3,26.7H87z M102.5,89.5c-3.9,7.5-9.5,14-16.5,18.8h-8.7c2-2.4,3.8-5.1,5.2-7.9
	c1.8-3.4,3.2-7,4.3-10.7h15.7V89.5z M90.7,61.5c0-9-1.2-18-3.7-26.7h15.8c4.2,8.3,6.3,17.4,6.3,26.7H90.7z M86.8,34.1
	c-1.1-3.7-2.6-7.3-4.3-10.7c-1.4-2.8-3.2-5.5-5.2-7.9H86c7,4.8,12.7,11.2,16.5,18.8H86.8V34.1z M88.3,14.6h-2
	c-1.7-1.2-3.5-2.2-5.4-3.1c-1-0.5-2.1-0.9-3.1-1.4C81.4,11.3,85,12.8,88.3,14.6L88.3,14.6z M84.9,14.6h-8.2c-1-1.1-2-2.1-3.2-3
	C71.9,10.2,70,9.2,68,8.4C74.1,9.2,79.8,11.3,84.9,14.6L84.9,14.6z M62.7,7.9c4.6,0.1,9,2.4,13.1,6.7H62.7V7.9z M62.7,15.3h13.7
	c2.2,2.5,4,5.3,5.5,8.3c1.7,3.3,3.1,6.8,4.2,10.4H62.7V15.3z M62.7,34.8h23.6c2.5,8.7,3.7,17.7,3.7,26.7H62.7V34.8z M62.7,62.1h27.4
	c0,9-1.2,18-3.7,26.7H62.7V62.1z M62.7,89.5h23.4c-1.1,3.6-2.5,7.1-4.2,10.4c-1.5,3-3.4,5.7-5.5,8.3H62.7V89.5z M62.7,109h13.1
	c-4,4.3-8.4,6.6-13.1,6.7C62.7,115.7,62.7,109,62.7,109z M73.5,112c1.1-1,2.2-2,3.2-3.1H85c-5.1,3.3-10.9,5.5-17,6.3
	C70,114.4,71.9,113.3,73.5,112L73.5,112z M77.8,113.4c1-0.4,2.1-0.9,3.1-1.4c1.9-0.9,3.7-2,5.4-3.1h2
	C85,110.8,81.5,112.3,77.8,113.4L77.8,113.4z M89.5,108.3h-2.2c6.8-4.9,12.2-11.3,16-18.7h5.1C103.8,97.3,97.3,103.7,89.5,108.3
	L89.5,108.3z M108.8,88.8h-5.2c0.9-1.9,1.8-3.8,2.5-5.8c2.4-6.7,3.7-13.8,3.7-20.9h6.2C116.1,71.5,113.6,80.7,108.8,88.8z
	 M109.9,61.5c0-7.1-1.3-14.2-3.7-20.9c-0.7-2-1.6-3.9-2.5-5.8h5.2c4.7,8.1,7.2,17.3,7.2,26.7H109.9z"/>
<image style="overflow:visible;opacity:0.53;enable-background:new    ;" width="571" height="195" xlink:href="D5C86876BC813041.png"  transform="matrix(0.2396 0 0 0.2324 -5.35 39.04)">
</image>
<rect x="0.6" y="45" class="st0" width="123.2" height="33.6"/>
<g>
	<g>
		<defs>
			<rect id="SVGID_3_" x="3.3" y="47.7" width="117.9" height="28.3"/>
		</defs>
		<clipPath id="SVGID_4_">
			<use xlink:href="#SVGID_3_"  style="overflow:visible;"/>
		</clipPath>
		<g class="st3">
			<rect x="1.2" y="43.9" class="st4" width="126.9" height="32.1"/>
		</g>
	</g>
</g>
<g>
	<g>
		<defs>
			<rect id="SVGID_5_" x="3.3" y="47.7" width="117.9" height="28.3"/>
		</defs>
		<clipPath id="SVGID_6_">
			<use xlink:href="#SVGID_5_"  style="overflow:visible;"/>
		</clipPath>
		<g class="st5">
			<rect x="1.8" y="70.9" class="st0" width="126.9" height="1.3"/>
		</g>
	</g>
</g>
<g>
	<g>
		<defs>
			<rect id="SVGID_7_" x="3.3" y="47.7" width="117.9" height="28.3"/>
		</defs>
		<clipPath id="SVGID_8_">
			<use xlink:href="#SVGID_7_"  style="overflow:visible;"/>
		</clipPath>
		<g class="st6">
			<rect x="1.2" y="72" class="st7" width="126.9" height="14.9"/>
		</g>
	</g>
</g>
<path class="st0" d="M24.7,65.5V53.1h-3.9V65c0,1.8-1.6,3-3.8,3c-2.5,0-3.9-1.1-3.9-3V53.1H9.2v12.2c0,4.2,3.3,5.8,7.8,5.8
	c3.1,0,5.5-0.8,6.8-2.5v2.3h3.5v-3.6h-2.8C24.6,66.7,24.7,66.1,24.7,65.5z"/>
<path class="st0" d="M43.4,65.7c0-3-1.8-4.5-5.4-5.2c-0.4-0.1-1.6-0.3-2.5-0.5c-2.9-0.6-4-1.1-4-2.4c0-1,0.6-1.7,3.5-1.7
	c2.3,0,3.2,0.5,3.7,1.5c0.1,0.3,0.2,0.6,0.2,0.9h4c0-0.6-0.2-1.2-0.4-1.7c-0.9-2.3-3-3.8-7.5-3.8c-5.2,0-7.7,2-7.7,5
	s2.1,4.6,5.6,5.2c0.8,0.2,2.1,0.4,2.6,0.5c2.9,0.5,3.6,1.1,3.6,2.5c0,1.2-0.9,1.9-3.7,1.9c-2.4,0-3.5-0.4-4-1.5
	c-0.1-0.4-0.2-0.7-0.2-1.1h-4c0,0.6,0.1,1.2,0.3,1.8c0.7,2.3,2.7,3.9,8,3.9c3.4,0,5.6-0.9,6.8-2.5v2.4h3.5v-3.6H43
	C43.3,66.8,43.4,66.3,43.4,65.7z"/>
<polygon class="st0" points="58.5,64.5 51.7,53 47.1,53 47.1,70.9 50.9,70.9 50.9,58.7 58,70.9 62.2,70.9 62.2,53 58.5,53 "/>
<path class="st0" d="M70.9,57.3c-2.5-0.1-4.9,0.9-6.4,2.9c-0.7,1.2-1.1,2.5-1.1,3.9s0.3,2.8,1,4c1.3,2,3.6,2.9,6.5,2.9
	c1.7,0,3.4-0.4,4.9-1.2c1.2-0.7,2.1-1.9,2.4-3.3h-3.8c-0.2,0.5-0.6,0.8-1.1,1c-0.8,0.3-1.6,0.4-2.4,0.4c-1.1,0.1-2.2-0.3-3.1-1
	c-0.5-0.4-0.7-1-0.7-1.6h11.1c0.3-1.8-0.1-3.7-1.1-5.3C75.6,58.2,73.3,57.2,70.9,57.3z M67.1,63c0.1-0.6,0.4-1.2,0.8-1.6
	c0.8-0.7,1.9-1,3-0.9c1.1,0,2.1,0.3,2.9,1c0.4,0.4,0.6,0.9,0.6,1.5H67.1z"/>
<path class="st0" d="M97.9,57.7l-3.1,9.8l-3-9.8h-4.2l-2.9,9.8l-3.1-9.8h-4l4.7,13.2h4.5c0,0,2.6-7.5,2.6-8c0-0.1,0.2-0.9,0.2-0.9
	c0,0.3,0.1,0.6,0.2,0.9c0,0.4,2.6,8,2.6,8h4.5l4.8-13.1C101.7,57.7,97.9,57.7,97.9,57.7z"/>
<path class="st0" d="M110.7,62.9c-0.5-0.1-2.3-0.3-3.1-0.5c-1.9-0.3-2.3-0.5-2.3-1.1s0.6-1,2.7-1c1.8,0,2.5,0.3,2.8,0.7
	c0.1,0.2,0.2,0.5,0.2,0.7h3.7c0-0.5-0.1-1.1-0.2-1.6c-0.7-1.9-2.9-2.8-6.5-2.8c-4.2,0-6.3,1.5-6.3,3.9s1.4,3.8,4.3,4.2
	c0.8,0.1,2.4,0.4,2.9,0.4c1.9,0.3,2.7,0.5,2.7,1.2c0,0.7-0.7,1.1-2.8,1.1s-3.1-0.2-3.3-0.8c-0.1-0.2-0.1-0.5-0.1-0.7h-3.8
	c0,0.4,0,0.9,0.1,1.3c0.6,2.2,2.7,3,7.1,3s6.6-1.4,6.6-4.1C115.3,64.5,113.9,63.3,110.7,62.9z"/>
<path class="st0" d="M65.5,56.7c0.3,0,0.7-0.1,1-0.2c0.1,0,0.1,0.1,0.2,0.1h1.4c-0.3-0.2-0.5-0.4-0.8-0.6c0.3-0.3,0.5-0.7,0.5-1.1
	h-1c0,0.2-0.1,0.4-0.2,0.5c-0.2-0.2-0.4-0.4-0.6-0.5c0.4-0.2,0.7-0.6,0.7-1v-0.2c0-0.4-0.4-0.8-1.1-0.8s-1.2,0.4-1.2,0.9V54
	c0,0.3,0.1,0.6,0.3,0.8c-0.4,0.2-0.8,0.5-0.8,0.9v0.2C63.9,56.5,64.7,56.7,65.5,56.7z M65.3,54c0-0.1,0.1-0.2,0.2-0.2
	c0.2,0,0.2,0.1,0.2,0.2v0.1c0,0.2-0.1,0.3-0.3,0.4C65.4,54.3,65.3,54.2,65.3,54z M65.2,55.3c0.2,0.2,0.4,0.3,0.6,0.5h-0.3
	c-0.4,0-0.5-0.1-0.5-0.2S65,55.5,65.2,55.3z"/>
<path class="st0" d="M71.1,56.5c0,0,0.5-2.1,0.6-2.2c0,0.1,0.5,2.2,0.5,2.2h1.2l1-3.6h-1.1c0,0-0.5,2.2-0.5,2.3
	c0-0.1-0.5-2.3-0.5-2.3h-1.1c0,0-0.5,2.2-0.5,2.3c0-0.1-0.5-2.3-0.5-2.3H69l1,3.6H71.1z"/>
<path class="st0" d="M76.3,56.7c0.9,0.2,1.7-0.5,1.9-1.4c0-0.2,0-0.4,0-0.5c0-1.2-0.6-1.8-1.9-1.8c-0.9-0.1-1.8,0.5-1.9,1.4
	c0,0.1,0,0.3,0,0.4c-0.1,0.9,0.5,1.8,1.4,1.9C76,56.7,76.2,56.7,76.3,56.7z M76.3,53.7c0.6,0,0.8,0.3,0.8,1s-0.3,1-0.8,1
	s-0.8-0.3-0.8-1S75.7,53.7,76.3,53.7z"/>
<path class="st0" d="M79.8,55.3h0.7l0.6,1.2h1.2l-0.7-1.4c0.2,0,0.3-0.1,0.4-0.3s0.2-0.5,0.2-0.7c0-0.3-0.1-0.6-0.2-0.8
	c-0.3-0.3-0.6-0.4-1-0.4h-2.3v3.6h1.1L79.8,55.3z M79.8,53.9h0.9c0.2,0,0.3,0,0.3,0.1v0.4c0,0.1-0.2,0.1-0.3,0.1h-0.9V53.9z"/>
<polygon class="st0" points="85.7,55.7 84,55.7 84,53 82.9,53 82.9,56.5 85.7,56.5 "/>
<path class="st0" d="M89.5,56c0.2-0.4,0.3-0.8,0.3-1.3c0-0.7,0-0.9-0.3-1.3c-0.3-0.4-0.8-0.6-1.3-0.5h-2v3.6h2
	C88.7,56.6,89.2,56.4,89.5,56z M87.4,55.7v-1.9h0.7c0.3,0,0.4,0,0.5,0.2s0.1,0.4,0.1,0.7s0,0.5-0.1,0.8c-0.2,0.1-0.4,0.2-0.6,0.2
	H87.4z"/>
<path class="st0" d="M92.7,55.3h0.7l0.6,1.2h1.2l-0.8-1.4c0.2,0,0.3-0.1,0.4-0.3s0.2-0.5,0.2-0.7c0-0.3-0.1-0.6-0.2-0.8
	c-0.3-0.3-0.6-0.4-1-0.4h-2.2v3.6h1.1L92.7,55.3z M92.7,53.9h0.9c0.2,0,0.3,0,0.3,0.1v0.4c0,0.1-0.2,0.1-0.3,0.1h-0.9V53.9z"/>
<polygon class="st0" points="98.9,55.7 96.9,55.7 96.9,55.2 98.8,55.2 98.8,54.3 96.9,54.3 96.9,53.9 98.9,53.9 98.9,53 95.8,53 
	95.8,56.5 98.9,56.5 "/>
<path class="st0" d="M100.7,55.5h1.1c0.4,0,0.8-0.1,1-0.4c0.2-0.2,0.3-0.6,0.3-0.9c0-0.4-0.1-0.8-0.3-0.9c-0.2-0.2-0.6-0.3-0.9-0.3
	h-2.3v3.6h1.1L100.7,55.5L100.7,55.5z M100.7,53.9h0.9c0.2,0,0.3,0.1,0.3,0.2v0.5c-0.1,0.1-0.2,0.2-0.4,0.2h-0.9L100.7,53.9
	L100.7,53.9z"/>
<path class="st0" d="M105.4,56.7c0.9,0.2,1.7-0.5,1.9-1.4c0-0.2,0-0.4,0-0.5c0-1.2-0.6-1.8-1.9-1.8c-0.9-0.1-1.8,0.5-1.9,1.4
	c0,0.1,0,0.3,0,0.4c-0.1,0.9,0.5,1.8,1.4,1.9C105.1,56.7,105.3,56.7,105.4,56.7z M105.4,53.7c0.6,0,0.8,0.3,0.8,1s-0.3,1-0.8,1
	s-0.8-0.3-0.8-1S104.8,53.7,105.4,53.7z"/>
<path class="st0" d="M108.8,55.3h0.7l0.6,1.2h1.2l-0.8-1.4c0.2,0,0.3-0.1,0.4-0.3s0.2-0.5,0.2-0.7c0-0.3-0.1-0.6-0.2-0.8
	c-0.3-0.3-0.6-0.4-1-0.4h-2.3v3.6h1.1L108.8,55.3L108.8,55.3L108.8,55.3z M108.9,53.9h0.9c0.2,0,0.3,0,0.3,0.1v0.4
	c0,0.1-0.2,0.1-0.3,0.1h-0.9V53.9z"/>
<polygon class="st0" points="112.7,56.5 113.8,56.5 113.8,53.9 114.9,53.9 114.9,53 111.5,53 111.5,53.9 112.7,53.9 "/>
</svg>
