<?xml version="1.0" encoding="utf-8"?>
<!-- Generator: Adobe Illustrator 21.0.0, SVG Export Plug-In . SVG Version: 6.00 Build 0)  -->
<svg version="1.1" id="Layer_1" xmlns="http://www.w3.org/2000/svg" xmlns:xlink="http://www.w3.org/1999/xlink" x="0px" y="0px"
	 viewBox="0 0 358.6 218" style="enable-background:new 0 0 358.6 218;" xml:space="preserve">
<style type="text/css">
	.st0{fill:#BACFE2;}
	.st1{fill:none;}
	.st2{fill:url(#SVGID_1_);}
	.st3{fill:#FFFFFF;}
	.st4{clip-path:url(#SVGID_3_);fill:#0460A7;}
	.st5{clip-path:url(#SVGID_5_);fill:#FFFFFF;}
	.st6{clip-path:url(#SVGID_7_);fill:#C32328;}
	.st7{clip-path:url(#SVGID_9_);fill:#0460A7;}
	.st8{clip-path:url(#SVGID_11_);fill:#FFFFFF;}
	.st9{clip-path:url(#SVGID_13_);fill:#C32328;}
</style>
<g>
	<g>
		<path class="st0" d="M354.5,28.2c0.2-3.3-3.1-3-3.8-5.3c-0.8-3.6-2.3-6.4-3.1-9.9c-1.9,0.1-2.4-1.2-3.8-1.5
			c-1.3,2.4-2.6,2-5.3,1.5c-1.2,2.4-2.3,4.9-3.1,7.6c1.8,2.1-1,4.4,0.8,6.9c-1.8,0.9-1.3,3.2-2.3,4.6c-0.6,0.9-2.4,0.8-3.1,1.5
			c-1,1.2,0.8,3.4-1.5,3.1c-1.5-1.3-1,0.1-3.1,0c-3.8,3-11.2,2.5-16,4.6c-2,1.9-2.8,4.8-4.6,6.9c0.7,6.3-1.4,9.8-6.1,10.7
			c-3.9-1.3-7.8-0.2-10.7,1.5c-0.1,2.4,2.4,2.2,1.5,5.3c-2.4,3.2-5.9,5.3-9.2,7.6c-1.1,0.3-1.3,0.9-2.3,0c-1.1,3.7-4.9,4.8-8.4,6.1
			c-1.6-1.2-5-0.6-6.1-2.3c1.7-1.6,2.9-3.7,3.1-6.9c1.1-0.7,2.4-1.1,2.3-3.1c0.4-2.7-0.9-3.7-1.5-5.3c-1.3-1.2-1.6-3.5-3.8-3.8
			c-2.8,0-1.9,3.7-4.6,3.8c-1-2.4,1-2.8,1.5-3.8c0.7-1.4,1.1-2.2,1.5-3.8c0.9-3.7-2.4-3.2-1.5-6.9c-4-0.1-7.8-4.4-12.2-1.5
			c1.1,0.2,0.9,1.7,1.5,2.3c-2.9,0.7-1.8,1.8-1.5,4.6c-2.4,0.4-2-2.6-3.8-0.8c-1.5,1-2.3,5.1-0.8,6.9c-3.6,2.6-0.6,9.7,0.8,12.2
			c-0.8,4.1-0.4,9.2-4.6,9.9c-1.8-2-3.7-3.9-4.6-6.9c-0.4-9,0.3-17.1,3.1-22.9c-2.9-1.5-2.6,3.9-3.8,1.5c0.9-3.1,3-5.2,4.6-7.6
			c2.4,2.4,2.7-1.8,5.4-1.5c4.7,0.6,7.5-0.6,10.7-1.5c0.6-4.6-6.6-1.6-6.1-6.1c-2.3,0.5-3.3,2.3-6.9,1.5c-1.8,0.7-2,3.1-5.3,2.3
			c-2.2-0.1-2.8-1.7-3.8-3.1c-1.9-1-3.7,1.7-3.8,0c1.1-1.2,1.6-3,2.3-4.6c-3.9-0.6-3.6,3-6.1,3.8c-4.1,0.8-5.3,4.4-9.9,4.6
			c0.2-1,1.1-1.5,0.8-3.1c-3.5,0.1-4.6,2.5-8.4,2.3c2.5-2.6,4.7-5.5,7.6-7.6c2.6-1.2,5.8-1.9,7.6-3.8c-2.5,0.7-4.7-0.8-5.3-0.8
			c-0.6,0-1.1,0.9-1.5,0.8c-0.9-0.2-1.5-1.6-2.3-1.5c-1.1,0.1-1.4,2.1-3.1,1.5c-3.1-1.7-6.2-3.5-9.9-4.6c-2.5,2.4-4.7,0.2-8.4,0
			c-0.2-2.3,0.1-5.2-2.3-5.3c-2.1-0.5,0.5,3.6-1.5,3.1c-27.2,0.1-54.9-2.6-77.9-5.3C100.1,14.7,89,13,79.8,10.8
			c-3.3-0.8-6.6-1.1-9.2-3.1c-0.8,2.3-2-0.9-3.1-0.8c-4.6,0.2-10.1-1.8-15.3-3.1c-5.5-1.4-10.8-2.9-16-3.8c-1.5,2.3,0.3,5.5-0.8,6.9
			C31.3,5.7,28,3.6,23.9,2.3c-2.2,5.5,1,14.8-1.5,18.3c1.1,0.1,2.8-0.3,3.1,0.8c-1.8-0.2-2.9,0.1-3.8,0.8c0.9,4.2-2.4,4.2-1.5,8.4
			c-2.5,2.6-4,6.2-4.6,10.7c-1.8,1.5-4.1,2.5-4.6,5.3c0.9,9.8-2.5,15.3-5.3,21.4c0.1,1.7,1.3,2.3,1.5,3.8c0.6,3.5-1.2,6.9-1.5,9.9
			c0.8,1.5,1.9,2.7,3.1,3.8c-1.5,0.1,0.9,2.6,0,4.6c2.9-0.4,0.5,4.6,3.1,4.6c-1.1,0.1-0.7,1.8-0.8,3.1c2.6,3.3,1.9,3.7,1.5,8.4
			c2.5,5.4,5.4,9.8,3.8,17.3c4.9,0.7,7.9,3.1,9.9,6.6c1,0,2,0,3.1,0c0.6,3.5,4.5,5.1,4.5,9.7c0,1.8,0,3.6,0,5.3
			c7,0.2,10.7,1.8,16.9,1.5c1.9,1.3,0.9,1.3,1.9,3.1c8.4,4.1,16.2,8.9,23.9,13.7c7.4,0.8,13.8,2.6,21.5,3.1
			c-0.1-1.9,0.4-3.2,1.6-3.8c3.5,0.8,7.5,1.2,11.5,1.5c2.5,7.2,11.6,7.8,10.7,18.3c3.7,2.7,7.1,5.7,11.5,7.6
			c1.5-2.1,2.6-4.5,4.6-6.1c2.6-1.3,4.5,0.6,8.4,0c2.2,4.4,6.4,6.9,6.9,13c1,0.8,2.3,1.3,3.1,2.3c-0.9,3.5,2.7,2.4,3.1,4.6
			c-1.7,2.8,2.8,5.1,2.3,9.2c2.5,0.6,4.5,1.6,6.1,3.1c3.9-0.7,6.4,2.8,8.4,1.5c0.5-2.8-0.5-4.4-1.5-5.7c2.1-2.5-1.1-4.5-0.8-8
			c0.8,0,1.5,0,2.3,0c-0.4-3.5,4-3.8,4.6-7.3c1,0,1.1,1.1,2.3,0.9c2.3-1.3-2.1-2.3,0-3c3.1,1.9,3.1-1.3,6.9-0.7
			c1.9-2.2,3.5-4.6,4.6-7.6c4.1,2.5,5.3-1.5,8.4-2.3c2.9,1.2,5.7,2.4,9.9,2.3c1.6-0.7,2.3-2.3,4.6-2.3c1.2,3.7,10.5,6.9,13,2.3
			c0.8,1.7,6.3,3.5,6.9,0.8c-1.7-0.8-3.4-1.7-4.6-3.1c1-0.3,1.6-1,1.5-2.3c-1.8-1.4-5.4,0.8-6.9-2.3c1.3,0.1,2.4-0.2,3.1-0.8
			c-0.1,1.4,0.8,1.8,2.3,1.5c3.3-1.3,4.3-2.5,8.4-1.5c1.3-0.5,1.3-2.3,2.3-3.1c1,1.3,1.6,3,3.8,3.1c1.6-1,3.2-1.9,4.6-3.1
			c1.6,2.5,6.6,1.6,9.9,2.3c1.8,1,1.8,3.9,4.6,3.8c2.1-1.5,3.5-3.7,6.1-4.6c5.2,1.2,6.9,5.8,11.5,7.6c2,2.3,0.5,8.2,3.8,9.2
			c-1.5,2.1-1.4,3.1-0.8,6.1c0.8,1.5,3.5,1.1,4.6,2.3c0.2,2.6,2.9,2.7,2.3,6.1c1.4,0.8,3.6,1,5.3,1.5c-0.1,2.9,1.5,4.1,3.8,4.6
			c1.4,0.2,1.7-0.9,3.1-0.8c1.3-3.3,2.6-6.6,2.3-11.5c-4.9-12.4-12.1-22.5-17.6-34.4c2.5-1.1-1.6-1.9-0.8-3.8
			c1.6-1.5,2.8-2.8,1.5-5.3c2.1-1.4,2.8-4.3,3.8-6.9c1.1,0.2,1.3,1.3,2.3,1.5c1.5-2.9,4-4.6,6.1-6.9c-0.3-3.6,1.8-4.8,3.1-6.9
			c1-0.2,1.5-1.1,3.1-0.8c-0.1-3.6,3.1-4,3.8-6.9c2.5,0.7,1.6-2,3.1-2.3c1.7,0.2,2.9-0.2,3.1-1.5c-2.9-1.2-1.5-0.6-0.8-3
			c-0.1-1.4-2.5-2.3-2.3-2.3c2,0,4.1,0,6.1,0c0-3.5,1.3-2.3,0.8-4.6c-3.5-1.4-1,3-3.8,2.3c0-1,1-1.1,0.8-2.3
			c-2.6-1.2-3.3,3.2-4.6,0.8c0.7-1.3,2.4-1.7,4.6-1.5c1.6-2.8,0.8-3.6,0.8-8c-3.7,0.4-3.9-0.7-6.1-4.2c0.5,0,1,0,1.5,0
			c-0.5-3.5-3.4-3.4-1.5-6.5c-3.5-0.6-1.5-6.4-3.8-8.2c1.5,0,1-2,3.1-1.4c-2.2,2.8,2.6,5.1,0,8.4c1.6,0.7,3.6,1,3.8,3.1
			c2.4-0.7,2.9,0.7,3.8,1.5c1.5-1.8,0.5-6.1,0.8-9.2c-2.1-0.7-3.7-1.9-3.8-4.6c1.8,0.5,2,2.5,3.8,3.1c0.8-1.7,1.7-2.9,3.1-4.1
			c0.2-4.3,0.2-10.2-1.5-10.2c1.5,0,3.1,0,4.6,0c0.4-1.1,1.1-1.8,1.9-2.3l-0.7-2.8c-1.3,0.5-2.4,0.8-3.5-0.2c4.2-1.9,7.8-4.6,13-5.5
			c0.1-1.1-0.3-2.9,0.8-3.1c1.6,0.4,2.2,1.9,4.6,1.5c-0.6-2.3,1.3-2.3,0.8-4.6c-1.5-1.8-4.1-2.5-5.3-4.6c0.7-3.6,1.8-6.9,1.6-11.5
			c3.3,0.8,1.9-2.6,5.4-2.3c0-1.5,0-3.1,0-4.6c3.5,0.8,1.5-1.2,3-2.3c1.8-0.3,1.6,1.4,3.8,0.8c0.2-3.1,3.3-3.3,3.8-6.1
			C357.5,28.3,355,29.2,354.5,28.2z"/>
	</g>
	<g>
		<path class="st1" d="M157.5,70.5"/>
		
			<radialGradient id="SVGID_1_" cx="312" cy="195.1" r="0" gradientTransform="matrix(1 0 0 -1 0 217.4)" gradientUnits="userSpaceOnUse">
			<stop  offset="0.2347" style="stop-color:#68666F;stop-opacity:0.7"/>
			<stop  offset="0.44" style="stop-color:#65636C;stop-opacity:0.7805"/>
			<stop  offset="0.6015" style="stop-color:#5D5A62;stop-opacity:0.8438"/>
			<stop  offset="0.748" style="stop-color:#4E4C51;stop-opacity:0.9012"/>
			<stop  offset="0.8848" style="stop-color:#393739;stop-opacity:0.9548"/>
			<stop  offset="1" style="stop-color:#221F1F"/>
		</radialGradient>
		<path class="st2" d="M312,22.3"/>
		<g>
			<g>
				<rect y="72.2" class="st3" width="343.8" height="93.7"/>
				<g>
					<g>
						<g>
							<g>
								<g>
									<g>
										<defs>
											<rect id="SVGID_2_" x="8.7" y="79.5" width="328.2" height="78.8"/>
										</defs>
										<clipPath id="SVGID_3_">
											<use xlink:href="#SVGID_2_"  style="overflow:visible;"/>
										</clipPath>
										<rect x="2.8" y="69" class="st4" width="353.2" height="89.4"/>
									</g>
								</g>
							</g>
							<g>
								<g>
									<g>
										<defs>
											<rect id="SVGID_4_" x="8.7" y="79.5" width="328.2" height="78.8"/>
										</defs>
										<clipPath id="SVGID_5_">
											<use xlink:href="#SVGID_4_"  style="overflow:visible;"/>
										</clipPath>
										<rect x="4.5" y="144.1" class="st5" width="353.2" height="3.6"/>
									</g>
								</g>
							</g>
							<g>
								<g>
									<g>
										<defs>
											<rect id="SVGID_6_" x="8.7" y="79.5" width="328.2" height="78.8"/>
										</defs>
										<clipPath id="SVGID_7_">
											<use xlink:href="#SVGID_6_"  style="overflow:visible;"/>
										</clipPath>
										<rect x="2.8" y="147.2" class="st6" width="353.2" height="41.5"/>
									</g>
								</g>
							</g>
						</g>
					</g>
					<g>
						<path class="st3" d="M68.2,129.1c0-1.1,0-34.5,0-34.5H57.4c0,0,0,32,0,33.1c0,5-4.5,8.4-10.6,8.4c-7,0-10.9-3.1-10.9-8.4
							c0-0.8,0-33.1,0-33.1H25.1c0,0,0,32.8,0,34c0,11.7,9.2,16.1,21.7,16.1c8.6,0,15.3-2.2,18.9-7v6.4h9.7v-10h-7.8
							C67.9,132.4,68.2,130.5,68.2,129.1z"/>
						<path class="st3" d="M120.3,129.6c0-8.4-5-12.5-15-14.5c-1.1-0.3-4.5-0.8-7-1.4c-8.1-1.7-11.1-3.1-11.1-6.7
							c0-2.8,1.7-4.7,9.7-4.7c6.4,0,8.9,1.4,10.3,4.2c0.3,0.8,0.6,1.9,0.6,2.5h11.1c0-1.4-0.6-3.1-1.1-4.7
							c-2.5-6.4-8.4-10.6-20.9-10.6c-14.5,0-21.4,5.6-21.4,13.9c0,8.4,5.8,12.8,15.6,14.5c2.2,0.6,5.8,1.1,7.2,1.4
							c8.1,1.4,10,3.1,10,7c0,3.3-2.5,5.3-10.3,5.3c-6.7,0-9.7-1.1-11.1-4.2c-0.3-0.8-0.6-2.2-0.6-3.1H75.2c0,1.1,0.3,3.3,0.8,5
							c1.9,6.4,7.5,10.9,22.3,10.9c9.5,0,15.6-2.5,18.9-7v6.7h9.7v-10h-7.8C120,132.4,120.3,131,120.3,129.6z"/>
						<polygon class="st3" points="162.3,126.3 143.4,94.3 130.6,94.3 130.6,144.1 141.2,144.1 141.2,110.1 160.9,144.1 
							172.6,144.1 172.6,94.3 162.3,94.3 						"/>
						<path class="st3" d="M196.8,106.3c-8.1,0-14.2,3.1-17.8,8.1c-1.9,3.1-3.1,6.7-3.1,10.9c0,4.5,1.1,8.4,2.8,11.1
							c3.6,5.6,10,8.1,18.1,8.1c5.8,0,10.3-1.4,13.6-3.3c3.6-2.2,5.8-5.6,6.7-9.2h-10.6c-0.3,0.8-1.1,1.9-3.1,2.8
							c-1.7,0.6-3.6,1.1-6.7,1.1c-3.9,0-7-1.1-8.6-2.8c-1.4-1.4-1.9-2.8-1.9-4.5h30.9c0.6-5.6-0.3-10.9-3.1-14.8
							C210.7,109.6,205.2,106.3,196.8,106.3z M186.2,122.1c0-1.1,1.1-3.3,2.2-4.5c1.7-1.7,4.5-2.5,8.4-2.5s6.4,1.4,8.1,2.8
							c1.4,1.4,1.7,3.1,1.7,4.2H186.2L186.2,122.1z"/>
						<path class="st3" d="M272,107.4l-8.6,27.3l-8.4-27.3h-11.7l-8.1,27.3l-8.6-27.3h-11.1l13.1,36.7h12.5c0,0,7.2-20.9,7.2-22.3
							c0-0.3,0.6-2.5,0.6-2.5s0.3,2.2,0.6,2.5c0,1.1,7.2,22.3,7.2,22.3h12.5l13.4-36.5C282.6,107.4,272,107.4,272,107.4z"/>
						<path class="st3" d="M307.6,121.8c-1.4-0.3-6.4-0.8-8.6-1.4c-5.3-0.8-6.4-1.4-6.4-3.1s1.7-2.8,7.5-2.8c5,0,7,0.8,7.8,1.9
							c0.3,0.6,0.6,1.7,0.6,1.9h10.3c0-0.8-0.3-3.1-0.6-4.5c-1.9-5.3-8.1-7.8-18.1-7.8c-11.7,0-17.5,4.2-17.5,10.9
							c0,7,3.9,10.6,12,11.7c2.2,0.3,6.7,1.1,8.1,1.1c5.3,0.8,7.5,1.4,7.5,3.3c0,2.2-1.9,3.1-7.8,3.1s-8.6-0.6-9.2-2.2
							c-0.3-0.8-0.3-1.4-0.3-1.9h-10.6c0,1.1,0,2.2,0.3,3.6c1.7,6.1,7.5,8.4,19.8,8.4c12.5,0,18.4-3.9,18.4-11.4
							C320.4,126.3,316.5,123,307.6,121.8z"/>
						<path class="st3" d="M181.8,104.6c0.8,0,1.9-0.3,2.8-0.6c0.3,0,0.3,0.3,0.6,0.3h3.9c-0.8-0.6-1.4-1.1-2.2-1.7
							c0.8-0.8,1.4-1.9,1.4-3.1h-2.8c0,0.6-0.3,1.1-0.6,1.4c-0.6-0.6-1.1-1.1-1.7-1.4c1.1-0.6,1.9-1.4,1.9-2.8c0,0,0-0.3,0-0.6
							c0-1.1-1.1-2.2-3.1-2.2s-3.3,1.1-3.3,2.5c0,0.3,0,0.3,0,0.6c0,0.6,0.3,1.4,0.8,2.2c-1.1,0.6-2.2,1.4-2.2,2.5c0,0,0,0.3,0,0.6
							C177.3,104,179.3,104.6,181.8,104.6z M181.2,97.1c0-0.3,0.3-0.6,0.6-0.6c0.6,0,0.6,0.3,0.6,0.6v0.3c0,0.3-0.3,0.8-0.8,1.1
							C181.2,97.6,181.2,97.6,181.2,97.1L181.2,97.1z M181,100.7c0.6,0.6,1.1,0.8,1.7,1.4c-0.3,0-0.6,0-0.8,0
							c-1.1,0-1.4-0.3-1.4-0.6C180.1,101.2,180.4,101.2,181,100.7z"/>
						<path class="st3" d="M197.4,104c0,0,1.4-5.8,1.7-6.1c0,0.3,1.4,6.1,1.4,6.1h3.3l2.8-10h-3.1c0,0-1.4,6.1-1.4,6.4
							c0-0.3-1.4-6.4-1.4-6.4h-3.1c0,0-1.4,6.1-1.4,6.4c0-0.3-1.4-6.4-1.4-6.4h-3.3l2.8,10H197.4z"/>
						<path class="st3" d="M211.9,104.6c3.6,0,5.3-1.7,5.3-5.3c0-3.3-1.7-5-5.3-5s-5.3,1.9-5.3,5
							C206.6,102.6,208.2,104.6,211.9,104.6z M211.9,96.2c1.7,0,2.2,0.8,2.2,2.8c0,2.2-0.8,2.8-2.2,2.8s-2.2-0.8-2.2-2.8
							C209.6,97.1,210.2,96.2,211.9,96.2z"/>
						<path class="st3" d="M221.6,100.7h1.9l1.7,3.3h3.3l-1.9-3.9c0.6,0,0.8-0.3,1.1-0.8s0.6-1.1,0.6-1.9c0-0.8-0.3-1.7-0.6-2.2
							c-0.6-0.6-1.4-1.1-2.8-1.1h-6.4v10h3.1L221.6,100.7z M221.6,96.8h2.5c0.6,0,0.8,0,0.8,0.3s0,0.3,0,0.6s0,0.6,0,0.6
							c0,0.3-0.6,0.3-0.8,0.3h-2.5V96.8z"/>
						<polygon class="st3" points="238,101.8 233.3,101.8 233.3,94.3 230.2,94.3 230.2,104 238,104 						"/>
						<path class="st3" d="M248.6,102.6c0.6-0.8,0.8-1.7,0.8-3.6s0-2.5-0.8-3.6c-0.6-0.8-1.7-1.4-3.6-1.4h-5.6v10h5.6
							C246.9,104,248,103.5,248.6,102.6z M242.8,101.8v-5.3h1.9c0.8,0,1.1,0,1.4,0.6c0.3,0.3,0.3,1.1,0.3,1.9s0,1.9-0.3,2.2
							s-0.8,0.6-1.7,0.6H242.8L242.8,101.8z"/>
						<path class="st3" d="M257.5,100.7h1.9l1.7,3.3h3.3l-2.2-3.9c0.6,0,0.8-0.3,1.1-0.8c0.3-0.6,0.6-1.1,0.6-1.9
							c0-0.8-0.3-1.7-0.6-2.2c-0.6-0.6-1.4-1.1-2.8-1.1h-6.1v10h3.1V100.7z M257.5,96.8h2.5c0.6,0,0.8,0,0.8,0.3s0,0.3,0,0.6
							s0,0.6,0,0.6c0,0.3-0.6,0.3-0.8,0.3h-2.5V96.8z"/>
						<polygon class="st3" points="274.8,101.8 269.2,101.8 269.2,100.4 274.5,100.4 274.5,97.9 269.2,97.9 269.2,96.8 274.8,96.8 
							274.8,94.3 266.1,94.3 266.1,104 274.8,104 						"/>
						<path class="st3" d="M279.8,101.2c0,0,2.8,0,3.1,0c1.1,0,2.2-0.3,2.8-1.1c0.6-0.6,0.8-1.4,0.8-2.5s-0.3-2.2-0.8-2.5
							c-0.6-0.6-1.4-0.8-2.5-0.8h-6.4v10h3.1v-3.1H279.8z M279.8,96.8h2.5c0.6,0,0.8,0.3,0.8,0.6c0,0,0,0.3,0,0.8c0,0.3,0,0.6,0,0.6
							c-0.3,0.3-0.6,0.6-1.1,0.6h-2.5L279.8,96.8L279.8,96.8z"/>
						<path class="st3" d="M292.9,104.6c3.6,0,5.3-1.7,5.3-5.3c0-3.3-1.7-5-5.3-5c-3.6,0-5.3,1.9-5.3,5
							C287.6,102.6,289.2,104.6,292.9,104.6z M292.9,96.2c1.7,0,2.2,0.8,2.2,2.8c0,2.2-0.8,2.8-2.2,2.8c-1.4,0-2.2-0.8-2.2-2.8
							C290.6,97.1,291.2,96.2,292.9,96.2z"/>
						<path class="st3" d="M302.3,100.7h1.9l1.7,3.3h3.3l-2.2-3.9c0.6,0,0.8-0.3,1.1-0.8s0.6-1.1,0.6-1.9c0-0.8-0.3-1.7-0.6-2.2
							c-0.6-0.6-1.4-1.1-2.8-1.1h-6.4v10h3.1v-3.4H302.3L302.3,100.7z M302.6,96.8h2.5c0.6,0,0.8,0,0.8,0.3s0,0.3,0,0.6s0,0.6,0,0.6
							c0,0.3-0.6,0.3-0.8,0.3h-2.5V96.8z"/>
						<polygon class="st3" points="313.2,104 316.2,104 316.2,96.8 319.3,96.8 319.3,94.3 309.8,94.3 309.8,96.8 313.2,96.8 						
							"/>
					</g>
				</g>
			</g>
			<rect x="0.6" y="73" class="st3" width="342.9" height="93.5"/>
			<g>
				<g>
					<g>
						<g>
							<g>
								<g>
									<defs>
										<rect id="SVGID_8_" x="9.2" y="80.3" width="327.4" height="78.6"/>
									</defs>
									<clipPath id="SVGID_9_">
										<use xlink:href="#SVGID_8_"  style="overflow:visible;"/>
									</clipPath>
									<rect x="3.4" y="69.7" class="st7" width="352.4" height="89.1"/>
								</g>
							</g>
						</g>
						<g>
							<g>
								<g>
									<defs>
										<rect id="SVGID_10_" x="9.2" y="80.3" width="327.4" height="78.6"/>
									</defs>
									<clipPath id="SVGID_11_">
										<use xlink:href="#SVGID_10_"  style="overflow:visible;"/>
									</clipPath>
									<rect x="5" y="144.7" class="st8" width="352.4" height="3.6"/>
								</g>
							</g>
						</g>
						<g>
							<g>
								<g>
									<defs>
										<rect id="SVGID_12_" x="9.2" y="80.3" width="327.4" height="78.6"/>
									</defs>
									<clipPath id="SVGID_13_">
										<use xlink:href="#SVGID_12_"  style="overflow:visible;"/>
									</clipPath>
									<rect x="3.4" y="147.7" class="st9" width="352.4" height="41.4"/>
								</g>
							</g>
						</g>
					</g>
				</g>
				<g>
					<path class="st3" d="M68.6,129.7c0-1.1,0-34.4,0-34.4H57.8c0,0,0,31.9,0,33c0,5-4.4,8.3-10.6,8.3c-6.9,0-10.8-3.1-10.8-8.3
						c0-0.8,0-33,0-33H25.6c0,0,0,32.8,0,33.9c0,11.7,9.2,16.1,21.7,16.1c8.6,0,15.3-2.2,18.9-6.9v6.4h9.7v-10h-7.8
						C68.3,133,68.6,131.1,68.6,129.7z"/>
					<path class="st3" d="M120.6,130.2c0-8.3-5-12.5-15-14.4c-1.1-0.3-4.4-0.8-6.9-1.4c-8.1-1.7-11.1-3.1-11.1-6.7
						c0-2.8,1.7-4.7,9.7-4.7c6.4,0,8.9,1.4,10.3,4.2c0.3,0.8,0.6,1.9,0.6,2.5h11.1c0-1.4-0.6-3.1-1.1-4.7
						c-2.5-6.4-8.3-10.6-20.8-10.6C83,94.4,76,100,76,108.3s5.8,12.8,15.5,14.4c2.2,0.6,5.8,1.1,7.2,1.4c8.1,1.4,10,3.1,10,6.9
						c0,3.3-2.5,5.3-10.3,5.3c-6.7,0-9.7-1.1-11.1-4.2c-0.3-0.8-0.6-2.2-0.6-3.1H75.6c0,1.1,0.3,3.3,0.8,5
						c1.9,6.4,7.5,10.8,22.2,10.8c9.4,0,15.5-2.5,18.9-6.9v6.7h9.7v-10h-7.8C120.3,133,120.6,131.6,120.6,130.2z"/>
					<polygon class="st3" points="162.5,126.9 143.6,95 130.8,95 130.8,144.7 141.4,144.7 141.4,110.8 161.1,144.7 172.8,144.7 
						172.8,95 162.5,95 					"/>
					<path class="st3" d="M196.9,106.9c-8.1,0-14.2,3.1-17.8,8.1c-1.9,3.1-3.1,6.7-3.1,10.8c0,4.4,1.1,8.3,2.8,11.1
						c3.6,5.6,10,8.1,18,8.1c5.8,0,10.3-1.4,13.6-3.3c3.6-2.2,5.8-5.6,6.7-9.2h-10.6c-0.3,0.8-1.1,1.9-3.1,2.8
						c-1.7,0.6-3.6,1.1-6.7,1.1c-3.9,0-6.9-1.1-8.6-2.8c-1.4-1.4-1.9-2.8-1.9-4.4H217c0.6-5.6-0.3-10.8-3.1-14.7
						C210.8,110.2,205.2,106.9,196.9,106.9z M186.4,122.7c0-1.1,1.1-3.3,2.2-4.4c1.7-1.7,4.4-2.5,8.3-2.5s6.4,1.4,8.1,2.8
						c1.4,1.4,1.7,3.1,1.7,4.2h-20.3V122.7z"/>
					<path class="st3" d="M271.9,108l-8.6,27.2L255,108h-11.7l-8.1,27.2l-8.6-27.2h-11.1l13.1,36.7h12.5c0,0,7.2-20.8,7.2-22.2
						c0-0.3,0.6-2.5,0.6-2.5s0.3,2.2,0.6,2.5c0,1.1,7.2,22.2,7.2,22.2h12.4l13.3-36.4C282.4,108,271.9,108,271.9,108z"/>
					<path class="st3" d="M307.4,122.5c-1.4-0.3-6.4-0.8-8.6-1.4c-5.3-0.8-6.4-1.4-6.4-3.1s1.7-2.8,7.5-2.8c5,0,6.9,0.8,7.8,1.9
						c0.3,0.6,0.6,1.7,0.6,1.9h10.3c0-0.8-0.3-3.1-0.6-4.4c-1.9-5.3-8.1-7.8-18-7.8c-11.7,0-17.5,4.2-17.5,10.8
						c0,6.9,3.9,10.6,11.9,11.7c2.2,0.3,6.7,1.1,8.1,1.1c5.3,0.8,7.5,1.4,7.5,3.3c0,2.2-1.9,3.1-7.8,3.1s-8.6-0.6-9.2-2.2
						c-0.3-0.8-0.3-1.4-0.3-1.9h-10.6c0,1.1,0,2.2,0.3,3.6c1.7,6.1,7.5,8.3,19.7,8.3c12.5,0,18.3-3.9,18.3-11.4
						C320.2,126.9,316.3,123.6,307.4,122.5z"/>
					<path class="st3" d="M181.9,105.2c0.8,0,1.9-0.3,2.8-0.6c0.3,0,0.3,0.3,0.6,0.3h3.9c-0.8-0.6-1.4-1.1-2.2-1.7
						c0.8-0.8,1.4-1.9,1.4-3.1h-2.8c0,0.6-0.3,1.1-0.6,1.4c-0.6-0.6-1.1-1.1-1.7-1.4c1.1-0.6,1.9-1.4,1.9-2.8c0,0,0-0.3,0-0.6
						c0-1.1-1.1-2.2-3.1-2.2c-1.9,0-3.3,1.1-3.3,2.5c0,0.3,0,0.3,0,0.6c0,0.6,0.3,1.4,0.8,2.2c-1.1,0.6-2.2,1.4-2.2,2.5
						c0,0,0,0.3,0,0.6C177.5,104.7,179.4,105.2,181.9,105.2z M181.4,97.7c0-0.3,0.3-0.6,0.6-0.6c0.6,0,0.6,0.3,0.6,0.6V98
						c0,0.3-0.3,0.8-0.8,1.1C181.4,98.3,181.4,98.3,181.4,97.7L181.4,97.7z M181.1,101.4c0.6,0.6,1.1,0.8,1.7,1.4
						c-0.3,0-0.6,0-0.8,0c-1.1,0-1.4-0.3-1.4-0.6C180.3,101.9,180.5,101.9,181.1,101.4z"/>
					<path class="st3" d="M197.5,104.7c0,0,1.4-5.8,1.7-6.1c0,0.3,1.4,6.1,1.4,6.1h3.3l2.8-10h-3.1c0,0-1.4,6.1-1.4,6.4
						c0-0.3-1.4-6.4-1.4-6.4h-3.1c0,0-1.4,6.1-1.4,6.4c0-0.3-1.4-6.4-1.4-6.4h-3.3l2.8,10H197.5z"/>
					<path class="st3" d="M211.9,105.2c3.6,0,5.3-1.7,5.3-5.3c0-3.3-1.7-5-5.3-5s-5.3,1.9-5.3,5
						C206.6,103.3,208.3,105.2,211.9,105.2z M211.9,96.9c1.7,0,2.2,0.8,2.2,2.8c0,2.2-0.8,2.8-2.2,2.8s-2.2-0.8-2.2-2.8
						S210.2,96.9,211.9,96.9z"/>
					<path class="st3" d="M221.6,101.4h1.9l1.7,3.3h3.3l-1.9-3.9c0.6,0,0.8-0.3,1.1-0.8c0.3-0.6,0.6-1.1,0.6-1.9s-0.3-1.7-0.6-2.2
						c-0.6-0.6-1.4-1.1-2.8-1.1h-6.4v10h3.1L221.6,101.4z M221.6,97.5h2.5c0.6,0,0.8,0,0.8,0.3s0,0.3,0,0.6s0,0.6,0,0.6
						c0,0.3-0.6,0.3-0.8,0.3h-2.5V97.5z"/>
					<polygon class="st3" points="238,102.5 233.3,102.5 233.3,95 230.2,95 230.2,104.7 238,104.7 					"/>
					<path class="st3" d="M248.6,103.3c0.6-0.8,0.8-1.7,0.8-3.6c0-1.9,0-2.5-0.8-3.6c-0.6-0.8-1.7-1.4-3.6-1.4h-5.6v10h5.6
						C246.9,104.7,248,104.1,248.6,103.3z M242.7,102.5v-5.3h1.9c0.8,0,1.1,0,1.4,0.6c0.3,0.3,0.3,1.1,0.3,1.9s0,1.9-0.3,2.2
						s-0.8,0.6-1.7,0.6H242.7L242.7,102.5z"/>
					<path class="st3" d="M257.4,101.4h1.9l1.7,3.3h3.3l-2.2-3.9c0.6,0,0.8-0.3,1.1-0.8c0.3-0.6,0.6-1.1,0.6-1.9s-0.3-1.7-0.6-2.2
						c-0.6-0.6-1.4-1.1-2.8-1.1h-6.1v10h3.1V101.4z M257.4,97.5h2.5c0.6,0,0.8,0,0.8,0.3s0,0.3,0,0.6s0,0.6,0,0.6
						c0,0.3-0.6,0.3-0.8,0.3h-2.5V97.5z"/>
					<polygon class="st3" points="274.7,102.5 269.1,102.5 269.1,101.1 274.4,101.1 274.4,98.6 269.1,98.6 269.1,97.5 274.7,97.5 
						274.7,95 266.1,95 266.1,104.7 274.7,104.7 					"/>
					<path class="st3" d="M279.7,101.9c0,0,2.8,0,3.1,0c1.1,0,2.2-0.3,2.8-1.1c0.6-0.6,0.8-1.4,0.8-2.5s-0.3-2.2-0.8-2.5
						c-0.6-0.6-1.4-0.8-2.5-0.8h-6.4v10h3.1v-3.1H279.7z M279.7,97.5h2.5c0.6,0,0.8,0.3,0.8,0.6c0,0,0,0.3,0,0.8c0,0.3,0,0.6,0,0.6
						c-0.3,0.3-0.6,0.6-1.1,0.6h-2.5L279.7,97.5L279.7,97.5z"/>
					<path class="st3" d="M292.7,105.2c3.6,0,5.3-1.7,5.3-5.3c0-3.3-1.7-5-5.3-5s-5.3,1.9-5.3,5
						C287.4,103.3,289.1,105.2,292.7,105.2z M292.7,96.9c1.7,0,2.2,0.8,2.2,2.8c0,2.2-0.8,2.8-2.2,2.8c-1.4,0-2.2-0.8-2.2-2.8
						S291,96.9,292.7,96.9z"/>
					<path class="st3" d="M302.2,101.4h1.9l1.7,3.3h3.3l-2.2-3.9c0.6,0,0.8-0.3,1.1-0.8c0.3-0.6,0.6-1.1,0.6-1.9s-0.3-1.7-0.6-2.2
						c-0.6-0.6-1.4-1.1-2.8-1.1h-6.4v10h3.1v-3.3L302.2,101.4L302.2,101.4z M302.4,97.5h2.5c0.6,0,0.8,0,0.8,0.3s0,0.3,0,0.6
						s0,0.6,0,0.6c0,0.3-0.6,0.3-0.8,0.3h-2.5V97.5z"/>
					<polygon class="st3" points="313,104.7 316,104.7 316,97.5 319.1,97.5 319.1,95 309.7,95 309.7,97.5 313,97.5 					"/>
				</g>
			</g>
		</g>
	</g>
</g>
</svg>
