<?xml version="1.0" encoding="utf-8"?>
<!-- Generator: Adobe Illustrator 21.0.0, SVG Export Plug-In . SVG Version: 6.00 Build 0)  -->
<svg version="1.1" id="Layer_1" xmlns="http://www.w3.org/2000/svg" xmlns:xlink="http://www.w3.org/1999/xlink" x="0px" y="0px"
	 viewBox="0 0 500 500" enable-background="new 0 0 500 500" xml:space="preserve">
<g>
	<path fill="#005FA7" d="M250,138c-61.9,0-112,50.1-112,112c0,61.9,50.1,112,112,112c61.9,0,112-50.1,112-112
		C362,188.1,311.9,138,250,138z M250,347.4c-53.8,0-97.4-43.6-97.4-97.4c0-53.8,43.6-97.4,97.4-97.4c53.8,0,97.4,43.6,97.4,97.4
		C347.4,303.8,303.8,347.4,250,347.4z"/>
	<path fill="#005FA7" d="M250,25C125.7,25,25,125.7,25,250c0,124.3,100.7,225,225,225s225-100.7,225-225C475,125.7,374.3,25,250,25z
		 M250,453.2c-112.2,0-203.2-91-203.2-203.2c0-112.2,91-203.2,203.2-203.2s203.2,91,203.2,203.2C453.2,362.2,362.2,453.2,250,453.2z
		"/>
	<g>
		<path fill="#005FA7" d="M131.9,177.2l-35.5-27.3l8.4-11c2.8-3.7,5.8-5.9,9-6.6c3.1-0.7,6.3,0.2,9.5,2.7c1.8,1.4,3.1,3,3.7,4.8
			c0.7,1.8,0.8,3.6,0.3,5.5c1.7-1.2,3.5-1.8,5.6-1.6c2,0.2,4.1,1.1,6.1,2.6c3.4,2.6,5.3,5.6,5.6,8.8c0.3,3.2-0.9,6.7-3.7,10.3
			L131.9,177.2z M116.8,154.2l2.9-3.7c2.2-2.8,1.8-5.3-1.1-7.6c-1.6-1.2-3-1.8-4.2-1.7c-1.2,0.1-2.4,0.9-3.5,2.4l-2.9,3.8
			L116.8,154.2z M122,158.2l9.5,7.3l3.5-4.6c1-1.3,1.3-2.6,1.1-3.8c-0.3-1.3-1.2-2.5-2.6-3.6c-3.2-2.4-5.7-2.5-7.6-0.3L122,158.2z"
			/>
		<path fill="#005FA7" d="M158.6,121.4l-10.9,9l7.6,9.2l12.9-10.6l4.8,5.8l-19.8,16.4l-28.5-34.5l19.8-16.3l4.8,5.8l-12.8,10.6
			l6.7,8.2l10.9-9L158.6,121.4z"/>
		<path fill="#005FA7" d="M187.4,113.8c-0.8-1.6-1.9-2.6-3.1-3.1c-1.3-0.4-3.2-0.5-5.9-0.3c-4.8,0.5-8.6,0.2-11.3-1
			c-2.8-1.2-4.9-3.1-6.3-5.9c-1.7-3.4-1.9-6.7-0.5-9.9c1.4-3.2,3.9-5.8,7.6-7.7c2.5-1.2,4.9-1.8,7.3-1.8c2.4,0.1,4.7,0.8,6.6,2.1
			c2,1.4,3.6,3.2,4.8,5.6l-8,4.1c-0.9-1.9-2.1-3.1-3.4-3.7c-1.3-0.6-2.7-0.5-4.2,0.3c-1.4,0.7-2.3,1.7-2.7,2.9
			c-0.4,1.2-0.2,2.6,0.5,4c0.6,1.1,1.5,1.9,2.8,2.3c1.3,0.4,3.3,0.6,6.1,0.4c4.6-0.6,8.3-0.3,11.1,0.9c2.8,1.2,5,3.3,6.6,6.5
			c1.8,3.5,2,6.8,0.8,9.8c-1.2,3.1-3.7,5.6-7.5,7.5c-2.6,1.3-5.2,2-7.9,2c-2.7,0-5.1-0.7-7.3-2c-2.2-1.4-4-3.4-5.3-6.1l8.1-4.1
			c1.2,2.3,2.5,3.8,3.9,4.3c1.4,0.6,3.2,0.4,5.2-0.7C188.3,119,189,116.8,187.4,113.8z"/>
		<path fill="#005FA7" d="M224.5,75.9l-10.8,2.6l8.6,36.2l-8.8,2.1l-8.6-36.2l-10.6,2.5l-1.7-7.3l30.2-7.2L224.5,75.9z"/>
		<path fill="#005FA7" d="M259.4,96.5l-1.5,15.7l-9-0.8l4.2-44.6l15.2,1.4c4.4,0.4,7.8,2.1,10.2,5.1c2.4,3,3.3,6.7,2.9,11
			c-0.4,4.4-2,7.7-4.9,10c-2.8,2.3-6.5,3.2-11.1,2.8L259.4,96.5z M260.1,89l6.2,0.6c1.7,0.2,3.1-0.3,4.1-1.3c1-1,1.7-2.6,1.9-4.8
			c0.2-2.2-0.1-4-0.9-5.4c-0.8-1.4-2.1-2.2-3.7-2.4l-6.3-0.6L260.1,89z"/>
		<path fill="#005FA7" d="M300.8,104.2l-4.2-1.5l-5.4,15.4l-8.5-3l14.8-42.3l13.6,4.8c4.3,1.5,7.2,3.8,8.8,6.8
			c1.6,3,1.6,6.6,0.2,10.7c-2,5.6-5.4,8.8-10.3,9.6l1.3,19.9l-0.1,0.4l-9.2-3.2L300.8,104.2z M299,95.6l4.8,1.7
			c1.7,0.6,3.2,0.5,4.4-0.4c1.2-0.8,2.2-2.2,2.9-4.1c1.5-4.2,0.6-6.9-2.7-8.1l-5-1.7L299,95.6z"/>
		<path fill="#005FA7" d="M322,132.2l-7.9-4.5l22.1-38.9l7.9,4.5L322,132.2z"/>
		<path fill="#005FA7" d="M360.5,143.1c-3.5,3.8-7,5.8-10.8,6.1c-3.7,0.3-7.4-1.1-11.1-4.2c-3.9-3.3-5.8-7-5.7-11.3
			c0.1-4.3,2.1-8.8,6.1-13.5l4.8-5.8c4-4.7,8.1-7.4,12.4-8.2s8.3,0.5,12.1,3.6c3.7,3.1,5.7,6.6,5.9,10.3c0.2,3.7-1.2,7.6-4.2,11.8
			l-7-5.8c2-2.5,3-4.5,3.1-5.9c0.1-1.5-0.8-3-2.6-4.5c-1.9-1.6-3.7-2-5.6-1.4c-1.9,0.6-4.1,2.4-6.6,5.4l-5.4,6.5
			c-2.9,3.4-4.4,6.1-4.8,8c-0.3,1.9,0.5,3.6,2.3,5.2c1.8,1.5,3.5,2.1,4.9,1.8c1.4-0.3,3.2-1.6,5.2-3.8L360.5,143.1z"/>
		<path fill="#005FA7" d="M382.6,164.5l-8.5-11.3l-9.5,7.1l10,13.3l-6,4.5l-15.5-20.6l35.8-26.9l15.4,20.5l-6,4.5l-10-13.3l-8.5,6.4
			l8.5,11.3L382.6,164.5z"/>
	</g>
	<g>
		<path fill="#005FA7" d="M124.7,358.5l-11.6,10.7l-6.1-6.6l32.9-30.4l10.4,11.2c3,3.3,4.4,6.8,4.2,10.6c-0.2,3.8-2,7.2-5.2,10.2
			c-3.2,3-6.7,4.4-10.3,4.2c-3.6-0.2-7-2-10.2-5.4L124.7,358.5z M130.3,353.4l4.2,4.6c1.2,1.3,2.5,1.9,4,1.8c1.5-0.1,3-0.8,4.6-2.3
			c1.6-1.5,2.6-3.1,2.9-4.7c0.3-1.6-0.1-3-1.2-4.2l-4.3-4.6L130.3,353.4z"/>
		<path fill="#005FA7" d="M160.5,388.7l-3.8-2.4l-8.9,13.8l-7.6-4.9l24.2-37.7l12.1,7.8c3.8,2.5,6.1,5.3,6.9,8.6
			c0.8,3.3,0,6.8-2.3,10.4c-3.2,5-7.3,7.3-12.2,7l-3.3,19.7l-0.2,0.4l-8.2-5.3L160.5,388.7z M160.8,379.9l4.3,2.8
			c1.5,1,3,1.2,4.4,0.7c1.4-0.5,2.7-1.6,3.7-3.3c2.4-3.8,2.2-6.6-0.8-8.5l-4.4-2.9L160.8,379.9z"/>
		<path fill="#005FA7" d="M215.7,410.2c-1.8,5.7-4.6,9.7-8.3,12c-3.7,2.3-8,2.7-12.8,1.1c-4.8-1.5-8-4.3-9.8-8.3
			c-1.7-4-1.7-8.8,0-14.5l2.3-7.3c1.9-5.9,4.7-10,8.5-12.4c3.8-2.4,8.1-2.9,12.9-1.3c4.7,1.5,8,4.3,9.7,8.4
			c1.7,4.1,1.6,9.1-0.2,14.9L215.7,410.2z M209.3,400.3c1.2-3.8,1.6-6.9,1.1-9.1c-0.5-2.2-1.9-3.7-4.2-4.4c-2.3-0.7-4.3-0.4-5.9,1.1
			c-1.7,1.5-3.1,4-4.3,7.7l-2.4,7.6c-1.2,3.7-1.5,6.7-1,8.8c0.5,2.1,2,3.6,4.3,4.3c2.2,0.7,4.2,0.4,5.8-1c1.6-1.4,3.1-3.9,4.2-7.5
			L209.3,400.3z"/>
		<path fill="#005FA7" d="M258.3,426.8c-1.8,1.8-4,3.1-6.6,4c-2.6,0.8-5.4,1.2-8.4,1.1c-5.1-0.2-9.1-2-11.8-5.3
			c-2.7-3.3-4-8-3.8-14.1l0.3-8.1c0.3-6.2,1.8-10.9,4.6-14.1s6.8-4.7,12-4.5c4.9,0.2,8.5,1.5,10.8,4c2.4,2.5,3.6,6.3,3.8,11.5
			l-8.8-0.4c-0.1-2.9-0.6-4.8-1.5-5.9c-0.9-1.1-2.4-1.7-4.4-1.7c-2.4-0.1-4.2,0.7-5.4,2.5s-1.9,4.6-2.1,8.4l-0.3,8.1
			c-0.2,4.1,0.3,7.1,1.5,9c1.1,1.9,3.1,2.9,5.9,3c1.8,0.1,3.2-0.2,4.4-0.9l0.8-0.5l0.3-8.2l-6.3-0.3l0.3-6.8l15.4,0.6L258.3,426.8z"
			/>
		<path fill="#005FA7" d="M285.2,411.2l-4.4,1l3.5,16l-8.8,1.9l-9.6-43.7l14.1-3.1c4.4-1,8.1-0.6,11,1.2c2.9,1.8,4.8,4.8,5.8,9
			c1.3,5.8,0.1,10.3-3.7,13.6l11.6,16.2l0.1,0.4l-9.5,2.1L285.2,411.2z M279.2,404.8l5-1.1c1.8-0.4,3-1.3,3.6-2.6
			c0.6-1.4,0.7-3,0.3-5c-1-4.4-3.2-6.2-6.6-5.5l-5.2,1.1L279.2,404.8z"/>
		<path fill="#005FA7" d="M334.6,400.1l-11,5.7l2.1,9.2l-8.5,4.4l-8.2-46.2l7.3-3.8l33.1,33.3l-8.6,4.4L334.6,400.1z M321.9,398.2
			l7.4-3.8l-11.1-12.3L321.9,398.2z"/>
		<path fill="#005FA7" d="M340.3,352.8l28.8,17l-16.9-28.9l8.4-8.3l31.6,31.8l-6.4,6.4l-8.5-8.6l-12.6-13.8l15.4,28.1l-4.4,4.3
			l-28.1-15.5l13.8,12.7l8.5,8.6l-6.4,6.4l-31.6-31.8L340.3,352.8z"/>
	</g>
	<g>
		<g>
			<g>
				<defs>
					<rect id="SVGID_1_" x="4.9" y="191.2" width="490.2" height="117.6"/>
				</defs>
				<clipPath id="SVGID_2_">
					<use xlink:href="#SVGID_1_"  overflow="visible"/>
				</clipPath>
				<g clip-path="url(#SVGID_2_)">
					<rect x="0.7" y="186.6" fill="#005FA7" width="498.1" height="111.7"/>
					<rect x="2.7" y="287.3" fill="#FFFFFF" width="494.2" height="5.3"/>
					<rect x="1.5" y="292.5" fill="#C42127" width="496.3" height="20.7"/>
				</g>
			</g>
		</g>
		<path fill="#FFFFFF" d="M495.1,191.2v117.6H4.9V191.2H495.1 M0,183.3v133.5h500V183.3H0z"/>
		<g>
			<path fill="#FFFFFF" d="M94.1,266.2c0-1.5,0-51.6,0-51.6H77.8c0,0,0,48,0,49.4c0,7.7-6.6,12.3-15.8,12.3
				c-10.6,0-16.4-4.6-16.4-12.4c0-1.4,0-49.3,0-49.3H29.4c0,0,0,49,0,50.7c0,17.4,13.8,24.3,32.2,24.3c12.7,0,23-3.5,28.4-10.5v9.6
				h14.5v-15.1H92.9C93.7,271.3,94.1,268.9,94.1,266.2z"/>
			<path fill="#FFFFFF" d="M171.6,267.3c0-12.7-7.7-18.8-22.4-21.6c-1.7-0.3-6.6-1.3-10.3-2.1c-12.1-2.4-16.5-4.6-16.5-10
				c0-4.2,2.4-6.9,14.7-6.9c9.4,0,13.4,2.2,15.4,6.3c0.6,1.1,1,2.8,1,3.7h16.7c0-1.9-0.7-4.7-1.7-7.1c-3.7-9.4-12.5-15.8-31-15.8
				c-21.7,0-31.9,8.4-31.9,21c0,12.3,8.9,18.9,23.3,21.7c3.3,0.7,8.7,1.7,10.9,2.1c12,2.2,15.1,4.4,15.1,10.5c0,4.9-3.9,8-15.2,8
				c-9.8,0-14.7-1.9-16.8-6.2c-0.6-1.1-1-3.4-1-4.7h-16.7c0,1.5,0.3,5.2,1,7.6c3,9.4,11,16.1,33.5,16.1c14.1,0,23.4-3.9,28.2-10.5
				v9.5h14.5v-15.1h-11.7C171.2,271.6,171.6,269.5,171.6,267.3z"/>
			<polygon fill="#FFFFFF" points="234.6,262.3 206.1,214.6 187.3,214.6 187.3,288.6 202.8,288.6 202.8,238.5 232.6,288.6 
				250.1,288.6 250.1,214.6 234.6,214.6 			"/>
			<path fill="#FFFFFF" d="M285.9,232.7c-11.9,0-21.4,4.5-26.6,12.1c-3.1,4.4-4.8,9.9-4.8,16.2c0,6.9,1.5,12.3,4.2,16.6
				c5.3,8.3,15.1,11.9,27.2,11.9c8.8,0,15.5-1.9,20.3-5c5.5-3.5,8.6-8.4,9.9-13.7h-15.6c-0.3,1.2-1.7,3-4.6,4.3
				c-2.3,1-5.6,1.8-10,1.8c-6,0-10.4-1.6-12.7-4.1c-1.9-2.1-3-4-3-6.5h46.3c0.9-8.2-0.6-16.1-4.7-22
				C307,237.3,298.4,232.7,285.9,232.7z M270.1,256c0-1.6,1.5-4.9,3.4-6.6c2.7-2.4,6.9-3.9,12.5-3.9c6,0,9.7,1.9,12,4.2
				c2,2.1,2.7,4.7,2.7,6.3L270.1,256L270.1,256z"/>
			<path fill="#FFFFFF" d="M398.4,234l-12.8,40.6L373.3,234h-17.7l-12,40.6L330.5,234h-16.6l19.6,54.6h18.9c0,0,10.7-31.4,10.8-33.3
				c0.1-0.6,0.7-3.8,0.7-3.8s0.6,3.2,0.7,3.9c0.2,1.8,10.9,33.2,10.9,33.2h18.8L414,234L398.4,234z"/>
			<path fill="#FFFFFF" d="M451.7,255.5c-1.9-0.3-9.5-1.4-12.7-1.9c-7.7-1.2-9.4-2.1-9.4-4.5c0-2.6,2.6-4,11.3-4
				c7.5,0,10.4,1.3,11.5,2.8c0.5,0.7,0.7,2.4,0.7,3h15.4c0-1.1-0.3-4.5-1-6.6c-2.8-7.8-12.2-11.7-27.2-11.7
				c-17.6,0-26.3,6.4-26.3,16.1c0,10.4,5.8,15.7,17.8,17.4c3.3,0.5,9.8,1.5,11.9,1.8c8,1.2,11.3,1.9,11.3,5c0,3.2-2.8,4.8-11.8,4.8
				c-8.6,0-12.8-0.7-13.8-3.3c-0.4-1.1-0.5-2.1-0.5-2.8h-15.8c0,1.8,0.1,3.3,0.6,5.5c2.3,8.9,11,12.6,29.5,12.6
				c18.9,0,27.4-5.8,27.4-17.1C470.6,262.3,464.9,257.4,451.7,255.5z"/>
			<path fill="#FFFFFF" d="M263.5,229.6c1.4,0,2.9-0.2,4.1-0.7c0.2,0.2,0.4,0.4,0.7,0.6h5.7c-1.1-0.9-2.2-1.7-3.2-2.5
				c1.2-1.1,1.9-2.7,2-4.6h-4.2c0,0.9-0.3,1.6-0.8,2.3c-0.9-0.7-1.7-1.5-2.4-2c1.5-0.9,2.9-2.2,3-4.1c0-0.1,0-0.5,0-0.6
				c-0.1-1.8-1.8-3.4-4.6-3.4c-3.1,0-4.9,1.7-5,3.6c0,0.2,0,0.6,0,0.8c0,0.9,0.4,1.9,1.2,3.1c-1.8,0.8-3.4,1.9-3.4,3.6
				c0,0.2,0,0.5,0,0.8C256.8,228.9,260,229.6,263.5,229.6z M262.8,218.6c0.1-0.5,0.3-1,1-1c0.7,0,0.9,0.4,0.9,0.9c0,0.1,0,0.2,0,0.3
				c0,0.6-0.6,1.1-1.3,1.5c-0.4-0.5-0.6-1-0.6-1.4C262.8,218.8,262.8,218.7,262.8,218.6z M262.3,224.3c0.6,0.6,1.5,1.3,2.4,2.1
				c-0.4,0.1-0.9,0.1-1.3,0.1c-1.6,0-2.2-0.3-2.2-1C261.1,225.1,261.6,224.7,262.3,224.3z"/>
			<path fill="#FFFFFF" d="M286.8,229.4c0,0,2.3-8.6,2.3-9.1c0.1,0.5,2.3,9.1,2.3,9.1h5l4.2-14.9h-4.4c0,0-2.2,9.2-2.2,9.7
				c0-0.5-2.3-9.7-2.3-9.7H287c0,0-2.2,9.2-2.2,9.7c0-0.5-2.3-9.7-2.3-9.7h-4.9l4.3,14.9H286.8z"/>
			<path fill="#FFFFFF" d="M308.7,229.7c5.4,0,7.9-2.6,7.9-7.8c0-5-2.3-7.6-7.9-7.6c-5.5,0-7.9,2.9-7.9,7.6
				C300.8,227,303.2,229.7,308.7,229.7z M308.7,217.8c2.5,0,3.3,1.2,3.3,4.2c0,3.3-1.2,4.2-3.3,4.2c-2.2,0-3.3-1-3.3-4.2
				C305.4,219,306.3,217.8,308.7,217.8z"/>
			<path fill="#FFFFFF" d="M323.1,224.4h3.1l2.6,5h5.1l-3.5-6c0.7-0.2,1.4-0.6,1.8-1.4c0.4-0.7,0.7-1.6,0.7-2.8
				c0-1.4-0.3-2.4-0.9-3.1c-0.8-1-2-1.6-4-1.6h-9.4v14.9h4.5V224.4z M323.2,218h3.8c0.7,0,1.1,0.1,1.3,0.6c0.1,0.2,0.2,0.6,0.2,1
				c0,0.3-0.1,0.7-0.2,1c-0.2,0.4-0.6,0.5-1.2,0.5h-3.9V218z"/>
			<polygon fill="#FFFFFF" points="347.8,225.7 340.7,225.7 340.7,214.5 336.1,214.5 336.1,229.4 347.8,229.4 			"/>
			<path fill="#FFFFFF" d="M363.6,227.3c0.8-1.2,1-2.4,1-5.6c0-2.7-0.2-3.9-1.1-5.2c-0.9-1.3-2.6-1.9-5.3-1.9h-8.2v14.9h8.4
				C361.2,229.4,362.7,228.6,363.6,227.3z M354.6,225.9V218h2.9c1.1,0,1.7,0.2,2.2,0.8c0.4,0.4,0.5,1.8,0.5,2.9c0,1.2,0,2.9-0.4,3.4
				c-0.5,0.6-1.1,0.8-2.3,0.8L354.6,225.9L354.6,225.9z"/>
			<path fill="#FFFFFF" d="M376.7,224.4h3.1l2.6,5h5.1l-3.5-6c0.7-0.2,1.4-0.6,1.8-1.4c0.4-0.7,0.7-1.6,0.7-2.8
				c0-1.4-0.3-2.4-0.9-3.1c-0.8-1-2-1.6-4-1.6h-9.4v14.9h4.5V224.4z M376.8,218h3.8c0.7,0,1.1,0.1,1.3,0.6c0.1,0.2,0.1,0.6,0.1,1
				c0,0.3,0,0.7-0.2,1c-0.2,0.4-0.7,0.5-1.2,0.5h-3.9V218z"/>
			<polygon fill="#FFFFFF" points="402.6,226 394.4,226 394.4,223.7 402.2,223.7 402.2,220.2 394.4,220.2 394.4,218 402.5,218 
				402.5,214.5 389.9,214.5 389.9,229.4 402.6,229.4 			"/>
			<path fill="#FFFFFF" d="M410.1,224.8c0,0,4,0,4.6,0c1.8,0,3.3-0.5,4.1-1.5c0.7-0.8,1.1-2,1.1-3.6c0-1.8-0.5-3.1-1.3-3.9
				c-0.8-0.8-2.1-1.2-3.9-1.2h-9.2v14.9h4.6L410.1,224.8L410.1,224.8z M410.1,218h3.6c0.8,0,1.2,0.2,1.4,0.7c0.1,0.2,0.2,0.6,0.2,1
				c0,0.4,0,0.7-0.2,1c-0.2,0.4-0.6,0.7-1.5,0.7c0,0-3.6,0-3.6,0L410.1,218L410.1,218z"/>
			<path fill="#FFFFFF" d="M429.5,229.7c5.4,0,7.9-2.6,7.9-7.8c0-5-2.3-7.6-7.9-7.6c-5.5,0-8,2.9-8,7.6
				C421.5,227,424,229.7,429.5,229.7z M429.5,217.8c2.5,0,3.3,1.2,3.3,4.2c0,3.3-1.2,4.2-3.3,4.2c-2.2,0-3.3-1-3.3-4.2
				C426.2,219,427,217.8,429.5,217.8z"/>
			<path fill="#FFFFFF" d="M443.9,224.4h3.1l2.6,5h5.1l-3.5-6c0.7-0.2,1.4-0.6,1.8-1.4c0.4-0.7,0.7-1.6,0.7-2.8
				c0-1.4-0.3-2.4-0.9-3.1c-0.8-1-2.1-1.6-4-1.6h-9.4v14.9h4.5V224.4z M444,218h3.8c0.7,0,1.1,0.1,1.3,0.6c0.1,0.2,0.1,0.6,0.1,1
				c0,0.3-0.1,0.7-0.2,1c-0.2,0.4-0.7,0.5-1.2,0.5H444V218z"/>
			<polygon fill="#FFFFFF" points="459.8,229.4 464.5,229.4 464.5,218.1 469.2,218.1 469.2,214.5 455.1,214.5 455.1,218.1 
				459.8,218.1 			"/>
		</g>
	</g>
</g>
</svg>
