<svg id="Layer_1" data-name="Layer 1" xmlns="http://www.w3.org/2000/svg" viewBox="0 0 1648 626"><defs><style>.cls-1{fill:#025fa3;}.cls-2{fill:#e92629;}.cls-3{fill:#fff;}.cls-4{fill:#808184;}.cls-5{fill:#14355d;}</style></defs><title>Artboard 7</title><rect class="cls-1" x="234.77" y="-119.73" width="105.93" height="481.15" transform="translate(166.29 408.34) rotate(-89.88)"/><rect class="cls-2" x="47.16" y="162.41" width="481.09" height="11.91"/><path class="cls-3" d="M309.07,93.19a4,4,0,0,0,.83-2.31h4.3a6.78,6.78,0,0,1-2.08,4.73c1,.75,2.18,1.64,3.3,2.51h-5.84a7.3,7.3,0,0,1-.72-.58,11.37,11.37,0,0,1-4.22.73c-3.64,0-6.92-.66-7.06-3.45,0-.23,0-.6,0-.79,0-1.73,1.7-2.82,3.51-3.66a5.82,5.82,0,0,1-1.25-3.22v-.77c.08-1.87,1.93-3.64,5.11-3.64,2.93,0,4.63,1.68,4.74,3.53,0,.13,0,.56,0,.65-.06,1.93-1.54,3.28-3.06,4.22C307.29,91.69,308.18,92.46,309.07,93.19Zm-6.94,1c0,.73.69,1,2.3,1a6.1,6.1,0,0,0,1.33-.15c-.87-.75-1.79-1.47-2.43-2.1C302.62,93.31,302.12,93.73,302.12,94.16Zm3.76-6.92v-.31a.9.9,0,0,0-1-.94,1,1,0,0,0-1,1,1.42,1.42,0,0,0,0,.41,2.63,2.63,0,0,0,.61,1.41C305.28,88.33,305.82,87.83,305.88,87.23Z"/><path class="cls-3" d="M340.06,98.11h-5.13s-2.3-8.77-2.35-9.28c0,.52-2.37,9.28-2.37,9.28h-5.09l-4.38-15.23h5s2.33,9.41,2.33,9.89c0-.48,2.28-9.89,2.28-9.89h4.82s2.33,9.41,2.33,9.89c0-.48,2.3-9.89,2.3-9.89h4.55Z"/><path class="cls-3" d="M360.58,90.36c0,5.36-2.56,8-8.18,8s-8.17-2.72-8.17-7.93c0-4.86,2.51-7.81,8.17-7.81S360.58,85.27,360.58,90.36Zm-4.74.12c0-3-.83-4.26-3.44-4.26S349,87.41,349,90.47c0,3.22,1.17,4.3,3.41,4.3S355.84,93.87,355.84,90.47Z"/><path class="cls-3" d="M376.35,90.57A3,3,0,0,1,374.46,92L378,98.11h-5.26L370.08,93h-3.16v5.15h-4.63V82.88H372c2,0,3.37.58,4.15,1.6A5.05,5.05,0,0,1,377,87.7,5.6,5.6,0,0,1,376.35,90.57Zm-4.07-3.47c-.23-.48-.69-.64-1.37-.64h-4v3.11h4c.58,0,1.08-.13,1.26-.5a2.87,2.87,0,0,0,.17-1A2.5,2.5,0,0,0,372.28,87.1Z"/><path class="cls-3" d="M379.36,98.11V82.88h4.77V94.35h7.35v3.76Z"/><path class="cls-3" d="M401.56,98.11h-8.64V82.88h8.41c2.78,0,4.49.67,5.44,2s1.12,2.57,1.12,5.34c0,3.24-.21,4.44-1.06,5.71S404.32,98.11,401.56,98.11Zm1.79-7.91a5.91,5.91,0,0,0-.5-2.93,2.63,2.63,0,0,0-2.32-.83h-2.95v8.08h2.95a2.7,2.7,0,0,0,2.36-.87C403.29,93.17,403.35,91.44,403.35,90.2Z"/><path class="cls-3" d="M429.54,90.57A3,3,0,0,1,427.65,92l3.58,6.09H426L423.28,93h-3.16v5.15h-4.63V82.88h9.7c2,0,3.38.58,4.15,1.6a5,5,0,0,1,.89,3.22A5.58,5.58,0,0,1,429.54,90.57Zm-4.07-3.47c-.23-.48-.7-.64-1.37-.64h-4v3.11h4.05c.58,0,1.08-.13,1.25-.5a2.78,2.78,0,0,0,.17-1A2.48,2.48,0,0,0,425.47,87.1Z"/><path class="cls-3" d="M432.55,98.11V82.88h13v3.58h-8.41v2.22h8.1V92.3h-8.1v2.26h8.51v3.55Z"/><path class="cls-3" d="M461.25,91.82A5.55,5.55,0,0,1,457,93.36c-.58,0-4.72,0-4.72,0v4.76h-4.73V82.88H457a5.35,5.35,0,0,1,4,1.27,5,5,0,0,1,1.37,4A5.21,5.21,0,0,1,461.25,91.82Zm-3.8-4.69a1.49,1.49,0,0,0-1.48-.71h-3.74v3.51h3.68a1.58,1.58,0,0,0,1.56-.71,2.14,2.14,0,0,0,.18-1A2.18,2.18,0,0,0,457.45,87.14Z"/><path class="cls-3" d="M479.71,90.36c0,5.36-2.57,8-8.18,8s-8.17-2.72-8.17-7.93c0-4.86,2.51-7.81,8.17-7.81S479.71,85.27,479.71,90.36Zm-4.74.12c0-3-.83-4.26-3.44-4.26s-3.39,1.2-3.39,4.26c0,3.22,1.18,4.3,3.41,4.3S475,93.87,475,90.47Z"/><path class="cls-3" d="M495.48,90.57A3,3,0,0,1,493.59,92l3.59,6.09h-5.26L489.21,93h-3.16v5.15h-4.63V82.88h9.7c2,0,3.37.58,4.15,1.6a5,5,0,0,1,.89,3.22A5.6,5.6,0,0,1,495.48,90.57Zm-4.07-3.47c-.23-.48-.69-.64-1.37-.64h-4v3.11h4c.58,0,1.08-.13,1.25-.5a2.81,2.81,0,0,0,.17-1A2.5,2.5,0,0,0,491.41,87.1Z"/><path class="cls-3" d="M507,86.54V98.11h-4.78V86.54h-4.86V82.88h14.54v3.66Z"/><path class="cls-3" d="M46,66.4V177.1H529.44V66.4Zm481.15,2.27v92.61H501.32c9.29-2.54,13.63-7.95,13.63-16.19,0-10.7-6-15.78-19.73-17.86-2-.31-10-1.45-13.29-2-8.1-1.25-9.86-2.18-9.86-4.67,0-2.7,2.7-4.15,11.84-4.15,7.89,0,10.9,1.35,12,2.91a7.11,7.11,0,0,1,.73,3.11h16.09a28.19,28.19,0,0,0-1-6.85c-2.91-8.2-12.77-12.25-28.45-12.25-18.38,0-27.52,6.64-27.52,16.82,0,10.9,6,16.41,18.59,18.17,3.42.52,10.28,1.56,12.46,1.87,8.41,1.25,11.83,2,11.83,5.19s-2.91,5-12.36,5c-9,0-13.39-.73-14.43-3.42a8.57,8.57,0,0,1-.52-2.91H454.84a23.31,23.31,0,0,0,.62,5.71c1.51,5.88,5.69,9.58,13.4,11.52H437.63l20.43-56.48h-16.3l-13.39,42.46L415.49,104.8H397l-12.56,42.46L370.74,104.8H353.4l20.23,56.48H339.22a29.94,29.94,0,0,0,8.39-3.63A23.38,23.38,0,0,0,358,143.32h-16.3c-.31,1.25-1.77,3.12-4.78,4.46a26.27,26.27,0,0,1-10.49,1.87c-6.23,0-10.9-1.66-13.29-4.26-2-2.18-3.12-4.15-3.12-6.75h48.39c.93-8.62-.62-16.82-4.88-23-5.08-7.37-14-12.15-27.1-12.15-12.46,0-22.32,4.67-27.83,12.67a29.1,29.1,0,0,0-5,16.92c0,7.16,1.56,12.88,4.36,17.34,3.49,5.53,8.91,9.05,15.64,10.9H291.26V84.49H275.1v49.88L245.3,84.49h-19.7v76.79h-2.92V146.14H210.5a23,23,0,0,0,.92-6.58c0-13.23-8-19.6-23.42-22.54-1.77-.29-6.86-1.37-10.78-2.16-12.64-2.55-17.24-4.8-17.24-10.49,0-4.41,2.55-7.25,15.38-7.25,9.8,0,14,2.26,16.07,6.57a10.86,10.86,0,0,1,1.08,3.82H210a23.86,23.86,0,0,0-1.77-7.44c-3.92-9.8-13-16.56-32.43-16.56-22.74,0-33.32,8.82-33.32,22,0,12.84,9.31,19.79,24.4,22.64,3.43.69,9.11,1.77,11.37,2.16,12.54,2.35,15.78,4.6,15.78,11,0,5.1-4.12,8.33-15.87,8.33-10.29,0-15.39-2-17.54-6.47a13.72,13.72,0,0,1-1.08-4.9H142a33,33,0,0,0,1.08,7.94c2.22,6.93,7.09,12.49,18,15.15H142.43V146.14H130.35a23.79,23.79,0,0,0,1.2-7.66v-54h-17v51.64c0,8-6.86,12.84-16.56,12.84C87,149,80.89,144.17,80.89,136V84.49h-17v53c0,13.31,7.77,20.75,19.54,23.77H48.29V68.67Zm-.05,95.44v10.11H48.3V164.11Zm-415.45-2.84c6.77-1.73,12.19-4.85,15.65-9.4v9.4Zm81.09,0c6.8-1.81,11.74-5,14.82-9.21v9.21Zm49,0v-51.8l30.78,51.8Zm152,0c1.54-4.5,11-32.34,11.1-34.15.1-.62.72-4,.72-4s.63,3.38.73,4.11c.19,1.72,9.67,29.55,11.2,34Zm-83.88-33.53c0-1.66,1.56-5.09,3.53-6.85,2.81-2.49,7.17-4,13.08-4,6.23,0,10.17,2,12.56,4.36a10,10,0,0,1,2.8,6.54Z"/><path class="cls-4" d="M87.23,546H54.33v-79h32c11.3,0,20.5,2.7,25.1,8.1,5,5.7,6.9,14.1,6.9,30.2,0,17.3-2.2,25.6-7,31.4C106.33,542.65,98.63,546,87.23,546Zm19.3-40.6c0-11.4-1.5-19.4-4.9-22.8-3.6-3.5-9.7-4.9-17-4.9H65.83v57.7h18.7c7.6,0,13.8-1.6,17.2-5.3C105.23,526.15,106.53,517.55,106.53,505.35Z"/><path class="cls-4" d="M144.73,546h-11.9l30.3-79h14.4l28.8,79h-12.1l-7.2-19.9h-34.8Zm27.5-61.2-2.1-6.8-2.2,6.9-11.9,31h27.4Z"/><path class="cls-4" d="M255.53,547c-20,0-29.2-6.2-32.6-16.4a30.26,30.26,0,0,1-1.3-8h11.9a20.15,20.15,0,0,0,1.2,5.6c2.8,6.3,9.5,8.9,20.7,8.9,14,0,19-4.9,19-11.8,0-8.1-5.2-11.3-17.5-13.8-2.8-.6-7.5-1.5-11.7-2.3-15.6-3-22.9-9.3-22.9-21.9,0-12,9.1-21.3,30.7-21.2,18.4.1,27.2,6.2,31,16.2a22.77,22.77,0,0,1,1.1,7.1h-11.9a13,13,0,0,0-.7-4.5c-2.8-6.1-7.6-8.8-19.9-8.8-13.8,0-18.3,4.4-18.3,10.5,0,6.9,4.2,10.1,17.8,12.7l11.3,2.2c14.5,2.6,23,9.1,23,21.9C286.43,538,276.63,547,255.53,547Z"/><path class="cls-4" d="M360.83,546v-34.2h-38.4V546h-11.6v-79h11.6v33.9h38.4v-33.9h11.5v79Z"/><path class="cls-4" d="M442.93,546h-42.4v-79h39c7.5,0,12.8,2.4,16.2,5.8,3.2,3.1,5,8,5,13.7,0,5.9-2,11.6-5.4,15a11,11,0,0,1-6,3.5,19.68,19.68,0,0,1,11.1,5.6c3.1,3.2,4.7,8.4,4.7,14.3,0,6.3-1.9,11.6-5.5,15.1C456,543.65,450.53,546,442.93,546Zm2.3-66.2c-2.1-1.9-5-2.8-8.6-2.8h-24.7v24.3H439a8.21,8.21,0,0,0,5.9-2.2c2.2-2,3.7-5.4,3.7-10.1C448.63,485.15,447.23,481.65,445.23,479.75ZM453,524c0-4-1.1-7.4-3.7-9.7-2.1-1.9-5.1-2.9-8.8-2.9h-28.6v24.5h28.4c3.9,0,7.1-.9,9.3-2.8S453,527.85,453,524Z"/><path class="cls-4" d="M545.73,476.95c5.2,6,7.7,15.6,7.7,29.1,0,14.2-2.8,23.7-8.3,30.2-5.1,7.1-14.3,10.7-27.1,10.7s-21.6-3.5-27-10.7c-5.6-6.5-8.4-16.4-8.4-30,0-13,2.4-22.7,7.8-28.9,5.6-7.2,14.3-11.5,27.6-11.5S540.13,469.65,545.73,476.95Zm-10.8,53.8c4.7-4.6,6.8-13.5,6.8-24.4,0-10.6-2.1-19.5-6.1-23.6s-8.9-6.5-17.6-6.5-13.5,2.4-17.4,6.5-6.1,13.1-6.1,23.7c0,11.1,2.4,19.8,7.4,24.7,3.6,3.6,8.5,5.6,16.2,5.6C526.22,536.75,531.22,534.35,534.92,530.75Z"/><path class="cls-4" d="M579,546h-11.9l30.3-79h14.4l28.8,79h-12.1l-7.2-19.9h-34.8Zm27.5-61.2-2.1-6.8-2.2,6.9-11.9,31h27.4Z"/><path class="cls-4" d="M717.72,502.55a13.79,13.79,0,0,1-10.3,7.4l18.4,36h-13.1l-16.4-33.5h-24.5V546h-11.4v-79h38.3c10.1,0,15.8,3.7,18.8,9.3,1.8,3.3,2.9,7.4,2.9,13.3C720.42,495.25,719.32,499.75,717.72,502.55Zm-10.1-19.9c-1.6-3.4-5.2-5.3-11.4-5.3h-24.3v25.1h26.4c4.4-.1,7.8-1.5,9.1-4.3a23.74,23.74,0,0,0,1.2-7.6A27.16,27.16,0,0,0,707.62,482.65Z"/><path class="cls-4" d="M776.62,546h-32.9v-79h32c11.3,0,20.5,2.7,25.1,8.1,5,5.7,6.9,14.1,6.9,30.2,0,17.3-2.2,25.6-7,31.4C795.72,542.65,788,546,776.62,546Zm19.3-40.6c0-11.4-1.5-19.4-4.9-22.8-3.6-3.5-9.7-4.9-17-4.9h-18.8v57.7h18.7c7.6,0,13.8-1.6,17.2-5.3C794.62,526.15,795.92,517.55,795.92,505.35Z"/><path class="cls-5" d="M124.13,411.32h-69V262.42h63.92c15.6,0,24.63,4.14,31,11.09,4.7,5.08,7.9,14.48,7.9,26.13,0,11.09-2.26,21.24-7.33,26.7a22.93,22.93,0,0,1-13,7.9,30.81,30.81,0,0,1,19,10.72c4.89,5.83,7.52,16,7.52,26.32,0,10.9-3.2,21.62-8.65,28C149.51,406.25,139.73,411.32,124.13,411.32Zm3.57-122.39c-3-3.76-7.52-5.26-14.29-5.26h-34v42.68h36.1c4.51,0,9.21-1.32,12.22-4.89,3.2-3.57,4.7-9.21,4.7-17.11C132.4,298.14,130.52,292.31,127.7,288.93ZM138,369c0-6.39-1.32-13-5.08-16.92-3.2-3.76-9.59-5.08-15-5.08H79.39v42.86h37.79c7,0,12.41-1.32,16-4.7S138,375,138,369Z"/><path class="cls-5" d="M182.78,411.32V262.42h91.56V285H207.22v40.23h64.11V348H207.22v40.8h67.87v22.56Z"/><path class="cls-5" d="M348,413.2c-34.4,0-49.44-11.66-54-29.14a73.32,73.32,0,0,1-1.69-16.36h25A54.74,54.74,0,0,0,319.08,379c3,8.84,12.22,13,28.39,13,19,0,27.07-6.77,27.07-18,0-12.6-6-18.61-25.94-25.57-3.76-1.32-12.6-4.51-18.8-6.77-22.37-7.14-36.85-20.49-36.85-42.49,0-22.94,16.54-38.35,51.7-38.35,30.64,0,45.5,11.66,50.95,30.08a57.16,57.16,0,0,1,2.26,14.66H372.66a28.42,28.42,0,0,0-1.69-9.4c-3.2-9.21-10.72-13.72-26.88-13.72-19,0-25.76,6-25.76,16,0,11.66,9,17.48,27.26,23.5,5.26,1.69,14.1,5.26,18.24,6.58,23.31,8.27,36.1,20.3,36.1,43.43C399.92,396.66,382.81,413.2,348,413.2Z"/><path class="cls-5" d="M478.13,284.79V411.32H452.94V284.79h-40V262.42H518.36v22.37Z"/><path class="cls-5" d="M666.88,411.32v-63H612.73v63H587.91V262.42h24.82V325h54.15V262.42H691.5v148.9Z"/><path class="cls-5" d="M824.79,283.67c7,12.6,9.78,30.46,9.78,52.45,0,23.5-3.38,42.11-11.28,55.27-7.9,13.54-22.75,21.81-47.19,21.81-24.06,0-38.73-8.08-47.19-21.24-7.71-12.6-11.09-31.58-11.09-55.65,0-21.81,3.2-40.8,10-51.89,8.65-14.29,23.31-23.69,48.32-23.69C800.73,260.73,816.33,269,824.79,283.67ZM801.1,380.49c6-7.33,8.65-27.07,8.65-43.8,0-18.24-1.88-33.46-7.9-42.49-5.08-7.33-12-11.66-25.57-11.66-13.72,0-20.3,4.51-25.38,12-5.83,9.4-7.71,26.32-7.71,42.49,0,18.42,2.82,35.16,9.21,44,4.51,6,11.84,10.34,24.06,10.34C789.07,391.39,796,386.69,801.1,380.49Z"/><path class="cls-5" d="M905.44,413.2c-34.4,0-49.44-11.66-54-29.14a73.32,73.32,0,0,1-1.69-16.36h25A54.74,54.74,0,0,0,876.49,379c3,8.84,12.22,13,28.39,13,19,0,27.07-6.77,27.07-18,0-12.6-6-18.61-25.94-25.57-3.76-1.32-12.6-4.51-18.8-6.77-22.37-7.14-36.85-20.49-36.85-42.49,0-22.94,16.54-38.35,51.7-38.35,30.64,0,45.5,11.66,50.95,30.08a57.16,57.16,0,0,1,2.26,14.66H930.07a28.42,28.42,0,0,0-1.69-9.4c-3.2-9.21-10.72-13.72-26.88-13.72-19,0-25.76,6-25.76,16,0,11.66,9,17.48,27.26,23.5,5.26,1.69,14.1,5.26,18.24,6.58,23.31,8.27,36.1,20.3,36.1,43.43C957.33,396.66,940.22,413.2,905.44,413.2Z"/><path class="cls-5" d="M1075.58,344c-6.39,8.84-17.48,13-32.71,13.35-3.76.19-38,0-38,0v54h-25V262.42h63.17c16.36,0,26.32,4.51,32,12.6,5.26,7,7.9,18,7.9,34.78C1082.92,326.16,1080.85,337.06,1075.58,344Zm-20.12-51.51c-2.63-5.08-8.46-7.71-17.48-7.71h-33.28V335h32.71c10.53,0,15.6-3,18.24-8.08,1.69-3.38,2.07-8.08,2.07-16.73S1057,295.32,1055.47,292.5Z"/><path class="cls-5" d="M1105.1,411.32V262.42h25.38v148.9Z"/><path class="cls-5" d="M1216.39,284.79V411.32H1191.2V284.79h-40V262.42h105.47v22.37Z"/><path class="cls-5" d="M1270.35,411.32h-25.19l47-148.9h31.58l44,148.9h-25.57l-10.34-36.1h-50.57ZM1310.2,298.9c-.38-1.5-2.82-13.35-2.82-13.35s-2.44,11.84-2.82,13.35c-.19.94-16.54,54.9-16.54,54.9h37.41S1310.58,300,1310.2,298.9Z"/><path class="cls-5" d="M1384.09,411.32V262.42h25V388.76h63v22.56Z"/><path class="cls-5" d="M1536,413.2c-34.4,0-49.44-11.66-54-29.14a73.32,73.32,0,0,1-1.69-16.36h25A54.74,54.74,0,0,0,1507,379c3,8.84,12.22,13,28.39,13,19,0,27.07-6.77,27.07-18,0-12.6-6-18.61-25.94-25.57-3.76-1.32-12.6-4.51-18.8-6.77-22.37-7.14-36.85-20.49-36.85-42.49,0-22.94,16.54-38.35,51.7-38.35,30.64,0,45.5,11.66,50.95,30.08a57.16,57.16,0,0,1,2.26,14.66h-25.19a28.42,28.42,0,0,0-1.69-9.4c-3.2-9.21-10.72-13.72-26.88-13.72-19,0-25.76,6-25.76,16,0,11.66,9,17.48,27.26,23.5,5.26,1.69,14.1,5.26,18.24,6.58,23.31,8.27,36.1,20.3,36.1,43.43C1587.88,396.66,1570.77,413.2,1536,413.2Z"/></svg>