<svg id="Layer_1" data-name="Layer 1" xmlns="http://www.w3.org/2000/svg" xmlns:xlink="http://www.w3.org/1999/xlink" viewBox="0 0 703.46 358.48"><defs><style>.cls-1{fill:#fff;}.cls-2{fill:#a6a8ac;}.cls-3{fill:url(#linear-gradient);}.cls-4{fill:#333;}.cls-5{fill:#00518e;}.cls-6{fill:#dcddde;}.cls-7{fill:#ce2027;}.cls-8{fill:#005ea5;}.cls-9{fill:#ec2127;}</style><linearGradient id="linear-gradient" x1="95.4" y1="4.51" x2="314.61" y2="317.56" gradientUnits="userSpaceOnUse"><stop offset="0.13" stop-color="#d3b168"/><stop offset="0.39" stop-color="#ffecba"/><stop offset="0.47" stop-color="#f9e5b1"/><stop offset="0.61" stop-color="#ead299"/><stop offset="0.78" stop-color="#d0b471"/><stop offset="0.97" stop-color="#ad8a3b"/><stop offset="1" stop-color="#a88433"/></linearGradient></defs><title>Artboard 1</title><polygon class="cls-1" points="60.7 304.9 60.7 15.83 349.32 15.83 349.32 304.89 205 350.49 60.7 304.9"/><path class="cls-2" d="M348.76,16.39v288L205,349.91,61.25,304.43v-288h287.5m1.12-1.11H60.14V305.45L205,351.07l144.87-45.62V15.28Z"/><polygon class="cls-3" points="341.94 23.65 68.07 23.65 68.07 298.42 205 341.21 341.94 298.42 341.94 23.65"/><path class="cls-4" d="M102.84,177.3V154.44H88V177.3H82.34V126.54H88V149h14.81V126.54h5.68V177.3Z"/><path class="cls-4" d="M141.29,133.24c1.72,4,2.3,10.15,2.3,18.46,0,9.13-.7,14.81-2.49,18.77-2.24,5-5.87,7.34-12.26,7.34s-10.41-2.62-12.32-7.28c-1.47-3.58-2.43-8.88-2.43-18.71,0-8.37.7-14.18,2.43-18.52,1.66-4.15,5.75-7.22,12.32-7.22S139.31,128.71,141.29,133.24Zm-5.43,35.5c1.28-2.94,2-8.43,2-16.86,0-5.17-.45-13-1.72-16-1-2.43-3.45-4.41-7.28-4.41s-6.07,1.92-7.09,4.34C120.47,138.86,120,146.72,120,152c0,5.81.32,13,1.79,16.54,1.34,3.26,4.47,4.28,7.09,4.28C132.15,172.83,134.71,171.36,135.86,168.75Z"/><path class="cls-4" d="M161.21,177.81c-8.3,0-12.52-3.06-13.47-8.49a32.48,32.48,0,0,1-.38-6.19H153c0,1.09.19,3.64.38,5,.51,3.38,3.58,4.66,8,4.66,4.92,0,7.41-2.23,7.41-7.28,0-4.73-1.79-7.41-7.15-10.79l-5-3.19c-5.68-3.64-9.26-7.15-9.26-14,0-6.71,4.34-11.43,13.22-11.37,8.17,0,12,3.45,13.22,9.39a24.43,24.43,0,0,1,.32,5.17h-5.75a24.42,24.42,0,0,0-.19-4.15c-.7-3.64-2.81-5.3-7.79-5.3s-7.09,2.36-7.09,6.26c0,4.21,1.79,6.51,7.28,10,1.53,1,3.64,2.23,4.79,2.94,5.88,3.64,9.26,7.47,9.26,14.69C174.69,173.34,170,177.81,161.21,177.81Z"/><path class="cls-4" d="M203.68,153.36c-1.72,2.49-4.53,4-8.62,4.15-1.09.06-9.32,0-9.32,0v19.8h-5.68V126.54h15.26c4.41,0,6.64,1.47,8.3,4.09,1.4,2.17,2.3,5.68,2.3,11.49S205.21,151.12,203.68,153.36Zm-4.6-18.77c-1.15-2-2.49-2.68-5-2.68h-8.37v20.37h8c3.19,0,4.53-1.21,5.36-2.75.64-1.15,1-3.45,1-7.28S199.66,135.6,199.08,134.58Z"/><path class="cls-4" d="M211.22,177.3V126.54H217V177.3Z"/><path class="cls-4" d="M237.21,131.84V177.3H231.4V131.84h-10.6v-5.3h27.08v5.3Z"/><path class="cls-4" d="M250.3,177.3h-5.75l12.32-50.77h7.22l11.3,50.77h-5.87l-2.68-12.45H253ZM261,137.78c-.13-.64-.7-5-.7-5s-.7,4.34-.83,5c-.19.89-5.24,22-5.24,22h11.56S261.15,138.48,261,137.78Z"/><path class="cls-4" d="M279.1,177.3V126.54h5.75v45.4h16.73v5.36Z"/><path class="cls-4" d="M316.14,177.81c-8.3,0-12.52-3.06-13.47-8.49a32.48,32.48,0,0,1-.38-6.19h5.62c0,1.09.19,3.64.38,5,.51,3.38,3.58,4.66,8,4.66,4.92,0,7.41-2.23,7.41-7.28,0-4.73-1.79-7.41-7.15-10.79l-5-3.19c-5.68-3.64-9.26-7.15-9.26-14,0-6.71,4.34-11.43,13.22-11.37,8.17,0,12,3.45,13.22,9.39a24.43,24.43,0,0,1,.32,5.17h-5.75a24.42,24.42,0,0,0-.19-4.15c-.7-3.64-2.81-5.3-7.79-5.3s-7.09,2.36-7.09,6.26c0,4.21,1.79,6.51,7.28,10,1.53,1,3.64,2.23,4.79,2.94,5.88,3.64,9.26,7.47,9.26,14.69C329.61,173.34,325,177.81,316.14,177.81Z"/><path class="cls-1" d="M129.37,286.41a5,5,0,0,1-3.74,2.69l6.69,13.08h-4.76l-6-12.18h-8.91v12.18h-4.14V273.47h13.92c3.67,0,5.74,1.34,6.83,3.38a9.73,9.73,0,0,1,1.05,4.83A9.86,9.86,0,0,1,129.37,286.41Zm-3.67-7.23c-.58-1.24-1.89-1.93-4.14-1.93h-8.83v9.12h9.6c1.6,0,2.84-.54,3.31-1.56a8.63,8.63,0,0,0,.44-2.76A9.85,9.85,0,0,0,125.7,279.17Z"/><path class="cls-1" d="M138.34,302.18H134l11-28.71h5.23l10.47,28.71h-4.4l-2.62-7.23H141.07Zm10-22.24-.76-2.47-.8,2.51-4.33,11.27h10Z"/><path class="cls-1" d="M181,302.18l-13.38-22.5v22.5h-4V273.47h5.05l13,22.1v-22.1h4v28.71Z"/><path class="cls-1" d="M208.32,302.18l-10.61-13.41L195,291.6v10.58h-4.22V273.47H195v13.16l13.19-13.16h5.09L200.83,286l12.68,16.17Z"/><path class="cls-1" d="M216.37,302.18V273.47h4.29v28.71Z"/><path class="cls-1" d="M243.2,302.18l-13.38-22.5v22.5h-4V273.47h5.05l13,22.1v-22.1h4v28.71Z"/><path class="cls-1" d="M272.77,302.18l-.22-3.49c-1.09,1.71-3.42,3.85-8.65,3.85-6.4,0-12.1-2.69-12.1-14.72,0-8.58,3.16-14.76,12.61-14.76,8.43,0,11.63,4.51,11.63,10.07h-4.11c0-3.56-1.85-6.25-7.38-6.25s-8.43,2.65-8.43,11,2.62,11,8.5,11c4.25,0,6.76-2.22,7.6-4.76.11-.4.07-3.89.07-4.14h-9.23v-3.71h13.12v8.21c0,3.53,0,7.56,0,7.63Z"/><path class="cls-1" d="M291.61,302.54c-7.27,0-10.61-2.25-11.85-6a11,11,0,0,1-.47-2.91h4.33a7.31,7.31,0,0,0,.44,2c1,2.29,3.45,3.24,7.52,3.24,5.09,0,6.91-1.78,6.91-4.29,0-2.94-1.89-4.11-6.36-5-1-.22-2.73-.55-4.25-.84-5.67-1.09-8.32-3.38-8.32-8,0-4.36,3.31-7.74,11.16-7.71,6.69,0,9.89,2.25,11.27,5.89a8.27,8.27,0,0,1,.4,2.58H298a4.73,4.73,0,0,0-.25-1.64c-1-2.22-2.76-3.2-7.23-3.2-5,0-6.65,1.6-6.65,3.82,0,2.51,1.53,3.67,6.47,4.62l4.11.8c5.27.94,8.36,3.31,8.36,8C302.84,299.27,299.28,302.54,291.61,302.54Z"/><path class="cls-4" d="M90.32,106.86V49.32H80.89v-9.6h25.54q10.54,0,15.81,1.27a16.81,16.81,0,0,1,9.3,6.43,19.11,19.11,0,0,1,4,12.11,19.48,19.48,0,0,1-2.4,9.65,15.41,15.41,0,0,1-7,6.51A18.91,18.91,0,0,1,136,83a20.36,20.36,0,0,1,3.45,11.67A20.94,20.94,0,0,1,136.86,105a18.7,18.7,0,0,1-6.81,7.17,27,27,0,0,1-9.3,3.42,83.9,83.9,0,0,1-13.76.88H80.89v-9.6Zm11.59-35.2h7.23q8.28,0,11.56-2.9T124,60.24q0-10.92-14.84-10.92h-7.23Zm0,35.2h4.36a65.58,65.58,0,0,0,12.52-.85,11,11,0,0,0,6.48-4,12.72,12.72,0,0,0,2.51-8.14,11.92,11.92,0,0,0-2.4-7.59,11.44,11.44,0,0,0-6.18-4.08,43.13,43.13,0,0,0-10.68-1h-6.62Z"/><path class="cls-4" d="M150.58,106.86V49.32h-9.93v-9.6h63.78V62.83h-9.49V49.32H162.16V72.16h28.52v9.6H162.16v25.1h32.77v-14h9.49v23.56H140.65v-9.6Z"/><path class="cls-4" d="M211,116.65V88.79h9.6v6.79q6.9,12.52,18,12.52a14,14,0,0,0,9.6-3.48,11.59,11.59,0,0,0,3.92-9.1q0-5.46-3.2-7.86t-12.08-4.77a88.29,88.29,0,0,1-15.28-5.21,19.6,19.6,0,0,1-7.92-7,19.38,19.38,0,0,1-3-10.79q0-9.65,6.43-15.42t16.14-5.77a27.8,27.8,0,0,1,17.1,6V39.53h9.38V62.81h-9.38V57.46q-5.9-8.88-16.28-8.88-6.29,0-9.65,2.9a8.85,8.85,0,0,0-3.37,6.92,9,9,0,0,0,1.71,5.43,10.11,10.11,0,0,0,4.36,3.45,90.8,90.8,0,0,0,10.43,3.08q10.15,2.64,14.73,4.93a19.9,19.9,0,0,1,7.89,7.64,22.92,22.92,0,0,1,3.31,12.31,21.14,21.14,0,0,1-6.92,16.23,24.28,24.28,0,0,1-17.13,6.4,27.46,27.46,0,0,1-18.87-7.56v6.34Z"/><path class="cls-4" d="M292.53,107.06V49.51H276.7V69.1h-9.49V39.91h62.18V69.1H319.9V49.51H304.12v57.54h10v9.6H282.71v-9.6Z"/><polygon class="cls-5" points="14.96 205.52 59.91 205.52 59.91 266.04 18.76 266.04 27.49 241.18 14.96 205.52"/><polygon class="cls-6" points="59.91 268.52 17.88 268.52 18.76 266.04 59.91 266.04 59.91 268.52"/><polygon class="cls-7" points="59.91 276.83 14.96 276.83 17.88 268.52 59.91 268.52 59.91 276.83"/><polygon class="cls-5" points="395.12 205.52 350.17 205.52 350.17 266.04 391.32 266.04 382.59 241.18 395.12 205.52"/><polygon class="cls-6" points="350.17 268.52 392.19 268.52 391.32 266.04 350.17 266.04 350.17 268.52"/><polygon class="cls-7" points="350.17 276.83 395.12 276.83 392.19 268.52 350.17 268.52 350.17 276.83"/><polygon class="cls-4" points="60.17 261.17 60.17 277.05 41.58 261.1 60.17 261.17"/><polygon class="cls-4" points="350.05 261.17 350.05 277.05 367.2 261.1 350.05 261.17"/><rect class="cls-8" x="41.65" y="189.57" width="325.43" height="63.4"/><g id="U.S.News"><path class="cls-1" d="M88.32,251.92c-11.51,0-20.11-4.32-20.11-15.14V205.15H78.33V235.9c0,4.86,3.63,7.71,10.23,7.71,5.79,0,9.88-2.86,9.88-7.65V205.15h10.11v32.21C108.55,247.13,100.14,251.92,88.32,251.92Z"/><path class="cls-1" d="M106,251.34v-9.41h9v9.41Z"/><path class="cls-1" d="M137,252c-14,0-19-4.21-20.86-10.06a19.27,19.27,0,0,1-.65-4.73h10.4a8.18,8.18,0,0,0,.64,2.92c1.28,2.69,4.33,3.86,10.46,3.86,7,0,9.47-1.93,9.47-5,0-3.8-1.93-5.15-9.41-6.55-1.35-.24-4.74-.88-6.78-1.29-9-1.69-14.56-5.84-14.56-13.5,0-7.84,6.31-13.09,19.88-13.09,11.58,0,17,4,19.35,9.87a14.21,14.21,0,0,1,1.06,4.45H145.6a6.57,6.57,0,0,0-.64-2.28c-1.23-2.57-3.74-3.92-9.59-3.92-7.66,0-9.18,1.69-9.18,4.33,0,3.39,2.75,4.73,10.29,6.25,2.33.46,5.37,1.11,6.43,1.29,9.18,1.76,14,5.56,14,13.45C156.88,246.36,150.27,252,137,252Z"/><path class="cls-1" d="M154.58,251.34v-9.41h9v9.41Z"/><path class="cls-1" d="M194.93,251.34l-18.6-31.28v31.28h-9.64V205.15h11.75l17.77,29.76V205.15h9.64v46.19Z"/><path class="cls-1" d="M240.84,248.8c-3,1.92-7.13,3.1-12.64,3.1-7.56,0-13.69-2.23-17-7.44a19,19,0,0,1-2.61-10.34,17.39,17.39,0,0,1,3-10.1c3.28-4.77,9.17-7.56,16.6-7.56,7.8,0,13.14,2.85,16.17,7.24,2.54,3.72,3.46,8.61,2.91,13.75H218.41a5.81,5.81,0,0,0,1.86,4c1.43,1.55,4.21,2.54,7.93,2.54a15.64,15.64,0,0,0,6.26-1.12,4.73,4.73,0,0,0,2.84-2.66H247A13.93,13.93,0,0,1,240.84,248.8Zm-5.08-21.74c-1.43-1.42-3.78-2.61-7.5-2.61-3.52,0-6.13.93-7.8,2.42a7,7,0,0,0-2.11,4.09h19.07A6,6,0,0,0,235.76,227.05Z"/><path class="cls-1" d="M295.76,251.34h-11.7s-6.7-19.57-6.82-20.69c-.07-.43-.44-2.45-.44-2.45s-.37,2-.43,2.39c-.06,1.18-6.75,20.76-6.75,20.76H257.84l-12.19-34.07H256l8.18,25.33,7.49-25.33h11l7.68,25.33,8-25.33h9.74Z"/><path class="cls-1" d="M326.28,252c-11.52,0-17-2.29-18.4-7.87a14,14,0,0,1-.36-3.4h9.85a5.14,5.14,0,0,0,.31,1.73c.62,1.61,3.22,2,8.61,2,5.63,0,7.37-1,7.37-3s-2-2.35-7.06-3.1l-7.43-1.12c-7.5-1.05-11.09-4.33-11.09-10.84,0-6.06,5.45-10,16.42-10,9.34,0,15.24,2.42,17,7.3a16.77,16.77,0,0,1,.62,4.09h-9.6a4.31,4.31,0,0,0-.43-1.86c-.68-.93-2.48-1.74-7.18-1.74-5.45,0-7.07.88-7.07,2.48s1.06,2,5.89,2.79c2,.3,6.75,1,7.92,1.17,8.18,1.24,11.77,4.28,11.77,10.66C343.38,248.36,338,252,326.28,252Z"/></g><g id="_World_Report" data-name="&amp; World Report"><path class="cls-1" d="M216.92,211.41a2.48,2.48,0,0,0,.51-1.41H220a4.17,4.17,0,0,1-1.26,2.88c.61.46,1.31,1,2,1.53h-3.53a4.22,4.22,0,0,1-.43-.35,7,7,0,0,1-2.56.45c-2.21,0-4.19-.4-4.28-2.1,0-.14,0-.36,0-.48,0-1.06,1-1.71,2.13-2.23a3.58,3.58,0,0,1-.76-2v-.47c.05-1.14,1.17-2.22,3.11-2.22,1.76,0,2.79,1,2.86,2.15a3.69,3.69,0,0,1,0,.4,3.29,3.29,0,0,1-1.85,2.57C215.85,210.5,216.39,211,216.92,211.41Zm-4.2.58c0,.45.42.62,1.39.62a3.49,3.49,0,0,0,.81-.09c-.53-.46-1.09-.89-1.48-1.28C213,211.48,212.72,211.74,212.72,212Zm2.27-4.21v-.19a.54.54,0,0,0-.59-.58.61.61,0,0,0-.63.61,1.34,1.34,0,0,0,0,.25,1.69,1.69,0,0,0,.38.85C214.63,208.45,215,208.15,215,207.78Z"/><path class="cls-1" d="M234.74,214.41h-3.1s-1.39-5.35-1.42-5.65c0,.31-1.44,5.65-1.44,5.65h-3.08L223,205.13h3s1.42,5.73,1.42,6c0-.29,1.37-6,1.37-6h2.92s1.41,5.73,1.41,6c0-.29,1.39-6,1.39-6h2.76Z"/><path class="cls-1" d="M247.34,209.69c0,3.26-1.55,4.86-4.95,4.86s-5-1.66-5-4.83c0-3,1.52-4.76,5-4.76S247.34,206.59,247.34,209.69Zm-2.87.07c0-1.84-.5-2.6-2.08-2.6s-2.06.73-2.06,2.6.71,2.62,2.07,2.62S244.47,211.82,244.47,209.76Z"/><path class="cls-1" d="M257.11,209.82a1.81,1.81,0,0,1-1.14.88l2.17,3.71H255l-1.63-3.14H251.4v3.14h-2.8v-9.28h5.87a2.93,2.93,0,0,1,2.51,1,3.06,3.06,0,0,1,.53,2A3.41,3.41,0,0,1,257.11,209.82Zm-2.47-2.12c-.14-.29-.41-.39-.82-.39h-2.39v1.9h2.45c.35,0,.65-.08.75-.31a1.59,1.59,0,0,0,.11-.6A1.44,1.44,0,0,0,254.65,207.7Z"/><path class="cls-1" d="M259.48,214.41v-9.28h2.87v7h4.46v2.29Z"/><path class="cls-1" d="M273.46,214.41h-5.23v-9.28h5.1c1.68,0,2.72.41,3.29,1.21s.68,1.56.68,3.25c0,2-.14,2.7-.65,3.48S275.13,214.41,273.46,214.41Zm1.08-4.82a3.76,3.76,0,0,0-.29-1.79,1.59,1.59,0,0,0-1.4-.5h-1.79v4.92h1.79a1.64,1.64,0,0,0,1.43-.53A5,5,0,0,0,274.54,209.59Z"/><path class="cls-1" d="M290.53,209.82a1.8,1.8,0,0,1-1.15.88l2.18,3.71h-3.18l-1.64-3.14h-1.92v3.14H282v-9.28h5.87a2.93,2.93,0,0,1,2.51,1,3.07,3.07,0,0,1,.54,2A3.45,3.45,0,0,1,290.53,209.82Zm-2.46-2.12c-.14-.29-.43-.39-.83-.39h-2.39v1.9h2.45c.35,0,.66-.08.76-.31a1.63,1.63,0,0,0,.1-.6A1.55,1.55,0,0,0,288.07,207.7Z"/><path class="cls-1" d="M293,214.41v-9.28h7.89v2.18h-5.09v1.35h4.91v2.21h-4.91v1.38H301v2.16Z"/><path class="cls-1" d="M311.07,210.58a3.34,3.34,0,0,1-2.57.94l-2.86,0v2.9h-2.86v-9.28h5.71a3.21,3.21,0,0,1,2.42.77,3.06,3.06,0,0,1,.84,2.42A3.18,3.18,0,0,1,311.07,210.58Zm-2.3-2.85a.89.89,0,0,0-.9-.44H305.6v2.14h2.23c.55,0,.81-.18.94-.43a1.22,1.22,0,0,0,.11-.62A1.29,1.29,0,0,0,308.77,207.73Z"/><path class="cls-1" d="M322.65,209.69c0,3.26-1.55,4.86-4.94,4.86s-5-1.66-5-4.83c0-3,1.52-4.76,5-4.76S322.65,206.59,322.65,209.69Zm-2.87.07c0-1.84-.5-2.6-2.07-2.6s-2.06.73-2.06,2.6.7,2.62,2.06,2.62S319.78,211.82,319.78,209.76Z"/><path class="cls-1" d="M332.46,209.82a1.82,1.82,0,0,1-1.15.88l2.16,3.71h-3.18l-1.63-3.14h-1.92v3.14h-2.8v-9.28h5.87a3,3,0,0,1,2.51,1,3.09,3.09,0,0,1,.54,2A3.51,3.51,0,0,1,332.46,209.82ZM330,207.7c-.14-.29-.42-.39-.83-.39h-2.39v1.9h2.45c.35,0,.66-.08.76-.31a1.79,1.79,0,0,0,.1-.6A1.6,1.6,0,0,0,330,207.7Z"/><path class="cls-1" d="M339.53,207.37v7h-2.89v-7H333.7v-2.24h8.8v2.24Z"/></g><rect class="cls-1" x="41.67" y="250.37" width="325.4" height="2.98"/><rect class="cls-9" x="41.58" y="252.86" width="325.63" height="8.63"/><path class="cls-4" d="M567.76,67.65,559,94c50.3,2.39,71.6,29.54,71.6,59.62,0,39.13-36.2,83.31-90.76,83.31-24.49,0-39.66-9.85-39.66-22.89,0-7.45,4.79-14.91,16.24-14.91,3.19,19.16,17.3,26.62,33.27,26.62,36.73,0,60.42-30.61,60.42-59.62,0-24.75-14.37-50.84-57.49-50.84-2.93,0-4.23,2.33-7.19,2.66-1.59.18-3.19-.53-3.19-1.86,0-6.12,22.27-64.15,21.85-69.46l62-5.06c16.22-1.72,22.62-12.24,26.09-12.51a1.88,1.88,0,0,1,2.13,1.86c0,3.19-10.38,29-34.87,32.21Z"/><path class="cls-4" d="M620,99.83c0,.7.13,1.21.77,1.21,1.85,0,5.94-5.88,7.22-5.88.32,0,.57.26.57.7,0,.7-6.83,10.22-12.26,10.22a2.2,2.2,0,0,1-2.17-2.36c0-3,4.6-14.89,7.6-24h-5.43c-.32,0-.45-.38-.45-.7,0-.58.32-1.41.89-1.41,1.85,0,3.9,0,5.24-.7s2.36-4.47,2.81-6.9a4.73,4.73,0,0,1,2.17-.51c1.28,0,2.43.45,2.43,1.66,0,1.47-1.34,4.22-2,6.07h6.64c.38,0,.51.32.51.77,0,.7-.38,1.72-1,1.72h-7.09C623.1,89.35,620,98.3,620,99.83Z"/><path class="cls-4" d="M639.77,90.44h.13c3.26-5.24,9-13.93,15.27-13.93,3.26,0,4,2.17,4,3.83,0,4.79-8.75,18.59-8.75,20.57a.73.73,0,0,0,.76.77c1.79,0,3.83-2.43,5-3.51.13-.06.2-.13.32-.13.38,0,.64.45.64.83,0,1.6-5.75,7.35-9,7.35-1.6,0-2.68-.7-2.68-2.62,0-4.34,7.73-17.7,7.73-20.83,0-1-.57-1.66-1.4-1.66-2.36,0-8.69,4.66-15.59,21.4-.7,1.73-1.21,3.58-2.36,3.58a4.21,4.21,0,0,1-2.43-.7c1.85-9.46,10.92-47.08,25.3-47.08,1.86,0,2.81.83,2.81,1.85s-.83,1.85-2.43,2.17a5.66,5.66,0,0,0-2.56-.7C649.8,61.63,642.14,82.58,639.77,90.44Z"/><path class="cls-4" d="M520.13,51.38c0-13.46-6.88-23.32-22.43-23.32-13.16,0-21.83,8.37-21.83,22.43a46.93,46.93,0,0,0,2.69,15.25c-4.19,2.69-9.27,4.78-14.35,4.78-9,0-14.05-6.58-14.05-15,0-18.24,25.42-40.07,56.51-40.07,23.92,0,41.86,14.35,41.86,31.1,0,35-50.15,66.81-93.21,90.44h0c8.07-1.79,70.91,7.58,94.5,14.4,18.67,5.4,26.83,15.12,26.83,27.08,0,9.09-5.89,14.72-22.63,24-.53.28-1.2-.3-1.2-.3,15-27.68-44.26-45.87-74.25-49.44-15.54-1.85-33.8-3.9-54.13-2.7-1.2,0-2.09-.6-2.09-2.39,0-1.2,1.2-3,3.29-4.19C479.46,108.79,520.13,76.5,520.13,51.38Z"/><path class="cls-4" d="M486.87,260.22q-.27,2.94-.27,6,0,.64,0,2.48t0,2.48c0,.36-.31.53-.94.53s-.86-.19-.9-.57q-.4-4.55-2.41-6.44t-6.36-1.89H471.5q-3.92,0-4.89,4l-3.55,14.89h8.24q3.41,0,4.89-1.39a12.89,12.89,0,0,0,2.75-5,.91.91,0,0,1,1-.54q.94,0,.94.43t-1,4q-1,3.54-1.81,7.59-.37,2-.62,3.16t-.4,1.66c-.1.36-.4.54-.89.54-.67,0-1-.18-1-.54a30.34,30.34,0,0,0,.2-3.14,5.27,5.27,0,0,0-1-3.6q-1-1-3.63-1h-8.18l-3.69,15.46a13.25,13.25,0,0,0-.4,2.28q0,2.68,3.15,2.68h8.17a12.51,12.51,0,0,0,7.75-2.69,13.34,13.34,0,0,0,4.81-6.94c0-.18.18-.27.54-.27a1.68,1.68,0,0,1,.92.27.66.66,0,0,1,.38.6q-1.84,6-3,11.58-12.22-.4-18.64-.4t-18.67.4c-.27,0-.4-.2-.4-.6a1.47,1.47,0,0,1,.25-.82.8.8,0,0,1,.55-.42,20.9,20.9,0,0,0,4.16-.8,5,5,0,0,0,2.22-1.36,9.1,9.1,0,0,0,1.37-3.49l7.51-31.51a11.09,11.09,0,0,0,.33-2.28,2.43,2.43,0,0,0-1.32-2.28,13.77,13.77,0,0,0-4.63-1.14c-.22,0-.33-.17-.33-.53a1.71,1.71,0,0,1,.25-.89q.25-.43.55-.43,7,.4,16.26.4T486.87,260.22Z"/><path class="cls-4" d="M524.8,258.62a8,8,0,0,1-.33,1.74l-13.68,37.7a16.4,16.4,0,0,0-1.2,4.15q0,1.07.67,1.07,1.14,0,4.22-4.08a6.59,6.59,0,0,1,1.34-1.54,1.15,1.15,0,0,1,.82.38,1.1,1.1,0,0,1,.38.75q0,.57-2.19,3.28a23.67,23.67,0,0,1-4.27,4.23,6.55,6.55,0,0,1-3.71,1.52q-3.61,0-3.61-3.75a18.23,18.23,0,0,1,1.87-6.69,27.57,27.57,0,0,1-6.21,7.46q-3.6,3-6.44,3a4.58,4.58,0,0,1-3.76-1.84,7.6,7.6,0,0,1-1.46-4.85q0-4.75,3.3-10.4A35.88,35.88,0,0,1,498.8,281q5-4.08,8.65-4.08a6.64,6.64,0,0,1,2.49.54,4.4,4.4,0,0,1,1.92,1.34l3.74-10.6a9.29,9.29,0,0,0,.73-3q0-1.31-2.88-1.64-.6-.07-.6-.84t.53-.8a33.48,33.48,0,0,0,5.08-1.49,24.67,24.67,0,0,0,4.51-2.06,2.6,2.6,0,0,1,1.14-.47Q524.8,257.88,524.8,258.62Zm-14.15,23.72q0-3.28-3.21-3.28-2.81,0-6.21,3.45a29.22,29.22,0,0,0-5.69,8.45,22.39,22.39,0,0,0-2.29,9.25q0,3.14,2.14,3.15t5.61-3.7a50.06,50.06,0,0,0,6.49-9.47Q510.65,284.41,510.65,282.33Z"/><path class="cls-4" d="M536.24,279.72a11.72,11.72,0,0,1-1.4,5l-7.29,14.78a8.78,8.78,0,0,0-1.14,3.28c0,.54.18.8.53.8q1.1,0,4.55-4,1.6-1.91,1.87-1.91a1,1,0,0,1,.75.38,1.2,1.2,0,0,1,.32.75q0,.47-2.59,3.19a30.91,30.91,0,0,1-4.88,4.28,7.36,7.36,0,0,1-3.83,1.56q-3.21,0-3.21-2.95a12.91,12.91,0,0,1,1.47-4.88l7.29-14.72a8.73,8.73,0,0,0,1.14-3.41c0-.45-.2-.67-.6-.67q-1.14,0-4.75,4.18a8.11,8.11,0,0,1-1.67,1.71.89.89,0,0,1-.72-.35,1.22,1.22,0,0,1-.28-.79q0-.5,2.56-3.21a29.75,29.75,0,0,1,4.87-4.27,7.45,7.45,0,0,1,3.88-1.56Q536.24,276.91,536.24,279.72Zm3.95-15.35a3.77,3.77,0,0,1-3.75,3.75,3.69,3.69,0,0,1-2.71-1.1,3.6,3.6,0,0,1-1.1-2.64,3.7,3.7,0,0,1,1.1-2.69,3.66,3.66,0,0,1,2.71-1.12,3.58,3.58,0,0,1,2.64,1.12A3.7,3.7,0,0,1,540.19,264.37Z"/><path class="cls-4" d="M560.86,279.52a2.08,2.08,0,0,1-.45,1.27,1.21,1.21,0,0,1-.89.6l-6.76-.2-6.3,18.26a12,12,0,0,0-.67,3c0,.71.25,1.07.74,1.07q1.57,0,6.29-4.25a9.29,9.29,0,0,1,2-1.64,1.13,1.13,0,0,1,.84.38,1.11,1.11,0,0,1,.37.75q0,.54-2.94,3.19a37.26,37.26,0,0,1-5.57,4.25,8.93,8.93,0,0,1-4.2,1.59q-3.68,0-3.68-3.75a12.61,12.61,0,0,1,.8-4.08l6.42-18.73-5.15.13c-.45,0-.67-.36-.67-1.07a2.12,2.12,0,0,1,.45-1.25c.3-.41.6-.62.89-.62h5.42l2.47-7.19q.17-.5,1.22-.82a7.29,7.29,0,0,1,2.12-.32,5.31,5.31,0,0,1,1.75.28c.54.19.82.42.82.69l0,.17-2.47,7.19h6.43Q560.86,278.45,560.86,279.52Z"/><path class="cls-4" d="M576.51,279.72a11.7,11.7,0,0,1-1.4,5l-7.29,14.78a8.78,8.78,0,0,0-1.14,3.28c0,.54.18.8.54.8q1.1,0,4.55-4,1.6-1.91,1.87-1.91a1,1,0,0,1,.75.38,1.19,1.19,0,0,1,.32.75q0,.47-2.59,3.19a30.92,30.92,0,0,1-4.88,4.28,7.36,7.36,0,0,1-3.83,1.56q-3.21,0-3.21-2.95a12.92,12.92,0,0,1,1.47-4.88L569,285.28a8.73,8.73,0,0,0,1.14-3.41q0-.67-.6-.67-1.14,0-4.75,4.18a8.07,8.07,0,0,1-1.67,1.71.89.89,0,0,1-.72-.35,1.22,1.22,0,0,1-.28-.79q0-.5,2.56-3.21a29.68,29.68,0,0,1,4.87-4.27,7.45,7.45,0,0,1,3.88-1.56Q576.51,276.91,576.51,279.72Zm3.95-15.35a3.77,3.77,0,0,1-3.75,3.75A3.68,3.68,0,0,1,574,267a3.61,3.61,0,0,1-1.1-2.64,3.7,3.7,0,0,1,1.1-2.69,3.65,3.65,0,0,1,2.71-1.12,3.58,3.58,0,0,1,2.64,1.12A3.69,3.69,0,0,1,580.46,264.37Z"/><path class="cls-4" d="M604.08,287.22a20.84,20.84,0,0,1-2.51,9.63,23.3,23.3,0,0,1-6.49,7.91,12.92,12.92,0,0,1-7.86,3.06,7,7,0,0,1-5.62-2.93,11.33,11.33,0,0,1-2.34-7.31,20.93,20.93,0,0,1,2.49-9.63,23.58,23.58,0,0,1,6.46-7.95,12.79,12.79,0,0,1,7.85-3.09,7.08,7.08,0,0,1,5.65,2.94A11.34,11.34,0,0,1,604.08,287.22Zm-5.49-4.35a5.56,5.56,0,0,0-.55-3,2.27,2.27,0,0,0-2-.78q-2.24,0-5,3.68a31.1,31.1,0,0,0-4.57,8.95,31.68,31.68,0,0,0-1.77,10.12,5.6,5.6,0,0,0,.57,3,2.33,2.33,0,0,0,2,.8q2.21,0,5-3.66a31,31,0,0,0,4.55-8.95A32,32,0,0,0,598.59,282.87Z"/><path class="cls-4" d="M636.33,281.33a14.86,14.86,0,0,1-1.4,5.55l-5.29,12.58a15.19,15.19,0,0,0-1.14,3.28c0,.54.2.8.6.8q1.21,0,4.25-3.64,1.37-1.64,1.64-1.64a.89.89,0,0,1,.7.37,1.2,1.2,0,0,1,.3.77q0,.57-2.35,3.06a24.82,24.82,0,0,1-4.59,3.93,7.53,7.53,0,0,1-3.85,1.44,3.69,3.69,0,0,1-2.29-.65,2.17,2.17,0,0,1-.85-1.82,14.91,14.91,0,0,1,1.47-5.35L629,287.08a9.58,9.58,0,0,0,.94-3.61q0-1.87-1.54-1.87-1.87,0-5.53,4.85a110.16,110.16,0,0,0-8.16,13.08l-2.22,6.36c-.11.31-.52.58-1.24.8a7.09,7.09,0,0,1-2.11.33,5.32,5.32,0,0,1-1.78-.28q-.81-.29-.8-.69l0-.17,7-20.61a11.07,11.07,0,0,0,.87-3.28q0-.8-.6-.8-1.07,0-3.78,3.51-1.4,1.84-1.71,1.84a1,1,0,0,1-.75-.38,1.2,1.2,0,0,1-.32-.75q0-.47,2.21-3a24.53,24.53,0,0,1,4.27-4,6.54,6.54,0,0,1,3.57-1.46q3.41,0,3.41,3a15.33,15.33,0,0,1-1,4.75l-2,5.69a47.24,47.24,0,0,1,7.56-9.92q3.72-3.53,6.8-3.53a4.12,4.12,0,0,1,3,1.24A4.3,4.3,0,0,1,636.33,281.33Z"/></svg>