<svg id="Layer_1" data-name="Layer 1" xmlns="http://www.w3.org/2000/svg" xmlns:xlink="http://www.w3.org/1999/xlink" viewBox="0 0 686.97 358.48"><defs><style>.cls-1{fill:#fff;}.cls-2{fill:#a6a8ac;}.cls-3{fill:url(#linear-gradient);}.cls-4{fill:#323333;}.cls-5{fill:#00518d;}.cls-6{fill:#dbdcdd;}.cls-7{fill:#cd2028;}.cls-8{fill:#035fa4;}.cls-9{fill:#e92529;}.cls-10,.cls-11{fill:#333;}.cls-11{stroke:#333;stroke-width:2px;}</style><linearGradient id="linear-gradient" x1="80.71" y1="13.91" x2="284.15" y2="304.45" gradientUnits="userSpaceOnUse"><stop offset="0.13" stop-color="#d3b168"/><stop offset="0.39" stop-color="#ffecba"/><stop offset="0.47" stop-color="#f9e5b1"/><stop offset="0.61" stop-color="#ead299"/><stop offset="0.78" stop-color="#d0b471"/><stop offset="0.97" stop-color="#ad8a3b"/><stop offset="1" stop-color="#a88433"/></linearGradient></defs><title>Artboard 1</title><polygon class="cls-1" points="51.64 294.65 51.64 22.5 313.21 22.5 313.21 294.64 182.43 335.97 51.64 294.65"/><path class="cls-2" d="M312.71,23V294.22L182.43,335.44,52.15,294.22V23H312.71m1-1H51.14V295.14l131.29,41.35,131.29-41.35V22Z"/><polygon class="cls-3" points="306.53 29.58 58.32 29.58 58.32 288.78 182.43 327.55 306.53 288.78 306.53 29.58"/><path class="cls-4" d="M97.26,163.09c-1.83,5.24-6.1,7.8-12.07,7.8-5.49,0-8.9-1.65-11.34-5.91-2.32-4-3-12.07-3-19.08,0-8.53.67-14,2.44-17.8,2-4.33,6-6.58,11.95-6.58s10.3,2.68,11.83,7a28.88,28.88,0,0,1,1.52,10.12H93.11c0-2.44-.49-6.52-1.4-8.47-1.1-2.32-3.29-3.47-6.52-3.47-3.41,0-5.61,1-6.83,3.66-1.52,3.35-1.83,9.51-1.83,15.61,0,5.91.79,14,2,16.28,1.46,2.93,4.15,3.78,6.83,3.78,3,0,5.55-1.1,6.71-4.08a22.58,22.58,0,0,0,1.22-8h5.43A26.85,26.85,0,0,1,97.26,163.09Z"/><path class="cls-4" d="M128.16,128.35c1.65,3.78,2.19,9.69,2.19,17.62,0,8.72-.67,14.14-2.38,17.92-2.13,4.75-5.61,7-11.7,7s-9.94-2.5-11.77-6.95c-1.4-3.41-2.32-8.47-2.32-17.86,0-8,.67-13.53,2.32-17.68,1.58-4,5.49-6.89,11.77-6.89S126.27,124,128.16,128.35ZM123,162.24c1.22-2.8,1.89-8,1.89-16.09,0-4.94-.43-12.44-1.65-15.3-1-2.32-3.29-4.21-6.95-4.21s-5.79,1.83-6.77,4.15c-1.22,2.93-1.71,10.42-1.71,15.48,0,5.55.3,12.37,1.71,15.79,1.28,3.11,4.27,4.08,6.77,4.08C119.45,166.14,121.88,164.74,123,162.24Z"/><path class="cls-4" d="M135.66,170.41V121.95h5.49v43.34h16v5.12Z"/><path class="cls-4" d="M160.84,170.41V121.95h5.49v43.34h16v5.12Z"/><path class="cls-4" d="M186.51,170.41V121.95h22.13v5.12H191.87v16.4h15.79v5.06H191.87v16.76h16.89v5.12Z"/><path class="cls-4" d="M234.79,170.41l-.3-3.78c-1.22,2.07-4,4.27-9,4.27-9.33,0-13.23-5.85-13.23-24.69,0-16.34,2.44-24.75,13.84-24.75,10.06,0,12.62,7.62,12.62,16.22h-5.3c0-6.1-1.28-11-7.31-11-6.83,0-8.23,4.45-8.23,19.69,0,14.57,1,19.87,8.35,19.87a7.34,7.34,0,0,0,7.62-5.85V149.13h-9.33V144.2h14.39v14.33c0,5.73.06,11.83.06,11.89Z"/><path class="cls-4" d="M244.3,170.41V121.95h22.13v5.12H249.66v16.4h15.79v5.06H249.66v16.76h16.89v5.12Z"/><path class="cls-4" d="M283.13,170.9c-7.92,0-11.95-2.93-12.86-8.11a31,31,0,0,1-.37-5.91h5.36c0,1,.18,3.47.37,4.82.49,3.23,3.41,4.45,7.68,4.45,4.69,0,7.07-2.13,7.07-6.95,0-4.51-1.71-7.07-6.83-10.3l-4.75-3c-5.43-3.47-8.84-6.83-8.84-13.41,0-6.4,4.15-10.91,12.62-10.85,7.8,0,11.46,3.29,12.62,9a23.34,23.34,0,0,1,.3,4.94H290a23.32,23.32,0,0,0-.18-4c-.67-3.47-2.68-5.06-7.44-5.06s-6.77,2.26-6.77,6c0,4,1.71,6.22,6.95,9.51,1.46.91,3.47,2.13,4.57,2.8,5.61,3.47,8.84,7.13,8.84,14C296,166.63,291.54,170.9,283.13,170.9Z"/><path class="cls-1" d="M103.57,269.41a5.2,5.2,0,0,1-3.88,2.79l6.94,13.57h-4.94l-6.18-12.63H86.27v12.63H82V256H96.41c3.81,0,6,1.39,7.09,3.5a10.09,10.09,0,0,1,1.09,5A10.22,10.22,0,0,1,103.57,269.41Zm-3.81-7.5c-.6-1.28-2-2-4.3-2H86.31v9.46h9.95c1.66,0,2.94-.56,3.43-1.62a8.94,8.94,0,0,0,.45-2.86A10.24,10.24,0,0,0,99.77,261.91Z"/><path class="cls-1" d="M112.27,285.77h-4.48L119.21,256h5.43l10.85,29.77h-4.56l-2.71-7.5H115.1Zm10.36-23.07-.79-2.56-.83,2.6-4.48,11.68h10.33Z"/><path class="cls-1" d="M156.82,285.77l-13.87-23.33v23.33h-4.18V256H144l13.49,22.92V256h4.18v29.77Z"/><path class="cls-1" d="M186.25,285.77l-11-13.91-2.83,2.94v11H168V256h4.37v13.64L186.1,256h5.28l-12.89,13,13.15,16.77Z"/><path class="cls-1" d="M195,285.77V256h4.45v29.77Z"/><path class="cls-1" d="M224,285.77l-13.87-23.33v23.33H206V256h5.24l13.49,22.92V256h4.18v29.77Z"/><path class="cls-1" d="M255.28,285.77l-.23-3.62c-1.13,1.77-3.54,4-9,4-6.63,0-12.55-2.79-12.55-15.26,0-8.89,3.28-15.3,13.08-15.3,8.74,0,12.06,4.67,12.06,10.44h-4.26c0-3.69-1.92-6.48-7.65-6.48S238,262.29,238,271s2.71,11.42,8.82,11.42c4.41,0,7-2.3,7.88-4.94.11-.41.08-4,.08-4.3h-9.57v-3.84h13.61v8.52c0,3.66,0,7.84,0,7.91Z"/><path class="cls-1" d="M275.1,286.15c-7.54,0-11-2.34-12.29-6.18a11.41,11.41,0,0,1-.49-3h4.48a7.59,7.59,0,0,0,.45,2.11c1.06,2.37,3.58,3.35,7.8,3.35,5.28,0,7.16-1.85,7.16-4.45,0-3.05-2-4.26-6.6-5.2-1.06-.23-2.83-.56-4.41-.87-5.88-1.13-8.63-3.5-8.63-8.25,0-4.52,3.43-8,11.57-8,6.93,0,10.25,2.34,11.68,6.11a8.59,8.59,0,0,1,.41,2.68h-4.48a4.91,4.91,0,0,0-.26-1.7c-1.06-2.3-2.86-3.32-7.5-3.32-5.2,0-6.9,1.66-6.9,4,0,2.6,1.58,3.81,6.71,4.79l4.26.83c5.46,1,8.67,3.43,8.67,8.25C286.75,282.75,283.06,286.15,275.1,286.15Z"/><path class="cls-4" d="M78.94,102.2V50.28H70.43V41.62h23q9.51,0,14.26,1.15a15.16,15.16,0,0,1,8.39,5.8,17.24,17.24,0,0,1,3.63,10.93,17.57,17.57,0,0,1-2.17,8.71,13.9,13.9,0,0,1-6.35,5.87,17.07,17.07,0,0,1,8.89,6.6,18.37,18.37,0,0,1,3.11,10.53,18.9,18.9,0,0,1-2.31,9.31,16.87,16.87,0,0,1-6.15,6.47,24.4,24.4,0,0,1-8.39,3.09,75.73,75.73,0,0,1-12.42.8H70.43V102.2ZM89.39,70.44h6.52q7.47,0,10.43-2.61t3-7.69q0-9.86-13.39-9.86H89.39Zm0,31.76h3.93a59.13,59.13,0,0,0,11.3-.77,9.9,9.9,0,0,0,5.85-3.63,11.47,11.47,0,0,0,2.27-7.34,10.76,10.76,0,0,0-2.17-6.85A10.33,10.33,0,0,0,105,79.93,38.91,38.91,0,0,0,95.37,79h-6Z"/><path class="cls-4" d="M133.31,102.2V50.28h-9V41.62h57.55V62.48h-8.56V50.28H143.76V70.89H169.5v8.66H143.76V102.2h29.57V89.61h8.56v21.26H124.35V102.2Z"/><path class="cls-4" d="M188.1,111.14V86h8.66v6.12q6.22,11.3,16.28,11.3a12.59,12.59,0,0,0,8.66-3.14,10.46,10.46,0,0,0,3.53-8.21q0-4.93-2.89-7.09t-10.9-4.31A79.68,79.68,0,0,1,197.66,76a17.68,17.68,0,0,1-7.14-6.32,17.48,17.48,0,0,1-2.66-9.73q0-8.71,5.8-13.91a21,21,0,0,1,14.56-5.2,25.09,25.09,0,0,1,15.43,5.38V41.55h8.46v21h-8.46V57.73a16.73,16.73,0,0,0-14.69-8q-5.67,0-8.71,2.61a8,8,0,0,0-3,6.25,8.1,8.1,0,0,0,1.54,4.9,9.13,9.13,0,0,0,3.93,3.11,81.94,81.94,0,0,0,9.41,2.78,73.65,73.65,0,0,1,13.29,4.45,18,18,0,0,1,7.12,6.9,20.68,20.68,0,0,1,3,11.1,19.07,19.07,0,0,1-6.25,14.64,21.91,21.91,0,0,1-15.46,5.78,24.78,24.78,0,0,1-17-6.82v5.72Z"/><path class="cls-4" d="M261.7,102.48V50.56H247.41V68.23h-8.56V41.9H295V68.23h-8.56V50.56H272.16v51.92h9v8.66H252.84v-8.66Z"/><polygon class="cls-5" points="10.67 194.73 51.33 194.73 51.33 249.46 14.11 249.46 22 226.97 10.67 194.73"/><polygon class="cls-6" points="51.33 251.7 13.31 251.7 14.11 249.46 51.33 249.46 51.33 251.7"/><polygon class="cls-7" points="51.33 259.22 10.67 259.22 13.31 251.7 51.33 251.7 51.33 259.22"/><polygon class="cls-5" points="354.51 194.73 313.85 194.73 313.85 249.46 351.08 249.46 343.18 226.97 354.51 194.73"/><polygon class="cls-6" points="313.85 251.7 351.86 251.7 351.08 249.46 313.85 249.46 313.85 251.7"/><polygon class="cls-7" points="313.85 259.22 354.51 259.22 351.86 251.7 313.85 251.7 313.85 259.22"/><polygon class="cls-4" points="51.56 245.05 51.56 259.42 34.75 245 51.56 245.05"/><polygon class="cls-4" points="313.75 245.05 313.75 259.42 329.25 245 313.75 245.05"/><rect class="cls-8" x="34.81" y="180.3" width="294.34" height="57.34"/><g id="U.S.News"><path class="cls-1" d="M78.13,236.69c-10.42,0-18.19-3.91-18.19-13.7v-28.6h9.14V222.2c0,4.39,3.28,7,9.26,7,5.23,0,8.93-2.58,8.93-6.92V194.39h9.15v29.13C96.42,232.36,88.81,236.69,78.13,236.69Z"/><path class="cls-1" d="M94.13,236.16v-8.51h8.16v8.51Z"/><path class="cls-1" d="M122.15,236.74c-12.64,0-17.18-3.81-18.87-9.1a17.56,17.56,0,0,1-.59-4.28h9.41a7.36,7.36,0,0,0,.58,2.64c1.16,2.43,3.91,3.49,9.46,3.49,6.35,0,8.57-1.74,8.57-4.49,0-3.44-1.75-4.65-8.51-5.92-1.22-.21-4.29-.8-6.13-1.17-8.15-1.53-13.17-5.28-13.17-12.21,0-7.09,5.71-11.84,18-11.84,10.47,0,15.39,3.65,17.5,8.93a12.78,12.78,0,0,1,1,4h-9.41a5.83,5.83,0,0,0-.58-2.06c-1.11-2.33-3.38-3.54-8.67-3.54-6.93,0-8.3,1.53-8.3,3.91,0,3.07,2.49,4.28,9.31,5.66,2.11.42,4.86,1,5.81,1.16,8.31,1.59,12.64,5,12.64,12.17C140.13,231.67,134.16,236.74,122.15,236.74Z"/><path class="cls-1" d="M138.05,236.16v-8.51h8.16v8.51Z"/><path class="cls-1" d="M174.55,236.16l-16.82-28.29v28.29H149V194.39h10.63l16.07,26.91V194.39h8.72v41.77Z"/><path class="cls-1" d="M216.07,233.87c-2.69,1.73-6.45,2.8-11.43,2.8-6.84,0-12.38-2-15.35-6.72a17.2,17.2,0,0,1-2.36-9.36,15.73,15.73,0,0,1,2.69-9.13c3-4.31,8.29-6.83,15-6.83,7.06,0,11.88,2.57,14.62,6.55a18.46,18.46,0,0,1,2.64,12.43H195.78a5.26,5.26,0,0,0,1.68,3.65c1.3,1.4,3.81,2.29,7.17,2.29a14.19,14.19,0,0,0,5.66-1,4.28,4.28,0,0,0,2.57-2.41h8.8A12.62,12.62,0,0,1,216.07,233.87Zm-4.6-19.67c-1.29-1.29-3.42-2.36-6.79-2.36-3.19,0-5.54.84-7.06,2.19a6.38,6.38,0,0,0-1.91,3.7H213A5.41,5.41,0,0,0,211.47,214.2Z"/><path class="cls-1" d="M265.74,236.16H255.15s-6.06-17.7-6.16-18.71c-.06-.39-.4-2.22-.4-2.22s-.33,1.83-.39,2.16c-.05,1.07-6.11,18.77-6.11,18.77H231.44l-11-30.81h9.36l7.4,22.91,6.78-22.91h10l6.95,22.91,7.22-22.91h8.8Z"/><path class="cls-1" d="M293.35,236.72c-10.42,0-15.35-2.07-16.64-7.11a12.67,12.67,0,0,1-.33-3.08h8.91a4.61,4.61,0,0,0,.28,1.57c.56,1.46,2.91,1.85,7.79,1.85,5.1,0,6.67-.9,6.67-2.69s-1.85-2.13-6.39-2.8l-6.72-1c-6.78-1-10-3.92-10-9.81,0-5.48,4.93-9.07,14.84-9.07,8.46,0,13.78,2.18,15.35,6.61a15.33,15.33,0,0,1,.56,3.7H299a3.92,3.92,0,0,0-.39-1.68c-.62-.84-2.24-1.57-6.5-1.57-4.93,0-6.39.79-6.39,2.24s1,1.85,5.33,2.52c1.79.27,6.11.89,7.17,1.06,7.39,1.12,10.65,3.87,10.65,9.64C308.81,233.47,304,236.72,293.35,236.72Z"/></g><g id="_World_Report" data-name="&amp; World Report"><path class="cls-1" d="M194.44,200.05a2.22,2.22,0,0,0,.45-1.27h2.35a3.75,3.75,0,0,1-1.14,2.6c.56.41,1.19.9,1.8,1.38h-3.19a4.68,4.68,0,0,1-.39-.32,6.33,6.33,0,0,1-2.31.41c-2,0-3.79-.36-3.87-1.9,0-.13,0-.33,0-.43,0-1,.93-1.55,1.92-2a3.22,3.22,0,0,1-.69-1.77v-.43c0-1,1.06-2,2.81-2,1.6,0,2.53.93,2.59,1.94,0,.08,0,.31,0,.36a3,3,0,0,1-1.68,2.32C193.47,199.22,194,199.66,194.44,200.05Zm-3.8.53c0,.4.37.56,1.25.56a3.24,3.24,0,0,0,.73-.08c-.48-.41-1-.8-1.33-1.16C190.91,200.12,190.64,200.35,190.64,200.59Zm2.05-3.81v-.17a.49.49,0,0,0-.53-.52.55.55,0,0,0-.56.55.8.8,0,0,0,0,.23,1.5,1.5,0,0,0,.34.77C192.37,197.38,192.67,197.1,192.69,196.77Z"/><path class="cls-1" d="M210.55,202.77h-2.81s-1.26-4.84-1.29-5.11c0,.28-1.3,5.11-1.3,5.11h-2.79l-2.4-8.39h2.75s1.28,5.18,1.28,5.45c0-.26,1.24-5.45,1.24-5.45h2.64s1.28,5.18,1.28,5.45c0-.26,1.26-5.45,1.26-5.45h2.49Z"/><path class="cls-1" d="M222,198.5c0,2.95-1.4,4.4-4.47,4.4s-4.48-1.5-4.48-4.37c0-2.68,1.37-4.31,4.48-4.31S222,195.69,222,198.5Zm-2.59.06c0-1.66-.46-2.35-1.88-2.35s-1.86.66-1.86,2.35.64,2.37,1.87,2.37S219.36,200.43,219.36,198.55Z"/><path class="cls-1" d="M230.79,198.61a1.63,1.63,0,0,1-1,.8l2,3.36h-2.88l-1.47-2.84h-1.74v2.84h-2.53v-8.39h5.31a2.66,2.66,0,0,1,2.27.88,2.79,2.79,0,0,1,.48,1.77A3.1,3.1,0,0,1,230.79,198.61Zm-2.23-1.91c-.13-.27-.37-.35-.74-.35h-2.17v1.71h2.22c.32,0,.59-.07.68-.28a1.48,1.48,0,0,0,.1-.54A1.24,1.24,0,0,0,228.56,196.7Z"/><path class="cls-1" d="M232.94,202.77v-8.39h2.6v6.32h4v2.08Z"/><path class="cls-1" d="M245.58,202.77h-4.73v-8.39h4.61c1.52,0,2.46.37,3,1.09s.61,1.41.61,2.94c0,1.79-.13,2.45-.59,3.14A3.1,3.1,0,0,1,245.58,202.77Zm1-4.36a3.4,3.4,0,0,0-.26-1.62,1.44,1.44,0,0,0-1.27-.45H243.4v4.45H245a1.48,1.48,0,0,0,1.29-.48A4.47,4.47,0,0,0,246.55,198.41Z"/><path class="cls-1" d="M261,198.61a1.63,1.63,0,0,1-1,.8l2,3.36h-2.88l-1.48-2.84h-1.73v2.84h-2.53v-8.39h5.31a2.66,2.66,0,0,1,2.27.88,2.79,2.79,0,0,1,.48,1.77A3.11,3.11,0,0,1,261,198.61Zm-2.23-1.91c-.13-.27-.38-.35-.75-.35h-2.16v1.71h2.22c.31,0,.59-.07.69-.28a1.47,1.47,0,0,0,.09-.54A1.38,1.38,0,0,0,258.79,196.7Z"/><path class="cls-1" d="M263.27,202.77v-8.39h7.14v2h-4.61v1.22h4.44v2h-4.44v1.25h4.66v2Z"/><path class="cls-1" d="M279.59,199.3a3,3,0,0,1-2.32.85h-2.59v2.63h-2.59v-8.39h5.17a2.9,2.9,0,0,1,2.19.7,2.76,2.76,0,0,1,.76,2.19A2.86,2.86,0,0,1,279.59,199.3Zm-2.08-2.58a.81.81,0,0,0-.81-.4h-2v1.94h2c.49,0,.73-.16.85-.39a1.08,1.08,0,0,0,.1-.55A1.16,1.16,0,0,0,277.51,196.72Z"/><path class="cls-1" d="M290.06,198.5c0,2.95-1.4,4.4-4.47,4.4s-4.48-1.5-4.48-4.37c0-2.68,1.37-4.31,4.48-4.31S290.06,195.69,290.06,198.5Zm-2.6.06c0-1.66-.45-2.35-1.87-2.35s-1.86.66-1.86,2.35.64,2.37,1.86,2.37S287.47,200.43,287.47,198.55Z"/><path class="cls-1" d="M298.93,198.61a1.64,1.64,0,0,1-1,.8l2,3.36H297l-1.48-2.84h-1.74v2.84h-2.53v-8.39h5.31a2.68,2.68,0,0,1,2.27.88,2.82,2.82,0,0,1,.49,1.77A3.15,3.15,0,0,1,298.93,198.61Zm-2.23-1.91c-.13-.27-.38-.35-.75-.35h-2.16v1.71H296c.32,0,.6-.07.69-.28a1.57,1.57,0,0,0,.09-.54A1.38,1.38,0,0,0,296.7,196.7Z"/><path class="cls-1" d="M305.33,196.39v6.37h-2.62v-6.37h-2.66v-2h8v2Z"/></g><rect class="cls-1" x="34.83" y="235.29" width="294.32" height="2.7"/><rect class="cls-9" x="34.75" y="237.54" width="294.52" height="7.81"/><path class="cls-10" d="M619.64,84.81c0,.63.12,1.09.69,1.09,1.67,0,5.35-5.29,6.5-5.29.29,0,.52.23.52.63,0,.63-6.16,9.21-11,9.21a2,2,0,0,1-2-2.13c0-2.71,4.14-13.41,6.85-21.58H616.3c-.29,0-.4-.35-.4-.63,0-.52.29-1.27.81-1.27,1.67,0,3.51,0,4.72-.63s2.13-4,2.53-6.22a4.26,4.26,0,0,1,2-.46c1.15,0,2.19.4,2.19,1.5,0,1.32-1.21,3.8-1.78,5.47h6c.35,0,.46.29.46.69,0,.63-.34,1.55-.86,1.55h-6.39C622.4,75.38,619.64,83.43,619.64,84.81Z"/><path class="cls-10" d="M637.43,76.35h.12c2.94-4.72,8.11-12.54,13.75-12.54,2.94,0,3.62,2,3.62,3.45,0,4.32-7.88,16.75-7.88,18.53a.66.66,0,0,0,.69.69c1.61,0,3.45-2.19,4.49-3.17.12-.06.18-.11.29-.11.35,0,.58.4.58.75,0,1.44-5.18,6.62-8.12,6.62a2.12,2.12,0,0,1-2.42-2.36c0-3.91,7-15.94,7-18.76,0-.92-.52-1.5-1.27-1.5-2.13,0-7.83,4.2-14,19.28-.63,1.55-1.09,3.22-2.13,3.22a3.8,3.8,0,0,1-2.19-.63c1.67-8.52,9.84-42.42,22.79-42.42,1.67,0,2.53.75,2.53,1.67s-.75,1.67-2.19,2a5.09,5.09,0,0,0-2.3-.63C646.46,50.4,639.56,69.28,637.43,76.35Z"/><path class="cls-10" d="M510.92,120.74a180,180,0,0,1,2-25.86,85.59,85.59,0,0,1,7.32-24.73A50,50,0,0,1,534.93,51.7q9.38-7.21,24.21-7.21t24.22,7.21a50.09,50.09,0,0,1,14.73,18.44,85.77,85.77,0,0,1,7.32,24.73,180.69,180.69,0,0,1,2,25.86,182,182,0,0,1-2,26.07,85.71,85.71,0,0,1-7.32,24.73A50,50,0,0,1,583.36,190q-9.38,7.21-24.22,7.21T534.93,190a50,50,0,0,1-14.74-18.44,85.53,85.53,0,0,1-7.32-24.73A181.28,181.28,0,0,1,510.92,120.74Zm20.61,0q0,19.17,1.13,33.08t4.12,22.87q3,9,8.35,13.29t14,4.33q8.66,0,14-4.33t8.35-13.29q3-9,4.12-22.87t1.13-33.08q0-19.17-1.13-33T581.5,65q-3-9-8.35-13.29t-14-4.33q-8.65,0-14,4.33T536.78,65q-3,9-4.12,22.77T531.53,120.74Z"/><path class="cls-11" d="M500.47,135.58a40.84,40.84,0,0,0-10.1-12.88,48.61,48.61,0,0,0-14.63-8.55,55.84,55.84,0,0,0-17.1-3.5v-.41a79.38,79.38,0,0,0,10.3-2.88,64.83,64.83,0,0,0,13.5-6.39,46.69,46.69,0,0,0,11.75-10.3,22.72,22.72,0,0,0,5-14.84A27.16,27.16,0,0,0,497,65.4a30.55,30.55,0,0,0-7-10.1,38.4,38.4,0,0,0-12.06-7.73,44,44,0,0,0-17.21-3.09q-10.93,0-18.24,3.4A36.15,36.15,0,0,0,430.81,56a29.08,29.08,0,0,0-6.08,9.58A24,24,0,0,0,423,73.13Q423,82,432,82a12.24,12.24,0,0,0,6.08-1.44q2.57-1.44,2.58-5.15a10.25,10.25,0,0,0-1.75-5.15q-1.75-2.88-1.75-8.45A12.3,12.3,0,0,1,438,58a12.82,12.82,0,0,1,3.19-4.74,20,20,0,0,1,6.7-4.12A30,30,0,0,1,459,47.37a23.29,23.29,0,0,1,10.2,2,17.17,17.17,0,0,1,6.49,5.36,21.44,21.44,0,0,1,3.5,7.83,41.39,41.39,0,0,1,1,9.38,59.36,59.36,0,0,1-1.34,13,29.87,29.87,0,0,1-14.12,19.58,57.15,57.15,0,0,1-15,6.18q-4.13,1-7.11,2t-5.15,1.75q-2.16.82-3.81,1.65l-3.3,1.65,1.85,3.3a45.34,45.34,0,0,1,11.13-5.87,38.5,38.5,0,0,1,13.19-2.16q8.66,0,14,3.3a24.58,24.58,0,0,1,8.45,8.55,33.37,33.37,0,0,1,4.12,12,88.71,88.71,0,0,1,1,13.5q0,13.4-2.27,21.95t-6.29,13.5a20.63,20.63,0,0,1-9.58,6.8,37.56,37.56,0,0,1-12,1.85q-11.34,0-18.45-3.61a33.66,33.66,0,0,1-11.13-8.55,31.74,31.74,0,0,1-5.67-9.89c-.23-.68-.43-1.31-.62-1.93a12.55,12.55,0,0,1,.4-5.35,12.32,12.32,0,0,1,1.67-3.52q3.4-4.41,6.55-5.62a10.25,10.25,0,0,0,4.53-3q2.27-2.94,1.11-5.65a12.26,12.26,0,0,0-3.93-4.86q-7.18-5.54-12.59,1.48a24,24,0,0,0-3.21,7,29.06,29.06,0,0,0-1,11.3A36.11,36.11,0,0,0,416,175.67a37.43,37.43,0,0,0,7.48,9.64c.51.56,1,1.13,1.58,1.68a34.63,34.63,0,0,0,12,7.42,48.79,48.79,0,0,0,17.52,2.78,51.22,51.22,0,0,0,20.3-3.92A50,50,0,0,0,490.47,183a47.25,47.25,0,0,0,10.1-14.43,39.45,39.45,0,0,0,3.61-16.28A36.81,36.81,0,0,0,500.47,135.58Z"/><path class="cls-10" d="M457.42,227.59q-.27,2.94-.27,6,0,.64,0,2.48t0,2.48c0,.36-.31.53-.94.53s-.86-.19-.9-.57Q455,233.92,453,232t-6.36-1.89h-4.55q-3.92,0-4.89,4L433.62,249h8.24q3.41,0,4.89-1.39a12.89,12.89,0,0,0,2.75-5,.91.91,0,0,1,1-.54q.94,0,.94.43t-1,4q-1,3.54-1.81,7.59-.37,2-.62,3.16t-.4,1.66c-.1.36-.4.54-.89.54-.67,0-1-.18-1-.54a30.37,30.37,0,0,0,.2-3.15,5.27,5.27,0,0,0-1-3.6q-1-1-3.63-1h-8.18l-3.69,15.46a13.25,13.25,0,0,0-.4,2.28q0,2.68,3.15,2.68h8.17a12.51,12.51,0,0,0,7.75-2.69,13.34,13.34,0,0,0,4.81-6.94c0-.18.18-.27.54-.27a1.68,1.68,0,0,1,.92.27.66.66,0,0,1,.38.6q-1.84,6-3,11.58-12.22-.4-18.64-.4t-18.67.4c-.27,0-.4-.2-.4-.6a1.47,1.47,0,0,1,.25-.82.8.8,0,0,1,.55-.42,20.91,20.91,0,0,0,4.17-.8,5,5,0,0,0,2.22-1.36,9.1,9.1,0,0,0,1.37-3.49l7.51-31.51a11.09,11.09,0,0,0,.33-2.28,2.43,2.43,0,0,0-1.32-2.28,13.77,13.77,0,0,0-4.63-1.14c-.22,0-.33-.17-.33-.53a1.71,1.71,0,0,1,.25-.89q.25-.43.55-.43,7,.4,16.26.4T457.42,227.59Z"/><path class="cls-10" d="M495.35,226a8,8,0,0,1-.33,1.74l-13.68,37.7a16.4,16.4,0,0,0-1.2,4.15q0,1.07.67,1.07,1.14,0,4.22-4.08a6.59,6.59,0,0,1,1.34-1.54,1.15,1.15,0,0,1,.82.38,1.1,1.1,0,0,1,.38.75q0,.57-2.19,3.28a23.67,23.67,0,0,1-4.27,4.23,6.55,6.55,0,0,1-3.71,1.52q-3.61,0-3.61-3.75a18.23,18.23,0,0,1,1.87-6.69,27.57,27.57,0,0,1-6.21,7.46q-3.6,3-6.44,3a4.58,4.58,0,0,1-3.76-1.84,7.6,7.6,0,0,1-1.45-4.85q0-4.75,3.3-10.4a35.88,35.88,0,0,1,8.27-9.74q5-4.08,8.65-4.08a6.64,6.64,0,0,1,2.49.54,4.4,4.4,0,0,1,1.92,1.34l3.74-10.6a9.29,9.29,0,0,0,.73-3q0-1.31-2.88-1.64-.6-.07-.6-.84t.53-.8a33.48,33.48,0,0,0,5.08-1.49,24.67,24.67,0,0,0,4.51-2.06,2.6,2.6,0,0,1,1.14-.47Q495.35,225.25,495.35,226Zm-14.15,23.72q0-3.28-3.21-3.28-2.81,0-6.21,3.45a29.22,29.22,0,0,0-5.69,8.45,22.39,22.39,0,0,0-2.29,9.25q0,3.14,2.14,3.15t5.61-3.7a50.06,50.06,0,0,0,6.49-9.47Q481.2,251.78,481.21,249.71Z"/><path class="cls-10" d="M506.79,247.1a11.72,11.72,0,0,1-1.4,5l-7.29,14.78a8.78,8.78,0,0,0-1.14,3.28c0,.54.18.8.53.8q1.1,0,4.55-4,1.6-1.91,1.87-1.91a1,1,0,0,1,.75.38,1.2,1.2,0,0,1,.32.75q0,.47-2.59,3.19a30.92,30.92,0,0,1-4.88,4.28,7.36,7.36,0,0,1-3.83,1.56q-3.21,0-3.21-2.95a12.91,12.91,0,0,1,1.47-4.88l7.29-14.72a8.73,8.73,0,0,0,1.14-3.41c0-.45-.2-.67-.6-.67q-1.14,0-4.75,4.18a8.11,8.11,0,0,1-1.67,1.71.89.89,0,0,1-.72-.35,1.22,1.22,0,0,1-.28-.79q0-.5,2.56-3.21a29.75,29.75,0,0,1,4.87-4.27,7.45,7.45,0,0,1,3.88-1.56Q506.79,244.29,506.79,247.1Zm3.95-15.35a3.77,3.77,0,0,1-3.75,3.75,3.69,3.69,0,0,1-2.71-1.1,3.6,3.6,0,0,1-1.1-2.64,3.7,3.7,0,0,1,1.1-2.69,3.66,3.66,0,0,1,2.71-1.12,3.58,3.58,0,0,1,2.64,1.12A3.7,3.7,0,0,1,510.74,231.74Z"/><path class="cls-10" d="M531.41,246.9a2.08,2.08,0,0,1-.45,1.27,1.21,1.21,0,0,1-.89.6l-6.76-.2L517,266.83a12,12,0,0,0-.67,3c0,.71.25,1.07.74,1.07q1.57,0,6.29-4.25a9.29,9.29,0,0,1,2-1.64,1.13,1.13,0,0,1,.84.38,1.11,1.11,0,0,1,.37.75q0,.54-2.94,3.19a37.26,37.26,0,0,1-5.57,4.25,8.93,8.93,0,0,1-4.2,1.59q-3.68,0-3.68-3.75a12.61,12.61,0,0,1,.8-4.08l6.42-18.73-5.15.13c-.45,0-.67-.36-.67-1.07a2.12,2.12,0,0,1,.45-1.25c.3-.41.6-.62.89-.62h5.42l2.47-7.19q.17-.5,1.22-.82a7.29,7.29,0,0,1,2.12-.32,5.31,5.31,0,0,1,1.75.28c.54.19.82.42.82.69l0,.17-2.47,7.19h6.43Q531.41,245.82,531.41,246.9Z"/><path class="cls-10" d="M547.07,247.1a11.7,11.7,0,0,1-1.4,5l-7.29,14.78a8.78,8.78,0,0,0-1.14,3.28c0,.54.18.8.54.8q1.1,0,4.55-4,1.6-1.91,1.87-1.91a1,1,0,0,1,.75.38,1.19,1.19,0,0,1,.32.75q0,.47-2.59,3.19a30.93,30.93,0,0,1-4.88,4.28A7.36,7.36,0,0,1,534,275.2q-3.21,0-3.21-2.95a12.92,12.92,0,0,1,1.47-4.88l7.29-14.72a8.73,8.73,0,0,0,1.14-3.41q0-.67-.6-.67-1.14,0-4.75,4.18a8.08,8.08,0,0,1-1.67,1.71.89.89,0,0,1-.72-.35,1.22,1.22,0,0,1-.28-.79q0-.5,2.56-3.21a29.67,29.67,0,0,1,4.87-4.27,7.45,7.45,0,0,1,3.88-1.56Q547.07,244.29,547.07,247.1ZM551,231.74a3.77,3.77,0,0,1-3.75,3.75,3.68,3.68,0,0,1-2.71-1.1,3.61,3.61,0,0,1-1.1-2.64,3.7,3.7,0,0,1,1.1-2.69,3.65,3.65,0,0,1,2.71-1.12,3.58,3.58,0,0,1,2.64,1.12A3.69,3.69,0,0,1,551,231.74Z"/><path class="cls-10" d="M574.63,254.59a20.84,20.84,0,0,1-2.51,9.63,23.3,23.3,0,0,1-6.49,7.91,12.92,12.92,0,0,1-7.86,3.06,7,7,0,0,1-5.62-2.93,11.33,11.33,0,0,1-2.34-7.31,20.93,20.93,0,0,1,2.49-9.63,23.58,23.58,0,0,1,6.46-7.95,12.79,12.79,0,0,1,7.85-3.09,7.08,7.08,0,0,1,5.65,2.94A11.34,11.34,0,0,1,574.63,254.59Zm-5.49-4.35a5.56,5.56,0,0,0-.55-3,2.27,2.27,0,0,0-2-.78q-2.24,0-5,3.68a31.11,31.11,0,0,0-4.57,8.95,31.68,31.68,0,0,0-1.77,10.12,5.6,5.6,0,0,0,.57,3,2.33,2.33,0,0,0,2,.8q2.21,0,5-3.66a31,31,0,0,0,4.55-8.95A32,32,0,0,0,569.14,250.24Z"/><path class="cls-10" d="M606.88,248.7a14.86,14.86,0,0,1-1.4,5.55l-5.29,12.58a15.18,15.18,0,0,0-1.14,3.28c0,.54.2.8.6.8q1.21,0,4.25-3.64,1.37-1.64,1.64-1.64a.89.89,0,0,1,.7.37,1.2,1.2,0,0,1,.3.77q0,.57-2.35,3.06a24.82,24.82,0,0,1-4.59,3.93,7.53,7.53,0,0,1-3.85,1.44,3.69,3.69,0,0,1-2.29-.65,2.17,2.17,0,0,1-.85-1.82,14.91,14.91,0,0,1,1.47-5.35l5.42-12.91a9.58,9.58,0,0,0,.94-3.61q0-1.87-1.54-1.87-1.87,0-5.53,4.85a110.17,110.17,0,0,0-8.16,13.08L583,273.26c-.11.31-.52.58-1.24.8a7.1,7.1,0,0,1-2.11.33,5.32,5.32,0,0,1-1.78-.28q-.81-.29-.8-.69l0-.16,7-20.61a11.07,11.07,0,0,0,.87-3.28q0-.8-.6-.8-1.07,0-3.78,3.51-1.4,1.84-1.71,1.84a1,1,0,0,1-.75-.38,1.2,1.2,0,0,1-.32-.75q0-.47,2.21-3a24.53,24.53,0,0,1,4.27-4,6.54,6.54,0,0,1,3.57-1.46q3.41,0,3.41,3a15.33,15.33,0,0,1-1,4.75l-2,5.69a47.23,47.23,0,0,1,7.56-9.92q3.72-3.53,6.8-3.53a4.13,4.13,0,0,1,3,1.24A4.3,4.3,0,0,1,606.88,248.7Z"/></svg>