<svg id="Layer_1" data-name="Layer 1" xmlns="http://www.w3.org/2000/svg" viewBox="0 0 2530 487.62"><defs><style>.cls-1{fill:#025fa3;}.cls-2{fill:#e92629;}.cls-3{fill:#fff;}.cls-4{fill:#808184;}.cls-5{fill:#14355d;}</style></defs><title>Artboard 2 copy</title><rect class="cls-1" x="264.77" y="-126.11" width="105.93" height="481.15" transform="translate(202.61 431.97) rotate(-89.88)"/><rect class="cls-2" x="77.16" y="156.02" width="481.09" height="11.91"/><path class="cls-3" d="M339.07,86.81a4,4,0,0,0,.83-2.31h4.3a6.78,6.78,0,0,1-2.08,4.73c1,.75,2.18,1.64,3.3,2.51h-5.84a7.6,7.6,0,0,1-.72-.58,11.37,11.37,0,0,1-4.22.73c-3.64,0-6.92-.66-7.06-3.45,0-.23,0-.6,0-.79,0-1.73,1.7-2.81,3.51-3.66a5.82,5.82,0,0,1-1.25-3.22V80c.08-1.87,1.93-3.64,5.11-3.64,2.93,0,4.63,1.68,4.74,3.53,0,.13,0,.56,0,.66-.06,1.93-1.54,3.28-3.06,4.22C337.29,85.3,338.18,86.08,339.07,86.81Zm-6.94,1c0,.73.69,1,2.3,1a6,6,0,0,0,1.33-.15c-.87-.75-1.79-1.47-2.43-2.1C332.62,86.92,332.12,87.35,332.12,87.77Zm3.76-6.92v-.31a.9.9,0,0,0-1-.94,1,1,0,0,0-1,1,1.42,1.42,0,0,0,0,.41,2.64,2.64,0,0,0,.61,1.41C335.28,81.95,335.82,81.45,335.88,80.85Z"/><path class="cls-3" d="M370.06,91.73h-5.13s-2.3-8.78-2.35-9.28c0,.52-2.37,9.28-2.37,9.28h-5.09l-4.38-15.23h5s2.33,9.41,2.33,9.89c0-.48,2.28-9.89,2.28-9.89h4.82s2.33,9.41,2.33,9.89c0-.48,2.3-9.89,2.3-9.89h4.55Z"/><path class="cls-3" d="M390.58,84c0,5.36-2.56,8-8.18,8s-8.17-2.72-8.17-7.93c0-4.86,2.51-7.81,8.17-7.81S390.58,78.88,390.58,84Zm-4.74.12c0-3-.83-4.26-3.44-4.26S379,81,379,84.09c0,3.22,1.17,4.3,3.41,4.3S385.84,87.48,385.84,84.09Z"/><path class="cls-3" d="M406.35,84.19a3,3,0,0,1-1.89,1.45L408,91.73h-5.26l-2.7-5.15h-3.16v5.15h-4.63V76.49H402c2,0,3.37.58,4.15,1.6a5,5,0,0,1,.89,3.22A5.6,5.6,0,0,1,406.35,84.19Zm-4.07-3.47c-.23-.48-.69-.64-1.37-.64h-4v3.11h4c.58,0,1.08-.13,1.26-.5a2.87,2.87,0,0,0,.17-1A2.51,2.51,0,0,0,402.28,80.72Z"/><path class="cls-3" d="M409.36,91.73V76.49h4.77V88h7.35v3.76Z"/><path class="cls-3" d="M431.56,91.73h-8.64V76.49h8.41c2.78,0,4.49.67,5.44,2s1.12,2.56,1.12,5.34c0,3.24-.21,4.44-1.06,5.71S434.32,91.73,431.56,91.73Zm1.79-7.91a5.91,5.91,0,0,0-.5-2.93,2.63,2.63,0,0,0-2.32-.83h-2.95v8.08h2.95a2.7,2.7,0,0,0,2.36-.87C433.29,86.79,433.35,85.05,433.35,83.82Z"/><path class="cls-3" d="M459.54,84.19a3,3,0,0,1-1.89,1.45l3.58,6.09H456l-2.7-5.15h-3.16v5.15h-4.63V76.49h9.7c2,0,3.38.58,4.15,1.6a5,5,0,0,1,.89,3.22A5.58,5.58,0,0,1,459.54,84.19Zm-4.07-3.47c-.23-.48-.7-.64-1.37-.64h-4v3.11h4.05c.58,0,1.08-.13,1.25-.5a2.78,2.78,0,0,0,.17-1A2.49,2.49,0,0,0,455.47,80.72Z"/><path class="cls-3" d="M462.55,91.73V76.49h13v3.58h-8.41v2.22h8.1v3.63h-8.1v2.26h8.51v3.55Z"/><path class="cls-3" d="M491.25,85.44A5.54,5.54,0,0,1,487,87c-.58,0-4.72,0-4.72,0v4.77h-4.73V76.49H487a5.35,5.35,0,0,1,4,1.27,5,5,0,0,1,1.37,4A5.21,5.21,0,0,1,491.25,85.44Zm-3.8-4.69A1.5,1.5,0,0,0,486,80h-3.74v3.51h3.68a1.58,1.58,0,0,0,1.56-.71,2.16,2.16,0,0,0,.18-1A2.19,2.19,0,0,0,487.45,80.75Z"/><path class="cls-3" d="M509.71,84c0,5.36-2.57,8-8.18,8s-8.17-2.72-8.17-7.93c0-4.86,2.51-7.81,8.17-7.81S509.71,78.88,509.71,84Zm-4.74.12c0-3-.83-4.26-3.44-4.26s-3.39,1.2-3.39,4.26c0,3.22,1.18,4.3,3.41,4.3S505,87.48,505,84.09Z"/><path class="cls-3" d="M525.48,84.19a3,3,0,0,1-1.89,1.45l3.59,6.09h-5.26l-2.7-5.15h-3.16v5.15h-4.63V76.49h9.7c2,0,3.37.58,4.15,1.6a5,5,0,0,1,.89,3.22A5.6,5.6,0,0,1,525.48,84.19Zm-4.07-3.47c-.23-.48-.69-.64-1.37-.64h-4v3.11h4c.58,0,1.08-.13,1.25-.5a2.8,2.8,0,0,0,.17-1A2.51,2.51,0,0,0,521.41,80.72Z"/><path class="cls-3" d="M537,80.16V91.73h-4.78V80.16h-4.86V76.49h14.54v3.66Z"/><path class="cls-3" d="M76,60V170.72H559.44V60Zm481.15,2.27v92.6H531.32c9.29-2.53,13.63-7.95,13.63-16.19,0-10.69-6-15.78-19.73-17.86-2-.31-10-1.45-13.29-2-8.1-1.25-9.86-2.18-9.86-4.67,0-2.7,2.7-4.15,11.84-4.15,7.89,0,10.9,1.35,12,2.91a7.11,7.11,0,0,1,.73,3.11h16.09a28.19,28.19,0,0,0-1-6.85C538.83,101,529,97,513.29,97c-18.38,0-27.52,6.65-27.52,16.82,0,10.9,6,16.41,18.59,18.17,3.42.52,10.28,1.56,12.46,1.87,8.41,1.25,11.83,2,11.83,5.19s-2.91,5-12.36,5c-9,0-13.39-.73-14.43-3.42a8.56,8.56,0,0,1-.52-2.91H484.84a23.29,23.29,0,0,0,.62,5.71c1.51,5.88,5.69,9.58,13.4,11.52H467.63l20.43-56.48h-16.3l-13.39,42.47L445.49,98.41H427l-12.56,42.47L400.74,98.41H383.4l20.23,56.48H369.22a30,30,0,0,0,8.39-3.62A23.38,23.38,0,0,0,388,136.93h-16.3c-.31,1.24-1.77,3.12-4.78,4.46a26.23,26.23,0,0,1-10.49,1.87c-6.23,0-10.9-1.66-13.29-4.26-2-2.18-3.12-4.15-3.12-6.75h48.39c.93-8.62-.62-16.82-4.88-23-5.08-7.37-14-12.15-27.1-12.15-12.46,0-22.32,4.67-27.83,12.67a29.1,29.1,0,0,0-5,16.92c0,7.16,1.56,12.88,4.36,17.34,3.49,5.54,8.91,9.05,15.64,10.9H321.26V78.1H305.1V128L275.3,78.1h-19.7v76.79h-2.92V139.75H240.5a23,23,0,0,0,.92-6.58c0-13.23-8-19.6-23.42-22.54-1.77-.29-6.86-1.37-10.78-2.15C194.59,105.93,190,103.68,190,98c0-4.41,2.55-7.25,15.38-7.25,9.8,0,14,2.25,16.07,6.56a10.85,10.85,0,0,1,1.08,3.82H240a23.88,23.88,0,0,0-1.77-7.45c-3.92-9.8-13-16.56-32.43-16.56-22.74,0-33.32,8.82-33.32,22,0,12.84,9.31,19.8,24.4,22.64,3.43.68,9.11,1.76,11.37,2.16,12.54,2.35,15.78,4.6,15.78,11,0,5.1-4.12,8.33-15.87,8.33-10.29,0-15.39-2-17.54-6.47a13.72,13.72,0,0,1-1.08-4.9H172a32.94,32.94,0,0,0,1.08,7.94c2.22,6.93,7.09,12.49,18,15.15H172.43V139.75H160.35a23.79,23.79,0,0,0,1.2-7.65v-54h-17v51.64c0,8-6.86,12.84-16.56,12.84-11.07,0-17.15-4.8-17.15-12.94V78.1h-17v53c0,13.31,7.77,20.75,19.54,23.77H78.29V62.29Zm-.05,95.44v10.11H78.3V157.73Zm-415.45-2.84c6.77-1.73,12.19-4.85,15.65-9.4v9.4Zm81.09,0c6.8-1.81,11.74-5,14.82-9.21v9.21Zm49,0v-51.8l30.78,51.8Zm152,0c1.54-4.5,11-32.34,11.1-34.15.1-.62.72-4,.72-4s.63,3.38.73,4.11c.19,1.72,9.67,29.55,11.2,34Zm-83.88-33.53c0-1.66,1.56-5.09,3.53-6.85,2.81-2.49,7.17-4,13.08-4,6.23,0,10.17,2,12.56,4.36a10.05,10.05,0,0,1,2.8,6.54Z"/><path class="cls-4" d="M1733.23,392.89h-32.9v-79h32c11.3,0,20.5,2.7,25.1,8.1,5,5.7,6.9,14.1,6.9,30.2,0,17.3-2.2,25.6-7,31.4C1752.33,389.59,1744.63,392.89,1733.23,392.89Zm19.3-40.6c0-11.4-1.5-19.4-4.9-22.8-3.6-3.5-9.7-4.9-17-4.9h-18.8v57.7h18.7c7.6,0,13.8-1.6,17.2-5.3C1751.23,373.09,1752.53,364.48,1752.53,352.28Z"/><path class="cls-4" d="M1790.73,392.89h-11.9l30.3-79h14.4l28.8,79h-12.1L1833,373h-34.8Zm27.5-61.2-2.1-6.8-2.2,6.9-11.9,31h27.4Z"/><path class="cls-4" d="M1901.53,393.89c-20,0-29.2-6.2-32.6-16.4a30.26,30.26,0,0,1-1.3-8h11.9a20.15,20.15,0,0,0,1.2,5.6c2.8,6.3,9.5,8.9,20.7,8.9,14,0,19-4.9,19-11.8,0-8.1-5.2-11.3-17.5-13.8-2.8-.6-7.5-1.5-11.7-2.3-15.6-3-22.9-9.3-22.9-21.9,0-12,9.1-21.3,30.7-21.2,18.4.1,27.2,6.2,31,16.2a22.77,22.77,0,0,1,1.1,7.1h-11.9a13,13,0,0,0-.7-4.5c-2.8-6.1-7.6-8.8-19.9-8.8-13.8,0-18.3,4.4-18.3,10.5,0,6.9,4.2,10.1,17.8,12.7l11.3,2.2c14.5,2.6,23,9.1,23,21.9C1932.43,384.89,1922.63,393.89,1901.53,393.89Z"/><path class="cls-4" d="M2006.83,392.89v-34.2h-38.4v34.2h-11.6v-79h11.6v33.9h38.4v-33.9h11.5v79Z"/><path class="cls-4" d="M2088.93,392.89h-42.4v-79h39c7.5,0,12.8,2.4,16.2,5.8,3.2,3.1,5,8,5,13.7,0,5.9-2,11.6-5.4,15a11,11,0,0,1-6,3.5,19.68,19.68,0,0,1,11.1,5.6c3.1,3.2,4.7,8.4,4.7,14.3,0,6.3-1.9,11.6-5.5,15.1C2102,390.59,2096.53,392.89,2088.93,392.89Zm2.3-66.2c-2.1-1.9-5-2.8-8.6-2.8h-24.7v24.3H2085a8.21,8.21,0,0,0,5.9-2.2c2.2-2,3.7-5.4,3.7-10.1C2094.63,332.08,2093.23,328.58,2091.23,326.68Zm7.8,44.2c0-4-1.1-7.4-3.7-9.7-2.1-1.9-5.1-2.9-8.8-2.9h-28.6v24.5h28.4c3.9,0,7.1-.9,9.3-2.8S2099,374.79,2099,370.88Z"/><path class="cls-4" d="M2191.73,323.88c5.2,6,7.7,15.6,7.7,29.1,0,14.2-2.8,23.7-8.3,30.2-5.1,7.1-14.3,10.7-27.1,10.7s-21.6-3.5-27-10.7c-5.6-6.5-8.4-16.4-8.4-30,0-13,2.4-22.7,7.8-28.9,5.6-7.2,14.3-11.5,27.6-11.5S2186.13,316.58,2191.73,323.88Zm-10.8,53.8c4.7-4.6,6.8-13.5,6.8-24.4,0-10.6-2.1-19.5-6.1-23.6s-8.9-6.5-17.6-6.5-13.5,2.4-17.4,6.5-6.1,13.1-6.1,23.7c0,11.1,2.4,19.8,7.4,24.7,3.6,3.6,8.5,5.6,16.2,5.6C2172.22,383.69,2177.22,381.29,2180.92,377.69Z"/><path class="cls-4" d="M2225,392.89h-11.9l30.3-79h14.4l28.8,79h-12.1l-7.2-19.9h-34.8Zm27.5-61.2-2.1-6.8-2.2,6.9-11.9,31h27.4Z"/><path class="cls-4" d="M2363.72,349.48a13.79,13.79,0,0,1-10.3,7.4l18.4,36h-13.1l-16.4-33.5h-24.5v33.5h-11.4v-79h38.3c10.1,0,15.8,3.7,18.8,9.3,1.8,3.3,2.9,7.4,2.9,13.3C2366.42,342.18,2365.32,346.68,2363.72,349.48Zm-10.1-19.9c-1.6-3.4-5.2-5.3-11.4-5.3h-24.3v25.1h26.4c4.4-.1,7.8-1.5,9.1-4.3a23.74,23.74,0,0,0,1.2-7.6A27.16,27.16,0,0,0,2353.62,329.58Z"/><path class="cls-4" d="M2422.62,392.89h-32.9v-79h32c11.3,0,20.5,2.7,25.1,8.1,5,5.7,6.9,14.1,6.9,30.2,0,17.3-2.2,25.6-7,31.4C2441.72,389.59,2434,392.89,2422.62,392.89Zm19.3-40.6c0-11.4-1.5-19.4-4.9-22.8-3.6-3.5-9.7-4.9-17-4.9h-18.8v57.7h18.7c7.6,0,13.8-1.6,17.2-5.3C2440.62,373.09,2441.92,364.48,2441.92,352.28Z"/><path class="cls-5" d="M154.13,391.94h-69V243h63.92c15.6,0,24.63,4.14,31,11.09,4.7,5.08,7.9,14.48,7.9,26.13,0,11.09-2.26,21.25-7.33,26.7a22.94,22.94,0,0,1-13,7.9,30.8,30.8,0,0,1,19,10.72c4.89,5.83,7.52,16,7.52,26.32,0,10.9-3.2,21.62-8.65,28C179.51,386.86,169.73,391.94,154.13,391.94Zm3.57-122.39c-3-3.76-7.52-5.26-14.29-5.26h-34V307h36.1c4.51,0,9.21-1.32,12.22-4.89,3.2-3.57,4.7-9.21,4.7-17.11C162.4,278.76,160.52,272.93,157.7,269.55ZM168,349.64c0-6.39-1.32-13-5.08-16.92-3.2-3.76-9.59-5.08-15-5.08H109.39v42.87h37.79c7,0,12.41-1.32,16-4.7S168,355.65,168,349.64Z"/><path class="cls-5" d="M212.78,391.94V243h91.56V265.6H237.22v40.23h64.11v22.75H237.22v40.8h67.87v22.56Z"/><path class="cls-5" d="M378,393.82c-34.4,0-49.44-11.66-54-29.14a73.32,73.32,0,0,1-1.69-16.36h25a54.74,54.74,0,0,0,1.69,11.28c3,8.84,12.22,13,28.39,13,19,0,27.07-6.77,27.07-18,0-12.6-6-18.61-25.94-25.57-3.76-1.32-12.6-4.51-18.8-6.77-22.37-7.14-36.85-20.49-36.85-42.49,0-22.94,16.54-38.35,51.7-38.35,30.64,0,45.5,11.66,50.95,30.08a57.16,57.16,0,0,1,2.26,14.66H402.66a28.42,28.42,0,0,0-1.69-9.4c-3.2-9.21-10.72-13.72-26.88-13.72-19,0-25.76,6-25.76,16,0,11.66,9,17.48,27.26,23.5,5.26,1.69,14.1,5.26,18.24,6.58,23.31,8.27,36.1,20.3,36.1,43.43C429.92,377.27,412.81,393.82,378,393.82Z"/><path class="cls-5" d="M508.13,265.41V391.94H482.94V265.41h-40V243H548.36v22.37Z"/><path class="cls-5" d="M696.88,391.94V329H642.73v63H617.91V243h24.82v62.61h54.15V243H721.5v148.9Z"/><path class="cls-5" d="M854.79,264.28c7,12.6,9.78,30.46,9.78,52.45,0,23.5-3.38,42.11-11.28,55.27-7.9,13.54-22.75,21.81-47.19,21.81-24.06,0-38.73-8.08-47.19-21.24C751.2,360,747.82,341,747.82,316.93c0-21.81,3.2-40.8,10-51.89,8.65-14.29,23.31-23.69,48.32-23.69C830.73,241.35,846.33,249.62,854.79,264.28ZM831.1,361.11c6-7.33,8.65-27.07,8.65-43.8,0-18.24-1.88-33.46-7.9-42.49-5.08-7.33-12-11.66-25.57-11.66-13.72,0-20.3,4.51-25.38,12-5.83,9.4-7.71,26.32-7.71,42.49,0,18.42,2.82,35.16,9.21,44,4.51,6,11.84,10.34,24.06,10.34C819.07,372,826,367.31,831.1,361.11Z"/><path class="cls-5" d="M935.44,393.82c-34.4,0-49.44-11.66-54-29.14a73.32,73.32,0,0,1-1.69-16.36h25a54.74,54.74,0,0,0,1.69,11.28c3,8.84,12.22,13,28.39,13,19,0,27.07-6.77,27.07-18,0-12.6-6-18.61-25.94-25.57-3.76-1.32-12.6-4.51-18.8-6.77-22.37-7.14-36.85-20.49-36.85-42.49,0-22.94,16.54-38.35,51.7-38.35,30.64,0,45.5,11.66,50.95,30.08a57.16,57.16,0,0,1,2.26,14.66H960.07a28.42,28.42,0,0,0-1.69-9.4c-3.2-9.21-10.72-13.72-26.88-13.72-19,0-25.76,6-25.76,16,0,11.66,9,17.48,27.26,23.5,5.26,1.69,14.1,5.26,18.24,6.58,23.31,8.27,36.1,20.3,36.1,43.43C987.33,377.27,970.22,393.82,935.44,393.82Z"/><path class="cls-5" d="M1105.58,324.63c-6.39,8.84-17.48,13-32.71,13.35-3.76.19-38,0-38,0v54h-25V243h63.17c16.36,0,26.32,4.51,32,12.6,5.26,7,7.9,18,7.9,34.78C1112.92,306.77,1110.85,317.68,1105.58,324.63Zm-20.12-51.51c-2.63-5.08-8.46-7.71-17.48-7.71h-33.28v50.2h32.71c10.53,0,15.6-3,18.24-8.08,1.69-3.38,2.07-8.08,2.07-16.73S1087,275.94,1085.47,273.12Z"/><path class="cls-5" d="M1135.1,391.94V243h25.38v148.9Z"/><path class="cls-5" d="M1246.39,265.41V391.94H1221.2V265.41h-40V243h105.47v22.37Z"/><path class="cls-5" d="M1300.35,391.94h-25.19l47-148.9h31.58l44,148.9h-25.57l-10.34-36.1h-50.57Zm39.86-112.43c-.38-1.5-2.82-13.35-2.82-13.35s-2.44,11.84-2.82,13.35c-.19.94-16.54,54.9-16.54,54.9h37.41S1340.58,280.64,1340.2,279.51Z"/><path class="cls-5" d="M1414.09,391.94V243h25V369.38h63v22.56Z"/><path class="cls-5" d="M1566,393.82c-34.4,0-49.44-11.66-54-29.14a73.32,73.32,0,0,1-1.69-16.36h25A54.74,54.74,0,0,0,1537,359.6c3,8.84,12.22,13,28.39,13,19,0,27.07-6.77,27.07-18,0-12.6-6-18.61-25.94-25.57-3.76-1.32-12.6-4.51-18.8-6.77-22.37-7.14-36.85-20.49-36.85-42.49,0-22.94,16.54-38.35,51.7-38.35,30.64,0,45.5,11.66,50.95,30.08a57.16,57.16,0,0,1,2.26,14.66h-25.19a28.42,28.42,0,0,0-1.69-9.4c-3.2-9.21-10.72-13.72-26.88-13.72-19,0-25.76,6-25.76,16,0,11.66,9,17.48,27.26,23.5,5.26,1.69,14.1,5.26,18.24,6.58,23.31,8.27,36.1,20.3,36.1,43.43C1617.88,377.27,1600.77,393.82,1566,393.82Z"/></svg>