<?xml version="1.0" encoding="utf-8"?>
<!-- Generator: Adobe Illustrator 19.1.0, SVG Export Plug-In . SVG Version: 6.00 Build 0)  -->
<svg version="1.1" id="Layer_1" xmlns="http://www.w3.org/2000/svg" xmlns:xlink="http://www.w3.org/1999/xlink" x="0px" y="0px"
	 viewBox="0 0 323 50.4" enable-background="new 0 0 323 50.4" xml:space="preserve">
<g>
	<path fill="#D1453D" d="M155.3,36.1V12.6h8.2c2.8,0,5,0.5,6.5,1.6s2.2,2.7,2.2,4.8c0,1.1-0.3,2.2-0.9,3c-0.6,0.9-1.4,1.5-2.5,1.9
		c1.2,0.3,2.1,0.9,2.8,1.8c0.7,0.9,1,2,1,3.3c0,2.3-0.7,4-2.2,5.1c-1.4,1.2-3.5,1.7-6.1,1.8H155.3z M160.2,22.5h3.6
		c2.4,0,3.7-1,3.7-2.9c0-1.1-0.3-1.8-0.9-2.3s-1.6-0.7-2.9-0.7h-3.4V22.5z M160.2,25.9v6.3h4.1c1.1,0,2-0.3,2.7-0.8
		c0.6-0.5,1-1.3,1-2.2c0-2.1-1.1-3.2-3.3-3.3H160.2z"/>
	<path fill="#D1453D" d="M186.2,23c-0.6-0.1-1.2-0.1-1.7-0.1c-1.8,0-2.9,0.6-3.5,1.8v11.4h-4.6V18.7h4.4l0.1,2.1
		c0.9-1.6,2.2-2.4,3.9-2.4c0.5,0,1,0.1,1.4,0.2L186.2,23z"/>
	<path fill="#D1453D" d="M198.3,36.1c-0.2-0.4-0.4-0.9-0.5-1.6c-1.1,1.3-2.6,1.9-4.4,1.9c-1.7,0-3.1-0.5-4.2-1.5s-1.7-2.2-1.7-3.7
		c0-1.8,0.7-3.3,2.1-4.2s3.3-1.5,5.9-1.5h2.1v-1c0-0.8-0.2-1.4-0.6-1.9c-0.4-0.5-1.1-0.7-2-0.7c-0.8,0-1.4,0.2-1.8,0.6
		s-0.7,0.9-0.7,1.5h-4.6c0-1,0.3-1.9,0.9-2.8c0.6-0.9,1.5-1.5,2.6-2c1.1-0.5,2.4-0.7,3.8-0.7c2.1,0,3.8,0.5,5.1,1.6
		c1.3,1.1,1.9,2.6,1.9,4.5V32c0,1.7,0.2,2.9,0.7,3.7v0.3H198.3z M194.5,32.8c0.7,0,1.3-0.2,1.9-0.5c0.6-0.3,1-0.7,1.3-1.2v-3h-1.7
		c-2.3,0-3.6,0.8-3.7,2.4l0,0.3c0,0.6,0.2,1.1,0.6,1.4C193.2,32.6,193.8,32.8,194.5,32.8z"/>
	<path fill="#D1453D" d="M210.5,18.7l0.1,2c1.2-1.6,2.9-2.3,5-2.3c1.8,0,3.2,0.5,4.1,1.6c0.9,1.1,1.4,2.7,1.4,4.9v11.2h-4.6V24.9
		c0-1-0.2-1.7-0.6-2.2c-0.4-0.4-1.1-0.7-2.1-0.7c-1.3,0-2.3,0.6-2.9,1.7v12.3h-4.6V18.7H210.5z"/>
	<path fill="#D1453D" d="M224.3,27.2c0-2.7,0.6-4.9,1.8-6.5s2.9-2.4,5-2.4c1.7,0,3.1,0.6,4.2,1.9v-8.9h4.7v24.7h-4.2l-0.2-1.8
		c-1.2,1.4-2.6,2.2-4.5,2.2c-2,0-3.7-0.8-4.9-2.4C224.9,32.3,224.3,30.1,224.3,27.2z M228.9,27.6c0,1.6,0.3,2.9,0.9,3.8
		s1.4,1.3,2.5,1.3c1.4,0,2.5-0.6,3-1.8v-6.9c-0.6-1.2-1.6-1.8-3-1.8C230.1,22.1,228.9,23.9,228.9,27.6z"/>
	<path fill="#D1453D" d="M257.8,26.5h-9l-1.7,9.6h-4.7l4.1-23.4h14.8l-0.7,3.9h-10.1l-1.1,6h9L257.8,26.5z"/>
	<path fill="#D1453D" d="M270.6,34.3c-1.3,1.4-2.9,2.2-4.8,2.1c-1.7,0-2.9-0.6-3.8-1.8s-1.2-2.7-1-4.7l1.9-11.3h4.5L265.5,30
		c0,0.4,0,0.7,0,1c0.1,1.1,0.7,1.6,1.8,1.7c1.4,0,2.6-0.5,3.5-1.6l2.2-12.3h4.6l-3,17.4h-4.2L270.6,34.3z"/>
	<path fill="#D1453D" d="M288.3,31.2c0.2-0.9-0.4-1.5-1.8-1.9l-1.5-0.4c-3.5-1-5.1-2.6-5.1-5.1c0.1-1.6,0.8-3,2.2-4s3.1-1.5,5.1-1.5
		c2,0,3.5,0.5,4.8,1.6c1.2,1,1.8,2.4,1.8,4.1l-4.5,0c0-1.5-0.7-2.2-2.2-2.3c-0.7,0-1.3,0.2-1.8,0.5c-0.5,0.4-0.8,0.8-1,1.4
		c-0.2,0.9,0.5,1.5,1.9,1.8l0.6,0.1c1.5,0.4,2.6,0.8,3.4,1.2c0.8,0.5,1.4,1,1.8,1.7c0.4,0.7,0.6,1.5,0.6,2.4c0,1.1-0.4,2.1-1.1,2.9
		c-0.7,0.8-1.6,1.5-2.8,1.9s-2.4,0.7-3.7,0.6c-1.9,0-3.5-0.6-4.8-1.7c-1.3-1.1-1.9-2.5-2-4.2l4.3,0c0,1.7,0.9,2.5,2.7,2.5
		c0.8,0,1.5-0.2,2.1-0.5S288.1,31.7,288.3,31.2z"/>
	<path fill="#D1453D" d="M303.3,36.4c-1.5,0-2.9-0.4-4-1.1c-1.2-0.7-2.1-1.7-2.6-3c-0.6-1.3-0.8-2.7-0.7-4.2l0-0.6
		c0.2-1.7,0.7-3.2,1.5-4.7c0.8-1.4,1.9-2.5,3.2-3.3s2.7-1.1,4.3-1.1c2.2,0,3.9,0.9,5.1,2.5c1.2,1.6,1.6,3.6,1.3,6.1l-0.3,2h-10.7
		c0,1.1,0.2,2,0.8,2.7c0.6,0.7,1.4,1,2.4,1c1.7,0,3.1-0.6,4.3-1.9l2.1,2.6c-0.7,1-1.6,1.8-2.8,2.3C306.1,36.1,304.8,36.4,303.3,36.4
		z M304.8,22.1c-0.8,0-1.6,0.2-2.2,0.8c-0.6,0.5-1.2,1.5-1.7,2.8h6.2l0.1-0.4c0.1-0.4,0.1-0.8,0-1.2c-0.1-0.6-0.4-1.1-0.8-1.5
		C306,22.3,305.4,22.1,304.8,22.1z"/>
</g>
<g>
	<g>
		<defs>
			<rect id="SVGID_1_" x="9.6" y="10.8" width="133.2" height="30.8"/>
		</defs>
		<clipPath id="SVGID_2_">
			<use xlink:href="#SVGID_1_"  overflow="visible"/>
		</clipPath>
		<polygon clip-path="url(#SVGID_2_)" fill="none" stroke="#0D1925" stroke-width="3.5" points="142.3,41 10.1,41 10.1,11.3 
			142.3,11.3 142.3,41 		"/>
	</g>
	<polygon fill-rule="evenodd" clip-rule="evenodd" fill="#035FA4" points="142.2,40.6 10.1,40.4 10.1,11.3 142.3,11.5 142.2,40.6 	
		"/>
	<polygon fill-rule="evenodd" clip-rule="evenodd" fill="#E92529" points="142.2,40.6 10.1,40.6 10.1,37.3 142.2,37.3 142.2,40.6 	
		"/>
	<path fill="#FFFFFF" d="M81.2,16.7C81.2,16.7,81.2,16.6,81.2,16.7c0-0.2-0.1-0.3-0.3-0.3c-0.2,0-0.3,0.1-0.3,0.3c0,0,0,0.1,0,0.1
		c0,0.1,0.1,0.2,0.2,0.4C81,17,81.2,16.9,81.2,16.7L81.2,16.7z M80.1,18.6c0,0.2,0.2,0.3,0.6,0.3c0.1,0,0.3,0,0.4,0
		c-0.2-0.2-0.5-0.4-0.7-0.6C80.3,18.4,80.1,18.5,80.1,18.6L80.1,18.6z M82,18.3c0.1-0.2,0.2-0.4,0.2-0.6h1.2c0,0.5-0.2,1-0.6,1.3
		c0.3,0.2,0.6,0.4,0.9,0.7h-1.6c-0.1,0-0.1-0.1-0.2-0.2c-0.3,0.1-0.8,0.2-1.2,0.2c-1,0-1.9-0.2-1.9-0.9c0-0.1,0-0.2,0-0.2
		c0-0.5,0.5-0.8,1-1c-0.2-0.3-0.3-0.6-0.3-0.9c0,0,0-0.1,0-0.2c0-0.5,0.5-1,1.4-1c0.8,0,1.3,0.5,1.3,1c0,0,0,0.2,0,0.2
		c0,0.5-0.4,0.9-0.8,1.2C81.6,17.9,81.8,18.1,82,18.3L82,18.3z"/>
	<path fill="#FFFFFF" d="M90.6,19.7h-1.4c0,0-0.6-2.4-0.6-2.5c0,0.1-0.7,2.5-0.7,2.5h-1.4l-1.2-4.2h1.4c0,0,0.6,2.6,0.6,2.7
		c0-0.1,0.6-2.7,0.6-2.7h1.3c0,0,0.6,2.6,0.6,2.7c0-0.1,0.6-2.7,0.6-2.7h1.3L90.6,19.7L90.6,19.7z"/>
	<path fill="#FFFFFF" d="M94.9,17.6c0-0.8-0.2-1.2-0.9-1.2c-0.7,0-0.9,0.3-0.9,1.2c0,0.9,0.3,1.2,0.9,1.2
		C94.6,18.8,94.9,18.5,94.9,17.6L94.9,17.6z M96.2,17.6c0,1.5-0.7,2.2-2.2,2.2c-1.5,0-2.2-0.7-2.2-2.2c0-1.3,0.7-2.1,2.2-2.1
		C95.5,15.4,96.2,16.2,96.2,17.6L96.2,17.6z"/>
	<path fill="#FFFFFF" d="M99.4,16.7c-0.1-0.1-0.2-0.2-0.4-0.2H98v0.9h1.1c0.2,0,0.3,0,0.3-0.1c0-0.1,0-0.2,0-0.3
		C99.5,16.8,99.4,16.7,99.4,16.7L99.4,16.7z M100.5,17.6c-0.1,0.2-0.3,0.4-0.5,0.4l1,1.7h-1.4l-0.7-1.4h-0.9v1.4h-1.3v-4.2h2.7
		c0.6,0,0.9,0.2,1.1,0.4c0.2,0.2,0.2,0.5,0.2,0.9C100.7,17.2,100.6,17.4,100.5,17.6L100.5,17.6z"/>
	<polygon fill="#FFFFFF" points="101.4,19.7 101.4,15.5 102.7,15.5 102.7,18.6 104.7,18.6 104.7,19.7 101.4,19.7 	"/>
	<path fill="#FFFFFF" d="M107.9,17.5c0-0.3,0-0.7-0.1-0.8c-0.2-0.2-0.3-0.2-0.6-0.2h-0.8v2.2h0.8c0.3,0,0.5-0.1,0.6-0.2
		C107.9,18.3,107.9,17.8,107.9,17.5L107.9,17.5z M107.5,19.7h-2.4v-4.2h2.3c0.8,0,1.2,0.2,1.5,0.5c0.3,0.4,0.3,0.7,0.3,1.5
		c0,0.9-0.1,1.2-0.3,1.6C108.6,19.5,108.2,19.7,107.5,19.7L107.5,19.7z"/>
	<path fill="#FFFFFF" d="M114,16.7c-0.1-0.1-0.2-0.2-0.4-0.2h-1.1v0.9h1.1c0.2,0,0.3,0,0.3-0.1c0-0.1,0-0.2,0-0.3
		C114.1,16.8,114.1,16.7,114,16.7L114,16.7z M115.1,17.6c-0.1,0.2-0.3,0.4-0.5,0.4l1,1.7h-1.4l-0.7-1.4h-0.9v1.4h-1.3v-4.2h2.7
		c0.6,0,0.9,0.2,1.1,0.4c0.2,0.2,0.2,0.5,0.2,0.9C115.3,17.2,115.3,17.4,115.1,17.6L115.1,17.6z"/>
	<polygon fill="#FFFFFF" points="116,19.7 116,15.5 119.5,15.5 119.5,16.5 117.2,16.5 117.2,17.1 119.5,17.1 119.5,18.1 117.2,18.1 
		117.2,18.7 119.6,18.7 119.6,19.7 116,19.7 	"/>
	<path fill="#FFFFFF" d="M122.8,16.7c-0.1-0.1-0.2-0.2-0.4-0.2h-1v1c0,0,1,0,1,0c0.2,0,0.4-0.1,0.4-0.2c0-0.1,0-0.2,0-0.3
		C122.9,16.8,122.8,16.7,122.8,16.7L122.8,16.7z M123.8,18c-0.2,0.3-0.6,0.4-1.2,0.4c-0.2,0-1.3,0-1.3,0v1.3h-1.3v-4.2h2.6
		c0.5,0,0.9,0.1,1.1,0.3c0.2,0.2,0.4,0.6,0.4,1.1C124.2,17.4,124.1,17.7,123.8,18L123.8,18z"/>
	<path fill="#FFFFFF" d="M127.6,17.6c0-0.8-0.2-1.2-0.9-1.2c-0.7,0-0.9,0.3-0.9,1.2c0,0.9,0.3,1.2,0.9,1.2
		C127.3,18.8,127.6,18.5,127.6,17.6L127.6,17.6z M128.9,17.6c0,1.5-0.7,2.2-2.2,2.2c-1.5,0-2.2-0.7-2.2-2.2c0-1.3,0.7-2.1,2.2-2.1
		C128.3,15.4,128.9,16.2,128.9,17.6L128.9,17.6z"/>
	<path fill="#FFFFFF" d="M132.1,16.7c-0.1-0.1-0.2-0.2-0.4-0.2h-1.1v0.9h1.1c0.2,0,0.3,0,0.3-0.1c0-0.1,0-0.2,0-0.3
		C132.2,16.8,132.2,16.7,132.1,16.7L132.1,16.7z M133.2,17.6c-0.1,0.2-0.3,0.4-0.5,0.4l1,1.7h-1.4l-0.7-1.4h-0.9v1.4h-1.3v-4.2h2.7
		c0.6,0,0.9,0.2,1.1,0.4c0.2,0.2,0.2,0.5,0.2,0.9C133.4,17.2,133.4,17.4,133.2,17.6L133.2,17.6z"/>
	<polygon fill="#FFFFFF" points="136.4,16.5 136.4,19.7 135.1,19.7 135.1,16.5 133.8,16.5 133.8,15.5 137.8,15.5 137.8,16.5 
		136.4,16.5 	"/>
	<path fill="#FFFFFF" d="M82.3,27.8c0-0.5,0.4-1.4,1-1.9c0.8-0.7,2-1.1,3.6-1.1c1.7,0,2.8,0.5,3.5,1.2c0.6,0.6,0.8,1.3,0.8,1.8H82.3
		L82.3,27.8z M105.3,37c0.4-1.2,3-8.9,3-9.4c0-0.2,0.2-1.1,0.2-1.1s0.2,0.9,0.2,1.1c0.1,0.5,2.7,8.1,3.1,9.4H105.3L105.3,37z
		 M63.6,37V22.8L72,37H63.6L63.6,37z M50.1,37c1.9-0.5,3.2-1.4,4.1-2.5V37H50.1L50.1,37z M27.8,37c1.9-0.5,3.3-1.3,4.3-2.6V37H27.8
		L27.8,37z M141.9,37.8v2.8H10.4v-2.8H141.9L141.9,37.8z M142,11.6V37h-7.1c2.6-0.7,3.7-2.2,3.7-4.4c0-2.9-1.7-4.3-5.4-4.9
		c-0.5-0.1-2.7-0.4-3.7-0.5c-2.2-0.3-2.7-0.6-2.7-1.3c0-0.7,0.7-1.1,3.3-1.1c2.2,0,3,0.4,3.3,0.8c0.1,0.2,0.2,0.7,0.2,0.9h4.4
		c0-0.3-0.1-1.3-0.3-1.9c-0.8-2.3-3.5-3.4-7.8-3.4c-5,0-7.6,1.8-7.6,4.6c0,3,1.7,4.5,5.1,5c0.9,0.1,2.8,0.4,3.4,0.5
		c2.3,0.3,3.3,0.5,3.3,1.4c0,0.9-0.8,1.4-3.4,1.4c-2.5,0-3.7-0.2-4-0.9c-0.1-0.3-0.1-0.6-0.1-0.8h-4.5c0,0.5,0,0.9,0.2,1.6
		c0.4,1.6,1.6,2.6,3.7,3.2h-8.6l5.6-15.5h-4.5l-3.7,11.7l-3.5-11.7h-5.1l-3.5,11.7L99,21.5h-4.8L99.8,37h-9.5c0.9-0.2,1.7-0.6,2.3-1
		c1.6-1,2.5-2.4,2.9-3.9H91c-0.1,0.3-0.5,0.9-1.3,1.2c-0.7,0.3-1.6,0.5-2.9,0.5c-1.7,0-3-0.5-3.7-1.2c-0.5-0.6-0.9-1.1-0.9-1.9h13.3
		c0.3-2.4-0.2-4.6-1.3-6.3c-1.4-2-3.9-3.3-7.4-3.3c-3.4,0-6.1,1.3-7.6,3.5c-0.9,1.3-1.4,2.9-1.4,4.6c0,2,0.4,3.5,1.2,4.8
		c1,1.5,2.4,2.5,4.3,3h-6.1V15.9h-4.4v13.7l-8.2-13.7h-5.4V37h-0.8v-4.2H55c0.2-0.6,0.3-1.2,0.3-1.8c0-3.6-2.2-5.4-6.4-6.2
		c-0.5-0.1-1.9-0.4-3-0.6c-3.5-0.7-4.7-1.3-4.7-2.9c0-1.2,0.7-2,4.2-2c2.7,0,3.8,0.6,4.4,1.8c0.2,0.3,0.3,0.8,0.3,1h4.8
		c0-0.5-0.2-1.3-0.5-2c-1.1-2.7-3.6-4.5-8.9-4.5c-6.2,0-9.2,2.4-9.2,6c0,3.5,2.6,5.4,6.7,6.2c0.9,0.2,2.5,0.5,3.1,0.6
		c3.4,0.6,4.3,1.3,4.3,3c0,1.4-1.1,2.3-4.4,2.3c-2.8,0-4.2-0.5-4.8-1.8c-0.2-0.3-0.3-1-0.3-1.3h-4.8c0,0.4,0.1,1.5,0.3,2.2
		c0.6,1.9,1.9,3.4,5,4.2h-5.1v-4.2H33c0.2-0.6,0.3-1.3,0.3-2.1c0-0.4,0-14.8,0-14.8h-4.7c0,0,0,13.8,0,14.2c0,2.2-1.9,3.5-4.5,3.5
		c-3,0-4.7-1.3-4.7-3.6c0-0.4,0-14.2,0-14.2h-4.7c0,0,0,14.1,0,14.6c0,3.7,2.1,5.7,5.4,6.5h-9.7V11.6H142L142,11.6z M9.8,11v30.4
		h132.8V11H9.8L9.8,11z"/>
</g>
</svg>
