<?xml version="1.0" encoding="utf-8"?>
<!-- Generator: Adobe Illustrator 19.1.0, SVG Export Plug-In . SVG Version: 6.00 Build 0)  -->
<svg version="1.1" id="Layer_1" xmlns="http://www.w3.org/2000/svg" xmlns:xlink="http://www.w3.org/1999/xlink" x="0px" y="0px"
	 viewBox="0 0 189 142.5" enable-background="new 0 0 189 142.5" xml:space="preserve">
<linearGradient id="SVGID_1_" gradientUnits="userSpaceOnUse" x1="9646.2295" y1="68.038" x2="9607.0869" y2="81.5158" gradientTransform="matrix(-1 0 0 1 9788.2852 0)">
	<stop  offset="0" style="stop-color:#1B3D6C"/>
	<stop  offset="1" style="stop-color:#0561A8"/>
</linearGradient>
<polygon fill="url(#SVGID_1_)" points="184.6,63.1 184.3,63.4 172.8,79.7 178.9,88.3 143.8,88.3 143.8,88.2 143.8,63.1 "/>
<polygon fill="#E9272A" points="184.3,96 144.9,96 143.9,95.3 143.9,91.4 144.9,90.3 180.3,90.3 "/>
<polygon fill="#FFFFFF" points="180.3,90.3 143.8,90.3 143.8,90 143.8,88.3 178.8,88.3 "/>
<g>
	<path fill="#BE2126" d="M143.7,87.4c0,0,0.1,5.7,0.1,7.5c0,0.2-0.1,0.9,1.3,1c-3.7-1.7,2.9-2.7,5.6-2.4L143.7,87.4z"/>
	<path fill="#BE2126" d="M165.5,87.5V92c-1.4,1.6-3.3,1.5-5.6,1.7h-16.2v-6.2H165.5z"/>
</g>
<g>
	<linearGradient id="SVGID_2_" gradientUnits="userSpaceOnUse" x1="47.3274" y1="68.4738" x2="8.164" y2="81.9588">
		<stop  offset="0" style="stop-color:#1B3D6C"/>
		<stop  offset="1" style="stop-color:#0561A8"/>
	</linearGradient>
	<polygon fill="url(#SVGID_2_)" points="4.8,63.5 5.1,63.8 16.5,80.1 10.5,88.7 45.6,88.7 45.6,88.6 45.6,63.5 	"/>
	<g>
		<polygon fill="#E9272A" points="5.1,96.4 44.5,96.4 45.5,95.8 45.5,91.8 44.5,90.7 9.1,90.7 		"/>
		<polygon fill="#FFFFFF" points="9.1,90.7 45.6,90.7 45.6,90.4 45.6,88.7 10.6,88.7 		"/>
	</g>
	<g>
		<path fill="#BE2126" d="M45.7,87.9c0,0-0.1,5.7-0.1,7.5c0,0.2,0.1,0.9-1.3,1c3.7-1.7-2.9-2.7-5.6-2.4L45.7,87.9z"/>
		<path fill="#BE2126" d="M23.8,87.9v4.6c1.4,1.6,3.3,1.5,5.6,1.7h16.2v-6.2H23.8z"/>
	</g>
</g>
<linearGradient id="SVGID_3_" gradientUnits="userSpaceOnUse" x1="94.7149" y1="4.5386" x2="94.7149" y2="136.1235">
	<stop  offset="0" style="stop-color:#468DC2"/>
	<stop  offset="0.1472" style="stop-color:#075EA5"/>
	<stop  offset="1" style="stop-color:#002653"/>
</linearGradient>
<path fill="url(#SVGID_3_)" d="M94.7,136.1c-36.3,0-65.8-29.5-65.8-65.8c0-36.3,29.5-65.8,65.8-65.8c36.3,0,65.8,29.5,65.8,65.8
	C160.5,106.6,131,136.1,94.7,136.1L94.7,136.1z"/>
<linearGradient id="SVGID_4_" gradientUnits="userSpaceOnUse" x1="94.715" y1="121.4067" x2="94.715" y2="19.2505">
	<stop  offset="0" style="stop-color:#373635"/>
	<stop  offset="0.9011" style="stop-color:#010101"/>
	<stop  offset="1" style="stop-color:#010101"/>
</linearGradient>
<path fill="url(#SVGID_4_)" d="M94.7,121.4c-28.2,0-51.1-22.9-51.1-51.1c0-28.2,22.9-51.1,51.1-51.1c28.2,0,51.1,22.9,51.1,51.1
	C145.8,98.5,122.9,121.4,94.7,121.4L94.7,121.4z"/>
<linearGradient id="SVGID_5_" gradientUnits="userSpaceOnUse" x1="94.7149" y1="118.7319" x2="94.7149" y2="21.9248">
	<stop  offset="0" style="stop-color:#BFC1C3"/>
	<stop  offset="0.1978" style="stop-color:#D6D7D9"/>
	<stop  offset="1" style="stop-color:#EAEBEC"/>
</linearGradient>
<path fill="url(#SVGID_5_)" d="M94.7,118.7C68,118.7,46.3,97,46.3,70.3c0-26.7,21.7-48.4,48.4-48.4c26.7,0,48.4,21.7,48.4,48.4
	C143.1,97,121.4,118.7,94.7,118.7z"/>
<linearGradient id="SVGID_6_" gradientUnits="userSpaceOnUse" x1="94.7151" y1="64.0024" x2="94.7151" y2="25.9062">
	<stop  offset="0" style="stop-color:#E8E9EA"/>
	<stop  offset="1" style="stop-color:#FFFFFF"/>
</linearGradient>
<path fill="url(#SVGID_6_)" d="M94.7,64c-15.6,0-28.4-8.5-28.4-19c0-10.5,12.7-19,28.4-19c15.7,0,28.4,8.5,28.4,19
	C123.1,55.5,110.4,64,94.7,64z"/>
<linearGradient id="SVGID_7_" gradientUnits="userSpaceOnUse" x1="94.7149" y1="47.8159" x2="94.7149" y2="8.4199">
	<stop  offset="0" style="stop-color:#004E8E"/>
	<stop  offset="1" style="stop-color:#F1FAFE"/>
</linearGradient>
<path fill="url(#SVGID_7_)" d="M94.7,12.3C71,12.3,50.6,27,42.2,47.8l0,0l-3.6-1.5c9-22.2,30.8-37.9,56.1-37.9l0,0
	c25.4,0,47.2,15.7,56.1,37.9l0,0l-3.6,1.5C138.8,27,118.5,12.3,94.7,12.3L94.7,12.3z"/>
<linearGradient id="SVGID_8_" gradientUnits="userSpaceOnUse" x1="94.7148" y1="90.2749" x2="94.7148" y2="125.8774">
	<stop  offset="0" style="stop-color:#004E8E"/>
	<stop  offset="1" style="stop-color:#F1FAFE"/>
</linearGradient>
<path fill="url(#SVGID_8_)" d="M43.5,91.6L43.5,91.6l3.8-1.4c7.3,18.5,25.8,31.7,47.4,31.7l0,0c21.7,0,40.1-13.2,47.4-31.7l0,0
	l3.8,1.4c-7.8,20-27.8,34.2-51.2,34.2l0,0C71.3,125.9,51.4,111.6,43.5,91.6L43.5,91.6z"/>
<g>
	<polygon fill="#E6E7E8" points="120.3,87.2 121.8,84.4 132.7,90.6 131.1,93.3 	"/>
	
		<rect x="128.4" y="73.8" transform="matrix(-0.2477 0.9688 -0.9688 -0.2477 239.723 -26.1103)" fill="#E6E7E8" width="3.2" height="12.5"/>
	
		<rect x="129.5" y="64.3" transform="matrix(1.096298e-02 0.9999 -0.9999 1.096298e-02 200.1976 -61.344)" fill="#E6E7E8" width="3.2" height="12.5"/>
	
		<rect x="128.1" y="54.8" transform="matrix(0.2693 0.9631 -0.9631 0.2693 153.6197 -80.3074)" fill="#E6E7E8" width="3.2" height="12.5"/>
	<polygon fill="#E6E7E8" points="121.4,56.9 119.8,54.1 130.5,47.7 132.1,50.5 	"/>
	<polygon fill="#E6E7E8" points="116.8,50.4 114.5,48.1 123.2,39.2 125.5,41.5 	"/>
	<polygon fill="#E6E7E8" points="110.7,45.3 107.9,43.8 114,32.9 116.8,34.5 	"/>
	
		<rect x="101.9" y="29.3" transform="matrix(0.9688 0.248 -0.248 0.9688 12.0531 -24.5489)" fill="#E6E7E8" width="3.2" height="12.5"/>
	<polygon fill="#E6E7E8" points="95.7,40.7 92.5,40.7 92.3,28.2 95.5,28.2 	"/>
	
		<rect x="82.9" y="29.6" transform="matrix(0.9633 -0.2683 0.2683 0.9633 -6.5176 24.0013)" fill="#E6E7E8" width="3.2" height="12.5"/>
	<polygon fill="#E6E7E8" points="80.3,44.2 77.6,45.8 71.2,35.1 74,33.5 	"/>
	<polygon fill="#E6E7E8" points="73.9,48.8 71.6,51.1 62.7,42.3 64.9,40 	"/>
	<polygon fill="#E6E7E8" points="68.9,54.9 67.3,57.7 56.4,51.6 58,48.8 	"/>
	<polygon fill="#E6E7E8" points="65.7,62.1 64.9,65.2 52.9,62.1 53.7,59 	"/>
	<polygon fill="#E6E7E8" points="64.5,69.8 64.6,73 52.1,73.2 52.1,70 	"/>
	<polygon fill="#E6E7E8" points="65.4,77.6 66.2,80.7 54.2,84.1 53.4,81 	"/>
	<polygon fill="#E6E7E8" points="68.2,84.9 69.9,87.7 59.1,94 57.5,91.3 	"/>
</g>
<g>
	
		<rect x="57.8" y="56.3" transform="matrix(0.2478 -0.9688 0.9688 0.2478 -15.8847 104.627)" fill="#C7C8CA" width="3.2" height="12.5"/>
	
		<rect x="56.7" y="65.8" transform="matrix(-1.139791e-02 -0.9999 0.9999 -1.139791e-02 -13.0376 131.1668)" fill="#C7C8CA" width="3.2" height="12.5"/>
	
		<rect x="58.1" y="75.3" transform="matrix(-0.2684 -0.9633 0.9633 -0.2684 -2.7648 160.8662)" fill="#C7C8CA" width="3.2" height="12.5"/>
	<polygon fill="#C7C8CA" points="68,85.7 69.7,88.5 58.9,94.8 57.3,92.1 	"/>
	<polygon fill="#C7C8CA" points="72.6,92.2 74.9,94.4 66.2,103.3 63.9,101.1 	"/>
	<polygon fill="#C7C8CA" points="78.7,97.2 81.5,98.8 75.4,109.7 72.6,108.1 	"/>
	
		<rect x="84.3" y="100.8" transform="matrix(-0.9687 -0.2482 0.2482 -0.9687 142.6485 231.9534)" fill="#C7C8CA" width="3.2" height="12.5"/>
	<polygon fill="#C7C8CA" points="93.8,101.9 97,101.8 97.1,114.3 93.9,114.3 	"/>
	
		<rect x="103.3" y="100.5" transform="matrix(-0.9632 0.2686 -0.2686 -0.9632 234.5876 181.3302)" fill="#C7C8CA" width="3.2" height="12.5"/>
	<polygon fill="#C7C8CA" points="109.1,98.4 111.9,96.8 118.2,107.5 115.5,109.1 	"/>
	<polygon fill="#C7C8CA" points="115.6,93.8 117.8,91.5 126.7,100.2 124.5,102.5 	"/>
	<polygon fill="#C7C8CA" points="120.6,87.6 122.1,84.8 133,90.9 131.4,93.7 	"/>
	<polygon fill="#C7C8CA" points="123.7,80.5 124.5,77.4 136.6,80.4 135.8,83.6 	"/>
	<polygon fill="#C7C8CA" points="124.9,72.7 124.9,69.5 137.3,69.4 137.4,72.6 	"/>
	<polygon fill="#C7C8CA" points="124,64.9 123.2,61.9 135.2,58.5 136,61.6 	"/>
</g>
<linearGradient id="SVGID_9_" gradientUnits="userSpaceOnUse" x1="94.7148" y1="114.0386" x2="94.7148" y2="29.0747">
	<stop  offset="0" style="stop-color:#3C3C3B"/>
	<stop  offset="1" style="stop-color:#919191"/>
</linearGradient>
<path fill="url(#SVGID_9_)" d="M92,108.5c-0.7-0.4-1.4-1-2.1-1.6c-0.6-0.6-1-1.4-1-2.3c0-1.3,0.5-2.4,1.4-3.1c1-0.8,2.2-1.1,3.6-1.1
	c0.9,0,1.6,0.1,2.3,0.4c0.6,0.2,1.3,0.4,2.2,0.6c0,0.4,0,1,0,1.8c0,0.7,0,1.4,0.1,2c0,0-0.1,0.1-0.2,0.1c-0.1,0-0.2,0-0.3,0
	c-0.1,0-0.2,0-0.3,0c-0.1,0-0.1-0.1-0.1-0.1c-0.2-1.1-0.7-2-1.5-2.8c-0.8-0.7-1.5-1.1-2.2-1.1c-0.7,0-1.2,0.2-1.6,0.5
	c-0.3,0.3-0.5,0.8-0.5,1.3c0,0.7,0.3,1.2,1,1.7c0.6,0.5,1.3,0.9,2.1,1.3c0.8,0.4,1.5,1,2.1,1.6c0.6,0.6,1,1.3,1,2.2
	c0,1.2-0.4,2.1-1.3,2.9c-0.9,0.8-2.1,1.2-3.6,1.2c-0.7,0-1.3-0.1-1.8-0.3c-0.5-0.2-1-0.3-1.6-0.4c0-0.4,0-1-0.1-1.7
	c0-0.7-0.1-1.2-0.1-1.7c0,0,0-0.1,0.2-0.1c0.1,0,0.2,0,0.3,0c0.1,0,0.2,0,0.3,0c0.1,0,0.1,0.1,0.2,0.1c0.2,1,0.6,1.7,1,2.3
	c0.5,0.6,1,0.8,1.7,0.8c0.6,0,1-0.2,1.4-0.5c0.3-0.3,0.5-0.7,0.5-1.2c0-0.6-0.3-1.2-0.9-1.6C93.5,109.5,92.8,109,92,108.5z
	 M128.2,79.1c-0.7-0.1-1.4-0.2-2.2-0.3c-0.8-0.1-1.5-0.1-2.2-0.2c0-0.8,0-1.8,0.1-3c0-1.2,0-2.1,0-2.9c0-0.7,0-1.8,0-3.1
	c0-1.3,0-2.3-0.1-3c0,0,0.1-0.1,0.2-0.1c0.1,0,0.2,0,0.3,0c0.1,0,0.1,0,0.2,0c0.1,0,0.2,0.1,0.2,0.1c0.1,0.7,0.2,1.2,0.5,1.4
	c0.2,0.2,0.6,0.3,1.1,0.3h8.2c0.5,0,0.9-0.1,1.1-0.3c0.2-0.2,0.4-0.7,0.5-1.4c0,0,0.1-0.1,0.2-0.1c0.1,0,0.2,0,0.2,0
	c0.1,0,0.2,0,0.3,0c0.1,0,0.1,0.1,0.1,0.1c0,0.7,0,1.6-0.1,2.8c0,1.2,0,2.3,0,3.1c0,0.7,0,1.6,0,2.9c0,1.2,0,2.2,0.1,3
	c-0.5,0-1.2,0-2,0c-0.8,0-1.5,0.1-2.2,0.1c0,0-0.1,0-0.2-0.1c-0.1-0.1-0.1-0.2-0.1-0.4c0-0.1,0-0.2,0-0.2c0-0.1,0.1-0.1,0.1-0.1
	c0.8-0.1,1.5-0.4,2.2-1c0.7-0.6,1.1-1.3,1.1-2.3v-1.1c0-0.2-0.1-0.5-0.2-0.7c-0.1-0.2-0.4-0.4-0.9-0.4h-3.9v0.6
	c0,0.6,0.2,1.1,0.6,1.5c0.4,0.4,0.9,0.6,1.5,0.7c0,0,0.1,0.1,0.1,0.2c0,0.1,0,0.2,0,0.2c0,0.1,0,0.2,0,0.3c0,0.1-0.1,0.1-0.1,0.1
	c-0.5,0-0.9,0-1.3,0c-0.4,0-0.8,0-1.2,0c-0.4,0-0.8,0-1.2,0c-0.4,0-0.8,0-1.2,0c0,0-0.1,0-0.1-0.1c0-0.1,0-0.2,0-0.3
	c0-0.1,0-0.1,0-0.2c0-0.1,0.1-0.2,0.1-0.2c0.6-0.1,1.1-0.3,1.5-0.6c0.4-0.3,0.5-0.9,0.5-1.5v-0.6h-4c-0.4,0-0.7,0.1-0.9,0.4
	c-0.1,0.2-0.2,0.5-0.2,0.7v1c0,0.9,0.3,1.8,1,2.5c0.7,0.7,1.5,1.2,2.5,1.4c0,0,0,0,0.1,0.1c0,0.1,0,0.1,0,0.2c0,0.1,0,0.3-0.1,0.4
	C128.4,79,128.3,79.1,128.2,79.1z M103.5,29.5c0,0.1,0,0.1,0,0.3c0,0.1-0.1,0.2-0.1,0.2c-0.7,0.1-1.2,0.2-1.5,0.5
	c-0.3,0.2-0.4,0.6-0.4,1.1l-0.2,10.7c0,0,0,0.1-0.1,0.1c-0.1,0-0.2,0.1-0.4,0.1c-0.1,0-0.3,0-0.4,0c-0.1,0-0.2-0.1-0.2-0.1L91.1,33
	L91,39.7c0,0.5,0.1,0.9,0.4,1.1c0.3,0.2,0.8,0.4,1.5,0.5c0,0,0.1,0,0.1,0.1c0,0.1,0,0.2,0,0.3c0,0.1,0,0.2,0,0.3
	c0,0.1-0.1,0.2-0.1,0.2c-0.5,0-0.9,0-1.3,0c-0.4,0-0.8,0-1.3,0c-0.4,0-0.9,0-1.2,0c-0.4,0-0.8,0-1.2,0c0,0-0.1-0.1-0.1-0.2
	c0-0.1,0-0.2,0-0.3c0-0.1,0-0.2,0.1-0.3c0-0.1,0.1-0.1,0.1-0.2c0.7-0.1,1.2-0.2,1.5-0.5c0.3-0.2,0.4-0.6,0.4-1.1l0.3-7.6
	c0-0.7-0.1-1.2-0.4-1.5c-0.3-0.3-0.8-0.6-1.6-0.6c0,0-0.1-0.1-0.1-0.2c0-0.1,0-0.2,0-0.2c0-0.1,0-0.2,0-0.3c0-0.1,0.1-0.1,0.1-0.1
	c0.3,0,0.7,0,1.1,0c0.4,0,0.7,0,1,0c0.3,0,0.6,0,0.8,0c0.3,0,0.6,0,1,0l8.4,8.5v-6.1c0-0.5-0.2-0.9-0.4-1.1
	c-0.3-0.2-0.8-0.4-1.5-0.5c0,0-0.1-0.1-0.1-0.1c0-0.1,0-0.2,0-0.3c0-0.1,0-0.2,0-0.3c0-0.1,0.1-0.2,0.1-0.2c0.5,0,0.9,0,1.2,0
	c0.3,0,0.7,0,1.2,0c0.4,0,0.9,0,1.3,0c0.4,0,0.9,0,1.3,0c0,0,0.1,0,0.1,0.1C103.5,29.3,103.5,29.4,103.5,29.5z M52.9,62.7
	c0.1,0,0.2,0,0.3,0.1c0.1,0,0.2,0.1,0.2,0.2c0,0.4,0.2,0.7,0.6,1c0.4,0.3,0.9,0.6,1.5,1l10.2,5.2c0,0,0.1,0.1,0.1,0.2
	c0,0.1,0.1,0.2,0.1,0.4c0,0.2,0,0.3-0.1,0.4c0,0.1-0.1,0.2-0.1,0.2L61,73.5l4.7,3.3c0,0,0.1,0.1,0.1,0.2c0,0.1,0.1,0.2,0.1,0.4
	c0,0.1,0,0.2-0.1,0.4c0,0.1-0.1,0.2-0.1,0.2l-10.5,4.9c-0.7,0.3-1.1,0.6-1.4,0.8c-0.2,0.2-0.4,0.6-0.5,1.4c0,0-0.1,0.1-0.2,0.1
	c-0.1,0-0.2,0.1-0.2,0.1c-0.1,0-0.2,0-0.3,0c-0.1,0-0.2-0.1-0.2-0.1c0-0.6,0-1.2,0-1.7c0-0.5,0-1,0-1.6c0-0.6,0-1,0-1.4
	c0-0.4,0-0.8,0-1.5c0,0,0-0.1,0.1-0.1c0.1,0,0.2-0.1,0.3-0.1c0.1,0,0.1,0,0.3,0c0.1,0,0.2,0,0.2,0.1c0,0.3,0.1,0.5,0.2,0.7
	c0.1,0.1,0.2,0.2,0.4,0.2c0.1,0,0.3,0,0.5-0.1c0.2-0.1,0.4-0.2,0.5-0.3l7.4-3.5L59.9,74l-4.6,2.1c-0.8,0.4-1.3,0.7-1.5,1
	c-0.2,0.3-0.3,0.5-0.3,0.8c0,0-0.1,0.1-0.2,0.1c-0.1,0-0.2,0.1-0.2,0.1c-0.1,0-0.2,0-0.3,0c-0.1,0-0.2-0.1-0.2-0.1
	c0-0.6,0-1.1,0-1.5c0-0.4,0-0.8,0-1.4c0-0.6,0-1,0-1.5c0-0.4,0-0.9,0-1.5c0,0,0.1-0.1,0.2-0.1c0.1,0,0.2,0,0.3,0c0.1,0,0.1,0,0.3,0
	c0.1,0,0.2,0,0.2,0.1c0,0.3,0.1,0.6,0.2,0.7c0.1,0.1,0.3,0.2,0.5,0.2c0.2,0,0.3,0,0.5-0.1c0.2-0.1,0.3-0.1,0.4-0.2l1.8-0.9l-1.6-1.1
	c-0.3-0.2-0.5-0.3-0.7-0.4c-0.2-0.1-0.4-0.1-0.5-0.1c-0.2,0-0.3,0.1-0.4,0.2c-0.1,0.1-0.1,0.4-0.2,0.8c0,0-0.1,0.1-0.2,0.1
	c-0.1,0-0.2,0-0.2,0c-0.1,0-0.2,0-0.3-0.1c-0.1,0-0.1-0.1-0.1-0.1c0-0.4,0-0.8,0-1.1c0-0.3,0-0.6,0-0.8c0-0.3,0-0.6,0-0.8
	c0-0.2,0-0.6,0-0.9c0,0,0,0,0.1-0.1c0.1,0,0.2,0,0.2,0c0.1,0,0.2,0,0.3,0.1c0.1,0,0.2,0.1,0.2,0.2c0,0.2,0.1,0.5,0.4,0.8
	c0.2,0.3,0.5,0.5,0.9,0.8l3.2,2.2l4-1.9L55.2,66c-0.2-0.1-0.4-0.2-0.6-0.3c-0.2-0.1-0.3-0.1-0.5-0.1c-0.2,0-0.4,0.1-0.5,0.2
	c-0.1,0.1-0.2,0.4-0.2,0.8c0,0-0.1,0.1-0.2,0.1c-0.1,0-0.2,0-0.2,0c-0.1,0-0.2,0-0.3-0.1c-0.1,0-0.1-0.1-0.1-0.1c0-0.4,0-0.8,0-1
	c0-0.3,0-0.5,0-0.7c0-0.3,0-0.6,0-0.9c0-0.3,0-0.6,0-1.1c0,0,0,0,0.1-0.1C52.7,62.8,52.8,62.7,52.9,62.7z"/>
<g>
	<g>
		
			<linearGradient id="SVGID_10_" gradientUnits="userSpaceOnUse" x1="54.4492" y1="-0.695" x2="54.4492" y2="8.5595" gradientTransform="matrix(0.6866 -0.7971 0.7577 0.6526 50.8905 108.4295)">
			<stop  offset="0" style="stop-color:#953126"/>
			<stop  offset="0.1472" style="stop-color:#B73226"/>
			<stop  offset="1" style="stop-color:#F26648"/>
		</linearGradient>
		<path fill="url(#SVGID_10_)" d="M125.2,35.2c-26.7,22.4-35.5,27-35.5,27S85.9,72.6,64.3,106L125.2,35.2z"/>
	</g>
	<g>
		
			<linearGradient id="SVGID_11_" gradientUnits="userSpaceOnUse" x1="10.4377" y1="13.2963" x2="99.2076" y2="13.2963" gradientTransform="matrix(0.6866 -0.7971 0.7577 0.6526 50.8905 108.4295)">
			<stop  offset="0" style="stop-color:#953126"/>
			<stop  offset="0.1472" style="stop-color:#B73226"/>
			<stop  offset="1" style="stop-color:#F26648"/>
		</linearGradient>
		<path fill="url(#SVGID_11_)" d="M125.6,35c-18.2,29.8-21.5,39.1-21.5,39.1s-9.6,5.3-39.5,31.7L125.6,35z"/>
	</g>
</g>
<g>
	<linearGradient id="SVGID_12_" gradientUnits="userSpaceOnUse" x1="94.7158" y1="66.4831" x2="94.7158" y2="77.9831">
		<stop  offset="0" style="stop-color:#555555"/>
		<stop  offset="1" style="stop-color:#010101"/>
	</linearGradient>
	<circle fill="url(#SVGID_12_)" cx="94.7" cy="69.7" r="5.7"/>
	<linearGradient id="SVGID_13_" gradientUnits="userSpaceOnUse" x1="94.715" y1="76.1412" x2="94.715" y2="63.2915">
		<stop  offset="0" style="stop-color:#9E9E9E"/>
		<stop  offset="1" style="stop-color:#FDFEFF"/>
	</linearGradient>
	<path fill="url(#SVGID_13_)" d="M94.7,63.3c-3.6,0-6.4,2.9-6.4,6.4c0,3.6,2.9,6.4,6.4,6.4c3.5,0,6.4-2.9,6.4-6.4
		C101.1,66.1,98.3,63.3,94.7,63.3z M98.9,69.7c0,2.3-1.9,4.2-4.2,4.2c-2.3,0-4.2-1.9-4.2-4.2c0-2.3,1.9-4.2,4.2-4.2
		C97.1,65.5,98.9,67.4,98.9,69.7z"/>
</g>
<g>
	<g>
		<rect x="24.3" y="82.5" opacity="0.27" fill="#231F20" width="140.2" height="9.3"/>
		<path fill="#0460A7" d="M165.8,85.2c0,2.5-2.9,4.5-6.4,4.5H30c-3.5,0-6.4-2-6.4-4.5V61.3c0-2.5,2.9-4.5,6.4-4.5h129.4
			c3.5,0,6.4,2,6.4,4.5V85.2z"/>
		<g>
			<rect x="24.3" y="83.9" fill="#E9272A" width="141.4" height="6.3"/>
			<rect x="31.5" y="56.9" fill="#0460A7" width="125.9" height="25.3"/>
			<g id="U.S.News_1_">
				<path fill="#FFFFFF" d="M45.1,82.8c-4.9,0-8.6-1.9-8.6-6.6c0-0.5,0-13.7,0-13.7h4.3c0,0,0,13,0,13.3c0,2.1,1.5,3.3,4.4,3.3
					c2.5,0,4.2-1.2,4.2-3.3c0-0.4,0-13.4,0-13.4h4.3c0,0,0,13.6,0,14C53.7,80.7,50.1,82.8,45.1,82.8z"/>
				<path fill="#FFFFFF" d="M52.6,82.5v-4.1h3.8v4.1H52.6z"/>
				<path fill="#FFFFFF" d="M65.8,82.8c-5.9,0-8.1-1.8-8.9-4.4c-0.2-0.7-0.3-1.6-0.3-2.1h4.4c0,0.4,0.1,1,0.3,1.3
					c0.5,1.2,1.8,1.7,4.4,1.7c3,0,4-0.8,4-2.2c0-1.7-0.8-2.2-4-2.8c-0.6-0.1-2-0.4-2.9-0.6c-3.8-0.7-6.2-2.5-6.2-5.9
					c0-3.4,2.7-5.7,8.5-5.7c4.9,0,7.2,1.8,8.2,4.3c0.2,0.7,0.4,1.4,0.4,1.9h-4.4c0-0.2-0.1-0.7-0.3-1c-0.5-1.1-1.6-1.7-4.1-1.7
					c-3.3,0-3.9,0.7-3.9,1.9c0,1.5,1.2,2.1,4.4,2.7c1,0.2,2.3,0.5,2.7,0.6c3.9,0.8,5.9,2.4,5.9,5.8C74.3,80.4,71.5,82.8,65.8,82.8z"
					/>
				<path fill="#FFFFFF" d="M73.3,82.5v-4.1h3.8v4.1H73.3z"/>
				<path fill="#FFFFFF" d="M90.4,82.5L82.5,69v13.6h-4.1v-20h5L91,75.4V62.5h4.1v20H90.4z"/>
				<path fill="#FFFFFF" d="M110,81.4c-1.3,0.8-3,1.3-5.4,1.3c-3.2,0-5.8-1-7.2-3.2c-0.7-1.2-1.1-2.6-1.1-4.5c0-1.7,0.4-3.2,1.3-4.4
					c1.4-2.1,3.9-3.3,7.1-3.3c3.3,0,5.6,1.2,6.9,3.1c1.1,1.6,1.5,3.7,1.2,6h-12.3c0,0.7,0.3,1.2,0.8,1.7c0.6,0.7,1.8,1.1,3.4,1.1
					c1.2,0,2.1-0.2,2.7-0.5c0.8-0.4,1.1-0.8,1.2-1.2h4.1C112.3,79.2,111.4,80.5,110,81.4z M107.8,72c-0.6-0.6-1.6-1.1-3.2-1.1
					c-1.5,0-2.6,0.4-3.3,1c-0.5,0.5-0.9,1.3-0.9,1.8h8.1C108.5,73.3,108.3,72.6,107.8,72z"/>
				<path fill="#FFFFFF" d="M133.3,82.5h-5c0,0-2.8-8.5-2.9-9c0-0.2-0.2-1.1-0.2-1.1s-0.2,0.9-0.2,1c0,0.5-2.9,9-2.9,9h-5L112,67.8
					h4.4l3.5,11l3.2-11h4.7l3.3,11l3.4-11h4.1L133.3,82.5z"/>
				<path fill="#FFFFFF" d="M146.3,82.8c-4.9,0-7.2-1-7.8-3.4c-0.1-0.6-0.2-1-0.2-1.5h4.2c0,0.2,0,0.5,0.1,0.8
					c0.3,0.7,1.4,0.9,3.7,0.9c2.4,0,3.1-0.4,3.1-1.3c0-0.8-0.9-1-3-1.3c-0.6-0.1-2.3-0.3-3.2-0.5c-3.2-0.5-4.7-1.9-4.7-4.7
					c0-2.6,2.3-4.4,7-4.4c4,0,6.5,1,7.2,3.2c0.2,0.6,0.3,1.5,0.3,1.8h-4.1c0-0.2-0.1-0.6-0.2-0.8c-0.3-0.4-1.1-0.8-3.1-0.8
					c-2.3,0-3,0.4-3,1.1c0,0.6,0.4,0.9,2.5,1.2c0.8,0.1,2.9,0.4,3.4,0.5c3.5,0.5,5,1.9,5,4.6C153.6,81.3,151.3,82.8,146.3,82.8z"/>
			</g>
			<g id="_x26__World_Report_1_">
				<path fill="#FFFFFF" d="M99.8,65.2c0.1-0.2,0.2-0.4,0.2-0.6h1.1c0,0.5-0.2,0.9-0.5,1.2c0.3,0.2,0.6,0.4,0.8,0.7h-1.5
					c-0.1,0-0.1-0.1-0.2-0.2c-0.3,0.1-0.7,0.2-1.1,0.2c-0.9,0-1.8-0.2-1.8-0.9c0-0.1,0-0.2,0-0.2c0-0.5,0.4-0.7,0.9-1
					c-0.2-0.3-0.3-0.6-0.3-0.9c0,0,0-0.1,0-0.2c0-0.5,0.5-1,1.3-1c0.8,0,1.2,0.4,1.2,0.9c0,0,0,0.2,0,0.2c0,0.5-0.4,0.9-0.8,1.1
					C99.3,64.8,99.6,65,99.8,65.2z M98,65.5c0,0.2,0.2,0.3,0.6,0.3c0.1,0,0.2,0,0.3,0c-0.2-0.2-0.5-0.4-0.6-0.6
					C98.1,65.3,98,65.4,98,65.5z M99,63.7C99,63.6,99,63.6,99,63.7c0-0.2-0.1-0.3-0.3-0.3c-0.2,0-0.2,0.1-0.3,0.3c0,0,0,0.1,0,0.1
					c0,0.1,0.1,0.2,0.2,0.4C98.8,63.9,99,63.8,99,63.7z"/>
				<path fill="#FFFFFF" d="M107.4,66.5h-1.3c0,0-0.6-2.3-0.6-2.5c0,0.1-0.6,2.5-0.6,2.5h-1.3l-1.1-4h1.3c0,0,0.6,2.5,0.6,2.6
					c0-0.1,0.6-2.6,0.6-2.6h1.2c0,0,0.6,2.5,0.6,2.6c0-0.1,0.6-2.6,0.6-2.6h1.2L107.4,66.5z"/>
				<path fill="#FFFFFF" d="M112.7,64.5c0,1.4-0.7,2.1-2.1,2.1c-1.5,0-2.1-0.7-2.1-2.1c0-1.3,0.6-2.1,2.1-2.1
					C112.1,62.4,112.7,63.1,112.7,64.5z M111.5,64.5c0-0.8-0.2-1.1-0.9-1.1c-0.6,0-0.9,0.3-0.9,1.1c0,0.9,0.3,1.1,0.9,1.1
					C111.2,65.6,111.5,65.4,111.5,64.5z"/>
				<path fill="#FFFFFF" d="M116.9,64.5c-0.1,0.2-0.3,0.3-0.5,0.4l0.9,1.6H116l-0.7-1.4h-0.8v1.4h-1.2v-4h2.5c0.5,0,0.9,0.2,1.1,0.4
					c0.2,0.2,0.2,0.5,0.2,0.9C117.1,64.1,117,64.4,116.9,64.5z M115.8,63.6c-0.1-0.1-0.2-0.2-0.4-0.2h-1v0.8h1c0.2,0,0.3,0,0.3-0.1
					c0-0.1,0-0.2,0-0.3C115.9,63.8,115.9,63.7,115.8,63.6z"/>
				<path fill="#FFFFFF" d="M117.9,66.5v-4h1.2v3h1.9v1H117.9z"/>
				<path fill="#FFFFFF" d="M123.8,66.5h-2.2v-4h2.2c0.7,0,1.2,0.2,1.4,0.5c0.2,0.3,0.3,0.7,0.3,1.4c0,0.9-0.1,1.2-0.3,1.5
					C125,66.3,124.6,66.5,123.8,66.5z M124.3,64.4c0-0.3,0-0.7-0.1-0.8c-0.2-0.2-0.3-0.2-0.6-0.2h-0.8v2.1h0.8
					c0.3,0,0.5-0.1,0.6-0.2C124.3,65.2,124.3,64.8,124.3,64.4z"/>
				<path fill="#FFFFFF" d="M131.1,64.5c-0.1,0.2-0.3,0.3-0.5,0.4l0.9,1.6h-1.4l-0.7-1.4h-0.8v1.4h-1.2v-4h2.5
					c0.5,0,0.9,0.2,1.1,0.4c0.2,0.2,0.2,0.5,0.2,0.9C131.3,64.1,131.2,64.4,131.1,64.5z M130.1,63.6c-0.1-0.1-0.2-0.2-0.4-0.2h-1
					v0.8h1c0.1,0,0.3,0,0.3-0.1c0-0.1,0-0.2,0-0.3C130.1,63.8,130.1,63.7,130.1,63.6z"/>
				<path fill="#FFFFFF" d="M132.2,66.5v-4h3.4v0.9h-2.2V64h2.1v1h-2.1v0.6h2.2v0.9H132.2z"/>
				<path fill="#FFFFFF" d="M139.8,64.9c-0.2,0.3-0.6,0.4-1.1,0.4c-0.1,0-1.2,0-1.2,0v1.3h-1.2v-4h2.4c0.5,0,0.8,0.1,1,0.3
					c0.2,0.2,0.4,0.5,0.4,1C140.1,64.3,140,64.7,139.8,64.9z M138.9,63.6c-0.1-0.1-0.2-0.2-0.4-0.2h-1v0.9c0,0,0.9,0,0.9,0
					c0.2,0,0.3-0.1,0.4-0.2c0-0.1,0-0.1,0-0.3C138.9,63.8,138.9,63.7,138.9,63.6z"/>
				<path fill="#FFFFFF" d="M144.8,64.5c0,1.4-0.7,2.1-2.1,2.1c-1.5,0-2.1-0.7-2.1-2.1c0-1.3,0.6-2.1,2.1-2.1
					C144.1,62.4,144.8,63.1,144.8,64.5z M143.5,64.5c0-0.8-0.2-1.1-0.9-1.1c-0.6,0-0.9,0.3-0.9,1.1c0,0.9,0.3,1.1,0.9,1.1
					C143.2,65.6,143.5,65.4,143.5,64.5z"/>
				<path fill="#FFFFFF" d="M148.9,64.5c-0.1,0.2-0.3,0.3-0.5,0.4l0.9,1.6H148l-0.7-1.4h-0.8v1.4h-1.2v-4h2.5c0.5,0,0.9,0.2,1.1,0.4
					c0.2,0.2,0.2,0.5,0.2,0.9C149.1,64.1,149,64.4,148.9,64.5z M147.9,63.6c-0.1-0.1-0.2-0.2-0.3-0.2h-1v0.8h1c0.1,0,0.3,0,0.3-0.1
					c0-0.1,0-0.2,0-0.3C147.9,63.8,147.9,63.7,147.9,63.6z"/>
				<path fill="#FFFFFF" d="M151.9,63.5v3.1h-1.2v-3.1h-1.2v-1h3.7v1H151.9z"/>
			</g>
			<path fill="#E9272A" d="M23.8,83.9v8.3c1.7-2.1,4.1-1.7,7.1-2L23.8,83.9z"/>
			<rect x="24.1" y="82.3" fill="#FFFFFF" width="141.6" height="2.1"/>
			<path fill="#FFFFFF" d="M23.8,78v8.3c1.7-2.1,4.1-1.7,7.1-2L23.8,78z"/>
			<path fill="#0460A7" d="M23.6,75.8v8.3c1.7-2.1,4.1-1.7,7.1-2L23.6,75.8z"/>
			<path fill="#E9272A" d="M165.6,83.9v8.3c-1.7-2.1-4.1-1.7-7.1-2L165.6,83.9z"/>
			<path fill="#0460A7" d="M165.8,75.8v8.3c-1.7-2.1-4.1-1.7-7.1-2L165.8,75.8z"/>
		</g>
	</g>
	<path fill="#FFFFFF" d="M165.7,78.1l-7,6.2c2.9,0.3,5.3-0.1,7,2V78.1z"/>
	<path fill="#0460A7" d="M165.9,75.9v8.3c-1.7-2.1-4.1-1.7-7.1-2L165.9,75.9z"/>
</g>
</svg>
