<?xml version="1.0" encoding="utf-8"?>
<!-- Generator: Adobe Illustrator 21.0.0, SVG Export Plug-In . SVG Version: 6.00 Build 0)  -->
<svg version="1.1" id="Layer_1" xmlns="http://www.w3.org/2000/svg" xmlns:xlink="http://www.w3.org/1999/xlink" x="0px" y="0px"
	 viewBox="0 0 501 109" enable-background="new 0 0 501 109" xml:space="preserve">
<g>
	<g>
		<g>
			<path fill="#9F989F" d="M399.7,69.6c-1.3,2.3-0.5,5.3,1.8,6.6l55.7,32.2c2.3,1.3,5.3,0.5,6.6-1.8l26.5-45.9l-64.1-37L399.7,69.6z
				"/>
			<path fill="#005DA2" d="M498.6,36.6L442.9,4.5c-2.3-1.3-5.3-0.5-6.6,1.8l-6.8,11.7l-3.3,5.7l64.1,37l3.3-5.7l6.8-11.7
				C501.7,40.9,500.9,38,498.6,36.6z"/>
		</g>
		<g>
			<path fill="#FFFFFF" d="M398.8,65.8c-1.3,2.3-0.5,5.3,1.8,6.6l55.7,32.2c2.3,1.3,5.3,0.5,6.6-1.8l26.5-45.9l-64.1-37L398.8,65.8z
				"/>
			<path fill="#3A8FC3" d="M499.5,39.4c1.3-2.3,0.5-5.3-1.8-6.6L442,0.6c-2.3-1.3-5.3-0.5-6.6,1.8l-6.8,11.7l64.1,37L499.5,39.4z"/>
			
				<rect x="455.7" y="-1.5" transform="matrix(0.5001 -0.866 0.866 0.5001 198.7538 415.228)" fill="#005DA2" width="6.6" height="74"/>
		</g>
		
			<rect x="425.4" y="66.7" transform="matrix(0.8661 0.4999 -0.4999 0.8661 93.3773 -205.5088)" fill="#C6C5C5" width="9.7" height="9.7"/>
		
			<rect x="420.3" y="46.5" transform="matrix(0.8661 0.4999 -0.4999 0.8661 82.6196 -205.6603)" fill="#C6C5C5" width="9.7" height="9.7"/>
		
			<rect x="412.8" y="59.4" transform="matrix(0.8661 0.4999 -0.4999 0.8661 88.0745 -200.2051)" fill="#C6C5C5" width="9.7" height="9.7"/>
		
			<rect x="437.9" y="73.9" transform="matrix(0.8661 0.4999 -0.4999 0.8661 98.68 -210.8124)" fill="#C6C5C5" width="9.7" height="9.7"/>
		
			<rect x="450.5" y="81.2" transform="matrix(0.8661 0.4999 -0.4999 0.8661 103.9827 -216.1161)" fill="#C6C5C5" width="9.7" height="9.7"/>
		
			<rect x="432.8" y="53.8" transform="matrix(0.8661 0.4999 -0.4999 0.8661 87.9223 -210.964)" fill="#C6C5C5" width="9.7" height="9.7"/>
		
			<rect x="445.4" y="61" transform="matrix(0.8661 0.4999 -0.4999 0.8661 93.225 -216.2677)" fill="#C6C5C5" width="9.7" height="9.7"/>
		
			<rect x="457.9" y="68.2" transform="matrix(0.8661 0.4999 -0.4999 0.8661 98.5278 -221.5714)" fill="#C6C5C5" width="9.7" height="9.7"/>
		
			<rect x="440.3" y="40.8" transform="matrix(0.8661 0.4999 -0.4999 0.8661 82.4674 -216.4193)" fill="#C6C5C5" width="9.7" height="9.7"/>
		
			<rect x="452.8" y="48.1" transform="matrix(0.8661 0.4999 -0.4999 0.8661 87.7701 -221.723)" fill="#C6C5C5" width="9.7" height="9.7"/>
		
			<rect x="465.4" y="55.3" transform="matrix(0.8661 0.4999 -0.4999 0.8661 93.0728 -227.0267)" fill="#C6C5C5" width="9.7" height="9.7"/>
		
			<ellipse transform="matrix(0.4999 -0.8661 0.8661 0.4999 211.2773 396.0833)" fill="#394376" cx="448.6" cy="15.1" rx="3.5" ry="3.5"/>
		
			<ellipse transform="matrix(0.4999 -0.8661 0.8661 0.4999 211.2808 434.5559)" fill="#394376" cx="482" cy="34.3" rx="3.5" ry="3.5"/>
		<path fill="#9F989F" d="M454.8,4.5L454.8,4.5c-1.1-0.6-2.4-0.2-3,0.8l-4.9,8.4c-0.6,1-0.2,2.4,0.8,3l0,0c1,0.6,2.4,0.2,3-0.8
			l4.9-8.4C456.2,6.4,455.8,5.1,454.8,4.5z"/>
		<path fill="#9F989F" d="M488.1,23.7L488.1,23.7c-1.1-0.6-2.4-0.2-3,0.8l-4.9,8.4c-0.6,1-0.2,2.4,0.8,3l0,0c1,0.6,2.4,0.2,3-0.8
			l4.9-8.4C489.5,25.7,489.1,24.3,488.1,23.7z"/>
		<g id="_x35_5gZBx.tif">
			<g>
				<path fill="#EC1E24" d="M432,66.2c-0.2-0.1-0.3-0.2-0.5-0.3c0.1-0.1,0.1-0.2,0.1-0.2c0.3,0,0.6,0,0.9,0c0.3,0,0.5,0.1,0.8,0.2
					c0,0,0.1,0,0.1,0c0.1,0.4,0.5,0.5,0.8,0.8c0.1,0.1,0.3,0.3,0.4,0.4c0.3,0.4,0.7,0.8,0.9,1.3c0.4,0.9,0.7,1.8,0.7,2.7
					c0,0.6-0.1,1.3-0.4,1.9c-0.2,0.5-0.4,1.1-0.7,1.6c-0.1,0.2-0.2,0.4-0.3,0.5c-0.1,0.2-0.3,0.5-0.4,0.7c-0.4,0.6-0.9,1.1-1.5,1.4
					c-0.7,0.3-1.4,0.7-2.1,0.9c-0.4,0.2-0.8,0.2-1.3,0.3c-0.6,0.1-1.1,0.1-1.7,0.1c-1,0-1.9-0.2-2.8-0.7c-0.3-0.2-0.7-0.5-1-0.6
					c-0.5-0.2-0.9-0.6-1.3-1c-0.4-0.4-0.7-0.9-1-1.4c-0.3-0.5-0.6-1-0.9-1.4c-0.2-0.4-0.3-0.9-0.3-1.4c0-0.6-0.1-1.1-0.1-1.7
					c0-0.9,0.1-1.8,0.5-2.7c0.1-0.3,0.3-0.5,0.4-0.8c0.3-0.4,0.5-0.8,0.8-1.2c0.1-0.2,0.3-0.4,0.6-0.3c-0.5,0.7-1.2,1.3-1.6,2.2
					c0,0,0,0,0.1,0c0.1-0.1,0.1-0.2,0.2-0.3c0.2-0.2,0.4-0.5,0.6-0.7c0.6-0.6,1.2-1.2,1.9-1.7c0.5-0.4,1-0.7,1.6-0.9
					c0.4-0.2,0.9-0.4,1.3-0.5c0.4-0.1,0.7-0.2,1.1-0.2c0.5-0.1,1-0.1,1.5-0.1c0.4-0.1,0.9,0,1.3,0.1c0.6,0.1,1.2,0.3,1.9,0.4
					c0.2,0.1,0.4,0.1,0.7,0.2c0.1,0,0.1,0.1,0.2,0.1c0,0,0.1,0.1,0,0.2c0,0-0.1,0.1-0.2,0c-0.3-0.1-0.7-0.2-1.1-0.3
					c0,0,0.1,0.1,0.1,0.1c0.5,0,0.9,0.4,1.4,0.6c0,0,0.1,0,0.1,0c-0.1,0.3-0.2,0.4-0.5,0.2c-0.1,0.1-0.2,0.1-0.3,0
					c0-0.1-0.1-0.1-0.2-0.1c-0.3,0-0.5,0-0.8,0.1c-0.1,0.1-0.3,0.1-0.5,0.1c-0.3,0-0.6-0.1-0.9-0.1c-0.4,0-0.9,0-1.4,0
					c-0.8,0.1-1.6,0.2-2.4,0.5c-0.8,0.3-1.5,0.7-2.2,1.3c-0.5,0.4-0.7,0.9-0.9,1.4c-0.3,0.5-0.4,1.1-0.4,1.7
					c0.1,0.8,0.2,1.5,0.3,2.3c0,0.2,0,0.4,0,0.5c-0.4-0.7-0.4-1.5-0.6-2.2c0.1,1.1,0.3,2.2,0.9,3.2c0,0,0-0.1,0-0.1
					c0,0,0-0.1-0.1-0.1c0.3,0,0.3,0.2,0.4,0.4c0.2,0.4,0.4,0.7,0.6,1.1c0.1,0.2,0.2,0.3,0.2,0.5c0.1,0.3,0.2,0.5,0.5,0.7
					c0.6,0.3,1.2,0.6,1.9,0.7c0.9,0.2,1.8,0.2,2.7,0c0.9-0.2,1.7-0.5,2.4-1c0.6-0.4,1-0.9,1.3-1.6c0.1-0.4,0.4-0.8,0.5-1.3
					c0.1-0.4,0.2-0.9,0.3-1.3c0-0.2,0-0.5,0-0.7c0-0.6-0.3-1.1-0.7-1.6c-0.3-0.4-0.8-0.8-1.1-1.3c0,0,0-0.1-0.1-0.1
					c-0.4-0.3-0.7-0.5-1.1-0.8c-0.1-0.1-0.2-0.2-0.3-0.4c-0.1-0.2,0-0.2,0.1-0.2C431.5,66.2,431.7,66.2,432,66.2z"/>
			</g>
		</g>
	</g>
	<g>
		<rect fill="#30302F" width="117.6" height="27.3"/>
		
			<rect x="46" y="-44.9" transform="matrix(2.080957e-03 -1 1 2.080957e-03 45.2542 72.2129)" fill-rule="evenodd" clip-rule="evenodd" fill="#025FA3" width="25.7" height="116.6"/>
		<rect x="0.5" y="23.5" fill-rule="evenodd" clip-rule="evenodd" fill="#E92629" width="116.6" height="2.9"/>
		<g>
			<path fill="#FFFFFF" d="M64,6.7c0.1-0.2,0.2-0.4,0.2-0.6h1c0,0.5-0.2,0.9-0.5,1.1c0.2,0.2,0.5,0.4,0.8,0.6h-1.4
				c-0.1,0-0.1-0.1-0.2-0.1c-0.3,0.1-0.7,0.2-1,0.2c-0.9,0-1.7-0.2-1.7-0.8c0-0.1,0-0.1,0-0.2c0-0.4,0.4-0.7,0.9-0.9
				c-0.2-0.3-0.3-0.6-0.3-0.8c0,0,0-0.1,0-0.2c0-0.5,0.5-0.9,1.2-0.9c0.7,0,1.1,0.4,1.1,0.9c0,0,0,0.1,0,0.2c0,0.5-0.4,0.8-0.7,1
				C63.5,6.3,63.8,6.5,64,6.7z M62.3,6.9c0,0.2,0.2,0.2,0.6,0.2c0.1,0,0.2,0,0.3,0C63,7,62.7,6.8,62.6,6.6
				C62.4,6.7,62.3,6.8,62.3,6.9z M63.2,5.3C63.2,5.2,63.2,5.2,63.2,5.3C63.2,5.1,63.1,5,63,5c-0.2,0-0.2,0.1-0.2,0.2
				c0,0,0,0.1,0,0.1c0,0.1,0.1,0.2,0.1,0.3C63.1,5.5,63.2,5.4,63.2,5.3z"/>
			<path fill="#FFFFFF" d="M71.5,7.9h-1.2c0,0-0.6-2.1-0.6-2.2c0,0.1-0.6,2.2-0.6,2.2h-1.2l-1.1-3.7H68c0,0,0.6,2.3,0.6,2.4
				c0-0.1,0.6-2.4,0.6-2.4h1.2c0,0,0.6,2.3,0.6,2.4c0-0.1,0.6-2.4,0.6-2.4h1.1L71.5,7.9z"/>
			<path fill="#FFFFFF" d="M76.5,6c0,1.3-0.6,1.9-2,1.9c-1.4,0-2-0.7-2-1.9c0-1.2,0.6-1.9,2-1.9C75.9,4.1,76.5,4.8,76.5,6z
				 M75.3,6.1c0-0.7-0.2-1-0.8-1c-0.6,0-0.8,0.3-0.8,1c0,0.8,0.3,1,0.8,1C75,7.1,75.3,6.9,75.3,6.1z"/>
			<path fill="#FFFFFF" d="M80.3,6.1c-0.1,0.2-0.3,0.3-0.5,0.4l0.9,1.5h-1.3l-0.7-1.2H78v1.2h-1.1V4.2h2.4c0.5,0,0.8,0.1,1,0.4
				c0.1,0.2,0.2,0.4,0.2,0.8C80.4,5.7,80.4,5.9,80.3,6.1z M79.3,5.2c-0.1-0.1-0.2-0.2-0.3-0.2h-1v0.8h1c0.1,0,0.3,0,0.3-0.1
				c0-0.1,0-0.2,0-0.2C79.3,5.4,79.3,5.3,79.3,5.2z"/>
			<path fill="#FFFFFF" d="M81,7.9V4.2h1.2V7h1.8v0.9H81z"/>
			<path fill="#FFFFFF" d="M86.4,7.9h-2.1V4.2h2c0.7,0,1.1,0.2,1.3,0.5C87.9,5,87.9,5.3,87.9,6c0,0.8-0.1,1.1-0.3,1.4
				C87.4,7.7,87.1,7.9,86.4,7.9z M86.8,6c0-0.3,0-0.6-0.1-0.7c-0.1-0.2-0.3-0.2-0.6-0.2h-0.7v2h0.7c0.3,0,0.4-0.1,0.6-0.2
				C86.8,6.7,86.8,6.3,86.8,6z"/>
			<path fill="#FFFFFF" d="M93.2,6.1c-0.1,0.2-0.3,0.3-0.5,0.4l0.9,1.5h-1.3l-0.7-1.2h-0.8v1.2h-1.1V4.2h2.3c0.5,0,0.8,0.1,1,0.4
				c0.1,0.2,0.2,0.4,0.2,0.8C93.3,5.7,93.3,5.9,93.2,6.1z M92.2,5.2c-0.1-0.1-0.2-0.2-0.3-0.2h-1v0.8h1c0.1,0,0.3,0,0.3-0.1
				c0-0.1,0-0.2,0-0.2C92.2,5.4,92.2,5.3,92.2,5.2z"/>
			<path fill="#FFFFFF" d="M93.9,7.9V4.2h3.2v0.9h-2v0.5h2v0.9h-2V7h2.1v0.9H93.9z"/>
			<path fill="#FFFFFF" d="M100.9,6.4c-0.2,0.2-0.6,0.4-1,0.4c-0.1,0-1.1,0-1.1,0v1.2h-1.1V4.2h2.3c0.4,0,0.8,0.1,1,0.3
				c0.2,0.2,0.3,0.5,0.3,1C101.1,5.9,101,6.2,100.9,6.4z M99.9,5.2c-0.1-0.1-0.2-0.2-0.4-0.2h-0.9v0.9c0,0,0.9,0,0.9,0
				c0.2,0,0.3-0.1,0.4-0.2c0-0.1,0-0.1,0-0.2C100,5.4,100,5.3,99.9,5.2z"/>
			<path fill="#FFFFFF" d="M105.3,6c0,1.3-0.6,1.9-2,1.9c-1.4,0-2-0.7-2-1.9c0-1.2,0.6-1.9,2-1.9C104.7,4.1,105.3,4.8,105.3,6z
				 M104.2,6.1c0-0.7-0.2-1-0.8-1c-0.6,0-0.8,0.3-0.8,1c0,0.8,0.3,1,0.8,1C103.9,7.1,104.2,6.9,104.2,6.1z"/>
			<path fill="#FFFFFF" d="M109.1,6.1c-0.1,0.2-0.3,0.3-0.5,0.4l0.9,1.5h-1.3l-0.7-1.2h-0.8v1.2h-1.1V4.2h2.4c0.5,0,0.8,0.1,1,0.4
				c0.1,0.2,0.2,0.4,0.2,0.8C109.3,5.7,109.2,5.9,109.1,6.1z M108.2,5.2c-0.1-0.1-0.2-0.2-0.3-0.2h-1v0.8h1c0.1,0,0.3,0,0.3-0.1
				c0-0.1,0-0.2,0-0.2C108.2,5.4,108.2,5.3,108.2,5.2z"/>
			<path fill="#FFFFFF" d="M111.9,5.1v2.8h-1.2V5.1h-1.2V4.2h3.5v0.9H111.9z"/>
		</g>
		<path fill="#FFFFFF" d="M0.2,0.2V27h117.1V0.2H0.2z M116.8,0.8v22.4h-6.3c2.3-0.6,3.3-1.9,3.3-3.9c0-2.6-1.5-3.8-4.8-4.3
			c-0.5-0.1-2.4-0.4-3.2-0.5c-2-0.3-2.4-0.5-2.4-1.1c0-0.7,0.7-1,2.9-1c1.9,0,2.6,0.3,2.9,0.7c0.1,0.2,0.2,0.6,0.2,0.8h3.9
			c0-0.3-0.1-1.1-0.3-1.7c-0.7-2-3.1-3-6.9-3c-4.5,0-6.7,1.6-6.7,4.1c0,2.6,1.5,4,4.5,4.4c0.8,0.1,2.5,0.4,3,0.5
			c2,0.3,2.9,0.5,2.9,1.3c0,0.8-0.7,1.2-3,1.2c-2.2,0-3.2-0.2-3.5-0.8c-0.1-0.3-0.1-0.5-0.1-0.7h-4c0,0.5,0,0.8,0.2,1.4
			c0.4,1.4,1.4,2.3,3.2,2.8h-7.6l5-13.7h-3.9l-3.2,10.3L89.8,9.5h-4.5l-3,10.3L78.9,9.5h-4.2l4.9,13.7h-8.3c0.8-0.2,1.5-0.5,2-0.9
			c1.4-0.9,2.2-2.1,2.5-3.5h-3.9c-0.1,0.3-0.4,0.8-1.2,1.1c-0.6,0.3-1.4,0.5-2.5,0.5c-1.5,0-2.6-0.4-3.2-1c-0.5-0.5-0.8-1-0.8-1.6
			h11.7c0.2-2.1-0.2-4.1-1.2-5.6c-1.2-1.8-3.4-2.9-6.6-2.9c-3,0-5.4,1.1-6.7,3.1c-0.8,1.1-1.2,2.5-1.2,4.1c0,1.7,0.4,3.1,1.1,4.2
			c0.8,1.3,2.2,2.2,3.8,2.6h-5.4V4.6h-3.9v12.1L48.5,4.6h-4.8v18.6H43v-3.7h-3c0.1-0.5,0.2-1,0.2-1.6c0-3.2-1.9-4.7-5.7-5.5
			C34.2,12.4,33,12.1,32,12c-3.1-0.6-4.2-1.2-4.2-2.5c0-1.1,0.6-1.8,3.7-1.8c2.4,0,3.4,0.5,3.9,1.6c0.1,0.3,0.3,0.7,0.3,0.9H40
			c0-0.5-0.2-1.2-0.4-1.8c-0.9-2.4-3.2-4-7.9-4c-5.5,0-8.1,2.1-8.1,5.3c0,3.1,2.3,4.8,5.9,5.5c0.8,0.2,2.2,0.4,2.8,0.5
			c3,0.6,3.8,1.1,3.8,2.7c0,1.2-1,2-3.8,2c-2.5,0-3.7-0.5-4.2-1.6c-0.1-0.3-0.3-0.9-0.3-1.2h-4.2c0,0.4,0.1,1.3,0.3,1.9
			c0.5,1.7,1.7,3,4.4,3.7h-4.5v-3.7h-2.9c0.2-0.6,0.3-1.2,0.3-1.9c0-0.4,0-13.1,0-13.1h-4.1c0,0,0,12.2,0,12.5c0,1.9-1.7,3.1-4,3.1
			c-2.7,0-4.2-1.2-4.2-3.1c0-0.4,0-12.5,0-12.5H4.6c0,0,0,12.4,0,12.8c0,3.2,1.9,5,4.7,5.8H0.8V0.8H116.8z M116.8,23.9v2.4H0.8v-2.4
			H116.8z M16.1,23.2c1.6-0.4,3-1.2,3.8-2.3v2.3H16.1z M35.8,23.2c1.6-0.4,2.8-1.2,3.6-2.2v2.2H35.8z M47.7,23.2V10.7l7.5,12.5H47.7
			z M84.5,23.2c0.4-1.1,2.7-7.8,2.7-8.3c0-0.2,0.2-1,0.2-1s0.2,0.8,0.2,1c0,0.4,2.3,7.2,2.7,8.2H84.5z M64.2,15.1
			c0-0.4,0.4-1.2,0.9-1.7c0.7-0.6,1.7-1,3.2-1c1.5,0,2.5,0.5,3,1.1c0.5,0.5,0.7,1.2,0.7,1.6H64.2z"/>
	</g>
	<g>
		<path fill="#454545" d="M2.2,67.8V47.4h14.2v2.7H5.2v6H16v2.8H5.2v6.2h11.3v2.7H2.2z"/>
		<path fill="#454545" d="M21.8,67.8h-3.3l7.4-10.4l-6.8-10h3.4l5.1,7.6l5.4-7.6h3.2l-7,9.9l7.1,10.5h-3.4l-5.5-8L21.8,67.8z"/>
		<path fill="#454545" d="M47,50.1v17.7h-3.1V50.1h-6.8v-2.7h16.6v2.7H47z"/>
		<path fill="#454545" d="M71.6,56.6c-0.6,1.1-1.6,1.8-2.7,1.9l4.8,9.3h-3.4L66,59.2h-6.3v8.7h-3V47.4h9.9c2.6,0,4.1,1,4.9,2.4
			c0.5,0.9,0.8,1.9,0.8,3.4C72.3,54.7,72,55.9,71.6,56.6z M69,51.5c-0.4-0.9-1.3-1.4-3-1.4h-6.3c0,0,0,6.4,0,6.5h6.8
			c1.1,0,2-0.4,2.4-1.1c0.2-0.4,0.3-1.3,0.3-2C69.2,52.7,69.1,51.8,69,51.5z"/>
		<path fill="#454545" d="M78,67.8h-3.1l7.8-20.5h3.7L94,67.8h-3.1L89,62.7h-9L78,67.8z M85.1,52l-0.5-1.8L84,52l-3.1,8H88L85.1,52z
			"/>
		<path fill="#454545" d="M117.7,67.8V59h-9.9v8.9h-3V47.4h3v8.8h9.9v-8.8h3v20.5H117.7z"/>
		<path fill="#454545" d="M125.8,67.8V47.4h14.2v2.7h-11.2v6h10.8v2.8h-10.8v6.2H140v2.7H125.8z"/>
		<path fill="#454545" d="M144.2,67.8V47.4h3v17.7h10.5v2.7H144.2z"/>
		<path fill="#454545" d="M175.9,58.4c-0.9,1.3-2.7,1.9-5.1,2c-0.4,0-6.6,0-6.6,0v7.4h-3V47.4h9.8c2.7,0,4,0.7,4.9,2
			c0.7,1.1,1.1,2.4,1.1,4.5C176.9,56.1,176.6,57.5,175.9,58.4z M173.4,51.5c-0.6-0.9-1.4-1.3-3.1-1.3h-6.2v7.6c0,0,5.5,0,6,0
			c1.9,0,2.7-0.5,3.2-1.3c0.3-0.5,0.4-1.3,0.4-2.5C173.9,52.8,173.7,51.9,173.4,51.5z"/>
		<path fill="#454545" d="M181.1,57.5v-3.8h3.2v3.8H181.1z M181.1,67.8v-3.8h3.2v3.8H181.1z"/>
		<path fill="#035FA7" d="M21.5,103.6c-1.2,3.3-4.2,5.3-9.9,5.3c-4.3,0-7.1-1.2-8.7-3.3c-1.5-1.9-2.2-5.1-2.2-8.8
			c0-3.4,0.7-6.5,2-8.2c1.6-2.5,4.5-3.8,9.1-3.8c6.3,0,9.1,2.5,9.9,5.9c0.3,1.2,0.4,3,0.4,3.9h-6.8c0-0.9-0.2-1.9-0.5-2.6
			c-0.5-1.1-1.4-1.6-3.2-1.6c-1.6,0-2.6,0.5-3.2,1.5c-0.6,1-0.8,2.9-0.8,4.9c0,2.5,0.3,4.3,0.9,5.2c0.7,1.1,1.8,1.4,3.1,1.4
			c1.7,0,2.6-0.6,3.1-1.4c0.4-0.9,0.6-1.8,0.6-2.7h6.8C22.2,100.3,22.1,102.3,21.5,103.6z"/>
		<path fill="#035FA7" d="M45.7,89.4c1,2,1.3,4.2,1.3,7.2c0,3.1-0.4,5.3-1.3,7.5c-1.3,3.1-4.5,4.9-9.7,4.9c-5.2,0-8.2-1.6-9.6-4.7
			c-0.9-1.9-1.3-4.6-1.3-7.5c0-2.8,0.4-5.2,1.3-7c1.4-2.9,4.3-5,9.7-5C41.2,84.7,44.2,86.5,45.7,89.4z M39.3,102.1
			c0.6-1,0.8-3.5,0.8-5.2c0-1.7-0.2-4.2-0.7-5.1c-0.6-0.9-1.4-1.6-3.4-1.6c-2,0-2.7,0.6-3.3,1.7c-0.5,0.8-0.7,3.3-0.7,5
			c0,1.8,0.2,4.4,0.9,5.3c0.6,0.8,1.3,1.4,3.2,1.4C37.9,103.5,38.8,102.9,39.3,102.1z"/>
		<path fill="#035FA7" d="M50.5,108.5V85.1h7v17.8h9.8v5.7H50.5z"/>
		<path fill="#035FA7" d="M70.4,108.5V85.1h7v17.8h9.8v5.7H70.4z"/>
		<path fill="#035FA7" d="M90.4,108.5V85.1H108v5.5H97.1v3.5h10.5v5.4H97.1v3.6h11v5.4H90.4z"/>
		<path fill="#035FA7" d="M127,108.5l-0.3-1.7c-1.3,1.3-3.3,2-6,2c-4,0-6.7-1.5-8.2-4.1c-1-1.8-1.5-4.8-1.5-7.8
			c0-2.8,0.4-5.6,1.5-7.7c1.3-2.4,4.1-4.5,9.4-4.5c5.7,0,8.5,2.2,9.6,5c0.4,0.9,0.6,2.5,0.6,3.7h-6.6c0-0.6-0.3-1.4-0.6-2.1
			c-0.5-0.7-1.5-1.2-2.7-1.2c-1.5,0-2.5,0.4-3.1,1.3c-0.7,1.1-0.9,3-0.9,5.5c0,2.4,0.3,4.3,0.8,5.2c0.5,1,1.6,1.7,3.5,1.7
			c2,0,3.4-1,3.5-2.5c0-0.1,0-1.7,0-1.7h-4.6v-5h11c0,0,0,6.3,0,7.7c0,2.8,0,6,0,6.2H127z"/>
		<path fill="#035FA7" d="M135.9,108.5V85.1h17.6v5.5h-10.9v3.5h10.5v5.4h-10.5v3.6h11v5.4H135.9z"/>
		<path fill="#035FA7" d="M171.8,108.5h-7l7.5-23.4h9l7,23.4h-7.1l-1.4-5.2h-6.7L171.8,108.5z M177.2,92.5c-0.1-0.5-0.4-2.5-0.4-2.5
			s-0.3,2-0.4,2.5c0,0.1-1.6,5.9-1.6,6h4C178.6,98.5,177.2,92.6,177.2,92.5z"/>
		<path fill="#035FA7" d="M202.9,108.5h-11.7V85.1h11.2c3.8,0,6.2,0.9,7.5,2.7c1.4,1.9,1.6,3.9,1.6,8.5c0,5.3-0.3,7.3-1.5,9.2
			C208.8,107.4,206.6,108.5,202.9,108.5z M205,96.3c0-1.5-0.1-4.1-0.6-4.7c-0.7-0.9-1.4-1.2-2.8-1.2H198v13h3.6
			c1.5,0,2.2-0.4,2.8-1.2C204.9,101.3,205,97.9,205,96.3z"/>
		<path fill="#035FA7" d="M234.6,108.5l0-12.9l-3.6,12.9h-5.8l-3.7-12.9l0,12.9h-6.4V85.1h9.1l3.8,13.4l4-13.4h8.8v23.4H234.6z"/>
		<path fill="#035FA7" d="M245.2,108.5V85.1h7v23.4H245.2z"/>
		<path fill="#035FA7" d="M266,108.9c-6.5,0-9.4-2.1-10.1-5.2c-0.1-0.6-0.2-1.9-0.2-2.5h6.9c0,0.3,0.1,1.2,0.3,1.5
			c0.4,0.8,1.4,1.2,3.3,1.2c2.2,0,3-0.6,3-1.8c0-1.3-0.9-1.8-3.6-2.6c-0.8-0.2-2.5-0.7-3.1-0.9c-4.3-1.2-6.7-2.7-6.7-6.9
			c0-4,3.6-6.8,10-6.8c5.9,0,8.7,2.2,9.6,5.3c0.2,0.8,0.4,2,0.4,2.4h-6.9c0-0.2-0.1-0.9-0.2-1.3c-0.3-0.8-1.2-1.3-3-1.3
			c-2.3,0-2.9,0.6-2.9,1.5c0,1.4,1.5,2,4.4,2.7c0.8,0.2,2.2,0.7,3,0.9c4,1,6,2.9,6,6.9C276,106.2,272.6,108.9,266,108.9z"/>
		<path fill="#035FA7" d="M289,108.9c-6.5,0-9.4-2.1-10.1-5.2c-0.1-0.6-0.2-1.9-0.2-2.5h6.9c0,0.3,0.1,1.2,0.3,1.5
			c0.4,0.8,1.4,1.2,3.3,1.2c2.2,0,3-0.6,3-1.8c0-1.3-0.9-1.8-3.6-2.6c-0.8-0.2-2.5-0.7-3.1-0.9c-4.3-1.2-6.7-2.7-6.7-6.9
			c0-4,3.6-6.8,10-6.8c5.9,0,8.7,2.2,9.6,5.3c0.2,0.8,0.4,2,0.4,2.4h-6.9c0-0.2-0.1-0.9-0.2-1.3c-0.3-0.8-1.2-1.3-3-1.3
			c-2.3,0-2.9,0.6-2.9,1.5c0,1.4,1.5,2,4.4,2.7c0.8,0.2,2.2,0.7,3,0.9c4,1,6,2.9,6,6.9C299.1,106.2,295.6,108.9,289,108.9z"/>
		<path fill="#035FA7" d="M302.6,108.5V85.1h7v23.4H302.6z"/>
		<path fill="#035FA7" d="M333.9,89.4c1,2,1.3,4.2,1.3,7.2c0,3.1-0.4,5.3-1.3,7.5c-1.3,3.1-4.5,4.9-9.7,4.9c-5.2,0-8.2-1.6-9.6-4.7
			c-0.9-1.9-1.3-4.6-1.3-7.5c0-2.8,0.4-5.2,1.3-7c1.4-2.9,4.3-5,9.7-5C329.4,84.7,332.5,86.5,333.9,89.4z M327.5,102.1
			c0.6-1,0.8-3.5,0.8-5.2c0-1.7-0.2-4.2-0.7-5.1c-0.6-0.9-1.4-1.6-3.4-1.6c-2,0-2.7,0.6-3.3,1.7c-0.5,0.8-0.7,3.3-0.7,5
			c0,1.8,0.2,4.4,0.9,5.3c0.6,0.8,1.3,1.4,3.2,1.4C326.1,103.5,327,102.9,327.5,102.1z"/>
		<path fill="#035FA7" d="M351.6,108.5l-6.5-11.7v11.7h-6.5V85.1h6.9l6.2,11.5V85.1h6.5v23.4H351.6z"/>
		<path fill="#035FA7" d="M372,108.9c-6.5,0-9.4-2.1-10.1-5.2c-0.1-0.6-0.2-1.9-0.2-2.5h6.9c0,0.3,0.1,1.2,0.3,1.5
			c0.4,0.8,1.4,1.2,3.3,1.2c2.2,0,3-0.6,3-1.8c0-1.3-0.9-1.8-3.6-2.6c-0.8-0.2-2.5-0.7-3.1-0.9c-4.3-1.2-6.7-2.7-6.7-6.9
			c0-4,3.6-6.8,10-6.8c5.9,0,8.7,2.2,9.6,5.3c0.2,0.8,0.4,2,0.4,2.4h-6.9c0-0.2-0.1-0.9-0.2-1.3c-0.3-0.8-1.2-1.3-3-1.3
			c-2.3,0-2.9,0.6-2.9,1.5c0,1.4,1.5,2,4.4,2.7c0.8,0.2,2.2,0.7,3,0.9c4,1,6,2.9,6,6.9C382.1,106.2,378.6,108.9,372,108.9z"/>
	</g>
</g>
</svg>
