<svg id="Layer_1" data-name="Layer 1" xmlns="http://www.w3.org/2000/svg" xmlns:xlink="http://www.w3.org/1999/xlink" viewBox="0 0 537.1 223.33"><defs><style>.cls-1{fill:url(#linear-gradient);}.cls-2{fill:#d3e6f3;}.cls-3{fill:url(#linear-gradient-2);}.cls-4{fill:#193257;}.cls-5{fill:#d8e9f4;}.cls-6{fill:#2a4a79;}.cls-7{fill:url(#linear-gradient-3);}.cls-8{fill:url(#linear-gradient-4);}.cls-9{fill:url(#linear-gradient-5);}.cls-10{fill:url(#linear-gradient-6);}.cls-11{fill:url(#linear-gradient-7);}.cls-12{fill:url(#linear-gradient-8);}.cls-13{fill:url(#linear-gradient-9);}.cls-14{fill:url(#linear-gradient-10);}.cls-15{fill:url(#linear-gradient-11);}.cls-16{fill:url(#linear-gradient-12);}.cls-17{fill:url(#linear-gradient-13);}.cls-18{fill:url(#linear-gradient-14);}.cls-19{fill:url(#linear-gradient-15);}.cls-20{fill:url(#linear-gradient-16);}.cls-21{fill:url(#linear-gradient-17);}.cls-22{fill:url(#linear-gradient-18);}.cls-23{fill:url(#linear-gradient-19);}.cls-24{fill:url(#linear-gradient-20);}.cls-25{fill:url(#linear-gradient-21);}.cls-26{fill:url(#linear-gradient-22);}.cls-27{fill:url(#linear-gradient-23);}.cls-28{fill:url(#linear-gradient-24);}.cls-29{fill:url(#linear-gradient-25);}.cls-30{fill:url(#linear-gradient-26);}.cls-31{fill:url(#linear-gradient-27);}.cls-32{fill:url(#linear-gradient-28);}.cls-33{fill:url(#linear-gradient-29);}.cls-34{fill:url(#linear-gradient-30);}.cls-35{fill:url(#linear-gradient-31);}.cls-36{fill:url(#linear-gradient-32);}.cls-37{fill:url(#linear-gradient-33);}.cls-38{fill:url(#linear-gradient-34);}.cls-39{fill:url(#linear-gradient-35);}.cls-40{fill:url(#linear-gradient-36);}.cls-41{fill:url(#linear-gradient-37);}.cls-42{fill:url(#linear-gradient-38);}.cls-43{fill:url(#linear-gradient-39);}.cls-44{fill:url(#linear-gradient-40);}.cls-45{fill:url(#linear-gradient-41);}.cls-46{fill:url(#linear-gradient-42);}.cls-47{fill:url(#linear-gradient-43);}.cls-48{fill:url(#linear-gradient-44);}.cls-49{fill:url(#linear-gradient-45);}.cls-50{fill:#303030;}.cls-51{fill:#065fa4;}.cls-52{fill:#ea272a;}.cls-53{fill:#fff;}.cls-54{fill:none;stroke-miterlimit:10;stroke:url(#linear-gradient-46);}.cls-55{fill:url(#linear-gradient-47);}.cls-56{fill:url(#linear-gradient-48);}.cls-57{fill:url(#linear-gradient-49);}.cls-58{fill:url(#linear-gradient-50);}.cls-59{fill:url(#linear-gradient-51);}.cls-60{fill:url(#linear-gradient-52);}</style><linearGradient id="linear-gradient" x1="18.32" y1="186.69" x2="18.32" y2="213.24" gradientUnits="userSpaceOnUse"><stop offset="0" stop-color="#d1e4f5"/><stop offset="0.93" stop-color="#b9d0e3"/></linearGradient><linearGradient id="linear-gradient-2" x1="54" y1="150.98" x2="54" y2="177.54" gradientUnits="userSpaceOnUse"><stop offset="0" stop-color="#214175"/><stop offset="1" stop-color="#1d3861"/></linearGradient><linearGradient id="linear-gradient-3" x1="18.32" y1="150.98" x2="18.32" y2="177.54" xlink:href="#linear-gradient"/><linearGradient id="linear-gradient-4" x1="54" y1="186.69" x2="54" y2="213.24" xlink:href="#linear-gradient-2"/><linearGradient id="linear-gradient-5" x1="54" y1="115.29" x2="54" y2="141.84" xlink:href="#linear-gradient-2"/><linearGradient id="linear-gradient-6" x1="54" y1="79.58" x2="54" y2="106.14" xlink:href="#linear-gradient-2"/><linearGradient id="linear-gradient-7" x1="54" y1="43.9" x2="54" y2="70.45" xlink:href="#linear-gradient-2"/><linearGradient id="linear-gradient-8" x1="89.74" y1="186.69" x2="89.74" y2="213.24" xlink:href="#linear-gradient"/><linearGradient id="linear-gradient-9" x1="89.74" y1="150.98" x2="89.74" y2="177.54" xlink:href="#linear-gradient"/><linearGradient id="linear-gradient-10" x1="89.74" y1="115.29" x2="89.74" y2="141.84" xlink:href="#linear-gradient-2"/><linearGradient id="linear-gradient-11" x1="89.74" y1="79.58" x2="89.74" y2="106.14" xlink:href="#linear-gradient"/><linearGradient id="linear-gradient-12" x1="125.41" y1="186.69" x2="125.41" y2="213.24" xlink:href="#linear-gradient"/><linearGradient id="linear-gradient-13" x1="125.41" y1="150.98" x2="125.41" y2="177.54" xlink:href="#linear-gradient"/><linearGradient id="linear-gradient-14" x1="125.41" y1="115.29" x2="125.41" y2="141.84" xlink:href="#linear-gradient-2"/><linearGradient id="linear-gradient-15" x1="161.13" y1="186.69" x2="161.13" y2="213.24" xlink:href="#linear-gradient-2"/><linearGradient id="linear-gradient-16" x1="161.13" y1="150.98" x2="161.13" y2="177.54" xlink:href="#linear-gradient-2"/><linearGradient id="linear-gradient-17" x1="161.13" y1="115.29" x2="161.13" y2="141.84" xlink:href="#linear-gradient-2"/><linearGradient id="linear-gradient-18" x1="161.13" y1="79.58" x2="161.13" y2="106.14" xlink:href="#linear-gradient-2"/><linearGradient id="linear-gradient-19" x1="161.13" y1="43.9" x2="161.13" y2="70.45" xlink:href="#linear-gradient-2"/><linearGradient id="linear-gradient-20" x1="196.84" y1="186.69" x2="196.84" y2="213.24" xlink:href="#linear-gradient"/><linearGradient id="linear-gradient-21" x1="196.84" y1="150.98" x2="196.84" y2="177.54" xlink:href="#linear-gradient"/><linearGradient id="linear-gradient-22" x1="196.84" y1="115.29" x2="196.84" y2="141.84" xlink:href="#linear-gradient"/><linearGradient id="linear-gradient-23" x1="196.84" y1="79.58" x2="196.84" y2="106.14" gradientUnits="userSpaceOnUse"><stop offset="0" stop-color="#d1e4f5"/><stop offset="1" stop-color="#b9d0e3"/></linearGradient><linearGradient id="linear-gradient-24" x1="196.84" y1="43.9" x2="196.84" y2="70.45" xlink:href="#linear-gradient"/><linearGradient id="linear-gradient-25" x1="196.84" y1="8.17" x2="196.84" y2="34.72" xlink:href="#linear-gradient"/><linearGradient id="linear-gradient-26" x1="247.92" y1="64.79" x2="247.92" y2="93.69" xlink:href="#linear-gradient-2"/><linearGradient id="linear-gradient-27" x1="275.28" y1="64.42" x2="275.28" y2="94.05" xlink:href="#linear-gradient-2"/><linearGradient id="linear-gradient-28" x1="302.63" y1="64.46" x2="302.63" y2="94.05" xlink:href="#linear-gradient-2"/><linearGradient id="linear-gradient-29" x1="329.75" y1="64.79" x2="329.75" y2="93.69" xlink:href="#linear-gradient-2"/><linearGradient id="linear-gradient-30" x1="346.95" y1="64.79" x2="346.95" y2="93.69" xlink:href="#linear-gradient-2"/><linearGradient id="linear-gradient-31" x1="364.45" y1="64.79" x2="364.45" y2="93.69" xlink:href="#linear-gradient-2"/><linearGradient id="linear-gradient-32" x1="386.73" y1="64.79" x2="386.73" y2="93.69" xlink:href="#linear-gradient-2"/><linearGradient id="linear-gradient-33" x1="412.74" y1="64.79" x2="412.74" y2="93.69" xlink:href="#linear-gradient-2"/><linearGradient id="linear-gradient-34" x1="446.85" y1="64.79" x2="446.85" y2="93.69" xlink:href="#linear-gradient-2"/><linearGradient id="linear-gradient-35" x1="472.04" y1="64.79" x2="472.04" y2="93.69" xlink:href="#linear-gradient-2"/><linearGradient id="linear-gradient-36" x1="492.67" y1="64.79" x2="492.67" y2="93.69" xlink:href="#linear-gradient-2"/><linearGradient id="linear-gradient-37" x1="513.45" y1="64.79" x2="513.45" y2="93.69" xlink:href="#linear-gradient-2"/><linearGradient id="linear-gradient-38" x1="241.77" y1="108.35" x2="241.77" y2="154.17" xlink:href="#linear-gradient-2"/><linearGradient id="linear-gradient-39" x1="273.9" y1="108.35" x2="273.9" y2="154.17" xlink:href="#linear-gradient-2"/><linearGradient id="linear-gradient-40" x1="318.3" y1="107.77" x2="318.3" y2="154.81" xlink:href="#linear-gradient-2"/><linearGradient id="linear-gradient-41" x1="349.07" y1="108.35" x2="349.07" y2="154.17" xlink:href="#linear-gradient-2"/><linearGradient id="linear-gradient-42" x1="380.13" y1="107.65" x2="380.13" y2="154.81" xlink:href="#linear-gradient-2"/><linearGradient id="linear-gradient-43" x1="426.48" y1="108.35" x2="426.48" y2="154.17" xlink:href="#linear-gradient-2"/><linearGradient id="linear-gradient-44" x1="468.94" y1="108.35" x2="468.94" y2="154.17" xlink:href="#linear-gradient-2"/><linearGradient id="linear-gradient-45" x1="510" y1="107.77" x2="510" y2="154.81" xlink:href="#linear-gradient-2"/><linearGradient id="linear-gradient-46" x1="229.66" y1="170.46" x2="533.07" y2="170.46" xlink:href="#linear-gradient-2"/><linearGradient id="linear-gradient-47" x1="293.06" y1="197.08" x2="324.2" y2="197.08" xlink:href="#linear-gradient-2"/><linearGradient id="linear-gradient-48" x1="328.78" y1="197.08" x2="355.9" y2="197.08" xlink:href="#linear-gradient-2"/><linearGradient id="linear-gradient-49" x1="361.58" y1="197.27" x2="387.93" y2="197.27" xlink:href="#linear-gradient-2"/><linearGradient id="linear-gradient-50" x1="394.8" y1="197.08" x2="416.96" y2="197.08" xlink:href="#linear-gradient-2"/><linearGradient id="linear-gradient-51" x1="412.64" y1="197.08" x2="439.79" y2="197.08" xlink:href="#linear-gradient-2"/><linearGradient id="linear-gradient-52" x1="443.82" y1="197.1" x2="471.28" y2="197.1" xlink:href="#linear-gradient-2"/></defs><title>Artboard 1</title><rect class="cls-1" x="5.04" y="186.69" width="26.55" height="26.56"/><path class="cls-2" d="M30.59,187.69v24.56H6V187.69H30.59m2-2H4v28.56H32.59V185.69Z"/><rect class="cls-3" x="40.71" y="150.98" width="26.58" height="26.56"/><path class="cls-4" d="M66.29,152v24.56H41.71V152H66.29m2-2H39.71v28.56H68.29V150Z"/><polygon class="cls-5" points="32.59 185.69 4.04 214.24 32.59 214.24 32.59 185.69 32.59 185.69"/><polygon class="cls-6" points="68.29 149.98 39.71 178.54 68.29 178.54 68.29 149.98 68.29 149.98"/><rect class="cls-7" x="5.04" y="150.98" width="26.55" height="26.56"/><path class="cls-2" d="M30.59,152v24.56H6V152H30.59m2-2H4v28.56H32.59V150Z"/><rect class="cls-8" x="40.71" y="186.69" width="26.58" height="26.56"/><path class="cls-4" d="M66.29,187.69v24.56H41.71V187.69H66.29m2-2H39.71v28.56H68.29V185.69Z"/><rect class="cls-9" x="40.71" y="115.29" width="26.58" height="26.55"/><path class="cls-4" d="M66.29,116.29v24.55H41.71V116.29H66.29m2-2H39.71v28.55H68.29V114.29Z"/><rect class="cls-10" x="40.71" y="79.58" width="26.58" height="26.56"/><path class="cls-4" d="M66.29,80.58v24.56H41.71V80.58H66.29m2-2H39.71v28.56H68.29V78.58Z"/><rect class="cls-11" x="40.71" y="43.9" width="26.58" height="26.55"/><path class="cls-4" d="M66.29,44.9V69.45H41.71V44.9H66.29m2-2H39.71V71.45H68.29V42.9Z"/><rect class="cls-12" x="76.47" y="186.69" width="26.55" height="26.56"/><path class="cls-2" d="M102,187.69v24.56H77.47V187.69H102m2-2H75.47v28.56H104V185.69Z"/><rect class="cls-13" x="76.47" y="150.98" width="26.55" height="26.56"/><path class="cls-2" d="M102,152v24.56H77.47V152H102m2-2H75.47v28.56H104V150Z"/><rect class="cls-14" x="76.47" y="115.29" width="26.55" height="26.55"/><path class="cls-4" d="M102,116.29v24.55H77.47V116.29H102m2-2H75.47v28.55H104V114.29Z"/><rect class="cls-15" x="76.47" y="79.58" width="26.55" height="26.56"/><path class="cls-2" d="M102,80.58v24.56H77.47V80.58H102m2-2H75.47v28.56H104V78.58Z"/><rect class="cls-16" x="112.11" y="186.69" width="26.61" height="26.56"/><path class="cls-2" d="M137.72,187.69v24.56H113.11V187.69h24.61m2-2H111.11v28.56h28.61V185.69Z"/><rect class="cls-17" x="112.11" y="150.98" width="26.61" height="26.56"/><path class="cls-2" d="M137.72,152v24.56H113.11V152h24.61m2-2H111.11v28.56h28.61V150Z"/><rect class="cls-18" x="112.11" y="115.29" width="26.61" height="26.55"/><path class="cls-4" d="M137.72,116.29v24.55H113.11V116.29h24.61m2-2H111.11v28.55h28.61V114.29Z"/><rect class="cls-19" x="147.86" y="186.69" width="26.53" height="26.56"/><path class="cls-4" d="M173.39,187.69v24.56H148.86V187.69h24.53m2-2H146.86v28.56h28.53V185.69Z"/><rect class="cls-20" x="147.86" y="150.98" width="26.53" height="26.56"/><path class="cls-4" d="M173.39,152v24.56H148.86V152h24.53m2-2H146.86v28.56h28.53V150Z"/><rect class="cls-21" x="147.86" y="115.29" width="26.53" height="26.55"/><path class="cls-4" d="M173.39,116.29v24.55H148.86V116.29h24.53m2-2H146.86v28.55h28.53V114.29Z"/><rect class="cls-22" x="147.86" y="79.58" width="26.53" height="26.56"/><path class="cls-4" d="M173.39,80.58v24.56H148.86V80.58h24.53m2-2H146.86v28.56h28.53V78.58Z"/><rect class="cls-23" x="147.86" y="43.9" width="26.53" height="26.55"/><path class="cls-4" d="M173.39,44.9V69.45H148.86V44.9h24.53m2-2H146.86V71.45h28.53V42.9Z"/><rect class="cls-24" x="183.56" y="186.69" width="26.55" height="26.56"/><path class="cls-2" d="M209.11,187.69v24.56H184.56V187.69h24.55m2-2H182.56v28.56h28.55V185.69Z"/><rect class="cls-25" x="183.56" y="150.98" width="26.55" height="26.56"/><path class="cls-2" d="M209.11,152v24.56H184.56V152h24.55m2-2H182.56v28.56h28.55V150Z"/><rect class="cls-26" x="183.56" y="115.29" width="26.55" height="26.55"/><path class="cls-2" d="M209.11,116.29v24.55H184.56V116.29h24.55m2-2H182.56v28.55h28.55V114.29Z"/><rect class="cls-27" x="183.56" y="79.58" width="26.55" height="26.56"/><path class="cls-2" d="M209.11,80.58v24.56H184.56V80.58h24.55m2-2H182.56v28.56h28.55V78.58Z"/><rect class="cls-28" x="183.56" y="43.9" width="26.55" height="26.55"/><path class="cls-2" d="M209.11,44.9V69.45H184.56V44.9h24.55m2-2H182.56V71.45h28.55V42.9Z"/><rect class="cls-29" x="183.56" y="8.17" width="26.55" height="26.55"/><path class="cls-2" d="M209.11,9.17V33.72H184.56V9.17h24.55m2-2H182.56V35.72h28.55V7.17Z"/><polygon class="cls-6" points="104.02 114.28 75.47 142.84 104.02 142.84 104.02 114.28 104.02 114.28"/><polygon class="cls-6" points="175.39 42.89 146.86 71.44 175.39 71.44 175.39 42.89 175.39 42.89"/><polygon class="cls-5" points="211.12 7.17 182.56 35.73 211.12 35.73 211.12 7.17 211.12 7.17"/><path class="cls-30" d="M255.49,93.69V80.52H240.38V93.69h-2.93V64.79h2.93V77.7h15.11V64.79h2.89v28.9Z"/><path class="cls-31" d="M284.5,68c2,2.19,3,5.89,3,11.12,0,5.49-1.1,9.11-3.26,11.52-1.87,2.3-4.9,3.4-9,3.4s-7-1.13-8.85-3.44c-2.23-2.41-3.33-6.11-3.33-11.45,0-5,.91-8.78,3.07-11,1.94-2.34,4.9-3.69,9.15-3.69S282.53,65.63,284.5,68Zm-2.78,21.07c1.94-1.94,2.82-5.34,2.82-9.88s-.88-7.9-2.52-9.55-3.51-2.45-6.73-2.45-5.12.88-6.66,2.45c-1.72,1.72-2.56,5.19-2.56,9.62s1,7.94,3.07,10c1.39,1.39,3.4,2.12,6.18,2.12A8.65,8.65,0,0,0,281.72,89.08Z"/><path class="cls-32" d="M303.19,94.05c-7.87,0-11.52-3.29-11.74-8.71h3c.22,4.28,3.44,6.07,8.67,6.07,5.63,0,7.61-2.2,7.61-5.19,0-9.55-18.95-2.34-18.95-14.3,0-4,2.93-7.46,10.35-7.46s10.46,3.07,11.23,8.27h-3c-.77-4-3.18-5.6-8.38-5.6s-7.17,2-7.17,4.61c0,9.36,19,1.9,19,14.12C313.8,90.61,310.55,94.05,303.19,94.05Z"/><path class="cls-33" d="M331.69,82.82c-.48,0-9.33,0-9.33,0V93.69h-2.93V64.79h12.4c5.3,0,8.23,2,8.23,9.07S336.74,82.71,331.69,82.82Zm0-15.29h-9.29V80.08h9.22c3.69,0,5.49-.91,5.49-6.18C337.07,68.41,335.09,67.53,331.65,67.53Z"/><path class="cls-34" d="M345.45,93.69V64.79h3v28.9Z"/><path class="cls-35" d="M365.93,67.53V93.69h-3V67.53h-9.66V64.79h22.28v2.74Z"/><path class="cls-36" d="M377.24,93.69h-3l11-28.9h3.59l10.5,28.9h-3l-2.78-7.61H380.05Zm10.54-23.41-.84-2.6-.91,2.6-5,13.17h11.49Z"/><path class="cls-37" d="M403.72,93.69V64.79h3V90.91h15.07v2.78Z"/><path class="cls-38" d="M447.69,93.69H435.91V64.79h11.45c3.8,0,6.26.8,7.9,2.6,1.83,2,2.52,5.38,2.52,11.45,0,6.37-.58,9.77-2.27,11.89S451.53,93.69,447.69,93.69Zm7.13-14.82c0-4.87-.48-8.08-1.9-9.47s-3-1.83-5.74-1.83H438.8V90.91h8.3c2.93,0,4.68-.51,6-2S454.79,84.07,454.82,78.87Z"/><path class="cls-39" d="M462.54,93.69h-3l11-28.9h3.58l10.5,28.9h-3l-2.78-7.61H465.36Zm10.54-23.41-.84-2.6-.91,2.6-5,13.17h11.49Z"/><path class="cls-40" d="M494.15,67.53V93.69h-3V67.53h-9.66V64.79h22.28v2.74Z"/><path class="cls-41" d="M504,93.69h-3l11-28.9h3.59L526,93.69h-3l-2.78-7.61H506.77Zm10.54-23.41-.84-2.6-.91,2.6-5,13.17h11.49Z"/><path class="cls-42" d="M237.5,154.17V108.35H246v45.82Z"/><path class="cls-43" d="M283.27,154.17l-19.9-33.53v33.53h-8V108.35h9.86l19.2,32.54V108.35h8v45.82Z"/><path class="cls-44" d="M319.11,154.81c-12.7,0-17.87-3.94-19.78-9.8a18.34,18.34,0,0,1-.7-4.64h8.59a10.18,10.18,0,0,0,.7,3.07c1.45,3.07,4.87,4.41,11.19,4.41,7.54,0,10.09-2.32,10.09-5.8,0-4.18-2.44-5.57-9.69-7.08-1.68-.35-4.41-.93-6.73-1.39-8.41-1.57-13.86-5.8-13.86-13.11s5.8-12.7,18.79-12.7c10.91,0,16.18,3.83,18.45,9.63a14.61,14.61,0,0,1,1,4.29h-8.64a7.08,7.08,0,0,0-.7-2.44c-1.39-3-4.23-4.47-10.32-4.47-7.77,0-9.8,2.15-9.8,5.16,0,3.65,3.19,5.16,10.27,6.61,2.15.41,4.76,1,6.44,1.39,8.7,1.8,13.57,5.57,13.57,13.22C338,149.24,331.87,154.81,319.11,154.81Z"/><path class="cls-45" d="M344.81,154.17V108.35h8.53v45.82Z"/><path class="cls-46" d="M393.71,154.17l-.41-4.58c-1.74,2.55-5.74,5.22-13.51,5.22-6.79,0-12.18-2.32-15.49-6.26-2.73-3.19-4.52-9.11-4.52-17.23,0-7,.81-12.18,4.29-16.71,2.9-3.83,8.18-7,16.71-7,8.88,0,14.33,3,17,7.48A17,17,0,0,1,400.2,124H392a10,10,0,0,0-2.44-6c-1.74-1.8-4.7-2.84-8.59-2.84-4.24,0-7.31,1-9.4,3.31s-3.25,6.44-3.25,13.11c0,6.84.64,10.32,3.13,13.17,2,2.32,5,3.36,10.15,3.36,6.44,0,10-3.42,11-7.31.12-.29.06-5.45.06-5.45h-14v-7h21.69v13.63c0,5.63.06,12.12.06,12.3Z"/><path class="cls-47" d="M437,154.17v-19H416v19h-8.35V108.35H416v19H437v-19h8.29v45.82Z"/><path class="cls-48" d="M473.17,115.72v38.46h-8.53V115.72h-15v-7.37h38.63v7.37Z"/><path class="cls-49" d="M510.81,154.81c-12.7,0-17.87-3.94-19.78-9.8a18.39,18.39,0,0,1-.7-4.64h8.58a10.17,10.17,0,0,0,.7,3.07c1.45,3.07,4.87,4.41,11.19,4.41,7.54,0,10.09-2.32,10.09-5.8,0-4.18-2.44-5.57-9.69-7.08-1.68-.35-4.41-.93-6.73-1.39-8.41-1.57-13.86-5.8-13.86-13.11s5.8-12.7,18.79-12.7c10.91,0,16.18,3.83,18.45,9.63a14.61,14.61,0,0,1,1,4.29h-8.64a7.1,7.1,0,0,0-.7-2.44c-1.39-3-4.23-4.47-10.32-4.47-7.77,0-9.8,2.15-9.8,5.16,0,3.65,3.19,5.16,10.27,6.61,2.15.41,4.76,1,6.44,1.39,8.7,1.8,13.57,5.57,13.57,13.22C529.67,149.24,523.58,154.81,510.81,154.81Z"/><rect class="cls-50" x="237.07" y="29.92" width="93.01" height="21.6"/><rect class="cls-51" x="273.42" y="-5.55" width="20.29" height="92.17" transform="translate(242.43 324.01) rotate(-89.88)"/><rect class="cls-52" x="237.48" y="48.48" width="92.16" height="2.28"/><path class="cls-53" d="M287.65,35.22a.77.77,0,0,0,.16-.44h.82a1.3,1.3,0,0,1-.4.91l.63.48h-1.12l-.14-.11a2.18,2.18,0,0,1-.81.14c-.7,0-1.33-.13-1.35-.66,0,0,0-.11,0-.15,0-.33.33-.54.67-.7a1.11,1.11,0,0,1-.24-.62v-.15c0-.36.37-.7,1-.7s.89.32.91.68c0,0,0,.11,0,.13a1.05,1.05,0,0,1-.59.81Zm-1.33.18c0,.14.13.2.44.2a1.12,1.12,0,0,0,.25,0c-.17-.14-.34-.28-.47-.4C286.41,35.25,286.32,35.33,286.32,35.41Zm.72-1.33V34a.17.17,0,0,0-.19-.18.19.19,0,0,0-.2.19.27.27,0,0,0,0,.08.5.5,0,0,0,.12.27C286.92,34.29,287,34.2,287,34.08Z"/><path class="cls-53" d="M293.58,36.17h-1s-.44-1.68-.45-1.78c0,.1-.45,1.78-.45,1.78h-1l-.84-2.92h1s.45,1.8.45,1.89c0-.09.44-1.89.44-1.89h.92s.45,1.8.45,1.89c0-.09.44-1.89.44-1.89h.87Z"/><path class="cls-53" d="M297.51,34.68c0,1-.49,1.53-1.57,1.53s-1.57-.52-1.57-1.52a1.36,1.36,0,0,1,1.57-1.5C297.06,33.2,297.51,33.71,297.51,34.68Zm-.91,0c0-.58-.16-.82-.66-.82s-.65.23-.65.82.22.82.65.82S296.61,35.35,296.61,34.7Z"/><path class="cls-53" d="M300.54,34.72a.57.57,0,0,1-.36.28l.69,1.17h-1l-.52-1h-.61v1h-.89V33.25h1.86a.93.93,0,0,1,.79.31,1,1,0,0,1,.17.62A1.08,1.08,0,0,1,300.54,34.72Zm-.78-.66c0-.09-.13-.12-.26-.12h-.76v.59h.78c.11,0,.21,0,.24-.1a.53.53,0,0,0,0-.19A.48.48,0,0,0,299.76,34.06Z"/><path class="cls-53" d="M301.11,36.17V33.25H302v2.2h1.41v.72Z"/><path class="cls-53" d="M305.37,36.17h-1.65V33.25h1.61a1.19,1.19,0,0,1,1,.38,1.55,1.55,0,0,1,.21,1,1.75,1.75,0,0,1-.2,1.09A1.09,1.09,0,0,1,305.37,36.17Zm.34-1.51a1.13,1.13,0,0,0-.1-.56.5.5,0,0,0-.44-.16h-.57v1.55h.57a.52.52,0,0,0,.45-.17A1.53,1.53,0,0,0,305.71,34.65Z"/><path class="cls-53" d="M310.73,34.72a.57.57,0,0,1-.36.28l.69,1.17h-1l-.52-1h-.61v1H308V33.25h1.86a.93.93,0,0,1,.79.31,1,1,0,0,1,.17.62A1.07,1.07,0,0,1,310.73,34.72Zm-.78-.66c0-.09-.13-.12-.26-.12h-.76v.59h.78c.11,0,.21,0,.24-.1a.53.53,0,0,0,0-.19A.48.48,0,0,0,309.95,34.06Z"/><path class="cls-53" d="M311.3,36.17V33.25h2.49v.69h-1.61v.43h1.55v.69h-1.55v.43h1.63v.68Z"/><path class="cls-53" d="M316.8,35a1.06,1.06,0,0,1-.81.3h-.91v.91h-.9V33.25H316a1,1,0,0,1,.77.24,1,1,0,0,1,.26.76A1,1,0,0,1,316.8,35Zm-.73-.9a.29.29,0,0,0-.28-.14h-.72v.67h.71a.3.3,0,0,0,.3-.14.41.41,0,0,0,0-.19A.42.42,0,0,0,316.07,34.06Z"/><path class="cls-53" d="M320.34,34.68c0,1-.49,1.53-1.57,1.53s-1.57-.52-1.57-1.52a1.36,1.36,0,0,1,1.57-1.5C319.88,33.2,320.34,33.71,320.34,34.68Zm-.91,0c0-.58-.16-.82-.66-.82s-.65.23-.65.82.23.82.65.82S319.43,35.35,319.43,34.7Z"/><path class="cls-53" d="M323.36,34.72A.57.57,0,0,1,323,35l.69,1.17h-1l-.52-1h-.61v1h-.89V33.25h1.86a.93.93,0,0,1,.79.31,1,1,0,0,1,.17.62A1.08,1.08,0,0,1,323.36,34.72Zm-.78-.66c0-.09-.13-.12-.26-.12h-.76v.59h.78c.11,0,.21,0,.24-.1a.53.53,0,0,0,0-.19A.48.48,0,0,0,322.58,34.06Z"/><path class="cls-53" d="M325.56,34v2.22h-.92V34h-.93v-.7h2.79V34Z"/><path class="cls-53" d="M237.26,30.09V51.3h92.61V30.09Zm92.17.43V48.26h-5c1.78-.48,2.61-1.52,2.61-3.1,0-2-1.15-3-3.78-3.42l-2.55-.38c-1.55-.24-1.89-.42-1.89-.9s.52-.8,2.27-.8c1.51,0,2.09.26,2.31.56a1.37,1.37,0,0,1,.14.6h3.08a5.41,5.41,0,0,0-.2-1.31c-.56-1.57-2.45-2.35-5.45-2.35-3.52,0-5.27,1.27-5.27,3.22s1.15,3.14,3.56,3.48l2.39.36c1.61.24,2.27.38,2.27,1s-.56,1-2.37,1-2.57-.14-2.77-.66a1.65,1.65,0,0,1-.1-.56h-3.16a4.47,4.47,0,0,0,.12,1.09,3.06,3.06,0,0,0,2.57,2.21h-6l3.91-10.82h-3.12l-2.57,8.13L308,37.44h-3.54l-2.41,8.13-2.63-8.13h-3.32L300,48.26h-6.59a5.71,5.71,0,0,0,1.61-.69,4.48,4.48,0,0,0,2-2.75H293.9a1.53,1.53,0,0,1-.91.86,5,5,0,0,1-2,.36,3.47,3.47,0,0,1-2.55-.82,1.86,1.86,0,0,1-.6-1.29h9.27a6.55,6.55,0,0,0-.94-4.42A5.93,5.93,0,0,0,291,37.19a6.21,6.21,0,0,0-5.33,2.43,5.58,5.58,0,0,0-1,3.24,6.13,6.13,0,0,0,.84,3.32,4.92,4.92,0,0,0,3,2.09h-4.28V33.55h-3.1v9.56l-5.71-9.56h-3.77V48.26h-.56v-2.9h-2.33a4.41,4.41,0,0,0,.18-1.26c0-2.53-1.54-3.75-4.49-4.32-.34-.06-1.31-.26-2.07-.41-2.42-.49-3.3-.92-3.3-2,0-.84.49-1.39,2.95-1.39,1.88,0,2.68.43,3.08,1.26a2.08,2.08,0,0,1,.21.73h3.34a4.57,4.57,0,0,0-.34-1.43c-.75-1.88-2.5-3.17-6.21-3.17-4.36,0-6.38,1.69-6.38,4.2s1.78,3.79,4.67,4.34l2.18.41c2.4.45,3,.88,3,2.1,0,1-.79,1.6-3,1.6-2,0-2.95-.38-3.36-1.24a2.62,2.62,0,0,1-.21-.94h-3.34a6.3,6.3,0,0,0,.21,1.52,4.25,4.25,0,0,0,3.46,2.9h-3.59v-2.9h-2.31a4.55,4.55,0,0,0,.23-1.47V33.55h-3.25v9.89c0,1.54-1.31,2.46-3.17,2.46-2.12,0-3.29-.92-3.29-2.48V33.55h-3.25V43.71c0,2.55,1.49,4,3.74,4.55h-6.74V30.52Zm0,18.28v1.94H237.69V48.81Zm-79.59-.54a5.29,5.29,0,0,0,3-1.8v1.8Zm15.53,0a5,5,0,0,0,2.84-1.76v1.76Zm9.39,0V38.34l5.9,9.92Zm29.12,0c.29-.86,2.11-6.19,2.13-6.54l.14-.77s.12.65.14.79c0,.33,1.85,5.66,2.15,6.52Zm-16.07-6.42a2.27,2.27,0,0,1,.68-1.31,3.7,3.7,0,0,1,2.51-.78,3.26,3.26,0,0,1,2.41.84,1.93,1.93,0,0,1,.54,1.25Z"/><line class="cls-54" x1="229.66" y1="170.46" x2="533.07" y2="170.46"/><path class="cls-55" d="M298.1,213.82h-5l12.84-33.47H312l12.2,33.47h-5.13L316,205.39H301.28Zm11.65-25.93-.89-2.88-.93,2.92-5,13.13H314.5Z"/><path class="cls-56" d="M342.72,213.82H328.78V180.35h13.56c4.79,0,8.69,1.14,10.63,3.43,2.12,2.41,2.92,6,2.92,12.79,0,7.33-.93,10.85-3,13.3S347.55,213.82,342.72,213.82Zm8.18-17.2c0-4.83-.64-8.22-2.08-9.66s-4.11-2.08-7.2-2.08h-8v24.45h7.92c3.22,0,5.85-.68,7.29-2.25S350.9,201.79,350.9,196.62Z"/><path class="cls-57" d="M374.8,214.2c-7.67,0-13.22-2.88-13.22-10.13V180.35h4.91v23.34c0,3.94,2.88,6.23,8.43,6.23,4.66,0,8.09-2.25,8.09-6.19V180.35h4.91v24C387.93,210.94,382.51,214.2,374.8,214.2Z"/><path class="cls-58" d="M394.8,213.82V180.35h5v29H417v4.45Z"/><path class="cls-59" d="M428.69,184.8v29h-5v-29H412.64v-4.45h27.16v4.45Z"/><path class="cls-60" d="M458.18,214.24c-8.47,0-12.37-2.63-13.81-6.95a12.81,12.81,0,0,1-.55-3.39h5a8.54,8.54,0,0,0,.51,2.37c1.19,2.67,4,3.77,8.77,3.77,5.93,0,8-2.08,8-5,0-3.43-2.2-4.79-7.41-5.85-1.19-.25-3.18-.64-5-1-6.61-1.27-9.7-3.94-9.7-9.28,0-5.08,3.86-9,13-9,7.8,0,11.52,2.63,13.13,6.86a9.64,9.64,0,0,1,.47,3h-5a5.52,5.52,0,0,0-.3-1.91c-1.19-2.58-3.22-3.73-8.43-3.73-5.85,0-7.75,1.86-7.75,4.45,0,2.92,1.78,4.28,7.54,5.38l4.79.93c6.14,1.1,9.74,3.86,9.74,9.28C471.28,210.43,467.12,214.24,458.18,214.24Z"/></svg>