<svg id="Layer_1" data-name="Layer 1" xmlns="http://www.w3.org/2000/svg" xmlns:xlink="http://www.w3.org/1999/xlink" viewBox="0 0 758.44 116.88"><defs><style>.cls-1{fill:url(#linear-gradient);}.cls-2{fill:url(#linear-gradient-2);}.cls-3{fill:url(#linear-gradient-3);}.cls-4{fill:url(#linear-gradient-4);}.cls-5{fill:url(#linear-gradient-5);}.cls-6{fill:url(#linear-gradient-6);}.cls-7{fill:url(#linear-gradient-7);}.cls-8{fill:url(#linear-gradient-8);}.cls-9{fill:url(#linear-gradient-9);}.cls-10{fill:url(#linear-gradient-10);}.cls-11{fill:url(#linear-gradient-11);}.cls-12{fill:url(#linear-gradient-12);}.cls-13{fill:url(#linear-gradient-13);}.cls-14{fill:url(#linear-gradient-14);}.cls-15{fill:url(#linear-gradient-15);}.cls-16{fill:url(#linear-gradient-16);}.cls-17{fill:url(#linear-gradient-17);}.cls-18{fill:url(#linear-gradient-18);}.cls-19{fill:url(#linear-gradient-19);}.cls-20{fill:url(#linear-gradient-20);}.cls-21{fill:url(#linear-gradient-21);}.cls-22{fill:#d3e6f3;}.cls-23{fill:url(#linear-gradient-22);}.cls-24{fill:#193257;}.cls-25{fill:#d8e9f4;}.cls-26{fill:#2a4a79;}.cls-27{fill:url(#linear-gradient-23);}.cls-28{fill:url(#linear-gradient-24);}.cls-29{fill:url(#linear-gradient-25);}.cls-30{fill:url(#linear-gradient-26);}.cls-31{fill:url(#linear-gradient-27);}.cls-32{fill:url(#linear-gradient-28);}.cls-33{fill:url(#linear-gradient-29);}.cls-34{fill:url(#linear-gradient-30);}.cls-35{fill:url(#linear-gradient-31);}.cls-36{fill:url(#linear-gradient-32);}.cls-37{fill:url(#linear-gradient-33);}.cls-38{fill:url(#linear-gradient-34);}.cls-39{fill:url(#linear-gradient-35);}.cls-40{fill:url(#linear-gradient-36);}.cls-41{fill:url(#linear-gradient-37);}.cls-42{fill:url(#linear-gradient-38);}.cls-43{fill:url(#linear-gradient-39);}.cls-44{fill:url(#linear-gradient-40);}.cls-45{fill:url(#linear-gradient-41);}.cls-46{fill:url(#linear-gradient-42);}.cls-47{fill:url(#linear-gradient-43);}.cls-48{fill:url(#linear-gradient-44);}.cls-49{fill:url(#linear-gradient-45);}.cls-50{fill:#303030;}.cls-51{fill:#065fa4;}.cls-52{fill:#ea272a;}.cls-53{fill:#fff;}</style><linearGradient id="linear-gradient" x1="141.41" y1="60.14" x2="141.41" y2="97.3" gradientUnits="userSpaceOnUse"><stop offset="0" stop-color="#214175"/><stop offset="1" stop-color="#1d3861"/></linearGradient><linearGradient id="linear-gradient-2" x1="176.59" y1="59.67" x2="176.59" y2="97.77" xlink:href="#linear-gradient"/><linearGradient id="linear-gradient-3" x1="211.74" y1="59.72" x2="211.74" y2="97.77" xlink:href="#linear-gradient"/><linearGradient id="linear-gradient-4" x1="246.61" y1="60.14" x2="246.61" y2="97.3" xlink:href="#linear-gradient"/><linearGradient id="linear-gradient-5" x1="268.71" y1="60.14" x2="268.71" y2="97.3" xlink:href="#linear-gradient"/><linearGradient id="linear-gradient-6" x1="291.21" y1="60.14" x2="291.21" y2="97.3" xlink:href="#linear-gradient"/><linearGradient id="linear-gradient-7" x1="319.85" y1="60.14" x2="319.85" y2="97.3" xlink:href="#linear-gradient"/><linearGradient id="linear-gradient-8" x1="353.29" y1="60.14" x2="353.29" y2="97.3" xlink:href="#linear-gradient"/><linearGradient id="linear-gradient-9" x1="397.14" y1="60.14" x2="397.14" y2="97.3" xlink:href="#linear-gradient"/><linearGradient id="linear-gradient-10" x1="429.52" y1="60.14" x2="429.52" y2="97.3" xlink:href="#linear-gradient"/><linearGradient id="linear-gradient-11" x1="456.04" y1="60.14" x2="456.04" y2="97.3" xlink:href="#linear-gradient"/><linearGradient id="linear-gradient-12" x1="482.75" y1="60.14" x2="482.75" y2="97.3" xlink:href="#linear-gradient"/><linearGradient id="linear-gradient-13" x1="519.01" y1="60.14" x2="519.01" y2="97.3" xlink:href="#linear-gradient"/><linearGradient id="linear-gradient-14" x1="545.06" y1="60.14" x2="545.06" y2="97.3" xlink:href="#linear-gradient"/><linearGradient id="linear-gradient-15" x1="581.06" y1="59.67" x2="581.06" y2="97.81" xlink:href="#linear-gradient"/><linearGradient id="linear-gradient-16" x1="606.01" y1="60.14" x2="606.01" y2="97.3" xlink:href="#linear-gradient"/><linearGradient id="linear-gradient-17" x1="631.19" y1="59.58" x2="631.19" y2="97.81" xlink:href="#linear-gradient"/><linearGradient id="linear-gradient-18" x1="668.76" y1="60.14" x2="668.76" y2="97.3" xlink:href="#linear-gradient"/><linearGradient id="linear-gradient-19" x1="703.18" y1="60.14" x2="703.18" y2="97.3" xlink:href="#linear-gradient"/><linearGradient id="linear-gradient-20" x1="736.48" y1="59.67" x2="736.48" y2="97.81" xlink:href="#linear-gradient"/><linearGradient id="linear-gradient-21" x1="11.77" y1="93.89" x2="11.77" y2="106.54" gradientUnits="userSpaceOnUse"><stop offset="0" stop-color="#d1e4f5"/><stop offset="0.93" stop-color="#b9d0e3"/></linearGradient><linearGradient id="linear-gradient-22" x1="29.2" y1="76.46" x2="29.2" y2="89.1" xlink:href="#linear-gradient"/><linearGradient id="linear-gradient-23" x1="11.77" y1="76.46" x2="11.77" y2="89.1" xlink:href="#linear-gradient-21"/><linearGradient id="linear-gradient-24" x1="29.2" y1="93.89" x2="29.2" y2="106.54" xlink:href="#linear-gradient"/><linearGradient id="linear-gradient-25" x1="29.2" y1="59.03" x2="29.2" y2="71.67" xlink:href="#linear-gradient"/><linearGradient id="linear-gradient-26" x1="29.2" y1="41.6" x2="29.2" y2="54.24" xlink:href="#linear-gradient"/><linearGradient id="linear-gradient-27" x1="29.2" y1="24.17" x2="29.2" y2="36.82" xlink:href="#linear-gradient"/><linearGradient id="linear-gradient-28" x1="46.65" y1="93.89" x2="46.65" y2="106.54" xlink:href="#linear-gradient-21"/><linearGradient id="linear-gradient-29" x1="46.65" y1="76.46" x2="46.65" y2="89.1" xlink:href="#linear-gradient-21"/><linearGradient id="linear-gradient-30" x1="46.65" y1="59.03" x2="46.65" y2="71.67" xlink:href="#linear-gradient"/><linearGradient id="linear-gradient-31" x1="46.65" y1="41.6" x2="46.65" y2="54.24" xlink:href="#linear-gradient-21"/><linearGradient id="linear-gradient-32" x1="64.06" y1="93.89" x2="64.06" y2="106.54" xlink:href="#linear-gradient-21"/><linearGradient id="linear-gradient-33" x1="64.06" y1="76.46" x2="64.06" y2="89.1" xlink:href="#linear-gradient-21"/><linearGradient id="linear-gradient-34" x1="64.06" y1="59.03" x2="64.06" y2="71.67" xlink:href="#linear-gradient"/><linearGradient id="linear-gradient-35" x1="81.5" y1="93.89" x2="81.5" y2="106.54" xlink:href="#linear-gradient"/><linearGradient id="linear-gradient-36" x1="81.5" y1="76.46" x2="81.5" y2="89.1" xlink:href="#linear-gradient"/><linearGradient id="linear-gradient-37" x1="81.5" y1="59.03" x2="81.5" y2="71.67" xlink:href="#linear-gradient"/><linearGradient id="linear-gradient-38" x1="81.5" y1="41.6" x2="81.5" y2="54.24" xlink:href="#linear-gradient"/><linearGradient id="linear-gradient-39" x1="81.5" y1="24.17" x2="81.5" y2="36.82" xlink:href="#linear-gradient"/><linearGradient id="linear-gradient-40" x1="98.94" y1="93.89" x2="98.94" y2="106.54" xlink:href="#linear-gradient-21"/><linearGradient id="linear-gradient-41" x1="98.94" y1="76.46" x2="98.94" y2="89.1" xlink:href="#linear-gradient-21"/><linearGradient id="linear-gradient-42" x1="98.94" y1="59.03" x2="98.94" y2="71.67" xlink:href="#linear-gradient-21"/><linearGradient id="linear-gradient-43" x1="98.94" y1="41.6" x2="98.94" y2="54.24" gradientUnits="userSpaceOnUse"><stop offset="0" stop-color="#d1e4f5"/><stop offset="1" stop-color="#b9d0e3"/></linearGradient><linearGradient id="linear-gradient-44" x1="98.94" y1="24.17" x2="98.94" y2="36.82" xlink:href="#linear-gradient-21"/><linearGradient id="linear-gradient-45" x1="98.94" y1="6.73" x2="98.94" y2="19.37" xlink:href="#linear-gradient-21"/></defs><title>Artboard 1</title><path class="cls-1" d="M151.15,97.3V80.37H131.72V97.3H128V60.14h3.76v16.6h19.42V60.14h3.72V97.3Z"/><path class="cls-2" d="M188.44,64.28c2.59,2.82,3.86,7.57,3.86,14.3,0,7.05-1.41,11.71-4.19,14.81-2.4,3-6.3,4.37-11.57,4.37s-9-1.46-11.38-4.42c-2.87-3.1-4.28-7.85-4.28-14.72,0-6.49,1.18-11.29,4-14.2,2.49-3,6.3-4.75,11.76-4.75S185.9,61.23,188.44,64.28Zm-3.57,27.09c2.49-2.49,3.62-6.87,3.62-12.7s-1.13-10.16-3.25-12.27-4.51-3.15-8.65-3.15S170,64.38,168,66.4c-2.21,2.21-3.29,6.68-3.29,12.37,0,5.88,1.32,10.21,4,12.79,1.79,1.79,4.37,2.73,7.95,2.73C180.4,94.29,183,93.2,184.86,91.37Z"/><path class="cls-3" d="M212.47,97.77c-10.11,0-14.81-4.23-15.1-11.19h3.86c.28,5.5,4.42,7.81,11.15,7.81,7.24,0,9.78-2.82,9.78-6.68,0-12.27-24.36-3-24.36-18.39,0-5.17,3.76-9.59,13.31-9.59s13.45,4,14.44,10.63h-3.86c-1-5.13-4.09-7.2-10.77-7.2s-9.22,2.59-9.22,5.93c0,12,24.41,2.45,24.41,18.15C226.11,93.35,221.92,97.77,212.47,97.77Z"/><path class="cls-4" d="M249.1,83.33c-.61,0-12,0-12,0v14h-3.76V60.14h15.94c6.82,0,10.58,2.59,10.58,11.66C259.87,81.07,255.59,83.19,249.1,83.33Zm0-19.66H237.11V79.8H249c4.75,0,7.05-1.18,7.05-7.95C256,64.8,253.48,63.67,249.06,63.67Z"/><path class="cls-5" d="M266.78,97.3V60.14h3.86V97.3Z"/><path class="cls-6" d="M293.12,63.67V97.3h-3.81V63.67H276.89V60.14h28.64v3.53Z"/><path class="cls-7" d="M307.65,97.3h-3.9l14.11-37.15h4.61L336,97.3h-3.9l-3.57-9.78H311.27Zm13.54-30.1-1.08-3.34-1.18,3.34-6.4,16.93h14.77Z"/><path class="cls-8" d="M341.7,97.3V60.14h3.81V93.72h19.38V97.3Z"/><path class="cls-9" d="M398.22,97.3H383.08V60.14H397.8c4.89,0,8,1,10.16,3.34,2.35,2.59,3.24,6.91,3.24,14.72,0,8.18-.75,12.56-2.92,15.28S403.16,97.3,398.22,97.3Zm9.17-19c0-6.25-.61-10.39-2.45-12.18s-3.81-2.35-7.38-2.35H386.79v30h10.68c3.76,0,6-.66,7.71-2.54C407,89.11,407.34,84.93,407.39,78.25Z"/><path class="cls-10" d="M417.31,97.3h-3.9l14.11-37.15h4.61l13.5,37.15h-3.9l-3.57-9.78H420.93Zm13.54-30.1-1.08-3.34L428.6,67.2l-6.4,16.93H437Z"/><path class="cls-11" d="M457.94,63.67V97.3h-3.81V63.67H441.72V60.14h28.64v3.53Z"/><path class="cls-12" d="M470.55,97.3h-3.9l14.11-37.15h4.61l13.5,37.15H495l-3.57-9.78H474.17Zm13.54-30.1L483,63.86l-1.18,3.34-6.4,16.93H490.2Z"/><path class="cls-13" d="M515.55,97.3V60.14h6.91V97.3Z"/><path class="cls-14" d="M552.66,97.3,536.52,70.11V97.3H530V60.14h8L553.6,86.53V60.14h6.49V97.3Z"/><path class="cls-15" d="M581.72,97.81c-10.3,0-14.48-3.2-16-7.95a14.89,14.89,0,0,1-.56-3.76h7a8.26,8.26,0,0,0,.56,2.49c1.18,2.49,4,3.57,9.08,3.57,6.11,0,8.18-1.88,8.18-4.7,0-3.39-2-4.51-7.85-5.74-1.36-.28-3.57-.75-5.46-1.13-6.82-1.27-11.24-4.7-11.24-10.63s4.7-10.3,15.24-10.3c8.84,0,13.12,3.1,15,7.81a11.83,11.83,0,0,1,.8,3.48h-7a5.75,5.75,0,0,0-.56-2c-1.13-2.4-3.43-3.62-8.37-3.62-6.3,0-7.95,1.74-7.95,4.19,0,3,2.59,4.19,8.32,5.36,1.74.33,3.86.85,5.22,1.13,7.05,1.46,11,4.51,11,10.72C597,93.3,592.06,97.81,581.72,97.81Z"/><path class="cls-16" d="M602.55,97.3V60.14h6.91V97.3Z"/><path class="cls-17" d="M642.19,97.3l-.33-3.71c-1.41,2.07-4.66,4.23-11,4.23-5.5,0-9.88-1.88-12.56-5.08-2.21-2.59-3.67-7.38-3.67-14,0-5.64.66-9.88,3.48-13.54,2.35-3.1,6.63-5.64,13.54-5.64,7.2,0,11.62,2.4,13.78,6.07a13.75,13.75,0,0,1,2,7.15h-6.63a8.1,8.1,0,0,0-2-4.89c-1.41-1.46-3.81-2.3-7-2.3-3.43,0-5.93.85-7.62,2.68s-2.63,5.22-2.63,10.63.52,8.37,2.54,10.68c1.65,1.88,4,2.73,8.23,2.73,5.22,0,8.09-2.77,8.94-5.93.09-.23,0-4.42,0-4.42H630.06V76.27h17.59V87.33c0,4.56,0,9.83,0,10Z"/><path class="cls-18" d="M677.27,97.3V81.87h-17V97.3h-6.77V60.14h6.77V75.57h17V60.14H684V97.3Z"/><path class="cls-19" d="M706.62,66.12V97.3H699.7V66.12H687.52v-6h31.32v6Z"/><path class="cls-20" d="M737.14,97.81c-10.3,0-14.48-3.2-16-7.95a14.91,14.91,0,0,1-.56-3.76h7a8.26,8.26,0,0,0,.56,2.49c1.18,2.49,4,3.57,9.08,3.57,6.11,0,8.18-1.88,8.18-4.7,0-3.39-2-4.51-7.85-5.74-1.36-.28-3.57-.75-5.46-1.13-6.82-1.27-11.24-4.7-11.24-10.63s4.7-10.3,15.24-10.3c8.84,0,13.12,3.1,15,7.81a11.83,11.83,0,0,1,.8,3.48h-7a5.75,5.75,0,0,0-.56-2c-1.13-2.4-3.43-3.62-8.37-3.62-6.3,0-7.95,1.74-7.95,4.19,0,3,2.59,4.19,8.32,5.36,1.74.33,3.86.85,5.22,1.13,7.05,1.46,11,4.51,11,10.72C752.42,93.3,747.48,97.81,737.14,97.81Z"/><rect class="cls-21" x="5.45" y="93.89" width="12.64" height="12.64"/><path class="cls-22" d="M17.44,94.54v11.34H6.1V94.54H17.44m1.3-1.3H4.8v13.94H18.74V93.24Z"/><rect class="cls-23" x="22.87" y="76.46" width="12.65" height="12.64"/><path class="cls-24" d="M34.87,77.11V88.45H23.52V77.11H34.87m1.3-1.3h-14V89.75h14V75.81Z"/><polygon class="cls-25" points="18.74 93.24 4.8 107.19 18.74 107.19 18.74 93.24 18.74 93.24"/><polygon class="cls-26" points="36.17 75.81 22.22 89.75 36.17 89.75 36.17 75.81 36.17 75.81"/><rect class="cls-27" x="5.45" y="76.46" width="12.64" height="12.64"/><path class="cls-22" d="M17.44,77.11V88.45H6.1V77.11H17.44m1.3-1.3H4.8V89.75H18.74V75.81Z"/><rect class="cls-28" x="22.87" y="93.89" width="12.65" height="12.64"/><path class="cls-24" d="M34.87,94.54v11.34H23.52V94.54H34.87m1.3-1.3h-14v13.94h14V93.24Z"/><rect class="cls-29" x="22.87" y="59.03" width="12.65" height="12.64"/><path class="cls-24" d="M34.87,59.68V71H23.52V59.68H34.87m1.3-1.3h-14V72.32h14V58.38Z"/><rect class="cls-30" x="22.87" y="41.6" width="12.65" height="12.64"/><path class="cls-24" d="M34.87,42.25V53.59H23.52V42.25H34.87m1.3-1.3h-14V54.89h14V40.95Z"/><rect class="cls-31" x="22.87" y="24.17" width="12.65" height="12.64"/><path class="cls-24" d="M34.87,24.82V36.17H23.52V24.82H34.87m1.3-1.3h-14V37.47h14V23.52Z"/><rect class="cls-32" x="40.33" y="93.89" width="12.64" height="12.64"/><path class="cls-22" d="M52.32,94.54v11.34H41V94.54H52.32m1.3-1.3H39.68v13.94H53.62V93.24Z"/><rect class="cls-33" x="40.33" y="76.46" width="12.64" height="12.64"/><path class="cls-22" d="M52.32,77.11V88.45H41V77.11H52.32m1.3-1.3H39.68V89.75H53.62V75.81Z"/><rect class="cls-34" x="40.33" y="59.03" width="12.64" height="12.64"/><path class="cls-24" d="M52.32,59.68V71H41V59.68H52.32m1.3-1.3H39.68V72.32H53.62V58.38Z"/><rect class="cls-35" x="40.33" y="41.6" width="12.64" height="12.64"/><path class="cls-22" d="M52.32,42.25V53.59H41V42.25H52.32m1.3-1.3H39.68V54.89H53.62V40.95Z"/><rect class="cls-36" x="57.73" y="93.89" width="12.67" height="12.64"/><path class="cls-22" d="M69.75,94.54v11.34H58.38V94.54H69.75m1.3-1.3h-14v13.94H71V93.24Z"/><rect class="cls-37" x="57.73" y="76.46" width="12.67" height="12.64"/><path class="cls-22" d="M69.75,77.11V88.45H58.38V77.11H69.75m1.3-1.3h-14V89.75H71V75.81Z"/><rect class="cls-38" x="57.73" y="59.03" width="12.67" height="12.64"/><path class="cls-24" d="M69.75,59.68V71H58.38V59.68H69.75m1.3-1.3h-14V72.32H71V58.38Z"/><rect class="cls-39" x="75.19" y="93.89" width="12.63" height="12.64"/><path class="cls-24" d="M87.16,94.54v11.34H75.84V94.54H87.16m1.3-1.3H74.54v13.94H88.46V93.24Z"/><rect class="cls-40" x="75.19" y="76.46" width="12.63" height="12.64"/><path class="cls-24" d="M87.16,77.11V88.45H75.84V77.11H87.16m1.3-1.3H74.54V89.75H88.46V75.81Z"/><rect class="cls-41" x="75.19" y="59.03" width="12.63" height="12.64"/><path class="cls-24" d="M87.16,59.68V71H75.84V59.68H87.16m1.3-1.3H74.54V72.32H88.46V58.38Z"/><rect class="cls-42" x="75.19" y="41.6" width="12.63" height="12.64"/><path class="cls-24" d="M87.16,42.25V53.59H75.84V42.25H87.16m1.3-1.3H74.54V54.89H88.46V40.95Z"/><rect class="cls-43" x="75.19" y="24.17" width="12.63" height="12.64"/><path class="cls-24" d="M87.16,24.82V36.17H75.84V24.82H87.16m1.3-1.3H74.54V37.47H88.46V23.52Z"/><rect class="cls-44" x="92.62" y="93.89" width="12.64" height="12.64"/><path class="cls-22" d="M104.61,94.54v11.34H93.27V94.54h11.34m1.3-1.3H92v13.94h13.94V93.24Z"/><rect class="cls-45" x="92.62" y="76.46" width="12.64" height="12.64"/><path class="cls-22" d="M104.61,77.11V88.45H93.27V77.11h11.34m1.3-1.3H92V89.75h13.94V75.81Z"/><rect class="cls-46" x="92.62" y="59.03" width="12.64" height="12.64"/><path class="cls-22" d="M104.61,59.68V71H93.27V59.68h11.34m1.3-1.3H92V72.32h13.94V58.38Z"/><rect class="cls-47" x="92.62" y="41.6" width="12.64" height="12.64"/><path class="cls-22" d="M104.61,42.25V53.59H93.27V42.25h11.34m1.3-1.3H92V54.89h13.94V40.95Z"/><rect class="cls-48" x="92.62" y="24.17" width="12.64" height="12.64"/><path class="cls-22" d="M104.61,24.82V36.17H93.27V24.82h11.34m1.3-1.3H92V37.47h13.94V23.52Z"/><rect class="cls-49" x="92.62" y="6.73" width="12.64" height="12.64"/><path class="cls-22" d="M104.61,7.38V18.72H93.27V7.38h11.34m1.3-1.3H92V20h13.94V6.08Z"/><polygon class="cls-26" points="53.62 58.38 39.67 72.32 53.62 72.32 53.62 58.38 53.62 58.38"/><polygon class="cls-26" points="88.46 23.52 74.54 37.46 88.46 37.46 88.46 23.52 88.46 23.52"/><polygon class="cls-25" points="105.91 6.08 91.97 20.02 105.91 20.02 105.91 6.08 105.91 6.08"/><rect class="cls-50" x="127.46" y="15.32" width="119.56" height="27.77"/><rect class="cls-51" x="174.19" y="-30.27" width="26.09" height="118.49" transform="matrix(0, -1, 1, 0, 157.87, 216.14)"/><rect class="cls-52" x="127.99" y="39.19" width="118.47" height="2.93"/><path class="cls-53" d="M192.48,22.14a1,1,0,0,0,.2-.57h1.06a1.67,1.67,0,0,1-.51,1.16l.81.62h-1.44l-.18-.14a2.8,2.8,0,0,1-1,.18c-.9,0-1.7-.16-1.74-.85,0-.06,0-.15,0-.19,0-.43.42-.69.86-.9a1.43,1.43,0,0,1-.31-.79v-.19c0-.46.48-.9,1.26-.9s1.14.41,1.17.87c0,0,0,.14,0,.16a1.35,1.35,0,0,1-.75,1Zm-1.71.24c0,.18.17.25.57.25a1.43,1.43,0,0,0,.33,0c-.21-.19-.44-.36-.6-.52C190.9,22.17,190.77,22.27,190.77,22.38Zm.93-1.71V20.6a.22.22,0,0,0-.24-.23.24.24,0,0,0-.25.25.33.33,0,0,0,0,.1.64.64,0,0,0,.15.35C191.55,20.94,191.69,20.82,191.7,20.67Z"/><path class="cls-53" d="M200.11,23.35h-1.26s-.57-2.16-.58-2.28c0,.13-.58,2.28-.58,2.28h-1.25l-1.08-3.75h1.23s.57,2.32.57,2.44c0-.12.56-2.44.56-2.44h1.19s.57,2.32.57,2.44c0-.12.57-2.44.57-2.44h1.12Z"/><path class="cls-53" d="M205.17,21.44c0,1.32-.63,2-2,2s-2-.67-2-2a1.75,1.75,0,0,1,2-1.92C204.58,19.53,205.17,20.19,205.17,21.44Zm-1.17,0c0-.75-.2-1-.85-1s-.84.29-.84,1,.29,1.06.84,1.06S204,22.31,204,21.47Z"/><path class="cls-53" d="M209.05,21.5a.73.73,0,0,1-.47.36l.88,1.5h-1.3l-.67-1.27h-.78v1.27h-1.14V19.6H208a1.19,1.19,0,0,1,1,.39,1.24,1.24,0,0,1,.22.79A1.38,1.38,0,0,1,209.05,21.5Zm-1-.85c-.06-.12-.17-.16-.34-.16h-1v.76h1c.14,0,.27,0,.31-.12a.68.68,0,0,0,0-.24A.62.62,0,0,0,208.05,20.64Z"/><path class="cls-53" d="M209.79,23.35V19.6H211v2.83h1.81v.93Z"/><path class="cls-53" d="M215.26,23.35h-2.13V19.6h2.07a1.53,1.53,0,0,1,1.34.49,2,2,0,0,1,.28,1.32,2.25,2.25,0,0,1-.26,1.41A1.4,1.4,0,0,1,215.26,23.35Zm.44-1.95a1.45,1.45,0,0,0-.12-.72.65.65,0,0,0-.57-.2h-.73v2H215a.66.66,0,0,0,.58-.21A2,2,0,0,0,215.7,21.41Z"/><path class="cls-53" d="M222.15,21.5a.73.73,0,0,1-.47.36l.88,1.5h-1.3l-.66-1.27h-.78v1.27h-1.14V19.6h2.39a1.19,1.19,0,0,1,1,.39,1.24,1.24,0,0,1,.22.79A1.37,1.37,0,0,1,222.15,21.5Zm-1-.85c-.06-.12-.17-.16-.34-.16h-1v.76h1c.14,0,.27,0,.31-.12a.68.68,0,0,0,0-.24A.62.62,0,0,0,221.15,20.64Z"/><path class="cls-53" d="M222.89,23.35V19.6h3.21v.88H224V21h2v.89h-2v.56h2.09v.87Z"/><path class="cls-53" d="M230,21.8a1.37,1.37,0,0,1-1,.38h-1.16v1.17h-1.16V19.6h2.32a1.32,1.32,0,0,1,1,.31,1.24,1.24,0,0,1,.34,1A1.29,1.29,0,0,1,230,21.8ZM229,20.65a.37.37,0,0,0-.37-.18h-.92v.86h.91a.39.39,0,0,0,.38-.18.52.52,0,0,0,0-.25A.54.54,0,0,0,229,20.65Z"/><path class="cls-53" d="M234.5,21.44c0,1.32-.63,2-2,2s-2-.67-2-2a1.75,1.75,0,0,1,2-1.92C233.92,19.53,234.5,20.19,234.5,21.44Zm-1.17,0c0-.75-.2-1-.85-1s-.84.29-.84,1,.29,1.06.84,1.06S233.34,22.31,233.34,21.47Z"/><path class="cls-53" d="M238.39,21.5a.73.73,0,0,1-.47.36l.88,1.5h-1.3l-.66-1.27h-.78v1.27h-1.14V19.6h2.39a1.2,1.2,0,0,1,1,.39,1.24,1.24,0,0,1,.22.79A1.38,1.38,0,0,1,238.39,21.5Zm-1-.85c-.06-.12-.17-.16-.34-.16h-1v.76h1c.14,0,.27,0,.31-.12a.69.69,0,0,0,0-.24A.62.62,0,0,0,237.39,20.64Z"/><path class="cls-53" d="M241.22,20.5v2.85H240V20.5h-1.2v-.9h3.58v.9Z"/><path class="cls-53" d="M127.71,15.54V42.8h119V15.54Zm118.49.56V38.9h-6.36c2.29-.62,3.36-2,3.36-4,0-2.63-1.48-3.89-4.86-4.4L235.05,30c-2-.31-2.43-.54-2.43-1.15s.66-1,2.91-1c1.94,0,2.68.33,3,.72a1.76,1.76,0,0,1,.18.77h4a6.93,6.93,0,0,0-.26-1.69c-.72-2-3.15-3-7-3-4.53,0-6.78,1.64-6.78,4.14,0,2.69,1.48,4,4.58,4.47l3.07.46c2.07.31,2.91.49,2.91,1.28s-.72,1.23-3,1.23-3.3-.18-3.55-.84a2.12,2.12,0,0,1-.13-.72h-4.07a5.75,5.75,0,0,0,.15,1.41c.37,1.45,1.4,2.36,3.3,2.84h-7.69l5-13.91h-4l-3.3,10.46L218.69,25h-4.55L211,35.45,207.67,25H203.4l5,13.91h-8.47A7.34,7.34,0,0,0,202,38a5.76,5.76,0,0,0,2.56-3.53h-4a2,2,0,0,1-1.18,1.1,6.48,6.48,0,0,1-2.58.46,4.46,4.46,0,0,1-3.27-1,2.39,2.39,0,0,1-.77-1.66h11.91a8.42,8.42,0,0,0-1.2-5.68c-1.25-1.82-3.45-3-6.67-3-3.07,0-5.5,1.15-6.85,3.12a7.17,7.17,0,0,0-1.23,4.17,7.88,7.88,0,0,0,1.07,4.27,6.33,6.33,0,0,0,3.85,2.68h-5.5V20h-4V32.28L176.78,20h-4.85V38.9h-.72V35.17h-3a5.66,5.66,0,0,0,.23-1.62c0-3.26-2-4.83-5.77-5.55-.43-.07-1.69-.34-2.66-.53-3.11-.63-4.25-1.18-4.25-2.58,0-1.09.63-1.79,3.79-1.79,2.41,0,3.45.55,4,1.62a2.68,2.68,0,0,1,.27.94h4.3a5.88,5.88,0,0,0-.43-1.83c-1-2.41-3.21-4.08-8-4.08-5.6,0-8.2,2.17-8.2,5.4s2.29,4.88,6,5.58l2.8.53c3.09.58,3.89,1.13,3.89,2.7,0,1.25-1,2.05-3.91,2.05-2.53,0-3.79-.48-4.32-1.59a3.37,3.37,0,0,1-.27-1.21h-4.3a8.09,8.09,0,0,0,.27,2c.55,1.71,1.75,3.08,4.44,3.73h-4.61V35.17h-3a5.84,5.84,0,0,0,.3-1.89V20H144.6V32.71c0,2-1.69,3.16-4.08,3.16-2.73,0-4.22-1.18-4.22-3.18V20h-4.17V33c0,3.28,1.91,5.11,4.81,5.85h-8.67V16.1Zm0,23.5v2.49H128.27V39.6Zm-102.31-.7a6.81,6.81,0,0,0,3.85-2.31V38.9Zm20,0a6.38,6.38,0,0,0,3.65-2.27V38.9Zm12.07,0V26.15l7.58,12.75Zm37.44,0c.38-1.11,2.71-8,2.73-8.41l.18-1s.15.83.18,1c0,.42,2.38,7.28,2.76,8.38Zm-20.66-8.26a2.91,2.91,0,0,1,.87-1.69,4.75,4.75,0,0,1,3.22-1A4.19,4.19,0,0,1,199.88,29a2.48,2.48,0,0,1,.69,1.61Z"/></svg>