<svg id="Layer_1" data-name="Layer 1" xmlns="http://www.w3.org/2000/svg" xmlns:xlink="http://www.w3.org/1999/xlink" viewBox="0 0 602 207.98"><defs><style>.cls-1{fill:url(#linear-gradient);}.cls-2{fill:url(#linear-gradient-2);}.cls-3{fill:url(#linear-gradient-3);}.cls-4{fill:url(#linear-gradient-4);}.cls-5{fill:url(#linear-gradient-5);}.cls-6{fill:url(#linear-gradient-6);}.cls-7{fill:url(#linear-gradient-7);}.cls-8{fill:url(#linear-gradient-8);}.cls-9{fill:url(#linear-gradient-9);}.cls-10{fill:url(#linear-gradient-10);}.cls-11{fill:url(#linear-gradient-11);}.cls-12{fill:url(#linear-gradient-12);}.cls-13{fill:url(#linear-gradient-13);}.cls-14{fill:url(#linear-gradient-14);}.cls-15{fill:url(#linear-gradient-15);}.cls-16{fill:url(#linear-gradient-16);}.cls-17{fill:url(#linear-gradient-17);}.cls-18{fill:url(#linear-gradient-18);}.cls-19{fill:url(#linear-gradient-19);}.cls-20{fill:url(#linear-gradient-20);}.cls-21{fill:url(#linear-gradient-21);}.cls-22{fill:#d3e6f3;}.cls-23{fill:url(#linear-gradient-22);}.cls-24{fill:#193257;}.cls-25{fill:#d8e9f4;}.cls-26{fill:#2a4a79;}.cls-27{fill:url(#linear-gradient-23);}.cls-28{fill:url(#linear-gradient-24);}.cls-29{fill:url(#linear-gradient-25);}.cls-30{fill:url(#linear-gradient-26);}.cls-31{fill:url(#linear-gradient-27);}.cls-32{fill:url(#linear-gradient-28);}.cls-33{fill:url(#linear-gradient-29);}.cls-34{fill:url(#linear-gradient-30);}.cls-35{fill:url(#linear-gradient-31);}.cls-36{fill:url(#linear-gradient-32);}.cls-37{fill:url(#linear-gradient-33);}.cls-38{fill:url(#linear-gradient-34);}.cls-39{fill:url(#linear-gradient-35);}.cls-40{fill:url(#linear-gradient-36);}.cls-41{fill:url(#linear-gradient-37);}.cls-42{fill:url(#linear-gradient-38);}.cls-43{fill:url(#linear-gradient-39);}.cls-44{fill:url(#linear-gradient-40);}.cls-45{fill:url(#linear-gradient-41);}.cls-46{fill:url(#linear-gradient-42);}.cls-47{fill:url(#linear-gradient-43);}.cls-48{fill:url(#linear-gradient-44);}.cls-49{fill:url(#linear-gradient-45);}.cls-50{fill:#303030;}.cls-51{fill:#065fa4;}.cls-52{fill:#ea272a;}.cls-53{fill:#fff;}</style><linearGradient id="linear-gradient" x1="222.82" y1="71.79" x2="222.82" y2="108.94" gradientUnits="userSpaceOnUse"><stop offset="0" stop-color="#214175"/><stop offset="1" stop-color="#1d3861"/></linearGradient><linearGradient id="linear-gradient-2" x1="258" y1="71.32" x2="258" y2="109.41" xlink:href="#linear-gradient"/><linearGradient id="linear-gradient-3" x1="293.15" y1="71.37" x2="293.15" y2="109.41" xlink:href="#linear-gradient"/><linearGradient id="linear-gradient-4" x1="328.02" y1="71.79" x2="328.02" y2="108.94" xlink:href="#linear-gradient"/><linearGradient id="linear-gradient-5" x1="350.12" y1="71.79" x2="350.12" y2="108.94" xlink:href="#linear-gradient"/><linearGradient id="linear-gradient-6" x1="372.62" y1="71.79" x2="372.62" y2="108.94" xlink:href="#linear-gradient"/><linearGradient id="linear-gradient-7" x1="401.26" y1="71.79" x2="401.26" y2="108.94" xlink:href="#linear-gradient"/><linearGradient id="linear-gradient-8" x1="434.7" y1="71.79" x2="434.7" y2="108.94" xlink:href="#linear-gradient"/><linearGradient id="linear-gradient-9" x1="478.55" y1="71.79" x2="478.55" y2="108.94" xlink:href="#linear-gradient"/><linearGradient id="linear-gradient-10" x1="510.93" y1="71.79" x2="510.93" y2="108.94" xlink:href="#linear-gradient"/><linearGradient id="linear-gradient-11" x1="537.45" y1="71.79" x2="537.45" y2="108.94" xlink:href="#linear-gradient"/><linearGradient id="linear-gradient-12" x1="564.16" y1="71.79" x2="564.16" y2="108.94" xlink:href="#linear-gradient"/><linearGradient id="linear-gradient-13" x1="214.91" y1="127.79" x2="214.91" y2="186.7" xlink:href="#linear-gradient"/><linearGradient id="linear-gradient-14" x1="256.22" y1="127.79" x2="256.22" y2="186.7" xlink:href="#linear-gradient"/><linearGradient id="linear-gradient-15" x1="313.3" y1="127.04" x2="313.3" y2="187.52" xlink:href="#linear-gradient"/><linearGradient id="linear-gradient-16" x1="352.86" y1="127.79" x2="352.86" y2="186.7" xlink:href="#linear-gradient"/><linearGradient id="linear-gradient-17" x1="392.78" y1="126.89" x2="392.78" y2="187.52" xlink:href="#linear-gradient"/><linearGradient id="linear-gradient-18" x1="452.36" y1="127.79" x2="452.36" y2="186.7" xlink:href="#linear-gradient"/><linearGradient id="linear-gradient-19" x1="506.94" y1="127.79" x2="506.94" y2="186.7" xlink:href="#linear-gradient"/><linearGradient id="linear-gradient-20" x1="559.73" y1="127.04" x2="559.73" y2="187.52" xlink:href="#linear-gradient"/><linearGradient id="linear-gradient-21" x1="22.66" y1="166.13" x2="22.66" y2="188.52" gradientUnits="userSpaceOnUse"><stop offset="0" stop-color="#d1e4f5"/><stop offset="0.93" stop-color="#b9d0e3"/></linearGradient><linearGradient id="linear-gradient-22" x1="53.14" y1="135.64" x2="53.14" y2="158.03" xlink:href="#linear-gradient"/><linearGradient id="linear-gradient-23" x1="22.66" y1="135.64" x2="22.66" y2="158.03" xlink:href="#linear-gradient-21"/><linearGradient id="linear-gradient-24" x1="53.14" y1="166.13" x2="53.14" y2="188.52" xlink:href="#linear-gradient"/><linearGradient id="linear-gradient-25" x1="53.14" y1="105.15" x2="53.14" y2="127.54" xlink:href="#linear-gradient"/><linearGradient id="linear-gradient-26" x1="53.14" y1="74.66" x2="53.14" y2="97.05" xlink:href="#linear-gradient"/><linearGradient id="linear-gradient-27" x1="53.14" y1="44.18" x2="53.14" y2="66.57" xlink:href="#linear-gradient"/><linearGradient id="linear-gradient-28" x1="83.66" y1="166.13" x2="83.66" y2="188.52" xlink:href="#linear-gradient-21"/><linearGradient id="linear-gradient-29" x1="83.66" y1="135.64" x2="83.66" y2="158.03" xlink:href="#linear-gradient-21"/><linearGradient id="linear-gradient-30" x1="83.66" y1="105.15" x2="83.66" y2="127.54" xlink:href="#linear-gradient"/><linearGradient id="linear-gradient-31" x1="83.66" y1="74.66" x2="83.66" y2="97.05" xlink:href="#linear-gradient-21"/><linearGradient id="linear-gradient-32" x1="114.13" y1="166.13" x2="114.13" y2="188.52" xlink:href="#linear-gradient-21"/><linearGradient id="linear-gradient-33" x1="114.13" y1="135.64" x2="114.13" y2="158.03" xlink:href="#linear-gradient-21"/><linearGradient id="linear-gradient-34" x1="114.13" y1="105.15" x2="114.13" y2="127.54" xlink:href="#linear-gradient"/><linearGradient id="linear-gradient-35" x1="144.63" y1="166.13" x2="144.63" y2="188.52" xlink:href="#linear-gradient"/><linearGradient id="linear-gradient-36" x1="144.63" y1="135.64" x2="144.63" y2="158.03" xlink:href="#linear-gradient"/><linearGradient id="linear-gradient-37" x1="144.63" y1="105.15" x2="144.63" y2="127.54" xlink:href="#linear-gradient"/><linearGradient id="linear-gradient-38" x1="144.63" y1="74.66" x2="144.63" y2="97.05" xlink:href="#linear-gradient"/><linearGradient id="linear-gradient-39" x1="144.63" y1="44.18" x2="144.63" y2="66.57" xlink:href="#linear-gradient"/><linearGradient id="linear-gradient-40" x1="175.13" y1="166.13" x2="175.13" y2="188.52" xlink:href="#linear-gradient-21"/><linearGradient id="linear-gradient-41" x1="175.13" y1="135.64" x2="175.13" y2="158.03" xlink:href="#linear-gradient-21"/><linearGradient id="linear-gradient-42" x1="175.13" y1="105.15" x2="175.13" y2="127.54" xlink:href="#linear-gradient-21"/><linearGradient id="linear-gradient-43" x1="175.13" y1="74.66" x2="175.13" y2="97.05" gradientUnits="userSpaceOnUse"><stop offset="0" stop-color="#d1e4f5"/><stop offset="1" stop-color="#b9d0e3"/></linearGradient><linearGradient id="linear-gradient-44" x1="175.13" y1="44.18" x2="175.13" y2="66.57" xlink:href="#linear-gradient-21"/><linearGradient id="linear-gradient-45" x1="175.13" y1="13.67" x2="175.13" y2="36.05" xlink:href="#linear-gradient-21"/></defs><title>Artboard 1</title><path class="cls-1" d="M232.56,108.94V92H213.13v16.93h-3.76V71.79h3.76v16.6h19.42V71.79h3.72v37.15Z"/><path class="cls-2" d="M269.85,75.93c2.59,2.82,3.86,7.57,3.86,14.3,0,7.05-1.41,11.71-4.19,14.81-2.4,3-6.3,4.37-11.57,4.37S249,108,246.57,105c-2.87-3.1-4.28-7.85-4.28-14.72,0-6.49,1.18-11.29,4-14.2,2.49-3,6.3-4.75,11.76-4.75S267.31,72.87,269.85,75.93ZM266.27,103c2.49-2.49,3.62-6.87,3.62-12.7S268.77,80.16,266.65,78s-4.51-3.15-8.65-3.15S251.41,76,249.44,78c-2.21,2.21-3.29,6.68-3.29,12.37,0,5.88,1.32,10.21,4,12.79,1.79,1.79,4.37,2.73,7.95,2.73C261.81,105.93,264.39,104.85,266.27,103Z"/><path class="cls-3" d="M293.88,109.41c-10.11,0-14.81-4.23-15.1-11.19h3.86c.28,5.5,4.42,7.81,11.15,7.81,7.24,0,9.78-2.82,9.78-6.68,0-12.27-24.36-3-24.36-18.39,0-5.17,3.76-9.59,13.31-9.59S306,75.32,307,82H303.1c-1-5.13-4.09-7.2-10.77-7.2s-9.22,2.59-9.22,5.93c0,12,24.41,2.45,24.41,18.15C307.52,105,303.33,109.41,293.88,109.41Z"/><path class="cls-4" d="M330.51,95c-.61,0-12,0-12,0v14h-3.76V71.79H330.7c6.82,0,10.58,2.59,10.58,11.66C341.28,92.72,337,94.83,330.51,95Zm0-19.66H318.52V91.45h11.85c4.75,0,7.05-1.18,7.05-7.95C337.42,76.45,334.89,75.32,330.46,75.32Z"/><path class="cls-5" d="M348.19,108.94V71.79H352v37.15Z"/><path class="cls-6" d="M374.53,75.32v33.62h-3.81V75.32H358.3V71.79h28.64v3.53Z"/><path class="cls-7" d="M389.06,108.94h-3.9l14.11-37.15h4.61l13.5,37.15h-3.9l-3.57-9.78H392.68Zm13.54-30.1-1.08-3.34-1.18,3.34L394,95.77h14.77Z"/><path class="cls-8" d="M423.11,108.94V71.79h3.81v33.58h19.38v3.57Z"/><path class="cls-9" d="M479.63,108.94H464.49V71.79h14.72c4.89,0,8,1,10.16,3.34,2.35,2.59,3.24,6.91,3.24,14.72,0,8.18-.75,12.56-2.92,15.28S484.57,108.94,479.63,108.94Zm9.17-19c0-6.25-.61-10.39-2.45-12.18s-3.81-2.35-7.38-2.35H468.2v30h10.67c3.76,0,6-.66,7.71-2.54C488.43,100.76,488.75,96.57,488.8,89.9Z"/><path class="cls-10" d="M498.72,108.94h-3.9l14.11-37.15h4.61L527,108.94h-3.9l-3.57-9.78H502.34Zm13.54-30.1-1.08-3.34L510,78.84l-6.4,16.93h14.77Z"/><path class="cls-11" d="M539.35,75.32v33.62h-3.81V75.32H523.13V71.79h28.64v3.53Z"/><path class="cls-12" d="M552,108.94h-3.9l14.11-37.15h4.61l13.5,37.15h-3.9l-3.57-9.78H555.58Zm13.54-30.1-1.08-3.34-1.18,3.34-6.4,16.93h14.77Z"/><path class="cls-13" d="M209.43,186.7V127.79h11V186.7Z"/><path class="cls-14" d="M268.26,186.7l-25.58-43.1v43.1H232.4V127.79h12.68l24.68,41.83V127.79H280V186.7Z"/><path class="cls-15" d="M314.34,187.52c-16.33,0-23-5.07-25.43-12.6a23.57,23.57,0,0,1-.9-6h11a13.09,13.09,0,0,0,.89,4c1.86,4,6.26,5.67,14.39,5.67,9.69,0,13-3,13-7.46,0-5.37-3.13-7.16-12.45-9.1-2.16-.45-5.67-1.19-8.65-1.79-10.81-2-17.82-7.46-17.82-16.85S295.85,127,312.55,127c14,0,20.8,4.92,23.71,12.38a18.78,18.78,0,0,1,1.27,5.52H326.42a9.1,9.1,0,0,0-.9-3.13c-1.79-3.8-5.44-5.74-13.27-5.74-10,0-12.6,2.76-12.6,6.64,0,4.7,4.1,6.64,13.2,8.5,2.76.52,6.11,1.34,8.28,1.79,11.19,2.31,17.45,7.16,17.45,17C338.58,180.36,330.75,187.52,314.34,187.52Z"/><path class="cls-16" d="M347.38,186.7V127.79h11V186.7Z"/><path class="cls-17" d="M410.23,186.7l-.52-5.89c-2.24,3.28-7.38,6.71-17.37,6.71-8.73,0-15.66-3-19.91-8.05-3.5-4.1-5.82-11.71-5.82-22.15,0-8.95,1-15.66,5.52-21.48,3.73-4.92,10.51-8.95,21.47-8.95,11.41,0,18.42,3.8,21.85,9.62a21.8,21.8,0,0,1,3.13,11.33H408.07a12.84,12.84,0,0,0-3.13-7.75c-2.24-2.31-6-3.65-11-3.65-5.44,0-9.4,1.34-12.08,4.25s-4.17,8.28-4.17,16.85c0,8.8.82,13.27,4,16.93,2.61,3,6.41,4.32,13,4.32,8.28,0,12.83-4.4,14.17-9.4.15-.37.07-7,.07-7H391v-9h27.89v17.52c0,7.23.07,15.58.07,15.81Z"/><path class="cls-18" d="M465.86,186.7V162.24H438.94V186.7H428.2V127.79h10.74v24.46h26.92V127.79h10.66V186.7Z"/><path class="cls-19" d="M512.39,137.26V186.7h-11V137.26H482.11v-9.47h49.66v9.47Z"/><path class="cls-20" d="M560.78,187.52c-16.33,0-23-5.07-25.43-12.6a23.64,23.64,0,0,1-.89-6h11a13.08,13.08,0,0,0,.9,4c1.86,4,6.26,5.67,14.39,5.67,9.69,0,13-3,13-7.46,0-5.37-3.13-7.16-12.45-9.1-2.16-.45-5.67-1.19-8.65-1.79-10.81-2-17.82-7.46-17.82-16.85S542.29,127,559,127c14,0,20.8,4.92,23.71,12.38a18.78,18.78,0,0,1,1.27,5.52H572.86a9.12,9.12,0,0,0-.89-3.13c-1.79-3.8-5.44-5.74-13.27-5.74-10,0-12.6,2.76-12.6,6.64,0,4.7,4.1,6.64,13.2,8.5,2.76.52,6.11,1.34,8.28,1.79,11.19,2.31,17.45,7.16,17.45,17C585,180.36,577.18,187.52,560.78,187.52Z"/><rect class="cls-21" x="11.47" y="166.13" width="22.39" height="22.39"/><path class="cls-22" d="M32.85,167.13v20.39H12.47V167.13H32.85m2-2H10.47v24.39H34.85V165.13Z"/><rect class="cls-23" x="41.93" y="135.64" width="22.41" height="22.39"/><path class="cls-24" d="M63.34,136.64V157H42.93V136.64H63.34m2-2H40.93V159H65.34V134.64Z"/><polygon class="cls-25" points="34.85 165.13 10.47 189.52 34.85 189.52 34.85 165.13 34.85 165.13"/><polygon class="cls-26" points="65.34 134.64 40.93 159.03 65.34 159.03 65.34 134.64 65.34 134.64"/><rect class="cls-27" x="11.47" y="135.64" width="22.39" height="22.39"/><path class="cls-22" d="M32.85,136.64V157H12.47V136.64H32.85m2-2H10.47V159H34.85V134.64Z"/><rect class="cls-28" x="41.93" y="166.13" width="22.41" height="22.39"/><path class="cls-24" d="M63.34,167.13v20.39H42.93V167.13H63.34m2-2H40.93v24.39H65.34V165.13Z"/><rect class="cls-29" x="41.93" y="105.15" width="22.41" height="22.39"/><path class="cls-24" d="M63.34,106.15v20.39H42.93V106.15H63.34m2-2H40.93v24.39H65.34V104.15Z"/><rect class="cls-30" x="41.93" y="74.66" width="22.41" height="22.39"/><path class="cls-24" d="M63.34,75.66V96H42.93V75.66H63.34m2-2H40.93V98H65.34V73.66Z"/><rect class="cls-31" x="41.93" y="44.18" width="22.41" height="22.39"/><path class="cls-24" d="M63.34,45.18V65.57H42.93V45.18H63.34m2-2H40.93V67.57H65.34V43.18Z"/><rect class="cls-32" x="72.47" y="166.13" width="22.39" height="22.39"/><path class="cls-22" d="M93.85,167.13v20.39H73.47V167.13H93.85m2-2H71.47v24.39H95.85V165.13Z"/><rect class="cls-33" x="72.47" y="135.64" width="22.39" height="22.39"/><path class="cls-22" d="M93.85,136.64V157H73.47V136.64H93.85m2-2H71.47V159H95.85V134.64Z"/><rect class="cls-34" x="72.47" y="105.15" width="22.39" height="22.39"/><path class="cls-24" d="M93.85,106.15v20.39H73.47V106.15H93.85m2-2H71.47v24.39H95.85V104.15Z"/><rect class="cls-35" x="72.47" y="74.66" width="22.39" height="22.39"/><path class="cls-22" d="M93.85,75.66V96H73.47V75.66H93.85m2-2H71.47V98H95.85V73.66Z"/><rect class="cls-36" x="102.91" y="166.13" width="22.43" height="22.39"/><path class="cls-22" d="M124.34,167.13v20.39H103.91V167.13h20.43m2-2H101.91v24.39h24.43V165.13Z"/><rect class="cls-37" x="102.91" y="135.64" width="22.43" height="22.39"/><path class="cls-22" d="M124.34,136.64V157H103.91V136.64h20.43m2-2H101.91V159h24.43V134.64Z"/><rect class="cls-38" x="102.91" y="105.15" width="22.43" height="22.39"/><path class="cls-24" d="M124.34,106.15v20.39H103.91V106.15h20.43m2-2H101.91v24.39h24.43V104.15Z"/><rect class="cls-39" x="133.44" y="166.13" width="22.36" height="22.39"/><path class="cls-24" d="M154.81,167.13v20.39H134.44V167.13h20.36m2-2H132.44v24.39h24.36V165.13Z"/><rect class="cls-40" x="133.44" y="135.64" width="22.36" height="22.39"/><path class="cls-24" d="M154.81,136.64V157H134.44V136.64h20.36m2-2H132.44V159h24.36V134.64Z"/><rect class="cls-41" x="133.44" y="105.15" width="22.36" height="22.39"/><path class="cls-24" d="M154.81,106.15v20.39H134.44V106.15h20.36m2-2H132.44v24.39h24.36V104.15Z"/><rect class="cls-42" x="133.44" y="74.66" width="22.36" height="22.39"/><path class="cls-24" d="M154.81,75.66V96H134.44V75.66h20.36m2-2H132.44V98h24.36V73.66Z"/><rect class="cls-43" x="133.44" y="44.18" width="22.36" height="22.39"/><path class="cls-24" d="M154.81,45.18V65.57H134.44V45.18h20.36m2-2H132.44V67.57h24.36V43.18Z"/><rect class="cls-44" x="163.93" y="166.13" width="22.39" height="22.39"/><path class="cls-22" d="M185.32,167.13v20.39H164.93V167.13h20.39m2-2H162.93v24.39h24.39V165.13Z"/><rect class="cls-45" x="163.93" y="135.64" width="22.39" height="22.39"/><path class="cls-22" d="M185.32,136.64V157H164.93V136.64h20.39m2-2H162.93V159h24.39V134.64Z"/><rect class="cls-46" x="163.93" y="105.15" width="22.39" height="22.39"/><path class="cls-22" d="M185.32,106.15v20.39H164.93V106.15h20.39m2-2H162.93v24.39h24.39V104.15Z"/><rect class="cls-47" x="163.93" y="74.66" width="22.39" height="22.39"/><path class="cls-22" d="M185.32,75.66V96H164.93V75.66h20.39m2-2H162.93V98h24.39V73.66Z"/><rect class="cls-48" x="163.93" y="44.18" width="22.39" height="22.39"/><path class="cls-22" d="M185.32,45.18V65.57H164.93V45.18h20.39m2-2H162.93V67.57h24.39V43.18Z"/><rect class="cls-49" x="163.93" y="13.67" width="22.39" height="22.39"/><path class="cls-22" d="M185.32,14.67V35.05H164.93V14.67h20.39m2-2H162.93V37.05h24.39V12.67Z"/><polygon class="cls-26" points="95.85 104.14 71.47 128.53 95.85 128.53 95.85 104.14 95.85 104.14"/><polygon class="cls-26" points="156.81 43.17 132.44 67.56 156.81 67.56 156.81 43.17 156.81 43.17"/><polygon class="cls-25" points="187.32 12.67 162.93 37.05 187.32 37.05 187.32 12.67 187.32 12.67"/><rect class="cls-50" x="208.87" y="26.96" width="119.56" height="27.77"/><rect class="cls-51" x="255.6" y="-18.63" width="26.09" height="118.49" transform="matrix(0, -1, 1, 0, 227.47, 309.17)"/><rect class="cls-52" x="209.4" y="50.83" width="118.47" height="2.93"/><path class="cls-53" d="M273.89,33.79a1,1,0,0,0,.2-.57h1.06a1.67,1.67,0,0,1-.51,1.16l.81.62H274l-.18-.14a2.8,2.8,0,0,1-1,.18c-.9,0-1.7-.16-1.74-.85,0-.06,0-.15,0-.19,0-.43.42-.69.86-.9a1.42,1.42,0,0,1-.31-.79v-.19c0-.46.48-.9,1.26-.9s1.14.41,1.17.87c0,0,0,.14,0,.16a1.35,1.35,0,0,1-.75,1Zm-1.71.24c0,.18.17.25.57.25a1.44,1.44,0,0,0,.33,0c-.21-.19-.44-.36-.6-.52C272.31,33.82,272.18,33.92,272.18,34Zm.93-1.71v-.08a.22.22,0,0,0-.24-.23.24.24,0,0,0-.25.25.35.35,0,0,0,0,.1.64.64,0,0,0,.15.35C273,32.59,273.1,32.47,273.11,32.32Z"/><path class="cls-53" d="M281.52,35h-1.26s-.56-2.16-.58-2.28c0,.13-.58,2.28-.58,2.28h-1.25l-1.08-3.75H278s.57,2.32.57,2.44c0-.12.56-2.44.56-2.44h1.19s.57,2.32.57,2.44c0-.12.57-2.44.57-2.44h1.12Z"/><path class="cls-53" d="M286.58,33.09c0,1.32-.63,2-2,2s-2-.67-2-2a1.75,1.75,0,0,1,2-1.92C286,31.18,286.58,31.84,286.58,33.09Zm-1.17,0c0-.75-.2-1-.85-1s-.84.29-.84,1,.29,1.06.84,1.06S285.41,34,285.41,33.12Z"/><path class="cls-53" d="M290.46,33.14a.73.73,0,0,1-.47.36l.88,1.5h-1.3l-.67-1.27h-.78V35H287V31.25h2.39a1.19,1.19,0,0,1,1,.39,1.24,1.24,0,0,1,.22.79A1.38,1.38,0,0,1,290.46,33.14Zm-1-.85c-.06-.12-.17-.16-.34-.16h-1v.76h1c.14,0,.27,0,.31-.12a.68.68,0,0,0,0-.24A.62.62,0,0,0,289.46,32.29Z"/><path class="cls-53" d="M291.2,35V31.25h1.17v2.83h1.81V35Z"/><path class="cls-53" d="M296.67,35h-2.13V31.25h2.07a1.53,1.53,0,0,1,1.34.49,2,2,0,0,1,.28,1.32,2.25,2.25,0,0,1-.26,1.41A1.4,1.4,0,0,1,296.67,35Zm.44-1.95a1.45,1.45,0,0,0-.12-.72.65.65,0,0,0-.57-.2h-.73v2h.73a.66.66,0,0,0,.58-.21A2,2,0,0,0,297.11,33.05Z"/><path class="cls-53" d="M303.56,33.14a.73.73,0,0,1-.47.36L304,35h-1.3L302,33.73h-.78V35H300.1V31.25h2.39a1.19,1.19,0,0,1,1,.39,1.24,1.24,0,0,1,.22.79A1.37,1.37,0,0,1,303.56,33.14Zm-1-.85c-.06-.12-.17-.16-.34-.16h-1v.76h1c.14,0,.27,0,.31-.12a.68.68,0,0,0,0-.24A.62.62,0,0,0,302.56,32.29Z"/><path class="cls-53" d="M304.3,35V31.25h3.21v.88h-2.07v.55h2v.89h-2v.56h2.09V35Z"/><path class="cls-53" d="M311.37,33.45a1.37,1.37,0,0,1-1,.38h-1.16V35H308V31.25h2.32a1.32,1.32,0,0,1,1,.31,1.24,1.24,0,0,1,.34,1A1.29,1.29,0,0,1,311.37,33.45Zm-.94-1.15a.37.37,0,0,0-.37-.18h-.92V33h.91a.39.39,0,0,0,.38-.18.52.52,0,0,0,0-.25A.54.54,0,0,0,310.43,32.3Z"/><path class="cls-53" d="M315.91,33.09c0,1.32-.63,2-2,2s-2-.67-2-2a1.75,1.75,0,0,1,2-1.92C315.33,31.18,315.91,31.84,315.91,33.09Zm-1.17,0c0-.75-.2-1-.85-1s-.84.29-.84,1,.29,1.06.84,1.06S314.75,34,314.75,33.12Z"/><path class="cls-53" d="M319.8,33.14a.73.73,0,0,1-.47.36l.88,1.5h-1.3l-.67-1.27h-.78V35h-1.14V31.25h2.39a1.2,1.2,0,0,1,1,.39,1.24,1.24,0,0,1,.22.79A1.38,1.38,0,0,1,319.8,33.14Zm-1-.85c-.06-.12-.17-.16-.34-.16h-1v.76h1c.14,0,.27,0,.31-.12a.68.68,0,0,0,0-.24A.62.62,0,0,0,318.8,32.29Z"/><path class="cls-53" d="M322.63,32.15V35h-1.18V32.15h-1.2v-.9h3.58v.9Z"/><path class="cls-53" d="M209.12,27.18V54.45h119V27.18Zm118.49.56v22.8h-6.36c2.29-.62,3.36-2,3.36-4,0-2.63-1.48-3.89-4.86-4.4l-3.27-.49c-2-.31-2.43-.54-2.43-1.15s.66-1,2.91-1c1.94,0,2.69.33,3,.72a1.76,1.76,0,0,1,.18.77h4a7,7,0,0,0-.26-1.69c-.72-2-3.15-3-7-3-4.53,0-6.78,1.64-6.78,4.14,0,2.69,1.48,4,4.58,4.47l3.07.46c2.07.31,2.92.49,2.92,1.28s-.72,1.23-3,1.23-3.3-.18-3.55-.84a2.12,2.12,0,0,1-.13-.72h-4.06a5.75,5.75,0,0,0,.15,1.41c.37,1.45,1.4,2.36,3.3,2.84h-7.69l5-13.91h-4l-3.3,10.46L300.1,36.64h-4.55L292.46,47.1l-3.38-10.46h-4.27l5,13.91h-8.47a7.34,7.34,0,0,0,2.07-.89,5.76,5.76,0,0,0,2.56-3.53h-4a2,2,0,0,1-1.18,1.1,6.47,6.47,0,0,1-2.58.46,4.46,4.46,0,0,1-3.27-1,2.39,2.39,0,0,1-.77-1.66H286a8.42,8.42,0,0,0-1.2-5.68c-1.25-1.82-3.45-3-6.67-3-3.07,0-5.5,1.15-6.85,3.12a7.17,7.17,0,0,0-1.23,4.17,7.88,7.88,0,0,0,1.07,4.27A6.33,6.33,0,0,0,275,50.55h-5.5V31.64h-4V43.92l-7.34-12.28h-4.85V50.55h-.72V46.82h-3a5.67,5.67,0,0,0,.23-1.62c0-3.26-2-4.83-5.77-5.55-.43-.07-1.69-.34-2.65-.53-3.11-.63-4.25-1.18-4.25-2.58,0-1.09.63-1.79,3.79-1.79,2.41,0,3.45.55,4,1.62a2.67,2.67,0,0,1,.27.94h4.3a5.88,5.88,0,0,0-.43-1.83c-1-2.41-3.21-4.08-8-4.08-5.6,0-8.2,2.17-8.2,5.4s2.29,4.88,6,5.58l2.8.53c3.09.58,3.89,1.13,3.89,2.7,0,1.25-1,2.05-3.91,2.05-2.53,0-3.79-.48-4.32-1.59a3.37,3.37,0,0,1-.27-1.21h-4.3a8.09,8.09,0,0,0,.27,2c.55,1.71,1.75,3.08,4.44,3.73h-4.61V46.82h-3a5.85,5.85,0,0,0,.3-1.89V31.64H226V44.36c0,2-1.69,3.16-4.08,3.16-2.73,0-4.22-1.18-4.22-3.18V31.64h-4.17V44.69c0,3.28,1.91,5.11,4.81,5.85h-8.67V27.74Zm0,23.5v2.49H209.68V51.25Zm-102.31-.7a6.81,6.81,0,0,0,3.85-2.31v2.31Zm20,0a6.38,6.38,0,0,0,3.65-2.27v2.27Zm12.07,0V37.79l7.58,12.75Zm37.44,0c.38-1.11,2.71-8,2.73-8.41,0-.15.18-1,.18-1s.15.83.18,1c0,.42,2.38,7.28,2.76,8.38ZM274.1,42.29A2.91,2.91,0,0,1,275,40.6a4.75,4.75,0,0,1,3.22-1,4.19,4.19,0,0,1,3.09,1.07,2.47,2.47,0,0,1,.69,1.61Z"/></svg>