<svg id="Layer_1" data-name="Layer 1" xmlns="http://www.w3.org/2000/svg" viewBox="0 0 360 144"><defs><style>.cls-1{fill:#109ad6;}.cls-2{fill:#005da4;}.cls-3{fill:#001423;}.cls-4{fill:#ed1c24;}.cls-5{fill:#fff;}.cls-6{fill:#1099d6;}</style></defs><title>Artboard 1</title><path class="cls-1" d="M27.43,121.44h2l4.59,6v-6h2.13v9.8H34.31L29.56,125v6.23H27.43Z"/><path class="cls-1" d="M43.52,131.4a5.33,5.33,0,0,1-2.09-.4,5.19,5.19,0,0,1-1.65-1.08,4.83,4.83,0,0,1-1.08-1.6,5,5,0,0,1-.38-2v0a5,5,0,0,1,.39-2,5,5,0,0,1,2.74-2.7,5.68,5.68,0,0,1,4.18,0,5.2,5.2,0,0,1,1.65,1.08,4.83,4.83,0,0,1,1.08,1.6,5,5,0,0,1,.39,2v0a5,5,0,0,1-.39,2,5,5,0,0,1-2.74,2.7A5.38,5.38,0,0,1,43.52,131.4Zm0-2a3,3,0,0,0,1.19-.24,2.72,2.72,0,0,0,.93-.66,3.11,3.11,0,0,0,.6-1,3.21,3.21,0,0,0,.22-1.18v0a3.26,3.26,0,0,0-.22-1.19,2.94,2.94,0,0,0-1.56-1.65,2.88,2.88,0,0,0-1.19-.25,2.94,2.94,0,0,0-1.2.24,2.74,2.74,0,0,0-.92.66,3.1,3.1,0,0,0-.6,1,3.22,3.22,0,0,0-.22,1.18v0a3.27,3.27,0,0,0,.22,1.19,3,3,0,0,0,1.55,1.64A2.85,2.85,0,0,0,43.55,129.42Z"/><path class="cls-1" d="M49.5,121.44h2.38l2.56,6.9,2.56-6.9h2.32l-4,9.87h-1.9Z"/><path class="cls-1" d="M61,121.44h7.38v1.92H63.13v2h4.62v1.92H63.13v2.06h5.32v1.92H61Z"/><path class="cls-1" d="M70.78,121.44H73.1l2.58,4.14,2.58-4.14h2.32v9.8H78.45v-6.4L75.69,129h-.06l-2.73-4.14v6.36H70.78Z"/><path class="cls-1" d="M83.27,121.44h4.54a3.46,3.46,0,0,1,2.56.87A2.26,2.26,0,0,1,91,124v0a2.42,2.42,0,0,1-.1.74,2.33,2.33,0,0,1-.28.58,2.24,2.24,0,0,1-.4.46,2.7,2.7,0,0,1-.49.34,3.31,3.31,0,0,1,1.34.88,2.24,2.24,0,0,1,.49,1.53v0a2.55,2.55,0,0,1-.26,1.18,2.29,2.29,0,0,1-.74.84,3.48,3.48,0,0,1-1.16.5,6.23,6.23,0,0,1-1.5.17H83.27Zm4.09,4a2.25,2.25,0,0,0,1.13-.25.85.85,0,0,0,.42-.79v0a.86.86,0,0,0-.36-.75,1.8,1.8,0,0,0-1.05-.26H85.37v2.07Zm.57,3.95a2.07,2.07,0,0,0,1.12-.26.89.89,0,0,0,.41-.8v0a.92.92,0,0,0-.38-.78,2,2,0,0,0-1.22-.29H85.37v2.16Z"/><path class="cls-1" d="M93.72,121.44h7.38v1.92H95.85v2h4.62v1.92H95.85v2.06h5.32v1.92H93.72Z"/><path class="cls-1" d="M103.5,121.44H108a3.87,3.87,0,0,1,2.86,1,3,3,0,0,1,.84,2.24v0a3.08,3.08,0,0,1-.58,1.94,3.37,3.37,0,0,1-1.52,1.1l2.39,3.5h-2.52l-2.1-3.14h-1.69v3.14H103.5Zm4.34,4.76a1.79,1.79,0,0,0,1.23-.38,1.28,1.28,0,0,0,.43-1v0a1.25,1.25,0,0,0-.45-1,2,2,0,0,0-1.25-.35h-2.14v2.81Z"/><path class="cls-1" d="M119.53,123.55l-1.71.42-.45-1.76,2.81-.84h1.47v9.87h-2.13Z"/><path class="cls-1" d="M124.15,125.87h4.31v2h-4.31Z"/><path class="cls-1" d="M133.39,131.4a5,5,0,0,1-2.26-.47,4.83,4.83,0,0,1-1.56-1.23l1.48-1.42a3.9,3.9,0,0,0,1.06.88,2.69,2.69,0,0,0,1.31.3,1.51,1.51,0,0,0,1-.32,1.07,1.07,0,0,0,.39-.86v0a1,1,0,0,0-.5-.92,2.63,2.63,0,0,0-1.41-.32H132l-.34-1.37L134,123.3h-3.85v-1.86h6.63v1.62l-2.49,2.37a5,5,0,0,1,1,.27,2.85,2.85,0,0,1,.85.5,2.38,2.38,0,0,1,.6.8,2.75,2.75,0,0,1,.23,1.17v0a3.25,3.25,0,0,1-.25,1.28,3,3,0,0,1-.7,1,3.14,3.14,0,0,1-1.12.67A4.3,4.3,0,0,1,133.39,131.4Z"/><path class="cls-1" d="M138.47,132.62q1.48-.15,1.37-1.39H139V129h2.25v1.89a2.59,2.59,0,0,1-.67,2,2.78,2.78,0,0,1-1.91.62Z"/><path class="cls-1" d="M147.39,129.53l3.26-2.67q.46-.38.78-.68a4.35,4.35,0,0,0,.52-.57,2,2,0,0,0,.29-.53,1.69,1.69,0,0,0,.09-.57,1.2,1.2,0,0,0-.36-1,1.39,1.39,0,0,0-1-.32,1.68,1.68,0,0,0-1,.32,5.64,5.64,0,0,0-1,1l-1.51-1.22a8.48,8.48,0,0,1,.73-.87,4.07,4.07,0,0,1,.8-.64,3.45,3.45,0,0,1,.94-.39,4.68,4.68,0,0,1,1.18-.13,4.17,4.17,0,0,1,1.38.22,3.14,3.14,0,0,1,1.06.61,2.72,2.72,0,0,1,.69,1,3.08,3.08,0,0,1,.24,1.25v0a3.48,3.48,0,0,1-.16,1.1,3.27,3.27,0,0,1-.48.91,5.37,5.37,0,0,1-.81.85q-.49.43-1.13.93l-1.6,1.23h4.27v1.86h-7.25Z"/><path class="cls-1" d="M160.72,131.4a4.08,4.08,0,0,1-1.79-.38,4,4,0,0,1-1.37-1.06,4.86,4.86,0,0,1-.87-1.6,6.24,6.24,0,0,1-.31-2v0a6.12,6.12,0,0,1,.31-2,5,5,0,0,1,.89-1.61,4.15,4.15,0,0,1,1.38-1.08,4.1,4.1,0,0,1,4.93,1.06,5,5,0,0,1,.88,1.6,6.13,6.13,0,0,1,.31,2v0a6.12,6.12,0,0,1-.31,2,5,5,0,0,1-.89,1.61A4.15,4.15,0,0,1,162.5,131,4,4,0,0,1,160.72,131.4Zm0-1.95a1.71,1.71,0,0,0,.88-.23,2.11,2.11,0,0,0,.67-.64,3.13,3.13,0,0,0,.43-1,4.92,4.92,0,0,0,.15-1.24v0a4.72,4.72,0,0,0-.15-1.24,3.26,3.26,0,0,0-.44-1,2.2,2.2,0,0,0-.69-.66,1.68,1.68,0,0,0-.87-.24,1.7,1.7,0,0,0-.88.23,2,2,0,0,0-.67.64,3.37,3.37,0,0,0-.43,1,4.7,4.7,0,0,0-.15,1.24v0a4.78,4.78,0,0,0,.15,1.25,3.23,3.23,0,0,0,.43,1,2.15,2.15,0,0,0,.68.65A1.71,1.71,0,0,0,160.75,129.46Z"/><path class="cls-1" d="M168.32,123.55l-1.71.42-.45-1.76,2.81-.84h1.47v9.87h-2.13Z"/><path class="cls-1" d="M177.29,123.3h-4.61v-1.86h7.06v1.62l-4.4,8.18H172.9Z"/><path class="cls-2" d="M27.47,38.69H34.6v12H48.44v-12h7.13V70.82H48.44V56.93H34.6V70.82H27.47Z"/><path class="cls-2" d="M62.74,38.69h22v6.54H69.87v6h14v6.54h-14v6.54H85.53v6.54H62.74Z"/><path class="cls-2" d="M102.66,38.69h5.89l14.07,32.13h-8L111.79,64H99.23l-2.7,6.81H88.68ZM105.4,48l-3.93,10h7.9Z"/><path class="cls-2" d="M126.33,38.69h7.13v25.6h13.2v6.54H126.33Z"/><path class="cls-2" d="M153.46,45h-9.23V38.69h25.58V45h-9.23V70.82h-7.13Z"/><path class="cls-2" d="M173.56,38.69h7.13v12h13.84v-12h7.13V70.82h-7.13V56.93H180.69V70.82h-7.13Z"/><path class="cls-2" d="M229.81,47a7,7,0,0,0-2.58-2,8.64,8.64,0,0,0-3.54-.68A8.88,8.88,0,0,0,217,47.33a10,10,0,0,0-2,3.29,12.46,12.46,0,0,0,0,8.28A10.29,10.29,0,0,0,217,62.17a8.78,8.78,0,0,0,2.9,2.16,8.43,8.43,0,0,0,3.59.77,8.07,8.07,0,0,0,3.88-.91,7.7,7.7,0,0,0,2.79-2.54l5.94,4.4a12.35,12.35,0,0,1-5.21,4.22,16.21,16.21,0,0,1-6.49,1.36,20,20,0,0,1-7-1.18,16,16,0,0,1-5.53-3.38,15.33,15.33,0,0,1-3.63-5.33,19.41,19.41,0,0,1,0-14,15.34,15.34,0,0,1,3.63-5.33,16,16,0,0,1,5.53-3.38,20,20,0,0,1,7-1.18,17.24,17.24,0,0,1,2.85.25,15.53,15.53,0,0,1,2.92.79,13.09,13.09,0,0,1,2.76,1.45,11,11,0,0,1,2.37,2.22Z"/><path class="cls-2" d="M251.44,38.69h5.89L271.4,70.82h-8L260.57,64H248l-2.7,6.81h-7.86ZM254.18,48l-3.93,10h7.9Z"/><path class="cls-2" d="M275,38.69h12.52a22.22,22.22,0,0,1,4.68.48,11.16,11.16,0,0,1,3.88,1.59,8,8,0,0,1,2.65,3,10.1,10.1,0,0,1,1,4.7,9.39,9.39,0,0,1-1.78,5.79,8,8,0,0,1-5.21,3l8.22,13.57h-8.54L285.62,58H282.1V70.82H275ZM282.1,52h4.2q1,0,2-.07a6.4,6.4,0,0,0,1.94-.41,3.36,3.36,0,0,0,1.44-1.07,3.23,3.23,0,0,0,.57-2,3.12,3.12,0,0,0-1.78-3.06,5.72,5.72,0,0,0-1.78-.52,14.62,14.62,0,0,0-2-.14H282.1Z"/><path class="cls-2" d="M305.33,38.69h22v6.54H312.46v6h14v6.54h-14v6.54h15.67v6.54H305.33Z"/><path class="cls-1" d="M73.77,80.11H62.94V77.39H87.56v2.72H76.73v29.41h-3Z"/><path class="cls-1" d="M88.1,93.46a18.38,18.38,0,0,1,1.21-6.76,16.12,16.12,0,0,1,3.36-5.33,15.22,15.22,0,0,1,5.17-3.52,18,18,0,0,1,13.3,0,15.22,15.22,0,0,1,5.17,3.52,16.12,16.12,0,0,1,3.36,5.33,19.58,19.58,0,0,1,0,13.55,16.05,16.05,0,0,1-3.36,5.35,15,15,0,0,1-5.17,3.5,18.33,18.33,0,0,1-13.3,0,15,15,0,0,1-5.17-3.5,16.05,16.05,0,0,1-3.36-5.35A18.56,18.56,0,0,1,88.1,93.46Zm3,0A16.22,16.22,0,0,0,92,99a13.28,13.28,0,0,0,2.69,4.49,12.42,12.42,0,0,0,4.23,3,14.8,14.8,0,0,0,11.15,0,12.42,12.42,0,0,0,4.23-3A13.3,13.3,0,0,0,117,99a17,17,0,0,0,0-11.16,13.29,13.29,0,0,0-2.69-4.49,12.41,12.41,0,0,0-4.23-3,14.8,14.8,0,0,0-11.15,0,12.41,12.41,0,0,0-4.23,3A13.26,13.26,0,0,0,92,87.87,16.21,16.21,0,0,0,91.06,93.46Z"/><path class="cls-1" d="M126.59,77.39H131l11.55,27,11.55-27h4.21v32.13h-3V81.2h-.09l-12.09,28.32h-1.3L129.63,81.2h-.09v28.32h-3Z"/><path class="cls-1" d="M164,93.46a18.38,18.38,0,0,1,1.21-6.76,16.12,16.12,0,0,1,3.36-5.33,15.23,15.23,0,0,1,5.17-3.52,18,18,0,0,1,13.3,0,15.22,15.22,0,0,1,5.17,3.52,16.09,16.09,0,0,1,3.36,5.33,19.56,19.56,0,0,1,0,13.55,16,16,0,0,1-3.36,5.35,15,15,0,0,1-5.17,3.5,18.33,18.33,0,0,1-13.3,0,15,15,0,0,1-5.17-3.5,16.05,16.05,0,0,1-3.36-5.35A18.56,18.56,0,0,1,164,93.46Zm3,0A16.22,16.22,0,0,0,167.9,99a13.28,13.28,0,0,0,2.69,4.49,12.42,12.42,0,0,0,4.23,3,14.8,14.8,0,0,0,11.15,0,12.42,12.42,0,0,0,4.23-3A13.28,13.28,0,0,0,192.88,99a17,17,0,0,0,0-11.16,13.26,13.26,0,0,0-2.69-4.49,12.4,12.4,0,0,0-4.23-3,14.8,14.8,0,0,0-11.15,0,12.41,12.41,0,0,0-4.23,3,13.26,13.26,0,0,0-2.69,4.49A16.21,16.21,0,0,0,167,93.46Z"/><path class="cls-1" d="M202.64,77.39H211c.42,0,1,0,1.7,0a17.3,17.3,0,0,1,2.33.27,14.21,14.21,0,0,1,2.55.73,7.23,7.23,0,0,1,2.33,1.45,7.56,7.56,0,0,1,1.7,2.41,8.4,8.4,0,0,1,.67,3.54,8.2,8.2,0,0,1-.78,3.81,7.38,7.38,0,0,1-2,2.43,8.23,8.23,0,0,1-2.62,1.38,16.68,16.68,0,0,1-2.73.64l9.22,15.43H220L211.1,94.27h-5.51v15.25h-3Zm3,14.16h6.27a10.2,10.2,0,0,0,3.78-.59,6.27,6.27,0,0,0,2.26-1.45,4.61,4.61,0,0,0,1.1-1.86A5.82,5.82,0,0,0,219,84a4.62,4.62,0,0,0-1.1-1.86,6.3,6.3,0,0,0-2.26-1.45,10.22,10.22,0,0,0-3.78-.59h-6.27Z"/><path class="cls-1" d="M228.29,77.39h8.33q.63,0,1.7,0a17.31,17.31,0,0,1,2.33.27,14.17,14.17,0,0,1,2.55.73,7.21,7.21,0,0,1,2.33,1.45,7.53,7.53,0,0,1,1.7,2.41,8.4,8.4,0,0,1,.67,3.54,8.18,8.18,0,0,1-.78,3.81,7.38,7.38,0,0,1-2,2.43,8.25,8.25,0,0,1-2.62,1.38,16.66,16.66,0,0,1-2.73.64L249,109.52h-3.36l-8.91-15.25h-5.51v15.25h-3Zm3,14.16h6.27a10.2,10.2,0,0,0,3.78-.59,6.24,6.24,0,0,0,2.26-1.45,4.61,4.61,0,0,0,1.1-1.86,5.79,5.79,0,0,0,0-3.63,4.62,4.62,0,0,0-1.1-1.86,6.27,6.27,0,0,0-2.26-1.45,10.22,10.22,0,0,0-3.78-.59h-6.27Z"/><path class="cls-1" d="M251.64,93.46a18.38,18.38,0,0,1,1.21-6.76,16.09,16.09,0,0,1,3.36-5.33,15.22,15.22,0,0,1,5.17-3.52,18,18,0,0,1,13.3,0,15.22,15.22,0,0,1,5.17,3.52,16.09,16.09,0,0,1,3.36,5.33,19.56,19.56,0,0,1,0,13.55,16,16,0,0,1-3.36,5.35,15,15,0,0,1-5.17,3.5,18.33,18.33,0,0,1-13.3,0,15,15,0,0,1-5.17-3.5,16,16,0,0,1-3.36-5.35A18.56,18.56,0,0,1,251.64,93.46Zm3,0a16.2,16.2,0,0,0,.94,5.58,13.28,13.28,0,0,0,2.69,4.49,12.42,12.42,0,0,0,4.23,3,14.8,14.8,0,0,0,11.15,0,12.42,12.42,0,0,0,4.23-3A13.28,13.28,0,0,0,280.51,99a17,17,0,0,0,0-11.16,13.26,13.26,0,0,0-2.69-4.49,12.4,12.4,0,0,0-4.23-3,14.8,14.8,0,0,0-11.15,0,12.4,12.4,0,0,0-4.23,3,13.26,13.26,0,0,0-2.69,4.49A16.19,16.19,0,0,0,254.59,93.46Z"/><path class="cls-1" d="M285.85,77.39h3l7.88,28.46h.09l8-28.46h3.76l8,28.46h.09l7.88-28.46h3l-9.22,32.13h-3.63l-8-28.59h-.09l-8,28.59h-3.63Z"/><path class="cls-1" d="M27.93,84.15a6.91,6.91,0,0,1,.6-2.91A6.39,6.39,0,0,1,30.2,79a7.53,7.53,0,0,1,2.54-1.41,10.77,10.77,0,0,1,6.43,0A7.55,7.55,0,0,1,41.72,79a6.41,6.41,0,0,1,1.67,2.22,7.37,7.37,0,0,1,0,5.82,6.39,6.39,0,0,1-1.67,2.22,7.53,7.53,0,0,1-2.54,1.41,10.78,10.78,0,0,1-6.43,0,7.52,7.52,0,0,1-2.54-1.41,6.37,6.37,0,0,1-1.67-2.22A6.9,6.9,0,0,1,27.93,84.15Zm3.4,0a4.46,4.46,0,0,0,.33,1.73,3.91,3.91,0,0,0,.94,1.36,4.29,4.29,0,0,0,1.46.9,5.79,5.79,0,0,0,3.8,0,4.31,4.31,0,0,0,1.46-.9,3.93,3.93,0,0,0,.94-1.36,4.74,4.74,0,0,0,0-3.45,3.92,3.92,0,0,0-.94-1.37,4.31,4.31,0,0,0-1.46-.9,5.79,5.79,0,0,0-3.8,0,4.29,4.29,0,0,0-1.46.9,3.9,3.9,0,0,0-.94,1.37A4.49,4.49,0,0,0,31.33,84.15Z"/><path class="cls-1" d="M46.24,77.46h10v2.72h-6.7v2.72h6.2v2.72h-6.2v5.22H46.24Z"/><path class="cls-1" d="M129.1,23.61h4.1a4.37,4.37,0,0,1,1.46.23,2.88,2.88,0,0,1,1.05.63,2.15,2.15,0,0,1,.62,1.54v0a2.46,2.46,0,0,1-.13.83,2.09,2.09,0,0,1-.35.63,2.37,2.37,0,0,1-.49.45,3.18,3.18,0,0,1-.56.31,4.32,4.32,0,0,1,.8.32,2.72,2.72,0,0,1,.65.48,2.12,2.12,0,0,1,.44.66,2.18,2.18,0,0,1,.17.88v0a2.42,2.42,0,0,1-.25,1.11,2.3,2.3,0,0,1-.71.83,3.38,3.38,0,0,1-1.11.52,5.32,5.32,0,0,1-1.43.18H129.1ZM133,27.89a2.72,2.72,0,0,0,1.6-.43,1.47,1.47,0,0,0,.61-1.28v0a1.37,1.37,0,0,0-.55-1.14,2.54,2.54,0,0,0-1.58-.43h-2.93v3.31Zm.39,4.38a2.92,2.92,0,0,0,1.73-.45,1.47,1.47,0,0,0,.63-1.27v0a1.39,1.39,0,0,0-.65-1.22,3.44,3.44,0,0,0-1.91-.43h-3v3.4Z"/><path class="cls-1" d="M139,23.61h7v1h-5.88V27.9h5.26v1h-5.26v3.39h6v1h-7Z"/><path class="cls-1" d="M151.6,33.39a5.7,5.7,0,0,1-2.12-.38,6,6,0,0,1-1.83-1.16l.67-.8a5.7,5.7,0,0,0,1.53,1,4.4,4.4,0,0,0,1.78.34,2.46,2.46,0,0,0,1.56-.46,1.44,1.44,0,0,0,.59-1.18v0a1.57,1.57,0,0,0-.11-.6,1.23,1.23,0,0,0-.39-.49,2.75,2.75,0,0,0-.77-.4,9.92,9.92,0,0,0-1.25-.34,10,10,0,0,1-1.44-.41,3.6,3.6,0,0,1-1-.56,2.06,2.06,0,0,1-.59-.77,2.55,2.55,0,0,1-.19-1v0a2.36,2.36,0,0,1,.23-1,2.44,2.44,0,0,1,.66-.83,3.23,3.23,0,0,1,1-.55,3.87,3.87,0,0,1,1.27-.2,5.29,5.29,0,0,1,1.85.3,5.65,5.65,0,0,1,1.54.89l-.63.84a4.73,4.73,0,0,0-1.36-.8,4.14,4.14,0,0,0-1.43-.25,2.31,2.31,0,0,0-1.5.45,1.37,1.37,0,0,0-.55,1.11v0a1.6,1.6,0,0,0,.11.61,1.24,1.24,0,0,0,.4.5,2.91,2.91,0,0,0,.8.41,9.6,9.6,0,0,0,1.31.35,5.7,5.7,0,0,1,2.38,1,2.13,2.13,0,0,1,.76,1.74v0a2.54,2.54,0,0,1-.25,1.12,2.56,2.56,0,0,1-.67.86,3,3,0,0,1-1,.55A4.37,4.37,0,0,1,151.6,33.39Z"/><path class="cls-1" d="M159.64,24.61H156.4v-1H164v1h-3.24v8.64h-1.09Z"/><path class="cls-1" d="M170.15,23.61h1.09v4.28h5.57V23.61h1.09v9.64h-1.09V28.91h-5.57v4.34h-1.09Z"/><path class="cls-1" d="M185.1,33.41a4.89,4.89,0,0,1-2-.4,4.77,4.77,0,0,1-1.55-1.08,4.82,4.82,0,0,1-1-1.58,5.17,5.17,0,0,1-.35-1.89v0a5.13,5.13,0,0,1,.36-1.9,4.9,4.9,0,0,1,1-1.59,4.85,4.85,0,0,1,3.57-1.5,4.89,4.89,0,0,1,2,.4,4.77,4.77,0,0,1,1.55,1.08,4.83,4.83,0,0,1,1,1.58A5.17,5.17,0,0,1,190,28.4a0,0,0,0,1,0,0,5.13,5.13,0,0,1-.36,1.9,4.83,4.83,0,0,1-4.57,3.09Zm0-1a3.69,3.69,0,0,0,1.52-.31,3.6,3.6,0,0,0,1.19-.85,4,4,0,0,0,.78-1.25,4.17,4.17,0,0,0,.28-1.54v0a4.22,4.22,0,0,0-.28-1.55,3.79,3.79,0,0,0-2-2.11,3.63,3.63,0,0,0-1.52-.32,3.69,3.69,0,0,0-1.52.31,3.6,3.6,0,0,0-1.19.85,4,4,0,0,0-.78,1.25,4.17,4.17,0,0,0-.28,1.54v0a4.21,4.21,0,0,0,.28,1.55,3.8,3.8,0,0,0,2,2.12A3.63,3.63,0,0,0,185.13,32.41Z"/><path class="cls-1" d="M195.65,33.39a5.7,5.7,0,0,1-2.12-.38,6,6,0,0,1-1.83-1.16l.67-.8a5.7,5.7,0,0,0,1.53,1,4.4,4.4,0,0,0,1.78.34,2.46,2.46,0,0,0,1.56-.46,1.44,1.44,0,0,0,.59-1.18v0a1.57,1.57,0,0,0-.11-.6,1.23,1.23,0,0,0-.39-.49,2.75,2.75,0,0,0-.77-.4,9.92,9.92,0,0,0-1.25-.34,10,10,0,0,1-1.44-.41,3.6,3.6,0,0,1-1-.56,2.06,2.06,0,0,1-.59-.77,2.55,2.55,0,0,1-.19-1v0a2.36,2.36,0,0,1,.23-1,2.44,2.44,0,0,1,.66-.83,3.23,3.23,0,0,1,1-.55,3.87,3.87,0,0,1,1.27-.2,5.29,5.29,0,0,1,1.85.3,5.65,5.65,0,0,1,1.54.89l-.63.84a4.73,4.73,0,0,0-1.36-.8,4.14,4.14,0,0,0-1.43-.25,2.31,2.31,0,0,0-1.5.45,1.37,1.37,0,0,0-.55,1.11v0a1.6,1.6,0,0,0,.11.61,1.24,1.24,0,0,0,.4.5,2.91,2.91,0,0,0,.8.41,9.6,9.6,0,0,0,1.31.35,5.7,5.7,0,0,1,2.38,1,2.13,2.13,0,0,1,.76,1.74v0a2.54,2.54,0,0,1-.25,1.12,2.56,2.56,0,0,1-.67.86,3,3,0,0,1-1,.55A4.37,4.37,0,0,1,195.65,33.39Z"/><path class="cls-1" d="M201.15,23.61h3.61a4.87,4.87,0,0,1,1.48.21,3.4,3.4,0,0,1,1.14.61,2.62,2.62,0,0,1,.73,1,3.08,3.08,0,0,1,.25,1.28v0A2.84,2.84,0,0,1,207.25,29a3.56,3.56,0,0,1-1.21.6,5.24,5.24,0,0,1-1.46.2h-2.34v3.4h-1.09Zm3.48,5.26a3.65,3.65,0,0,0,1.08-.15,2.52,2.52,0,0,0,.84-.44,1.93,1.93,0,0,0,.54-.67,2,2,0,0,0,.19-.87v0a1.84,1.84,0,0,0-.71-1.57,3.08,3.08,0,0,0-1.89-.53h-2.45v4.26Z"/><path class="cls-1" d="M210.45,23.61h1.09v9.64h-1.09Z"/><path class="cls-1" d="M216.91,24.61h-3.24v-1h7.56v1H218v8.64h-1.09Z"/><path class="cls-1" d="M226.86,23.54h1l4.4,9.71H231.1L230,30.7h-5.25l-1.14,2.55h-1.12Zm2.69,6.19-2.19-4.92-2.2,4.92Z"/><path class="cls-1" d="M234.18,23.61h1.09v8.64h5.43v1h-6.52Z"/><path class="cls-1" d="M246,33.39a5.7,5.7,0,0,1-2.12-.38,6,6,0,0,1-1.83-1.16l.67-.8a5.7,5.7,0,0,0,1.53,1,4.4,4.4,0,0,0,1.78.34,2.46,2.46,0,0,0,1.56-.46,1.44,1.44,0,0,0,.59-1.18v0a1.57,1.57,0,0,0-.11-.6,1.23,1.23,0,0,0-.39-.49,2.75,2.75,0,0,0-.77-.4,9.92,9.92,0,0,0-1.25-.34,10,10,0,0,1-1.44-.41,3.6,3.6,0,0,1-1-.56,2.06,2.06,0,0,1-.59-.77,2.55,2.55,0,0,1-.19-1v0a2.36,2.36,0,0,1,.23-1,2.44,2.44,0,0,1,.66-.83,3.23,3.23,0,0,1,1-.55,3.87,3.87,0,0,1,1.27-.2,5.29,5.29,0,0,1,1.85.3,5.65,5.65,0,0,1,1.54.89l-.63.84a4.73,4.73,0,0,0-1.36-.8,4.14,4.14,0,0,0-1.43-.25,2.31,2.31,0,0,0-1.5.45,1.37,1.37,0,0,0-.55,1.11v0a1.6,1.6,0,0,0,.11.61,1.24,1.24,0,0,0,.4.5,2.91,2.91,0,0,0,.8.41,9.6,9.6,0,0,0,1.31.35,5.7,5.7,0,0,1,2.38,1,2.13,2.13,0,0,1,.76,1.74v0a2.54,2.54,0,0,1-.25,1.12,2.56,2.56,0,0,1-.67.86,3,3,0,0,1-1,.55A4.37,4.37,0,0,1,246,33.39Z"/><path class="cls-1" d="M255.65,23.61h3.61a4.87,4.87,0,0,1,1.48.21,3.4,3.4,0,0,1,1.14.61,2.62,2.62,0,0,1,.73,1,3.08,3.08,0,0,1,.25,1.28v0A2.84,2.84,0,0,1,261.75,29a3.56,3.56,0,0,1-1.21.6,5.24,5.24,0,0,1-1.46.2h-2.34v3.4h-1.09Zm3.48,5.26a3.65,3.65,0,0,0,1.08-.15,2.52,2.52,0,0,0,.84-.44,1.93,1.93,0,0,0,.54-.67,2,2,0,0,0,.19-.87v0a1.84,1.84,0,0,0-.71-1.57,3.08,3.08,0,0,0-1.89-.53h-2.45v4.26Z"/><path class="cls-1" d="M264.86,23.61H269a4.61,4.61,0,0,1,1.59.25,3.11,3.11,0,0,1,1.15.71,2.48,2.48,0,0,1,.55.84,2.84,2.84,0,0,1,.19,1.06v0a2.87,2.87,0,0,1-.19,1.08,2.48,2.48,0,0,1-.54.83,2.92,2.92,0,0,1-.83.58,4,4,0,0,1-1,.32l3,3.94H271.5l-2.8-3.75h-2.76v3.75h-1.09Zm4.06,4.92a3.42,3.42,0,0,0,1-.14,2.43,2.43,0,0,0,.79-.39,1.76,1.76,0,0,0,.71-1.45v0a1.67,1.67,0,0,0-.65-1.4,2.91,2.91,0,0,0-1.82-.5h-3v3.91Z"/><path class="cls-1" d="M274.82,23.61h7v1H275.9V27.9h5.26v1H275.9v3.39h6v1h-7Z"/><path class="cls-1" d="M287.37,33.39a5.7,5.7,0,0,1-2.12-.38,6,6,0,0,1-1.83-1.16l.67-.8a5.7,5.7,0,0,0,1.53,1,4.4,4.4,0,0,0,1.78.34,2.46,2.46,0,0,0,1.56-.46,1.44,1.44,0,0,0,.59-1.18v0a1.57,1.57,0,0,0-.11-.6,1.23,1.23,0,0,0-.39-.49,2.75,2.75,0,0,0-.77-.4,9.92,9.92,0,0,0-1.25-.34,10,10,0,0,1-1.44-.41,3.6,3.6,0,0,1-1-.56,2.06,2.06,0,0,1-.59-.77,2.55,2.55,0,0,1-.19-1v0a2.36,2.36,0,0,1,.23-1,2.44,2.44,0,0,1,.66-.83,3.23,3.23,0,0,1,1-.55,3.87,3.87,0,0,1,1.27-.2,5.29,5.29,0,0,1,1.85.3,5.65,5.65,0,0,1,1.54.89l-.63.84a4.73,4.73,0,0,0-1.36-.8,4.14,4.14,0,0,0-1.43-.25,2.31,2.31,0,0,0-1.5.45,1.37,1.37,0,0,0-.55,1.11v0a1.6,1.6,0,0,0,.11.61,1.24,1.24,0,0,0,.4.5,2.91,2.91,0,0,0,.8.41,9.6,9.6,0,0,0,1.31.35,5.7,5.7,0,0,1,2.38,1,2.13,2.13,0,0,1,.76,1.74v0a2.54,2.54,0,0,1-.25,1.12,2.56,2.56,0,0,1-.67.86,3,3,0,0,1-1,.55A4.37,4.37,0,0,1,287.37,33.39Z"/><path class="cls-1" d="M292.86,23.61h7v1H294V27.9h5.26v1H294v3.39h6v1h-7Z"/><path class="cls-1" d="M302.1,23.61h1l6.08,7.73V23.61h1.06v9.64h-.87l-6.23-7.91v7.91H302.1Z"/><path class="cls-1" d="M315.53,24.61h-3.24v-1h7.56v1h-3.24v8.64h-1.09Z"/><path class="cls-1" d="M325.23,33.39a5.7,5.7,0,0,1-2.12-.38,6,6,0,0,1-1.83-1.16L322,31a5.7,5.7,0,0,0,1.53,1,4.4,4.4,0,0,0,1.78.34,2.46,2.46,0,0,0,1.56-.46,1.44,1.44,0,0,0,.59-1.18v0a1.57,1.57,0,0,0-.11-.6,1.23,1.23,0,0,0-.39-.49,2.75,2.75,0,0,0-.77-.4,9.92,9.92,0,0,0-1.25-.34,10,10,0,0,1-1.44-.41,3.6,3.6,0,0,1-1-.56,2.06,2.06,0,0,1-.59-.77,2.55,2.55,0,0,1-.19-1v0a2.36,2.36,0,0,1,.23-1,2.44,2.44,0,0,1,.66-.83,3.23,3.23,0,0,1,1-.55,3.87,3.87,0,0,1,1.27-.2,5.29,5.29,0,0,1,1.85.3,5.65,5.65,0,0,1,1.54.89l-.63.84a4.73,4.73,0,0,0-1.36-.8,4.14,4.14,0,0,0-1.43-.25,2.31,2.31,0,0,0-1.5.45,1.37,1.37,0,0,0-.55,1.11v0a1.6,1.6,0,0,0,.11.61,1.24,1.24,0,0,0,.4.5,2.91,2.91,0,0,0,.8.41,9.6,9.6,0,0,0,1.31.35,5.7,5.7,0,0,1,2.38,1,2.13,2.13,0,0,1,.76,1.74v0a2.54,2.54,0,0,1-.25,1.12,2.56,2.56,0,0,1-.67.86,3,3,0,0,1-1,.55A4.37,4.37,0,0,1,325.23,33.39Z"/><path class="cls-3" d="M123.45,33.48H27.31V9.74h96.14ZM28.1,32.69h94.56V10.53H28.1Z"/><rect class="cls-2" x="27.7" y="10.14" width="95.35" height="22.95"/><rect class="cls-4" x="27.7" y="29.39" width="95.34" height="3.69"/><path class="cls-5" d="M27.48,9.91v23.4h95.8V9.91Zm95.35.45v18.8h-5.12c1.84-.5,2.7-1.57,2.7-3.21,0-2.12-1.19-3.13-3.91-3.54L113.87,22c-1.6-.25-2-.43-2-.93s.54-.82,2.35-.82c1.56,0,2.16.27,2.39.58a1.41,1.41,0,0,1,.14.62H120a5.57,5.57,0,0,0-.21-1.36c-.58-1.63-2.53-2.43-5.64-2.43-3.64,0-5.45,1.32-5.45,3.33s1.19,3.25,3.68,3.6l2.47.37c1.67.25,2.35.39,2.35,1s-.58,1-2.45,1-2.65-.14-2.86-.68a1.7,1.7,0,0,1-.1-.58H108.5a4.62,4.62,0,0,0,.12,1.13,3.17,3.17,0,0,0,2.66,2.28h-6.19l4-11.19H105.9l-2.65,8.42L100.7,18H97l-2.49,8.42L91.83,18H88.39l4,11.19H85.58a5.93,5.93,0,0,0,1.66-.72A4.63,4.63,0,0,0,89.3,25.6H86.07a1.58,1.58,0,0,1-.95.88,5.21,5.21,0,0,1-2.08.37A3.59,3.59,0,0,1,80.41,26a1.93,1.93,0,0,1-.62-1.34h9.59a6.78,6.78,0,0,0-1-4.57c-1-1.46-2.78-2.41-5.37-2.41a6.43,6.43,0,0,0-5.51,2.51,5.77,5.77,0,0,0-1,3.35A6.34,6.34,0,0,0,77.41,27a5.1,5.1,0,0,0,3.1,2.16H76.08V13.95h-3.2v9.88L67,13.95h-3.9V29.16h-.58v-3H60.07a4.54,4.54,0,0,0,.18-1.3c0-2.62-1.59-3.88-4.64-4.47-.35-.06-1.36-.27-2.14-.43-2.51-.51-3.42-1-3.42-2.08,0-.87.5-1.44,3-1.44,1.94,0,2.78.45,3.18,1.3a2.14,2.14,0,0,1,.21.76H60A4.73,4.73,0,0,0,59.62,17c-.78-1.94-2.58-3.28-6.43-3.28-4.51,0-6.6,1.75-6.6,4.35s1.84,3.92,4.84,4.49l2.25.43c2.49.47,3.13.91,3.13,2.17,0,1-.82,1.65-3.15,1.65-2,0-3-.39-3.48-1.28a2.71,2.71,0,0,1-.21-1H46.51a6.52,6.52,0,0,0,.21,1.57,4.4,4.4,0,0,0,3.57,3H46.58v-3H44.19a4.7,4.7,0,0,0,.24-1.52V13.95H41.07V24.18c0,1.59-1.36,2.54-3.28,2.54-2.19,0-3.4-1-3.4-2.56V13.95H31V24.45c0,2.64,1.54,4.11,3.87,4.71h-7V10.36Zm0,19.25v3.24H27.93V29.61Zm-82.33-.45a5.48,5.48,0,0,0,3.1-1.86v1.86Zm16.07,0a5.13,5.13,0,0,0,2.94-1.82v1.82Zm9.72,0V18.9l6.1,10.26Zm30.13,0c.3-.89,2.18-6.41,2.2-6.77l.14-.79s.12.67.14.81c0,.34,1.92,5.86,2.22,6.75ZM79.78,22.52a2.34,2.34,0,0,1,.7-1.36,3.83,3.83,0,0,1,2.59-.8,3.37,3.37,0,0,1,2.49.86,2,2,0,0,1,.56,1.3Z"/><path class="cls-5" d="M79.61,15.8a.79.79,0,0,0,.16-.46h.85a1.34,1.34,0,0,1-.41.94l.65.5H79.71l-.14-.11a2.25,2.25,0,0,1-.84.15c-.72,0-1.37-.13-1.4-.68,0,0,0-.12,0-.16,0-.34.34-.56.7-.73a1.15,1.15,0,0,1-.25-.64v-.15c0-.37.38-.72,1-.72s.92.33.94.7c0,0,0,.11,0,.13a1.09,1.09,0,0,1-.61.84ZM78.23,16c0,.15.14.2.45.2a1.19,1.19,0,0,0,.26,0c-.17-.15-.36-.29-.48-.42C78.33,15.82,78.23,15.91,78.23,16ZM79,14.62v-.06a.18.18,0,0,0-.19-.19.2.2,0,0,0-.2.2.27.27,0,0,0,0,.08.52.52,0,0,0,.12.28C78.86,14.83,79,14.74,79,14.62Z"/><path class="cls-5" d="M85.75,16.77h-1s-.45-1.74-.47-1.84c0,.1-.47,1.84-.47,1.84h-1l-.87-3h1s.46,1.87.46,2c0-.1.45-2,.45-2h1s.46,1.87.46,2c0-.1.45-2,.45-2h.9Z"/><path class="cls-5" d="M89.82,15.24c0,1.06-.51,1.58-1.62,1.58s-1.62-.54-1.62-1.57a1.41,1.41,0,0,1,1.62-1.55C89.34,13.7,89.82,14.23,89.82,15.24Zm-.94,0c0-.6-.16-.84-.68-.84s-.67.24-.67.84.23.85.68.85S88.88,15.93,88.88,15.26Z"/><path class="cls-5" d="M92.94,15.28a.59.59,0,0,1-.37.29l.71,1.21h-1l-.54-1h-.63v1h-.92v-3h1.92a1,1,0,0,1,.82.32,1,1,0,0,1,.18.64A1.11,1.11,0,0,1,92.94,15.28Zm-.81-.69c0-.1-.14-.13-.27-.13h-.78v.62h.8c.11,0,.21,0,.25-.1a.55.55,0,0,0,0-.19A.5.5,0,0,0,92.14,14.59Z"/><path class="cls-5" d="M93.54,16.77v-3h.94V16h1.46v.75Z"/><path class="cls-5" d="M97.94,16.77H96.22v-3h1.67a1.23,1.23,0,0,1,1.08.39,1.6,1.6,0,0,1,.22,1.06A1.82,1.82,0,0,1,99,16.34,1.13,1.13,0,0,1,97.94,16.77Zm.36-1.57a1.18,1.18,0,0,0-.1-.58.52.52,0,0,0-.46-.16h-.58v1.6h.58a.53.53,0,0,0,.47-.17A1.58,1.58,0,0,0,98.29,15.21Z"/><path class="cls-5" d="M103.48,15.28a.59.59,0,0,1-.37.29l.71,1.21h-1l-.54-1h-.63v1h-.92v-3h1.92a1,1,0,0,1,.82.32,1,1,0,0,1,.18.64A1.11,1.11,0,0,1,103.48,15.28Zm-.81-.69c0-.1-.14-.13-.27-.13h-.78v.62h.8c.11,0,.21,0,.25-.1a.55.55,0,0,0,0-.19A.5.5,0,0,0,102.68,14.59Z"/><path class="cls-5" d="M104.08,16.77v-3h2.58v.71H105v.44h1.6v.72H105v.45h1.69v.7Z"/><path class="cls-5" d="M109.77,15.53a1.1,1.1,0,0,1-.84.31H108v.94h-.94v-3h1.87a1.06,1.06,0,0,1,.8.25,1,1,0,0,1,.27.79A1,1,0,0,1,109.77,15.53ZM109,14.6a.3.3,0,0,0-.29-.14H108v.7h.73A.31.31,0,0,0,109,15a.42.42,0,0,0,0-.2A.44.44,0,0,0,109,14.6Z"/><path class="cls-5" d="M113.42,15.24c0,1.06-.51,1.58-1.62,1.58s-1.62-.54-1.62-1.57a1.41,1.41,0,0,1,1.62-1.55C112.95,13.7,113.42,14.23,113.42,15.24Zm-.94,0c0-.6-.16-.84-.68-.84s-.67.24-.67.84.23.85.68.85S112.48,15.93,112.48,15.26Z"/><path class="cls-5" d="M116.55,15.28a.59.59,0,0,1-.37.29l.71,1.21h-1l-.54-1h-.63v1h-.92v-3h1.92a1,1,0,0,1,.82.32,1,1,0,0,1,.18.64A1.11,1.11,0,0,1,116.55,15.28Zm-.81-.69c0-.1-.14-.13-.27-.13h-.78v.62h.8c.11,0,.21,0,.25-.1a.55.55,0,0,0,0-.19A.5.5,0,0,0,115.74,14.59Z"/><path class="cls-5" d="M118.83,14.48v2.29h-.95V14.48h-1v-.73h2.88v.73Z"/><path class="cls-6" d="M187,120h1.62v12.5H187Z"/><path class="cls-6" d="M195.39,121.32h1.16l2.7,7.87,2.59-7.9h.88l2.59,7.9,2.7-7.87h1.12l-3.37,9.52h-.9l-2.59-7.67-2.61,7.67h-.89Z"/><path class="cls-6" d="M213.82,121.26h1l4.31,9.52H218l-1.11-2.5h-5.14l-1.12,2.5h-1.09Zm2.63,6.06-2.15-4.82-2.16,4.82Z"/><path class="cls-6" d="M224.08,130.91a5.6,5.6,0,0,1-2.07-.37,5.93,5.93,0,0,1-1.79-1.14l.66-.78a5.58,5.58,0,0,0,1.5,1,4.31,4.31,0,0,0,1.74.33,2.41,2.41,0,0,0,1.53-.45,1.41,1.41,0,0,0,.57-1.15v0a1.53,1.53,0,0,0-.11-.59,1.2,1.2,0,0,0-.38-.48,2.71,2.71,0,0,0-.75-.39,9.66,9.66,0,0,0-1.22-.34,9.71,9.71,0,0,1-1.41-.4,3.54,3.54,0,0,1-1-.55,2,2,0,0,1-.58-.76,2.5,2.5,0,0,1-.19-1v0a2.31,2.31,0,0,1,.23-1,2.41,2.41,0,0,1,.65-.82,3.17,3.17,0,0,1,1-.54,3.8,3.8,0,0,1,1.24-.2,5.18,5.18,0,0,1,1.82.29,5.55,5.55,0,0,1,1.5.87l-.62.82a4.63,4.63,0,0,0-1.33-.78,4.05,4.05,0,0,0-1.4-.24,2.26,2.26,0,0,0-1.47.44,1.35,1.35,0,0,0-.54,1.09v0a1.58,1.58,0,0,0,.11.6,1.22,1.22,0,0,0,.39.49,2.89,2.89,0,0,0,.78.41,9.39,9.39,0,0,0,1.28.34,5.57,5.57,0,0,1,2.33,1,2.09,2.09,0,0,1,.75,1.7v0a2.48,2.48,0,0,1-.24,1.1,2.52,2.52,0,0,1-.66.84,3,3,0,0,1-1,.54A4.25,4.25,0,0,1,224.08,130.91Z"/><path class="cls-6" d="M229.47,121.32h1.07v4.2H236v-4.2h1.07v9.45H236v-4.25h-5.45v4.25h-1.07Z"/><path class="cls-6" d="M239.82,121.32h1.07v9.45h-1.07Z"/><path class="cls-6" d="M243.66,121.32h1l6,7.57v-7.57h1v9.45h-.85L244.7,123v7.75h-1Z"/><path class="cls-6" d="M258.71,130.94a5,5,0,0,1-2-.38,4.45,4.45,0,0,1-2.47-2.58,5.37,5.37,0,0,1-.33-1.9v0a5.07,5.07,0,0,1,.34-1.86,4.91,4.91,0,0,1,1-1.56,4.57,4.57,0,0,1,3.43-1.47,6.75,6.75,0,0,1,1.09.08,4.75,4.75,0,0,1,.92.24,4.47,4.47,0,0,1,.8.4,6.53,6.53,0,0,1,.72.53l-.69.81a4.83,4.83,0,0,0-.57-.44,3.77,3.77,0,0,0-.64-.34,4.06,4.06,0,0,0-.76-.22,4.75,4.75,0,0,0-.91-.08,3.37,3.37,0,0,0-1.44.31,3.52,3.52,0,0,0-1.13.84,3.92,3.92,0,0,0-.74,1.23A4.17,4.17,0,0,0,255,126v0a4.49,4.49,0,0,0,.26,1.57,3.69,3.69,0,0,0,.75,1.24,3.42,3.42,0,0,0,1.17.82,3.88,3.88,0,0,0,1.55.3,4.19,4.19,0,0,0,1.53-.28,4.48,4.48,0,0,0,1.2-.67v-2.35H258.6v-1h3.9v3.77a6.09,6.09,0,0,1-1.63,1A5.31,5.31,0,0,1,258.71,130.94Z"/><path class="cls-6" d="M267.08,122.31h-3.17v-1h7.41v1h-3.17v8.46h-1.07Z"/><path class="cls-6" d="M277.24,130.94a4.8,4.8,0,0,1-2-.39,4.65,4.65,0,0,1-2.5-2.61,5.07,5.07,0,0,1-.34-1.86v0a5,5,0,0,1,.35-1.86,4.9,4.9,0,0,1,6.45-2.63,4.65,4.65,0,0,1,2.5,2.61,5.07,5.07,0,0,1,.34,1.86,0,0,0,0,1,0,0,5,5,0,0,1-.35,1.86,4.73,4.73,0,0,1-4.48,3Zm0-1a3.63,3.63,0,0,0,1.49-.3,3.52,3.52,0,0,0,1.17-.83,3.91,3.91,0,0,0,.76-1.23,4.09,4.09,0,0,0,.28-1.51v0a4.14,4.14,0,0,0-.28-1.52,3.72,3.72,0,0,0-2-2.07,3.77,3.77,0,0,0-3,0,3.5,3.5,0,0,0-1.17.83,3.9,3.9,0,0,0-.76,1.23,4.08,4.08,0,0,0-.28,1.51v0a4.14,4.14,0,0,0,.28,1.52,3.72,3.72,0,0,0,2,2.07A3.56,3.56,0,0,0,277.27,130Z"/><path class="cls-6" d="M284.33,121.32h1l6,7.57v-7.57h1v9.45h-.85l-6.1-7.75v7.75h-1Z"/><path class="cls-6" d="M294.28,131.95a1.6,1.6,0,0,0,.73-.47,1,1,0,0,0,.18-.71h-.49v-1.42h1.24v1.22a1.87,1.87,0,0,1-.36,1.25,2,2,0,0,1-1.13.6Z"/><path class="cls-6" d="M302.35,121.32h3.28a5.57,5.57,0,0,1,2,.36,4.81,4.81,0,0,1,1.59,1,4.42,4.42,0,0,1,1,1.49,4.69,4.69,0,0,1,.36,1.86v0a4.73,4.73,0,0,1-.36,1.86,4.4,4.4,0,0,1-1,1.5,4.91,4.91,0,0,1-1.59,1,5.49,5.49,0,0,1-2,.36h-3.28Zm3.28,8.46a4.45,4.45,0,0,0,1.62-.28,3.6,3.6,0,0,0,1.24-.78,3.48,3.48,0,0,0,.78-1.18,3.85,3.85,0,0,0,.28-1.46v0a3.85,3.85,0,0,0-.28-1.46,3.56,3.56,0,0,0-.78-1.19,3.63,3.63,0,0,0-1.24-.8,4.33,4.33,0,0,0-1.62-.29h-2.21v7.48Z"/><path class="cls-6" d="M312.36,129.36h1.24v1.42h-1.24Z"/><path class="cls-6" d="M320.28,130.94a4.65,4.65,0,0,1-3.39-1.41,4.72,4.72,0,0,1-1-1.55,5.06,5.06,0,0,1-.36-1.9v0a5,5,0,0,1,.36-1.89,4.88,4.88,0,0,1,1-1.56,4.62,4.62,0,0,1,1.51-1.05,4.73,4.73,0,0,1,1.92-.38,5.75,5.75,0,0,1,1.17.11,4.85,4.85,0,0,1,1,.3,4.37,4.37,0,0,1,.82.47,7.23,7.23,0,0,1,.73.61l-.73.78a5.94,5.94,0,0,0-1.3-.93,3.65,3.65,0,0,0-4.28.76,3.81,3.81,0,0,0-.77,1.24,4.14,4.14,0,0,0-.28,1.52v0a4.18,4.18,0,0,0,.28,1.53,3.83,3.83,0,0,0,.77,1.24,3.65,3.65,0,0,0,1.16.83,3.47,3.47,0,0,0,1.45.3,3.64,3.64,0,0,0,1.67-.36,5.84,5.84,0,0,0,1.38-1l.7.69a6.8,6.8,0,0,1-.76.68,4.74,4.74,0,0,1-.86.52,4.86,4.86,0,0,1-1,.34A5.22,5.22,0,0,1,320.28,130.94Z"/><path class="cls-6" d="M325.63,129.36h1.24v1.42h-1.24Z"/></svg>