<svg id="Layer_1" data-name="Layer 1" xmlns="http://www.w3.org/2000/svg" viewBox="0 0 360 144"><defs><style>.cls-1{fill:#005da4;}.cls-2{fill:#109ad6;}.cls-3{fill:#001423;}.cls-4{fill:#ed1c24;}.cls-5{fill:#fff;}</style></defs><title>Artboard 1</title><path class="cls-1" d="M28.47,48.69H35.6v12H49.44v-12h7.13V80.82H49.44V66.93H35.6V80.82H28.47Z"/><path class="cls-1" d="M63.74,48.69h22v6.54H70.87v6h14v6.54h-14v6.54H86.53v6.54H63.74Z"/><path class="cls-1" d="M103.66,48.69h5.89l14.07,32.13h-8L112.79,74H100.23l-2.7,6.81H89.68ZM106.4,58l-3.93,10h7.9Z"/><path class="cls-1" d="M127.33,48.69h7.13v25.6h13.2v6.54H127.33Z"/><path class="cls-1" d="M154.46,55h-9.23V48.69h25.58V55h-9.23V80.82h-7.13Z"/><path class="cls-1" d="M174.56,48.69h7.13v12h13.84v-12h7.13V80.82h-7.13V66.93H181.69V80.82h-7.13Z"/><path class="cls-1" d="M230.81,57a7,7,0,0,0-2.58-2,8.64,8.64,0,0,0-3.54-.68A8.88,8.88,0,0,0,218,57.33a10,10,0,0,0-2,3.29,12.46,12.46,0,0,0,0,8.28A10.29,10.29,0,0,0,218,72.17a8.78,8.78,0,0,0,2.9,2.16,8.43,8.43,0,0,0,3.59.77,8.07,8.07,0,0,0,3.88-.91,7.7,7.7,0,0,0,2.79-2.54l5.94,4.4a12.35,12.35,0,0,1-5.21,4.22,16.21,16.21,0,0,1-6.49,1.36,20,20,0,0,1-7-1.18,16,16,0,0,1-5.53-3.38,15.33,15.33,0,0,1-3.63-5.33,19.41,19.41,0,0,1,0-14,15.34,15.34,0,0,1,3.63-5.33,16,16,0,0,1,5.53-3.38,20,20,0,0,1,7-1.18,17.24,17.24,0,0,1,2.85.25,15.53,15.53,0,0,1,2.92.79,13.09,13.09,0,0,1,2.76,1.45,11,11,0,0,1,2.37,2.22Z"/><path class="cls-1" d="M252.44,48.69h5.89L272.4,80.82h-8L261.57,74H249l-2.7,6.81h-7.86ZM255.18,58l-3.93,10h7.9Z"/><path class="cls-1" d="M276,48.69h12.52a22.22,22.22,0,0,1,4.68.48,11.16,11.16,0,0,1,3.88,1.59,8,8,0,0,1,2.65,3,10.1,10.1,0,0,1,1,4.7,9.39,9.39,0,0,1-1.78,5.79,8,8,0,0,1-5.21,3l8.22,13.57h-8.54L286.62,68H283.1V80.82H276ZM283.1,62h4.2q1,0,2-.07a6.4,6.4,0,0,0,1.94-.41,3.36,3.36,0,0,0,1.44-1.07,3.23,3.23,0,0,0,.57-2,3.12,3.12,0,0,0-1.78-3.06,5.72,5.72,0,0,0-1.78-.52,14.62,14.62,0,0,0-2-.14H283.1Z"/><path class="cls-1" d="M306.33,48.69h22v6.54H313.46v6h14v6.54h-14v6.54h15.67v6.54H306.33Z"/><path class="cls-2" d="M74.77,90.11H63.94V87.39H88.56v2.72H77.73v29.41h-3Z"/><path class="cls-2" d="M89.1,103.46a18.38,18.38,0,0,1,1.21-6.76,16.12,16.12,0,0,1,3.36-5.33,15.22,15.22,0,0,1,5.17-3.52,18,18,0,0,1,13.3,0,15.22,15.22,0,0,1,5.17,3.52,16.12,16.12,0,0,1,3.36,5.33,19.58,19.58,0,0,1,0,13.55,16.05,16.05,0,0,1-3.36,5.35,15,15,0,0,1-5.17,3.5,18.33,18.33,0,0,1-13.3,0,15,15,0,0,1-5.17-3.5,16.05,16.05,0,0,1-3.36-5.35A18.56,18.56,0,0,1,89.1,103.46Zm3,0A16.22,16.22,0,0,0,93,109a13.28,13.28,0,0,0,2.69,4.49,12.42,12.42,0,0,0,4.23,3,14.8,14.8,0,0,0,11.15,0,12.42,12.42,0,0,0,4.23-3A13.3,13.3,0,0,0,118,109a17,17,0,0,0,0-11.16,13.29,13.29,0,0,0-2.69-4.49,12.41,12.41,0,0,0-4.23-3,14.8,14.8,0,0,0-11.15,0,12.41,12.41,0,0,0-4.23,3A13.26,13.26,0,0,0,93,97.87,16.21,16.21,0,0,0,92.06,103.46Z"/><path class="cls-2" d="M127.59,87.39H132l11.55,27,11.55-27h4.21v32.13h-3V91.2h-.09l-12.09,28.32h-1.3L130.63,91.2h-.09v28.32h-3Z"/><path class="cls-2" d="M165,103.46a18.38,18.38,0,0,1,1.21-6.76,16.12,16.12,0,0,1,3.36-5.33,15.23,15.23,0,0,1,5.17-3.52,18,18,0,0,1,13.3,0,15.22,15.22,0,0,1,5.17,3.52,16.09,16.09,0,0,1,3.36,5.33,19.56,19.56,0,0,1,0,13.55,16,16,0,0,1-3.36,5.35,15,15,0,0,1-5.17,3.5,18.33,18.33,0,0,1-13.3,0,15,15,0,0,1-5.17-3.5,16.05,16.05,0,0,1-3.36-5.35A18.56,18.56,0,0,1,165,103.46Zm3,0a16.22,16.22,0,0,0,.94,5.58,13.28,13.28,0,0,0,2.69,4.49,12.42,12.42,0,0,0,4.23,3,14.8,14.8,0,0,0,11.15,0,12.42,12.42,0,0,0,4.23-3,13.28,13.28,0,0,0,2.69-4.49,17,17,0,0,0,0-11.16,13.26,13.26,0,0,0-2.69-4.49,12.4,12.4,0,0,0-4.23-3,14.8,14.8,0,0,0-11.15,0,12.41,12.41,0,0,0-4.23,3,13.26,13.26,0,0,0-2.69,4.49A16.21,16.21,0,0,0,168,103.46Z"/><path class="cls-2" d="M203.64,87.39H212c.42,0,1,0,1.7,0a17.3,17.3,0,0,1,2.33.27,14.21,14.21,0,0,1,2.55.73,7.23,7.23,0,0,1,2.33,1.45,7.56,7.56,0,0,1,1.7,2.41,8.4,8.4,0,0,1,.67,3.54,8.2,8.2,0,0,1-.78,3.81,7.38,7.38,0,0,1-2,2.43,8.23,8.23,0,0,1-2.62,1.38,16.68,16.68,0,0,1-2.73.64l9.22,15.43H221l-8.91-15.25h-5.51v15.25h-3Zm3,14.16h6.27a10.2,10.2,0,0,0,3.78-.59,6.27,6.27,0,0,0,2.26-1.45,4.61,4.61,0,0,0,1.1-1.86A5.82,5.82,0,0,0,220,94a4.62,4.62,0,0,0-1.1-1.86,6.3,6.3,0,0,0-2.26-1.45,10.22,10.22,0,0,0-3.78-.59h-6.27Z"/><path class="cls-2" d="M229.29,87.39h8.33q.63,0,1.7,0a17.31,17.31,0,0,1,2.33.27,14.17,14.17,0,0,1,2.55.73,7.21,7.21,0,0,1,2.33,1.45,7.53,7.53,0,0,1,1.7,2.41,8.4,8.4,0,0,1,.67,3.54,8.18,8.18,0,0,1-.78,3.81,7.38,7.38,0,0,1-2,2.43,8.25,8.25,0,0,1-2.62,1.38,16.66,16.66,0,0,1-2.73.64L250,119.52h-3.36l-8.91-15.25h-5.51v15.25h-3Zm3,14.16h6.27a10.2,10.2,0,0,0,3.78-.59,6.24,6.24,0,0,0,2.26-1.45,4.61,4.61,0,0,0,1.1-1.86,5.79,5.79,0,0,0,0-3.63,4.62,4.62,0,0,0-1.1-1.86,6.27,6.27,0,0,0-2.26-1.45,10.22,10.22,0,0,0-3.78-.59h-6.27Z"/><path class="cls-2" d="M252.64,103.46a18.38,18.38,0,0,1,1.21-6.76,16.09,16.09,0,0,1,3.36-5.33,15.22,15.22,0,0,1,5.17-3.52,18,18,0,0,1,13.3,0,15.22,15.22,0,0,1,5.17,3.52,16.09,16.09,0,0,1,3.36,5.33,19.56,19.56,0,0,1,0,13.55,16,16,0,0,1-3.36,5.35,15,15,0,0,1-5.17,3.5,18.33,18.33,0,0,1-13.3,0,15,15,0,0,1-5.17-3.5,16,16,0,0,1-3.36-5.35A18.56,18.56,0,0,1,252.64,103.46Zm3,0a16.2,16.2,0,0,0,.94,5.58,13.28,13.28,0,0,0,2.69,4.49,12.42,12.42,0,0,0,4.23,3,14.8,14.8,0,0,0,11.15,0,12.42,12.42,0,0,0,4.23-3,13.28,13.28,0,0,0,2.69-4.49,17,17,0,0,0,0-11.16,13.26,13.26,0,0,0-2.69-4.49,12.4,12.4,0,0,0-4.23-3,14.8,14.8,0,0,0-11.15,0,12.4,12.4,0,0,0-4.23,3,13.26,13.26,0,0,0-2.69,4.49A16.19,16.19,0,0,0,255.59,103.46Z"/><path class="cls-2" d="M286.85,87.39h3l7.88,28.46h.09l8-28.46h3.76l8,28.46h.09l7.88-28.46h3l-9.22,32.13h-3.63l-8-28.59h-.09l-8,28.59h-3.63Z"/><path class="cls-2" d="M28.93,94.15a6.91,6.91,0,0,1,.6-2.91A6.39,6.39,0,0,1,31.2,89a7.53,7.53,0,0,1,2.54-1.41,10.77,10.77,0,0,1,6.43,0A7.55,7.55,0,0,1,42.72,89a6.41,6.41,0,0,1,1.67,2.22,7.37,7.37,0,0,1,0,5.82,6.39,6.39,0,0,1-1.67,2.22,7.53,7.53,0,0,1-2.54,1.41,10.78,10.78,0,0,1-6.43,0,7.52,7.52,0,0,1-2.54-1.41,6.37,6.37,0,0,1-1.67-2.22A6.9,6.9,0,0,1,28.93,94.15Zm3.4,0a4.46,4.46,0,0,0,.33,1.73,3.91,3.91,0,0,0,.94,1.36,4.29,4.29,0,0,0,1.46.9,5.79,5.79,0,0,0,3.8,0,4.31,4.31,0,0,0,1.46-.9,3.93,3.93,0,0,0,.94-1.36,4.74,4.74,0,0,0,0-3.45,3.92,3.92,0,0,0-.94-1.37,4.31,4.31,0,0,0-1.46-.9,5.79,5.79,0,0,0-3.8,0,4.29,4.29,0,0,0-1.46.9,3.9,3.9,0,0,0-.94,1.37A4.49,4.49,0,0,0,32.33,94.15Z"/><path class="cls-2" d="M47.24,87.46h10v2.72h-6.7v2.72h6.2v2.72h-6.2v5.22H47.24Z"/><path class="cls-2" d="M130.1,33.61h4.1a4.37,4.37,0,0,1,1.46.23,2.88,2.88,0,0,1,1.05.63,2.15,2.15,0,0,1,.62,1.54v0a2.46,2.46,0,0,1-.13.83,2.09,2.09,0,0,1-.35.63,2.37,2.37,0,0,1-.49.45,3.18,3.18,0,0,1-.56.31,4.32,4.32,0,0,1,.8.32,2.72,2.72,0,0,1,.65.48,2.12,2.12,0,0,1,.44.66,2.18,2.18,0,0,1,.17.88v0a2.42,2.42,0,0,1-.25,1.11,2.3,2.3,0,0,1-.71.83,3.38,3.38,0,0,1-1.11.52,5.32,5.32,0,0,1-1.43.18H130.1ZM134,37.89a2.72,2.72,0,0,0,1.6-.43,1.47,1.47,0,0,0,.61-1.28v0a1.37,1.37,0,0,0-.55-1.14,2.54,2.54,0,0,0-1.58-.43h-2.93v3.31Zm.39,4.38a2.92,2.92,0,0,0,1.73-.45,1.47,1.47,0,0,0,.63-1.27v0a1.39,1.39,0,0,0-.65-1.22,3.44,3.44,0,0,0-1.91-.43h-3v3.4Z"/><path class="cls-2" d="M140,33.61h7v1h-5.88V37.9h5.26v1h-5.26v3.39h6v1h-7Z"/><path class="cls-2" d="M152.6,43.39a5.7,5.7,0,0,1-2.12-.38,6,6,0,0,1-1.83-1.16l.67-.8a5.7,5.7,0,0,0,1.53,1,4.4,4.4,0,0,0,1.78.34,2.46,2.46,0,0,0,1.56-.46,1.44,1.44,0,0,0,.59-1.18v0a1.57,1.57,0,0,0-.11-.6,1.23,1.23,0,0,0-.39-.49,2.75,2.75,0,0,0-.77-.4,9.92,9.92,0,0,0-1.25-.34,10,10,0,0,1-1.44-.41,3.6,3.6,0,0,1-1-.56,2.06,2.06,0,0,1-.59-.77,2.55,2.55,0,0,1-.19-1v0a2.36,2.36,0,0,1,.23-1,2.44,2.44,0,0,1,.66-.83,3.23,3.23,0,0,1,1-.55,3.87,3.87,0,0,1,1.27-.2,5.29,5.29,0,0,1,1.85.3,5.65,5.65,0,0,1,1.54.89l-.63.84a4.73,4.73,0,0,0-1.36-.8,4.14,4.14,0,0,0-1.43-.25,2.31,2.31,0,0,0-1.5.45,1.37,1.37,0,0,0-.55,1.11v0a1.6,1.6,0,0,0,.11.61,1.24,1.24,0,0,0,.4.5,2.91,2.91,0,0,0,.8.41,9.6,9.6,0,0,0,1.31.35,5.7,5.7,0,0,1,2.38,1,2.13,2.13,0,0,1,.76,1.74v0a2.54,2.54,0,0,1-.25,1.12,2.56,2.56,0,0,1-.67.86,3,3,0,0,1-1,.55A4.37,4.37,0,0,1,152.6,43.39Z"/><path class="cls-2" d="M160.64,34.61H157.4v-1H165v1h-3.24v8.64h-1.09Z"/><path class="cls-2" d="M171.15,33.61h1.09v4.28h5.57V33.61h1.09v9.64h-1.09V38.91h-5.57v4.34h-1.09Z"/><path class="cls-2" d="M186.1,43.41a4.89,4.89,0,0,1-2-.4,4.77,4.77,0,0,1-1.55-1.08,4.82,4.82,0,0,1-1-1.58,5.17,5.17,0,0,1-.35-1.89v0a5.13,5.13,0,0,1,.36-1.9,4.9,4.9,0,0,1,1-1.59,4.85,4.85,0,0,1,3.57-1.5,4.89,4.89,0,0,1,2,.4,4.77,4.77,0,0,1,1.55,1.08,4.83,4.83,0,0,1,1,1.58A5.17,5.17,0,0,1,191,38.4a0,0,0,0,1,0,0,5.13,5.13,0,0,1-.36,1.9,4.83,4.83,0,0,1-4.57,3.09Zm0-1a3.69,3.69,0,0,0,1.52-.31,3.6,3.6,0,0,0,1.19-.85,4,4,0,0,0,.78-1.25,4.17,4.17,0,0,0,.28-1.54v0a4.22,4.22,0,0,0-.28-1.55,3.79,3.79,0,0,0-2-2.11,3.63,3.63,0,0,0-1.52-.32,3.69,3.69,0,0,0-1.52.31,3.6,3.6,0,0,0-1.19.85,4,4,0,0,0-.78,1.25,4.17,4.17,0,0,0-.28,1.54v0a4.21,4.21,0,0,0,.28,1.55,3.8,3.8,0,0,0,2,2.12A3.63,3.63,0,0,0,186.13,42.41Z"/><path class="cls-2" d="M196.65,43.39a5.7,5.7,0,0,1-2.12-.38,6,6,0,0,1-1.83-1.16l.67-.8a5.7,5.7,0,0,0,1.53,1,4.4,4.4,0,0,0,1.78.34,2.46,2.46,0,0,0,1.56-.46,1.44,1.44,0,0,0,.59-1.18v0a1.57,1.57,0,0,0-.11-.6,1.23,1.23,0,0,0-.39-.49,2.75,2.75,0,0,0-.77-.4,9.92,9.92,0,0,0-1.25-.34,10,10,0,0,1-1.44-.41,3.6,3.6,0,0,1-1-.56,2.06,2.06,0,0,1-.59-.77,2.55,2.55,0,0,1-.19-1v0a2.36,2.36,0,0,1,.23-1,2.44,2.44,0,0,1,.66-.83,3.23,3.23,0,0,1,1-.55,3.87,3.87,0,0,1,1.27-.2,5.29,5.29,0,0,1,1.85.3,5.65,5.65,0,0,1,1.54.89l-.63.84a4.73,4.73,0,0,0-1.36-.8,4.14,4.14,0,0,0-1.43-.25,2.31,2.31,0,0,0-1.5.45,1.37,1.37,0,0,0-.55,1.11v0a1.6,1.6,0,0,0,.11.61,1.24,1.24,0,0,0,.4.5,2.91,2.91,0,0,0,.8.41,9.6,9.6,0,0,0,1.31.35,5.7,5.7,0,0,1,2.38,1,2.13,2.13,0,0,1,.76,1.74v0a2.54,2.54,0,0,1-.25,1.12,2.56,2.56,0,0,1-.67.86,3,3,0,0,1-1,.55A4.37,4.37,0,0,1,196.65,43.39Z"/><path class="cls-2" d="M202.15,33.61h3.61a4.87,4.87,0,0,1,1.48.21,3.4,3.4,0,0,1,1.14.61,2.62,2.62,0,0,1,.73,1,3.08,3.08,0,0,1,.25,1.28v0A2.84,2.84,0,0,1,208.25,39a3.56,3.56,0,0,1-1.21.6,5.24,5.24,0,0,1-1.46.2h-2.34v3.4h-1.09Zm3.48,5.26a3.65,3.65,0,0,0,1.08-.15,2.52,2.52,0,0,0,.84-.44,1.93,1.93,0,0,0,.54-.67,2,2,0,0,0,.19-.87v0a1.84,1.84,0,0,0-.71-1.57,3.08,3.08,0,0,0-1.89-.53h-2.45v4.26Z"/><path class="cls-2" d="M211.45,33.61h1.09v9.64h-1.09Z"/><path class="cls-2" d="M217.91,34.61h-3.24v-1h7.56v1H219v8.64h-1.09Z"/><path class="cls-2" d="M227.86,33.54h1l4.4,9.71H232.1L231,40.7h-5.25l-1.14,2.55h-1.12Zm2.69,6.19-2.19-4.92-2.2,4.92Z"/><path class="cls-2" d="M235.18,33.61h1.09v8.64h5.43v1h-6.52Z"/><path class="cls-2" d="M247,43.39a5.7,5.7,0,0,1-2.12-.38,6,6,0,0,1-1.83-1.16l.67-.8a5.7,5.7,0,0,0,1.53,1,4.4,4.4,0,0,0,1.78.34,2.46,2.46,0,0,0,1.56-.46,1.44,1.44,0,0,0,.59-1.18v0a1.57,1.57,0,0,0-.11-.6,1.23,1.23,0,0,0-.39-.49,2.75,2.75,0,0,0-.77-.4,9.92,9.92,0,0,0-1.25-.34,10,10,0,0,1-1.44-.41,3.6,3.6,0,0,1-1-.56,2.06,2.06,0,0,1-.59-.77,2.55,2.55,0,0,1-.19-1v0a2.36,2.36,0,0,1,.23-1,2.44,2.44,0,0,1,.66-.83,3.23,3.23,0,0,1,1-.55,3.87,3.87,0,0,1,1.27-.2,5.29,5.29,0,0,1,1.85.3,5.65,5.65,0,0,1,1.54.89l-.63.84a4.73,4.73,0,0,0-1.36-.8,4.14,4.14,0,0,0-1.43-.25,2.31,2.31,0,0,0-1.5.45,1.37,1.37,0,0,0-.55,1.11v0a1.6,1.6,0,0,0,.11.61,1.24,1.24,0,0,0,.4.5,2.91,2.91,0,0,0,.8.41,9.6,9.6,0,0,0,1.31.35,5.7,5.7,0,0,1,2.38,1,2.13,2.13,0,0,1,.76,1.74v0a2.54,2.54,0,0,1-.25,1.12,2.56,2.56,0,0,1-.67.86,3,3,0,0,1-1,.55A4.37,4.37,0,0,1,247,43.39Z"/><path class="cls-2" d="M256.65,33.61h3.61a4.87,4.87,0,0,1,1.48.21,3.4,3.4,0,0,1,1.14.61,2.62,2.62,0,0,1,.73,1,3.08,3.08,0,0,1,.25,1.28v0A2.84,2.84,0,0,1,262.75,39a3.56,3.56,0,0,1-1.21.6,5.24,5.24,0,0,1-1.46.2h-2.34v3.4h-1.09Zm3.48,5.26a3.65,3.65,0,0,0,1.08-.15,2.52,2.52,0,0,0,.84-.44,1.93,1.93,0,0,0,.54-.67,2,2,0,0,0,.19-.87v0a1.84,1.84,0,0,0-.71-1.57,3.08,3.08,0,0,0-1.89-.53h-2.45v4.26Z"/><path class="cls-2" d="M265.86,33.61H270a4.61,4.61,0,0,1,1.59.25,3.11,3.11,0,0,1,1.15.71,2.48,2.48,0,0,1,.55.84,2.84,2.84,0,0,1,.19,1.06v0a2.87,2.87,0,0,1-.19,1.08,2.48,2.48,0,0,1-.54.83,2.92,2.92,0,0,1-.83.58,4,4,0,0,1-1,.32l3,3.94H272.5l-2.8-3.75h-2.76v3.75h-1.09Zm4.06,4.92a3.42,3.42,0,0,0,1-.14,2.43,2.43,0,0,0,.79-.39,1.76,1.76,0,0,0,.71-1.45v0a1.67,1.67,0,0,0-.65-1.4,2.91,2.91,0,0,0-1.82-.5h-3v3.91Z"/><path class="cls-2" d="M275.82,33.61h7v1H276.9V37.9h5.26v1H276.9v3.39h6v1h-7Z"/><path class="cls-2" d="M288.37,43.39a5.7,5.7,0,0,1-2.12-.38,6,6,0,0,1-1.83-1.16l.67-.8a5.7,5.7,0,0,0,1.53,1,4.4,4.4,0,0,0,1.78.34,2.46,2.46,0,0,0,1.56-.46,1.44,1.44,0,0,0,.59-1.18v0a1.57,1.57,0,0,0-.11-.6,1.23,1.23,0,0,0-.39-.49,2.75,2.75,0,0,0-.77-.4,9.92,9.92,0,0,0-1.25-.34,10,10,0,0,1-1.44-.41,3.6,3.6,0,0,1-1-.56,2.06,2.06,0,0,1-.59-.77,2.55,2.55,0,0,1-.19-1v0a2.36,2.36,0,0,1,.23-1,2.44,2.44,0,0,1,.66-.83,3.23,3.23,0,0,1,1-.55,3.87,3.87,0,0,1,1.27-.2,5.29,5.29,0,0,1,1.85.3,5.65,5.65,0,0,1,1.54.89l-.63.84a4.73,4.73,0,0,0-1.36-.8,4.14,4.14,0,0,0-1.43-.25,2.31,2.31,0,0,0-1.5.45,1.37,1.37,0,0,0-.55,1.11v0a1.6,1.6,0,0,0,.11.61,1.24,1.24,0,0,0,.4.5,2.91,2.91,0,0,0,.8.41,9.6,9.6,0,0,0,1.31.35,5.7,5.7,0,0,1,2.38,1,2.13,2.13,0,0,1,.76,1.74v0a2.54,2.54,0,0,1-.25,1.12,2.56,2.56,0,0,1-.67.86,3,3,0,0,1-1,.55A4.37,4.37,0,0,1,288.37,43.39Z"/><path class="cls-2" d="M293.86,33.61h7v1H295V37.9h5.26v1H295v3.39h6v1h-7Z"/><path class="cls-2" d="M303.1,33.61h1l6.08,7.73V33.61h1.06v9.64h-.87l-6.23-7.91v7.91H303.1Z"/><path class="cls-2" d="M316.53,34.61h-3.24v-1h7.56v1h-3.24v8.64h-1.09Z"/><path class="cls-2" d="M326.23,43.39a5.7,5.7,0,0,1-2.12-.38,6,6,0,0,1-1.83-1.16L323,41a5.7,5.7,0,0,0,1.53,1,4.4,4.4,0,0,0,1.78.34,2.46,2.46,0,0,0,1.56-.46,1.44,1.44,0,0,0,.59-1.18v0a1.57,1.57,0,0,0-.11-.6,1.23,1.23,0,0,0-.39-.49,2.75,2.75,0,0,0-.77-.4,9.92,9.92,0,0,0-1.25-.34,10,10,0,0,1-1.44-.41,3.6,3.6,0,0,1-1-.56,2.06,2.06,0,0,1-.59-.77,2.55,2.55,0,0,1-.19-1v0a2.36,2.36,0,0,1,.23-1,2.44,2.44,0,0,1,.66-.83,3.23,3.23,0,0,1,1-.55,3.87,3.87,0,0,1,1.27-.2,5.29,5.29,0,0,1,1.85.3,5.65,5.65,0,0,1,1.54.89l-.63.84a4.73,4.73,0,0,0-1.36-.8,4.14,4.14,0,0,0-1.43-.25,2.31,2.31,0,0,0-1.5.45,1.37,1.37,0,0,0-.55,1.11v0a1.6,1.6,0,0,0,.11.61,1.24,1.24,0,0,0,.4.5,2.91,2.91,0,0,0,.8.41,9.6,9.6,0,0,0,1.31.35,5.7,5.7,0,0,1,2.38,1,2.13,2.13,0,0,1,.76,1.74v0a2.54,2.54,0,0,1-.25,1.12,2.56,2.56,0,0,1-.67.86,3,3,0,0,1-1,.55A4.37,4.37,0,0,1,326.23,43.39Z"/><path class="cls-3" d="M124.45,43.48H28.31V19.74h96.14ZM29.1,42.69h94.56V20.53H29.1Z"/><rect class="cls-1" x="28.7" y="20.14" width="95.35" height="22.95"/><rect class="cls-4" x="28.7" y="39.39" width="95.34" height="3.69"/><path class="cls-5" d="M28.48,19.91v23.4h95.8V19.91Zm95.35.45v18.8h-5.12c1.84-.5,2.7-1.57,2.7-3.21,0-2.12-1.19-3.13-3.91-3.54L114.87,32c-1.6-.25-2-.43-2-.93s.54-.82,2.35-.82c1.56,0,2.16.27,2.39.58a1.41,1.41,0,0,1,.14.62H121a5.57,5.57,0,0,0-.21-1.36c-.58-1.63-2.53-2.43-5.64-2.43-3.64,0-5.45,1.32-5.45,3.33s1.19,3.25,3.68,3.6l2.47.37c1.67.25,2.35.39,2.35,1s-.58,1-2.45,1-2.65-.14-2.86-.68a1.7,1.7,0,0,1-.1-.58H109.5a4.62,4.62,0,0,0,.12,1.13,3.17,3.17,0,0,0,2.66,2.28h-6.19l4-11.19H106.9l-2.65,8.42L101.7,28H98l-2.49,8.42L92.83,28H89.39l4,11.19H86.58a5.93,5.93,0,0,0,1.66-.72A4.63,4.63,0,0,0,90.3,35.6H87.07a1.58,1.58,0,0,1-.95.88,5.21,5.21,0,0,1-2.08.37A3.59,3.59,0,0,1,81.41,36a1.93,1.93,0,0,1-.62-1.34h9.59a6.78,6.78,0,0,0-1-4.57c-1-1.46-2.78-2.41-5.37-2.41a6.43,6.43,0,0,0-5.51,2.51,5.77,5.77,0,0,0-1,3.35A6.34,6.34,0,0,0,78.41,37a5.1,5.1,0,0,0,3.1,2.16H77.08V23.95h-3.2v9.88L68,23.95h-3.9V39.16h-.58v-3H61.07a4.54,4.54,0,0,0,.18-1.3c0-2.62-1.59-3.88-4.64-4.47-.35-.06-1.36-.27-2.14-.43-2.51-.51-3.42-1-3.42-2.08,0-.87.5-1.44,3-1.44,1.94,0,2.78.45,3.18,1.3a2.14,2.14,0,0,1,.21.76H61A4.73,4.73,0,0,0,60.62,27c-.78-1.94-2.58-3.28-6.43-3.28-4.51,0-6.6,1.75-6.6,4.35s1.84,3.92,4.84,4.49l2.25.43c2.49.47,3.13.91,3.13,2.17,0,1-.82,1.65-3.15,1.65-2,0-3-.39-3.48-1.28a2.71,2.71,0,0,1-.21-1H47.51a6.52,6.52,0,0,0,.21,1.57,4.4,4.4,0,0,0,3.57,3H47.58v-3H45.19a4.7,4.7,0,0,0,.24-1.52V23.95H42.07V34.18c0,1.59-1.36,2.54-3.28,2.54-2.19,0-3.4-1-3.4-2.56V23.95H32V34.45c0,2.64,1.54,4.11,3.87,4.71h-7V20.36Zm0,19.25v3.24H28.93V39.61Zm-82.33-.45a5.48,5.48,0,0,0,3.1-1.86v1.86Zm16.07,0a5.13,5.13,0,0,0,2.94-1.82v1.82Zm9.72,0V28.9l6.1,10.26Zm30.13,0c.3-.89,2.18-6.41,2.2-6.77l.14-.79s.12.67.14.81c0,.34,1.92,5.86,2.22,6.75ZM80.78,32.52a2.34,2.34,0,0,1,.7-1.36,3.83,3.83,0,0,1,2.59-.8,3.37,3.37,0,0,1,2.49.86,2,2,0,0,1,.56,1.3Z"/><path class="cls-5" d="M80.61,25.8a.79.79,0,0,0,.16-.46h.85a1.34,1.34,0,0,1-.41.94l.65.5H80.71l-.14-.11a2.25,2.25,0,0,1-.84.15c-.72,0-1.37-.13-1.4-.68,0,0,0-.12,0-.16,0-.34.34-.56.7-.73a1.15,1.15,0,0,1-.25-.64v-.15c0-.37.38-.72,1-.72s.92.33.94.7c0,0,0,.11,0,.13a1.09,1.09,0,0,1-.61.84ZM79.23,26c0,.15.14.2.45.2a1.19,1.19,0,0,0,.26,0c-.17-.15-.36-.29-.48-.42C79.33,25.82,79.23,25.91,79.23,26ZM80,24.62v-.06a.18.18,0,0,0-.19-.19.2.2,0,0,0-.2.2.27.27,0,0,0,0,.08.52.52,0,0,0,.12.28C79.86,24.83,80,24.74,80,24.62Z"/><path class="cls-5" d="M86.75,26.77h-1s-.45-1.74-.47-1.84c0,.1-.47,1.84-.47,1.84h-1l-.87-3h1s.46,1.87.46,2c0-.1.45-2,.45-2h1s.46,1.87.46,2c0-.1.45-2,.45-2h.9Z"/><path class="cls-5" d="M90.82,25.24c0,1.06-.51,1.58-1.62,1.58s-1.62-.54-1.62-1.57a1.41,1.41,0,0,1,1.62-1.55C90.34,23.7,90.82,24.23,90.82,25.24Zm-.94,0c0-.6-.16-.84-.68-.84s-.67.24-.67.84.23.85.68.85S89.88,25.93,89.88,25.26Z"/><path class="cls-5" d="M93.94,25.28a.59.59,0,0,1-.37.29l.71,1.21h-1l-.54-1h-.63v1h-.92v-3h1.92a1,1,0,0,1,.82.32,1,1,0,0,1,.18.64A1.11,1.11,0,0,1,93.94,25.28Zm-.81-.69c0-.1-.14-.13-.27-.13h-.78v.62h.8c.11,0,.21,0,.25-.1a.55.55,0,0,0,0-.19A.5.5,0,0,0,93.14,24.59Z"/><path class="cls-5" d="M94.54,26.77v-3h.94V26h1.46v.75Z"/><path class="cls-5" d="M98.94,26.77H97.22v-3h1.67a1.23,1.23,0,0,1,1.08.39,1.6,1.6,0,0,1,.22,1.06,1.82,1.82,0,0,1-.21,1.13A1.13,1.13,0,0,1,98.94,26.77Zm.36-1.57a1.18,1.18,0,0,0-.1-.58.52.52,0,0,0-.46-.16h-.58v1.6h.58a.53.53,0,0,0,.47-.17A1.58,1.58,0,0,0,99.29,25.21Z"/><path class="cls-5" d="M104.48,25.28a.59.59,0,0,1-.37.29l.71,1.21h-1l-.54-1h-.63v1h-.92v-3h1.92a1,1,0,0,1,.82.32,1,1,0,0,1,.18.64A1.11,1.11,0,0,1,104.48,25.28Zm-.81-.69c0-.1-.14-.13-.27-.13h-.78v.62h.8c.11,0,.21,0,.25-.1a.55.55,0,0,0,0-.19A.5.5,0,0,0,103.68,24.59Z"/><path class="cls-5" d="M105.08,26.77v-3h2.58v.71H106v.44h1.6v.72H106v.45h1.69v.7Z"/><path class="cls-5" d="M110.77,25.53a1.1,1.1,0,0,1-.84.31H109v.94h-.94v-3h1.87a1.06,1.06,0,0,1,.8.25,1,1,0,0,1,.27.79A1,1,0,0,1,110.77,25.53ZM110,24.6a.3.3,0,0,0-.29-.14H109v.7h.73A.31.31,0,0,0,110,25a.42.42,0,0,0,0-.2A.44.44,0,0,0,110,24.6Z"/><path class="cls-5" d="M114.42,25.24c0,1.06-.51,1.58-1.62,1.58s-1.62-.54-1.62-1.57a1.41,1.41,0,0,1,1.62-1.55C113.95,23.7,114.42,24.23,114.42,25.24Zm-.94,0c0-.6-.16-.84-.68-.84s-.67.24-.67.84.23.85.68.85S113.48,25.93,113.48,25.26Z"/><path class="cls-5" d="M117.55,25.28a.59.59,0,0,1-.37.29l.71,1.21h-1l-.54-1h-.63v1h-.92v-3h1.92a1,1,0,0,1,.82.32,1,1,0,0,1,.18.64A1.11,1.11,0,0,1,117.55,25.28Zm-.81-.69c0-.1-.14-.13-.27-.13h-.78v.62h.8c.11,0,.21,0,.25-.1a.55.55,0,0,0,0-.19A.5.5,0,0,0,116.74,24.59Z"/><path class="cls-5" d="M119.83,24.48v2.29h-.95V24.48h-1v-.73h2.88v.73Z"/></svg>