<svg id="Layer_1" data-name="Layer 1" xmlns="http://www.w3.org/2000/svg" xmlns:xlink="http://www.w3.org/1999/xlink" viewBox="0 0 300 108.94"><defs><style>.cls-1{fill:none;}.cls-2{fill:#fff;}.cls-3{fill:#ccc;}.cls-4{clip-path:url(#clip-path);}.cls-5{fill:#035fa7;}.cls-6{fill:#c42127;}.cls-7{fill:#999;}</style><clipPath id="clip-path"><rect class="cls-1" x="2.94" y="35.41" width="294.12" height="70.59"/></clipPath></defs><title>Artboard 1</title><rect class="cls-2" x="0.25" y="32.71" width="299.5" height="75.97"/><path class="cls-3" d="M299.5,33v75.47H.5V33h299m.5-.5H0v76.47H300V32.46Z"/><g class="cls-4"><rect class="cls-5" x="-2.29" y="25.84" width="316.56" height="80.15"/><rect class="cls-2" x="-0.82" y="93.07" width="316.56" height="3.16"/><rect class="cls-6" x="-2.29" y="96.23" width="316.56" height="37.2"/></g><path class="cls-2" d="M56.43,80.44v-31H46.7V79.09c0,4.62-3.94,7.36-9.5,7.36-6.36,0-9.85-2.75-9.85-7.42V49.45H17.63V79.87c0,10.41,8.27,14.57,19.34,14.57,7.65,0,13.81-2.09,17-6.32v5.76h8.68v-9H55.74A13.66,13.66,0,0,0,56.43,80.44Z"/><path class="cls-2" d="M102.93,81.06c0-7.6-4.61-11.26-13.44-12.94-1-.17-3.94-.79-6.18-1.24-7.26-1.46-9.9-2.75-9.9-6,0-2.53,1.46-4.16,8.83-4.16,5.62,0,8,1.29,9.22,3.77a6.2,6.2,0,0,1,.62,2.19h10a13.59,13.59,0,0,0-1-4.27c-2.25-5.62-7.48-9.5-18.62-9.5-13,0-19.12,5.06-19.12,12.6,0,7.37,5.34,11.36,14,13,2,.39,5.23,1,6.53,1.24,7.19,1.35,9.05,2.64,9.05,6.3,0,2.93-2.36,4.78-9.12,4.78-5.9,0-8.83-1.12-10.06-3.71a7.82,7.82,0,0,1-.62-2.81h-10a18.58,18.58,0,0,0,.63,4.55c1.79,5.63,6.63,9.68,20.07,9.68,8.44,0,14.06-2.37,16.92-6.29v5.67h8.67v-9h-7A13.13,13.13,0,0,0,102.93,81.06Z"/><polygon class="cls-2" points="140.78 78.08 123.68 49.45 112.38 49.45 112.38 93.88 121.66 93.88 121.66 63.79 139.55 93.88 150.06 93.88 150.06 49.45 140.78 49.45 140.78 78.08"/><path class="cls-2" d="M171.55,60.33c-7.15,0-12.82,2.68-16,7.27a16.72,16.72,0,0,0-2.86,9.71,18.31,18.31,0,0,0,2.51,10c3.16,5,9.05,7.15,16.33,7.15,5.3,0,9.3-1.13,12.16-3a13.43,13.43,0,0,0,6-8.23h-9.36a4.56,4.56,0,0,1-2.73,2.56,15.11,15.11,0,0,1-6,1.07c-3.58,0-6.25-1-7.63-2.44a5.59,5.59,0,0,1-1.79-3.88h27.77c.53-4.94-.36-9.65-2.8-13.23C184.19,63.07,179.06,60.33,171.55,60.33Zm-9.48,13.95a6.79,6.79,0,0,1,2-3.93c1.61-1.43,4.12-2.33,7.51-2.33,3.58,0,5.84,1.14,7.22,2.51a5.76,5.76,0,0,1,1.6,3.76H162.07Z"/><path class="cls-2" d="M239,61.11l-7.68,24.37L224,61.11h-10.6l-7.21,24.37-7.87-24.37h-10l11.73,32.78H211.4s6.44-18.83,6.5-20c.06-.36.41-2.3.41-2.3s.36,1.94.43,2.36c.11,1.08,6.56,19.91,6.56,19.91h11.26l11.86-32.78Z"/><path class="cls-2" d="M271,74c-1.13-.18-5.72-.84-7.63-1.13-4.65-.72-5.67-1.25-5.67-2.68s1.55-2.39,6.8-2.39c4.53,0,6.25.78,6.91,1.67a4.17,4.17,0,0,1,.42,1.78h9.24a16.24,16.24,0,0,0-.6-3.93c-1.67-4.7-7.34-7-16.33-7-10.55,0-15.79,3.81-15.79,9.65,0,6.27,3.46,9.42,10.67,10.43l7.15,1.07c4.83.72,6.8,1.13,6.8,3s-1.67,2.86-7.09,2.86c-5.19,0-7.69-.42-8.29-2a4.94,4.94,0,0,1-.3-1.67h-9.47a13.5,13.5,0,0,0,.35,3.28c1.37,5.37,6.61,7.57,17.7,7.57,11.32,0,16.45-3.46,16.45-10.25C282.37,78.09,278.91,75.17,271,74Z"/><path class="cls-2" d="M158.12,58.45a6.73,6.73,0,0,0,2.46-.43,5.3,5.3,0,0,0,.42.34h3.4c-.65-.51-1.32-1-1.92-1.47a4,4,0,0,0,1.21-2.77h-2.5a2.37,2.37,0,0,1-.48,1.36c-.51-.42-1-.88-1.43-1.21a3.18,3.18,0,0,0,1.79-2.47c0-.06,0-.31,0-.39-.06-1.08-1.05-2.07-2.75-2.07-1.86,0-2.94,1-3,2.14v.45a3.43,3.43,0,0,0,.73,1.89c-1.06.5-2,1.13-2,2.15,0,.11,0,.32,0,.46C154.09,58.06,156,58.45,158.12,58.45Zm-.44-6.61a.58.58,0,0,1,.6-.59.52.52,0,0,1,.57.55V52c0,.35-.35.64-.8.91a1.57,1.57,0,0,1-.36-.82A.88.88,0,0,1,157.68,51.83Zm-.32,3.48c.38.38.91.79,1.42,1.23a3.41,3.41,0,0,1-.78.09c-.93,0-1.33-.16-1.33-.59C156.66,55.78,156.95,55.54,157.36,55.31Z"/><path class="cls-2" d="M172.11,58.36s1.37-5.14,1.38-5.43c0,.29,1.37,5.43,1.37,5.43h3l2.5-8.93H177.7s-1.34,5.51-1.34,5.8c0-.28-1.36-5.8-1.36-5.8h-2.81s-1.32,5.51-1.32,5.8c0-.28-1.36-5.8-1.36-5.8h-2.92l2.56,8.93Z"/><path class="cls-2" d="M185.22,58.49c3.27,0,4.76-1.54,4.76-4.68,0-3-1.39-4.55-4.76-4.55s-4.76,1.73-4.76,4.58C180.45,56.9,181.94,58.49,185.22,58.49Zm0-7.11c1.51,0,2,.73,2,2.5,0,2-.73,2.52-2,2.52s-2-.63-2-2.52S183.76,51.38,185.22,51.38Z"/><path class="cls-2" d="M193.88,55.34h1.85l1.57,3h3.07l-2.09-3.58a1.73,1.73,0,0,0,1.1-.85,3.28,3.28,0,0,0,.39-1.68,3,3,0,0,0-.51-1.89,2.83,2.83,0,0,0-2.41-.94h-5.65v8.93h2.69Zm0-3.81h2.3c.4,0,.66.09.79.37a1.3,1.3,0,0,1,.1.57,1.6,1.6,0,0,1-.1.57c-.1.22-.39.3-.72.3h-2.36Z"/><polygon class="cls-2" points="208.71 56.15 204.42 56.15 204.42 49.43 201.66 49.43 201.66 58.36 208.71 58.36 208.71 56.15"/><path class="cls-2" d="M218.17,57.06c.49-.74.63-1.44.63-3.34,0-1.63-.11-2.37-.66-3.13s-1.56-1.16-3.17-1.16h-4.9v8.93h5C216.71,58.36,217.63,57.89,218.17,57.06Zm-5.38-.81V51.51h1.72a1.54,1.54,0,0,1,1.35.48,3.62,3.62,0,0,1,.28,1.72,4.77,4.77,0,0,1-.26,2,1.57,1.57,0,0,1-1.37.51h-1.72Z"/><path class="cls-2" d="M226,55.34h1.84l1.58,3h3.06l-2.09-3.58a1.73,1.73,0,0,0,1.1-.85,3.31,3.31,0,0,0,.39-1.68,3,3,0,0,0-.51-1.89,2.83,2.83,0,0,0-2.41-.94h-5.65v8.93H226Zm0-3.81h2.3c.39,0,.66.09.8.37a1.44,1.44,0,0,1,.09.57,1.6,1.6,0,0,1-.1.57c-.1.22-.4.3-.73.3h-2.36Z"/><polygon class="cls-2" points="241.56 56.27 236.61 56.27 236.61 54.95 241.33 54.95 241.33 52.82 236.61 52.82 236.61 51.53 241.51 51.53 241.51 49.43 233.92 49.43 233.92 58.36 241.56 58.36 241.56 56.27"/><path class="cls-2" d="M246.07,55.56h2.75a3.21,3.21,0,0,0,2.47-.91,3,3,0,0,0,.66-2.17,2.94,2.94,0,0,0-.8-2.33,3.09,3.09,0,0,0-2.33-.75h-5.49v8.93h2.75v-2.8Zm0-4.06h2.18a.86.86,0,0,1,.86.42,1.22,1.22,0,0,1,.12.63,1.14,1.14,0,0,1-.11.59c-.13.25-.38.42-.9.42H246V51.5Z"/><path class="cls-2" d="M257.67,58.49c3.26,0,4.76-1.54,4.76-4.68,0-3-1.39-4.55-4.76-4.55S252.9,51,252.9,53.85C252.9,56.9,254.39,58.49,257.67,58.49Zm0-7.11c1.51,0,2,.73,2,2.5,0,2-.73,2.52-2,2.52s-2-.63-2-2.52S256.21,51.38,257.67,51.38Z"/><path class="cls-2" d="M266.36,55.34h1.85l1.57,3h3.06l-2.09-3.58a1.74,1.74,0,0,0,1.11-.85,3.37,3.37,0,0,0,.39-1.68,3,3,0,0,0-.52-1.89,2.85,2.85,0,0,0-2.42-.94h-5.65v8.93h2.69Zm0-3.81h2.3c.39,0,.66.09.8.37a1.44,1.44,0,0,1,.09.57,1.66,1.66,0,0,1-.1.57c-.1.22-.4.3-.73.3h-2.36Z"/><polygon class="cls-2" points="275.89 58.36 278.68 58.36 278.68 51.58 281.53 51.58 281.53 49.43 273.06 49.43 273.06 51.58 275.89 51.58 275.89 58.36"/><path class="cls-7" d="M91.85,16.64v5H90.16V8.85h4.72a4.74,4.74,0,0,1,3.29,1.07,3.64,3.64,0,0,1,1.19,2.84,3.59,3.59,0,0,1-1.16,2.87,5,5,0,0,1-3.34,1Zm0-1.38h3A3,3,0,0,0,97,14.62a2.33,2.33,0,0,0,.72-1.84A2.41,2.41,0,0,0,97,10.95a2.84,2.84,0,0,0-2-.71H91.85Z"/><path class="cls-7" d="M110.57,8.85v8.7a4.08,4.08,0,0,1-1.14,3,4.59,4.59,0,0,1-3.06,1.29l-.45,0a4.79,4.79,0,0,1-3.35-1.13,4.05,4.05,0,0,1-1.27-3.12V8.85H103v8.67a2.93,2.93,0,0,0,.76,2.16,3.5,3.5,0,0,0,4.37,0,2.92,2.92,0,0,0,.76-2.15V8.85Z"/><path class="cls-7" d="M113.36,21.65V8.85h4.18a4.86,4.86,0,0,1,3.13.86,3.1,3.1,0,0,1,1.05,2.55,2.6,2.6,0,0,1-.51,1.59,3.3,3.3,0,0,1-1.39,1.07,3,3,0,0,1,1.64,1.1,3.17,3.17,0,0,1,.6,1.94A3.42,3.42,0,0,1,121,20.67a4.62,4.62,0,0,1-3.16,1ZM115,14.31h2.55a2.67,2.67,0,0,0,1.77-.55,1.86,1.86,0,0,0,.66-1.51,1.83,1.83,0,0,0-.62-1.54,3,3,0,0,0-1.87-.48H115Zm0,1.35v4.61h2.79a2.68,2.68,0,0,0,1.86-.61,2.15,2.15,0,0,0,.68-1.68q0-2.31-2.51-2.31Z"/><path class="cls-7" d="M126.23,20.27h6.06v1.38h-7.76V8.85h1.7Z"/><path class="cls-7" d="M136,21.65h-1.69V8.85H136Z"/><path class="cls-7" d="M142.81,15.95a7.94,7.94,0,0,1-3.16-1.53,2.93,2.93,0,0,1-1-2.25,3.09,3.09,0,0,1,1.21-2.5,4.8,4.8,0,0,1,3.14-1,5.24,5.24,0,0,1,2.35.51,3.86,3.86,0,0,1,1.6,1.41,3.59,3.59,0,0,1,.57,2h-1.7a2.34,2.34,0,0,0-.74-1.83,3,3,0,0,0-2.08-.67,3.07,3.07,0,0,0-1.95.55,1.83,1.83,0,0,0-.7,1.53,1.65,1.65,0,0,0,.66,1.33,6.5,6.5,0,0,0,2.26,1,10.46,10.46,0,0,1,2.5,1,3.78,3.78,0,0,1,1.34,1.26,3.21,3.21,0,0,1,.44,1.7,3,3,0,0,1-1.21,2.49,5.17,5.17,0,0,1-3.24.94,6,6,0,0,1-2.46-.51,4.15,4.15,0,0,1-1.76-1.38,3.38,3.38,0,0,1-.62-2H140a2.21,2.21,0,0,0,.86,1.83,3.61,3.61,0,0,0,2.29.67,3.32,3.32,0,0,0,2-.54,1.77,1.77,0,0,0,.71-1.49A1.74,1.74,0,0,0,145.2,17,7.6,7.6,0,0,0,142.81,15.95Z"/><path class="cls-7" d="M159.68,21.65H158V15.73h-6.45v5.92h-1.69V8.85h1.69v5.5H158V8.85h1.7Z"/><path class="cls-7" d="M169.89,15.73h-5.55v4.54h6.44v1.38h-8.13V8.85h8v1.38h-6.35v4.12h5.55Z"/><path class="cls-7" d="M172.83,21.65V8.85h3.61a5.82,5.82,0,0,1,3,.74,5,5,0,0,1,2,2.1,6.85,6.85,0,0,1,.71,3.13v.82a6.85,6.85,0,0,1-.7,3.17,4.91,4.91,0,0,1-2,2.09,6.19,6.19,0,0,1-3,.75Zm1.69-11.42v10h1.78a3.86,3.86,0,0,0,3-1.21,5,5,0,0,0,1.09-3.46v-.75a5.1,5.1,0,0,0-1-3.39,3.65,3.65,0,0,0-2.91-1.23Z"/><path class="cls-7" d="M198.94,15.66a7.92,7.92,0,0,1-.63,3.28,4.79,4.79,0,0,1-1.79,2.14,4.95,4.95,0,0,1-7.2-2.12,7.58,7.58,0,0,1-.66-3.19v-.92a7.82,7.82,0,0,1,.64-3.26,4.75,4.75,0,0,1,4.5-2.92,5,5,0,0,1,2.71.74,4.79,4.79,0,0,1,1.81,2.15,8,8,0,0,1,.63,3.28Zm-1.68-.83a5.74,5.74,0,0,0-.91-3.49,3,3,0,0,0-2.56-1.22,3,3,0,0,0-2.52,1.22,5.62,5.62,0,0,0-.94,3.38v.94a5.75,5.75,0,0,0,.93,3.47,3.25,3.25,0,0,0,5.08.07,5.71,5.71,0,0,0,.92-3.41Z"/><path class="cls-7" d="M211.28,21.65h-1.7l-6.44-9.86v9.86h-1.7V8.85h1.7l6.46,9.91V8.85h1.68Z"/><path class="cls-7" d="M213.66,20.8a1,1,0,0,1,.25-.7,1,1,0,0,1,.75-.28,1,1,0,0,1,.76.28,1,1,0,0,1,.26.7.94.94,0,0,1-.26.68,1,1,0,0,1-.76.27.9.9,0,0,1-1-.95Zm0-7.76a1,1,0,0,1,.25-.7,1,1,0,0,1,.75-.28,1,1,0,0,1,.76.28,1,1,0,0,1,.26.7,1,1,0,0,1-.26.68,1,1,0,0,1-.76.27,1,1,0,0,1-.75-.27A1,1,0,0,1,213.67,13Z"/></svg>