<svg id="Layer_1" data-name="Layer 1" xmlns="http://www.w3.org/2000/svg" viewBox="0 0 360 225"><defs><style>.cls-1{fill:#fff;}.cls-2{fill:#797a7d;}.cls-3{fill:#22509c;}.cls-4{fill:#ef962f;}.cls-5{fill:#44bde3;}.cls-6{fill:#e72d2d;}.cls-7{fill:#231f20;}</style></defs><title>Artboard 1</title><rect class="cls-1" x="0.16" y="0.21" width="360" height="225"/><path class="cls-2" d="M53,187c0,7-2.63,12.2-9.19,12.2H24.64v-6.14H43.29c2.94,0,4.68-2.2,4.68-6.21,0-3.51-1.74-6-4.65-6H24.64v-6.14H44.18C50.1,174.77,53,179.88,53,187Z"/><path class="cls-2" d="M52.66,176.23H45.81v-6.56h6.85Z"/><path class="cls-2" d="M53,153.88c0,8.48-2.55,11.53-6.1,12.66a11.92,11.92,0,0,1-2.87.39v-6.31a5,5,0,0,0,1.77-.39c1.63-.78,2.34-2.62,2.34-6.35,0-4.26-1.17-5.75-3-5.75-2.31,0-3.12,1.17-4,5.71-.14.82-.53,2.87-.78,4.11-1,5.46-3.55,8.83-8.19,8.83s-7.94-3.83-7.94-12.06c0-7,2.45-10.32,6-11.74a8.66,8.66,0,0,1,2.69-.64v6.31a3.89,3.89,0,0,0-1.38.39c-1.56.74-2.38,2.27-2.38,5.82,0,4.65,1,5.57,2.63,5.57,2.06,0,2.87-1.67,3.8-6.24.28-1.42.67-3.26.78-3.9,1.06-5.57,3.37-8.48,8.16-8.48C49.64,141.82,53,145.83,53,153.88Z"/><path class="cls-2" d="M52.66,143.6H45.81V137h6.85Z"/><path class="cls-2" d="M52.66,115.86l-19,11.28h19V133h-28v-7.13l18.05-10.78H24.64v-5.85h28Z"/><path class="cls-2" d="M51.2,87.78A13.18,13.18,0,0,1,53,95c0,4.33-1.28,7.84-4.26,9.72a10.92,10.92,0,0,1-5.92,1.49,9.94,9.94,0,0,1-5.78-1.7c-2.73-1.88-4.33-5.25-4.33-9.51,0-4.47,1.63-7.52,4.15-9.26a11.68,11.68,0,0,1,7.87-1.67v16.53A3.32,3.32,0,0,0,47,99.56c.89-.82,1.46-2.41,1.46-4.54a9,9,0,0,0-.64-3.58,2.73,2.73,0,0,0-1.53-1.63V84.24A8,8,0,0,1,51.2,87.78ZM38.75,90.69A5.82,5.82,0,0,0,37.26,95a6.58,6.58,0,0,0,1.38,4.47A4,4,0,0,0,41,100.66V89.73A3.43,3.43,0,0,0,38.75,90.69Z"/><path class="cls-2" d="M52.66,54.94v6.7s-11.21,3.83-11.85,3.9l-2,.25,2,.25c.67,0,11.88,3.87,11.88,3.87v6.74l-19.51,7V77.71L47.65,73,33.15,68.74V62.42L47.65,58,33.15,53.45V47.88Z"/><path class="cls-2" d="M53,36c0,6.6-1.31,9.72-4.51,10.53a8,8,0,0,1-2,.21V41.07a2.94,2.94,0,0,0,1-.18c.92-.35,1.17-1.85,1.17-4.93s-.57-4.22-1.7-4.22-1.35,1.17-1.77,4c-.11.75-.46,3.09-.64,4.26-.6,4.29-2.48,6.35-6.21,6.35-3.48,0-5.75-3.12-5.75-9.4,0-5.36,1.38-8.73,4.19-9.72a9.56,9.56,0,0,1,2.34-.35v5.5a2.43,2.43,0,0,0-1.06.25c-.53.39-1,1.42-1,4.11,0,3.12.5,4,1.42,4s1.17-.6,1.6-3.37c.18-1.14.57-3.87.67-4.54.71-4.68,2.45-6.74,6.1-6.74C51,26.18,53,29.23,53,36Z"/><rect class="cls-3" x="66.13" y="26.23" width="54.37" height="107.92"/><path class="cls-1" d="M93.47,123.07c-11.09,0-17.22-4.86-18-13.2-.21-.53-.32-8.45-.32-10.77H85.87c0,1.9.11,7.81.21,8.13.63,4.33,3.17,5.92,7.29,5.92,4.86,0,7.08-3,7.08-9.29,0-6.76-1.69-10.77-8.45-18-1.48-1.58-4.22-4.54-6.44-7-6.76-7.5-10.67-13.31-10.67-23.45C74.88,44,81.75,37.3,93.16,37.3s16.37,6.76,17.43,15.63c.21,3.38.42,7.39.42,8.87H100.23c0-1.9-.21-7.08-.21-7.08-.53-4.54-2.43-7.08-7-7.08-5.28,0-7,2.43-7,8.13,0,6.44,4.12,10.88,8.66,15.84,1.8,1.9,4.22,4.65,6.55,7.18,7,7.6,10.46,13.41,10.46,24.5C111.75,116.1,105.09,123.07,93.47,123.07Z"/><rect class="cls-4" x="128.79" y="26.23" width="54.16" height="107.92"/><path class="cls-1" d="M161.57,49.34v73.73h-11.2V49.34H137V38.78h37.78V49.34Z"/><rect class="cls-5" x="191.94" y="26.23" width="55.1" height="107.92"/><path class="cls-1" d="M203.7,123.07V38.78h31.37V49.34H214.58V75.43h18.91V85.89H214.58v26.62h20.7v10.56Z"/><rect class="cls-6" x="255.8" y="26.18" width="80.21" height="108.02"/><path class="cls-1" d="M312.93,123.07V55.5l-12.51,67.57h-9.33L278.46,55.92l.11,67.15H266.79V38.74H285l11.24,58.72,11-58.72H325v84.33Z"/><path class="cls-7" d="M80.84,199.23c-8.3,0-12.91-3.1-14.21-10a40.49,40.49,0,0,1-.51-6.2h4.4a36,36,0,0,0,.5,5.05c1,5.12,4.47,6.92,9.74,6.92,5.77,0,9.31-2.67,9.31-9.16,0-6.13-2.31-9.23-8.44-13.71-1.08-.79-4.18-2.88-5.48-3.68-6.2-4-9.81-8.66-9.81-15.44,0-7.28,4.26-12.19,13.63-12.19,8.3,0,12.33,4,13.49,10.17a50.35,50.35,0,0,1,.58,5.77H89.57a30,30,0,0,0-.58-5c-.94-4.4-3.82-6.64-9.16-6.64-6.35,0-9,2.88-9,7.86,0,5.19,3.17,8.8,8.58,12.41,2.09,1.37,4.69,3.17,5.41,3.61,6.2,3.89,9.81,8.58,9.81,16.81C94.62,194.39,89.57,199.23,80.84,199.23Z"/><path class="cls-7" d="M119,199.15c-9.66,0-12.69-6.71-12.69-20.34,0-11.61,2.17-20.41,12.77-20.41,11.25,0,12.62,8.51,12.62,20.41C131.69,191.8,128.3,199.15,119,199.15Zm0-36.78c-7,0-8.51,6-8.51,16.44,0,11,1.8,16.52,8.51,16.52,7.07,0,8.51-7.14,8.51-16.52C127.51,168.36,126.57,162.37,119,162.37Z"/><path class="cls-7" d="M144.6,198.65c-.22-.14-.29-.94-.29-2.16V144.63c0-1.3-.07-3.17-.07-3.61h4.11a17.66,17.66,0,0,1,.14,2.74v51.5a13.46,13.46,0,0,0,.22,3.39Z"/><path class="cls-7" d="M180.52,198.65l-.14-3.32c-1.59,2.88-5.2,3.75-9,3.75-5.41,0-9.09-2.45-9.09-9,0-30.73,0-31.09-.14-31.09h4.25c.07,0,.07.36.07,30.37,0,4.33,2.09,6.06,6.42,6.06,4.69,0,7.43-2.67,7.43-6.92V159h4.11v34a53.09,53.09,0,0,0,.22,5.7Z"/><path class="cls-7" d="M203.75,162.73v28c0,3.75,1.44,4.4,4.25,4.4a26.47,26.47,0,0,0,3.53-.22v3.61a23.87,23.87,0,0,1-5,.43c-4,0-7-1.66-7-7.07V162.73h-4.62V159h4.47l.29-6.78,4.11-.22v7h8v3.75Z"/><rect class="cls-7" x="223.15" y="143.4" width="4.61" height="5.53"/><path class="cls-7" d="M223.66,198.65c-.15-.07-.29-.79-.29-2.45V159h4.25v37.07a8,8,0,0,0,.21,2.6Z"/><path class="cls-7" d="M253.16,199.15c-9.66,0-12.7-6.71-12.7-20.34,0-11.61,2.16-20.41,12.77-20.41,11.25,0,12.62,8.51,12.62,20.41C265.85,191.8,262.46,199.15,253.16,199.15Zm0-36.78c-7,0-8.51,6-8.51,16.44,0,11,1.8,16.52,8.51,16.52,7.07,0,8.51-7.14,8.51-16.52C261.67,168.36,260.73,162.37,253.16,162.37Z"/><path class="cls-7" d="M296.65,198.65c-.22,0-.22-.5-.22-30.51,0-3.68-2.09-5.55-6.27-5.55-3.82,0-7.5,1.95-7.5,7.14v28.92h-4.18V159h4v4.47c1.23-3.89,5.41-5,9.16-5,5.91,0,9,3.61,9,9,0,30.65,0,31.23.07,31.23Z"/><path class="cls-7" d="M324.5,199.15c-7.29,0-11.68-3.1-11.68-12.26h4.11c0,6.56,2.74,8.51,7.57,8.51s7.5-1.8,7.5-6.49c0-5.19-3.82-7.07-8-8.94-5-2.24-10.53-4.47-10.53-12.41,0-5.63,3.89-9.23,10.75-9.23,7.14,0,11,3.75,11,12.48h-4.11c0-6.42-2.38-8.65-6.78-8.65s-6.78,1.88-6.78,5.48c0,5.27,4.33,6.92,8.8,8.95,4.76,2.09,9.67,4.62,9.67,12S331.35,199.15,324.5,199.15Z"/></svg>