<svg id="Layer_1" data-name="Layer 1" xmlns="http://www.w3.org/2000/svg" xmlns:xlink="http://www.w3.org/1999/xlink" viewBox="0 0 384 180"><defs><style>.cls-1{fill:none;}.cls-2{fill:#ef3b25;}.cls-3{fill:#0dbce5;}.cls-4{fill:#f89924;}.cls-5{fill:#03569f;}.cls-6{fill:#fff;}.cls-7{fill:#ef3e26;}.cls-8{fill:#231f1f;}.cls-9{fill:#77787c;}.cls-10{clip-path:url(#clip-path);}.cls-11{fill:#666;}.cls-12{fill:#231f20;}</style><clipPath id="clip-path"><rect class="cls-1" x="16.67" y="45.01" width="12.75" height="76.5"/></clipPath></defs><title>Artboard 2</title><path class="cls-2" d="M21.58,135.25a2,2,0,0,0-2-1.51c-1,0-1.63.48-1.64,1.34,0,1.89,4.94,1.42,4.94,4.2,0,1.26-.72,2.54-3,2.54a3.24,3.24,0,0,1-3.14-2.25l.89-.31a2.39,2.39,0,0,0,2.3,1.75c1.29,0,1.94-.67,1.94-1.56,0-2.21-4.94-1.56-4.94-4.29a2.38,2.38,0,0,1,2.64-2.23,2.88,2.88,0,0,1,2.9,2.13Z"/><path class="cls-2" d="M31.84,139.11c-.39,1.61-1.29,2.71-3.09,2.71-2,0-3.36-1.42-3.36-4.45,0-2.82,1.24-4.45,3.36-4.45a2.89,2.89,0,0,1,3,2.52l-.9.26c-.32-1.22-.88-2-2.19-2s-2.27,1.15-2.27,3.63,1,3.63,2.46,3.63,1.88-1,2.14-2.06Z"/><path class="cls-2" d="M36.13,133v8.66h-1V133Z"/><path class="cls-2" d="M45.57,133v.82h-4.3v2.9h3.06v.82H41.27v3.31h4.54v.82H40.29V133Z"/><path class="cls-2" d="M49,141.7V133h1.4l3.84,6.67h0V133h.88v8.66h-.8L49.94,134h0v7.72Z"/><path class="cls-2" d="M64.79,139.11c-.39,1.61-1.29,2.71-3.09,2.71-2,0-3.36-1.42-3.36-4.45,0-2.82,1.24-4.45,3.36-4.45a2.89,2.89,0,0,1,3,2.52l-.9.26c-.32-1.22-.88-2-2.19-2s-2.27,1.15-2.27,3.63,1,3.63,2.46,3.63,1.88-1,2.14-2.06Z"/><path class="cls-2" d="M73.16,133v.82h-4.3v2.9h3.06v.82H68.86v3.31H73.4v.82H67.89V133Z"/><path class="cls-2" d="M86.33,132.92h.75v8.9h-.75Z"/><path class="cls-2" d="M103.28,133.86v7.84h-1v-7.84H99.68V133h6.23v.82Z"/><path class="cls-2" d="M114.07,133v.82h-4.3v2.9h3.06v.82h-3.06v3.31h4.54v.82H108.8V133Z"/><path class="cls-2" d="M123.2,139.11c-.39,1.61-1.29,2.71-3.09,2.71-2,0-3.36-1.42-3.36-4.45,0-2.82,1.24-4.45,3.36-4.45a2.89,2.89,0,0,1,3,2.52l-.9.26c-.32-1.22-.88-2-2.19-2s-2.27,1.15-2.27,3.63,1,3.63,2.46,3.63,1.88-1,2.14-2.06Z"/><path class="cls-2" d="M132.46,133v8.66h-1v-4.13h-4.21v4.13h-1V133h1v3.72h4.21V133Z"/><path class="cls-2" d="M136.39,141.7V133h1.4l3.84,6.67h0V133h.88v8.66h-.8L137.3,134h0v7.72Z"/><path class="cls-2" d="M149.23,132.92c2.16,0,3.43,1.56,3.43,4.45s-1.28,4.45-3.43,4.45-3.43-1.56-3.43-4.45S147.08,132.92,149.23,132.92Zm0,8.08c1.55,0,2.46-1.18,2.46-3.63s-.91-3.63-2.46-3.63-2.46,1.18-2.46,3.63S147.69,141,149.23,141Z"/><path class="cls-2" d="M155.92,141.7V133h1v7.84h4.16v.82Z"/><path class="cls-2" d="M166.74,132.92c2.16,0,3.43,1.56,3.43,4.45s-1.28,4.45-3.43,4.45-3.43-1.56-3.43-4.45S164.59,132.92,166.74,132.92Zm0,8.08c1.55,0,2.46-1.18,2.46-3.63s-.91-3.63-2.46-3.63-2.46,1.18-2.46,3.63S165.19,141,166.74,141Z"/><path class="cls-2" d="M179.26,137.54v4.16h-.8v-.79h0a2.81,2.81,0,0,1-2.3.91c-2,0-3.43-1.42-3.43-4.45s1.44-4.45,3.43-4.45a3.07,3.07,0,0,1,3.17,2.54l-.93.18c-.44-1.38-1.17-1.91-2.19-1.91-1.29,0-2.51.86-2.51,3.63s1.22,3.63,2.51,3.63a1.87,1.87,0,0,0,2.11-1.92v-.73h-2v-.82Z"/><path class="cls-2" d="M184.44,138.06l-2.7-5h1.07l2.12,4,2.12-4h1.07l-2.7,5v3.65h-1Z"/><path class="cls-2" d="M200.64,132.92h.75v8.9h-.75Z"/><path class="cls-2" d="M220.3,133v.82H216v2.9h3.06v.82H216v3.31h4.54v.82H215V133Z"/><path class="cls-2" d="M223.77,141.7V133h1.4l3.84,6.67h0V133h.88v8.66h-.8L224.67,134h0v7.72Z"/><path class="cls-2" d="M239.7,137.54v4.16h-.8v-.79h0a2.81,2.81,0,0,1-2.3.91c-2,0-3.43-1.42-3.43-4.45s1.44-4.45,3.43-4.45a3.07,3.07,0,0,1,3.17,2.54l-.93.18c-.44-1.38-1.17-1.91-2.19-1.91-1.29,0-2.51.86-2.51,3.63s1.22,3.63,2.51,3.63a1.87,1.87,0,0,0,2.11-1.92v-.73h-2v-.82Z"/><path class="cls-2" d="M244.49,133v8.66h-1V133Z"/><path class="cls-2" d="M248.66,141.7V133h1.4l3.84,6.67h0V133h.88v8.66H254L249.56,134h0v7.72Z"/><path class="cls-2" d="M264,133v.82h-4.3v2.9h3.06v.82h-3.06v3.31h4.54v.82h-5.52V133Z"/><path class="cls-2" d="M272.78,133v.82h-4.3v2.9h3.06v.82h-3.06v3.31H273v.82h-5.52V133Z"/><path class="cls-2" d="M276.16,141.7V133H279c1.9,0,2.93.84,2.93,2.28a2.25,2.25,0,0,1-1.75,2.25L282,141.7H281l-1.78-3.93h-2.06v3.93Zm1-4.75h1.77c1.34,0,2-.49,2-1.58s-.8-1.51-2.06-1.51h-1.75Z"/><path class="cls-2" d="M286.88,133v8.66h-1V133Z"/><path class="cls-2" d="M291,141.7V133h1.4l3.83,6.67h0V133h.88v8.66h-.8L291.95,134h0v7.72Z"/><path class="cls-2" d="M307,137.54v4.16h-.8v-.79h0a2.81,2.81,0,0,1-2.3.91c-2,0-3.43-1.42-3.43-4.45s1.44-4.45,3.43-4.45a3.07,3.07,0,0,1,3.17,2.54l-.93.18c-.44-1.38-1.17-1.91-2.19-1.91-1.29,0-2.51.86-2.51,3.63s1.22,3.63,2.51,3.63a1.87,1.87,0,0,0,2.11-1.92v-.73h-2v-.82Z"/><path class="cls-2" d="M320.28,132.92H321v8.9h-.75Z"/><path class="cls-2" d="M341.3,141.7v-7.92h0l-2.46,7.92H338l-2.47-7.92h0v7.92h-.88V133h1.51l2.24,7h0l2.2-7h1.53v8.66Z"/><path class="cls-2" d="M345.09,141.7l2.7-8.66h1.45l2.7,8.66h-1L350.1,139h-3.15l-.83,2.71Zm2.09-3.53h2.67l-1.27-4.46h-.13Z"/><path class="cls-2" d="M356.3,133.86v7.84h-1v-7.84h-2.63V133h6.23v.82Z"/><path class="cls-2" d="M368,133v8.66h-1v-4.13h-4.21v4.13h-1V133h1v3.72H367V133Z"/><rect class="cls-3" x="90.76" y="44.4" width="24.1" height="47.77"/><rect class="cls-4" x="62.64" y="44.4" width="24.1" height="47.77"/><rect class="cls-5" x="35.1" y="44.4" width="24.1" height="47.77"/><path class="cls-6" d="M39,76.56h5.12v3c0,2.46.92,4,3,4,2.71,0,3.38-1.84,3.38-4.25,0-3.12-.15-4.15-5.48-9.42-3.28-3.28-6-6.24-6-11.26,0-6,2.81-8.65,8.39-8.65a8.71,8.71,0,0,1,6,2c.87.82,1.48,2.1,1.48,4.71v3.48H50.06V57.32c0-2.1-.87-3.33-2.87-3.33s-3.07,1.18-3.07,4c0,2.51.51,4,5.22,9,5,5.22,5.94,7,5.94,11.47,0,5.78-2.25,9.11-8.34,9.11-4.71,0-7.93-2-7.93-6.6v-4.4"/><polyline class="cls-6" points="65.98 50 83.39 50 83.39 54.3 77.24 54.3 77.24 86.95 72.13 86.95 72.13 54.3 65.98 54.3 65.98 50"/><polyline class="cls-6" points="95.85 50 109.77 50 109.77 54.3 100.97 54.3 100.97 65.86 109.26 65.86 109.26 70.16 100.97 70.16 100.97 82.65 109.77 82.65 109.77 86.95 95.85 86.95 95.85 50"/><rect class="cls-7" x="118.28" y="44.4" width="35.36" height="47.77"/><polyline class="cls-6" points="123.16 50 131.31 50 136.01 78.15 136.11 78.15 140.82 50 148.76 50 148.76 86.95 143.95 86.95 143.95 53.68 143.84 53.68 138.62 86.95 133.5 86.95 127.77 53.68 127.67 53.68 127.67 86.95 123.16 86.95 123.16 50"/><path class="cls-8" d="M45.89,102.72c-.07-3.06-.82-4.91-4.19-4.91-2.68,0-4.36.93-4.36,3.85,0,3.68,1.86,3.78,4.67,5.81,3.06,2.2,6.19,2.85,6.19,7.66,0,4.43-2.27,6.6-6.6,6.6-4.85,0-7-2.61-6.8-7.46h2.27c0,2.75.21,5.6,4.64,5.6,2.89,0,4.29-1.54,4.29-4.4,0-3.37-2.23-4.33-5.81-6.53-4.81-3-5-4.43-5.05-6.91,0-4.29,2.68-6.08,6.73-6.08,5.15,0,6.25,3.19,6.25,6.77H45.89"/><path class="cls-8" d="M52.49,114.43v-3.75c0-4.5,1.92-7.15,6-7.15s6,2.65,6,7.15v3.75c0,4.5-1.92,7.15-6,7.15s-6-2.65-6-7.15m2.06-1.89c0,4.53.52,7.39,3.92,7.39s3.92-2.85,3.92-7.39-.52-7.35-3.92-7.35S54.55,108,54.55,112.54Z"/><rect class="cls-8" x="69.63" y="96.43" width="2.06" height="24.81"/><path class="cls-8" d="M88.26,103.88v17.35H86.47v-1.92H86.4A5.22,5.22,0,0,1,82,121.58c-3.57,0-4.57-2.61-4.57-5.43V103.88h2.06v11.92c0,.48-.1,4.12,2.89,4.12a3.87,3.87,0,0,0,3.78-3.81V103.88h2.06"/><path class="cls-8" d="M91.8,105.53v-1.65h2.78v-3.57l2.06-.89v4.47h3.51v1.65H96.64v11.13c0,2.3.24,2.85,1.89,2.85a10.16,10.16,0,0,0,1.61-.1v1.79a18.1,18.1,0,0,1-2,.1c-2.78,0-3.61-1.24-3.61-3.37v-12.4H91.8"/><path class="cls-8" d="M106.64,99H104.1V96.43h2.54Zm-.24,22.2h-2.06V103.88h2.06Z"/><path class="cls-8" d="M111.59,114.43v-3.75c0-4.5,1.92-7.15,6-7.15s6,2.65,6,7.15v3.75c0,4.5-1.92,7.15-6,7.15s-6-2.65-6-7.15m2.06-1.89c0,4.53.52,7.39,3.92,7.39s3.92-2.85,3.92-7.39-.52-7.35-3.92-7.35S113.65,108,113.65,112.54Z"/><path class="cls-8" d="M130.11,121.24h-2.06V103.88h2.06V106h.07a5,5,0,0,1,4.19-2.47c4.29,0,4.74,3.2,4.74,5.46v12.23h-2.06V109.11c0-2-.79-3.92-3.2-3.92-1.85,0-3.74,1.27-3.74,5.15v10.89"/><path class="cls-8" d="M148.67,121.58c-3.75,0-5.22-1.82-5.19-5.5h2.1c0,2.37.55,4,3.2,4,2,0,3-1.13,3-3.06,0-4.53-7.8-3.37-7.8-9.11,0-3.2,2.2-4.33,5.22-4.33,3.44,0,4.54,2.37,4.54,5h-2c-.1-2.2-.69-3.37-3-3.37A2.47,2.47,0,0,0,146,107.7c0,4.33,7.8,3.16,7.8,9,0,3.26-1.89,4.91-5.12,4.91"/><rect class="cls-9" x="26.04" y="108.33" width="2.73" height="2.64"/><rect class="cls-9" x="26.04" y="94.32" width="2.73" height="2.63"/><path class="cls-9" d="M17,121.51v-2.77h6.93c1.18,0,3.18,0,3.18-2.59s-2-2.59-3.18-2.59H17V110.8h7.74c1.35,0,4.66.14,4.66,5.36s-3.31,5.36-4.66,5.36H17"/><g class="cls-10"><path class="cls-9" d="M20.51,100c-1.57.17-1.74,1.44-1.74,2.56s.61,1.89,1.42,1.89c.64,0,1-.46,1.13-1.17L22,99.85c.36-1.86,1.18-3.27,3.38-3.27s4.06,1.28,4.06,5.3c0,2.49-.37,5.72-4.14,5.75V104.5c1.65,0,1.94-1.43,1.94-2.63s-.45-2.18-1.5-2.18-1.18.63-1.39,1.73l-.46,2.53c-.32,1.77-.95,3.48-3.42,3.48-2.69,0-3.79-1.85-3.79-5.06,0-2.1.42-5.21,3.84-5.4V100"/></g><polyline class="cls-9" points="17 84.13 17 81.44 29.08 81.44 29.08 84.46 20.66 90.02 20.66 90.04 29.08 90.04 29.08 92.73 17 92.73 17 89.52 25.43 84.16 25.43 84.13 17 84.13"/><path class="cls-9" d="M23.58,72.7h0a2.25,2.25,0,0,0-2,2.37,2.34,2.34,0,0,0,2,2.4h0V72.7m2.79-2.46c2.15.73,3,2.47,3,4.77,0,3-1.45,5.06-4.87,5.06S19.68,78,19.68,75c0-3.32,2-4.92,5.39-4.92h.27v7.37h0A2.32,2.32,0,0,0,27.56,75a2.1,2.1,0,0,0-1.18-2.09Z"/><polyline class="cls-9" points="20.02 69.71 20.02 66.94 26.2 65.18 26.2 65.16 20.02 63.38 20.02 60.95 26.2 59.18 26.2 59.15 20.02 57.4 20.02 54.62 29.08 57.48 29.08 60.5 23.23 62.15 23.23 62.18 29.08 63.84 29.08 66.86 20.02 69.71"/><g class="cls-10"><path class="cls-9" d="M26.27,51.47c.78-.11,1.29-.57,1.29-1.87,0-1.14-.32-1.82-1-1.82-.51,0-.71.22-.91,1.43l-.37,2.28C25,53.1,24.44,54,22.72,54c-2.45,0-3-2.1-3-4.19,0-3.53,1.37-4.36,3.06-4.53v2.77a1.52,1.52,0,0,0-1.2,1.7c0,.65.07,1.64,1,1.64.42,0,.71-.19.84-1.27l.22-1.74c.32-2.56,1.22-3.39,2.79-3.39,2.69,0,3.06,2.54,3.06,4.73,0,2.9-1,4.37-3.14,4.5V51.47"/></g><path class="cls-11" d="M177.43,55v1h-2.3V66.26h-1.21V56h-2.3V55Z"/><path class="cls-11" d="M178.67,55h1.12v4a2.89,2.89,0,0,1,1.77-1c1.12,0,1.77.62,1.77,2.12v6.13h-1.12v-6c0-.93-.28-1.34-.89-1.34a2.12,2.12,0,0,0-1.54,1v6.32h-1.12Z"/><path class="cls-11" d="M186.12,62.4v.45c0,2,.45,2.63,1.51,2.63.86,0,1.21-.79,1.35-1.53l1.06.13a2.59,2.59,0,0,1-2.57,2.33c-1.7,0-2.47-1.28-2.47-4.2s.78-4.2,2.47-4.2S190,59.54,190,61.87v.53Zm2.71-.93c0-1.74-.34-2.52-1.35-2.52-.81,0-1.34.59-1.35,2.52Z"/><path class="cls-11" d="M196.74,55l2.89,8.28h0V55h1.21V66.26h-1.31l-3.49-9.77h0v9.77h-1.21V55Z"/><path class="cls-11" d="M202.71,60.38a2.48,2.48,0,0,1,2.4-2.37,2.11,2.11,0,0,1,2.32,2.3v4.51a3.34,3.34,0,0,0,.2,1.43h-1.17l-.14-.68a3,3,0,0,1-1.73.84,2,2,0,0,1-2.1-2.08c0-2,2.19-3,3.81-3.36v-.58c0-.89-.45-1.45-1.17-1.45s-1.28.86-1.4,1.59Zm3.6,1.53c-1,.31-2.69,1.06-2.69,2.33,0,.76.34,1.25,1.15,1.25a2.29,2.29,0,0,0,1.54-.84Z"/><path class="cls-11" d="M208.78,58.17h1.09V55.46H211v2.71h1.49v.93H211v5.67a.74.74,0,0,0,.81.81,2.46,2.46,0,0,0,.69-.16v.84a3.3,3.3,0,0,1-1.06.16c-1.06,0-1.56-.5-1.56-1.74V59.1h-1.09Z"/><path class="cls-11" d="M214.15,55h1.12v1.31h-1.12Zm0,3.14h1.12v8.09h-1.12Z"/><path class="cls-11" d="M219.46,58c1.7,0,2.47,1.28,2.47,4.2s-.78,4.2-2.47,4.2S217,65.14,217,62.21,217.76,58,219.46,58Zm0,7.47c.95,0,1.35-.59,1.35-3.27s-.4-3.27-1.35-3.27-1.35.59-1.35,3.27S218.51,65.48,219.46,65.48Z"/><path class="cls-11" d="M223.61,58.17h1.06v.89a3.2,3.2,0,0,1,1.84-1c1.12,0,1.77.62,1.77,2.12v6.13h-1.12v-6c0-.93-.28-1.34-.89-1.34a2.12,2.12,0,0,0-1.54,1v6.32h-1.12Z"/><path class="cls-11" d="M230.36,60.38a2.48,2.48,0,0,1,2.4-2.37,2.11,2.11,0,0,1,2.32,2.3v4.51a3.34,3.34,0,0,0,.2,1.43h-1.17l-.14-.68a3,3,0,0,1-1.73.84,2,2,0,0,1-2.1-2.08c0-2,2.19-3,3.81-3.36v-.58c0-.89-.45-1.45-1.17-1.45s-1.28.86-1.4,1.59ZM234,61.9c-1,.31-2.69,1.06-2.69,2.33,0,.76.34,1.25,1.15,1.25a2.29,2.29,0,0,0,1.54-.84Z"/><path class="cls-11" d="M237.47,55h1.12V66.26h-1.12Z"/><path class="cls-11" d="M245.46,55V65.23h3.64v1h-4.86V55Z"/><path class="cls-11" d="M250.94,62.4v.45c0,2,.45,2.63,1.51,2.63.86,0,1.21-.79,1.35-1.53l1.06.13a2.59,2.59,0,0,1-2.57,2.33c-1.7,0-2.47-1.28-2.47-4.2s.78-4.2,2.47-4.2,2.47,1.53,2.47,3.86v.53Zm2.71-.93c0-1.74-.34-2.52-1.35-2.52-.81,0-1.34.59-1.35,2.52Z"/><path class="cls-11" d="M256.29,60.38a2.48,2.48,0,0,1,2.4-2.37,2.11,2.11,0,0,1,2.32,2.3v4.51a3.34,3.34,0,0,0,.2,1.43H260l-.14-.68a3,3,0,0,1-1.73.84,2,2,0,0,1-2.1-2.08c0-2,2.19-3,3.81-3.36v-.58c0-.89-.45-1.45-1.17-1.45s-1.28.86-1.4,1.59Zm3.6,1.53c-1,.31-2.69,1.06-2.69,2.33,0,.76.34,1.25,1.15,1.25a2.29,2.29,0,0,0,1.54-.84Z"/><path class="cls-11" d="M267,65.48h0a2,2,0,0,1-1.67.93c-1.28,0-2.33-1.09-2.33-4.2S264,58,265.31,58a2.2,2.2,0,0,1,1.49.75V55h1.12v9.06a8.83,8.83,0,0,0,.19,2.18h-1.06Zm-.2-5.82a1.87,1.87,0,0,0-1.21-.72c-.95,0-1.49.78-1.49,3.27s.59,3.27,1.53,3.27a1.76,1.76,0,0,0,1.18-.78Z"/><path class="cls-11" d="M270.81,62.4v.45c0,2,.45,2.63,1.51,2.63.86,0,1.21-.79,1.35-1.53l1.06.13a2.59,2.59,0,0,1-2.57,2.33c-1.7,0-2.47-1.28-2.47-4.2s.78-4.2,2.47-4.2,2.47,1.53,2.47,3.86v.53Zm2.71-.93c0-1.74-.34-2.52-1.35-2.52-.81,0-1.34.59-1.35,2.52Z"/><path class="cls-11" d="M276.22,58.17h1.12v1h0A2.08,2.08,0,0,1,279.43,58v1.06a2.15,2.15,0,0,0-2.09,1.43v5.76h-1.12Z"/><path class="cls-11" d="M283.78,60.22c-.2-.7-.5-1.28-1.4-1.28a.91.91,0,0,0-.9,1c0,1.65,3.42,1.74,3.42,4.26a2.17,2.17,0,0,1-2.21,2.24,2.5,2.5,0,0,1-2.58-2.15l1-.22c.23.72.65,1.43,1.48,1.43a1.23,1.23,0,0,0,1.17-1.23c0-1.87-3.42-1.9-3.42-4.28a2,2,0,0,1,2.1-2,2.18,2.18,0,0,1,2.26,1.93Z"/><path class="cls-11" d="M286.69,55h1.12v4a2.89,2.89,0,0,1,1.77-1c1.12,0,1.77.62,1.77,2.12v6.13h-1.12v-6c0-.93-.28-1.34-.89-1.34a2.12,2.12,0,0,0-1.54,1v6.32h-1.12Z"/><path class="cls-11" d="M293.65,55h1.12v1.31h-1.12Zm0,3.14h1.12v8.09h-1.12Z"/><path class="cls-11" d="M298.08,58.94h0a1.92,1.92,0,0,1,1.65-.93c1.28,0,2.33,1.09,2.33,4.2s-1.06,4.2-2.33,4.2a2.2,2.2,0,0,1-1.49-.75V68.9h-1.12V58.17h.93Zm.19,5.82a1.86,1.86,0,0,0,1.21.72c.95,0,1.49-.78,1.49-3.27s-.59-3.27-1.53-3.27a1.75,1.75,0,0,0-1.18.78Z"/><path class="cls-11" d="M311.93,58.42c-.16-1.77-.72-2.52-1.67-2.52-1.42,0-2,1.25-2,4.75s.62,4.75,2,4.75c1.14,0,1.79-.78,1.82-2.86h1.21c0,2.49-1.12,3.89-3,3.89S307,64.89,307,60.64s1.25-5.77,3.25-5.77c1.67,0,2.69,1.15,2.88,3.55Z"/><path class="cls-11" d="M317.1,58c1.7,0,2.47,1.28,2.47,4.2s-.78,4.2-2.47,4.2-2.47-1.28-2.47-4.2S315.4,58,317.1,58Zm0,7.47c.95,0,1.35-.59,1.35-3.27s-.4-3.27-1.35-3.27-1.35.59-1.35,3.27S316.15,65.48,317.1,65.48Z"/><path class="cls-11" d="M321.25,58.17h1.06v.89a3.2,3.2,0,0,1,1.84-1c1.12,0,1.77.62,1.77,2.12v6.13H324.8v-6c0-.93-.28-1.34-.89-1.34a2.12,2.12,0,0,0-1.54,1v6.32h-1.12Z"/><path class="cls-11" d="M327.32,58.17h1.25V56.52c0-1.09.44-1.65,1.65-1.65a5.14,5.14,0,0,1,.87.09v.87a1.41,1.41,0,0,0-.61-.12c-.54,0-.79.34-.79.86v1.6H331v.93h-1.31v7.16h-1.12V59.1h-1.25Z"/><path class="cls-11" d="M333,62.4v.45c0,2,.45,2.63,1.51,2.63.86,0,1.21-.79,1.35-1.53l1.06.13a2.59,2.59,0,0,1-2.57,2.33c-1.7,0-2.47-1.28-2.47-4.2s.78-4.2,2.47-4.2,2.47,1.53,2.47,3.86v.53Zm2.71-.93c0-1.74-.34-2.52-1.35-2.52-.81,0-1.34.59-1.35,2.52Z"/><path class="cls-11" d="M338.45,58.17h1.12v1h0A2.08,2.08,0,0,1,341.66,58v1.06a2.15,2.15,0,0,0-2.09,1.43v5.76h-1.12Z"/><path class="cls-11" d="M343.41,62.4v.45c0,2,.45,2.63,1.51,2.63.86,0,1.21-.79,1.35-1.53l1.06.13a2.59,2.59,0,0,1-2.57,2.33c-1.7,0-2.47-1.28-2.47-4.2s.78-4.2,2.47-4.2,2.47,1.53,2.47,3.86v.53Zm2.71-.93c0-1.74-.34-2.52-1.35-2.52-.81,0-1.34.59-1.35,2.52Z"/><path class="cls-11" d="M348.92,58.17H350v.89a3.2,3.2,0,0,1,1.84-1c1.12,0,1.77.62,1.77,2.12v6.13h-1.12v-6c0-.93-.28-1.34-.89-1.34a2.12,2.12,0,0,0-1.54,1v6.32h-1.12Z"/><path class="cls-11" d="M359,60.56c-.11-1.21-.59-1.62-1.28-1.62-.95,0-1.35.59-1.35,3.27s.41,3.27,1.35,3.27c.72,0,1.12-.37,1.31-1.77h1.09c-.19,1.59-.93,2.71-2.4,2.71-1.7,0-2.47-1.28-2.47-4.2S356,58,357.73,58c1.46,0,2.15,1,2.37,2.55Z"/><path class="cls-11" d="M362.43,62.4v.45c0,2,.45,2.63,1.51,2.63.86,0,1.21-.79,1.35-1.53l1.06.13a2.59,2.59,0,0,1-2.57,2.33c-1.7,0-2.47-1.28-2.47-4.2s.78-4.2,2.47-4.2,2.47,1.53,2.47,3.86v.53Zm2.71-.93c0-1.74-.34-2.52-1.35-2.52-.81,0-1.34.59-1.35,2.52Z"/><path class="cls-12" d="M172.63,116.23V105.69h2v4.21h2.85v-4.21h2v10.54h-2v-4.56h-2.85v4.56Z"/><path class="cls-12" d="M181.64,106.91v-1.67h1.84v1.67Zm1.84,1.37v7.94h-1.84v-7.94Z"/><path class="cls-12" d="M185.7,105.69h1.84v10.54H185.7Z"/><path class="cls-12" d="M188.74,110.13v-1.49h.73v-2.16h1.84v2.16h1.18v1.49h-1.18v4.06c0,.39.34.58.83.58h.36v1.55a6.34,6.34,0,0,1-1.05.07c-1.2,0-2-.44-2-1.58v-4.67Z"/><path class="cls-12" d="M193.44,111.15c0-2.1,1.08-3,2.92-3s2.92.91,2.92,3v2.22c0,2.1-1.08,3-2.92,3s-2.92-.91-2.92-3Zm1.84,2.69c0,.61.44.93,1.08.93s1.08-.32,1.08-.93v-3.15c0-.61-.44-.93-1.08-.93s-1.08.32-1.08.93Z"/><path class="cls-12" d="M200.89,116.23v-7.94h1.78v.91a3.27,3.27,0,0,1,2.06-1.05c1.12,0,1.71.57,1.71,2v6H204.6v-5.84c0-.53-.18-.88-.67-.88a2.24,2.24,0,0,0-1.2.71v6Z"/><path class="cls-12" d="M212.28,105.69h2.83c2.16,0,3.4.91,3.4,2.72a2.48,2.48,0,0,1-1.3,2.19,2.65,2.65,0,0,1,1.55,2.6c0,2.09-1.4,3-3.53,3h-2.95Zm2,4.18h.7c.91,0,1.5-.53,1.5-1.24s-.45-1.27-1.4-1.27h-.8Zm0,4.7h.85a1.44,1.44,0,0,0,1.61-1.53c0-1-.7-1.5-1.75-1.5h-.7Z"/><path class="cls-12" d="M220.19,110.61a2.64,2.64,0,0,1,2.95-2.47c2,0,2.7,1,2.7,2.41v5a2.36,2.36,0,0,0,.1.64h-1.84c0-.2-.07-.45-.13-.77a3,3,0,0,1-2.19.92,1.68,1.68,0,0,1-1.83-1.9c0-1.84,1.75-2.63,4-3.32v-.58a.86.86,0,0,0-.95-.95,1,1,0,0,0-1,1Zm3.81,1.74c-1.1.38-2.21,1-2.21,1.83a.76.76,0,0,0,.82.83,1.93,1.93,0,0,0,1.39-.73Z"/><path class="cls-12" d="M227.9,105.69h1.84v10.54H227.9Z"/><path class="cls-12" d="M230.94,110.13v-1.49h.73v-2.16h1.84v2.16h1.18v1.49h-1.18v4.06c0,.39.34.58.83.58h.36v1.55a6.34,6.34,0,0,1-1.05.07c-1.2,0-2-.44-2-1.58v-4.67Z"/><path class="cls-12" d="M236,106.91v-1.67h1.84v1.67Zm1.84,1.37v7.94H236v-7.94Z"/><path class="cls-12" d="M239.85,108.29h1.78v.91a3.07,3.07,0,0,1,2-1.05,1.48,1.48,0,0,1,1.4,1.2,2.79,2.79,0,0,1,2-1.2c1.11,0,1.68.67,1.68,2.1v6H246.8v-6c0-.53-.19-.67-.48-.67a2,2,0,0,0-1.15.71v6h-1.84v-6c0-.53-.2-.67-.5-.67a1.77,1.77,0,0,0-1.14.71v6h-1.84Z"/><path class="cls-12" d="M250.25,111.15c0-2.1,1.08-3,2.92-3s2.92.91,2.92,3v2.22c0,2.1-1.08,3-2.92,3s-2.92-.91-2.92-3Zm1.84,2.69c0,.61.44.93,1.08.93s1.08-.32,1.08-.93v-3.15c0-.61-.44-.93-1.08-.93s-1.08.32-1.08.93Z"/><path class="cls-12" d="M257.7,116.23v-7.94h1.8v1.05h0a2,2,0,0,1,1.9-1.2v2a3.76,3.76,0,0,0-1-.21.87.87,0,0,0-.91.88v5.43Z"/><path class="cls-12" d="M264.25,112.7v1.05a1,1,0,0,0,1.08,1.14,1,1,0,0,0,1.08-1.11h1.84a2.57,2.57,0,0,1-2.92,2.6,2.69,2.69,0,0,1-2.92-2.82V111a2.93,2.93,0,0,1,5.84-.12v1.85Zm2.16-1.49v-.44a1.08,1.08,0,1,0-2.16,0v.44Z"/><path class="cls-12" d="M274.61,105.54h.91v10.84h-.91Z"/><path class="cls-12" d="M282,105.69h2.83c2.16,0,3.4.91,3.4,2.72a2.48,2.48,0,0,1-1.3,2.19,2.64,2.64,0,0,1,1.55,2.6c0,2.09-1.4,3-3.53,3h-3Zm2,4.18h.7c.91,0,1.5-.53,1.5-1.24s-.45-1.27-1.4-1.27h-.8Zm0,4.7h.85a1.44,1.44,0,0,0,1.61-1.53c0-1-.7-1.5-1.75-1.5h-.7Z"/><path class="cls-12" d="M290,110.61a2.64,2.64,0,0,1,2.95-2.47c2,0,2.7,1,2.7,2.41v5a2.36,2.36,0,0,0,.1.64h-1.84c0-.2-.07-.45-.13-.77a3,3,0,0,1-2.19.92,1.68,1.68,0,0,1-1.83-1.9c0-1.84,1.75-2.63,4-3.32v-.58a.86.86,0,0,0-.95-.95,1,1,0,0,0-1,1Zm3.81,1.74c-1.1.38-2.21,1-2.21,1.83a.76.76,0,0,0,.82.83,1.93,1.93,0,0,0,1.39-.73Z"/><path class="cls-12" d="M297.67,105.69h1.84v10.54h-1.84Z"/><path class="cls-12" d="M300.71,110.13v-1.49h.73v-2.16h1.84v2.16h1.18v1.49h-1.18v4.06c0,.39.34.58.83.58h.37v1.55a6.35,6.35,0,0,1-1.05.07c-1.2,0-2-.44-2-1.58v-4.67Z"/><path class="cls-12" d="M305.79,106.91v-1.67h1.84v1.67Zm1.84,1.37v7.94h-1.84v-7.94Z"/><path class="cls-12" d="M309.61,108.29h1.78v.91a3.08,3.08,0,0,1,2-1.05,1.48,1.48,0,0,1,1.4,1.2,2.79,2.79,0,0,1,2-1.2c1.11,0,1.68.67,1.68,2.1v6h-1.84v-6c0-.53-.19-.67-.48-.67a2,2,0,0,0-1.15.71v6h-1.84v-6c0-.53-.2-.67-.5-.67a1.78,1.78,0,0,0-1.14.71v6h-1.84Z"/><path class="cls-12" d="M320,111.15c0-2.1,1.08-3,2.92-3s2.92.91,2.92,3v2.22c0,2.1-1.08,3-2.92,3s-2.92-.91-2.92-3Zm1.84,2.69c0,.61.44.93,1.08.93s1.08-.32,1.08-.93v-3.15c0-.61-.44-.93-1.08-.93s-1.08.32-1.08.93Z"/><path class="cls-12" d="M327.46,116.23v-7.94h1.8v1.05h0a2,2,0,0,1,1.9-1.2v2a3.76,3.76,0,0,0-1-.21.87.87,0,0,0-.91.88v5.43Z"/><path class="cls-12" d="M334,112.7v1.05a1,1,0,0,0,1.08,1.14,1,1,0,0,0,1.08-1.11H338a2.57,2.57,0,0,1-2.92,2.6,2.69,2.69,0,0,1-2.92-2.82V111a2.93,2.93,0,0,1,5.84-.12v1.85Zm2.16-1.49v-.44a1.08,1.08,0,1,0-2.16,0v.44Z"/><path class="cls-12" d="M340.62,116.23h-.88v-2.07h2.07v2.07l-.92,2.16h-1Z"/><path class="cls-12" d="M347.89,116.23V105.69h2.82l1.83,6.92h0l1.83-6.92h2.82v10.54h-1.72v-8.29h0l-2.15,8.29h-1.52l-2.15-8.29h0v8.29Z"/><path class="cls-12" d="M359.13,105.69h2.8c2.31,0,3.59,1,3.68,3.65v3.24c-.09,2.66-1.37,3.65-3.68,3.65h-2.8Zm2,8.76h.7c1.11,0,1.75-.53,1.75-2.1v-2.77c0-1.49-.5-2.1-1.75-2.1h-.7Z"/><path class="cls-12" d="M187,75.39v20h-3V79.76H184l-3.1,15.61h-1.66l-3.1-15.61h-.06V95.38h-3v-20h4.51L180,87.07h.06l2.44-11.68Z"/><path class="cls-12" d="M190.51,84.86c.17-3,2.08-4.65,5-4.65s4.51,1.33,4.51,4V93.8a10.61,10.61,0,0,0,.19,1.58h-3c0-.42-.14-.8-.17-1.16a5.28,5.28,0,0,1-3.63,1.44,3,3,0,0,1-3.16-3.35c0-3.27,2.16-5.07,6.62-6.75v-.89c0-1.25-.5-1.91-1.52-1.91-1.41,0-1.72.83-1.77,2.1Zm6.39,3c-2.82,1.61-3.52,2.63-3.52,3.93,0,1,.5,1.36,1.44,1.36a2.72,2.72,0,0,0,2.08-1.38Z"/><path class="cls-12" d="M209.83,80.48H213l-3.9,16c-.66,2.71-1.91,3.57-4.24,3.57h-1.3V97.51h.75c1.55,0,2-.83,2-2.41a7.68,7.68,0,0,0-.33-2l-3.24-12.65h3.16l2,9.52h.06Z"/><path class="cls-12" d="M225.94,79.54h-2.71V77.69a20.89,20.89,0,0,0,4.07-2.57H229V95.38h-3.1Z"/><path class="cls-12" d="M237.5,84.72a4.87,4.87,0,0,1-1.8-4c0-3.87,1.77-5.62,4.59-5.62s4.59,1.74,4.59,5.62a4.87,4.87,0,0,1-1.8,4c1.69,1.08,2.08,2.69,2.08,5.12,0,3.76-1.66,5.81-4.87,5.81s-4.87-2-4.87-5.81C235.43,87.4,235.82,85.8,237.5,84.72Zm4.57,4.9c0-2.08-.44-3.32-1.77-3.32s-1.77,1.25-1.77,3.32.44,3.32,1.77,3.32S242.07,91.69,242.07,89.62Zm-.28-9.05c0-1.94-.44-2.74-1.49-2.74s-1.5.8-1.5,2.74.44,2.74,1.5,2.74S241.79,82.5,241.79,80.57Z"/><path class="cls-12" d="M254.25,88.93v-2h13.84v2Z"/><path class="cls-12" d="M277.11,95.38V92.69c4.26-6.23,6.59-9.66,6.59-12.59,0-1.58-.61-2.27-1.55-2.27-1.11,0-1.66.86-1.66,2.08v1.36h-3.27v-.94a4.88,4.88,0,0,1,5.09-5.2A4.46,4.46,0,0,1,287,79.54c0,3.16-1,5.48-6.37,13h6.06v2.82Z"/><path class="cls-12" d="M290.29,80.6c0-3.76,1.44-5.48,4.87-5.48S300,76.83,300,80.6v9.58c0,3.76-1.44,5.48-4.87,5.48s-4.87-1.72-4.87-5.48Zm6.48-.86c0-1.3-.58-1.91-1.61-1.91s-1.61.61-1.61,1.91V91c0,1.3.58,1.91,1.61,1.91s1.61-.61,1.61-1.91Z"/><path class="cls-12" d="M306.84,95.38l-1.91,3.43h-1.47l1.36-3.43h-1.25V92.11h3.27Z"/><path class="cls-12" d="M317.3,95.38V92.69c4.26-6.23,6.59-9.66,6.59-12.59,0-1.58-.61-2.27-1.55-2.27-1.11,0-1.66.86-1.66,2.08v1.36h-3.27v-.94a4.88,4.88,0,0,1,5.09-5.2,4.46,4.46,0,0,1,4.65,4.43c0,3.16-1,5.48-6.37,13h6.06v2.82Z"/><path class="cls-12" d="M330.47,80.6c0-3.76,1.44-5.48,4.87-5.48s4.87,1.72,4.87,5.48v9.58c0,3.76-1.44,5.48-4.87,5.48s-4.87-1.72-4.87-5.48Zm6.48-.86c0-1.3-.58-1.91-1.61-1.91s-1.61.61-1.61,1.91V91c0,1.3.58,1.91,1.61,1.91S337,92.33,337,91Z"/><path class="cls-12" d="M347.22,79.54h-2.71V77.69a20.89,20.89,0,0,0,4.07-2.57h1.74V95.38h-3.1Z"/><path class="cls-12" d="M363.05,80.76v-1c0-1.3-.44-1.91-1.47-1.91s-1.61.61-1.61,1.91v4.68a3.39,3.39,0,0,1,2.82-1.33c2,0,3.65,1.16,3.65,4.1v2.38c0,4.21-1.44,6.09-4.87,6.09s-4.87-1.72-4.87-5.48V80.6c0-3.76,1.44-5.48,4.87-5.48A4.21,4.21,0,0,1,366,79.54v1.22ZM360,91c0,1.3.58,1.91,1.61,1.91s1.61-.61,1.61-1.91V87.71c0-1.3-.58-1.91-1.44-1.91a3.53,3.53,0,0,0-1.77.91Z"/></svg>