<svg id="Layer_1" data-name="Layer 1" xmlns="http://www.w3.org/2000/svg" xmlns:xlink="http://www.w3.org/1999/xlink" viewBox="0 0 206 216"><defs><style>.cls-1{fill:none;}.cls-2{fill:#ef3b25;}.cls-3{fill:#b3b3b3;}.cls-4{fill:#666;}.cls-5{fill:#0dbce5;}.cls-6{fill:#f89924;}.cls-7{fill:#03569f;}.cls-8{fill:#fff;}.cls-9{fill:#ef3e26;}.cls-10{fill:#231f1f;}.cls-11{fill:#77787c;}.cls-12{clip-path:url(#clip-path);}.cls-13{fill:#231f20;}</style><clipPath id="clip-path"><rect class="cls-1" x="17.36" y="22.26" width="15.17" height="91.04"/></clipPath></defs><title>Artboard 2</title><path class="cls-2" d="M15.21,196.85c-.06-.74-.36-1.29-1.1-1.29a.92.92,0,0,0-1,.95c0,1.62,2.89,1.64,2.89,3.95a1.67,1.67,0,0,1-1.84,1.83,1.83,1.83,0,0,1-1.82-2h.72c0,.85.42,1.37,1.18,1.37a1,1,0,0,0,1.06-1.18c0-1.63-2.89-1.82-2.89-3.87a1.6,1.6,0,0,1,1.73-1.67c1,0,1.71.7,1.77,2Z"/><path class="cls-2" d="M20,197.17c-.1-1.13-.46-1.61-1.06-1.61-.91,0-1.3.8-1.3,3s.4,3,1.3,3c.73,0,1.14-.5,1.16-1.83h.78c0,1.59-.72,2.49-1.94,2.49s-2.08-1-2.08-3.69.8-3.69,2.08-3.69c1.06,0,1.72.74,1.84,2.27Z"/><path class="cls-2" d="M22.87,195v7.18H22.1V195Z"/><path class="cls-2" d="M27.53,195v.66H25v2.45h1.85v.66H25v2.77h2.63v.66h-3.4V195Z"/><path class="cls-2" d="M29.78,195l1.85,5.29h0V195h.78v7.18h-.84l-2.23-6.25h0v6.25h-.78V195Z"/><path class="cls-2" d="M36.58,197.17c-.1-1.13-.46-1.61-1.06-1.61-.91,0-1.3.8-1.3,3s.4,3,1.3,3c.73,0,1.14-.5,1.16-1.83h.78c0,1.59-.72,2.49-1.94,2.49s-2.08-1-2.08-3.69.8-3.69,2.08-3.69c1.06,0,1.72.74,1.84,2.27Z"/><path class="cls-2" d="M41.89,195v.66H39.39v2.45h1.85v.66H39.39v2.77H42v.66h-3.4V195Z"/><path class="cls-2" d="M47.56,194.9h.66v7.38h-.66Z"/><path class="cls-2" d="M57.2,195v.66H55.73v6.53H55v-6.53H53.48V195Z"/><path class="cls-2" d="M61.22,195v.66H58.72v2.45h1.85v.66H58.72v2.77h2.63v.66h-3.4V195Z"/><path class="cls-2" d="M65.3,197.17c-.1-1.13-.46-1.61-1.06-1.61-.91,0-1.3.8-1.3,3s.4,3,1.3,3c.73,0,1.14-.5,1.16-1.83h.78c0,1.59-.72,2.49-1.94,2.49s-2.08-1-2.08-3.69.8-3.69,2.08-3.69c1.06,0,1.72.74,1.84,2.27Z"/><path class="cls-2" d="M68.11,195v3.1h2.11V195H71v7.18h-.78v-3.42H68.11v3.42h-.78V195Z"/><path class="cls-2" d="M73.42,195l1.85,5.29h0V195h.78v7.18h-.84L73,195.93h0v6.25h-.78V195Z"/><path class="cls-2" d="M79.11,202.28c-1.21,0-2-1-2-3.69s.82-3.69,2-3.69,2,1,2,3.69S80.32,202.28,79.11,202.28Zm0-6.73c-.7,0-1.25.6-1.25,3s.56,3,1.25,3,1.25-.6,1.25-3S79.81,195.56,79.11,195.56Z"/><path class="cls-2" d="M83,195v6.53h2.33v.66h-3.1V195Z"/><path class="cls-2" d="M88,202.28c-1.21,0-2-1-2-3.69s.82-3.69,2-3.69,2,1,2,3.69S89.17,202.28,88,202.28Zm0-6.73c-.7,0-1.25.6-1.25,3s.56,3,1.25,3,1.25-.6,1.25-3S88.65,195.56,88,195.56Z"/><path class="cls-2" d="M94.08,197.21c-.06-.93-.34-1.65-1.12-1.65s-1.28.78-1.28,3,.42,3,1.28,3a1,1,0,0,0,1.12-1.13v-1h-1v-.66h1.75v3.36h-.5l-.1-.54a1.54,1.54,0,0,1-1.3.64c-1.26,0-2.06-1-2.06-3.69s.8-3.69,2.06-3.69,1.8,1.15,1.9,2.31Z"/><path class="cls-2" d="M96.41,195l1.23,3.14L98.84,195h.84L98,199.14v3h-.78v-3L95.57,195Z"/><path class="cls-2" d="M105,194.9h.66v7.38H105Z"/><path class="cls-2" d="M114.81,195v.66h-2.51v2.45h1.85v.66h-1.85v2.77h2.63v.66h-3.4V195Z"/><path class="cls-2" d="M117.06,195l1.85,5.29h0V195h.78v7.18h-.84l-2.23-6.25h0v6.25h-.78V195Z"/><path class="cls-2" d="M123.91,197.21c-.06-.93-.34-1.65-1.12-1.65s-1.28.78-1.28,3,.42,3,1.28,3a1,1,0,0,0,1.12-1.13v-1h-1v-.66h1.75v3.36h-.5l-.1-.54a1.54,1.54,0,0,1-1.3.64c-1.26,0-2.06-1-2.06-3.69s.8-3.69,2.06-3.69,1.8,1.15,1.9,2.31Z"/><path class="cls-2" d="M126.73,195v7.18H126V195Z"/><path class="cls-2" d="M129.22,195l1.85,5.29h0V195h.78v7.18H131l-2.23-6.25h0v6.25H128V195Z"/><path class="cls-2" d="M136.36,195v.66h-2.51v2.45h1.85v.66h-1.85v2.77h2.63v.66h-3.4V195Z"/><path class="cls-2" d="M140.78,195v.66h-2.51v2.45h1.85v.66h-1.85v2.77h2.63v.66h-3.4V195Z"/><path class="cls-2" d="M141.91,195h1.73a1.79,1.79,0,0,1,2,1.86,1.73,1.73,0,0,1-1.15,1.76l1.21,3.56h-.82l-1.15-3.4-1,0v3.36h-.78Zm.78,3.14h.68c1.11,0,1.47-.44,1.47-1.24s-.36-1.24-1.47-1.24h-.68Z"/><path class="cls-2" d="M147.72,195v7.18h-.78V195Z"/><path class="cls-2" d="M150.21,195l1.85,5.29h0V195h.78v7.18H152l-2.23-6.25h0v6.25H149V195Z"/><path class="cls-2" d="M157.05,197.21c-.06-.93-.34-1.65-1.12-1.65s-1.28.78-1.28,3,.42,3,1.28,3a1,1,0,0,0,1.12-1.13v-1h-1v-.66h1.75v3.36h-.5l-.1-.54a1.54,1.54,0,0,1-1.3.64c-1.26,0-2.06-1-2.06-3.69s.8-3.69,2.06-3.69,1.8,1.15,1.9,2.31Z"/><path class="cls-2" d="M163.58,194.9h.66v7.38h-.66Z"/><path class="cls-2" d="M171.22,195l1.25,5.43h0l1.22-5.43H175v7.18h-.72V195.6h0l-1.49,6.59h-.51l-1.49-6.59h0v6.59H170V195Z"/><path class="cls-2" d="M178.25,195l1.58,7.18h-.78l-.43-2.13H176.8l-.43,2.13h-.78l1.58-7.18Zm-1.34,4.4h1.61l-.8-3.86h0Z"/><path class="cls-2" d="M183.35,195v.66h-1.47v6.53h-.78v-6.53h-1.47V195Z"/><path class="cls-2" d="M184.86,195v3.1H187V195h.78v7.18H187v-3.42h-2.11v3.42h-.78V195Z"/><rect class="cls-3" x="12.85" y="122.5" width="176.41" height="0.75"/><path class="cls-4" d="M18.12,131.56v1.38H16v13.67h-1.1V132.94H12.85v-1.38Z"/><path class="cls-4" d="M19.25,131.56h1V137c.42-.73,1.13-1.4,1.61-1.4,1,0,1.61.83,1.61,2.83v8.21h-1v-8c0-1.25-.25-1.79-.8-1.79s-.94.5-1.4,1.33v8.46h-1Z"/><path class="cls-4" d="M26,141.44v.6c0,2.65.41,3.52,1.37,3.52.78,0,1.1-1.06,1.23-2l1,.17c-.16,1.63-1,3.13-2.33,3.13-1.54,0-2.24-1.71-2.24-5.63s.7-5.63,2.24-5.63,2.24,2,2.24,5.17v.71Zm2.45-1.25c0-2.33-.31-3.38-1.23-3.38-.73,0-1.21.79-1.23,3.38Z"/><path class="cls-4" d="M35.61,131.56l2.62,11.09h0V131.56h1.1v15H38.18L35,133.52h0v13.09h-1.1v-15Z"/><path class="cls-4" d="M41,138.73c.2-1.71.87-3.17,2.17-3.17s2.1,1.17,2.1,3.08v6a6.42,6.42,0,0,0,.18,1.92H44.42l-.13-.92a2.47,2.47,0,0,1-1.56,1.13c-1.14,0-1.9-1.08-1.9-2.79a4.73,4.73,0,0,1,3.45-4.5v-.77c0-1.19-.41-1.94-1.06-1.94S42.07,138,42,138.94Zm3.26,2c-.93.42-2.44,1.42-2.44,3.13,0,1,.31,1.67,1,1.67.55,0,1-.56,1.4-1.13Z"/><path class="cls-4" d="M46.52,135.77h1v-3.63h1v3.63h1.35V137H48.53v7.59c0,.63.23,1.08.73,1.08a1.63,1.63,0,0,0,.62-.21v1.13a2.12,2.12,0,0,1-1,.21c-1,0-1.41-.67-1.41-2.33V137h-1Z"/><path class="cls-4" d="M51.39,131.56h1v1.75h-1Zm0,4.21h1v10.84h-1Z"/><path class="cls-4" d="M56.19,135.56c1.54,0,2.24,1.71,2.24,5.63s-.71,5.63-2.24,5.63S54,145.11,54,141.19,54.66,135.56,56.19,135.56Zm0,10c.86,0,1.23-.79,1.23-4.38s-.37-4.38-1.23-4.38S55,137.6,55,141.19,55.33,145.57,56.19,145.57Z"/><path class="cls-4" d="M60,135.77h1V137c.48-.73,1.18-1.4,1.66-1.4,1,0,1.61.83,1.61,2.83v8.21h-1v-8c0-1.25-.25-1.79-.8-1.79s-.94.5-1.4,1.33v8.46H60Z"/><path class="cls-4" d="M66.08,138.73c.2-1.71.87-3.17,2.17-3.17s2.1,1.17,2.1,3.08v6a6.42,6.42,0,0,0,.18,1.92H69.47l-.13-.92a2.47,2.47,0,0,1-1.56,1.13c-1.14,0-1.9-1.08-1.9-2.79a4.73,4.73,0,0,1,3.45-4.5v-.77c0-1.19-.41-1.94-1.06-1.94S67.12,138,67,138.94Zm3.26,2c-.93.42-2.44,1.42-2.44,3.13,0,1,.31,1.67,1,1.67.55,0,1-.56,1.4-1.13Z"/><path class="cls-4" d="M72.52,131.56h1v15h-1Z"/><path class="cls-4" d="M79.75,131.56v13.67H83v1.38h-4.4v-15Z"/><path class="cls-4" d="M84.71,141.44v.6c0,2.65.41,3.52,1.37,3.52.78,0,1.1-1.06,1.23-2l1,.17c-.15,1.63-1,3.13-2.33,3.13-1.54,0-2.24-1.71-2.24-5.63s.7-5.63,2.24-5.63,2.24,2,2.24,5.17v.71Zm2.45-1.25c0-2.33-.31-3.38-1.23-3.38-.73,0-1.21.79-1.23,3.38Z"/><path class="cls-4" d="M89.56,138.73c.2-1.71.87-3.17,2.17-3.17s2.1,1.17,2.1,3.08v6a6.42,6.42,0,0,0,.18,1.92H93l-.13-.92a2.47,2.47,0,0,1-1.56,1.13c-1.14,0-1.9-1.08-1.9-2.79a4.73,4.73,0,0,1,3.45-4.5v-.77c0-1.19-.41-1.94-1.06-1.94s-1.16,1.15-1.27,2.13Zm3.26,2c-.93.42-2.44,1.42-2.44,3.13,0,1,.31,1.67,1,1.67.55,0,1-.56,1.4-1.13Z"/><path class="cls-4" d="M99.27,145.57h0c-.35.77-.86,1.25-1.51,1.25-1.16,0-2.11-1.46-2.11-5.63s1-5.63,2.11-5.63c.55,0,1,.5,1.35,1v-5h1v12.13a17.27,17.27,0,0,0,.17,2.92h-1Zm-.18-7.8c-.3-.44-.65-1-1.1-1-.86,0-1.35,1-1.35,4.38s.54,4.38,1.38,4.38c.31,0,.76-.42,1.07-1Z"/><path class="cls-4" d="M102.71,141.44v.6c0,2.65.41,3.52,1.37,3.52.78,0,1.1-1.06,1.23-2l1,.17c-.16,1.63-1,3.13-2.33,3.13-1.54,0-2.24-1.71-2.24-5.63s.7-5.63,2.24-5.63,2.24,2,2.24,5.17v.71Zm2.45-1.25c0-2.33-.31-3.38-1.23-3.38-.73,0-1.21.79-1.23,3.38Z"/><path class="cls-4" d="M107.62,135.77h1v1.31h0c.61-1.31,1.06-1.52,1.86-1.52V137c-.76,0-1.34.38-1.89,1.92v7.71h-1Z"/><path class="cls-4" d="M114.47,138.52c-.18-.94-.45-1.71-1.27-1.71-.48,0-.82.56-.82,1.29,0,2.21,3.1,2.33,3.1,5.71,0,1.71-.85,3-2,3-1.33,0-2-1.06-2.34-2.88l.93-.29c.21,1,.59,1.92,1.34,1.92.55,0,1.06-.75,1.06-1.65,0-2.5-3.1-2.54-3.1-5.73,0-1.42.79-2.63,1.9-2.63s1.8,1,2,2.58Z"/><path class="cls-4" d="M117.1,131.56h1V137c.42-.73,1.13-1.4,1.61-1.4,1,0,1.61.83,1.61,2.83v8.21h-1v-8c0-1.25-.25-1.79-.8-1.79s-.94.5-1.4,1.33v8.46h-1Z"/><path class="cls-4" d="M123.4,131.56h1v1.75h-1Zm0,4.21h1v10.84h-1Z"/><path class="cls-4" d="M127.42,136.81h0c.34-.77.85-1.25,1.5-1.25,1.16,0,2.11,1.46,2.11,5.63s-1,5.63-2.11,5.63c-.55,0-1-.5-1.35-1v4.33h-1V135.77h.85Zm.17,7.8c.3.44.65,1,1.1,1,.86,0,1.35-1,1.35-4.38s-.54-4.38-1.38-4.38c-.31,0-.76.42-1.07,1Z"/><path class="cls-4" d="M140,136.1c-.14-2.38-.65-3.38-1.51-3.38-1.28,0-1.85,1.67-1.85,6.36s.56,6.36,1.85,6.36c1,0,1.62-1,1.65-3.84h1.1c0,3.34-1,5.21-2.75,5.21s-2.95-2-2.95-7.73,1.13-7.73,2.95-7.73c1.51,0,2.44,1.54,2.61,4.75Z"/><path class="cls-4" d="M144.65,135.56c1.54,0,2.24,1.71,2.24,5.63s-.7,5.63-2.24,5.63-2.24-1.71-2.24-5.63S143.11,135.56,144.65,135.56Zm0,10c.86,0,1.23-.79,1.23-4.38s-.37-4.38-1.23-4.38-1.23.79-1.23,4.38S143.79,145.57,144.65,145.57Z"/><path class="cls-4" d="M148.41,135.77h1V137c.48-.73,1.18-1.4,1.66-1.4,1,0,1.61.83,1.61,2.83v8.21h-1v-8c0-1.25-.25-1.79-.8-1.79s-.94.5-1.4,1.33v8.46h-1Z"/><path class="cls-4" d="M153.91,135.77H155v-2.21c0-1.46.39-2.21,1.49-2.21a3.24,3.24,0,0,1,.79.13v1.17a.94.94,0,0,0-.55-.17c-.49,0-.72.46-.72,1.15v2.15h1.18V137H156v9.59h-1V137h-1.13Z"/><path class="cls-4" d="M159.08,141.44v.6c0,2.65.41,3.52,1.37,3.52.78,0,1.1-1.06,1.23-2l1,.17c-.16,1.63-1,3.13-2.33,3.13-1.54,0-2.24-1.71-2.24-5.63s.71-5.63,2.24-5.63,2.24,2,2.24,5.17v.71Zm2.45-1.25c0-2.33-.31-3.38-1.23-3.38-.73,0-1.21.79-1.23,3.38Z"/><path class="cls-4" d="M164,135.77h1v1.31h0c.61-1.31,1.06-1.52,1.86-1.52V137c-.76,0-1.34.38-1.89,1.92v7.71h-1Z"/><path class="cls-4" d="M168.48,141.44v.6c0,2.65.41,3.52,1.37,3.52.78,0,1.1-1.06,1.23-2l1,.17c-.16,1.63-1,3.13-2.33,3.13-1.54,0-2.24-1.71-2.24-5.63s.71-5.63,2.24-5.63,2.24,2,2.24,5.17v.71Zm2.45-1.25c0-2.33-.31-3.38-1.23-3.38-.73,0-1.21.79-1.23,3.38Z"/><path class="cls-4" d="M173.47,135.77h1V137c.48-.73,1.18-1.4,1.66-1.4,1,0,1.61.83,1.61,2.83v8.21h-1v-8c0-1.25-.25-1.79-.8-1.79s-.94.5-1.4,1.33v8.46h-1Z"/><path class="cls-4" d="M182.61,139c-.1-1.63-.54-2.17-1.16-2.17-.86,0-1.23.79-1.23,4.38s.37,4.38,1.23,4.38c.65,0,1-.5,1.18-2.38h1c-.17,2.13-.85,3.63-2.17,3.63-1.54,0-2.24-1.71-2.24-5.63s.71-5.63,2.24-5.63c1.33,0,1.95,1.29,2.14,3.42Z"/><path class="cls-4" d="M185.71,141.44v.6c0,2.65.41,3.52,1.37,3.52.78,0,1.1-1.06,1.23-2l1,.17c-.16,1.63-1,3.13-2.33,3.13-1.54,0-2.24-1.71-2.24-5.63s.71-5.63,2.24-5.63,2.24,2,2.24,5.17v.71Zm2.45-1.25c0-2.33-.31-3.38-1.23-3.38-.73,0-1.21.79-1.23,3.38Z"/><rect class="cls-5" x="105.53" y="21.53" width="28.68" height="56.84"/><rect class="cls-6" x="72.06" y="21.53" width="28.68" height="56.84"/><rect class="cls-7" x="39.29" y="21.53" width="28.68" height="56.84"/><path class="cls-8" d="M43.94,59.8H50v3.59c0,2.92,1.1,4.75,3.53,4.75,3.23,0,4-2.19,4-5.06,0-3.71-.18-4.93-6.52-11.21-3.9-3.9-7.13-7.43-7.13-13.4,0-7.19,3.35-10.3,10-10.3a10.36,10.36,0,0,1,7.13,2.44c1,1,1.77,2.5,1.77,5.6v4.14H57.1V36.9c0-2.5-1-4-3.41-4S50,34.34,50,37.75c0,3,.61,4.81,6.21,10.66,6,6.21,7.07,8.35,7.07,13.64,0,6.88-2.68,10.84-9.93,10.84-5.6,0-9.44-2.37-9.44-7.86V59.8"/><polyline class="cls-8" points="76.04 28.19 96.75 28.19 96.75 33.3 89.44 33.3 89.44 72.17 83.35 72.17 83.35 33.3 76.04 33.3 76.04 28.19"/><polyline class="cls-8" points="111.59 28.19 128.15 28.19 128.15 33.3 117.68 33.3 117.68 47.07 127.55 47.07 127.55 52.19 117.68 52.19 117.68 67.05 128.15 67.05 128.15 72.17 111.59 72.17 111.59 28.19"/><rect class="cls-9" x="138.28" y="21.53" width="42.08" height="56.84"/><polyline class="cls-8" points="144.09 28.19 153.78 28.19 159.38 61.69 159.5 61.69 165.1 28.19 174.54 28.19 174.54 72.17 168.82 72.17 168.82 32.57 168.7 32.57 162.48 72.17 156.39 72.17 149.57 32.57 149.45 32.57 149.45 72.17 144.09 72.17 144.09 28.19"/><path class="cls-10" d="M52.13,90.92c-.08-3.64-1-5.85-5-5.85C44,85.08,42,86.18,42,89.66c0,4.38,2.21,4.5,5.56,6.91,3.64,2.62,7.36,3.39,7.36,9.12,0,5.27-2.7,7.85-7.85,7.85-5.77,0-8.34-3.11-8.1-8.87h2.7c0,3.27.25,6.66,5.52,6.66,3.43,0,5.11-1.84,5.11-5.23,0-4-2.66-5.15-6.91-7.77-5.72-3.52-6-5.27-6-8.22,0-5.11,3.19-7.24,8-7.24,6.13,0,7.44,3.8,7.44,8.05H52.13"/><path class="cls-10" d="M60,104.87v-4.46c0-5.36,2.29-8.51,7.12-8.51s7.11,3.15,7.11,8.51v4.46c0,5.36-2.29,8.5-7.11,8.5S60,110.22,60,104.87m2.45-2.25c0,5.4.61,8.79,4.66,8.79s4.66-3.39,4.66-8.79-.61-8.75-4.66-8.75S62.44,97.26,62.44,102.62Z"/><rect class="cls-10" x="80.39" y="83.44" width="2.45" height="29.52"/><path class="cls-10" d="M102.55,92.31V113h-2.12v-2.29h-.08a6.21,6.21,0,0,1-5.19,2.7c-4.25,0-5.44-3.11-5.44-6.46V92.31h2.45V106.5c0,.57-.12,4.91,3.43,4.91a4.61,4.61,0,0,0,4.5-4.54V92.31h2.45"/><path class="cls-10" d="M106.76,94.28v-2h3.31V88.06L112.53,87v5.32h4.17v2h-4.17v13.25c0,2.74.29,3.39,2.25,3.39a12.11,12.11,0,0,0,1.92-.12v2.13a21.56,21.56,0,0,1-2.33.12c-3.31,0-4.29-1.47-4.29-4V94.28h-3.31"/><path class="cls-10" d="M124.43,86.55h-3V83.44h3ZM124.14,113h-2.45V92.31h2.45Z"/><path class="cls-10" d="M130.32,104.87v-4.46c0-5.36,2.29-8.51,7.11-8.51s7.12,3.15,7.12,8.51v4.46c0,5.36-2.29,8.5-7.12,8.5s-7.11-3.15-7.11-8.5m2.45-2.25c0,5.4.61,8.79,4.66,8.79s4.66-3.39,4.66-8.79-.61-8.75-4.66-8.75S132.77,97.26,132.77,102.62Z"/><path class="cls-10" d="M152.36,113H149.9V92.31h2.45v2.54h.08a6,6,0,0,1,5-2.94c5.11,0,5.64,3.8,5.64,6.5V113h-2.45V98.53c0-2.41-.94-4.66-3.8-4.66-2.21,0-4.46,1.51-4.46,6.13v13"/><path class="cls-10" d="M174.44,113.37c-4.46,0-6.22-2.17-6.18-6.54h2.5c0,2.82.65,4.7,3.8,4.7,2.37,0,3.52-1.35,3.52-3.64,0-5.4-9.28-4-9.28-10.83,0-3.8,2.62-5.15,6.22-5.15,4.09,0,5.4,2.82,5.4,6H178c-.12-2.62-.82-4-3.6-4a2.94,2.94,0,0,0-3.15,3c0,5.15,9.28,3.76,9.28,10.67,0,3.88-2.25,5.85-6.09,5.85"/><rect class="cls-11" x="28.52" y="97.61" width="3.25" height="3.14"/><rect class="cls-11" x="28.52" y="80.94" width="3.25" height="3.13"/><path class="cls-11" d="M17.76,113.29V110H26c1.41,0,3.78-.05,3.78-3.08s-2.37-3.08-3.78-3.08H17.76v-3.3H27c1.61,0,5.55.17,5.55,6.37s-3.94,6.38-5.55,6.38H17.76"/><g class="cls-12"><path class="cls-11" d="M21.93,87.75c-1.87.2-2.07,1.72-2.07,3S20.58,93,21.55,93c.76,0,1.18-.55,1.35-1.4l.78-4.13c.42-2.21,1.41-3.89,4-3.89s4.83,1.53,4.83,6.3c0,3-.44,6.8-4.93,6.84V93.05c2,0,2.31-1.7,2.31-3.13s-.54-2.6-1.79-2.6-1.41.75-1.65,2.06l-.54,3c-.38,2.11-1.13,4.14-4.07,4.14-3.2,0-4.51-2.21-4.51-6,0-2.5.5-6.2,4.57-6.43v3.66"/></g><polyline class="cls-11" points="17.76 68.81 17.76 65.61 32.13 65.61 32.13 69.2 22.11 75.81 22.11 75.84 32.13 75.84 32.13 79.04 17.76 79.04 17.76 75.22 27.78 68.84 27.78 68.81 17.76 68.81"/><path class="cls-11" d="M25.59,55.21h0A2.68,2.68,0,0,0,23.15,58a2.79,2.79,0,0,0,2.39,2.86h0V55.21m3.32-2.92c2.55.87,3.62,2.94,3.62,5.68,0,3.6-1.73,6-5.79,6s-5.79-2.41-5.79-6c0-3.95,2.35-5.85,6.42-5.85h.32v8.77h0A2.76,2.76,0,0,0,30.32,58a2.5,2.5,0,0,0-1.41-2.48Z"/><polyline class="cls-11" points="21.34 51.65 21.34 48.35 28.71 46.26 28.71 46.23 21.34 44.11 21.34 41.23 28.71 39.12 28.71 39.09 21.34 36.99 21.34 33.69 32.13 37.09 32.13 40.68 25.16 42.65 25.16 42.69 32.13 44.66 32.13 48.25 21.34 51.65"/><g class="cls-12"><path class="cls-11" d="M28.79,29.94c.93-.14,1.53-.68,1.53-2.22,0-1.36-.38-2.16-1.17-2.16-.6,0-.85.26-1.09,1.7L27.62,30c-.3,1.91-1,3-3.06,3-2.92,0-3.62-2.5-3.62-5,0-4.2,1.63-5.19,3.64-5.39v3.3a1.81,1.81,0,0,0-1.43,2c0,.78.08,2,1.15,2,.5,0,.84-.22,1-1.52l.26-2.07c.38-3,1.45-4,3.32-4,3.2,0,3.64,3,3.64,5.63,0,3.45-1.18,5.2-3.74,5.36v-3.3"/></g><path class="cls-13" d="M13.78,187.88v-9.55H15.6v3.81h2.58v-3.81H20v9.55H18.18v-4.13H15.6v4.13Z"/><path class="cls-13" d="M21.94,179.44v-1.51H23.6v1.51Zm1.67,1.24v7.2H21.94v-7.2Z"/><path class="cls-13" d="M25.62,178.33h1.67v9.55H25.62Z"/><path class="cls-13" d="M28.37,182.35V181H29v-2H30.7v2h1.07v1.35H30.7V186c0,.36.3.53.75.53h.33V188a5.79,5.79,0,0,1-1,.07c-1.08,0-1.8-.4-1.8-1.43v-4.23Z"/><path class="cls-13" d="M32.63,183.28c0-1.91,1-2.73,2.65-2.73s2.65.82,2.65,2.73v2c0,1.91-1,2.72-2.65,2.72s-2.65-.82-2.65-2.72Zm1.67,2.43c0,.56.4.85,1,.85s1-.29,1-.85v-2.86c0-.56-.4-.85-1-.85s-1,.29-1,.85Z"/><path class="cls-13" d="M39.37,187.88v-7.2H41v.82a3,3,0,0,1,1.87-1c1,0,1.55.52,1.55,1.85v5.48H42.73v-5.29c0-.48-.16-.79-.61-.79a2,2,0,0,0-1.08.65v5.44Z"/><path class="cls-13" d="M49.69,178.33h2.57c2,0,3.08.82,3.08,2.46a2.25,2.25,0,0,1-1.18,2,2.4,2.4,0,0,1,1.4,2.35c0,1.89-1.27,2.75-3.2,2.75H49.69Zm1.83,3.78h.63c.82,0,1.36-.48,1.36-1.12s-.41-1.15-1.27-1.15h-.73Zm0,4.26h.77A1.31,1.31,0,0,0,53.74,185c0-.91-.63-1.36-1.59-1.36h-.63Z"/><path class="cls-13" d="M56.86,182.79a2.39,2.39,0,0,1,2.67-2.24c1.77,0,2.45.9,2.45,2.18v4.56a2.15,2.15,0,0,0,.09.58H60.41c0-.19-.07-.41-.12-.7a2.75,2.75,0,0,1-2,.83,1.52,1.52,0,0,1-1.65-1.72c0-1.67,1.59-2.38,3.66-3v-.53a.78.78,0,0,0-.86-.86.9.9,0,0,0-.93.89Zm3.45,1.58c-1,.34-2,.9-2,1.65a.69.69,0,0,0,.74.75,1.75,1.75,0,0,0,1.26-.66Z"/><path class="cls-13" d="M63.85,178.33h1.67v9.55H63.85Z"/><path class="cls-13" d="M66.6,182.35V181h.66v-2h1.67v2H70v1.35H68.93V186c0,.36.3.53.75.53H70V188a5.79,5.79,0,0,1-1,.07c-1.08,0-1.8-.4-1.8-1.43v-4.23Z"/><path class="cls-13" d="M71.2,179.44v-1.51h1.67v1.51Zm1.67,1.24v7.2H71.2v-7.2Z"/><path class="cls-13" d="M74.67,180.69h1.61v.82a2.79,2.79,0,0,1,1.79-1,1.34,1.34,0,0,1,1.27,1.08,2.52,2.52,0,0,1,1.77-1.08c1,0,1.52.61,1.52,1.91v5.42H81v-5.48c0-.48-.17-.61-.44-.61a1.78,1.78,0,0,0-1,.65v5.44H77.82v-5.48c0-.48-.19-.61-.45-.61a1.61,1.61,0,0,0-1,.65v5.44H74.67Z"/><path class="cls-13" d="M84.09,183.28c0-1.91,1-2.73,2.65-2.73s2.65.82,2.65,2.73v2c0,1.91-1,2.72-2.65,2.72s-2.65-.82-2.65-2.72Zm1.67,2.43c0,.56.4.85,1,.85s1-.29,1-.85v-2.86c0-.56-.4-.85-1-.85s-1,.29-1,.85Z"/><path class="cls-13" d="M90.83,187.88v-7.2h1.63v1h0a1.79,1.79,0,0,1,1.72-1.08v1.8a3.43,3.43,0,0,0-.89-.18.78.78,0,0,0-.82.79v4.92Z"/><path class="cls-13" d="M96.77,184.68v1a.92.92,0,0,0,1,1,.9.9,0,0,0,1-1h1.67A2.33,2.33,0,0,1,97.75,188a2.43,2.43,0,0,1-2.65-2.55v-2.35a2.65,2.65,0,0,1,5.29-.11v1.68Zm2-1.35v-.4a1,1,0,1,0-2,0v.4Z"/><path class="cls-13" d="M106.15,178.2H107V188h-.82Z"/><path class="cls-13" d="M112.89,178.33h2.57c2,0,3.08.82,3.08,2.46a2.25,2.25,0,0,1-1.18,2,2.39,2.39,0,0,1,1.4,2.35c0,1.89-1.27,2.75-3.2,2.75h-2.67Zm1.83,3.78h.63c.82,0,1.36-.48,1.36-1.12s-.41-1.15-1.27-1.15h-.73Zm0,4.26h.77a1.31,1.31,0,0,0,1.46-1.39c0-.91-.64-1.36-1.59-1.36h-.63Z"/><path class="cls-13" d="M120.06,182.79a2.39,2.39,0,0,1,2.67-2.24c1.77,0,2.45.9,2.45,2.18v4.56a2.15,2.15,0,0,0,.09.58H123.6c0-.19-.07-.41-.12-.7a2.75,2.75,0,0,1-2,.83,1.52,1.52,0,0,1-1.65-1.72c0-1.67,1.59-2.38,3.66-3v-.53a.78.78,0,0,0-.86-.86.9.9,0,0,0-.93.89Zm3.45,1.58c-1,.34-2,.9-2,1.65a.69.69,0,0,0,.74.75,1.75,1.75,0,0,0,1.26-.66Z"/><path class="cls-13" d="M127,178.33h1.67v9.55H127Z"/><path class="cls-13" d="M129.79,182.35V181h.66v-2h1.67v2h1.07v1.35h-1.07V186c0,.36.3.53.75.53h.33V188a5.79,5.79,0,0,1-1,.07c-1.08,0-1.8-.4-1.8-1.43v-4.23Z"/><path class="cls-13" d="M134.4,179.44v-1.51h1.67v1.51Zm1.67,1.24v7.2H134.4v-7.2Z"/><path class="cls-13" d="M137.86,180.69h1.61v.82a2.79,2.79,0,0,1,1.79-1,1.34,1.34,0,0,1,1.27,1.08,2.52,2.52,0,0,1,1.77-1.08c1,0,1.52.61,1.52,1.91v5.42h-1.67v-5.48c0-.48-.17-.61-.44-.61a1.78,1.78,0,0,0-1,.65v5.44H141v-5.48c0-.48-.19-.61-.45-.61a1.61,1.61,0,0,0-1,.65v5.44h-1.67Z"/><path class="cls-13" d="M147.28,183.28c0-1.91,1-2.73,2.65-2.73s2.65.82,2.65,2.73v2c0,1.91-1,2.72-2.65,2.72s-2.65-.82-2.65-2.72Zm1.67,2.43c0,.56.4.85,1,.85s1-.29,1-.85v-2.86c0-.56-.4-.85-1-.85s-1,.29-1,.85Z"/><path class="cls-13" d="M154,187.88v-7.2h1.63v1h0a1.79,1.79,0,0,1,1.72-1.08v1.8a3.43,3.43,0,0,0-.89-.18.78.78,0,0,0-.82.79v4.92Z"/><path class="cls-13" d="M160,184.68v1a.92.92,0,0,0,1,1,.9.9,0,0,0,1-1h1.67a2.33,2.33,0,0,1-2.65,2.35,2.43,2.43,0,0,1-2.65-2.55v-2.35a2.65,2.65,0,0,1,5.29-.11v1.68Zm2-1.35v-.4a1,1,0,1,0-2,0v.4Z"/><path class="cls-13" d="M165.95,187.88h-.79V186H167v1.88l-.83,2h-.93Z"/><path class="cls-13" d="M172.54,187.88v-9.55h2.55l1.65,6.27h0l1.65-6.27H181v9.55h-1.56v-7.51h0l-1.94,7.51h-1.38l-1.94-7.51h0v7.51Z"/><path class="cls-13" d="M182.72,178.33h2.54c2.09,0,3.25.9,3.33,3.31v2.94c-.08,2.41-1.24,3.31-3.33,3.31h-2.54Zm1.83,7.94h.63c1,0,1.59-.48,1.59-1.9v-2.51c0-1.35-.45-1.91-1.59-1.91h-.63Z"/><path class="cls-13" d="M26.77,152.75v18h-2.7V156.7h0l-2.8,14.1h-1.5l-2.8-14.1h-.05v14.1h-2.7v-18h4.07l2.2,10.55h0l2.2-10.55Z"/><path class="cls-13" d="M29.92,161.3a4.12,4.12,0,0,1,4.5-4.2c2.6,0,4.07,1.2,4.07,3.65v8.62a9.61,9.61,0,0,0,.18,1.42H36c0-.37-.12-.72-.15-1a4.76,4.76,0,0,1-3.27,1.3,2.72,2.72,0,0,1-2.85-3c0-2.95,1.95-4.57,6-6.1v-.8c0-1.12-.45-1.72-1.37-1.72-1.27,0-1.55.75-1.6,1.9ZM35.7,164c-2.55,1.45-3.17,2.37-3.17,3.55,0,.88.45,1.22,1.3,1.22a2.46,2.46,0,0,0,1.87-1.25Z"/><path class="cls-13" d="M47.37,157.35H50.2l-3.52,14.45c-.6,2.45-1.72,3.22-3.82,3.22H41.67v-2.3h.67c1.4,0,1.85-.75,1.85-2.17a6.94,6.94,0,0,0-.3-1.77L41,157.35h2.85l1.8,8.6h0Z"/><path class="cls-13" d="M61.92,156.5H59.47v-1.67a18.85,18.85,0,0,0,3.67-2.33h1.57v18.3h-2.8Z"/><path class="cls-13" d="M72.37,161.17a4.39,4.39,0,0,1-1.62-3.6c0-3.5,1.6-5.07,4.15-5.07S79,154.07,79,157.57a4.39,4.39,0,0,1-1.62,3.6c1.52,1,1.87,2.42,1.87,4.62,0,3.4-1.5,5.25-4.4,5.25s-4.4-1.85-4.4-5.25C70.5,163.6,70.85,162.15,72.37,161.17Zm4.12,4.42c0-1.87-.4-3-1.6-3s-1.6,1.13-1.6,3,.4,3,1.6,3S76.5,167.47,76.5,165.59Zm-.25-8.17c0-1.75-.4-2.47-1.35-2.47s-1.35.72-1.35,2.47.4,2.47,1.35,2.47S76.25,159.17,76.25,157.42Z"/><path class="cls-13" d="M87.5,165v-1.8H100V165Z"/><path class="cls-13" d="M108.15,170.79v-2.42c3.85-5.62,5.95-8.72,5.95-11.37,0-1.42-.55-2-1.4-2s-1.5.77-1.5,1.87V158h-2.95v-.85a4.41,4.41,0,0,1,4.6-4.7,4,4,0,0,1,4.2,4c0,2.85-.9,4.95-5.75,11.75h5.47v2.55Z"/><path class="cls-13" d="M120,157.45c0-3.4,1.3-4.95,4.4-4.95s4.4,1.55,4.4,4.95v8.65c0,3.4-1.3,4.95-4.4,4.95s-4.4-1.55-4.4-4.95Zm5.85-.77c0-1.17-.52-1.72-1.45-1.72s-1.45.55-1.45,1.72v10.2c0,1.17.52,1.72,1.45,1.72s1.45-.55,1.45-1.72Z"/><path class="cls-13" d="M135,170.79l-1.72,3.1h-1.32l1.22-3.1H132v-2.95H135Z"/><path class="cls-13" d="M144.45,170.79v-2.42c3.85-5.62,5.95-8.72,5.95-11.37,0-1.42-.55-2-1.4-2s-1.5.77-1.5,1.87V158h-2.95v-.85a4.41,4.41,0,0,1,4.6-4.7,4,4,0,0,1,4.2,4c0,2.85-.9,4.95-5.75,11.75h5.47v2.55Z"/><path class="cls-13" d="M156.35,157.45c0-3.4,1.3-4.95,4.4-4.95s4.4,1.55,4.4,4.95v8.65c0,3.4-1.3,4.95-4.4,4.95s-4.4-1.55-4.4-4.95Zm5.85-.77c0-1.17-.52-1.72-1.45-1.72s-1.45.55-1.45,1.72v10.2c0,1.17.52,1.72,1.45,1.72s1.45-.55,1.45-1.72Z"/><path class="cls-13" d="M171.47,156.5H169v-1.67a18.85,18.85,0,0,0,3.67-2.33h1.57v18.3h-2.8Z"/><path class="cls-13" d="M185.77,157.6v-.92c0-1.17-.4-1.72-1.32-1.72s-1.45.55-1.45,1.72v4.22a3.06,3.06,0,0,1,2.55-1.2c1.8,0,3.3,1,3.3,3.7v2.15c0,3.8-1.3,5.5-4.4,5.5s-4.4-1.55-4.4-4.95v-8.65c0-3.4,1.3-4.95,4.4-4.95a3.8,3.8,0,0,1,4,4v1.1ZM183,166.87c0,1.17.52,1.72,1.45,1.72s1.45-.55,1.45-1.72v-3c0-1.17-.52-1.72-1.3-1.72a3.18,3.18,0,0,0-1.6.82Z"/></svg>