<?xml version="1.0" encoding="utf-8"?>
<!-- Generator: Adobe Illustrator 21.0.0, SVG Export Plug-In . SVG Version: 6.00 Build 0)  -->
<svg version="1.1" id="Layer_1" xmlns="http://www.w3.org/2000/svg" xmlns:xlink="http://www.w3.org/1999/xlink" x="0px" y="0px"
	 viewBox="-22 24 104 104" style="enable-background:new -22 24 104 104;" xml:space="preserve">
<style type="text/css">
	.st0{fill:#005EA6;}
	.st1{fill:#FFFFFF;}
	.st2{fill:#C41623;}
</style>
<g>
	<rect x="-17.9" y="28" class="st0" width="95.9" height="78.4"/>
	<path class="st1" d="M1.9,65.9c-4.7,0-8.3-1.8-8.3-6.2c0-0.4,0-13,0-13h4.2c0,0,0,12.3,0,12.6c0,2,1.5,3.2,4.2,3.2
		c2.4,0,4.1-1.2,4.1-3.1c0-0.4,0-12.7,0-12.7h4.2c0,0,0,12.9,0,13.2C10.3,64,6.8,65.9,1.9,65.9z"/>
	<rect x="9.2" y="61.8" class="st1" width="3.7" height="3.9"/>
	<rect x="29.2" y="61.8" class="st1" width="3.7" height="3.9"/>
	<path class="st1" d="M22,66c-5.7,0-7.8-1.7-8.6-4.1c-0.2-0.6-0.3-1.6-0.3-1.9h4.3c0,0.3,0.1,0.9,0.3,1.2c0.5,1.1,1.8,1.6,4.3,1.6
		c2.9,0,3.9-0.8,3.9-2c0-1.6-0.8-2.1-3.9-2.7c-0.5-0.1-1.9-0.4-2.8-0.5c-3.7-0.7-6-2.4-6-5.6c0-3.2,2.6-5.4,8.2-5.4
		c4.8,0,7,1.7,8,4.1c0.2,0.6,0.4,1.3,0.4,1.8h-4.3c0-0.2-0.1-0.6-0.3-0.9c-0.5-1.1-1.5-1.6-3.9-1.6c-3.2,0-3.8,0.7-3.8,1.8
		c0,1.4,1.1,1.9,4.2,2.6c1,0.2,2.2,0.5,2.6,0.5c3.8,0.7,5.7,2.3,5.7,5.5C30.1,63.7,27.4,66,22,66z"/>
	<polygon class="st1" points="5.3,89.1 -2.4,76.3 -2.4,89.1 -6.3,89.1 -6.3,70.1 -1.5,70.1 5.8,82.4 5.8,70.1 9.8,70.1 9.8,89.1 	
		"/>
	<path class="st1" d="M24.2,88.1c-1.2,0.8-2.9,1.3-5.2,1.3c-3.1,0-5.6-0.9-7-3.1c-0.7-1.1-1.1-2.5-1.1-4.3c0-1.6,0.4-3,1.2-4.2
		c1.3-2,3.8-3.1,6.8-3.1c3.2,0,5.4,1.2,6.6,3c1,1.5,1.4,3.5,1.2,5.7H14.9c0,0.6,0.3,1.1,0.8,1.7c0.6,0.6,1.7,1,3.3,1
		c1.1,0,2-0.2,2.6-0.5c0.7-0.3,1.1-0.8,1.2-1.1h4C26.4,85.9,25.6,87.2,24.2,88.1z M22.1,79.1C21.5,78.5,20.5,78,19,78
		s-2.5,0.4-3.2,1c-0.5,0.4-0.9,1.3-0.9,1.7h7.8C22.8,80.3,22.6,79.7,22.1,79.1z"/>
	<path class="st1" d="M46.8,89.1H42c0,0-2.8-8-2.8-8.5c0-0.2-0.2-1-0.2-1s-0.2,0.8-0.2,1c0,0.5-2.8,8.5-2.8,8.5h-4.8l-5-14h4.3
		l3.4,10.4L37,75.1h4.5l3.2,10.4L48,75.1h4L46.8,89.1z"/>
	<path class="st1" d="M59.3,89.4c-4.7,0-7-0.9-7.6-3.2c-0.1-0.6-0.1-0.9-0.1-1.4h4c0,0.2,0,0.4,0.1,0.7c0.3,0.7,1.3,0.8,3.5,0.8
		c2.3,0,3-0.4,3-1.2s-0.8-1-2.9-1.3c-0.5-0.1-2.2-0.3-3.1-0.5c-3.1-0.4-4.6-1.8-4.6-4.5c0-2.5,2.2-4.1,6.7-4.1c3.8,0,6.3,1,7,3
		c0.2,0.5,0.3,1.4,0.3,1.7h-3.9c0-0.2-0.1-0.6-0.2-0.8c-0.3-0.4-1-0.7-3-0.7c-2.2,0-2.9,0.4-2.9,1S56,79.7,58,80
		c0.8,0.1,2.8,0.4,3.3,0.5c3.4,0.5,4.8,1.8,4.8,4.4C66.3,87.9,64.1,89.4,59.3,89.4z"/>
	<rect x="-17.9" y="110.7" class="st2" width="95.9" height="13.3"/>
	<path class="st1" d="M78,24h-96h-4v4v96v4h4h96h4v-4V28v-4H78z M78,28v78.4h-96V28H78z M-18,124v-13.3h96V124H-18z"/>
</g>
</svg>
