<svg id="Layer_1" data-name="Layer 1" xmlns="http://www.w3.org/2000/svg" xmlns:xlink="http://www.w3.org/1999/xlink" viewBox="0 0 410 106"><defs><style>.cls-1{fill:none;}.cls-2{fill:#222;}.cls-3{clip-path:url(#clip-path);}.cls-4{fill:#005fa7;}.cls-5{fill:#fff;}.cls-6{fill:#c42127;}</style><clipPath id="clip-path"><rect class="cls-1" x="5" y="5" width="400" height="96"/></clipPath></defs><title>Artboard 1</title><rect class="cls-2" width="410" height="106"/><g class="cls-3"><rect class="cls-4" x="-2.12" y="-8" width="430.52" height="109"/><rect class="cls-5" x="-0.11" y="83.42" width="430.52" height="4.29"/><rect class="cls-6" x="-2.12" y="87.71" width="430.52" height="50.6"/></g><path class="cls-5" d="M405,5v96H5V5H405m4-4H1V105H409V1Z"/><path class="cls-5" d="M77.75,66.24V24.1H64.52V64.41c0,6.28-5.35,10-12.93,10-8.65,0-13.39-3.74-13.39-10.09V24.1H25V65.48C25,79.64,36.22,85.3,51.28,85.3c10.4,0,18.78-2.84,23.15-8.6v7.83h11.8V72.22H76.81A18.58,18.58,0,0,0,77.75,66.24Z"/><path class="cls-5" d="M141,67.09c0-10.33-6.27-15.31-18.29-17.6-1.38-.23-5.36-1.07-8.41-1.68-9.87-2-13.47-3.75-13.47-8.18,0-3.44,2-5.66,12-5.66,7.65,0,10.94,1.76,12.54,5.13a8.44,8.44,0,0,1,.84,3h13.62a18.49,18.49,0,0,0-1.38-5.81c-3.05-7.65-10.17-12.93-25.32-12.93-17.75,0-26,6.88-26,17.14,0,10,7.26,15.45,19,17.67,2.68.53,7.11,1.38,8.88,1.69,9.78,1.84,12.31,3.59,12.31,8.57,0,4-3.21,6.5-12.4,6.5-8,0-12-1.52-13.69-5a10.64,10.64,0,0,1-.84-3.82H86.83a25.27,25.27,0,0,0,.85,6.19c2.44,7.65,9,13.16,27.3,13.16,11.48,0,19.13-3.22,23-8.56v7.72h11.8V72.22h-9.53A17.85,17.85,0,0,0,141,67.09Z"/><polygon class="cls-5" points="192.46 63.03 169.21 24.1 153.83 24.1 153.83 84.53 166.46 84.53 166.46 43.6 190.78 84.53 205.08 84.53 205.08 24.1 192.46 24.1 192.46 63.03"/><path class="cls-5" d="M234.31,38.9c-9.73,0-17.43,3.65-21.73,9.89A22.74,22.74,0,0,0,208.69,62c0,5.6,1.21,10.05,3.41,13.54,4.29,6.81,12.31,9.73,22.21,9.73,7.21,0,12.65-1.54,16.54-4A18.26,18.26,0,0,0,258.95,70H246.22c-.24,1-1.37,2.43-3.72,3.48A20.54,20.54,0,0,1,234.31,75c-4.86,0-8.5-1.29-10.38-3.32-1.54-1.7-2.43-3.24-2.43-5.28h37.77c.73-6.72-.49-13.13-3.81-18C251.5,42.62,244.52,38.9,234.31,38.9Zm-12.89,19a9.23,9.23,0,0,1,2.76-5.35c2.19-1.94,5.6-3.17,10.21-3.17,4.87,0,7.95,1.55,9.82,3.41a7.83,7.83,0,0,1,2.17,5.11h-25Z"/><path class="cls-5" d="M326.11,40,315.66,73.1,305.6,40H291.18l-9.8,33.15L270.68,40H257.14l16,44.58h15.41s8.76-25.61,8.84-27.16c.08-.49.56-3.13.56-3.13s.49,2.64.58,3.21c.16,1.46,8.92,27.08,8.92,27.08h15.32L338.85,40Z"/><path class="cls-5" d="M369.62,57.46c-1.54-.24-7.78-1.14-10.37-1.53-6.32-1-7.71-1.7-7.71-3.65,0-2.1,2.11-3.25,9.25-3.25,6.16,0,8.5,1.06,9.4,2.27a5.67,5.67,0,0,1,.57,2.43h12.56a22.08,22.08,0,0,0-.81-5.35c-2.27-6.4-10-9.56-22.21-9.56-14.35,0-21.48,5.19-21.48,13.12,0,8.52,4.7,12.81,14.51,14.19,2.67.41,8,1.22,9.72,1.46,6.57,1,9.25,1.54,9.25,4.06s-2.27,3.89-9.64,3.89c-7.05,0-10.46-.57-11.27-2.67a6.72,6.72,0,0,1-.4-2.27H338.1a18.36,18.36,0,0,0,.48,4.46c1.87,7.3,9,10.29,24.08,10.29,15.4,0,22.37-4.7,22.37-13.94C385,63.05,380.32,59.08,369.62,57.46Z"/><path class="cls-5" d="M216,36.33a9.16,9.16,0,0,0,3.34-.59,7.21,7.21,0,0,0,.57.47h4.62c-.88-.7-1.8-1.41-2.6-2a5.42,5.42,0,0,0,1.65-3.77h-3.41a3.22,3.22,0,0,1-.66,1.84c-.7-.57-1.4-1.2-1.95-1.65A4.32,4.32,0,0,0,220,27.28c0-.08,0-.42,0-.53-.09-1.47-1.43-2.81-3.75-2.81-2.53,0-4,1.41-4.06,2.91v.62a4.66,4.66,0,0,0,1,2.57c-1.44.68-2.75,1.53-2.78,2.92,0,.16,0,.44,0,.63C210.56,35.81,213.16,36.33,216,36.33Zm-.6-9a.79.79,0,0,1,.82-.8.71.71,0,0,1,.77.75v.25c0,.47-.47.88-1.09,1.24a2.14,2.14,0,0,1-.49-1.12A1.2,1.2,0,0,1,215.45,27.34ZM215,32.07c.51.52,1.23,1.08,1.93,1.68a4.64,4.64,0,0,1-1.06.12c-1.27,0-1.81-.22-1.81-.81C214.06,32.71,214.45,32.38,215,32.07Z"/><path class="cls-5" d="M235.07,36.21s1.86-7,1.88-7.39c0,.39,1.86,7.39,1.86,7.39h4.06l3.41-12.15h-3.6s-1.82,7.5-1.82,7.88c0-.38-1.84-7.88-1.84-7.88h-3.82s-1.8,7.5-1.8,7.88c0-.38-1.85-7.88-1.85-7.88h-4L231,36.21Z"/><path class="cls-5" d="M252.89,36.4c4.45,0,6.47-2.1,6.47-6.36,0-4.06-1.89-6.18-6.47-6.18s-6.48,2.35-6.48,6.23C246.41,34.23,248.44,36.4,252.89,36.4Zm0-9.67c2.06,0,2.72,1,2.72,3.4,0,2.71-1,3.43-2.7,3.43s-2.71-.85-2.71-3.43S250.91,26.72,252.89,26.72Z"/><path class="cls-5" d="M264.68,32.1h2.51l2.13,4.11h4.17l-2.84-4.86a2.35,2.35,0,0,0,1.49-1.15,4.46,4.46,0,0,0,.54-2.29,4,4,0,0,0-.7-2.57,3.84,3.84,0,0,0-3.28-1.27H261V36.22h3.66Zm0-5.18h3.13c.54,0,.89.12,1.07.51a1.77,1.77,0,0,1,.13.78,2.18,2.18,0,0,1-.14.78c-.14.3-.53.41-1,.41h-3.21Z"/><polygon class="cls-5" points="284.84 33.21 279.01 33.21 279.01 24.07 275.25 24.07 275.25 36.21 284.84 36.21 284.84 33.21"/><path class="cls-5" d="M297.71,34.45c.67-1,.86-2,.86-4.55,0-2.21-.14-3.22-.89-4.25s-2.12-1.58-4.31-1.58H286.7V36.21h6.84C295.73,36.21,297,35.57,297.71,34.45Zm-7.32-1.1V26.91h2.34a2.09,2.09,0,0,1,1.84.66A4.92,4.92,0,0,1,295,29.9a6.49,6.49,0,0,1-.35,2.75,2.14,2.14,0,0,1-1.87.69h-2.34Z"/><path class="cls-5" d="M308.41,32.1h2.51l2.14,4.11h4.16l-2.84-4.86a2.36,2.36,0,0,0,1.5-1.15,4.5,4.5,0,0,0,.54-2.29,4,4,0,0,0-.7-2.57,3.84,3.84,0,0,0-3.28-1.27h-7.68V36.22h3.66Zm0-5.18h3.13c.54,0,.9.12,1.09.51a2,2,0,0,1,.12.78,2.17,2.17,0,0,1-.13.78c-.14.3-.54.41-1,.41h-3.21Z"/><polygon class="cls-5" points="329.52 33.38 322.79 33.38 322.79 31.58 329.21 31.58 329.21 28.69 322.79 28.69 322.79 26.93 329.46 26.93 329.46 24.07 319.13 24.07 319.13 36.21 329.52 36.21 329.52 33.38"/><path class="cls-5" d="M335.65,32.41l3.74,0a4.37,4.37,0,0,0,3.36-1.23,4.13,4.13,0,0,0,.9-2.94,4,4,0,0,0-1.09-3.17,4.21,4.21,0,0,0-3.17-1h-7.47V36.21h3.74v-3.8Zm0-5.52h3a1.17,1.17,0,0,1,1.17.57,1.66,1.66,0,0,1,.16.85,1.55,1.55,0,0,1-.15.8c-.18.34-.52.57-1.23.57H335.6v-2.8Z"/><path class="cls-5" d="M351.44,36.4c4.44,0,6.47-2.1,6.47-6.36,0-4.06-1.89-6.18-6.47-6.18s-6.49,2.35-6.49,6.23C344.95,34.23,347,36.4,351.44,36.4Zm0-9.67c2.06,0,2.71,1,2.71,3.4,0,2.71-1,3.43-2.71,3.43s-2.7-.85-2.7-3.43S349.44,26.72,351.44,26.72Z"/><path class="cls-5" d="M363.26,32.1h2.51l2.14,4.11h4.16l-2.84-4.86a2.37,2.37,0,0,0,1.5-1.15,4.59,4.59,0,0,0,.53-2.29,4.09,4.09,0,0,0-.7-2.57,3.87,3.87,0,0,0-3.29-1.27h-7.68V36.22h3.66Zm0-5.18h3.13c.53,0,.9.12,1.08.51a2,2,0,0,1,.12.78,2.26,2.26,0,0,1-.13.78c-.13.3-.54.41-1,.41h-3.21Z"/><polygon class="cls-5" points="376.21 36.21 380 36.21 380 26.99 383.88 26.99 383.88 24.07 372.36 24.07 372.36 26.99 376.21 26.99 376.21 36.21"/></svg>