<svg id="Layer_3" data-name="Layer 3" xmlns="http://www.w3.org/2000/svg" viewBox="0 0 495 176.83"><defs><style>.cls-1{fill:#0a1825;}.cls-2{fill:#045ea3;}.cls-3{fill:#eb2227;}.cls-4{fill:#fff;}.cls-5{fill:#666766;}</style></defs><title>Artboard 1</title><path class="cls-1" d="M37.19,113.78H457.81V21.86H37.19v91.92Z"/><rect class="cls-2" x="200.82" y="-144.99" width="93.37" height="424.13" transform="translate(179.93 314.44) rotate(-89.88)"/><rect class="cls-3" x="35.45" y="103.63" width="424.07" height="10.5"/><path class="cls-4" d="M266.31,42.62a3.54,3.54,0,0,0,.73-2h3.79A6,6,0,0,1,269,44.75c.9.66,1.92,1.44,2.91,2.21h-5.15a6.34,6.34,0,0,1-.63-.51,10,10,0,0,1-3.72.65c-3.21,0-6.1-.58-6.22-3,0-.21,0-.53,0-.7,0-1.53,1.5-2.48,3.09-3.23a5.12,5.12,0,0,1-1.11-2.84V36.6c.07-1.65,1.7-3.21,4.51-3.21,2.58,0,4.08,1.48,4.18,3.11,0,.12,0,.49,0,.58-.05,1.7-1.36,2.89-2.7,3.72C264.74,41.3,265.53,42,266.31,42.62Zm-6.12.85c0,.65.61.9,2,.9a5.33,5.33,0,0,0,1.17-.13c-.77-.66-1.58-1.29-2.14-1.85C260.63,42.72,260.19,43.1,260.19,43.47Zm3.32-6.1V37.1a.79.79,0,0,0-.87-.83.87.87,0,0,0-.9.88,1.22,1.22,0,0,0,0,.36,2.31,2.31,0,0,0,.54,1.24C263,38.34,263.45,37.9,263.5,37.37Z"/><path class="cls-4" d="M293.63,47H289.1s-2-7.73-2.07-8.18c0,.46-2.09,8.18-2.09,8.18h-4.49l-3.86-13.43H281s2.06,8.3,2.06,8.72c0-.42,2-8.72,2-8.72h4.25s2.06,8.3,2.06,8.72c0-.42,2-8.72,2-8.72h4Z"/><path class="cls-4" d="M311.72,40.12c0,4.73-2.26,7-7.21,7s-7.21-2.4-7.21-7c0-4.29,2.21-6.88,7.21-6.88S311.72,35.64,311.72,40.12Zm-4.18.1c0-2.67-.73-3.76-3-3.76s-3,1.05-3,3.76,1,3.79,3,3.79S307.53,43.22,307.53,40.23Z"/><path class="cls-4" d="M325.62,40.31A2.62,2.62,0,0,1,324,41.59L327.12,47h-4.64l-2.38-4.54h-2.79V47h-4.08V33.53h8.55a4.28,4.28,0,0,1,3.65,1.41,4.44,4.44,0,0,1,.78,2.84A4.94,4.94,0,0,1,325.62,40.31ZM322,37.25c-.2-.43-.61-.56-1.21-.56h-3.48v2.74h3.57c.51,0,1-.12,1.11-.44a2.45,2.45,0,0,0,.15-.87A2.21,2.21,0,0,0,322,37.25Z"/><path class="cls-4" d="M328.27,47V33.53h4.2V43.64H339V47Z"/><path class="cls-4" d="M347.84,47h-7.62V33.53h7.41c2.45,0,4,.59,4.79,1.75s1,2.26,1,4.71c0,2.86-.19,3.91-.94,5S350.27,47,347.84,47Zm1.58-7A5.23,5.23,0,0,0,349,37.4a2.32,2.32,0,0,0-2-.73h-2.6v7.12h2.6A2.38,2.38,0,0,0,349,43C349.37,42.6,349.42,41.08,349.42,40Z"/><path class="cls-4" d="M372.51,40.31a2.61,2.61,0,0,1-1.67,1.28L374,47h-4.64L367,42.42h-2.79V47h-4.08V33.53h8.55a4.27,4.27,0,0,1,3.65,1.41,4.44,4.44,0,0,1,.78,2.84A4.92,4.92,0,0,1,372.51,40.31Zm-3.59-3.06c-.21-.43-.61-.56-1.21-.56h-3.48v2.74h3.57c.51,0,1-.12,1.11-.44a2.45,2.45,0,0,0,.15-.87A2.22,2.22,0,0,0,368.92,37.25Z"/><path class="cls-4" d="M375.16,47V33.53h11.47v3.16h-7.41v2h7.14v3.2h-7.14v2h7.5V47Z"/><path class="cls-4" d="M400.45,41.42a4.89,4.89,0,0,1-3.74,1.36c-.51,0-4.17,0-4.17,0V47h-4.16V33.53h8.31a4.72,4.72,0,0,1,3.54,1.12,4.44,4.44,0,0,1,1.21,3.5A4.6,4.6,0,0,1,400.45,41.42Zm-3.35-4.13a1.32,1.32,0,0,0-1.31-.63h-3.3v3.09h3.25a1.39,1.39,0,0,0,1.38-.63,1.87,1.87,0,0,0,.15-.88A1.94,1.94,0,0,0,397.11,37.28Z"/><path class="cls-4" d="M416.72,40.12c0,4.73-2.26,7-7.21,7s-7.21-2.4-7.21-7c0-4.29,2.21-6.88,7.21-6.88S416.72,35.64,416.72,40.12Zm-4.18.1c0-2.67-.73-3.76-3-3.76s-3,1.05-3,3.76,1,3.79,3,3.79S412.54,43.22,412.54,40.23Z"/><path class="cls-4" d="M430.63,40.31A2.62,2.62,0,0,1,429,41.59L432.12,47h-4.64l-2.38-4.54h-2.79V47h-4.08V33.53h8.55a4.28,4.28,0,0,1,3.65,1.41,4.44,4.44,0,0,1,.78,2.84A4.94,4.94,0,0,1,430.63,40.31ZM427,37.25c-.2-.43-.61-.56-1.21-.56h-3.48v2.74h3.57c.51,0,1-.12,1.11-.44a2.45,2.45,0,0,0,.15-.87A2.21,2.21,0,0,0,427,37.25Z"/><path class="cls-4" d="M440.76,36.76V47h-4.22V36.76h-4.28V33.53h12.82v3.23Z"/><path class="cls-4" d="M460.56,19H34.44v97.58H460.56m-2-95.58v81.63H435.78c8.19-2.23,12-7,12-14.27,0-9.43-5.31-13.91-17.39-15.74-1.74-.28-8.79-1.28-11.71-1.74C411.55,69.78,410,69,410,66.76c0-2.38,2.38-3.66,10.43-3.66,7,0,9.61,1.19,10.62,2.56a6.28,6.28,0,0,1,.64,2.74h14.19a24.79,24.79,0,0,0-.92-6c-2.56-7.23-11.26-10.8-25.08-10.8-16.2,0-24.25,5.86-24.25,14.83,0,9.61,5.31,14.46,16.38,16,3,.46,9.06,1.37,11,1.65,7.41,1.1,10.43,1.74,10.43,4.58S430.86,93,422.54,93c-8,0-11.81-.64-12.72-3a7.59,7.59,0,0,1-.46-2.56H394.8a20.61,20.61,0,0,0,.55,5c1.33,5.19,5,8.45,11.81,10.15H379.64l18-49.78H383.28L371.47,90.28,360.12,52.85H343.83L332.76,90.28,320.68,52.85H305.39l17.83,49.78H292.89a26.35,26.35,0,0,0,7.4-3.2,20.61,20.61,0,0,0,9.15-12.63H295.07c-.27,1.1-1.55,2.75-4.21,3.94a23.17,23.17,0,0,1-9.24,1.65c-5.49,0-9.61-1.46-11.71-3.75-1.74-1.92-2.75-3.66-2.75-5.95H309.8c.82-7.6-.55-14.83-4.3-20.32-4.48-6.5-12.36-10.71-23.89-10.71-11,0-19.68,4.12-24.53,11.17a25.66,25.66,0,0,0-4.39,14.92c0,6.31,1.37,11.35,3.84,15.28,3.08,4.88,7.85,8,13.78,9.6h-19.7V34.95H236.36v44l-26.26-44H192.74v67.68h-2.57V89.29H179.43a20.23,20.23,0,0,0,.81-5.8c0-11.66-7.08-17.28-20.64-19.87-1.56-.26-6-1.21-9.5-1.9-11.14-2.25-15.2-4.23-15.2-9.24,0-3.89,2.25-6.39,13.56-6.39,8.64,0,12.35,2,14.17,5.79a9.54,9.54,0,0,1,1,3.37h15.38a21,21,0,0,0-1.56-6.56c-3.46-8.64-11.49-14.6-28.59-14.6-20,0-29.37,7.77-29.37,19.35,0,11.32,8.21,17.45,21.51,20,3,.6,8,1.55,10,1.9C162,77.36,164.86,79.35,164.86,85c0,4.49-3.63,7.34-14,7.34-9.07,0-13.56-1.73-15.46-5.7a12.06,12.06,0,0,1-1-4.32H119.08a29,29,0,0,0,1,7c2,6.11,6.25,11,15.9,13.35H119.42V89.29H108.77a20.92,20.92,0,0,0,1.06-6.75V34.95H94.89V80.47c0,7.08-6,11.32-14.6,11.32-9.76,0-15.12-4.23-15.12-11.4V34.95H50.23V81.68c0,11.73,6.85,18.29,17.22,21h-31V21Zm0,84.13V114H36.45v-8.91ZM92.3,102.63c6-1.52,10.75-4.28,13.79-8.29v8.29Zm71.48,0c6-1.59,10.35-4.39,13.07-8.11v8.11Zm43.22,0V57l27.14,45.66Zm134,0c1.35-4,9.7-28.51,9.79-30.1.09-.55.64-3.53.64-3.53s.55,3,.64,3.62c.17,1.51,8.52,26,9.88,30ZM267.06,73.08a10.43,10.43,0,0,1,3.11-6c2.47-2.2,6.32-3.57,11.53-3.57,5.49,0,9,1.74,11.07,3.84a8.86,8.86,0,0,1,2.47,5.77Z"/><path class="cls-5" d="M40.67,157.53V127.75H44v26.63h9.81v3.15Z"/><path class="cls-5" d="M57.19,157.53V127.75H60.6v29.78Z"/><path class="cls-5" d="M68.91,130.89v10h9.63v3.15H68.91v13.45H65.58V127.75H79.1v3.15Z"/><path class="cls-5" d="M82.62,157.53V127.75h13.6v3.15H85.92V141h9.7v3.11h-9.7v10.3H96.29v3.15Z"/><path class="cls-5" d="M99.1,127.67H103V133l-2.47,3.41-1.65-.9,1.2-2.55-.08-.19H99.1Z"/><path class="cls-5" d="M114,157.83c-4.87,0-7.34-1.8-7.9-5a19.1,19.1,0,0,1-.22-3.63h3.3c0,.64.11,2.13.22,3,.3,2,2.1,2.74,4.72,2.74,2.88,0,4.35-1.31,4.35-4.27,0-2.77-1-4.35-4.2-6.33l-2.92-1.87c-3.33-2.14-5.43-4.2-5.43-8.24s2.55-6.7,7.75-6.67c4.8,0,7,2,7.75,5.51a14.29,14.29,0,0,1,.19,3h-3.37a14.38,14.38,0,0,0-.11-2.44c-.41-2.13-1.65-3.11-4.57-3.11s-4.16,1.39-4.16,3.67c0,2.47,1,3.82,4.27,5.84.9.56,2.14,1.31,2.81,1.72,3.45,2.14,5.43,4.38,5.43,8.62C122,155.21,119.22,157.83,114,157.83Z"/><path class="cls-5" d="M142,157.53h-8.09V127.75h7.87c3.3,0,5.66,1.27,6.67,3.3,1.12,2.21,1.27,4.46,1.27,11.05,0,7.6-.19,10.15-1.42,12.25C147.16,156.22,145.29,157.53,142,157.53Zm4.35-15.43c0-5.09.07-7.12-.86-9.1-.67-1.46-2.29-2.1-4.12-2.1h-4.16v23.56h4.35a4.29,4.29,0,0,0,3.93-1.84C146.18,151.27,146.3,148.73,146.3,142.1Z"/><path class="cls-5" d="M153.6,157.53V127.75h13.6v3.15h-10.3V141h9.7v3.11h-9.7v10.3h10.38v3.15Z"/><path class="cls-5" d="M186.37,153c-1.12,3.22-3.75,4.79-7.42,4.79-3.37,0-5.47-1-7-3.63s-1.84-7.42-1.84-11.73c0-5.24.41-8.58,1.5-10.94,1.24-2.66,3.71-4,7.34-4s6.33,1.65,7.27,4.31a17.74,17.74,0,0,1,.94,6.22h-3.37a15.47,15.47,0,0,0-.86-5.21c-.67-1.42-2-2.14-4-2.14s-3.45.64-4.2,2.25c-.94,2.06-1.12,5.84-1.12,9.59s.49,8.58,1.2,10a4.32,4.32,0,0,0,4.2,2.32,4,4,0,0,0,4.12-2.51,13.88,13.88,0,0,0,.75-4.91h3.33A16.5,16.5,0,0,1,186.37,153Z"/><path class="cls-5" d="M190.94,157.53V127.75h3.41v29.78Z"/><path class="cls-5" d="M206.37,157.83c-4.87,0-7.34-1.8-7.9-5a19,19,0,0,1-.22-3.63h3.3c0,.64.11,2.13.23,3,.3,2,2.1,2.74,4.72,2.74,2.88,0,4.35-1.31,4.35-4.27,0-2.77-1-4.35-4.2-6.33l-2.92-1.87c-3.33-2.14-5.43-4.2-5.43-8.24s2.55-6.7,7.75-6.67c4.79,0,7,2,7.75,5.51a14.35,14.35,0,0,1,.19,3h-3.37a14.27,14.27,0,0,0-.11-2.44c-.41-2.13-1.65-3.11-4.57-3.11s-4.16,1.39-4.16,3.67c0,2.47,1,3.82,4.27,5.84.9.56,2.13,1.31,2.81,1.72,3.45,2.14,5.43,4.38,5.43,8.62C214.28,155.21,211.54,157.83,206.37,157.83Z"/><path class="cls-5" d="M218.17,157.53V127.75h3.41v29.78Z"/><path class="cls-5" d="M241.54,131.68c1,2.32,1.35,6,1.35,10.83,0,5.36-.41,8.69-1.46,11-1.31,2.92-3.45,4.31-7.19,4.31s-6.11-1.54-7.23-4.27c-.86-2.1-1.42-5.21-1.42-11,0-4.91.41-8.32,1.42-10.86s3.37-4.23,7.23-4.23S240.38,129,241.54,131.68Zm-3.18,20.83c.75-1.72,1.16-4.95,1.16-9.89,0-3-.26-7.64-1-9.4a4.37,4.37,0,0,0-4.27-2.58,4.11,4.11,0,0,0-4.16,2.55c-.75,1.8-1,6.41-1,9.51,0,3.41.19,7.6,1,9.7a4.26,4.26,0,0,0,4.16,2.51A4.21,4.21,0,0,0,238.36,152.51Z"/><path class="cls-5" d="M258.36,157.53,250,134.75v22.78H246.9V127.75h3.86L259,150.3V127.75h3.15v29.78Z"/><path class="cls-5" d="M274.09,157.83c-4.87,0-7.34-1.8-7.9-5a19.1,19.1,0,0,1-.22-3.63h3.3c0,.64.11,2.13.22,3,.3,2,2.1,2.74,4.72,2.74,2.88,0,4.35-1.31,4.35-4.27,0-2.77-1-4.35-4.2-6.33l-2.92-1.87c-3.33-2.14-5.43-4.2-5.43-8.24s2.55-6.7,7.75-6.67c4.79,0,7,2,7.75,5.51a14.35,14.35,0,0,1,.19,3h-3.37a14.38,14.38,0,0,0-.11-2.44c-.41-2.13-1.65-3.11-4.57-3.11s-4.16,1.39-4.16,3.67c0,2.47,1,3.82,4.27,5.84.9.56,2.13,1.31,2.81,1.72,3.45,2.14,5.43,4.38,5.43,8.62C282,155.21,279.26,157.83,274.09,157.83Z"/><path class="cls-5" d="M310.91,157.53V136.44l-5.43,21.09h-3.26L297,136.48v21.05H293.9V127.75H298l5.92,24.65L310,127.75h4v29.78Z"/><path class="cls-5" d="M320.24,157.53h-3.37l7.23-29.78h4.23L335,157.53h-3.45l-1.57-7.3h-8.09Zm6.29-23.19c-.08-.37-.41-2.92-.41-2.92s-.41,2.55-.49,2.92c-.11.52-3.07,12.89-3.07,12.89h6.78S326.6,134.75,326.53,134.34Z"/><path class="cls-5" d="M346,157.53h-8.09V127.75h7.87c3.3,0,5.66,1.27,6.67,3.3,1.12,2.21,1.27,4.46,1.27,11.05,0,7.6-.19,10.15-1.42,12.25C351.17,156.22,349.3,157.53,346,157.53Zm4.35-15.43c0-5.09.08-7.12-.86-9.1-.67-1.46-2.29-2.1-4.12-2.1h-4.16v23.56h4.35a4.29,4.29,0,0,0,3.93-1.84C350.2,151.27,350.31,148.73,350.31,142.1Z"/><path class="cls-5" d="M357.62,157.53V127.75h13.6v3.15h-10.3V141h9.7v3.11h-9.7v10.3h10.38v3.15Z"/><path class="cls-5" d="M395.18,157.53V144.12h-8.69v13.41h-3.33V127.75h3.33v13.19h8.69V127.75h3.33v29.78Z"/><path class="cls-5" d="M403.5,157.53V127.75h13.6v3.15h-10.3V141h9.7v3.11h-9.7v10.3h10.38v3.15Z"/><path class="cls-5" d="M435.19,141.12a4.23,4.23,0,0,1-2.51,2.4l4.57,14h-3.37l-4.42-13.34h-5.17v13.34H421V127.75h9c2.92,0,4.46,1.27,5.25,3.3a13.34,13.34,0,0,1,.71,5A13.71,13.71,0,0,1,435.19,141.12Zm-3-8.32a2.64,2.64,0,0,0-2.81-2h-5.09v10.41l5.47,0a2.33,2.33,0,0,0,2.28-1.35,12.94,12.94,0,0,0,.41-3.45A19.88,19.88,0,0,0,432.23,132.81Z"/><path class="cls-5" d="M440.65,157.53V127.75h13.6v3.15H444V141h9.7v3.11H444v10.3h10.38v3.15Z"/></svg>