<svg id="Layer_3" data-name="Layer 3" xmlns="http://www.w3.org/2000/svg" viewBox="0 0 495 176.83"><defs><style>.cls-1{fill:#0a1825;}.cls-2{fill:#045ea3;}.cls-3{fill:#eb2227;}.cls-4{fill:#fff;}.cls-5{fill:#666766;}</style></defs><title>Artboard 1</title><path class="cls-1" d="M37.19,162.73H457.81V70.81H37.19v91.92Z"/><rect class="cls-2" x="200.82" y="-96.04" width="93.37" height="424.13" transform="translate(130.98 363.29) rotate(-89.88)"/><rect class="cls-3" x="35.45" y="152.59" width="424.07" height="10.5"/><path class="cls-4" d="M266.31,91.57a3.54,3.54,0,0,0,.73-2h3.79A6,6,0,0,1,269,93.7c.9.66,1.92,1.44,2.91,2.21h-5.15a6.32,6.32,0,0,1-.63-.51,10,10,0,0,1-3.72.65c-3.21,0-6.1-.58-6.22-3,0-.21,0-.53,0-.7,0-1.53,1.5-2.48,3.09-3.23a5.12,5.12,0,0,1-1.11-2.84v-.68c.07-1.65,1.7-3.21,4.51-3.21,2.58,0,4.08,1.48,4.18,3.11,0,.12,0,.49,0,.58-.05,1.7-1.36,2.89-2.7,3.72C264.74,90.25,265.53,90.93,266.31,91.57Zm-6.12.85c0,.65.61.9,2,.9a5.33,5.33,0,0,0,1.17-.13c-.77-.66-1.58-1.29-2.14-1.85C260.63,91.68,260.19,92.05,260.19,92.42Zm3.32-6.1V86a.79.79,0,0,0-.87-.83.87.87,0,0,0-.9.88,1.22,1.22,0,0,0,0,.36,2.31,2.31,0,0,0,.54,1.24C263,87.29,263.45,86.85,263.5,86.32Z"/><path class="cls-4" d="M293.63,95.91H289.1s-2-7.73-2.07-8.18c0,.46-2.09,8.18-2.09,8.18h-4.49l-3.86-13.43H281s2.06,8.29,2.06,8.72c0-.42,2-8.72,2-8.72h4.25s2.06,8.29,2.06,8.72c0-.42,2-8.72,2-8.72h4Z"/><path class="cls-4" d="M311.72,89.07c0,4.73-2.26,7-7.21,7s-7.21-2.4-7.21-7c0-4.29,2.21-6.88,7.21-6.88S311.72,84.59,311.72,89.07Zm-4.18.1c0-2.67-.73-3.76-3-3.76s-3,1.05-3,3.76,1,3.79,3,3.79S307.53,92.17,307.53,89.18Z"/><path class="cls-4" d="M325.62,89.26A2.62,2.62,0,0,1,324,90.54l3.16,5.37h-4.64l-2.38-4.54h-2.79v4.54h-4.08V82.48h8.55a4.28,4.28,0,0,1,3.65,1.41,4.44,4.44,0,0,1,.78,2.84A4.94,4.94,0,0,1,325.62,89.26ZM322,86.2c-.2-.43-.61-.56-1.21-.56h-3.48v2.74h3.57c.51,0,1-.12,1.11-.44a2.45,2.45,0,0,0,.15-.87A2.21,2.21,0,0,0,322,86.2Z"/><path class="cls-4" d="M328.27,95.91V82.48h4.2V92.59H339v3.31Z"/><path class="cls-4" d="M347.84,95.91h-7.62V82.48h7.41c2.45,0,4,.59,4.79,1.75s1,2.26,1,4.71c0,2.86-.19,3.91-.94,5S350.27,95.91,347.84,95.91Zm1.58-7a5.23,5.23,0,0,0-.44-2.58,2.32,2.32,0,0,0-2-.73h-2.6v7.12h2.6A2.38,2.38,0,0,0,349,92C349.37,91.56,349.42,90,349.42,88.94Z"/><path class="cls-4" d="M372.51,89.26a2.61,2.61,0,0,1-1.67,1.28L374,95.91h-4.64L367,91.37h-2.79v4.54h-4.08V82.48h8.55a4.27,4.27,0,0,1,3.65,1.41,4.44,4.44,0,0,1,.78,2.84A4.92,4.92,0,0,1,372.51,89.26Zm-3.59-3.06c-.21-.43-.61-.56-1.21-.56h-3.48v2.74h3.57c.51,0,1-.12,1.11-.44a2.45,2.45,0,0,0,.15-.87A2.22,2.22,0,0,0,368.92,86.2Z"/><path class="cls-4" d="M375.16,95.91V82.48h11.47v3.16h-7.41v2h7.14v3.2h-7.14v2h7.5v3.13Z"/><path class="cls-4" d="M400.45,90.37a4.89,4.89,0,0,1-3.74,1.36c-.51,0-4.17,0-4.17,0v4.2h-4.16V82.48h8.31a4.72,4.72,0,0,1,3.54,1.12,4.44,4.44,0,0,1,1.21,3.5A4.6,4.6,0,0,1,400.45,90.37Zm-3.35-4.13a1.32,1.32,0,0,0-1.31-.63h-3.3V88.7h3.25a1.39,1.39,0,0,0,1.38-.63,1.87,1.87,0,0,0,.15-.88A1.94,1.94,0,0,0,397.11,86.24Z"/><path class="cls-4" d="M416.72,89.07c0,4.73-2.26,7-7.21,7s-7.21-2.4-7.21-7c0-4.29,2.21-6.88,7.21-6.88S416.72,84.59,416.72,89.07Zm-4.18.1c0-2.67-.73-3.76-3-3.76s-3,1.05-3,3.76,1,3.79,3,3.79S412.54,92.17,412.54,89.18Z"/><path class="cls-4" d="M430.63,89.26A2.62,2.62,0,0,1,429,90.54l3.16,5.37h-4.64l-2.38-4.54h-2.79v4.54h-4.08V82.48h8.55a4.28,4.28,0,0,1,3.65,1.41,4.44,4.44,0,0,1,.78,2.84A4.94,4.94,0,0,1,430.63,89.26ZM427,86.2c-.2-.43-.61-.56-1.21-.56h-3.48v2.74h3.57c.51,0,1-.12,1.11-.44a2.45,2.45,0,0,0,.15-.87A2.21,2.21,0,0,0,427,86.2Z"/><path class="cls-4" d="M440.76,85.71v10.2h-4.22V85.71h-4.28V82.48h12.82v3.23Z"/><path class="cls-4" d="M460.56,68H34.44v97.58H460.56m-2-95.58v81.63H435.78c8.19-2.23,12-7,12-14.27,0-9.43-5.31-13.91-17.39-15.74-1.74-.28-8.79-1.28-11.71-1.74-7.14-1.1-8.69-1.92-8.69-4.12,0-2.38,2.38-3.66,10.43-3.66,7,0,9.61,1.19,10.62,2.56a6.28,6.28,0,0,1,.64,2.74h14.19a24.79,24.79,0,0,0-.92-6c-2.56-7.23-11.26-10.8-25.08-10.8-16.2,0-24.25,5.86-24.25,14.83,0,9.61,5.31,14.46,16.38,16,3,.46,9.06,1.37,11,1.65,7.41,1.1,10.43,1.74,10.43,4.58S430.86,142,422.54,142c-8,0-11.81-.64-12.72-3a7.59,7.59,0,0,1-.46-2.56H394.8a20.61,20.61,0,0,0,.55,5c1.33,5.19,5,8.45,11.81,10.15H379.64l18-49.78H383.28l-11.81,37.43L360.12,101.8H343.83l-11.07,37.43L320.68,101.8H305.39l17.83,49.78H292.89a26.35,26.35,0,0,0,7.4-3.2,20.61,20.61,0,0,0,9.15-12.63H295.07c-.27,1.1-1.55,2.75-4.21,3.94a23.17,23.17,0,0,1-9.24,1.65c-5.49,0-9.61-1.46-11.71-3.75-1.74-1.92-2.75-3.66-2.75-5.95H309.8c.82-7.6-.55-14.83-4.3-20.32-4.48-6.5-12.36-10.71-23.89-10.71-11,0-19.68,4.12-24.53,11.17a25.66,25.66,0,0,0-4.39,14.92c0,6.31,1.37,11.35,3.84,15.28,3.08,4.88,7.85,8,13.78,9.6h-19.7V83.9H236.36v44l-26.26-44H192.74v67.68h-2.57V138.24H179.43a20.23,20.23,0,0,0,.81-5.8c0-11.66-7.08-17.28-20.64-19.87-1.56-.26-6-1.21-9.5-1.9-11.14-2.25-15.2-4.23-15.2-9.24,0-3.89,2.25-6.39,13.56-6.39,8.64,0,12.35,2,14.17,5.79a9.54,9.54,0,0,1,1,3.37h15.38a21,21,0,0,0-1.56-6.56C173.93,89,165.9,83,148.8,83c-20,0-29.37,7.77-29.37,19.35,0,11.32,8.21,17.45,21.51,20,3,.6,8,1.55,10,1.9,11.06,2.07,13.91,4.06,13.91,9.67,0,4.49-3.63,7.34-14,7.34-9.07,0-13.56-1.73-15.46-5.7a12.06,12.06,0,0,1-1-4.32H119.08a29,29,0,0,0,1,7c2,6.11,6.25,11,15.9,13.35H119.42V138.24H108.77a20.92,20.92,0,0,0,1.06-6.75V83.9H94.89v45.52c0,7.08-6,11.32-14.6,11.32-9.76,0-15.12-4.23-15.12-11.4V83.9H50.23v46.73c0,11.73,6.85,18.29,17.22,21h-31V70Zm0,84.13V163H36.45v-8.91ZM92.3,151.58c6-1.52,10.75-4.28,13.79-8.29v8.29Zm71.48,0c6-1.59,10.35-4.39,13.07-8.11v8.11Zm43.22,0V105.93l27.14,45.66Zm134,0c1.35-4,9.7-28.51,9.79-30.1.09-.55.64-3.53.64-3.53s.55,3,.64,3.62c.17,1.51,8.52,26,9.88,30ZM267.06,122a10.43,10.43,0,0,1,3.11-6c2.47-2.2,6.32-3.57,11.53-3.57,5.49,0,9,1.74,11.07,3.84a8.86,8.86,0,0,1,2.47,5.77Z"/><path class="cls-5" d="M96.84,42.54H93l7.25-23h4.87l6.79,23h-3.94L106.32,37h-7.8ZM103,25.19c-.06-.23-.44-2.06-.44-2.06s-.38,1.83-.44,2.06-2.55,8.47-2.55,8.47h5.77S103,25.36,103,25.19Z"/><path class="cls-5" d="M121.34,42.54v-23h3.86V39.06h9.72v3.48Z"/><path class="cls-5" d="M148.79,41.14a7.17,7.17,0,0,1-5.11,1.65c-2.76,0-5-.87-6.24-3a9.91,9.91,0,0,1-1.19-5.31,9.62,9.62,0,0,1,1.19-5.19,6.84,6.84,0,0,1,6.21-3.1c3.07,0,5,1.22,6.09,2.93s1.28,3.83,1.1,6.73H139.74a4.72,4.72,0,0,0,.84,2.64,3.74,3.74,0,0,0,3.1,1.25,4.25,4.25,0,0,0,2.73-.75,2.45,2.45,0,0,0,.93-1.6h3.42A6.27,6.27,0,0,1,148.79,41.14Zm-2.12-10.59a3.67,3.67,0,0,0-3-1.25,3.84,3.84,0,0,0-3.08,1.16,4.2,4.2,0,0,0-.87,2.67h7.69A4.87,4.87,0,0,0,146.68,30.56Z"/><path class="cls-5" d="M163.34,42.54c-.15,0-.35-.61-.32-1.6-1,1-2.44,1.74-5.16,1.74-3,0-5.1-1.36-5.34-3.83a10.56,10.56,0,0,1,0-1.36c.17-2.87,2.67-4.81,8.27-4.81.75,0,1.48.06,2.12.12,0-.38,0-1.19,0-1.74-.15-1.16-1.1-1.8-2.93-1.8-2.84,0-3.37,1.25-3.37,2.81h-3.36c0-3.92,2.38-5.83,6.76-5.83,4.12,0,5.95,1.54,6.24,4.06.09,1,.15,3.39.12,4.7s0,3.34,0,4.47a12.14,12.14,0,0,0,.29,3.07Zm-2.49-7.34c-3.07,0-4.79.73-4.79,2.52,0,1.57.84,2.26,2.78,2.26,3.34,0,4.15-1.83,4.15-4.67C162.24,35.26,161.83,35.2,160.84,35.2Z"/><path class="cls-5" d="M179.75,28.35V19.5h3.54V40.59c0,.81.12,1.94.12,1.94h-3.22l-.41-2c-.67,1.31-2.47,2.26-4.84,2.26a5.37,5.37,0,0,1-4.79-2.23,9.89,9.89,0,0,1-1.48-5.8,10.43,10.43,0,0,1,1.51-6A6,6,0,0,1,175,26.41C177,26.41,178.85,27,179.75,28.35ZM173,31a7,7,0,0,0-.81,3.68,7.45,7.45,0,0,0,.61,3.54,4,4,0,0,0,6.21.06,6.37,6.37,0,0,0,.78-3.57A6.41,6.41,0,0,0,179,30.9a3.44,3.44,0,0,0-2.93-1.22A3.5,3.5,0,0,0,173,31Z"/><path class="cls-5" d="M198.16,41.14a7.17,7.17,0,0,1-5.11,1.65c-2.76,0-5-.87-6.24-3a9.91,9.91,0,0,1-1.19-5.31,9.62,9.62,0,0,1,1.19-5.19,6.84,6.84,0,0,1,6.21-3.1c3.07,0,5,1.22,6.09,2.93s1.28,3.83,1.1,6.73H189.11a4.72,4.72,0,0,0,.84,2.64,3.74,3.74,0,0,0,3.1,1.25,4.25,4.25,0,0,0,2.73-.75,2.45,2.45,0,0,0,.93-1.6h3.42A6.27,6.27,0,0,1,198.16,41.14ZM196,30.56a3.67,3.67,0,0,0-3-1.25,3.84,3.84,0,0,0-3.08,1.16,4.2,4.2,0,0,0-.87,2.67h7.69A4.87,4.87,0,0,0,196,30.56Z"/><path class="cls-5" d="M212.78,30.12a10.42,10.42,0,0,0-3-.38c-2.09,0-3.63,1.42-3.63,4.12v8.67h-3.6v-16h3.51V29c.38-1.57,2.35-2.78,4.38-2.78a8.62,8.62,0,0,1,2.32.26Z"/><path class="cls-5" d="M221.25,42.8c-4.32,0-6.47-1-6.93-3.36a10.23,10.23,0,0,1-.15-1.8h3.48a6.09,6.09,0,0,0,.09,1.13c.2.87,1.39,1.16,3.51,1.16,2.29,0,3.1-.61,3.1-1.77s-.9-1.48-3-2c-.7-.23-2.2-.58-2.81-.75-2.76-.7-4.21-2-4.21-4.79,0-2.55,2.09-4.38,6.29-4.38,3.8,0,5.8,1.1,6.41,3.13a11.48,11.48,0,0,1,.2,2.09h-3.39a3.68,3.68,0,0,0-.15-1.19c-.29-.61-1-1-3-1s-2.9.49-2.9,1.51.55,1.36,2.49,1.83c.78.23,2.15.52,2.93.75,3,.75,4.52,2,4.52,4.7C227.81,41.11,225.75,42.8,221.25,42.8Z"/><path class="cls-5" d="M243.65,42.54h-3.6c-.12,0-.09-.29-.09-10.33,0-1.54-.81-2.58-2.87-2.58a3,3,0,0,0-3.28,2.93v10h-3.57V19.42h3.51v9.25c.64-1.48,2.38-2.41,4.9-2.41,3.16,0,4.87,1.68,4.87,5C243.53,42.07,243.53,42.51,243.65,42.54Z"/><path class="cls-5" d="M246.5,25V21.33h3.77V25Zm.26,17.55c-.15-.06-.17-.44-.17-1.45V26.58h3.6V41a3.72,3.72,0,0,0,.15,1.54Z"/><path class="cls-5" d="M266.53,40.42a6,6,0,0,1-4.84,2.23c-2.18,0-4-.61-4.79-1.89v6.7h-3.57V26.58h3.45l.09,2c.61-1.36,2.52-2.35,4.82-2.35a5.55,5.55,0,0,1,4.84,2.18A9.78,9.78,0,0,1,268,34.3C268,36.88,267.57,39,266.53,40.42Zm-3.08-9.75a4,4,0,0,0-5.63,0,5.65,5.65,0,0,0-1,3.86c0,1.86.23,3.08.87,3.86a3.29,3.29,0,0,0,2.9,1.19,3.34,3.34,0,0,0,3.1-1.39,7.08,7.08,0,0,0,.73-3.66A6.19,6.19,0,0,0,263.45,30.67Z"/><path class="cls-5" d="M282,23v6.18h9.6v3.54H282v9.78h-3.83v-23h14V23Z"/><path class="cls-5" d="M307.14,40.16c-1.16,1.65-3.19,2.61-5.95,2.61s-4.79-.93-6-2.55a9.62,9.62,0,0,1-1.54-5.71,9.32,9.32,0,0,1,1.57-5.66c1.13-1.54,3-2.61,6-2.61s4.82,1,5.92,2.55a9.6,9.6,0,0,1,1.54,5.71A9.4,9.4,0,0,1,307.14,40.16Zm-2.7-9.4a3.59,3.59,0,0,0-3.22-1.31A3.51,3.51,0,0,0,298,30.93a7.25,7.25,0,0,0-.78,3.6,7.38,7.38,0,0,0,.75,3.65,4.36,4.36,0,0,0,6.44,0,7.58,7.58,0,0,0,.81-3.65A7.22,7.22,0,0,0,304.44,30.76Z"/><path class="cls-5" d="M321.33,30.12a10.42,10.42,0,0,0-3-.38c-2.09,0-3.63,1.42-3.63,4.12v8.67h-3.6v-16h3.51V29c.38-1.57,2.35-2.78,4.38-2.78a8.62,8.62,0,0,1,2.32.26Z"/><path class="cls-5" d="M336.49,42.54h-3.42L333,40.62c-.93,1.57-2.9,2.15-4.84,2.15-2.93,0-5-1.36-5-4.44,0-8.5,0-11.66-.12-11.75h3.6c.06,0,.09,4.81.09,10.73,0,1.83,1.16,2.52,2.81,2.52,2.09,0,3.37-1.07,3.37-2.81V26.58h3.51V40.16A22.35,22.35,0,0,0,336.49,42.54Z"/><path class="cls-5" d="M357.35,32.09c0-1.31-.49-2.49-2.61-2.49a2.61,2.61,0,0,0-2.81,2.64v10.3h-3.39V31.92A2.25,2.25,0,0,0,346,29.6a2.77,2.77,0,0,0-2.9,2.76V42.54h-3.57v-16H343v2.23c.55-1.57,2.41-2.52,4.53-2.52a3.89,3.89,0,0,1,4,2.55c.55-1.68,2.26-2.55,4.47-2.55,3.22,0,4.61,1.62,4.61,4.53,0,5,0,11.6.12,11.72h-3.28C357.35,42.54,357.35,36.39,357.35,32.09Z"/><path class="cls-5" d="M382.26,42.54H371.61v-23h9.86c2.41,0,3.8.64,4.79,1.71a6.07,6.07,0,0,1,1.22,4,6.28,6.28,0,0,1-1.13,4.12,3.54,3.54,0,0,1-2,1.22,4.75,4.75,0,0,1,2.93,1.65,6.62,6.62,0,0,1,1.16,4.06,6.92,6.92,0,0,1-1.33,4.32A6,6,0,0,1,382.26,42.54Zm.55-18.88a2.58,2.58,0,0,0-2.21-.81h-5.25v6.58h5.57a2.41,2.41,0,0,0,1.89-.75,3.88,3.88,0,0,0,.72-2.64A3.87,3.87,0,0,0,382.81,23.65ZM384.41,36a3.84,3.84,0,0,0-.78-2.61,3.14,3.14,0,0,0-2.32-.78h-5.95v6.61h5.83a3.49,3.49,0,0,0,2.47-.73A3.61,3.61,0,0,0,384.41,36Z"/><path class="cls-5" d="M397.31,47.47h-3.74l1.91-5.1-5.95-15.78h3.77s3.92,10.79,4.12,11.6c.2-.84,4.06-11.6,4.06-11.6h3.65Z"/></svg>