<?xml version="1.0" encoding="utf-8"?>
<!-- Generator: Adobe Illustrator 19.1.0, SVG Export Plug-In . SVG Version: 6.00 Build 0)  -->
<svg version="1.1" id="Layer_1" xmlns="http://www.w3.org/2000/svg" xmlns:xlink="http://www.w3.org/1999/xlink" x="0px" y="0px"
	 viewBox="129 24 408 104" style="enable-background:new 129 24 408 104;" xml:space="preserve">
<style type="text/css">
	.st0{fill:#FFFFFF;}
</style>
<g>
	<path class="st0" d="M533,24H133h-4v4v96v4h4h400h4v-4V28v-4H533z M533,28v78.4h-28.7c6-2.2,8.8-6.2,8.8-12
		c0-8.3-4.7-12.3-15.4-13.9c-1.5-0.2-7.8-1.1-10.4-1.5c-6.3-1-7.7-1.7-7.7-3.6c0-2.1,2.1-3.2,9.2-3.2c6.2,0,8.5,1.1,9.4,2.3
		c0.4,0.6,0.6,1.9,0.6,2.4h12.6c0-0.9-0.2-3.6-0.8-5.3c-2.3-6.4-10-9.6-22.2-9.6c-14.4,0-21.5,5.2-21.5,13.1
		c0,8.5,4.7,12.8,14.5,14.2c2.7,0.4,8,1.2,9.7,1.5c6.6,1,9.2,1.5,9.2,4.1c0,2.6-2.3,3.9-9.6,3.9c-7.1,0-10.5-0.6-11.3-2.7
		c-0.3-0.9-0.4-1.7-0.4-2.3h-12.9c0,1.5,0.1,2.7,0.5,4.5c1,4.1,3.7,6.8,8.4,8.4h-23.9L466.8,63h-12.7l-10.4,33.1L433.6,63h-14.4
		l-9.8,33.1L398.7,63h-13.5l15.6,43.5h-26.5c1.7-0.6,3.3-1.4,4.6-2.2c4.5-2.8,7-6.9,8.1-11.2h-12.7c-0.2,1-1.4,2.4-3.7,3.5
		c-1.9,0.8-4.5,1.5-8.2,1.5c-4.9,0-8.5-1.3-10.4-3.3c-1.5-1.7-2.4-3.2-2.4-5.3h37.8c0.7-6.7-0.5-13.1-3.8-18
		c-4-5.8-10.9-9.5-21.2-9.5c-9.7,0-17.4,3.6-21.7,9.9c-2.5,3.6-3.9,8.1-3.9,13.2c0,5.6,1.2,10.1,3.4,13.5c2.4,3.8,5.9,6.4,10.3,7.9
		h-17.3V47.1h-12.6V86l-23.3-38.9h-15.4v59.3h-4.1V95.2h-9.5c0.5-1.6,0.7-3.3,0.7-5.1c0-10.3-6.3-15.3-18.3-17.6
		c-1.4-0.2-5.4-1.1-8.4-1.7c-9.9-2-13.5-3.7-13.5-8.2c0-3.4,2-5.7,12-5.7c7.6,0,10.9,1.8,12.5,5.1c0.5,0.9,0.8,2.3,0.8,3h13.6
		c0-1.5-0.6-3.8-1.4-5.8c-3.1-7.6-10.2-12.9-25.3-12.9c-17.7,0-26,6.9-26,17.1c0,10,7.3,15.5,19,17.7c2.7,0.5,7.1,1.4,8.9,1.7
		c9.8,1.8,12.3,3.6,12.3,8.6c0,4-3.2,6.5-12.4,6.5c-8,0-12-1.5-13.7-5c-0.5-0.9-0.8-2.8-0.8-3.8h-13.6c0,1.2,0.2,4.2,0.9,6.2
		c1.6,4.9,4.9,9,11.9,11.2h-13.4V95.2h-9.4c0.6-1.8,0.9-3.8,0.9-6c0-1.2,0-42.1,0-42.1h-13.2c0,0,0,39.2,0,40.3
		c0,6.3-5.4,10-12.9,10c-8.6,0-13.4-3.7-13.4-10.1c0-1.1,0-40.2,0-40.2H153c0,0,0,40,0,41.4c0,9.6,5.2,15.3,13.2,18H133V28H533z
		 M435,106.4h-18.1c1.7-4.9,8.4-24.7,8.5-26.1c0.1-0.5,0.6-3.1,0.6-3.1s0.5,2.6,0.6,3.2C426.6,81.7,433.4,101.5,435,106.4z
		 M349.4,80.9c0-1.3,1.2-4,2.8-5.3c2.2-1.9,5.6-3.2,10.2-3.2c4.9,0,7.9,1.5,9.8,3.4c1.6,1.7,2.2,3.8,2.2,5.1H349.4z M318.1,106.4
		h-23.7V66.6L318.1,106.4z M266,106.4h-9.6c4.3-1.5,7.5-3.7,9.6-6.6V106.4z M202.4,106.4h-10.2c4.3-1.4,7.8-3.7,10.2-6.7V106.4z
		 M133,124v-13.3h400V124H133z"/>
	<path class="st0" d="M344,59.3c1.2,0,2.4-0.2,3.3-0.6c0.2,0.2,0.4,0.3,0.6,0.5h4.6c-0.9-0.7-1.8-1.4-2.6-2c1-0.9,1.6-2.2,1.6-3.8
		h-3.4c0,0.7-0.3,1.3-0.7,1.8c-0.7-0.6-1.4-1.2-1.9-1.6c1.2-0.8,2.4-1.8,2.4-3.4c0-0.1,0-0.4,0-0.5c-0.1-1.5-1.4-2.8-3.7-2.8
		c-2.5,0-4,1.4-4.1,2.9c0,0.2,0,0.5,0,0.6c0,0.7,0.3,1.6,1,2.6c-1.4,0.7-2.8,1.5-2.8,2.9c0,0.2,0,0.4,0,0.6
		C338.6,58.8,341.2,59.3,344,59.3z M343.4,50.3c0.1-0.4,0.3-0.8,0.8-0.8c0.6,0,0.8,0.4,0.8,0.8c0,0,0,0.2,0,0.2
		c0,0.5-0.5,0.9-1.1,1.2c-0.3-0.4-0.5-0.8-0.5-1.1C343.4,50.6,343.4,50.4,343.4,50.3z M343,55.1c0.5,0.5,1.2,1.1,1.9,1.7
		c-0.3,0.1-0.7,0.1-1.1,0.1c-1.3,0-1.8-0.2-1.8-0.8C342.1,55.7,342.5,55.4,343,55.1z"/>
	<path class="st0" d="M363.1,59.2c0,0,1.9-7,1.9-7.4c0,0.4,1.9,7.4,1.9,7.4h4.1l3.4-12.1h-3.6c0,0-1.8,7.5-1.8,7.9
		c0-0.4-1.8-7.9-1.8-7.9h-3.8c0,0-1.8,7.5-1.8,7.9c0-0.4-1.9-7.9-1.9-7.9h-4l3.5,12.1H363.1z"/>
	<path class="st0" d="M380.9,59.4c4.4,0,6.5-2.1,6.5-6.4c0-4.1-1.9-6.2-6.5-6.2c-4.5,0-6.5,2.4-6.5,6.2
		C374.4,57.2,376.4,59.4,380.9,59.4z M380.9,49.7c2.1,0,2.7,1,2.7,3.4c0,2.7-1,3.4-2.7,3.4c-1.8,0-2.7-0.9-2.7-3.4
		C378.2,50.7,378.9,49.7,380.9,49.7z"/>
	<path class="st0" d="M392.7,55.1h2.5l2.1,4.1h4.2l-2.8-4.9c0.6-0.1,1.1-0.5,1.5-1.2c0.3-0.5,0.5-1.3,0.5-2.3c0-1.1-0.2-2-0.7-2.6
		c-0.6-0.8-1.7-1.3-3.3-1.3H389v12.1h3.7V55.1z M392.7,49.9h3.1c0.5,0,0.9,0.1,1.1,0.5c0.1,0.2,0.1,0.5,0.1,0.8c0,0.2,0,0.6-0.1,0.8
		c-0.1,0.3-0.5,0.4-1,0.4h-3.2V49.9z"/>
	<polygon class="st0" points="412.8,56.2 407,56.2 407,47.1 403.3,47.1 403.3,59.2 412.8,59.2 	"/>
	<path class="st0" d="M425.7,57.5c0.7-1,0.9-2,0.9-4.5c0-2.2-0.1-3.2-0.9-4.3c-0.8-1-2.1-1.6-4.3-1.6h-6.7v12.1h6.8
		C423.7,59.2,425,58.6,425.7,57.5z M418.4,56.3v-6.4h2.3c0.9,0,1.4,0.1,1.8,0.7c0.3,0.3,0.4,1.5,0.4,2.3c0,1,0,2.4-0.4,2.8
		c-0.4,0.5-0.9,0.7-1.9,0.7H418.4z"/>
	<path class="st0" d="M436.4,55.1h2.5l2.1,4.1h4.2l-2.8-4.9c0.6-0.1,1.1-0.5,1.5-1.2c0.3-0.5,0.5-1.3,0.5-2.3c0-1.1-0.2-2-0.7-2.6
		c-0.6-0.8-1.7-1.3-3.3-1.3h-7.7v12.1h3.7V55.1z M436.4,49.9h3.1c0.5,0,0.9,0.1,1.1,0.5c0.1,0.2,0.1,0.5,0.1,0.8
		c0,0.2,0,0.6-0.1,0.8c-0.1,0.3-0.5,0.4-1,0.4h-3.2V49.9z"/>
	<polygon class="st0" points="457.5,56.4 450.8,56.4 450.8,54.6 457.2,54.6 457.2,51.7 450.8,51.7 450.8,49.9 457.5,49.9 
		457.5,47.1 447.1,47.1 447.1,59.2 457.5,59.2 	"/>
	<path class="st0" d="M463.6,55.4L463.6,55.4c0,0,3.3,0,3.7,0c1.5,0,2.7-0.4,3.4-1.2c0.6-0.6,0.9-1.6,0.9-2.9c0-1.5-0.4-2.6-1.1-3.2
		c-0.7-0.7-1.7-1-3.2-1h-7.5v12.1h3.7V55.4z M463.6,49.9h3c0.6,0,1,0.2,1.2,0.6c0.1,0.2,0.2,0.5,0.2,0.9c0,0.4,0,0.6-0.2,0.8
		c-0.2,0.3-0.5,0.6-1.2,0.6c0,0-2.9,0-2.9,0V49.9z"/>
	<path class="st0" d="M479.4,59.4c4.4,0,6.5-2.1,6.5-6.4c0-4.1-1.9-6.2-6.5-6.2c-4.5,0-6.5,2.4-6.5,6.2
		C472.9,57.2,475,59.4,479.4,59.4z M479.4,49.7c2.1,0,2.7,1,2.7,3.4c0,2.7-1,3.4-2.7,3.4c-1.8,0-2.7-0.9-2.7-3.4
		C476.7,50.7,477.4,49.7,479.4,49.7z"/>
	<path class="st0" d="M491.3,55.1h2.5l2.1,4.1h4.2l-2.8-4.9c0.6-0.1,1.1-0.5,1.5-1.2c0.3-0.5,0.5-1.3,0.5-2.3c0-1.1-0.2-2-0.7-2.6
		c-0.6-0.8-1.7-1.3-3.3-1.3h-7.7v12.1h3.7V55.1z M491.3,49.9h3.1c0.5,0,0.9,0.1,1.1,0.5c0.1,0.2,0.1,0.5,0.1,0.8
		c0,0.2,0,0.6-0.1,0.8c-0.1,0.3-0.5,0.4-1,0.4h-3.2V49.9z"/>
	<polygon class="st0" points="504.2,59.2 508,59.2 508,50 511.9,50 511.9,47.1 500.4,47.1 500.4,50 504.2,50 	"/>
</g>
</svg>
