<svg id="Layer_1" data-name="Layer 1" xmlns="http://www.w3.org/2000/svg" viewBox="0 0 397.56 72.43"><defs><style>.cls-1{fill:none;}.cls-2{fill:#fff;}</style></defs><title>Artboard 1</title><path class="cls-1" d="M299.19,6.7a5.23,5.23,0,0,0-.44-2.58,2.32,2.32,0,0,0-2-.73h-2.6V10.5h2.6a2.38,2.38,0,0,0,2.07-.76C299.14,9.31,299.19,7.79,299.19,6.7Z"/><path class="cls-1" d="M254.29,10.72c1.9,0,3-.8,3-3.79,0-2.67-.73-3.76-3-3.76s-3,1.05-3,3.76S252.32,10.72,254.29,10.72Z"/><path class="cls-1" d="M212,5.46c.7-.41,1.17-.85,1.22-1.38V3.81A.79.79,0,0,0,212.4,3a.87.87,0,0,0-.9.88,1.22,1.22,0,0,0,0,.36A2.31,2.31,0,0,0,212,5.46Z"/><path class="cls-1" d="M212,11.08a5.33,5.33,0,0,0,1.17-.13c-.77-.66-1.58-1.29-2.14-1.85-.61.34-1.05.71-1.05,1.09C210,10.83,210.57,11.08,212,11.08Z"/><path class="cls-1" d="M376.79,5.69a2.45,2.45,0,0,0,.15-.87,2.21,2.21,0,0,0-.14-.87c-.2-.43-.61-.56-1.21-.56h-3.48V6.14h3.57C376.2,6.14,376.64,6,376.79,5.69Z"/><path class="cls-1" d="M318.67,5.69a2.45,2.45,0,0,0,.15-.87,2.21,2.21,0,0,0-.13-.87c-.21-.43-.61-.56-1.21-.56H314V6.14h3.57C318.07,6.14,318.52,6,318.67,5.69Z"/><path class="cls-1" d="M359.3,10.72c1.9,0,3-.8,3-3.79,0-2.67-.73-3.76-3-3.76s-3,1.05-3,3.76S357.33,10.72,359.3,10.72Z"/><path class="cls-1" d="M346.89,5.83a1.87,1.87,0,0,0,.15-.88,1.94,1.94,0,0,0-.17-1,1.32,1.32,0,0,0-1.31-.63h-3.3V6.46h3.25A1.39,1.39,0,0,0,346.89,5.83Z"/><path class="cls-1" d="M271.79,5.69a2.45,2.45,0,0,0,.15-.87A2.21,2.21,0,0,0,271.8,4c-.2-.43-.61-.56-1.21-.56h-3.48V6.14h3.57C271.19,6.14,271.63,6,271.79,5.69Z"/><path class="cls-1" d="M231.47,30.51c-5.21,0-9.06,1.37-11.53,3.57a10.43,10.43,0,0,0-3.11,6H245a8.86,8.86,0,0,0-2.47-5.77C240.44,32.25,237,30.51,231.47,30.51Z"/><path class="cls-2" d="M212.16,13.8a10,10,0,0,0,3.72-.65,6.32,6.32,0,0,0,.63.51h5.15c-1-.77-2-1.55-2.91-2.21a6,6,0,0,0,1.84-4.17H216.8a3.54,3.54,0,0,1-.73,2c-.78-.65-1.56-1.33-2.16-1.82,1.34-.83,2.65-2,2.7-3.72,0-.09,0-.46,0-.58C216.52,1.58,215,.1,212.44.1c-2.8,0-4.44,1.56-4.5,3.21V4A5.12,5.12,0,0,0,209,6.83c-1.6.75-3.06,1.7-3.1,3.23,0,.17,0,.49,0,.7C206.06,13.22,209,13.8,212.16,13.8Zm-.66-9.95a.87.87,0,0,1,.9-.88.79.79,0,0,1,.87.83v.27c-.05.53-.53,1-1.22,1.38a2.31,2.31,0,0,1-.54-1.24A1.22,1.22,0,0,1,211.5,3.86ZM211,9.09c.56.56,1.38,1.19,2.14,1.85a5.33,5.33,0,0,1-1.17.13c-1.41,0-2-.25-2-.9C210,9.81,210.4,9.43,211,9.09Z"/><path class="cls-2" d="M234.71,13.67s2.07-7.72,2.09-8.18c.05.44,2.07,8.18,2.07,8.18h4.52L247.18.24h-4s-2,8.29-2,8.72c0-.42-2.06-8.72-2.06-8.72h-4.25s-2,8.29-2,8.72c0-.42-2.06-8.72-2.06-8.72h-4.42l3.86,13.43Z"/><path class="cls-2" d="M254.28,13.87c4.95,0,7.21-2.31,7.21-7,0-4.49-2.11-6.83-7.21-6.83s-7.21,2.6-7.21,6.88C247.07,11.47,249.31,13.87,254.28,13.87Zm0-10.69c2.29,0,3,1.09,3,3.76,0,3-1.1,3.79-3,3.79s-3-1-3-3.79S252.07,3.18,254.28,3.18Z"/><path class="cls-2" d="M267.08,9.13h2.79l2.38,4.54h4.64l-3.16-5.37A2.62,2.62,0,0,0,275.39,7,4.94,4.94,0,0,0,276,4.49a4.44,4.44,0,0,0-.78-2.84A4.28,4.28,0,0,0,271.55.24H263V13.67h4.08Zm0-5.73h3.48c.6,0,1,.14,1.21.56a2.21,2.21,0,0,1,.14.87,2.45,2.45,0,0,1-.15.87c-.15.32-.6.44-1.11.44h-3.57Z"/><polygon class="cls-2" points="288.72 10.35 282.24 10.35 282.24 0.24 278.04 0.24 278.04 13.67 288.72 13.67 288.72 10.35"/><path class="cls-2" d="M302.25,11.73c.75-1.12.94-2.18.94-5,0-2.45-.15-3.57-1-4.71S299.85.24,297.4.24H290V13.67h7.62C300,13.67,301.43,13,302.25,11.73Zm-8.14-1.22V3.38h2.6a2.32,2.32,0,0,1,2,.73,5.23,5.23,0,0,1,.44,2.58c0,1.09-.05,2.62-.41,3a2.38,2.38,0,0,1-2.07.76Z"/><path class="cls-2" d="M314,9.13h2.79l2.38,4.54h4.64l-3.16-5.37A2.61,2.61,0,0,0,322.27,7a4.92,4.92,0,0,0,.6-2.53,4.44,4.44,0,0,0-.78-2.84A4.27,4.27,0,0,0,318.43.24h-8.55V13.67H314Zm0-5.73h3.48c.59,0,1,.14,1.21.56a2.21,2.21,0,0,1,.13.87,2.45,2.45,0,0,1-.15.87c-.15.32-.6.44-1.11.44H314Z"/><polygon class="cls-2" points="336.49 10.54 328.99 10.54 328.99 8.55 336.13 8.55 336.13 5.35 328.99 5.35 328.99 3.4 336.4 3.4 336.4 0.24 324.93 0.24 324.93 13.67 336.49 13.67 336.49 10.54"/><path class="cls-2" d="M342.32,9.47s3.65,0,4.17,0a4.89,4.89,0,0,0,3.74-1.36,4.6,4.6,0,0,0,1-3.26A4.44,4.44,0,0,0,350,1.36,4.72,4.72,0,0,0,346.46.24h-8.31V13.67h4.16Zm-.05-6.1h3.3a1.32,1.32,0,0,1,1.31.63,1.94,1.94,0,0,1,.17,1,1.87,1.87,0,0,1-.15.88,1.39,1.39,0,0,1-1.38.63h-3.25Z"/><path class="cls-2" d="M359.28,13.87c4.95,0,7.21-2.31,7.21-7,0-4.49-2.11-6.83-7.21-6.83s-7.21,2.6-7.21,6.88C352.07,11.47,354.32,13.87,359.28,13.87Zm0-10.69c2.29,0,3,1.09,3,3.76,0,3-1.11,3.79-3,3.79s-3-1-3-3.79S357.07,3.18,359.28,3.18Z"/><path class="cls-2" d="M372.08,9.13h2.79l2.38,4.54h4.64l-3.16-5.37A2.62,2.62,0,0,0,380.4,7,4.94,4.94,0,0,0,381,4.49a4.44,4.44,0,0,0-.78-2.84A4.28,4.28,0,0,0,376.55.24H368V13.67h4.08Zm0-5.73h3.48c.6,0,1,.14,1.21.56a2.21,2.21,0,0,1,.14.87,2.45,2.45,0,0,1-.15.87c-.15.32-.6.44-1.11.44h-3.57Z"/><polygon class="cls-2" points="386.31 13.67 390.53 13.67 390.53 3.47 394.84 3.47 394.84 0.24 382.03 0.24 382.03 3.47 386.31 3.47 386.31 13.67"/><path class="cls-2" d="M333,19.89,321.24,57.33,309.89,19.89H293.6L282.53,57.33,270.44,19.89H255.16L273,69.68h17.78c1.35-4,9.7-28.51,9.79-30.1.09-.55.64-3.53.64-3.53s.55,3,.64,3.62c.17,1.51,8.52,26,9.88,30H329.4l18-49.78Z"/><polygon class="cls-2" points="186.13 45.96 159.87 1.99 142.51 1.99 142.51 69.68 156.76 69.68 156.76 24.02 183.9 69.68 200.38 69.68 200.38 1.99 186.13 1.99 186.13 45.96"/><path class="cls-2" d="M58.67,56.34c.13-.53.25-1.07.34-1.63a21.64,21.64,0,0,0,.59-5.12V2H44.44V49c0,.37,0,.73-.06,1.08-1.28,5.55-6.84,8.79-14.32,8.79-9.76,0-15.12-4.23-15.12-11.4V2H0V50.16c0,15.9,12.64,22.26,29.57,22.26,11.9,0,21.46-3.31,26.29-10v7.27H69.18V56.34Z"/><path class="cls-2" d="M129.2,56.34c.08-.31.16-.62.23-.93a20.51,20.51,0,0,0,.58-4.87c0-11.66-7.08-17.28-20.64-19.87-1.56-.26-6-1.21-9.5-1.9-11.14-2.25-15.2-4.23-15.2-9.24a5.57,5.57,0,0,1,.69-2.91c1.44-2,4.94-3.16,12.69-3.16,8.66,0,12.38,2,14.2,5.8a9.56,9.56,0,0,1,1,3.38H128.6c0-.11-.08-4.3-1.44-6.9-4.32-8.24-11.49-14.6-28.59-14.6-13.36,0-22,3.46-26.2,9.19A16.64,16.64,0,0,0,69,20.81c0,11.34,8.22,17.49,21.55,20,3,.61,8,1.56,10,1.9,11.08,2.08,13.94,4.07,13.94,9.7a6.68,6.68,0,0,1-.31,2c-1.24,3.05-5.22,4.89-13.54,4.89-9.07,0-13.56-1.73-15.46-5.7a12.06,12.06,0,0,1-1-4.32H68.85c0,.11,0,.26,0,.39a33.66,33.66,0,0,0,.71,7c2.77,8.66,10.21,14.89,30.9,14.89,13.08,0,21.79-3.69,26.14-9.8v7.86h13.32V56.34Z"/><path class="cls-2" d="M255.27,29.41c-4.48-6.5-12.36-10.71-23.89-10.71h-.19c-11.05,0-19.8,4.16-24.69,11.29a26,26,0,0,0-4.42,15.08c0,6.38,1.38,11.47,3.87,15.45,4.88,7.77,14,11.1,25.24,11.1,8.2,0,14.37-1.76,18.79-4.63a20.83,20.83,0,0,0,9.21-12.77h-.1c0-.13.08-.25.11-.38H244.83c-.27,1.1-1.55,2.75-4.21,3.94a23.17,23.17,0,0,1-9.24,1.65c-5.49,0-9.61-1.46-11.71-3.75-1.65-1.83-2.63-3.49-2.73-5.61h42.62c.11-1,.18-2,.21-3.06C260,40.42,258.57,34.24,255.27,29.41Zm-24,1.22c5.53,0,9,1.76,11.15,3.89a9.05,9.05,0,0,1,2.48,5.6H216.83a10.43,10.43,0,0,1,3.11-6,11.69,11.69,0,0,1,1.93-1.37A19.44,19.44,0,0,1,231.28,30.64Z"/><path class="cls-2" d="M380.17,39.66c-1.74-.28-8.79-1.28-11.71-1.74-7.14-1.1-8.69-1.92-8.69-4.12,0-2.38,2.38-3.66,10.43-3.66,1.15,0,2.18,0,3.11.1,4.26.35,6.13,1.32,6.93,2.42a6.23,6.23,0,0,1,.64,2.73h.57s0,0,0,.06h14.19a24.79,24.79,0,0,0-.92-6c-2.56-7.23-11.26-10.8-25.08-10.8H369c-16.23,0-24.3,5.84-24.3,14.77,0,9.1,4.81,13.91,14.8,15.69.72.14,1.45.27,2.22.38,3,.46,9.06,1.37,11,1.65,2.07.31,3.79.58,5.2.87,3.25.73,4.66,1.64,4.66,3.57,0,2.92-2.57,4.38-10.91,4.38a46.12,46.12,0,0,1-8.95-.6c-1.74-.47-2.76-1.19-3.18-2.27a7.59,7.59,0,0,1-.46-2.56h-.62s0-.09,0-.13H343.92a20.37,20.37,0,0,0,.55,5c1.25,4.86,4.6,8,10.65,9.78.58.19,1.17.36,1.81.52h.22A68.12,68.12,0,0,0,371.71,71c4.92,0,10.49-.33,13.84-1.28,8.23-2.34,12-7,12-14.27C397.56,46,392.25,41.49,380.17,39.66Z"/></svg>