<svg id="Layer_1" data-name="Layer 1" xmlns="http://www.w3.org/2000/svg" viewBox="0 0 408 104"><defs><style>.cls-1{fill:#231f20;}.cls-2{fill:#fff;}</style></defs><title>Artboard 1</title><rect class="cls-1" width="408" height="104"/><path class="cls-2" d="M404,0H0V104H408V0Zm0,4V82.44H375.26c6-2.17,8.76-6.19,8.76-12,0-8.35-4.71-12.32-15.4-13.94-1.53-.24-7.78-1.14-10.37-1.54-6.32-1-7.71-1.7-7.71-3.65,0-2.1,2.11-3.25,9.25-3.25,6.16,0,8.5,1.06,9.4,2.27a5.67,5.67,0,0,1,.57,2.43h12.56a22.08,22.08,0,0,0-.81-5.35c-2.27-6.4-10-9.56-22.21-9.56-14.35,0-21.48,5.19-21.48,13.12,0,8.52,4.7,12.81,14.51,14.19,2.67.41,8,1.22,9.72,1.46,6.57,1,9.25,1.54,9.25,4.05s-2.27,3.89-9.64,3.89c-7.05,0-10.46-.57-11.27-2.67a6.72,6.72,0,0,1-.4-2.27H337.1a18.36,18.36,0,0,0,.48,4.46c1,4.05,3.7,6.77,8.44,8.39H322.11L337.85,39H325.11L314.66,72.1,304.6,39H290.18l-9.8,33.15L269.68,39H256.14L271.7,82.44H245.21a22.26,22.26,0,0,0,4.64-2.23A18.27,18.27,0,0,0,257.95,69H245.22c-.24,1-1.37,2.43-3.72,3.48A20.54,20.54,0,0,1,233.31,74c-4.86,0-8.5-1.29-10.38-3.32-1.54-1.7-2.43-3.24-2.43-5.28h37.77c.73-6.72-.49-13.13-3.81-18-4-5.76-10.94-9.48-21.15-9.48-9.73,0-17.43,3.65-21.73,9.89A22.74,22.74,0,0,0,207.69,61c0,5.6,1.22,10.05,3.41,13.54a19.39,19.39,0,0,0,10.29,7.91H204.08V23.1H191.46V62L168.21,23.1H152.83V82.44h-4.05V71.22h-9.53a17.85,17.85,0,0,0,.74-5.13c0-10.33-6.27-15.31-18.28-17.6-1.38-.23-5.36-1.07-8.41-1.68-9.87-2-13.47-3.75-13.47-8.18,0-3.45,2-5.66,12-5.66,7.65,0,10.94,1.76,12.54,5.13a8.44,8.44,0,0,1,.84,3h13.62a18.49,18.49,0,0,0-1.38-5.81c-3.05-7.65-10.17-12.93-25.32-12.93-17.75,0-26,6.88-26,17.14,0,10,7.26,15.45,19,17.67,2.68.53,7.11,1.38,8.88,1.69,9.78,1.84,12.31,3.59,12.31,8.57,0,4-3.21,6.5-12.4,6.5-8,0-12-1.52-13.69-5A10.64,10.64,0,0,1,99.44,65H85.83a25.27,25.27,0,0,0,.85,6.19c1.57,4.94,4.88,9,11.94,11.23H85.24V71.22H75.81a18.58,18.58,0,0,0,.94-6V23.1H63.52V63.41c0,6.28-5.35,10-12.93,10-8.64,0-13.39-3.74-13.39-10.09V23.1H24V64.48c0,9.61,5.17,15.29,13.2,18H4V4ZM306,82.44H287.88c1.67-4.9,8.4-24.71,8.46-26.07.08-.49.56-3.13.56-3.13s.49,2.64.58,3.21C297.62,57.74,304.36,77.54,306,82.44ZM220.42,56.86a9.23,9.23,0,0,1,2.76-5.35c2.19-1.95,5.6-3.17,10.21-3.17,4.87,0,7.95,1.55,9.82,3.41a7.83,7.83,0,0,1,2.17,5.11ZM189.13,82.44H165.46V42.6Zm-52.15,0h-9.64A19.19,19.19,0,0,0,137,75.82Zm-63.55,0H63.26A20.43,20.43,0,0,0,73.44,75.7ZM4,100V86.71H404V100Z"/><path class="cls-2" d="M215,35.33a9.16,9.16,0,0,0,3.34-.59,7.21,7.21,0,0,0,.57.47h4.62c-.88-.7-1.8-1.41-2.6-2a5.42,5.42,0,0,0,1.65-3.77h-3.41a3.22,3.22,0,0,1-.66,1.84c-.7-.57-1.4-1.2-1.95-1.65A4.32,4.32,0,0,0,219,26.28c0-.08,0-.42,0-.53-.09-1.47-1.43-2.81-3.75-2.81-2.53,0-4,1.41-4.06,2.91v.62a4.66,4.66,0,0,0,1,2.57c-1.44.68-2.75,1.53-2.78,2.92,0,.16,0,.44,0,.63C209.56,34.81,212.16,35.33,215,35.33Zm-.6-9a.79.79,0,0,1,.82-.8.71.71,0,0,1,.77.75v.25c0,.47-.47.88-1.09,1.24a2.14,2.14,0,0,1-.49-1.12A1.2,1.2,0,0,1,214.45,26.34ZM214,31.07c.51.52,1.23,1.08,1.93,1.68a4.64,4.64,0,0,1-1.06.12c-1.27,0-1.81-.22-1.81-.81C213.06,31.71,213.45,31.38,214,31.07Z"/><path class="cls-2" d="M234.07,35.21s1.86-7,1.88-7.39c0,.39,1.86,7.39,1.86,7.39h4.06l3.41-12.15h-3.6s-1.82,7.5-1.82,7.88c0-.38-1.84-7.88-1.84-7.88h-3.82s-1.8,7.5-1.8,7.88c0-.38-1.85-7.88-1.85-7.88h-4L230,35.21Z"/><path class="cls-2" d="M251.89,35.4c4.45,0,6.47-2.1,6.47-6.36,0-4.06-1.89-6.18-6.47-6.18s-6.48,2.35-6.48,6.23C245.41,33.23,247.44,35.4,251.89,35.4Zm0-9.67c2.06,0,2.72,1,2.72,3.4,0,2.71-1,3.43-2.7,3.43s-2.71-.86-2.71-3.43S249.91,25.72,251.89,25.72Z"/><path class="cls-2" d="M263.68,31.1h2.51l2.13,4.11h4.17l-2.84-4.86a2.35,2.35,0,0,0,1.49-1.15,4.46,4.46,0,0,0,.53-2.29,4,4,0,0,0-.7-2.57,3.84,3.84,0,0,0-3.28-1.27H260V35.22h3.66Zm0-5.18h3.13c.54,0,.9.12,1.07.51a1.77,1.77,0,0,1,.13.78,2.18,2.18,0,0,1-.14.78c-.14.3-.53.41-1,.41h-3.22Z"/><polygon class="cls-2" points="283.84 32.21 278.01 32.21 278.01 23.07 274.25 23.07 274.25 35.21 283.84 35.21 283.84 32.21"/><path class="cls-2" d="M296.71,33.45c.67-1,.85-2,.85-4.55,0-2.21-.14-3.22-.89-4.25s-2.12-1.58-4.31-1.58H285.7V35.21h6.84C294.73,35.21,296,34.57,296.71,33.45Zm-7.32-1.11V25.91h2.34a2.09,2.09,0,0,1,1.84.66A4.92,4.92,0,0,1,294,28.9a6.49,6.49,0,0,1-.35,2.75,2.14,2.14,0,0,1-1.87.69Z"/><path class="cls-2" d="M307.41,31.1h2.51l2.14,4.11h4.16l-2.84-4.86a2.36,2.36,0,0,0,1.5-1.15,4.5,4.5,0,0,0,.53-2.29,4,4,0,0,0-.7-2.57,3.84,3.84,0,0,0-3.28-1.27h-7.68V35.22h3.66Zm0-5.18h3.13c.54,0,.9.12,1.09.51a2,2,0,0,1,.12.78,2.17,2.17,0,0,1-.13.78c-.14.3-.54.41-1,.41h-3.21Z"/><polygon class="cls-2" points="328.52 32.38 321.79 32.38 321.79 30.58 328.21 30.58 328.21 27.69 321.79 27.69 321.79 25.93 328.46 25.93 328.46 23.07 318.13 23.07 318.13 35.21 328.52 35.21 328.52 32.38"/><path class="cls-2" d="M334.65,31.41h0l3.74,0a4.37,4.37,0,0,0,3.35-1.23,4.13,4.13,0,0,0,.9-2.95,4,4,0,0,0-1.09-3.17,4.21,4.21,0,0,0-3.17-1h-7.47V35.21h3.74Zm0-5.52h3a1.17,1.17,0,0,1,1.17.57,1.66,1.66,0,0,1,.16.86,1.55,1.55,0,0,1-.15.8c-.18.34-.52.57-1.23.57H334.6Z"/><path class="cls-2" d="M350.44,35.4c4.44,0,6.47-2.1,6.47-6.36,0-4.06-1.9-6.18-6.47-6.18s-6.49,2.35-6.49,6.23C343.95,33.23,346,35.4,350.44,35.4Zm0-9.67c2.06,0,2.71,1,2.71,3.4,0,2.71-1,3.43-2.71,3.43s-2.7-.86-2.7-3.43S348.44,25.72,350.44,25.72Z"/><path class="cls-2" d="M362.26,31.1h2.51l2.14,4.11h4.16l-2.84-4.86a2.37,2.37,0,0,0,1.5-1.15,4.59,4.59,0,0,0,.53-2.29,4.09,4.09,0,0,0-.7-2.57,3.87,3.87,0,0,0-3.29-1.27h-7.68V35.22h3.66Zm0-5.18h3.13c.53,0,.9.12,1.08.51a2,2,0,0,1,.12.78,2.26,2.26,0,0,1-.13.78c-.13.3-.54.41-1,.41h-3.21Z"/><polygon class="cls-2" points="375.21 35.21 379 35.21 379 25.99 382.88 25.99 382.88 23.07 371.36 23.07 371.36 25.99 375.21 25.99 375.21 35.21"/></svg>