<svg id="Layer_1" data-name="Layer 1" xmlns="http://www.w3.org/2000/svg" viewBox="0 0 106 106"><defs><style>.cls-1{fill:#222;}.cls-2{fill:#005fa7;}.cls-3{fill:#fff;}.cls-4{fill:#c42127;}</style></defs><title>Artboard 1</title><rect class="cls-1" width="106" height="106"/><rect class="cls-2" x="5.1" y="5" width="95.9" height="78.4"/><path class="cls-3" d="M24.9,42.9c-4.7,0-8.3-1.8-8.3-6.2v-13h4.2V36.3c0,2,1.5,3.2,4.2,3.2,2.4,0,4.1-1.2,4.1-3.1V23.7h4.2V36.9C33.3,41,29.8,42.9,24.9,42.9Z"/><rect class="cls-3" x="32.2" y="38.8" width="3.7" height="3.9"/><rect class="cls-3" x="52.2" y="38.8" width="3.7" height="3.9"/><path class="cls-3" d="M45,43c-5.7,0-7.8-1.7-8.6-4.1a8.08,8.08,0,0,1-.3-1.9h4.3a2.66,2.66,0,0,0,.3,1.2c.5,1.1,1.8,1.6,4.3,1.6,2.9,0,3.9-.8,3.9-2,0-1.6-.8-2.1-3.9-2.7-.5-.1-1.9-.4-2.8-.5-3.7-.7-6-2.4-6-5.6s2.6-5.4,8.2-5.4c4.8,0,7,1.7,8,4.1a6.54,6.54,0,0,1,.4,1.8H48.5a1.9,1.9,0,0,0-.3-.9c-.5-1.1-1.5-1.6-3.9-1.6-3.2,0-3.8.7-3.8,1.8,0,1.4,1.1,1.9,4.2,2.6,1,.2,2.2.5,2.6.5,3.8.7,5.7,2.3,5.7,5.5S50.4,43,45,43Z"/><polygon class="cls-3" points="28.3 66.1 20.6 53.3 20.6 66.1 16.7 66.1 16.7 47.1 21.5 47.1 28.8 59.4 28.8 47.1 32.8 47.1 32.8 66.1 28.3 66.1"/><path class="cls-3" d="M47.2,65.1A9.25,9.25,0,0,1,42,66.4c-3.1,0-5.6-.9-7-3.1A7.82,7.82,0,0,1,33.9,59a7.39,7.39,0,0,1,1.2-4.2c1.3-2,3.8-3.1,6.8-3.1,3.2,0,5.4,1.2,6.6,3a8.8,8.8,0,0,1,1.2,5.7H37.9a2.67,2.67,0,0,0,.8,1.7,4.62,4.62,0,0,0,3.3,1,6,6,0,0,0,2.6-.5,2.17,2.17,0,0,0,1.2-1.1h4A6.16,6.16,0,0,1,47.2,65.1Zm-2.1-9A4.24,4.24,0,0,0,42,55a4.7,4.7,0,0,0-3.2,1,2.85,2.85,0,0,0-.9,1.7h7.8A2,2,0,0,0,45.1,56.1Z"/><path class="cls-3" d="M69.8,66.1H65s-2.8-8-2.8-8.5a8.66,8.66,0,0,0-.2-1,8.66,8.66,0,0,0-.2,1c0,.5-2.8,8.5-2.8,8.5H54.2l-5-14h4.3l3.4,10.4L60,52.1h4.5l3.2,10.4L71,52.1h4Z"/><path class="cls-3" d="M82.3,66.4c-4.7,0-7-.9-7.6-3.2a7.08,7.08,0,0,1-.1-1.4h4a2,2,0,0,0,.1.7c.3.7,1.3.8,3.5.8s3-.4,3-1.2-.8-1-2.9-1.3c-.5-.1-2.2-.3-3.1-.5-3.1-.4-4.6-1.8-4.6-4.5,0-2.5,2.2-4.1,6.7-4.1,3.8,0,6.3,1,7,3a6.09,6.09,0,0,1,.3,1.7H84.7a2.35,2.35,0,0,0-.2-.8c-.3-.4-1-.7-3-.7-2.2,0-2.9.4-2.9,1s.4.8,2.4,1.1c.8.1,2.8.4,3.3.5,3.4.5,4.8,1.8,4.8,4.4C89.3,64.9,87.1,66.4,82.3,66.4Z"/><rect class="cls-4" x="5.1" y="87.7" width="95.9" height="13.3"/><path class="cls-3" d="M101,1H1V105H105V1Zm0,4V83.4H5V5ZM5,101V87.7h96V101Z"/></svg>