<svg xmlns="http://www.w3.org/2000/svg" version="1.1" x="0px" y="0px" viewBox="0 0 64 64" enable-background="new 0 0 64 64" xml:space="preserve"><path d="M50.6 18c0.6-1.8 0.5-3.2-0.3-4.2 -1-0.8-2.4-1-4.2-0.3 -1.8 0.6-3.5 1.6-4.9 3.1L36.6 21l-19-4.5c-0.3-0.1-0.6 0-0.9 0.2l-3.7 3.7c-0.2 0.2-0.3 0.5-0.3 0.8 0.1 0.3 0.2 0.5 0.5 0.7l14.5 8 -7.4 7.4 -5.5-1.5c0 0-0.1 0-0.2 0 -0.3 0-0.5 0.1-0.7 0.3l-2.7 2.8c-0.2 0.2-0.3 0.5-0.3 0.7 0 0.3 0.2 0.5 0.4 0.7l7.2 5.4 5.4 7.2c0.2 0.2 0.4 0.3 0.7 0.4h0.1c0.3 0 0.5-0.1 0.7-0.3l2.7-2.7c0.2-0.3 0.3-0.6 0.2-0.9l-1.5-5.5 7.4-7.4 8 14.5c0.1 0.2 0.3 0.4 0.6 0.5 0.1 0 0.1 0 0.2 0 0.2 0 0.4-0.1 0.5-0.2l3.7-2.7c0.3-0.3 0.4-0.6 0.3-0.9l-4.6-19.9 4.6-4.6C49 21.4 50 19.8 50.6 18z"/></svg>