<svg xmlns="http://www.w3.org/2000/svg" version="1.1" x="0px" y="0px" viewBox="0 0 64 64" xml:space="preserve"><path d="M54,49.3c0-0.5-0.1-1.1-0.4-1.5L34.7,13.2c-0.5-1-1.6-1.6-2.7-1.6c0,0,0,0,0,0s0,0,0,0c-1.1,0-2.2,0.6-2.7,1.6L10.4,47.8 c-0.3,0.5-0.4,1-0.4,1.5c0,0.5,0.1,1.1,0.4,1.6c0.6,1,1.6,1.5,2.7,1.5h0.1h37.6h0.1c1.1,0,2.1-0.5,2.7-1.5 C53.8,50.4,54,49.9,54,49.3z M29.5,36.7C29.5,36.7,29.5,36.7,29.5,36.7c-0.3-0.1-0.5-0.3-0.5-0.6l-0.4-11.2c0-0.2,0.1-0.4,0.2-0.5 c0.1-0.1,0.4-0.3,0.6-0.3h5.2c0.2,0,0.5,0.2,0.6,0.3c0.1,0.1,0.2,0.3,0.2,0.5L35,36.1c0,0.3-0.2,0.5-0.5,0.6c0,0,0,0,0,0 c-0.1,0-0.2,0-0.3,0h-4.4C29.7,36.7,29.6,36.7,29.5,36.7z M29.7,46.1c-0.5,0-0.8-0.4-0.8-0.8v-4.7c0-0.4,0.4-0.8,0.8-0.8h4.6 c0.4,0,0.8,0.4,0.8,0.8v4.7c0,0.4-0.3,0.8-0.8,0.8H29.7z"/></svg>