<svg xmlns="http://www.w3.org/2000/svg" version="1.1" x="0px" y="0px" viewBox="0 0 64 64" enable-background="new 0 0 64 64" xml:space="preserve"><path d="M52.4 28.6c-0.2-2.2-1-4.3-2-6.2 -0.8-1.3-1.7-2.6-3.1-3.4 -1.4-1-3-1.3-4.7-1.4 -1.6-0.1-3.2 0.2-4.8 0.8 -1.2 0.5-2.5 1-3.7 1.5 -0.5 0.2-1 0.4-1.5 0.6V17c2.4 0.1 4.5-0.5 6.4-1.9 1.9-1.4 3-3.3 3.4-5.6 -0.1 0-2.4 0-3.4 0.2 -1.7 0.4-3.1 1.1-4.4 2.4 -1 1-2.4 3.9-2.4 4 -0.7-2.1-1.7-3.9-3.2-5.3 -0.7 0.6-1.3 1.1-2 1.8 4 2 5.1 5.7 4.7 7.9 0 0-1.4-0.5-2-0.9 -1.2-0.7-2.4-1.3-3.7-1.7 -1.8-0.6-3.5-0.8-5.4-0.4 -2.9 0.6-5 2.2-6.6 4.6 -1.9 3-2.7 6.2-2.5 9.7 0.1 2.2 0.6 4.4 1.2 6.5 1 3.1 2.6 5.9 4.4 8.6 1.4 2 3.1 3.6 5.4 4.8 1.7 0.9 3.5 1.1 5.4 0.6 0.8-0.2 1.4-0.5 2.1-0.8 1.6-0.6 3.2-0.6 4.9 0.2 1.4 0.7 2.9 0.8 4.4 0.4 3.3-1 6.1-2.8 8.2-5.5C51.5 41.1 53.1 35.1 52.4 28.6z"/></svg>