<svg xmlns="http://www.w3.org/2000/svg" version="1.1" x="0px" y="0px" viewBox="0 0 64 64" enable-background="new 0 0 64 64" xml:space="preserve"><path d="M45.8 30.1L32 16.3c-0.5-0.5-1.2-0.8-1.9-0.8 -0.7 0-1.4 0.3-1.9 0.8l-1.6 1.6c-0.5 0.5-0.8 1.2-0.8 1.9s0.3 1.4 0.8 1.9l6.2 6.2H17.9c-1.5 0-2.5 1.3-2.5 2.7v2.7c0 1.4 1 2.7 2.5 2.7h14.9l-6.2 6.2c-0.5 0.5-0.8 1.2-0.8 1.9s0.3 1.4 0.8 1.9l1.6 1.6c0.5 0.5 1.2 0.8 1.9 0.8 0.7 0 1.4-0.3 1.9-0.8l13.8-13.8c0.5-0.5 0.8-1.2 0.8-1.9S46.3 30.6 45.8 30.1z"/></svg>