<svg xmlns="http://www.w3.org/2000/svg" version="1.1" x="0px" y="0px" viewBox="0 0 64 64" enable-background="new 0 0 64 64" xml:space="preserve"><path d="M51.5 19.5h-7.6v-2.5c0-2.3-1.9-4.2-4.2-4.2H24.4c-2.3 0-4.2 1.9-4.2 4.2v2.5h-7.6c-1.4 0-2.5 1.1-2.5 2.5v3.4c0 5 6.1 10.6 14.3 11 1.1 1.3 2 2.1 2.5 2.5 1.4 1.3 1.8 2.6 1.8 4.3 0 1.7-0.8 3.4-3.4 3.4s-5.1 1.7-5.1 4.2v1.7c0 0.5 0.4 0.8 0.8 0.8h22c0.5 0 0.8-0.4 0.8-0.8v-1.7c0-2.5-2.5-4.2-5.1-4.2s-3.4-1.7-3.4-3.4c0-1.7 0.4-3 1.8-4.3 0.5-0.4 1.5-1.2 2.5-2.5C47.9 36 54 30.4 54 25.4V22C54 20.6 52.9 19.5 51.5 19.5zM13.4 25.4v-2.5h6.8c0 4.2 0.8 7.4 2 9.8C16.9 31.6 13.4 28 13.4 25.4zM50.6 25.4c0 2.6-3.5 6.2-8.7 7.3 1.1-2.4 2-5.7 2-9.8h6.8V25.4z"/></svg>