<svg xmlns="http://www.w3.org/2000/svg" version="1.1" x="0px" y="0px" viewBox="0 0 64 64" enable-background="new 0 0 64 64" xml:space="preserve"><polygon points="22.9 29.1 22.9 33.3 27 33.2 29 36.8 32.5 34.7 36 36.8 38 33.2 42.1 33.3 42 29.1 45.6 27.2 43.5 23.6 45.6 20.1 42 18.1 42.1 14 38 14.1 36 10.5 32.5 12.6 29 10.5 27 14.1 22.9 14 22.9 18.1 19.4 20.1 21.5 23.6 19.4 27.2 "/><polygon points="32.5 38.3 28.8 40.5 26.7 36.8 23.1 36.8 18.4 49.4 25.7 47 29.3 53.5 34.6 39.6 "/><polygon points="42.6 36.8 38.3 36.8 33.7 48.9 35.9 55.5 40.2 48.1 47.6 51.1 "/></svg>