<svg xmlns="http://www.w3.org/2000/svg" version="1.1" x="0px" y="0px" viewBox="0 0 64 64" enable-background="new 0 0 64 64" xml:space="preserve"><path d="M46.8 16.2c-0.3-0.4-0.7-0.8-1.2-1 -0.3-0.1-0.7-0.2-1-0.2H19.5c-0.4 0-0.7 0.1-1 0.2 -0.5 0.2-0.9 0.5-1.2 1 -0.3 0.4-0.5 0.9-0.5 1.5v30.7c0 0.5 0.2 1 0.5 1.5s0.7 0.8 1.2 1c0.3 0.1 0.7 0.2 1 0.2 0.7 0 1.4-0.3 2-0.8L32 40.1l10.5 10.1c0.6 0.5 1.2 0.8 2 0.8 0.4 0 0.7-0.1 1-0.2 0.5-0.2 0.9-0.5 1.2-1s0.5-0.9 0.5-1.5V17.7C47.2 17.1 47.1 16.6 46.8 16.2z"/></svg>