<svg xmlns="http://www.w3.org/2000/svg" version="1.1" x="0px" y="0px" viewBox="0 0 64 64" enable-background="new 0 0 64 64" xml:space="preserve"><path d="M53.1 33.8h-38V18.3c0-0.4-0.1-0.7-0.4-1 -0.3-0.3-0.6-0.4-1-0.4h-2.8c-0.4 0-0.7 0.1-1 0.4 -0.3 0.3-0.4 0.6-0.4 1v26.7h5.6v-5.6h33.8v5.6h5.6v-9.8c0-0.4-0.1-0.7-0.4-1C53.8 34 53.5 33.8 53.1 33.8zM22.2 31.4c1.6 0 2.9-0.5 4-1.6 1.1-1.1 1.6-2.4 1.6-4 0-1.6-0.5-2.9-1.6-4s-2.4-1.6-4-1.6c-1.6 0-2.9 0.5-4 1.6s-1.6 2.4-1.6 4c0 1.6 0.5 2.9 1.6 4C19.3 30.9 20.6 31.4 22.2 31.4zM52 24c-1.6-1.6-3.6-2.5-6-2.5H30.6c-0.4 0-0.7 0.1-1 0.4 -0.3 0.3-0.4 0.6-0.4 1v8.4h25.3V30C54.5 27.7 53.7 25.7 52 24z"/></svg>