<svg xmlns="http://www.w3.org/2000/svg" version="1.1" x="0px" y="0px" viewBox="0 0 64 64" enable-background="new 0 0 64 64" xml:space="preserve"><path d="M48.8 23.9c-1.7 0-3.2 0.4-4.6 1l-6.4-9.6c-0.3-0.4-0.8-0.6-1.3-0.6h-6.1c-0.8 0-1.6 0.7-1.6 1.6 0 0.8 0.7 1.6 1.6 1.6h5.3l2 3H27.3v-3h-9.1c-0.8 0-1.6 0.7-1.6 1.6 0 0.8 0.7 1.6 1.6 1.6h5.3l-3.2 4.3C18.8 24.4 17 24 15.2 24 9.3 24 4.5 28.7 4.5 34.6c0 5.9 4.8 10.7 10.7 10.7 5.4 0 9.9-4 10.6-9.1h4.7c0.5 0 0.9-0.3 1.2-0.6l8.4-11.1 1.6 2.4c-2.2 1.9-3.6 4.8-3.6 7.9 0 5.9 4.8 10.7 10.7 10.7 5.9 0 10.8-4.9 10.8-10.8C59.5 28.7 54.7 23.9 48.8 23.9zM20.9 29.6c0.8 0.9 1.5 2.2 1.8 3.5h-4.4L20.9 29.6zM15.3 42.3c-4.2 0-7.6-3.4-7.6-7.6S11 27 15.3 27c1.1 0 2.2 0.3 3.2 0.7l-4.5 6c-0.7 0.9-0.1 2.4 1.2 2.4v0.1h7.6C22.1 39.7 19 42.3 15.3 42.3zM29.7 33.1h-4c-0.4-2.3-1.5-4.4-3-6L25 24h11.5L29.7 33.1zM48.8 42.2c-4.2 0-7.6-3.4-7.6-7.6 0-2.1 0.8-4 2.2-5.3l4.1 6.2c0.3 0.5 0.8 0.7 1.3 0.7 0.3 0 0.6-0.1 0.8-0.3 0.6-0.5 0.8-1.4 0.4-2.1l-4.1-6.2c0.9-0.4 1.8-0.6 2.9-0.6 4.2 0 7.7 3.3 7.7 7.6S53.1 42.2 48.8 42.2z"/></svg>