<svg xmlns="http://www.w3.org/2000/svg" version="1.1" x="0px" y="0px" viewBox="0 0 64 64" xml:space="preserve"><path d="M27.8,10.5h-6.3c-0.2,0-0.4,0.1-0.5,0.2c-0.1,0.1-0.2,0.3-0.2,0.5v4.9h7.7v-4.9c0-0.2-0.1-0.4-0.2-0.5 C28.2,10.6,28,10.5,27.8,10.5z M17.9,18l-5.4,19v11.1c0,0.4,0.1,0.7,0.4,1c0.3,0.3,0.6,0.4,1,0.4H25c0.4,0,0.7-0.1,1-0.4 c0.3-0.3,0.4-0.6,0.4-1V35.6c0.4,0,0.7-0.1,1-0.4c0.3-0.3,0.4-0.6,0.4-1V17.5h-9.2C18.2,17.5,18,17.6,17.9,18z"/><rect x="30" y="17.5" width="4" height="15.3"/><path d="M35.7,10.7c-0.1,0.1-0.2,0.3-0.2,0.5v4.9h7.7v-4.9c0-0.2-0.1-0.4-0.2-0.5c-0.1-0.1-0.3-0.2-0.5-0.2h-6.3 C36,10.5,35.8,10.6,35.7,10.7z M45.4,17.5h-9.2v16.7c0,0.4,0.1,0.7,0.4,1c0.3,0.3,0.6,0.4,1,0.4l0,12.5c0,0.4,0.1,0.7,0.4,1 c0.3,0.3,0.6,0.4,1,0.4h11.1c0.4,0,0.7-0.1,1-0.4s0.4-0.6,0.4-1V37l-5.4-19C46,17.6,45.8,17.5,45.4,17.5z"/></svg>
