<svg xmlns="http://www.w3.org/2000/svg" version="1.1" x="0px" y="0px" viewBox="0 0 64 64" enable-background="new 0 0 64 64" xml:space="preserve"><path d="M40.8 29.7c3.6-1.6 7-3.3 7-7.9 0-6.6-6.3-9.3-12.1-9.3 -1.1 0-2.3 0-3.5 0 -6 0-12.1 0.4-18.1 0.5l0.1 2.1c0.8 0.1 4.6 0.3 5 1 0.6 1.2 0.6 25.5 0.6 26 0 1.7 0.1 4.3-0.8 5.8 -1.6 0.7-3.2 0.7-4.8 1.1l-0.1 2.4c4.5-0.2 9.1-0.6 13.7-0.6 2.2 0 4.5 0.2 6.7 0.2 7.4 0 15.4-2.9 15.4-11.6C49.9 34.1 45.6 30.8 40.8 29.7zM27.7 15.4c1.1-0.2 2.2-0.3 3.3-0.3 4.2 0 8.6 1.7 8.6 6.7 0 5.9-3.7 7.3-9 7.3 -0.9 0-1.9 0-2.8-0.2 0-0.6 0-1.2 0-1.8 0-1.3 0-2.7 0-4C27.9 20.6 27.7 18 27.7 15.4zM31.8 48.7c-1.2 0-2.4-0.3-3.6-0.8 -0.6-1.5-0.4-6.2-0.4-8 0-2.7 0-5.4 0-8 0.7-0.3 1.8-0.3 2.6-0.3 4.1 0 7.5 0.2 9.9 4 0.8 1.3 1 3 1 4.6C41.3 46.4 37.6 48.7 31.8 48.7z"/></svg>