<svg xmlns="http://www.w3.org/2000/svg" version="1.1" x="0px" y="0px" viewBox="0 0 64 64" enable-background="new 0 0 64 64" xml:space="preserve"><path d="M53.3 20c-0.4-0.5-1-0.9-1.6-1.1 0 0.5 0 1-0.1 1.5l-7.9 26.1c-0.3 1-1.4 1.5-2.4 1.5H16.9c-1.5 0-3.3-0.3-3.8-1.8 -0.2-0.6-0.2-0.8 0-1.1 0.2-0.3 0.7-0.4 1-0.4h23c3.4 0 4-0.9 5.3-5l7.2-24c0.4-1.2 0.2-2.5-0.5-3.4 -0.7-0.9-1.8-1.5-3-1.5H26c-0.5 0-0.9 0.1-1.3 0.2l0-0.1c-3.4-1-3.6 2.7-4.7 4.3 -0.4 0.6-1.1 1.1-1.2 1.6 -0.1 0.5 0.2 0.9 0.1 1.4 -0.2 1.4-1.2 3.9-1.8 4.8 -0.4 0.5-1 0.8-1.2 1.4 -0.2 0.4 0.1 1 0.1 1.6 -0.1 1.2-1.1 3.6-1.8 4.8 -0.3 0.5-0.8 0.8-0.9 1.3 -0.1 0.4 0.1 1 0 1.5 -0.3 1.4-1.2 3.5-2 4.8 -0.4 0.7-1 1.2-1.1 1.8 -0.1 0.3 0.2 0.7 0.2 1.1 0 0.6-0.1 1.2-0.2 1.7 -0.4 1-0.4 2.2 0.1 3.4 1 2.7 3.9 4.9 6.6 4.9h24.4c2.3 0 4.6-1.7 5.3-4l7.3-24C54.2 22.1 54 20.9 53.3 20zM25.2 20l0.6-1.7c0.2-0.5 0.7-0.8 1.1-0.8h16.1c0.5 0 0.7 0.4 0.6 0.8L43 20c-0.2 0.5-0.7 0.8-1.1 0.8H25.8C25.3 20.8 25 20.5 25.2 20zM23 26.8l0.6-1.7c0.2-0.5 0.7-0.8 1.1-0.8h16.1c0.5 0 0.7 0.4 0.6 0.8l-0.6 1.7c-0.2 0.5-0.7 0.8-1.1 0.8H23.6C23.1 27.6 22.9 27.2 23 26.8z"/></svg>