<svg xmlns="http://www.w3.org/2000/svg" version="1.1" x="0px" y="0px" viewBox="0 0 64 64" xml:space="preserve"><path d="M48.8,7.5H15.2c-0.9,0-1.7,0.8-1.7,1.7v43.6c0,0.9,0.8,1.7,1.7,1.7h33.6c0.9,0,1.7-0.8,1.7-1.7V9.2 C50.5,8.3,49.7,7.5,48.8,7.5z M26.9,15c0-0.5,0.4-0.8,0.8-0.8h1.7c0.5,0,0.8,0.4,0.8,0.8v1.7c0,0.5-0.4,0.8-0.8,0.8h-1.7 c-0.5,0-0.8-0.4-0.8-0.8V15z M26.9,21.8c0-0.5,0.4-0.8,0.8-0.8h1.7c0.5,0,0.8,0.4,0.8,0.8v1.7c0,0.5-0.4,0.8-0.8,0.8h-1.7 c-0.5,0-0.8-0.4-0.8-0.8V21.8z M26.9,28.4c0-0.5,0.4-0.8,0.8-0.8h1.7c0.5,0,0.8,0.4,0.8,0.8v1.7c0,0.5-0.4,0.8-0.8,0.8h-1.7 c-0.5,0-0.8-0.4-0.8-0.8V28.4z M26.9,35.2c0-0.5,0.4-0.8,0.8-0.8h1.7c0.5,0,0.8,0.4,0.8,0.8v1.7c0,0.5-0.4,0.8-0.8,0.8h-1.7 c-0.5,0-0.8-0.4-0.8-0.8V35.2z M23.6,43.6c0,0.5-0.4,0.8-0.8,0.8H21c-0.5,0-0.8-0.4-0.8-0.8v-1.7c0-0.5,0.4-0.8,0.8-0.8h1.7 c0.5,0,0.8,0.4,0.8,0.8V43.6z M23.6,36.9c0,0.5-0.4,0.8-0.8,0.8H21c-0.5,0-0.8-0.4-0.8-0.8v-1.7c0-0.5,0.4-0.8,0.8-0.8h1.7 c0.5,0,0.8,0.4,0.8,0.8V36.9z M23.6,30.2c0,0.5-0.4,0.8-0.8,0.8H21c-0.5,0-0.8-0.4-0.8-0.8v-1.7c0-0.5,0.4-0.8,0.8-0.8h1.7 c0.5,0,0.8,0.4,0.8,0.8V30.2z M23.6,23.4c0,0.5-0.4,0.8-0.8,0.8H21c-0.5,0-0.8-0.4-0.8-0.8v-1.7c0-0.5,0.4-0.8,0.8-0.8h1.7 c0.5,0,0.8,0.4,0.8,0.8V23.4z M23.6,16.7c0,0.5-0.4,0.8-0.8,0.8H21c-0.5,0-0.8-0.4-0.8-0.8V15c0-0.5,0.4-0.8,0.8-0.8h1.7 c0.5,0,0.8,0.4,0.8,0.8V16.7z M37.1,50.4c0,0.5-0.4,0.8-0.8,0.8h-8.4c-0.5,0-0.8-0.4-0.8-0.8v-5.1c0-0.5,0.4-0.8,0.8-0.8h8.4 c0.5,0,0.8,0.4,0.8,0.8V50.4z M37.1,36.9c0,0.5-0.4,0.8-0.8,0.8h-1.7c-0.5,0-0.8-0.4-0.8-0.8v-1.7c0-0.5,0.4-0.8,0.8-0.8h1.7 c0.5,0,0.8,0.4,0.8,0.8V36.9z M37.1,30.2c0,0.5-0.4,0.8-0.8,0.8h-1.7c-0.5,0-0.8-0.4-0.8-0.8v-1.7c0-0.5,0.4-0.8,0.8-0.8h1.7 c0.5,0,0.8,0.4,0.8,0.8V30.2z M37.1,23.4c0,0.5-0.4,0.8-0.8,0.8h-1.7c-0.5,0-0.8-0.4-0.8-0.8v-1.7c0-0.5,0.4-0.8,0.8-0.8h1.7 c0.5,0,0.8,0.4,0.8,0.8V23.4z M37.1,16.7c0,0.5-0.4,0.8-0.8,0.8h-1.7c-0.5,0-0.8-0.4-0.8-0.8V15c0-0.5,0.4-0.8,0.8-0.8h1.7 c0.5,0,0.8,0.4,0.8,0.8V16.7z M43.7,43.6c0,0.5-0.4,0.8-0.8,0.8h-1.7c-0.5,0-0.8-0.4-0.8-0.8v-1.7c0-0.5,0.4-0.8,0.8-0.8h1.7 c0.5,0,0.8,0.4,0.8,0.8V43.6z M43.7,36.9c0,0.5-0.4,0.8-0.8,0.8h-1.7c-0.5,0-0.8-0.4-0.8-0.8v-1.7c0-0.5,0.4-0.8,0.8-0.8h1.7 c0.5,0,0.8,0.4,0.8,0.8V36.9z M43.7,30.2c0,0.5-0.4,0.8-0.8,0.8h-1.7c-0.5,0-0.8-0.4-0.8-0.8v-1.7c0-0.5,0.4-0.8,0.8-0.8h1.7 c0.5,0,0.8,0.4,0.8,0.8V30.2z M43.7,23.4c0,0.5-0.4,0.8-0.8,0.8h-1.7c-0.5,0-0.8-0.4-0.8-0.8v-1.7c0-0.5,0.4-0.8,0.8-0.8h1.7 c0.5,0,0.8,0.4,0.8,0.8V23.4z M43.7,16.7c0,0.5-0.4,0.8-0.8,0.8h-1.7c-0.5,0-0.8-0.4-0.8-0.8V15c0-0.5,0.4-0.8,0.8-0.8h1.7 c0.5,0,0.8,0.4,0.8,0.8V16.7z"/></svg>
