<svg xmlns="http://www.w3.org/2000/svg" version="1.1" x="0px" y="0px" viewBox="0 0 64 64" enable-background="new 0 0 64 64" xml:space="preserve"><path d="M50.3 26.4l-2.6-11.1c-0.1-1.3-0.9-2.4-2.4-3.4s-3.3-1.7-5.6-2.2S34.8 9 32 9s-5.4 0.2-7.7 0.7c-2.3 0.5-4.2 1.2-5.6 2.2s-2.2 2.1-2.4 3.4l-2.5 11.1c-0.4 1.8-0.6 3.6-0.6 5.5v14.8h3.1v3.1c0 0.9 0.3 1.6 0.9 2.2 0.6 0.6 1.4 0.9 2.2 0.9 0.9 0 1.6-0.3 2.2-0.9 0.6-0.6 0.9-1.4 0.9-2.2v-3.1h18.9v3.1c0 0.9 0.3 1.6 0.9 2.2 0.6 0.6 1.4 0.9 2.2 0.9 0.9 0 1.6-0.3 2.2-0.9 0.6-0.6 0.9-1.4 0.9-2.2v-3.1h3.1V31.9C50.9 29.9 50.7 28.1 50.3 26.4zM23.3 13.3c0.2-0.2 0.5-0.3 0.8-0.3h15.7c0.3 0 0.6 0.1 0.8 0.3 0.2 0.2 0.3 0.5 0.3 0.8 0 0.3-0.1 0.6-0.3 0.8 -0.2 0.2-0.5 0.3-0.8 0.3H24.1c-0.3 0-0.6-0.1-0.8-0.3 -0.2-0.2-0.3-0.5-0.3-0.8C23 13.8 23.1 13.5 23.3 13.3zM21.7 41.1C21 41.7 20.3 42 19.4 42c-0.9 0-1.6-0.3-2.2-0.9 -0.6-0.6-0.9-1.4-0.9-2.2 0-0.9 0.3-1.6 0.9-2.2 0.6-0.6 1.4-0.9 2.2-0.9 0.9 0 1.6 0.3 2.2 0.9 0.6 0.6 0.9 1.4 0.9 2.2C22.6 39.7 22.3 40.5 21.7 41.1zM19 31c-0.5 0-0.9-0.2-1.2-0.6 -0.3-0.4-0.4-0.8-0.3-1.3l1.8-9.4c0.1-0.4 0.3-0.7 0.6-0.9 0.3-0.2 0.6-0.4 1-0.4h22.5c0.4 0 0.7 0.1 1 0.4 0.3 0.2 0.5 0.5 0.6 0.9l1.8 9.4c0.1 0.5 0 0.9-0.3 1.3C45.9 30.8 45.5 31 45 31H19zM46.8 41.1c-0.6 0.6-1.4 0.9-2.2 0.9 -0.9 0-1.6-0.3-2.2-0.9 -0.6-0.6-0.9-1.4-0.9-2.2 0-0.9 0.3-1.6 0.9-2.2 0.6-0.6 1.4-0.9 2.2-0.9 0.9 0 1.6 0.3 2.2 0.9 0.6 0.6 0.9 1.4 0.9 2.2C47.7 39.7 47.4 40.5 46.8 41.1z"/></svg>