<svg xmlns="http://www.w3.org/2000/svg" version="1.1" x="0px" y="0px" viewBox="0 0 64 64" enable-background="new 0 0 64 64" xml:space="preserve"><path d="M48.1 10.5H15.9c-1.6 0-2.9 1.3-2.9 2.9v35.1c0 1.6 1.3 2.9 2.9 2.9h32.2c1.6 0 2.9-1.3 2.9-2.9V13.4C51 11.8 49.7 10.5 48.1 10.5zM18.9 48.6c-1.6 0-2.9-1.3-2.9-2.9 0-1.6 1.3-2.9 2.9-2.9 1.6 0 2.9 1.3 2.9 2.9C21.8 47.2 20.5 48.6 18.9 48.6zM18.9 39.8c-1.6 0-2.9-1.3-2.9-2.9s1.3-2.9 2.9-2.9c1.6 0 2.9 1.3 2.9 2.9S20.5 39.8 18.9 39.8zM18.9 31c-1.6 0-2.9-1.3-2.9-2.9 0-1.6 1.3-2.9 2.9-2.9 1.6 0 2.9 1.3 2.9 2.9C21.8 29.7 20.5 31 18.9 31zM27.6 48.6c-1.6 0-2.9-1.3-2.9-2.9 0-1.6 1.3-2.9 2.9-2.9s2.9 1.3 2.9 2.9C30.6 47.2 29.2 48.6 27.6 48.6zM27.6 39.8c-1.6 0-2.9-1.3-2.9-2.9s1.3-2.9 2.9-2.9 2.9 1.3 2.9 2.9S29.2 39.8 27.6 39.8zM27.6 31c-1.6 0-2.9-1.3-2.9-2.9 0-1.6 1.3-2.9 2.9-2.9s2.9 1.3 2.9 2.9C30.6 29.7 29.2 31 27.6 31zM36.4 48.6c-1.6 0-2.9-1.3-2.9-2.9 0-1.6 1.3-2.9 2.9-2.9 1.6 0 2.9 1.3 2.9 2.9C39.3 47.2 38 48.6 36.4 48.6zM36.4 39.8c-1.6 0-2.9-1.3-2.9-2.9s1.3-2.9 2.9-2.9c1.6 0 2.9 1.3 2.9 2.9S38 39.8 36.4 39.8zM36.4 31c-1.6 0-2.9-1.3-2.9-2.9 0-1.6 1.3-2.9 2.9-2.9 1.6 0 2.9 1.3 2.9 2.9C39.3 29.7 38 31 36.4 31zM48.1 45.6c0 1.6-1.3 2.9-2.9 2.9s-2.9-1.3-2.9-2.9v-8.8c0-1.6 1.3-2.9 2.9-2.9s2.9 1.3 2.9 2.9V45.6zM45.1 31c-1.6 0-2.9-1.3-2.9-2.9 0-1.6 1.3-2.9 2.9-2.9 1.7 0 2.9 1.3 2.9 2.9C48.1 29.7 46.7 31 45.1 31zM48.1 20.8c0 0.8-0.7 1.4-1.4 1.4H17.4c-0.8 0-1.4-0.7-1.4-1.4v-5.9c0-0.8 0.7-1.4 1.4-1.4h29.3c0.8 0 1.4 0.7 1.4 1.4V20.8z"/></svg>