<svg xmlns="http://www.w3.org/2000/svg" version="1.1" x="0px" y="0px" viewBox="0 0 64 64" xml:space="preserve"><path d="M49.7,19.6c-0.6-0.5-1.2-0.8-2-0.8h-2.9v-2.1c0-1-0.3-1.8-1-2.5s-1.5-1-2.5-1h-1.6c-1,0-1.8,0.3-2.5,1s-1,1.5-1,2.5v2.1 h-8.4v-2.1c0-1-0.3-1.8-1-2.5s-1.5-1-2.5-1h-1.6c-1,0-1.8,0.3-2.5,1s-1,1.5-1,2.5v2.1h-2.9c-0.8,0-1.4,0.3-2,0.8s-0.8,1.2-0.8,2 v28.6c0,0.8,0.2,1.4,0.8,2s1.2,0.8,2,0.8h31.4c0.8,0,1.4-0.2,2-0.8s0.8-1.2,0.8-2V21.6C50.5,20.8,50.3,20.1,49.7,19.6z M41,15.9 c0.2,0,0.4,0.1,0.5,0.2s0.2,0.3,0.2,0.5V23c0,0.2-0.1,0.4-0.2,0.5c-0.1,0.1-0.3,0.2-0.5,0.2h-0.9c-0.2,0-0.4-0.1-0.5-0.2 s-0.2-0.3-0.2-0.5v-6.4c0-0.2,0.1-0.4,0.2-0.5c0.1-0.1,0.3-0.2,0.5-0.2C40.1,15.9,41,15.9,41,15.9z M23.9,15.9 c0.2,0,0.4,0.1,0.5,0.2s0.2,0.3,0.2,0.5V23c0,0.2-0.1,0.4-0.2,0.5s-0.3,0.2-0.5,0.2H23c-0.2,0-0.4-0.1-0.5-0.2s-0.2-0.3-0.2-0.5 v-6.4c0-0.2,0.1-0.4,0.2-0.5s0.3-0.2,0.5-0.2C23,15.9,23.9,15.9,23.9,15.9z M16.5,50.1V27.3h31v22.8H16.5z"/><path d="M29,44.9c0.1,0.1,0.3,0.2,0.5,0.2s0.4-0.1,0.5-0.2l11.4-11.4c0.1-0.1,0.2-0.3,0.2-0.5s-0.1-0.4-0.2-0.5l-1-1 c-0.1-0.1-0.3-0.2-0.5-0.2c-0.2,0-0.4,0.1-0.5,0.2l-9.9,9.9l-4.9-4.9c-0.1-0.1-0.3-0.2-0.5-0.2s-0.4,0.1-0.5,0.2l-1,1 c-0.1,0.1-0.2,0.3-0.2,0.5s0.1,0.4,0.2,0.5L29,44.9z"/></svg>
