<svg xmlns="http://www.w3.org/2000/svg" version="1.1" x="0px" y="0px" viewBox="0 0 64 64" enable-background="new 0 0 64 64" xml:space="preserve"><path d="M49.2 27.6h-0.6l-2.3-9c-0.7-2.7-3.3-4.7-6.1-4.7H23.8c-2.8 0-5.4 2-6.1 4.7l-2.3 9h-0.6c-2.7 0-4.8 2.1-4.8 4.8v8.2c0 0.4 0.3 0.7 0.7 0.7h2.1v2.8c0 2.3 1.8 4.1 4.1 4.1s4.1-1.8 4.1-4.1v-2.8h22v2.8c0 2.3 1.8 4.1 4.1 4.1s4.1-1.8 4.1-4.1v-2.8h2.1c0.4 0 0.7-0.3 0.7-0.7v-8.2C54 29.7 51.9 27.6 49.2 27.6zM16.9 37.9c-1.9 0-3.4-1.5-3.4-3.4S15 31 16.9 31s3.4 1.5 3.4 3.4S18.8 37.9 16.9 37.9zM21.1 27.6l1.9-7.7c0.1-0.2 0.5-0.6 0.8-0.6h16.5c0.3 0 0.7 0.3 0.8 0.6l1.9 7.7H21.1zM47.1 37.9c-1.9 0-3.4-1.5-3.4-3.4s1.5-3.4 3.4-3.4 3.4 1.5 3.4 3.4S49 37.9 47.1 37.9z"/></svg>