<svg xmlns="http://www.w3.org/2000/svg" version="1.1" x="0px" y="0px" viewBox="0 0 64 64" enable-background="new 0 0 64 64" xml:space="preserve"><path d="M32 9c-12.2 0-22 9.8-22 22s9.8 22 22 22 22-9.8 22-22S44.2 9 32 9zM44.7 25.6L29.4 40.9C29.3 41 29.1 41 29 41c-0.2 0-0.3-0.1-0.4-0.2l-9.3-9.3c-0.1-0.1-0.2-0.2-0.2-0.4 0-0.2 0.1-0.3 0.2-0.4l3.8-3.8c0.1-0.1 0.2-0.2 0.4-0.2 0.2 0 0.3 0.1 0.4 0.2l4.6 4.6c0.1 0.1 0.2 0.2 0.4 0.2 0.2 0 0.3-0.1 0.4-0.2L40 21c0.1-0.1 0.2-0.2 0.4-0.2 0.2 0 0.3 0.1 0.4 0.2l3.9 3.8c0.1 0.1 0.2 0.3 0.2 0.4C44.8 25.3 44.8 25.5 44.7 25.6z"/></svg>