<svg xmlns="http://www.w3.org/2000/svg" version="1.1" x="0px" y="0px" viewBox="0 0 64 64" enable-background="new 0 0 64 64" xml:space="preserve"><path d="M53.7 19.5L47.1 13c-0.2-0.2-0.4-0.3-0.7-0.3 -0.3 0-0.5 0.1-0.7 0.3L27.6 31.1c-0.2 0.2-0.4 0.3-0.7 0.3 -0.3 0-0.5-0.1-0.7-0.3l-7.9-7.9c-0.2-0.2-0.4-0.3-0.7-0.3 -0.3 0-0.5 0.1-0.7 0.3l-6.6 6.5c-0.2 0.2-0.3 0.4-0.3 0.7 0 0.3 0.1 0.5 0.3 0.7L26.1 47c0.2 0.2 0.4 0.3 0.7 0.3 0.3 0 0.5-0.1 0.7-0.3l26.1-26.1c0.2-0.2 0.3-0.4 0.3-0.7C54 19.9 53.9 19.7 53.7 19.5z"/></svg>