<svg xmlns="http://www.w3.org/2000/svg" version="1.1" x="0px" y="0px" viewBox="0 0 64 64" enable-background="new 0 0 64 64" xml:space="preserve"><path d="M51.1 21c-2-3.4-4.6-6-8-8 -3.4-2-7.1-3-11-3s-7.7 1-11 3c-3.4 2-6 4.6-8 8 -2 3.4-3 7.1-3 11s1 7.7 3 11c2 3.4 4.6 6 8 8C24.3 53 28 54 32 54s7.7-1 11-2.9c3.4-2 6-4.6 8-8C53 39.7 54 36 54 32S53 24.3 51.1 21zM45.5 39.8c-1.4 2.4-3.3 4.3-5.7 5.7 -2.4 1.4-5 2.1-7.8 2.1s-5.4-0.7-7.8-2.1c-2.4-1.4-4.3-3.3-5.7-5.7 -1.4-2.4-2.1-5-2.1-7.8 0-2.8 0.7-5.4 2.1-7.8 1.4-2.4 3.3-4.3 5.7-5.7 2.4-1.4 5-2.1 7.8-2.1s5.4 0.7 7.8 2.1c2.4 1.4 4.3 3.3 5.7 5.7 1.4 2.4 2.1 5 2.1 7.8C47.6 34.8 46.9 37.4 45.5 39.8zM34.7 22h-1.8c-0.3 0-0.5 0.1-0.7 0.3 -0.2 0.2-0.3 0.4-0.3 0.7V33h-6.4c-0.3 0-0.5 0.1-0.7 0.3 -0.2 0.2-0.3 0.4-0.3 0.7v1.8c0 0.3 0.1 0.5 0.3 0.7 0.2 0.2 0.4 0.3 0.7 0.3h9.2c0.3 0 0.5-0.1 0.7-0.3 0.2-0.2 0.3-0.4 0.3-0.7V22.9c0-0.3-0.1-0.5-0.3-0.7C35.2 22.1 35 22 34.7 22z"/></svg>