<svg xmlns="http://www.w3.org/2000/svg" version="1.1" x="0px" y="0px" viewBox="0 0 64 64" enable-background="new 0 0 64 64" xml:space="preserve"><path d="M48.9 28.7c0.6-1 1-2.1 1-3.3 0-3.4-2.8-6.1-6.1-6.1 -1.5 0-2.9 0.5-4 1.5 -1.9-4.6-6.4-7.6-11.4-7.6 -6.8 0-12.3 5.5-12.3 12.3 0 0.3 0 0.7 0 1C12.4 28.2 10 32 10 36.1c0 5.9 4.8 10.7 10.7 10.7h26.1c5.1 0 9.2-4.1 9.2-9.2C56 33.4 53.1 29.7 48.9 28.7zM40.4 32.9L32 41.3c-0.1 0.1-0.4 0.2-0.6 0.2 -0.2 0-0.4-0.1-0.6-0.2l-8.4-8.4c-0.1-0.1-0.2-0.4-0.2-0.6 0-0.4 0.3-0.8 0.8-0.8h5.4v-8.4c0-0.4 0.4-0.8 0.8-0.8h4.6c0.4 0 0.8 0.4 0.8 0.8v8.4h5.4c0.4 0 0.8 0.3 0.8 0.8C40.7 32.5 40.6 32.7 40.4 32.9z"/></svg>