<svg xmlns="http://www.w3.org/2000/svg" version="1.1" x="0px" y="0px" viewBox="0 0 64 64" enable-background="new 0 0 64 64" xml:space="preserve"><path d="M50.6 17c-2.8-0.5-6-1.8-8.8-2.3 -2.8-0.6-1.6-2.5-3.2-3.6 -0.8-0.6-2.1-0.4-2.7 0.4L11 47.8l4.8 3.5h3.7v-3.7h3.7v-3.7h3.7v-3.7h3.7v-3.7h3.7v-3.7h3.7v-3.5c4.7 0 8.8 0 9.5 0 1.7 0 2.9-0.3 3.2-1.4 0.4-1.1 1.6-4.8 2-5.8C53.2 20.3 53.5 17.7 50.6 17zM16.6 47.9c-0.8 0.1-1.5-0.4-1.7-1.2 -0.1-0.8 0.4-1.5 1.2-1.7 0.8-0.1 1.5 0.4 1.7 1.2C17.9 47 17.4 47.7 16.6 47.9zM48.7 22c-0.2 0.6-1.6 3.5-1.6 3.5l-14.7-2.3 3.2-4.7c0.6-0.8 1.2-1.3 2.2-1.1l9.9 2.7C48.6 20.3 48.9 21.4 48.7 22z"/></svg>