<svg xmlns="http://www.w3.org/2000/svg" version="1.1" x="0px" y="0px" viewBox="0 0 64 64" enable-background="new 0 0 64 64" xml:space="preserve"><path d="M43.7 8.6c0-0.4-0.1-0.6-0.2-0.6 -0.3 0-0.5 0.1-0.8 0.4 -3.6 4.3-6.4 11.4-6.4 21.4 0 1.3 0.5 2.6 1.6 3.8 1.1 1.2 1.6 2.3 1.6 3.2 -0.1 1.8-1 14.1-1 14.3 -0.1 1.6 1.1 2.9 2.7 2.9 1.4 0 2.6-1.1 2.6-2.6L43.7 8.6zM27.8 8v11.8c0 0.5-0.4 0.9-0.9 0.9 -0.5 0-0.9-0.4-0.9-0.9L25 8h-0.8l-0.8 11.8c0 0.5-0.4 0.9-0.9 0.9h-0.1c-0.5 0-0.9-0.4-0.9-0.9V8h-0.8c-1.6 7.1-2.4 11.6-2.4 13.4 0 2.7 1.2 4.7 3.7 5.8 0.7 0.3 1.1 0.7 1.1 1.1l-1.4 22.5c-0.1 1.7 1.2 3.2 3 3.2h0c1.7 0 3.1-1.5 3-3.2 0-0.2-1.4-22.6-1.4-22.6 0-0.4 0.4-0.8 1.1-1.1 2.5-1.1 3.7-3.1 3.7-5.8 0-1.8-0.8-6.3-2.4-13.4H27.8z"/></svg>