<svg xmlns="http://www.w3.org/2000/svg" version="1.1" x="0px" y="0px" viewBox="0 0 64 64" enable-background="new 0 0 64 64" xml:space="preserve"><path d="M50.1 17c0 0 5-3 1.3-6.6 0 0-5-3.8-8.4 1.5 0 0-0.6-0.9-1.4-1.9 -1.5-1.8-3.8-3.8-5-1.3 0 0-5.2-1.1-4.8 1.1 0 0 1.7 3.2 3.5 3.2 -1.5 0.2-5.7 1.1-3.3 3.7 0 0 1 1.2 2.7 2 1.4 0.7 3.2 1.1 5.3 0.4 0 0-1.6 1.6-3.4 3.1 -0.8-0.4-1.7-0.8-2.6-1 -0.3-0.1-0.6-0.1-0.9-0.1 -3-0.2-5.6 1.7-7.9 5.4 0.1 0 0.2 0.1 0.3 0.1l3.2 2.4 0.1 0.1c0.5 0.4 0.6 1.1 0.2 1.6 -0.3 0.4-0.7 0.5-1.2 0.4 -0.1 0-0.1 0-0.2-0.1 -0.1 0-0.2-0.1-0.3-0.2l-3.2-2.5 -2.3 4.8 3 2.3c0.5 0.4 0.6 1.1 0.2 1.6 -0.3 0.4-0.7 0.5-1.2 0.4 -0.2 0-0.3-0.1-0.5-0.2l-2.6-2 -2.5 5.1 1.6 1.2c0.5 0.4 0.6 1.1 0.2 1.6 -0.3 0.4-0.7 0.5-1.2 0.4 -0.2 0-0.3-0.1-0.5-0.2l-1.2-0.9 -4.1 8.4c-0.6 1.1-1 2.3-0.1 3 0.3 0.2-0.1 0.2 0.3 0.3 0.8 0.2 1.6-0.1 2.2-0.6l7.1-5.6 14.7-11.6c0 0 5.4-4 4.4-8.6 -0.3-1.4-0.8-2.4-1.6-3.2 0.8-1.2 1.8-2.6 3.4-3.7 0 0-0.6 6 2.8 0.9 0 0 2.2 5.2 5 3 0 0 2.4-1.6-2.2-4.9 0 0 6.6 2.7 6.6 0.5C55.6 20.5 55.7 17.8 50.1 17z"/></svg>