<svg xmlns="http://www.w3.org/2000/svg" version="1.1" x="0px" y="0px" viewBox="0 0 64 64" xml:space="preserve"><path d="M32,31c2.7,0,5.1-1,7-2.9c1.9-2,2.9-4.3,2.9-7.1c0-2.8-1-5.1-2.9-7.1c-1.9-2-4.3-2.9-7-2.9c-2.7,0-5.1,1-7,2.9 c-1.9,2-2.9,4.3-2.9,7.1c0,2.8,1,5.1,2.9,7.1C26.9,30,29.3,31,32,31z"/><path d="M20.4,42.7c0,0.5,0.2,0.8,0.5,1.2c0.3,0.3,0.7,0.5,1.2,0.5c0.4,0,0.8-0.2,1.2-0.5c0.3-0.3,0.5-0.7,0.5-1.2 c0-0.5-0.2-0.8-0.5-1.2c-0.3-0.3-0.7-0.5-1.2-0.5c-0.4,0-0.8,0.2-1.2,0.5C20.6,41.8,20.4,42.2,20.4,42.7z"/> <path d="M50,40.8c-0.1-1.1-0.3-2.3-0.6-3.6c-0.3-1.3-0.7-2.5-1.2-3.5c-0.5-1-1.2-1.9-2.1-2.7c-0.9-0.8-1.9-1.3-3.1-1.6 c0.1,0.3,0.2,0.7,0.3,1c0.1,0.4,0.1,0.8,0.2,1.2c0,0.5,0.1,0.8,0.1,1.1c0,0.3,0,0.7,0,1.2c0,0.6,0,0.9,0,1.1c1,0.6,1.8,1.4,2.4,2.4 c0.6,1,0.9,2.1,0.9,3.3v2.3c0.6,0.5,0.8,1.1,0.8,1.8c0,0.7-0.2,1.3-0.7,1.8c-0.5,0.5-1.1,0.7-1.8,0.7c-0.7,0-1.3-0.2-1.8-0.7 c-0.5-0.5-0.7-1.1-0.7-1.8c0-0.7,0.3-1.3,0.8-1.8V41c0-0.9-0.3-1.7-1-2.3c-0.7-0.7-1.4-1-2.3-1c-0.9,0-1.7,0.3-2.3,1 c-0.7,0.7-1,1.4-1,2.3v2.3c0.6,0.5,0.8,1.1,0.8,1.8c0,0.7-0.2,1.3-0.7,1.8c-0.5,0.5-1.1,0.7-1.8,0.7c-0.7,0-1.3-0.2-1.8-0.7 c-0.5-0.5-0.7-1.1-0.7-1.8c0-0.7,0.3-1.3,0.8-1.8V41c0-1.8,0.6-3.4,1.9-4.7c1.3-1.3,2.8-2,4.7-2v-1.7c0-1.1-0.2-1.9-0.6-2.4 C37.3,32.1,34.8,33,32,33c-2.8,0-5.3-0.9-7.6-2.7c-0.4,0.5-0.6,1.3-0.6,2.4V38c1,0.3,1.8,1,2.4,1.8c0.6,0.9,0.9,1.8,0.9,2.9 c0,1.4-0.5,2.6-1.4,3.5c-1,1-2.1,1.5-3.5,1.5c-1.4,0-2.5-0.5-3.5-1.5c-1-1-1.4-2.2-1.4-3.5c0-1.1,0.3-2,0.9-2.9 c0.6-0.9,1.4-1.5,2.4-1.8v-5.3c0-1.2,0.2-2.2,0.6-3.1c-1.2,0.3-2.2,0.8-3.1,1.6c-0.9,0.8-1.6,1.7-2.1,2.7c-0.5,1-0.9,2.1-1.2,3.5 c-0.3,1.3-0.5,2.5-0.6,3.6c-0.1,1.1-0.1,2.2-0.1,3.4c0,2.1,0.6,3.8,1.9,4.9c1.3,1.2,2.9,1.8,5,1.8h22.6c2.1,0,3.8-0.6,5-1.8 c1.3-1.2,1.9-2.8,1.9-4.9C50.2,43.1,50.1,41.9,50,40.8z"/></svg>
