<svg xmlns="http://www.w3.org/2000/svg" version="1.1" x="0px" y="0px" viewBox="0 0 64 64" enable-background="new 0 0 64 64" xml:space="preserve"><path d="M48.4 21.2l-9.6-9.6c-0.2-0.2-0.5-0.5-0.8-0.7V22h11.1C48.8 21.7 48.6 21.4 48.4 21.2zM37.2 25C36 25 35 24 35 22.8V10H16.2C15 10 14 11 14 12.2v37.5c0 1.2 1 2.2 2.2 2.2h31.5c1.2 0 2.2-1 2.2-2.2V25H37.2zM41 42.2c0 0.4-0.3 0.7-0.7 0.7H23.7c-0.4 0-0.7-0.3-0.7-0.7v-1.5c0-0.4 0.3-0.7 0.7-0.7h16.5c0.4 0 0.7 0.3 0.7 0.7V42.2zM41 36.2c0 0.4-0.3 0.7-0.7 0.7H23.7c-0.4 0-0.7-0.3-0.7-0.7v-1.5c0-0.4 0.3-0.7 0.7-0.7h16.5c0.4 0 0.7 0.3 0.7 0.7V36.2zM41 30.3c0 0.4-0.3 0.7-0.7 0.7H23.7c-0.4 0-0.7-0.3-0.7-0.7v-1.5c0-0.4 0.3-0.7 0.7-0.7h16.5c0.4 0 0.7 0.3 0.7 0.7V30.3z"/></svg>