<svg xmlns="http://www.w3.org/2000/svg" version="1.1" x="0px" y="0px" viewBox="0 0 64 64" xml:space="preserve"><path d="M33.9,28.4c-3.6-1.4-6.6-2.6-6.6-5.2c0-2.3,2.2-3.9,5.4-3.9c3.8,0,6.8,2.7,6.8,2.7c0.2,0.2,0.4,0.2,0.7,0.2s0.5-0.2,0.6-0.4 l2-3.7c0.2-0.3,0.1-0.7-0.1-1c-0.1-0.1-2.8-2.9-7.9-3.4V9.3c0-0.5-0.4-0.8-0.8-0.8h-3.4c-0.4,0-0.8,0.4-0.8,0.8v4.5 c-5.2,1-8.9,4.8-8.9,9.4c0,6.3,5.6,8.6,10.1,10.3c3.4,1.4,6.4,2.5,6.4,4.9c0,2.8-2.7,4.1-5.1,4.1c-4.4,0-8-3.4-8-3.4 c-0.2-0.2-0.4-0.2-0.6-0.2s-0.5,0.1-0.6,0.3l-2.6,3.4c-0.2,0.3-0.2,0.7,0,1c0.1,0.2,3.3,3.7,9.2,4.5v4.4c0,0.5,0.4,0.8,0.8,0.8h3.4 c0.5,0,0.8-0.4,0.8-0.8v-4.4c5.3-0.9,9-4.9,9-10C43.7,32.2,38.5,30.2,33.9,28.4z"/></svg>
