<svg xmlns="http://www.w3.org/2000/svg" version="1.1" x="0px" y="0px" viewBox="0 0 64 64" xml:space="preserve"><path d="M36.6,32c0-0.3-0.2-0.7-0.4-0.8L19.4,14.4c-0.2-0.2-0.6-0.4-0.8-0.4s-0.7,0.2-0.8,0.4L16,16.2c-0.2,0.2-0.4,0.6-0.4,0.8 s0.2,0.7,0.4,0.8L30.1,32L15.9,46.2c-0.2,0.3-0.4,0.6-0.4,0.8s0.2,0.7,0.4,0.8l1.8,1.8c0.3,0.2,0.6,0.4,0.8,0.4s0.7-0.2,0.8-0.4 l16.8-16.8C36.5,32.7,36.6,32.3,36.6,32z M50.1,31.2L33.3,14.4c-0.2-0.2-0.6-0.4-0.8-0.4s-0.7,0.2-0.8,0.4l-1.8,1.8 c-0.2,0.2-0.4,0.6-0.4,0.8s0.2,0.7,0.4,0.8L44,32L29.8,46.2c-0.2,0.3-0.4,0.6-0.4,0.8s0.2,0.7,0.4,0.8l1.8,1.8 c0.3,0.2,0.6,0.4,0.8,0.4s0.7-0.2,0.8-0.4L50,32.8c0.2-0.2,0.3-0.6,0.4-0.8C50.4,31.7,50.2,31.3,50.1,31.2z"/></svg>