<svg xmlns="http://www.w3.org/2000/svg" version="1.1" x="0px" y="0px" viewBox="0 0 64 64" enable-background="new 0 0 64 64" xml:space="preserve"><path d="M30.8 38.3c0.3 0.4 0.8 0.5 1.2 0.5s0.9-0.2 1.2-0.5l12.4-12.4c0.5-0.5 0.7-1.3 0.4-1.9 -0.3-0.6-0.9-1.1-1.6-1.1h-7.1V10.5c0-1-0.8-1.8-1.8-1.8h-7.1c-1 0-1.8 0.8-1.8 1.8v12.4h-7.1c-0.7 0-1.4 0.4-1.6 1.1 -0.3 0.7-0.1 1.4 0.4 1.9L30.8 38.3zM52.3 37.1H39.5l-3.8 3.8c-1 1-2.3 1.5-3.8 1.5s-2.7-0.6-3.8-1.5l-3.7-3.8H11.7c-1.5 0-2.7 1.2-2.7 2.7v8.9c0 1.5 1.2 2.7 2.7 2.7h40.7c1.5 0 2.7-1.2 2.7-2.7v-8.9C55 38.3 53.8 37.1 52.3 37.1zM42.6 47.7c-1 0-1.8-0.8-1.8-1.8 0-1 0.8-1.8 1.8-1.8 1 0 1.8 0.8 1.8 1.8C44.4 46.9 43.6 47.7 42.6 47.7zM49.7 47.7c-1 0-1.8-0.8-1.8-1.8 0-1 0.8-1.8 1.8-1.8s1.8 0.8 1.8 1.8C51.5 46.9 50.7 47.7 49.7 47.7z"/></svg>