<svg xmlns="http://www.w3.org/2000/svg" version="1.1" x="0px" y="0px" viewBox="0 0 64 64" xml:space="preserve"><path d="M48.5,42.3v-6c0-0.6-0.4-1-1-1h-4.4c-0.6,0-1,0.4-1,1v6.6h-6c-0.4-0.9-1-1.6-1.9-2.1V23.2c0.8-0.5,1.5-1.2,1.9-2.1h6v6.6 c0,0.6,0.4,1,1,1h4.4c0.6,0,1-0.4,1-1v-6c1-0.3,1.8-1.2,1.8-2.3s-0.8-2-1.8-2.3v-6c0-0.6-0.4-1-1-1h-4.4c-0.6,0-1,0.4-1,1v6.6h-6 C35.4,16.1,33.8,15,32,15s-3.4,1.1-4.1,2.7h-6v-6.6c0-0.6-0.4-1-1-1h-4.4c-0.6,0-1,0.4-1,1v6c-1,0.3-1.8,1.2-1.8,2.3s0.8,2,1.8,2.3 v6c0,0.6,0.4,1,1,1h4.4c0.6,0,1-0.4,1-1v-6.6h6c0.4,0.9,1,1.6,1.9,2.1v17.6c-0.8,0.5-1.5,1.2-1.9,2.1h-6v-6.6c0-0.6-0.4-1-1-1h-4.4 c-0.6,0-1,0.4-1,1v6c-1,0.3-1.8,1.2-1.8,2.3s0.8,2,1.8,2.3v6c0,0.6,0.4,1,1,1h4.4c0.6,0,1-0.4,1-1v-6.6h6c0.7,1.6,2.2,2.7,4.1,2.7 s3.4-1.1,4.1-2.7h6v6.6c0,0.6,0.4,1,1,1h4.4c0.6,0,1-0.4,1-1v-6c1-0.3,1.8-1.2,1.8-2.3S49.6,42.6,48.5,42.3z"/></svg>