<svg xmlns="http://www.w3.org/2000/svg" version="1.1" x="0px" y="0px" viewBox="0 0 64 64" enable-background="new 0 0 64 64" xml:space="preserve"><path d="M46.8 17.2C46.6 17 46.4 17 46.1 17H34.4c-0.3 0-0.4 0.1-0.5 0.2 -0.1 0.1 0 0.3 0.2 0.5l3.4 3.4 -12 12c-0.2 0.2-0.3 0.4-0.3 0.7 0 0.3 0.1 0.5 0.3 0.7l4.1 4.1c0.2 0.2 0.4 0.3 0.7 0.3s0.5-0.1 0.7-0.3l12-12 3.4 3.4c0.2 0.1 0.3 0.2 0.4 0 0.1-0.1 0.2-0.3 0.2-0.6V17.9C47 17.6 46.9 17.4 46.8 17.2zM42 44c0 0.5-0.2 0.9-0.5 1.2s-0.7 0.5-1.2 0.5H20.1c-0.5 0-0.9-0.2-1.2-0.5s-0.5-0.7-0.5-1.2V23.7c0-0.5 0.2-0.9 0.5-1.2 0.3-0.3 0.7-0.5 1.2-0.5h11.4l-3.4-3.4h-6.3c-1.9 0-3.4 0.7-4.8 2 -1.3 1.3-2 2.9-2 4.8v16.9c0 1.9 0.7 3.5 2 4.8 1.3 1.3 2.9 2 4.8 2h16.9c1.9 0 3.5-0.7 4.8-2 1.3-1.3 2-2.9 2-4.8v-6.3L42 32.6V44z"/></svg>