<svg xmlns="http://www.w3.org/2000/svg" version="1.1" x="0px" y="0px" viewBox="0 0 64 64" enable-background="new 0 0 64 64" xml:space="preserve"><path d="M16.7 15.7c-0.6-0.6-1.3-0.9-2.1-0.9s-1.6 0.3-2.1 0.9c-0.6 0.6-0.9 1.3-0.9 2.1 0 1.1 0.5 2 1.5 2.6v30c0 0.2 0.1 0.4 0.2 0.5 0.1 0.2 0.3 0.2 0.5 0.2h1.5c0.2 0 0.4-0.1 0.5-0.2 0.2-0.1 0.2-0.3 0.2-0.5v-30c1-0.6 1.5-1.5 1.5-2.6C17.6 17 17.3 16.3 16.7 15.7zM52 18.3c-0.3-0.3-0.7-0.5-1.1-0.5 -0.2 0-0.6 0.2-1.3 0.5 -0.7 0.3-1.4 0.7-2.1 1.1 -0.7 0.4-1.6 0.8-2.6 1.1 -1 0.3-1.9 0.5-2.8 0.5 -0.8 0-1.5-0.2-2.1-0.5 -2-0.9-3.7-1.6-5.2-2.1 -1.5-0.5-3.1-0.7-4.7-0.7 -2.9 0-6.3 0.9-10 2.8 -0.9 0.5-1.5 0.8-1.9 1 -0.5 0.4-0.7 0.8-0.7 1.3v17.6c0 0.4 0.2 0.8 0.5 1.1 0.3 0.3 0.7 0.4 1.1 0.4 0.3 0 0.5-0.1 0.8-0.2 4.3-2.3 8-3.5 11-3.5 1.2 0 2.3 0.2 3.4 0.5 1.1 0.3 2 0.7 2.7 1.1 0.7 0.4 1.6 0.8 2.6 1.1 1 0.3 2 0.5 2.9 0.5 2.4 0 5.4-0.9 8.8-2.8 0.4-0.2 0.7-0.4 0.9-0.7 0.2-0.2 0.3-0.5 0.3-0.9V19.3C52.5 18.9 52.3 18.6 52 18.3z"/></svg>