<svg xmlns="http://www.w3.org/2000/svg" version="1.1" x="0px" y="0px" viewBox="0 0 64 64" enable-background="new 0 0 64 64" xml:space="preserve"><path d="M50.2 25.9c-6.1 0-12.2 0-18.2 0 -6.1 0-12.3 0-18.4 0 -1.3 0-2.1 0.8-2.1 2 0 0.5 0.1 0.9 0.1 1.4 0.3 3.1 0.6 6.2 0.9 9.3 0.3 3.2 0.6 6.4 0.9 9.6 0.2 1.6 0.7 2.1 2.4 2.1 10.8 0 21.7 0 32.5 0 0.2 0 0.4 0 0.6 0 1-0.1 1.6-0.8 1.7-1.8 0.1-0.6 0.1-1.2 0.2-1.9 0.3-3 0.6-6 0.9-9.1 0.3-3 0.5-6 0.8-9C52.7 26.7 52 25.9 50.2 25.9zM11.5 22.1h2.1c11.1 0 22.2 0 33.2 0h1.7l0.3-1.7c0.1-0.3 0.1-0.6 0.1-0.9 0-0.5-0.1-1-0.3-1.5 -0.3-0.8-0.9-1.5-1.6-1.9 -0.7-0.4-1.6-0.6-2.4-0.6l-0.1 0c-2 0-3.9 0-5.9 0 -1.6 0-3.3 0-5 0 -1.4 0-2.8 0-4.2 0h0l0 0c-0.2 0-0.3 0-0.3 0 0 0 0 0-0.1-0.1 -0.6-0.7-1.1-1.5-1.8-2.2 -0.3-0.3-0.6-0.5-1-0.7 -0.4-0.2-0.8-0.4-1.4-0.4 -1.8 0-3.5 0-5.3 0 -1.5 0-2.9 0-4.4 0 -1 0-1.9 0.4-2.5 1 -0.3 0.3-0.6 0.7-0.8 1.1 -0.2 0.4-0.4 0.9-0.4 1.4 0 0.6 0 1.3 0 1.9 0 0.9 0 1.8 0 2.7V22.1z"/></svg>