<svg xmlns="http://www.w3.org/2000/svg" version="1.1" x="0px" y="0px" viewBox="0 0 64 64" enable-background="new 0 0 64 64" xml:space="preserve"><path d="M32.2 13.5c-3.7 1.5-7.5 3.8-10.7 7 -3.4 3.4-5.8 7.4-7.3 11.3 2.2 1.4 5.5 3.7 8.7 6.9 4.1 4.1 6.8 8.4 7.9 10.2 4.1-1.5 8.2-3.9 11.7-7.4 3.1-3.1 5.3-6.6 6.8-10.1 -0.7-1.3-3.5-6.2-8.2-10.8C37.8 17.2 34.4 14.8 32.2 13.5zM33.4 24c-0.2 0.2-0.5 0.4-0.9 0.4 -0.3 0-0.6-0.1-0.9-0.4l-1.5-1.5 -1.8 1.8 1.5 1.5c0.2 0.2 0.4 0.5 0.4 0.9 0 0.3-0.1 0.6-0.4 0.9 -0.2 0.2-0.5 0.4-0.9 0.4 -0.3 0-0.6-0.1-0.9-0.4L26.6 26l-1.8 1.8 1.5 1.5c0.2 0.2 0.4 0.5 0.4 0.9 0 0.3-0.1 0.6-0.4 0.9 -0.2 0.2-0.5 0.4-0.9 0.4 -0.3 0-0.6-0.1-0.9-0.4l-1.5-1.5 -1 1c-0.2 0.2-0.5 0.4-0.9 0.4 -0.3 0-0.6-0.1-0.9-0.4 -0.5-0.5-0.5-1.3 0-1.7l1-1 -1.5-1.5c-0.2-0.2-0.4-0.5-0.4-0.9 0-0.3 0.1-0.6 0.4-0.9 0.2-0.2 0.5-0.4 0.9-0.4 0.3 0 0.6 0.1 0.9 0.4l1.5 1.5 1.8-1.8 -1.5-1.5c-0.2-0.2-0.4-0.5-0.4-0.9s0.1-0.6 0.4-0.9c0.2-0.2 0.5-0.4 0.9-0.4 0.3 0 0.6 0.1 0.9 0.4l1.5 1.5 1.8-1.8 -1.5-1.5c-0.2-0.2-0.4-0.5-0.4-0.9 0-0.3 0.1-0.6 0.4-0.9 0.2-0.2 0.5-0.4 0.9-0.4 0.3 0 0.6 0.1 0.9 0.4l1.5 1.5 1-1c0.2-0.2 0.5-0.4 0.9-0.4 0.3 0 0.6 0.1 0.9 0.4 0.2 0.2 0.4 0.5 0.4 0.9s-0.1 0.6-0.4 0.9l-1 1 1.5 1.5c0.2 0.2 0.4 0.5 0.4 0.9S33.6 23.8 33.4 24zM12.5 37.7c-1 5.3-0.4 9.8 1.3 11.5 1.7 1.7 6 2.3 11.2 1.3 -1.4-2.1-3.5-4.9-6.3-7.6C16.5 40.7 14.4 39 12.5 37.7zM50.2 12.8c-1.6-1.6-5.7-2.2-10.7-1.4 1.8 1.3 3.8 2.9 5.8 4.9 2.7 2.7 4.8 5.5 6.3 7.6C52.5 18.8 51.9 14.5 50.2 12.8z"/></svg>