<svg xmlns="http://www.w3.org/2000/svg" version="1.1" x="0px" y="0px" viewBox="0 0 64 64" enable-background="new 0 0 64 64" xml:space="preserve"><circle cx="13.7" cy="32" r="4.7"/><circle cx="13.7" cy="19.4" r="4.7"/><circle cx="13.7" cy="44.6" r="4.7"/><path d="M52.2 16.3H22.4c-0.4 0-0.8 0.4-0.8 0.8v4.7c0 0.4 0.4 0.8 0.8 0.8h29.9c0.4 0 0.8-0.4 0.8-0.8v-4.7C53 16.7 52.6 16.3 52.2 16.3zM52.2 28.9H22.4c-0.4 0-0.8 0.4-0.8 0.8v4.7c0 0.4 0.4 0.8 0.8 0.8h29.9c0.4 0 0.8-0.4 0.8-0.8v-4.7C53 29.2 52.6 28.9 52.2 28.9zM52.2 41.4H22.4c-0.4 0-0.8 0.4-0.8 0.8v4.7c0 0.4 0.4 0.8 0.8 0.8h29.9c0.4 0 0.8-0.4 0.8-0.8v-4.7C53 41.8 52.6 41.4 52.2 41.4z"/></svg>