<svg xmlns="http://www.w3.org/2000/svg" version="1.1" x="0px" y="0px" viewBox="0 0 64 64" xml:space="preserve"><path d="M49.1,12.9l-10.3-0.3c-1.8-0.1-2.8,2.1-1.5,3.4l3.2,3.2L32,27.7l-8.5-8.5l3.2-3.2c1.3-1.3,0.3-3.5-1.5-3.4l-10.3,0.3 c-1.1,0-1.9,0.9-1.9,1.9l-0.3,10.3c-0.1,1.8,2.1,2.8,3.4,1.5l3.2-3.2l8.5,8.5l-8.5,8.5l-3.2-3.2c-1.3-1.3-3.5-0.3-3.4,1.5L13,49.1 c0,1.1,0.9,1.9,1.9,1.9l10.3,0.3c1.8,0.1,2.8-2.1,1.5-3.4l-3.2-3.2l8.5-8.5l8.5,8.5l-3.2,3.2c-1.3,1.3-0.3,3.5,1.5,3.4L49.1,51 c1.1,0,1.9-0.9,1.9-1.9l0.3-10.3c0.1-1.8-2.1-2.8-3.4-1.5l-3.2,3.2L36.2,32l8.5-8.5l3.2,3.2c1.3,1.3,3.5,0.3,3.4-1.5L51,14.9 C51,13.8,50.2,13,49.1,12.9z"/></svg>
