<svg xmlns="http://www.w3.org/2000/svg" version="1.1" x="0px" y="0px" viewBox="0 0 64 64" enable-background="new 0 0 64 64" xml:space="preserve"><path d="M53.1 22.6c-0.3-0.5-6-8.2-10.1-8.9 -2.9 0.2 5.1 6.9 3.2 8.3 -1 1.7-0.6 3.1 0.3 5.1 0.6 1.1 2.2 3.5 4.2 4.2v12.1c0 1.5-0.9 2.6-2 2.6 -1.1 0-2-1.2-2-2.6l0-11c0-1.5-1.2-2.9-2.6-2.9h-2.6V12.9c0-2.2-1.8-3.9-3.9-3.9H17.3c-2.2 0-3.9 1.8-3.9 3.9v36.8h-0.2c-0.9 0-1.6 0.7-1.6 1.6V53h31.6v-1.6c0-0.9-0.7-1.6-1.6-1.6h-0.2V33.2h1c0.5 0 0.9 0.4 0.9 0.9v10c0 2.9 2.4 5.3 5.3 5.3h0.1c2.9 0 5.3-2.4 5.3-5.3v-14h0C54.8 27.8 54.5 24.8 53.1 22.6zM37.6 28.6H17.2V15.7h0.1 20.2 0.1V28.6zM51.3 28.4c-0.6-0.1-1.6-1.1-2.4-2.4 -0.3-0.7-0.9-2.3 0.3-2.8 0.5 0 1.1 0.4 1.5 1.1C51.5 25.3 51.8 27 51.3 28.4z"/></svg>