<svg xmlns="http://www.w3.org/2000/svg" version="1.1" x="0px" y="0px" viewBox="0 0 64 64" enable-background="new 0 0 64 64" xml:space="preserve"><path d="M51.1 46.1l-8.8-8.8c-0.6-0.6-1.4-0.9-2.2-0.9 -0.9 0-1.7 0.4-2.3 1l-6.2-6.2 3.1-3.1c0.2-0.2 0.3-0.5 0.3-0.8 0-0.3-0.1-0.6-0.3-0.8 0.7 0.7 1.3 1.4 2.4 1.4 0.6 0 1.2-0.2 1.6-0.7 0.9-0.8 2-1.7 2-3 0-0.6-0.2-1.2-0.7-1.7l-9.9-9.9c-0.4-0.4-1-0.7-1.6-0.7 -1.3 0-2.2 1.2-3 2 -0.4 0.5-0.7 1-0.7 1.6 0 1.1 0.7 1.6 1.4 2.4 -0.2-0.2-0.5-0.3-0.8-0.3 -0.3 0-0.6 0.1-0.8 0.3l-8.4 8.4c-0.2 0.2-0.3 0.5-0.3 0.8 0 0.3 0.1 0.6 0.3 0.8 -0.7-0.7-1.3-1.4-2.4-1.4 -0.6 0-1.2 0.2-1.6 0.7 -0.9 0.8-2 1.7-2 3 0 0.6 0.2 1.2 0.7 1.6l9.9 9.9c0.4 0.4 1 0.7 1.7 0.7 1.3 0 2.2-1.2 3-2 0.4-0.5 0.7-1 0.7-1.6 0-1.1-0.7-1.6-1.4-2.4 0.2 0.2 0.5 0.3 0.8 0.3 0.3 0 0.6-0.1 0.8-0.3l3.1-3.1 6.2 6.2c-0.7 0.7-1 1.4-1 2.3 0 0.8 0.3 1.6 0.9 2.2l8.8 8.8c0.6 0.6 1.4 0.9 2.2 0.9s1.6-0.3 2.2-0.9l2.6-2.6c0.6-0.6 0.9-1.4 0.9-2.2S51.7 46.7 51.1 46.1z"/></svg>