<svg xmlns="http://www.w3.org/2000/svg" version="1.1" x="0px" y="0px" viewBox="0 0 64 64" enable-background="new 0 0 64 64" xml:space="preserve"><path d="M37.4 31.4l4.5-1.1c0.1-0.8 0.2-1.5 0.2-2.2 0-0.7-0.1-1.4-0.2-2.2l-4.5-1.1c-0.3-1.1-0.7-2.1-1.3-3.1l2.4-4c-0.9-1.2-1.9-2.2-3.1-3.1l-4 2.4c-1-0.6-2-1-3.1-1.3l-1.1-4.5c-0.8-0.1-1.5-0.2-2.2-0.2 -0.7 0-1.4 0.1-2.2 0.2l-1.1 4.5c-1.1 0.3-2.1 0.7-3.1 1.3l-4-2.4c-1.2 0.9-2.2 1.9-3.1 3.1l2.4 4c-0.6 1-1 2-1.3 3.1l-4.5 1.1C8.1 26.6 8 27.4 8 28.1c0 0.7 0.1 1.4 0.2 2.2l4.5 1.1c0.3 1.1 0.7 2.1 1.3 3.1l-2.4 4c0.9 1.2 1.9 2.2 3.1 3.1l4-2.4c1 0.6 2 1 3.1 1.3l1.1 4.5c0.8 0.1 1.5 0.2 2.2 0.2 0.7 0 1.4-0.1 2.2-0.2l1.1-4.5c1.1-0.3 2.1-0.7 3.1-1.3l4 2.4c1.2-0.9 2.2-1.9 3.1-3.1l-2.4-4C36.7 33.5 37.1 32.5 37.4 31.4zM25 34c-3.3 0-5.9-2.7-5.9-5.9s2.7-5.9 5.9-5.9c3.3 0 5.9 2.7 5.9 5.9S28.3 34 25 34zM53.8 42.5L53.8 42.5l2.2-0.6c0-0.4 0.1-0.7 0.1-1.1 0-0.3 0-0.6-0.1-1l-2.2-0.5 0-0.1c-0.2-0.5-0.3-0.9-0.6-1.3l0-0.1 1.1-1.9c-0.4-0.6-0.9-1-1.5-1.5l-1.9 1.2 -0.1 0c-0.4-0.2-0.9-0.4-1.3-0.6l-0.1 0 -0.5-2.2c-0.4 0-0.7-0.1-1.1-0.1 -0.3 0-0.6 0-1.1 0.1l-0.5 2.2 -0.1 0c-0.5 0.1-0.9 0.3-1.3 0.6l-0.1 0 -1.9-1.2c-0.6 0.4-1.1 0.9-1.5 1.5l1.1 1.9 0 0.1c-0.2 0.4-0.4 0.9-0.5 1.3l0 0.1 -2.1 0.5c-0.1 0.5-0.1 0.8-0.1 1 0 0.3 0 0.7 0.1 1.1l2.1 0.5 0 0.1c0.1 0.5 0.3 0.9 0.5 1.3l0 0.1 -1.1 1.9c0.4 0.6 0.9 1.1 1.5 1.5l1.9-1.1 0.1 0c0.4 0.2 0.9 0.4 1.3 0.6l0.1 0 0.5 2.1c0.4 0 0.7 0.1 1.1 0.1 0.3 0 0.6 0 1.1-0.1l0.5-2.1 0.1 0c0.5-0.1 0.9-0.3 1.3-0.6l0.1 0 1.9 1.2c0.5-0.4 1-0.9 1.5-1.5l-1.1-1.9 0-0.1C53.4 43.4 53.6 42.9 53.8 42.5zM47.8 43.8c-1.7 0-3.1-1.4-3.1-3.1 0-1.7 1.4-3.1 3.1-3.1s3.1 1.4 3.1 3.1C50.9 42.5 49.5 43.8 47.8 43.8z"/></svg>