<svg xmlns="http://www.w3.org/2000/svg" version="1.1" x="0px" y="0px" viewBox="0 0 64 64" enable-background="new 0 0 64 64" xml:space="preserve"><polygon points="56.7 28.4 56.7 23.3 51.6 23.3 51.6 28.4 46.4 28.4 46.4 33.6 51.6 33.6 51.6 38.7 56.7 38.7 56.7 33.6 61.9 33.6 61.9 28.4 "/><path d="M23.3 28.4v6.2h10.2c-0.4 2.6-3.1 7.8-10.2 7.8 -6.1 0-11.2-5.1-11.2-11.4s5-11.4 11.2-11.4c3.5 0 5.8 1.5 7.2 2.8l4.9-4.7c-3.1-2.9-7.2-4.7-12.1-4.7 -9.9 0-18 8.1-18 18s8.1 18 18 18c10.4 0 17.3-7.3 17.3-17.6 0-1.2-0.1-2.1-0.3-3H23.3z"/></svg>