<svg xmlns="http://www.w3.org/2000/svg" version="1.1" x="0px" y="0px" viewBox="0 0 64 64" enable-background="new 0 0 64 64" xml:space="preserve"><path d="M46.9,30.1c-0.5-0.5-1.1-0.8-1.8-0.7l-8.3,0.5l4.6-5.2C42,24,42.2,23,42,22.1c-0.1-0.6-0.5-1.2-1.1-1.5 c0,0-10.9-6.3-10.9-6.3c-0.9-0.5-2-0.4-2.8,0.3l-5.3,4.7c-1,0.9-1.1,2.4-0.2,3.4c0.9,1,2.4,1.1,3.4,0.2l4-3.6l3.3,1.9l-5.9,6.7 c-2.4,0.4-4.6,1.5-6.4,3.1l3.1,3.1c1.4-1.3,3.2-2,5.3-2c4.3,0,7.8,3.5,7.8,7.8c0,2-0.8,3.9-2,5.3l3.1,3.1c2-2.2,3.3-5.1,3.3-8.3 c0-1.9-0.4-3.7-1.2-5.3l3.2-0.2l-0.8,9.6c-0.1,1.3,0.9,2.5,2.2,2.6c0.1,0,0.1,0,0.2,0c1.2,0,2.3-0.9,2.4-2.2l1-12.3 C47.7,31.3,47.4,30.6,46.9,30.1z"/><path d="M42.5,20c2.2,0,4-1.8,4-4c0-2.2-1.8-4-4-4c-2.2,0-4,1.8-4,4C38.6,18.2,40.3,20,42.5,20z"/><path d="M28.5,47.7c-4.3,0-7.8-3.5-7.8-7.8c0-1.6,0.5-3.1,1.3-4.4L19,32.4c-1.6,2.1-2.6,4.7-2.6,7.5c0,6.7,5.4,12.2,12.2,12.2 c2.8,0,5.4-1,7.5-2.6l-3.1-3.1C31.7,47.2,30.2,47.7,28.5,47.7z"/></svg>