<svg xmlns="http://www.w3.org/2000/svg" version="1.1" x="0px" y="0px" viewBox="0 0 64 64" enable-background="new 0 0 64 64" xml:space="preserve"><path d="M24.8 20.1h14.4c1 0 1.8-0.7 1.8-1.7v-1.7c0-0.9-0.8-1.7-1.8-1.7h-3.6v-1.5c0-0.9-0.8-1.8-1.8-1.8h-3.6c-1 0-1.8 0.9-1.8 1.8v1.5h-3.6c-1 0-1.8 0.7-1.8 1.7v1.7C23 19.3 23.8 20.1 24.8 20.1zM28 34.9h-3.3v-3.3c0-0.3-0.2-0.5-0.4-0.5h-1.6c-0.2 0-0.4 0.2-0.4 0.5v3.3h-3.3c-0.3 0-0.5 0.2-0.5 0.4v1.6c0 0.2 0.2 0.4 0.5 0.4h3.3v3.3c0 0.3 0.2 0.5 0.4 0.5h1.6c0.2 0 0.4-0.2 0.4-0.5v-3.3H28c0.3 0 0.5-0.2 0.5-0.4v-1.6C28.4 35.1 28.2 34.9 28 34.9zM50.1 17.1h-6.5v2.4c0 2.1-1.6 2.4-3.9 2.4H24.2c-2.4 0-3.9-0.3-3.9-2.4v-2.4h-6.5c-2 0-3.9 1.7-3.9 3.6v26.1c0 1.9 1.9 3.6 3.9 3.6h36.2c2 0 3.9-1.7 3.9-3.6V20.6C54 18.8 52.1 17.1 50.1 17.1zM35.9 27.8h5.2v2.4h-5.2V27.8zM31.7 42.7c0 0.9-0.8 1.6-1.8 1.6H17c-1 0-1.8-0.7-1.8-1.6V29.5c0-0.9 0.8-1.7 1.8-1.7h12.8c1 0 1.8 0.7 1.8 1.7V42.7zM42.4 44.4h-6.5v-1.2h6.5V44.4zM47.5 40.8H35.9v-1.2h11.6V40.8zM50.1 37.3H35.9v-1.2h14.2V37.3zM50.1 33.7H35.9v-1.2h14.2V33.7zM50.1 30.1h-6.5v-2.4h6.5V30.1z"/></svg>