<svg xmlns="http://www.w3.org/2000/svg" version="1.1" x="0px" y="0px" viewBox="0 0 64 64" enable-background="new 0 0 64 64" xml:space="preserve"><path d="M47.7 22c-3 0-5.5 2.5-5.5 5.5 0 2.4 1.5 4.4 3.7 5.2V44c0 4-4.1 7.3-9.2 7.3 -5 0-9.2-3.3-9.2-7.3v-3.8c6.2-0.8 11-5.4 11-10.9V14.7c0-1-0.8-1.8-1.8-1.8 -0.2 0-0.3 0-0.5 0.1C35.6 11.8 34.4 11 33 11c-2 0-3.7 1.6-3.7 3.7 0 2 1.6 3.7 3.7 3.7 0.7 0 1.3-0.2 1.8-0.5v11.5c0 4-4.1 7.3-9.2 7.3 -5 0-9.2-3.3-9.2-7.3V17.8c0.5 0.3 1.2 0.5 1.8 0.5 2 0 3.7-1.6 3.7-3.7 0-2-1.6-3.7-3.7-3.7 -1.4 0-2.6 0.8-3.2 1.9 -0.1 0-0.3-0.1-0.5-0.1 -1 0-1.8 0.8-1.8 1.8v14.7c0 5.5 4.8 10.1 11 10.9V44c0 6.1 5.8 11 12.8 11s12.8-4.9 12.8-11V32.7c2.1-0.8 3.7-2.8 3.7-5.2C53.2 24.5 50.7 22 47.7 22z"/></svg>