<svg xmlns="http://www.w3.org/2000/svg" version="1.1" x="0px" y="0px" viewBox="0 0 64 64" enable-background="new 0 0 64 64" xml:space="preserve"><path d="M40.8 35.5l-1.5-3 -3.9 13c-0.1 0.4-0.3 0.7-0.6 0.9 -0.3 0.2-0.6 0.3-1 0.3 -0.4 0-0.7-0.1-1-0.3 -0.3-0.2-0.5-0.5-0.6-0.9L27 27.6l-1.9 7.5c-0.1 0.4-0.3 0.7-0.6 0.9 -0.3 0.2-0.7 0.4-1.1 0.4h-9.9c0.3 0.3 0.5 0.5 0.6 0.5l16.7 16.1c0.3 0.3 0.7 0.5 1.2 0.5s0.9-0.2 1.2-0.5L49.9 37l0.1-0.1c0.1-0.1 0.2-0.1 0.2-0.2 0.1-0.1 0.2-0.2 0.3-0.3h-8.2C41.6 36.4 41.1 36.1 40.8 35.5zM52.6 15.7c-2.3-2.2-5.4-3.3-9.4-3.3 -1.1 0-2.2 0.2-3.4 0.6 -1.2 0.4-2.2 0.9-3.2 1.6 -1 0.7-1.8 1.3-2.6 1.8 -0.7 0.6-1.4 1.2-2 1.8 -0.6-0.6-1.3-1.3-2-1.8 -0.7-0.6-1.6-1.2-2.6-1.8 -1-0.7-2.1-1.2-3.2-1.6 -1.2-0.4-2.3-0.6-3.4-0.6 -4 0-7.1 1.1-9.4 3.3C9.1 18 8 21 8 25c0 2.6 0.9 5.3 2.8 8h11.3l3.1-12.4c0.1-0.4 0.3-0.7 0.6-0.9 0.3-0.2 0.7-0.4 1-0.4 0.4 0 0.7 0.1 1.1 0.3 0.3 0.2 0.5 0.5 0.6 0.9l5.2 18.4 3.5-11.5c0.2-0.7 0.7-1.1 1.5-1.2 0.3 0 0.7 0 1 0.2 0.3 0.2 0.5 0.4 0.7 0.7l3 5.9h9.9c1.8-2.8 2.8-5.4 2.8-8C56 21 54.9 18 52.6 15.7z"/></svg>