<svg xmlns="http://www.w3.org/2000/svg" version="1.1" x="0px" y="0px" viewBox="0 0 64 64" enable-background="new 0 0 64 64" xml:space="preserve"><path d="M44.9 13H19.1c-0.6 0-1.2 0.7-1.2 1.2v7.1c0 0.6 0.7 1.2 1.2 1.2h1.2v29.4c0 0.6 0.6 1.2 1.2 1.2h21.2c0.6 0 1.2-0.5 1.2-1V22.4h1.2c0.6 0 1.2-0.7 1.2-1.2v-7.1C46.1 13.6 45.5 13 44.9 13zM41.4 45.9H22.6V23.6h18.8V45.9z"/><rect x="24.9" y="25.9" width="14.1" height="4.7"/><rect x="24.9" y="36.5" width="14.1" height="2.4"/><rect x="24.9" y="33" width="14.1" height="1.2"/><rect x="24.9" y="41.2" width="4.7" height="2.4"/><rect x="34.3" y="41.2" width="4.7" height="2.4"/></svg>