<svg xmlns="http://www.w3.org/2000/svg" version="1.1" x="0px" y="0px" viewBox="0 0 64 64" enable-background="new 0 0 64 64" xml:space="preserve"><path d="M32 10c-12.1 0-22 9.9-22 22 0 12.1 9.9 22 22 22 12.1 0 22-9.9 22-22C54 19.9 44.1 10 32 10zM35.7 45.7c0 0.5-0.4 0.9-0.9 0.9h-5.5c-0.5 0-0.9-0.4-0.9-0.9v-5.5c0-0.5 0.4-0.9 0.9-0.9h5.5c0.5 0 0.9 0.4 0.9 0.9V45.7zM37.8 33.7c-1.3 0.8-2.2 2.2-2.2 2.8 0 0.5-0.4 0.9-0.9 0.9h-5.5c-0.5 0-0.9-0.4-0.9-0.9v-1c0-2.8 2.8-5.2 4.8-6.1 1.7-0.8 2.5-1.5 2.5-3 0-1.3-1.7-2.4-3.5-2.4 -1 0-2 0.3-2.5 0.7 -0.5 0.4-1.1 0.9-2.5 2.6 -0.2 0.2-0.5 0.3-0.7 0.3 -0.2 0-0.4-0.1-0.5-0.2l-3.8-2.9c-0.4-0.3-0.5-0.8-0.2-1.2 2.5-4.1 6-6.1 10.6-6.1 4.9 0 10.4 3.9 10.4 9.2C43 30.9 40 32.5 37.8 33.7z"/></svg>