<svg xmlns="http://www.w3.org/2000/svg" version="1.1" x="0px" y="0px" viewBox="0 0 64 64" enable-background="new 0 0 64 64" xml:space="preserve"><path d="M34 35.6c-0.3 0.1-0.7 0.2-1 0.2 -0.4 0-0.7-0.1-1-0.2l-12.5-3.9 -0.4 6.9c-0.1 1 0.5 1.9 1.8 2.8 1.2 0.9 2.9 1.5 5.1 2 2.2 0.5 4.5 0.7 7 0.7 2.5 0 4.9-0.2 7-0.7 2.2-0.5 3.9-1.2 5.1-2 1.2-0.9 1.8-1.8 1.8-2.8l-0.4-6.9L34 35.6zM57.5 24l-24.3-7.6c-0.1 0-0.1 0-0.2 0 -0.1 0-0.2 0-0.2 0L8.5 24C8.2 24.1 8 24.3 8 24.7c0 0.3 0.2 0.6 0.5 0.7l7.2 2.3c-1.3 1.8-2 4.2-2.1 7.2 -0.9 0.5-1.4 1.4-1.4 2.4 0 1 0.4 1.8 1.3 2.3l-1.3 9.4c0 0.2 0 0.4 0.2 0.5 0.1 0.2 0.3 0.2 0.5 0.2H17c0.2 0 0.4-0.1 0.5-0.2 0.1-0.2 0.2-0.3 0.2-0.5l-1.3-9.4c0.8-0.5 1.3-1.3 1.3-2.3 0-1.1-0.5-1.8-1.4-2.4 0.1-1.5 0.3-2.8 0.7-3.9 0.4-1.1 0.9-1.9 1.5-2.4L32.8 33c0.1 0 0.1 0 0.2 0 0.1 0 0.2 0 0.2 0l24.3-7.6c0.3-0.1 0.5-0.3 0.5-0.7C58 24.3 57.8 24.1 57.5 24z"/></svg>