<svg xmlns="http://www.w3.org/2000/svg" version="1.1" x="0px" y="0px" viewBox="0 0 64 64" xml:space="preserve"><path d="M20.6,20.9c0.1,0.1,0.2,0.1,0.3,0.2c0.1,0,0.3,0,0.4-0.1l10.3-8.6L41.8,21c0.1,0.1,0.2,0.1,0.3,0.1c0,0,0,0,0,0 c0.1,0,0.2-0.1,0.3-0.2l0.9-1.1c0.2-0.2,0.1-0.5-0.1-0.7l-10.7-8.9c-0.6-0.5-1.6-0.5-2.3,0l-10.7,8.9c-0.2,0.2-0.2,0.5-0.1,0.7 L20.6,20.9z"/> <path d="M55.4,29.9h-8.6v-6.4c0,0,0,0,0.1,0c0.1,0,1.2-0.6,2.1-0.6c1,0,1.4,0.5,2.2,0.5c0.7,0,1.5-0.2,2.4-0.7 c0.1-0.1,0.2-0.1,0.3-0.2c0.1-0.1,0.1-0.1,0.1-0.2v-4.8c0-0.1,0-0.2-0.1-0.3C53.6,17,53.5,17,53.4,17c-0.1,0-0.2,0-0.3,0.1 c-0.2,0.1-0.4,0.2-0.6,0.3c-0.2,0.1-0.9,0.4-1.5,0.4c-0.8,0-1.1-0.6-2.2-0.6c-0.8,0-1.6,0.5-2,0.7v-1.5c0-0.1,0-0.1-0.1-0.1 c-0.1,0-0.1-0.1-0.2-0.1h-0.6c-0.1,0-0.2,0-0.2,0.1c-0.1,0-0.1,0.1-0.1,0.1v13.4h-5.4v-7.5c0,0,0-0.1,0-0.1l-8.5-7l-8.5,7 c0,0,0,0.1,0,0.1v7.5H8.5c-0.5,0-1,0.4-1,1v18.3c0,0.5,0.4,1,1,1h46.9c0.5,0,1.1-0.4,1.1-1V30.9C56.5,30.3,55.9,29.9,55.4,29.9z M36.6,34.9v1.7c0,0.5-0.4,0.8-0.8,0.8h-1.7c-0.5,0-0.8-0.4-0.8-0.8v-1.7c0-0.5,0.4-0.8,0.8-0.8h1.7C36.2,34,36.6,34.4,36.6,34.9z M31.3,21.2c2,0,3.6,1.6,3.6,3.6s-1.6,3.6-3.6,3.6c-2,0-3.6-1.6-3.6-3.6S29.3,21.2,31.3,21.2z M26.6,34.9c0-0.5,0.4-0.8,0.8-0.8 h1.7c0.5,0,0.8,0.4,0.8,0.8v1.7c0,0.5-0.4,0.8-0.8,0.8h-1.7c-0.5,0-0.8-0.4-0.8-0.8V34.9z M16.9,43.3c0,0.5-0.4,0.8-0.8,0.8h-1.7 c-0.5,0-0.8-0.4-0.8-0.8v-1.7c0-0.5,0.4-0.8,0.8-0.8H16c0.5,0,0.8,0.4,0.8,0.8V43.3z M16.9,36.6c0,0.5-0.4,0.8-0.8,0.8h-1.7 c-0.5,0-0.8-0.4-0.8-0.8v-1.7c0-0.5,0.4-0.8,0.8-0.8H16c0.5,0,0.8,0.4,0.8,0.8V36.6z M23.4,43.3c0,0.5-0.4,0.8-0.8,0.8h-1.7 c-0.5,0-0.8-0.4-0.8-0.8v-1.7c0-0.5,0.4-0.8,0.8-0.8h1.7c0.5,0,0.8,0.4,0.8,0.8V43.3z M23.4,36.6c0,0.5-0.4,0.8-0.8,0.8h-1.7 c-0.5,0-0.8-0.4-0.8-0.8v-1.7c0-0.5,0.4-0.8,0.8-0.8h1.7c0.5,0,0.8,0.4,0.8,0.8V36.6z M36.7,45.8c0,0.5-0.4,0.8-0.8,0.8h-8.4 c-0.5,0-0.8-0.4-0.8-0.8v-5.1c0-0.5,0.4-0.8,0.8-0.8h8.4c0.5,0,0.8,0.4,0.8,0.8V45.8z M43.2,43.3c0,0.5-0.4,0.8-0.8,0.8h-1.7 c-0.5,0-0.8-0.4-0.8-0.8v-1.7c0-0.5,0.4-0.8,0.8-0.8h1.7c0.5,0,0.8,0.4,0.8,0.8V43.3z M43.2,36.6c0,0.5-0.4,0.8-0.8,0.8h-1.7 c-0.5,0-0.8-0.4-0.8-0.8v-1.7c0-0.5,0.4-0.8,0.8-0.8h1.7c0.5,0,0.8,0.4,0.8,0.8V36.6z M50,43.3c0,0.5-0.4,0.8-0.8,0.8h-1.7 c-0.5,0-0.8-0.4-0.8-0.8v-1.7c0-0.5,0.4-0.8,0.8-0.8h1.7c0.5,0,0.8,0.4,0.8,0.8V43.3z M50,36.6c0,0.5-0.4,0.8-0.8,0.8h-1.7 c-0.5,0-0.8-0.4-0.8-0.8v-1.7c0-0.5,0.4-0.8,0.8-0.8h1.7c0.5,0,0.8,0.4,0.8,0.8V36.6z"/> <path d="M29.7,26.1h2.2c0.1,0,0.2-0.1,0.2-0.2v-3.1c0-0.1-0.1-0.2-0.2-0.2h-0.4c-0.1,0-0.2,0.1-0.2,0.2v2.5h-1.6 c-0.1,0-0.2,0.1-0.2,0.2v0.4C29.5,26,29.6,26.1,29.7,26.1z"/></svg>
