<svg xmlns="http://www.w3.org/2000/svg" version="1.1" x="0px" y="0px" viewBox="0 0 64 64" enable-background="new 0 0 64 64" xml:space="preserve"><path d="M52.7 28.6L47 23.8V13.2c0-0.5-0.4-0.8-0.8-0.8h-5c-0.5 0-0.8 0.4-0.8 0.8v5.1L34 13c-1.1-0.9-2.9-0.9-4 0L11.3 28.6c-0.3 0.3-0.4 0.8-0.1 1.2l1.6 1.9c0.1 0.2 0.3 0.3 0.5 0.3 0.2 0 0.4-0.1 0.6-0.2l18-15 18 15c0.2 0.1 0.3 0.2 0.5 0.2 0 0 0 0 0.1 0 0.2 0 0.4-0.1 0.5-0.3l1.6-1.9C53.1 29.4 53 28.9 52.7 28.6zM32 20L17 32.4c0 0.1 0 0.1 0 0.2V48c0 0.9 0.8 1.7 1.7 1.7h8.3V36.9c0-0.5 0.4-0.8 0.8-0.8h8.4c0.5 0 0.8 0.4 0.8 0.8v12.8h8.3c0.9 0 1.7-0.8 1.7-1.7V32.5c0-0.1 0-0.1 0-0.2L32 20z"/></svg>