<svg xmlns="http://www.w3.org/2000/svg" version="1.1" x="0px" y="0px" viewBox="0 0 64 64" enable-background="new 0 0 64 64" xml:space="preserve"><path d="M52.7 23.7c-0.5-0.9-1.3-1.3-2.2-1.3 -0.6 0-1.2 0-1.8 0 -0.9 0-1.5 0.6-1.5 1.5 0 0.7 0 1.3 0 2 0 0.6-0.4 1.1-1 1.1 -0.6 0-0.9-0.5-1-1.1 0-0.5 0-1.1-0.2-1.5 -0.4-1.1-1.5-1.9-2.7-1.9 -0.5 0-1.1 0-1.6 0 -0.2-0.5-0.3-1-0.5-1.6 -0.3-0.9-1-1.5-2-1.5 -0.6 0-1.2 0-1.8 0 0 0-0.1 0-0.1 0 0-0.5 0-1.1 0-1.7 0.6 0 1.3 0 1.9 0 1-0.1 1.7-0.8 1.8-1.8 0.1-1-0.4-1.9-1.3-2.2 -0.2-0.1-0.3-0.1-0.5-0.2 -5.1 0-10.2 0-15.3 0 -0.2 0.1-0.3 0.1-0.5 0.2 -0.9 0.3-1.4 1.3-1.3 2.1 0.1 1 0.9 1.8 1.8 1.8 0.6 0 1.2 0 1.9 0 0 0.6 0 1 0 1.5 0 0.1-0.2 0.2-0.3 0.2 -0.5 0-1.1 0-1.6 0 -1 0-1.7 0.6-2 1.5 0 0.1-0.1 0.2-0.1 0.3 -0.1 0.4-0.1 1-0.4 1.2 -0.3 0.2-0.8 0.1-1.2 0.1 -0.5 0-1 0-1.5 0 -1.5 0-2.8 1.1-2.9 2.6 -0.1 1.1 0 2.2 0 3.4 0 0.2 0 0.4 0 0.7 -0.7 0-1.3 0-1.9 0 0-0.2 0-0.4 0-0.5 0-2.2 0-4.4 0-6.6 0-0.4 0.1-0.9-0.4-1.1 -0.4-0.3-0.8 0-1.2 0.3 -0.1 0.1-0.3 0.2-0.4 0.3 -1 0.5-1.7 1.2-2 2.3 0 1.4 0 2.9 0 4.3 0.2 0.8 0.6 1.4 1.2 2 0.5 0.5 0.7 1.1 0.7 1.8 0 0.9 0 1.8-0.4 2.6 -0.2 0.4-0.3 1-0.3 1.4 0 1.4 0 2.8 0 4.3 0 1.2 0.6 2 1.6 2.6 0.5 0.3 0.9 0.1 1-0.5 0-0.2 0-0.4 0-0.6 0-2.4 0-4.7 0-7.1 0-0.1 0-0.3 0-0.4 0.6 0 1.3 0 1.9 0 0 0.1 0 0.3 0 0.4 0 1.1 0 2.2 0 3.3 0 1.8 1.3 3 3 3 1 0 2 0 2.9 0.4 1.3 0.5 2.4 1.2 3.2 2.3 1 1.4 2.2 2.4 3.9 2.9 0.4 0.1 0.9 0.2 1.3 0.3 4.5 0 8.9 0 13.4 0 0.2-0.1 0.4-0.1 0.5-0.2 1.2-0.4 2-1.5 2.1-2.8 0-0.9 0-1.8 0-2.7 0-0.7 0.4-1.1 1-1.1 0.6 0 1 0.4 1 1.1 0 0.7 0 1.3 0 2 0 0.8 0.6 1.5 1.4 1.5 0.7 0 1.3 0 2 0 0.9-0.1 1.7-0.5 2.1-1.4 0.5-0.9 1.1-1.9 1.6-2.8 0.3-0.7 0.5-1.4 0.7-2.1 0-3.1 0-6.2 0-9.3C54.7 26.9 53.6 25.4 52.7 23.7zM27.7 40.4C27.7 40.4 27.6 40.3 27.7 40.4c0.9-2.3 1.9-4.6 2.9-7 -2.4 0.1-4.8 0.1-7.3 0.2 3.5-3.7 7-7.3 10.5-10.9 0 0 0.1 0 0.1 0 -1 2.3-2 4.5-3 6.9 2.4-0.1 4.7-0.1 7.2-0.2C34.6 33.1 31.1 36.8 27.7 40.4z"/></svg>