<svg xmlns="http://www.w3.org/2000/svg" version="1.1" x="0px" y="0px" viewBox="0 0 64 64" enable-background="new 0 0 64 64" xml:space="preserve"><path d="M50.5 19.3c0-1-0.8-1.8-1.8-1.8h-8.3V7.2c0-0.9-0.8-1.7-1.7-1.7H25.3c-0.9 0-1.7 0.8-1.7 1.7v10.4h-8.3c-1 0-1.8 0.8-1.8 1.8l0 0v35.5c0 0.9 0.8 1.7 1.7 1.7h33.6c0.9 0 1.7-0.8 1.7-1.7L50.5 19.3 50.5 19.3zM23.6 45.6c0 0.5-0.4 0.8-0.8 0.8H21c-0.5 0-0.8-0.4-0.8-0.8v-1.7c0-0.5 0.4-0.8 0.8-0.8h1.7c0.5 0 0.8 0.4 0.8 0.8V45.6zM23.6 38.9c0 0.5-0.4 0.8-0.8 0.8H21c-0.5 0-0.8-0.4-0.8-0.8v-1.7c0-0.5 0.4-0.8 0.8-0.8h1.7c0.5 0 0.8 0.4 0.8 0.8V38.9zM23.6 32.2c0 0.5-0.4 0.8-0.8 0.8H21c-0.5 0-0.8-0.4-0.8-0.8v-1.7c0-0.5 0.4-0.8 0.8-0.8h1.7c0.5 0 0.8 0.4 0.8 0.8V32.2zM23.6 25.5c0 0.5-0.4 0.8-0.8 0.8H21c-0.5 0-0.8-0.4-0.8-0.8v-1.7c0-0.5 0.4-0.8 0.8-0.8h1.7c0.5 0 0.8 0.4 0.8 0.8V25.5zM27 9.7c0-0.2 0.1-0.4 0.2-0.6 0.2-0.2 0.4-0.2 0.6-0.2h1.7c0.2 0 0.4 0.1 0.6 0.2 0.2 0.2 0.2 0.4 0.2 0.6v2.5h3.4V9.7c0-0.2 0.1-0.4 0.2-0.6s0.4-0.2 0.6-0.2h1.7c0.2 0 0.4 0.1 0.6 0.2C37 9.3 37 9.5 37 9.7v8.4c0 0.2-0.1 0.4-0.2 0.6 -0.2 0.2-0.4 0.2-0.6 0.2h-1.7c-0.2 0-0.4-0.1-0.6-0.2 -0.2-0.2-0.2-0.4-0.2-0.6v-2.5h-3.4v2.5c0 0.2-0.1 0.4-0.2 0.6 -0.2 0.2-0.4 0.2-0.6 0.2h-1.7c-0.2 0-0.4-0.1-0.6-0.2C27 18.5 27 18.3 27 18.1V9.7zM26.9 23.8c0-0.5 0.4-0.8 0.8-0.8h1.7c0.5 0 0.8 0.4 0.8 0.8v1.7c0 0.5-0.4 0.8-0.8 0.8h-1.7c-0.5 0-0.8-0.4-0.8-0.8V23.8zM26.9 30.4c0-0.5 0.4-0.8 0.8-0.8h1.7c0.5 0 0.8 0.4 0.8 0.8v1.7c0 0.5-0.4 0.8-0.8 0.8h-1.7c-0.5 0-0.8-0.4-0.8-0.8V30.4zM26.9 37.2c0-0.5 0.4-0.8 0.8-0.8h1.7c0.5 0 0.8 0.4 0.8 0.8v1.7c0 0.5-0.4 0.8-0.8 0.8h-1.7c-0.5 0-0.8-0.4-0.8-0.8V37.2zM37.1 52.4c0 0.5-0.4 0.8-0.8 0.8h-8.4c-0.5 0-0.8-0.4-0.8-0.8v-5.1c0-0.5 0.4-0.8 0.8-0.8h8.4c0.5 0 0.8 0.4 0.8 0.8V52.4zM37.1 38.9c0 0.5-0.4 0.8-0.8 0.8h-1.7c-0.5 0-0.8-0.4-0.8-0.8v-1.7c0-0.5 0.4-0.8 0.8-0.8h1.7c0.5 0 0.8 0.4 0.8 0.8V38.9zM37.1 32.2c0 0.5-0.4 0.8-0.8 0.8h-1.7c-0.5 0-0.8-0.4-0.8-0.8v-1.7c0-0.5 0.4-0.8 0.8-0.8h1.7c0.5 0 0.8 0.4 0.8 0.8V32.2zM37.1 25.5c0 0.5-0.4 0.8-0.8 0.8h-1.7c-0.5 0-0.8-0.4-0.8-0.8v-1.7c0-0.5 0.4-0.8 0.8-0.8h1.7c0.5 0 0.8 0.4 0.8 0.8V25.5zM43.7 45.6c0 0.5-0.4 0.8-0.8 0.8h-1.7c-0.5 0-0.8-0.4-0.8-0.8v-1.7c0-0.5 0.4-0.8 0.8-0.8h1.7c0.5 0 0.8 0.4 0.8 0.8V45.6zM43.7 38.9c0 0.5-0.4 0.8-0.8 0.8h-1.7c-0.5 0-0.8-0.4-0.8-0.8v-1.7c0-0.5 0.4-0.8 0.8-0.8h1.7c0.5 0 0.8 0.4 0.8 0.8V38.9zM43.7 32.2c0 0.5-0.4 0.8-0.8 0.8h-1.7c-0.5 0-0.8-0.4-0.8-0.8v-1.7c0-0.5 0.4-0.8 0.8-0.8h1.7c0.5 0 0.8 0.4 0.8 0.8V32.2zM43.7 25.5c0 0.5-0.4 0.8-0.8 0.8h-1.7c-0.5 0-0.8-0.4-0.8-0.8v-1.7c0-0.5 0.4-0.8 0.8-0.8h1.7c0.5 0 0.8 0.4 0.8 0.8V25.5z"/></svg>