<svg xmlns="http://www.w3.org/2000/svg" version="1.1" x="0px" y="0px" viewBox="0 0 64 64" xml:space="preserve"><path d="M32,10c-12.1,0-22,9.9-22,22s9.9,22,22,22s22-9.9,22-22S44.1,10,32,10z M28.3,15.5c0-0.5,0.4-0.9,0.9-0.9h5.5 c0.5,0,0.9,0.4,0.9,0.9v4.6c0,0.5-0.4,0.9-0.9,0.9h-5.5c-0.5,0-0.9-0.4-0.9-0.9C28.3,20.1,28.3,15.5,28.3,15.5z M39.3,45.7 c0,0.5-0.4,0.9-0.9,0.9H25.6c-0.5,0-0.9-0.4-0.9-0.9v-4.6c0-0.5,0.4-0.9,0.9-0.9h2.7V31h-2.7c-0.5,0-0.9-0.4-0.9-0.9v-4.6 c0-0.5,0.4-0.9,0.9-0.9h9.2c0.5,0,0.9,0.4,0.9,0.9v14.7h2.7c0.5,0,0.9,0.4,0.9,0.9C39.3,41.1,39.3,45.7,39.3,45.7z"/></svg>