<svg xmlns="http://www.w3.org/2000/svg" version="1.1" x="0px" y="0px" viewBox="0 0 64 64" enable-background="new 0 0 64 64" xml:space="preserve"><path d="M32 22c-2.8 0-5.1 1-7.1 2.9C23 26.9 22 29.2 22 32c0 2.8 1 5.1 2.9 7.1C26.9 41 29.2 42 32 42s5.1-1 7.1-2.9C41 37.1 42 34.8 42 32c0-2.8-1-5.1-2.9-7.1C37.1 23 34.8 22 32 22zM36.6 36.6c-1.3 1.3-2.8 1.9-4.6 1.9 -1.8 0-3.3-0.6-4.6-1.9 -1.3-1.3-1.9-2.8-1.9-4.6 0-1.8 0.6-3.3 1.9-4.6 1.3-1.3 2.8-1.9 4.6-1.9 1.8 0 3.3 0.6 4.6 1.9 1.3 1.3 1.9 2.8 1.9 4.6C38.5 33.8 37.9 35.3 36.6 36.6zM42.4 19.3c-0.6 0-1.2 0.2-1.7 0.7 -0.5 0.5-0.7 1-0.7 1.7s0.2 1.2 0.7 1.7c0.5 0.5 1 0.7 1.7 0.7 0.6 0 1.2-0.2 1.6-0.7 0.5-0.5 0.7-1 0.7-1.7s-0.2-1.2-0.7-1.7S43.1 19.3 42.4 19.3zM51.4 24c-0.2-3.5-1.2-6.2-3.1-8.2 -1.9-1.9-4.7-3-8.2-3.1 -1.5-0.1-4.2-0.1-8-0.1s-6.6 0-8 0.1c-3.5 0.2-6.2 1.2-8.2 3.1 -1.9 1.9-3 4.7-3.1 8.2 -0.1 1.5-0.1 4.2-0.1 8 0 3.9 0 6.6 0.1 8 0.2 3.5 1.2 6.2 3.1 8.2 1.9 1.9 4.7 3 8.2 3.1 1.5 0.1 4.2 0.1 8 0.1s6.6 0 8-0.1c3.5-0.2 6.2-1.2 8.2-3.1 1.9-1.9 3-4.7 3.1-8.2 0.1-1.5 0.1-4.2 0.1-8C51.5 28.1 51.5 25.4 51.4 24zM48 33.9c0 1.2 0 2.1 0 2.7 0 0.6 0 1.4-0.1 2.5 0 1-0.1 1.9-0.3 2.6 -0.1 0.7-0.3 1.3-0.5 1.8 -0.3 0.8-0.8 1.6-1.5 2.2s-1.4 1.1-2.2 1.5c-0.5 0.2-1.1 0.3-1.8 0.5 -0.7 0.1-1.6 0.2-2.6 0.3 -1 0-1.8 0.1-2.5 0.1 -0.6 0-1.5 0-2.7 0 -1.2 0-1.8 0-1.9 0 -0.1 0-0.8 0-1.9 0 -1.2 0-2.1 0-2.7 0 -0.6 0-1.4 0-2.4-0.1 -1 0-1.9-0.1-2.6-0.3 -0.7-0.1-1.3-0.3-1.8-0.5 -0.8-0.3-1.6-0.8-2.2-1.5s-1.1-1.4-1.5-2.2c-0.2-0.5-0.3-1.1-0.5-1.8 -0.1-0.7-0.2-1.6-0.3-2.6 0-1-0.1-1.8-0.1-2.5 0-0.6 0-1.5 0-2.7 0-1.2 0-1.8 0-1.9 0-0.1 0-0.8 0-1.9 0-1.2 0-2.1 0-2.7 0-0.6 0-1.4 0.1-2.5 0-1 0.1-1.9 0.3-2.6 0.1-0.7 0.3-1.3 0.5-1.8 0.3-0.8 0.8-1.6 1.5-2.2 0.6-0.6 1.4-1.1 2.2-1.5 0.5-0.2 1.1-0.3 1.8-0.5 0.7-0.1 1.6-0.2 2.6-0.3 1 0 1.8-0.1 2.4-0.1 0.6 0 1.5 0 2.7 0 1.2 0 1.8 0 1.9 0 0.1 0 0.8 0 1.9 0 1.2 0 2.1 0 2.7 0 0.6 0 1.4 0 2.5 0.1 1 0 1.9 0.1 2.6 0.3 0.7 0.1 1.3 0.3 1.8 0.5 0.8 0.3 1.6 0.8 2.2 1.5 0.6 0.6 1.1 1.4 1.5 2.2 0.2 0.5 0.3 1.1 0.5 1.8 0.1 0.7 0.2 1.6 0.3 2.6 0 1 0.1 1.8 0.1 2.5 0 0.6 0 1.5 0 2.7 0 1.2 0 1.8 0 1.9C48 32.1 48 32.8 48 33.9z"/></svg>