<svg xmlns="http://www.w3.org/2000/svg" version="1.1" x="0px" y="0px" viewBox="0 0 64 64" xml:space="preserve"><path d="M51.76,39.44q0,.43-1.23,1.66t-1.66,1.23a1.45,1.45,0,0,1-.72-.4q-.49-.4-.92-.83t-1-1l-.62-.65-2.41,2.41,5.52,5.52a2.32,2.32,0,0,1,.7,1.71,3.42,3.42,0,0,1-3,3,2.33,2.33,0,0,1-1.71-.7L27.91,34.54a15.16,15.16,0,0,1-9.17,3.29A8.82,8.82,0,0,1,9.5,28.59a14.73,14.73,0,0,1,2.39-7.86,19.09,19.09,0,0,1,6.23-6.23A14.73,14.73,0,0,1,26,12.12a8.82,8.82,0,0,1,9.24,9.24,15.17,15.17,0,0,1-3.29,9.17l8.91,8.91L43.25,37l-.65-.62q-.58-.54-1-1t-.83-.92a1.45,1.45,0,0,1-.4-.72q0-.43,1.23-1.66t1.66-1.23a.8.8,0,0,1,.58.25L45,32.29l2.06,2q1.05,1,2.17,2.16t1.83,2Q51.76,39.24,51.76,39.44ZM29,25.18a4.85,4.85,0,0,0,0-6.83,4.85,4.85,0,0,0-6.83,0,4.65,4.65,0,0,0-1.41,3.42,4.91,4.91,0,0,0,.48,2.08,4.92,4.92,0,0,0-2.08-.48,4.83,4.83,0,0,0-3.42,8.24,4.85,4.85,0,0,0,6.83,0A4.65,4.65,0,0,0,24,28.19a4.92,4.92,0,0,0-.48-2.08,4.91,4.91,0,0,0,2.08.48A4.65,4.65,0,0,0,29,25.18Z"/></svg>