<svg xmlns="http://www.w3.org/2000/svg" version="1.1" x="0px" y="0px" viewBox="0 0 64 64" enable-background="new 0 0 64 64" xml:space="preserve"><path d="M53 44.8h-1.7V42c0-0.6-0.4-1-1-1h-1.9V24c1.1 0 2.1 0 3 0 1.7 0 2.3-2.3 0.9-3.1C47.6 18.3 38 13 33.1 10.3c-0.7-0.4-1.5-0.4-2.2 0 -4.9 2.7-14.5 8-19.1 10.6C10.3 21.7 11 24 12.6 24c0.9 0 2 0 3 0V41h-1.9c-0.6 0-1 0.4-1 1v2.8H11c-0.6 0-1 0.4-1 1V49c0 0.6 0.4 1 1 1h42c0.6 0 1-0.4 1-1v-3.2C54 45.2 53.6 44.8 53 44.8zM24.9 41h-4.2V24c1.4 0 2.8 0 4.2 0V41zM34.1 41h-4.2V24c1.4 0 2.8 0 4.2 0V41zM43.3 41h-4.2V24c1.4 0 2.9 0 4.2 0V41z"/></svg>