<svg xmlns="http://www.w3.org/2000/svg" version="1.1" x="0px" y="0px" viewBox="0 0 64 64" enable-background="new 0 0 64 64" xml:space="preserve"><path d="M24.9 46.2c-1 1-2.6 1-3.6 0l-3.6-3.6c-1-1-1-2.6 0-3.6l10.7-10.7c1-1 2.6-1 3.6 0l3.6 3.6 3.6-3.6 -3.6-3.6c-2.9-2.9-7.7-2.9-10.7 0L14.2 35.6c-2.9 2.9-2.9 7.7 0 10.7l3.6 3.6c2.9 2.9 7.7 2.9 10.7 0l6-6c-2 0.1-4-0.3-5.8-1.4L24.9 46.2zM49.8 17.8l-3.6-3.6c-2.9-2.9-7.7-2.9-10.7 0l-6 6c2-0.1 4 0.3 5.8 1.4l3.8-3.8c1-1 2.6-1 3.6 0l3.6 3.6c1 1 1 2.6 0 3.6L35.6 35.6c-1 1-2.6 1-3.6 0L28.4 32l-3.6 3.6 3.6 3.6c2.9 2.9 7.7 2.9 10.7 0l10.7-10.7C52.7 25.5 52.7 20.7 49.8 17.8z"/></svg>