<svg xmlns="http://www.w3.org/2000/svg" version="1.1" x="0px" y="0px" viewBox="0 0 64 64" enable-background="new 0 0 64 64" xml:space="preserve"><path d="M27 47h-8.3c-2.5 0-4.6-2.1-4.6-4.7V21.7c0-2.6 2.1-4.7 4.6-4.7h9.2c1.3 0 0.9-2 0.9-2.8 0-0.5-0.4-0.9-0.9-0.9h-9.2c-4.6 0-8.3 3.8-8.3 8.4v20.6c0 4.7 3.7 8.4 8.3 8.4h9.2c1.3 0 0.9-2 0.9-2.8C28.9 46.9 27.7 47 27 47zM55 30.7L39.3 14.7c-0.3-0.4-0.8-0.6-1.3-0.6 -1 0-1.8 0.8-1.8 1.9v8.4H23.4c-1 0-1.8 0.8-1.8 1.9v11.2c0 1 0.8 1.9 1.8 1.9h12.9v8.4c0 1 0.8 1.9 1.8 1.9 0.5 0 0.9-0.2 1.3-0.6L55 33.3c0.3-0.4 0.5-0.8 0.5-1.3C55.5 31.5 55.3 31 55 30.7z"/></svg>