<svg xmlns="http://www.w3.org/2000/svg" version="1.1" x="0px" y="0px" viewBox="0 0 64 64" xml:space="preserve"><path d="M32,11c-12.1,0-22,9.9-22,22s9.9,22,22,22s22-9.9,22-22S44.2,11,32,11z M44,45.6c0-1.8-0.5-5.6-0.7-6.4 c-0.3-0.9-0.7-1.8-1.1-2.5c-0.4-0.7-1-1.2-1.7-1.7c-0.7-0.4-1.6-0.7-2.5-0.7c0,0,0,0,0,0c0,0,0,0,0,0c-1.7,1.6-3.6,2.4-5.9,2.4 c-2.3,0-4.3-0.8-5.9-2.4c0,0,0,0,0,0c0,0,0,0,0,0c-0.9,0-1.8,0.2-2.5,0.7c-0.7,0.4-1.3,1-1.7,1.7c-0.4,0.7-0.8,1.5-1.1,2.5 c-0.3,0.9-0.7,4.6-0.7,6.4c-3.3-3.2-5.5-7.7-5.5-12.6c0-9.6,7.9-17.5,17.5-17.5c9.7,0,17.5,7.9,17.5,17.5C49.5,38,47.4,42.5,44,45.6 z"/><circle cx="32" cy="28.4" r="7.2"/></svg>