<svg xmlns="http://www.w3.org/2000/svg" version="1.1" x="0px" y="0px" viewBox="0 0 64 64" enable-background="new 0 0 64 64" xml:space="preserve"><path d="M39.3 36.5c-2.1 1.5-4.6 3.4-7.3 3.4h0 0c-2.7 0-5.2-1.9-7.3-3.4 -4-2.9-8.1-5.7-12.2-8.5 -0.9-0.6-1.7-1.3-2.5-2.1v19.5c0 2.2 1.8 3.9 3.9 3.9h36.1c2.2 0 3.9-1.8 3.9-3.9V25.9c-0.7 0.8-1.6 1.5-2.5 2.1C47.4 30.8 43.3 33.6 39.3 36.5zM14.2 25.4c3.8 2.7 7.7 5.3 11.5 8 1.6 1.1 4.3 3.4 6.3 3.4h0 0c2 0 4.7-2.3 6.3-3.4 3.8-2.7 7.7-5.3 11.5-8 2.2-1.5 4.2-4 4.2-6.7 0-2.2-1.8-3.9-3.9-3.9H13.9c-2.6 0-3.9 2.1-3.9 4.5C10 21.4 12.5 24.2 14.2 25.4z"/></svg>