<svg xmlns="http://www.w3.org/2000/svg" version="1.1" x="0px" y="0px" viewBox="0 0 64 64" enable-background="new 0 0 64 64" xml:space="preserve"><path d="M20.8 12c-0.1 0-0.2 0-0.3 0.1l-9.7 5.7c-0.3 0.1-0.4 0.3-0.4 0.6v32.9c0 0.2 0.1 0.4 0.2 0.5S11 52 11.2 52c0.1 0 0.2 0 0.3-0.1l9.7-5.7c0.3-0.1 0.4-0.3 0.4-0.6V12.7c0-0.2-0.1-0.4-0.2-0.5C21.2 12.1 21 12 20.8 12zM36.2 17.8l-9.7-5.7C26.4 12 26.3 12 26.2 12c-0.2 0-0.4 0.1-0.5 0.2 -0.1 0.1-0.2 0.3-0.2 0.5v32.9c0 0.3 0.1 0.5 0.4 0.6l9.7 5.7c0.1 0.1 0.2 0.1 0.3 0.1 0.2 0 0.4-0.1 0.5-0.2s0.2-0.3 0.2-0.5V18.4C36.5 18.1 36.4 17.9 36.2 17.8zM51.3 12.2C51.2 12.1 51 12 50.8 12c-0.1 0-0.2 0-0.3 0.1l-9.7 5.7c-0.3 0.1-0.4 0.3-0.4 0.6v32.9c0 0.2 0.1 0.4 0.2 0.5S41 52 41.2 52c0.1 0 0.2 0 0.3-0.1l9.7-5.7c0.3-0.1 0.4-0.3 0.4-0.6V12.7C51.5 12.5 51.5 12.4 51.3 12.2z"/></svg>