<svg xmlns="http://www.w3.org/2000/svg" version="1.1" x="0px" y="0px" viewBox="0 0 64 64" enable-background="new 0 0 64 64" xml:space="preserve"><path d="M10.5 23.1v20c0 2.9 2.4 5.4 5.4 5.4h0.8V17.7h-0.8C12.9 17.7 10.5 20.1 10.5 23.1zM48.1 17.7h-0.8v30.7h0.8c2.9 0 5.4-2.4 5.4-5.4v-20C53.5 20.1 51.1 17.7 48.1 17.7zM41.2 13.9c0-1.3-1-2.3-2.3-2.3H25.1c-1.3 0-2.3 1-2.3 2.3v3.8h-3.8v30.7h26.1V17.7h-3.8V13.9zM25.9 14.6h12.3v3.1H25.9V14.6zM41.2 35.4c0 0.4-0.3 0.8-0.8 0.8h-5.4v5.4c0 0.4-0.3 0.8-0.8 0.8h-4.6c-0.4 0-0.8-0.3-0.8-0.8v-5.4h-5.4c-0.4 0-0.8-0.3-0.8-0.8v-4.6c0-0.4 0.3-0.8 0.8-0.8h5.4v-5.4c0-0.4 0.3-0.8 0.8-0.8h4.6c0.4 0 0.8 0.3 0.8 0.8V30h5.4c0.4 0 0.8 0.3 0.8 0.8V35.4z"/></svg>