<svg xmlns="http://www.w3.org/2000/svg" version="1.1" x="0px" y="0px" viewBox="0 0 64 64" enable-background="new 0 0 64 64" xml:space="preserve"><rect x="19" y="20.8" width="3.6" height="3.6"/><rect x="19" y="28.4" width="3.6" height="3.6"/><rect x="19" y="36" width="3.6" height="3.6"/><rect x="19" y="43.6" width="3.6" height="3.6"/><rect x="26.8" y="20.8" width="18.7" height="3.6"/><rect x="26.8" y="28.4" width="18.7" height="3.6"/><rect x="26.8" y="36" width="18.7" height="3.6"/><rect x="26.8" y="43.6" width="18.7" height="3.6"/><path d="M50 9H14c-1.5 0-2.7 1.2-2.7 2.7v40.5c0 1.5 1.2 2.7 2.7 2.7h36c1.5 0 2.7-1.2 2.7-2.7V11.7C52.7 10.2 51.5 9 50 9zM49.5 51.4H14.9V16.7h34.6V51.4z"/></svg>