<svg xmlns="http://www.w3.org/2000/svg" version="1.1" x="0px" y="0px" viewBox="0 0 64 64" enable-background="new 0 0 64 64" xml:space="preserve"><path d="M51.1 17.3H6.6c-0.6 0-1.1 0.5-1.1 1.1V48c0 0.6 0.5 1.1 1.1 1.1h44.5c0.6 0 1.1-0.5 1.1-1.1V18.3C52.1 17.8 51.7 17.3 51.1 17.3zM47.9 40.6c-2.3 0-4.2 1.9-4.2 4.2H14c0-2.3-1.9-4.2-4.2-4.2h0V25.8h0c2.3 0 4.2-1.9 4.2-4.2h29.7c0 2.3 1.9 4.2 4.2 4.2V40.6z"/><circle cx="28.8" cy="33.2" r="7.9"/><path d="M57.4 10.9H12.9c-0.6 0-1.1 0.5-1.1 1.1v3.2h41.3c0.6 0 1.1 0.5 1.1 1.1v26.5h3.2c0.6 0 1.1-0.5 1.1-1.1V12C58.5 11.4 58 10.9 57.4 10.9z"/></svg>