<svg xmlns="http://www.w3.org/2000/svg" version="1.1" x="0px" y="0px" viewBox="0 0 64 64" enable-background="new 0 0 64 64" xml:space="preserve"><path d="M16.2 10.9h-2.5l-3.2 3 1.7 1.8c0.5-0.4 0.9-0.8 1.2-1.3h0v0.3c0 1.9 0 3.8 0 5.7h-2.5v2.3h7.9v-2.3h-2.6V10.9zM16.2 35.6h-3c0.1-1.8 5.2-2.6 5.2-6.1 0-2.3-1.9-3.6-4.1-3.6 -1.8 0-3.4 0.9-4.2 2.6l2 1.4c0.4-0.7 1.1-1.4 1.9-1.4 0.8 0 1.3 0.4 1.3 1.2 0 2-5.3 2.6-5.3 7 0 0.4 0.1 0.9 0.1 1.3h8.6v-3.8h-2.5V35.6zM16 45.8l2.2-2.7V41h-7.9v3.6h2.5v-1.3c0.8 0 1.5 0 2.3 0v0c-1 0.9-1.8 2.1-2.6 3.2l0.6 1.3c1-0.1 2.5 0 2.5 1.3 0 0.9-0.9 1.3-1.7 1.3 -0.9 0-1.9-0.5-2.5-1.1l-1.3 2.1c1.1 1.1 2.6 1.6 4.1 1.6 2.5 0 4.5-1.5 4.5-4.1C18.6 47.4 17.6 46.1 16 45.8zM51.2 16.8H22.5c-0.4 0-0.8 0.4-0.8 0.8v4.5c0 0.4 0.3 0.8 0.8 0.8h28.7c0.4 0 0.8-0.4 0.8-0.8v-4.5C52 17.1 51.6 16.8 51.2 16.8zM51.2 28.9H22.5c-0.4 0-0.8 0.3-0.8 0.8v4.5c0 0.4 0.3 0.8 0.8 0.8h28.7c0.4 0 0.8-0.4 0.8-0.8v-4.5C52 29.2 51.6 28.9 51.2 28.9zM51.2 41H22.5c-0.4 0-0.8 0.3-0.8 0.8v4.5c0 0.4 0.3 0.8 0.8 0.8h28.7c0.4 0 0.8-0.4 0.8-0.8v-4.5C52 41.3 51.6 41 51.2 41z"/></svg>