<svg xmlns="http://www.w3.org/2000/svg" version="1.1" x="0px" y="0px" viewBox="0 0 64 64" enable-background="new 0 0 64 64" xml:space="preserve"><path d="M38.3 25.3c4.3 0 6.9-5.4 6.9-9.1 0-3-1.5-6.5-4.9-6.5 -4.3 0-6.9 5.4-6.9 9.1C33.4 21.8 34.9 25.3 38.3 25.3zM25.7 25.3c3.4 0 4.9-3.5 4.9-6.5 0-3.7-2.6-9.1-6.9-9.1 -3.4 0-4.9 3.5-4.9 6.5C18.8 19.9 21.4 25.3 25.7 25.3zM49.7 22.5c-4.2 0-7.3 5.2-7.3 9 0 2.6 1.3 5.2 4.3 5.2 4.2 0 7.3-5.2 7.3-9C54 25.2 52.6 22.5 49.7 22.5zM21.6 31.6c0-3.8-3.1-9-7.3-9 -2.9 0-4.3 2.7-4.3 5.3 0 3.8 3.1 9 7.3 9C20.2 36.8 21.6 34.1 21.6 31.6zM32 30.8c-6.5 0-15.2 9.3-15.2 15.6 0 3 2.3 3.9 4.8 3.9 3.8 0 6.9-2.4 10.4-2.4 3.4 0 6.2 2.4 9.8 2.4 2.7 0 5.4-0.5 5.4-3.9C47.2 40.2 38.5 30.8 32 30.8z"/></svg>