<svg xmlns="http://www.w3.org/2000/svg" version="1.1" x="0px" y="0px" viewBox="0 0 64 64" xml:space="preserve"><circle cx="32" cy="13.4" r="6.4"/><path d="M49.7,34.6l-7.3-10.9c-1.4-1.9-2.9-2.9-4.8-3l0,0H26.5l0,0c-1.9,0.1-3.5,1-4.8,3l-7.3,10.9c-0.3,0.5-0.5,1-0.5,1.5 c0,0.8,0.3,1.4,0.8,1.9s1.2,0.8,1.9,0.8c1,0,1.7-0.4,2.3-1.2l6.4-9.7h1.3v3.8l-7,11.7c-0.2,0.3-0.3,0.6-0.3,0.9 c0,0.5,0.2,0.9,0.5,1.3c0.4,0.4,0.8,0.5,1.3,0.5h5.5v7.7c0,0.9,0.3,1.6,0.9,2.2c0.6,0.6,1.4,0.9,2.2,0.9h4.7c0.8,0,1.6-0.3,2.2-0.9 c0.6-0.6,0.9-1.3,0.9-2.2v-7.7H43c0.5,0,0.9-0.1,1.3-0.5c0.3-0.4,0.5-0.8,0.5-1.3c0-0.3-0.1-0.6-0.3-0.9l-7-11.7v-3.8h1.3l6.4,9.7 c0.6,0.8,1.3,1.2,2.3,1.2c0.7,0,1.4-0.3,1.9-0.8s0.8-1.1,0.8-1.9C50.2,35.6,50,35.1,49.7,34.6z"/></svg>