<svg xmlns="http://www.w3.org/2000/svg" version="1.1" x="0px" y="0px" viewBox="0 0 64 64" xml:space="preserve"><circle cx="31.9" cy="13.4" r="6.4"/><path d="M44.8,22.2c-1-1-2.2-1.5-3.6-1.6l0,0H22.7l0,0c-1.4,0.1-2.6,0.5-3.6,1.6c-1.1,1.1-1.6,2.3-1.6,3.9v11.8 c0,0.8,0.3,1.4,0.8,1.9s1.2,0.8,1.9,0.8c0.7,0,1.4-0.3,1.9-0.8s0.8-1.2,0.8-1.9v-10h1.8v25.9c0,0.9,0.3,1.6,0.9,2.2s1.5,1,2.4,1 c0.9,0,1.6-0.3,2.2-0.9c0.6-0.6,0.9-1.4,0.9-2.2V40.6h1.7v13.3c0,0.8,0.3,1.6,0.9,2.2c0.6,0.6,1.3,0.9,2.2,0.9c0.9,0,1.8-0.4,2.4-1 c0.6-0.6,0.9-1.3,0.9-2.2V27.9H41v10c0,0.7,0.3,1.4,0.8,1.9s1.2,0.8,1.9,0.8c0.7,0,1.4-0.3,1.9-0.8s0.8-1.1,0.8-1.9V26.1 C46.4,24.5,45.9,23.3,44.8,22.2z"/></svg>