<svg xmlns="http://www.w3.org/2000/svg" version="1.1" x="0px" y="0px" viewBox="0 0 64 64" xml:space="preserve"><path d="M54.4 42.8c-0.2-0.6-1.7-1.3-2.3-1.6 -1.7-1-3.5-1.9-5.2-2.9 -0.8-0.5-1.8-1.4-2.7-1.4 -1.9 0-4.6 5.5-6.2 5.5 -0.8 0-1.9-0.8-2.6-1.2 -5.6-3.1-9.4-6.9-12.5-12.5 -0.4-0.7-1.2-1.8-1.2-2.6 0-1.6 5.5-4.4 5.5-6.2 0-0.9-0.9-1.9-1.4-2.7 -1-1.7-2-3.5-2.9-5.2 -0.3-0.6-1-2.1-1.6-2.3 -0.2-0.1-0.4-0.1-0.6-0.1 -1.1 0-3.2 0.5-4.2 0.9 -1.5 0.6-2.5 2.4-3.2 3.7 -1 1.8-1.6 3.6-1.6 5.7 0 2.8 1.2 5.4 2.1 8 0.7 1.9 1.5 3.7 2.5 5.3 3.2 5.2 9.5 11.5 14.7 14.7 1.7 1 3.5 1.9 5.3 2.5 2.6 0.9 5.2 2.1 8 2.1 2 0 3.9-0.6 5.7-1.6 1.4-0.8 3.1-1.7 3.7-3.2 0.5-1 0.9-3.1 0.9-4.2C54.5 43.2 54.5 43 54.4 42.8z"/></svg>