<svg xmlns="http://www.w3.org/2000/svg" version="1.1" x="0px" y="0px" viewBox="0 0 64 64" xml:space="preserve"><path d="M49.7 27.5h-1.8v-7.1c0-1.5-0.8-3.5-1.9-4.5l-4.2-4.2c-1.1-1-3.1-1.9-4.5-1.9H18.7c-1.5 0-2.7 1.2-2.7 2.7v15h-1.8c-2.9 0-5.3 2.4-5.3 5.3v11.5c0 0.5 0.4 0.9 0.9 0.9h6.2v4.4c0 1.5 1.2 2.7 2.7 2.7h26.5c1.5 0 2.7-1.2 2.7-2.7v-4.4h6.2c0.5 0 0.9-0.4 0.9-0.9V32.8C55 29.9 52.6 27.5 49.7 27.5zM44.4 48.7H19.6v-7.1h24.8V48.7zM44.4 31H19.6V13.3h17.7v4.4c0 1.5 1.2 2.7 2.7 2.7h4.4V31zM49.7 34.5c-1 0-1.8-0.8-1.8-1.8s0.8-1.8 1.8-1.8 1.8 0.8 1.8 1.8S50.7 34.5 49.7 34.5z"/></svg>