<svg xmlns="http://www.w3.org/2000/svg" version="1.1" x="0px" y="0px" viewBox="0 0 64 64" xml:space="preserve"><path d="M22.7 23.9c1.1-1.1 2.1-2.1 3.2-2.8 1-0.7 2.4-1.5 4.1-2.5l-1.9-3.2c-1.1 0.7-2.5 1.6-4.2 2.6 -1.7 1.1-3.2 2.4-4.7 3.9 -1.4 1.5-2.7 3.2-3.7 5.2 -1 1.9-1.5 4.1-1.5 6.4 0 3.3 0.7 6 2 8 1.3 2 3.5 3 6.6 3 2 0 3.5-0.7 4.7-2 1.1-1.3 1.7-2.7 1.7-4.2 0-2.1-0.6-3.7-1.9-4.8 -1.3-1.1-3-1.6-5.3-1.6h-2.6c0.2-1.9 0.6-3.4 1.1-4.6C20.9 26.1 21.7 25 22.7 23.9zM47.1 33.5c-1.3-1.1-3-1.6-5.3-1.6h-2.6c0.2-1.9 0.6-3.4 1.1-4.6 0.5-1.2 1.3-2.3 2.4-3.4 1.1-1.1 2.1-2.1 3.2-2.8 1-0.7 2.4-1.5 4.1-2.5l-1.9-3.2c-1.1 0.7-2.5 1.6-4.2 2.6 -1.7 1.1-3.2 2.4-4.7 3.9 -1.4 1.5-2.7 3.2-3.7 5.2 -1 1.9-1.5 4.1-1.5 6.4 0 3.3 0.7 6 2 8 1.3 2 3.5 3 6.6 3 2 0 3.5-0.7 4.7-2 1.1-1.3 1.7-2.7 1.7-4.2C49 36.3 48.4 34.6 47.1 33.5z"/></svg>