<svg xmlns="http://www.w3.org/2000/svg" version="1.1" x="0px" y="0px" viewBox="0 0 64 64" xml:space="preserve"><path d="M54 31c0-2.7-2.2-4.9-4.9-4.9 -1.4 0-2.6 0.6-3.5 1.5 -3.3-2.3-7.8-3.8-12.7-3.9l2.6-11.6 8.2 1.8c0 2 1.6 3.7 3.7 3.7 2 0 3.7-1.6 3.7-3.7 0-2-1.6-3.7-3.7-3.7 -1.4 0-2.7 0.8-3.3 2l-9.1-2c-0.4-0.1-0.9 0.2-1 0.6l-2.8 12.8c-4.9 0.2-9.3 1.7-12.6 4 -0.9-1-2.2-1.5-3.6-1.5 -2.7 0-4.9 2.2-4.9 4.9 0 1.9 1.1 3.6 2.8 4.4 -0.2 0.7-0.3 1.5-0.3 2.3 0 7.8 8.8 14 19.5 14 10.8 0 19.6-6.3 19.6-14 0-0.8-0.1-1.6-0.3-2.4C52.9 34.6 54 32.9 54 31zM20.3 35.9c0-2 1.6-3.7 3.7-3.7 2 0 3.7 1.6 3.7 3.7 0 2-1.6 3.7-3.7 3.7C21.9 39.6 20.3 37.9 20.3 35.9zM40.2 44.6c-2.3 2.3-6.8 2.5-8.2 2.5s-5.8-0.2-8.2-2.5c-0.4-0.4-0.4-0.9 0-1.3 0.3-0.3 0.9-0.3 1.3 0 1.5 1.5 4.6 2 6.9 2s5.4-0.5 6.9-2c0.3-0.3 0.9-0.3 1.3 0C40.5 43.7 40.5 44.2 40.2 44.6zM40.1 39.6c-2 0-3.7-1.6-3.7-3.7 0-2 1.6-3.7 3.7-3.7 2 0 3.7 1.6 3.7 3.7C43.7 37.9 42.1 39.6 40.1 39.6z"/></svg>