<svg xmlns="http://www.w3.org/2000/svg" version="1.1" x="0px" y="0px" viewBox="0 0 64 64" xml:space="preserve"><path d="M52.2 31.2c-3.3-8.3-13.1-9.7-21-9.7h-5.4v-6.1c0-0.8-0.7-1.5-1.5-1.5 -0.4 0-0.8 0.2-1.1 0.5L11 26.5c-0.3 0.3-0.5 0.7-0.5 1.1s0.2 0.8 0.5 1.1L23.2 41c0.3 0.3 0.7 0.5 1.1 0.5 0.8 0 1.5-0.7 1.5-1.5v-6.1h5.4c10.3 0 17.1 2 17.1 13.4 0 1 0 2-0.1 3 0 0.4-0.1 0.8-0.1 1.2 0 0.5 0.3 0.8 0.8 0.8 0.3 0 0.5-0.2 0.7-0.4 0.4-0.5 0.6-1.3 0.9-1.8 1.4-3.1 3-7.5 3-10.8C53.5 36.5 53.2 33.7 52.2 31.2z"/></svg>