<?xml version="1.0" encoding="utf-8"?>
<!-- Generator: Adobe Illustrator 21.0.0, SVG Export Plug-In . SVG Version: 6.00 Build 0)  -->
<svg version="1.1" id="Layer_1" xmlns="http://www.w3.org/2000/svg" xmlns:xlink="http://www.w3.org/1999/xlink" x="0px" y="0px"
	 viewBox="0 0 64 64" style="enable-background:new 0 0 64 64;" xml:space="preserve">
<path d="M45.9,45.9H33.4V19.2c1.1-0.4,2-1.3,2.4-2.4h10.3c0.4,0,0.7-0.3,0.7-0.7v-1.3c0-0.4-0.3-0.7-0.7-0.7H35.9
	c-0.6-1.5-2-2.6-3.8-2.6s-3.2,1.1-3.8,2.6H18.2c-0.4,0-0.7,0.3-0.7,0.7v1.3c0,0.4,0.3,0.7,0.7,0.7h10.1c0.4,1.1,1.3,2,2.4,2.4v26.7
	H18.2c-0.4,0-0.7,0.3-0.7,0.7v1.3c0,0.4,0.3,0.7,0.7,0.7H46c0.4,0,0.7-0.3,0.7-0.7v-1.3C46.6,46.1,46.3,45.9,45.9,45.9z M32,17.1
	c-0.9,0-1.7-0.8-1.7-1.7s0.8-1.7,1.7-1.7s1.7,0.8,1.7,1.7C33.7,16.3,33,17.1,32,17.1z M28,35.3c0-0.8-7.1-13.6-8.1-15.2
	c-0.3-0.4-0.7-0.7-1.2-0.7s-0.9,0.3-1.2,0.7c-0.8,1.6-8.1,14.4-8.1,15.2c0,4.3,5.9,6,9.3,6C22.2,41.2,28.1,39.5,28,35.3z M10.8,35.3
	l8-14.6l7.9,14.6H10.8z M46.4,20c-0.3-0.4-0.7-0.7-1.2-0.7S44.3,19.6,44,20c-0.8,1.6-8,14.4-8,15.3c0,4.3,5.9,6,9.3,6s9.3-1.7,9.3-6
	C54.5,34.4,47.4,21.6,46.4,20z M37.3,35.3l8-14.6l7.9,14.6H37.3z"/>
</svg>
