<svg xmlns="http://www.w3.org/2000/svg" version="1.1" x="0px" y="0px" viewBox="0 0 64 64" xml:space="preserve"><path d="M51.2 31.4c-0.5-0.4-3.2-2.3-5.2-5 -1.4-1.9-3-4.5-4.2-9.1 -0.1-0.7 0.3-0.9 0.4-0.9 0.2 0 0.5 0.1 0.8 0.1 2.4 0 3.2-2 3.2-3 0-1-0.9-3.5-3.6-3.5 -2.4 0-3.4 2.4-3.4 3.5 0 0.7-0.2 0.9-0.6 1 -0.9 0.5-2.9 1.3-5.5 4.4 -3.3 3.9-3.8 8.4-3.8 8.4s-0.2-0.1-0.4-0.2c-1.5-0.4-3.7-2.3-3.7-3.6 0-1.2 1.3-4.3 1.3-4.4 0.1-0.1 0.2-0.4 0.7-0.4 2.4-0.2 2.9-2.8 2.9-3.5 0-0.7-0.6-3.4-3.5-3.4 -2.9 0-3.4 2.7-3.4 3.5 0 0.7 0.1 1 0.1 1.4 0 0.3-0.3 0.6-0.6 0.9C17.3 22.4 12.2 31.4 12.2 44h2.5l-0.6 8h4.7c0.9 0 0.7-0.7 0.3-0.9 -0.6-0.3-2-0.8-2.2-0.9 -0.2-0.1-0.4-0.4-0.2-0.9L18 44h1.8l2.6 8h11.8c0.2 0 0.5-0.1 0.6-0.4 0.1-0.3-0.4-0.5-0.5-0.6 -0.1 0-1.4-0.5-1.5-0.7 -0.1-0.1-0.4-0.2-0.3-0.7 0.1-0.4 0.9-4.1 0.9-8.4 0.5 1.3 1.3 3.3 1.8 5.2 0.6 1.9 1.1 4.5 1.2 5C36.6 52.1 37 52 37 52h4.5c0.2 0 0.5-0.2 0.5-0.5 0-0.4-0.4-0.5-0.4-0.5s-1.9-0.6-2.2-0.7c-0.3-0.1-0.3-0.3-0.3-0.5 0 0-2.3-12.5-2.4-13 -0.1-0.6-0.4-1.7-0.4-3.9 0-5.3 2.9-9 3-9.2 0.1-0.1 0.5-0.6 1.1 0.1 0.6 0.9 2.5 3.4 3.2 4.1 0.6 0.7 2 2 4.2 3.7 -0.5 0.5-0.4 1.1-0.4 1.1 0.3 0 0.6 0 1-0.1 0 0-0.1-0.3 0.1-0.5 0.2 0.2 0.9 0.7 1.5 0.8L47 51.8l0.8 0.2 3.1-18.8c0.6-0.1 0.9-0.5 0.9-0.8C51.8 32 51.6 31.7 51.2 31.4zM28.5 50.7C28.3 51 28 51 27.7 50.9c-0.2-0.1-3-0.8-3.5-0.9 -0.4-0.1-0.3-0.5-0.4-0.7l-1-5.3h0.9c-0.5-3.1-1.5-7.5-1.5-9.9 0-2.4 0.7-4.8 0.8-5.1 0.1-0.3 0.6-1.2 1.2-0.4 0.7 0.8 3 1.5 4 1.7 0.2 0.1 0.5 0.1 0.5 0.1v1.5c0 2.3 0.9 4.8 0.9 9.2C29.7 45.5 28.5 50.3 28.5 50.7z"/></svg>