<svg xmlns="http://www.w3.org/2000/svg" version="1.1" x="0px" y="0px" viewBox="0 0 64 64" xml:space="preserve"><path d="M13.2,44.3c0.4,0,0.7-0.1,1-0.4l1.9-1.9l1.9,1.9c0.3,0.3,0.6,0.4,1,0.4c0.4,0,0.7-0.1,1-0.4l1.8-1.9l1.9,1.9 c0.3,0.3,0.6,0.4,1,0.4s0.7-0.1,1-0.4l1.9-1.9l1.9,1.9c0.3,0.3,0.6,0.4,1,0.4c0.4,0,0.7-0.1,1-0.4l1.9-1.9l1.9,1.9 c0.3,0.3,0.6,0.4,1,0.4c0.4,0,0.7-0.1,1-0.4l1.9-1.9l1.9,1.9c0.3,0.3,0.6,0.4,1,0.4c0.4,0,0.7-0.1,1-0.4L45,42l1.9,1.9 c0.3,0.3,0.6,0.4,1,0.4c0.4,0,0.7-0.1,1-0.4l1.9-1.9l1.9,1.9l2-2L51.5,39c-0.3-0.3-0.6-0.4-1-0.4c-0.4,0-0.7,0.1-1,0.4l-1.9,1.8 L45.8,39c-0.3-0.3-0.6-0.4-1-0.4s-0.7,0.1-1,0.4l-0.3,0.3v-8.1c1.5-1.6,2.9-3,3.8-4c1.1-1.2,0.7-3.2-0.8-3.7l-3-1v-6.8l-2.9,0v-2.9 l-5.7,0V9.9h-5.7v2.9l-5.7,0v2.9l-2.9,0v6.7l-3.3,1.1c-1.4,0.5-1.9,2.4-0.9,3.6c1,1.2,2.5,3,4.2,5l0,7.2L19,40.9L17,39 c-0.3-0.3-0.6-0.4-1-0.4c-0.4,0-0.7,0.1-1,0.4l-1.9,1.8L11.3,39l-2,2l2.9,2.9C12.5,44.2,12.8,44.3,13.2,44.3z M23.3,18.5h2.9v-2.9 h11.5v2.9h2.9l0,3l-8.6-3l-8.7,3L23.3,18.5z"/><path d="M50.5,44.3c-0.4,0-0.7,0.1-1,0.4l-1.9,1.9l-1.9-1.9c-0.3-0.3-0.6-0.4-1-0.4c-0.4,0-0.7,0.1-1,0.4l-1.8,1.9L40,44.7 c-0.3-0.3-0.6-0.4-1-0.4c-0.4,0-0.7,0.1-1,0.4L36,46.6l-1.9-1.9c-0.3-0.3-0.6-0.4-1-0.4c-0.4,0-0.7,0.1-1,0.4l-1.9,1.9l-1.9-1.9 c-0.3-0.3-0.6-0.4-1-0.4c-0.4,0-0.7,0.1-1,0.4l-1.9,1.9l-1.6-1.8c-0.3-0.3-0.6-0.4-1-0.4c-0.4,0-0.7,0.1-1,0.4L19,46.7L17,44.8 c-0.3-0.3-0.6-0.4-1-0.4c-0.4,0-0.7,0.1-1,0.4l-1.9,1.9l-1.9-1.9l-2,2l2.9,2.9c0.3,0.3,0.6,0.4,1,0.4c0.4,0,0.7-0.1,1-0.4l1.9-1.9 l1.9,1.9c0.3,0.3,0.6,0.4,1,0.4c0.4,0,0.7-0.1,1-0.4l1.9-1.9l1.9,1.9c0.3,0.3,0.6,0.4,1,0.4s0.7-0.1,1-0.4l1.9-1.9l1.9,1.9 c0.3,0.3,0.6,0.4,1,0.4c0.4,0,0.7-0.1,1-0.4l1.9-1.9l1.9,1.9c0.3,0.3,0.6,0.4,1,0.4c0.4,0,0.7-0.1,1-0.4l1.9-1.9l1.9,1.9 c0.3,0.3,0.6,0.4,1,0.4c0.4,0,0.7-0.1,1-0.4l1.9-1.9l1.9,1.9c0.3,0.3,0.6,0.4,1,0.4c0.4,0,0.7-0.1,1-0.4l1.9-1.9l1.9,1.9l2-2 l-2.9-2.9C51.2,44.5,50.8,44.3,50.5,44.3z"/></svg>