<svg xmlns="http://www.w3.org/2000/svg" version="1.1" x="0px" y="0px" viewBox="0 0 64 64" xml:space="preserve"><circle cx="36.6" cy="30.4" r="1.5"/><circle cx="39.6" cy="27.4" r="1.5"/><circle cx="42.6" cy="24.4" r="1.5"/><circle cx="37" cy="36.7" r="1.5"/><circle cx="40" cy="33.8" r="1.5"/><circle cx="43" cy="30.8" r="1.5"/><circle cx="46" cy="27.7" r="1.5"/><circle cx="48.9" cy="24.7" r="1.5"/><circle cx="37.3" cy="43.1" r="1.5"/><circle cx="40.4" cy="40.1" r="1.5"/><circle cx="43.3" cy="37.1" r="1.5"/><circle cx="46.3" cy="34.1" r="1.5"/><circle cx="49.3" cy="31.1" r="1.5"/><circle cx="52.3" cy="28.1" r="1.5"/><circle cx="55.3" cy="25.1" r="1.5"/><path d="M44.1 16.5l-2-2c-0.4-0.4-1-0.4-1.4 0l-0.9 0.9 0 0c-1.5-1.2-3.5-1.9-5.6-1.9 -1.4 0-2.7 0.3-3.9 0.9 -2.7-2.1-5.9-2.7-9.4-2.1 -6 1.1-9.8 6.3-9.8 12 0 8.5 0 24.8 0.1 28.9 0 0.5 0.4 1 1 1 1.2 0 3 0 4.1 0 0.5 0 1-0.4 1-0.9 0-3.9 0-19 0-26.7 0-1-0.4-5.7 3.5-7.6 1.7-0.9 3.5-0.7 5.2 0.2 -0.5 1.1-0.8 2.3-0.8 3.6 0 2.1 0.7 4 1.9 5.6L26.2 29c-0.4 0.4-0.4 1 0 1.4l2 2c0.4 0.4 1 0.4 1.4 0l14.5-14.5C44.5 17.5 44.5 16.9 44.1 16.5z"/></svg>