<svg xmlns="http://www.w3.org/2000/svg" version="1.1" x="0px" y="0px" viewBox="0 0 64 64" enable-background="new 0 0 64 64" xml:space="preserve"><path d="M43.2 32c0-0.5-0.2-1-0.6-1.3L26.7 14.7c-0.4-0.4-0.8-0.6-1.3-0.6 -1 0-1.9 0.8-1.9 1.9v8.4H10.4c-1 0-1.9 0.8-1.9 1.9v11.2c0 1 0.8 1.9 1.9 1.9h13.1v8.4c0 1 0.8 1.9 1.9 1.9 0.5 0 1-0.2 1.3-0.6l15.9-15.9C43 33 43.2 32.5 43.2 32zM45.1 13.2h-9.4c-1.3 0-0.9 2-0.9 2.8 0 1.1 1.1 0.9 1.9 0.9h8.4c2.6 0 4.7 2.1 4.7 4.7v20.6c0 2.6-2.1 4.7-4.7 4.7h-9.4c-1.3 0-0.9 2-0.9 2.8 0 0.5 0.4 0.9 0.9 0.9h9.4c4.7 0 8.4-3.8 8.4-8.4V21.7C53.5 17 49.7 13.2 45.1 13.2z"/></svg>