<svg xmlns="http://www.w3.org/2000/svg" version="1.1" x="0px" y="0px" viewBox="0 0 64 64" xml:space="preserve"><path d="M50 10H14c-2.2 0-4 1.8-4 4v36c0 2.2 1.8 4 4 4h36c2.2 0 4-1.8 4-4V14C54 11.8 52.2 10 50 10zM44.8 28.9l-5.7 5.6c0 0 0 0.1 0 0.1l1.4 7.9c0 0.1 0 0.2 0 0.3 0 0.2-0.1 0.4-0.2 0.6 -0.1 0.2-0.3 0.2-0.5 0.2 -0.2 0-0.4-0.1-0.6-0.2l-7.1-3.7c0 0-0.1 0-0.1 0l-7.1 3.7c-0.2 0.1-0.4 0.2-0.6 0.2 -0.2 0-0.4-0.1-0.5-0.2 -0.1-0.2-0.2-0.3-0.2-0.6 0-0.1 0-0.2 0-0.3l1.4-7.9c0 0 0-0.1 0-0.1l-5.7-5.6c-0.3-0.3-0.4-0.5-0.4-0.8 0-0.4 0.3-0.6 0.9-0.7l7.9-1.1c0 0 0.1 0 0.1-0.1l3.5-7.2c0.2-0.4 0.5-0.7 0.8-0.7 0.3 0 0.6 0.2 0.8 0.7l3.5 7.2c0 0 0.1 0.1 0.1 0.1l7.9 1.1c0.6 0.1 0.9 0.3 0.9 0.7C45.2 28.4 45.1 28.6 44.8 28.9z"/></svg>