<svg xmlns="http://www.w3.org/2000/svg" version="1.1" x="0px" y="0px" viewBox="0 0 64 64" xml:space="preserve"><path d="M54 26.3c0-0.7-0.5-1.1-1.5-1.2l-13.3-1.9 -5.9-12C33 10.4 32.5 10 32 10c-0.5 0-1 0.4-1.3 1.1l-5.9 12 -13.3 1.9c-1 0.2-1.5 0.6-1.5 1.2 0 0.4 0.2 0.8 0.7 1.3l9.6 9.4L18 50.1c0 0.2-0.1 0.4-0.1 0.5 0 0.4 0.1 0.7 0.3 0.9 0.2 0.3 0.5 0.4 0.8 0.4 0.3 0 0.7-0.1 1.1-0.3L32 45.4l11.9 6.2c0.4 0.2 0.7 0.3 1.1 0.3 0.4 0 0.6-0.1 0.8-0.4 0.2-0.3 0.3-0.6 0.3-0.9 0-0.2 0-0.4 0-0.5l-2.3-13.2 9.6-9.4C53.8 27.1 54 26.7 54 26.3z"/></svg>