<svg xmlns="http://www.w3.org/2000/svg" version="1.1" x="0px" y="0px" viewBox="0 0 64 64" xml:space="preserve"><path d="M48.5 32.1v6.8h0c0 0.7-0.2 1.3-0.7 1.8 -0.5 0.4-1.1 0.7-1.8 0.7 -0.7 0-1.3-0.2-1.8-0.7 -0.5-0.5-0.7-1.1-0.7-1.8v-6.7l-4.8 1.4 -3.2-1.5v6.6c0 2.9 1 5.4 3.1 7.4 2.1 2 4.5 3 7.4 3 2.9 0 5.4-1 7.4-3.1 2.1-2.1 3.1-4.5 3.1-7.4v-6.6H48.5zM35.6 26.7l3.2 1.5 4.8-1.4v-3.3c0-2.8-1.1-5.2-3.1-7.2 -2.1-2-4.5-3-7.4-3 -2.9 0-5.4 0.9-7.4 3 -2.1 2-3.1 4.4-3.1 7.2v15.2c0 0.8-0.3 1.4-0.8 1.8 -0.5 0.5-1.1 0.7-1.8 0.7 -0.7 0-1.3-0.2-1.8-0.7 -0.5-0.5-0.8-1.1-0.8-1.8v-6.4h-8v6.6c0 2.9 1 5.4 3.1 7.4 2.1 2.1 4.5 3.1 7.4 3.1 2.9 0 5.4-1 7.5-3 2.1-2 3.1-4.5 3.1-7.4V23.8c0-0.7 0.3-1.3 0.8-1.8 0.5-0.5 1.1-0.7 1.8-0.7 0.7 0 1.3 0.2 1.8 0.7 0.5 0.5 0.8 1.1 0.8 1.8V26.7z"/></svg>