<svg xmlns="http://www.w3.org/2000/svg" version="1.1" x="0px" y="0px" viewBox="0 0 64 64" xml:space="preserve"><path d="M31.3 33.1c0.7-1.6 1.3-2.9 1.7-3.8 0.4-0.7 0.7-1.3 1-1.7s0.7-0.9 1.1-1.4c0.4-0.4 1-0.8 1.5-1 0.6-0.2 1.2-0.3 1.9-0.3h5.7v4.3c0 0.2 0.1 0.4 0.2 0.5s0.3 0.2 0.5 0.2c0.2 0 0.4-0.1 0.5-0.2l7.1-7.1c0.1-0.1 0.2-0.3 0.2-0.5 0-0.2-0.1-0.4-0.2-0.5l-7.1-7.1c-0.2-0.1-0.4-0.2-0.5-0.2 -0.2 0-0.4 0.1-0.5 0.2 -0.1 0.1-0.2 0.3-0.2 0.5v4.3h-5.7c-1 0-2 0.1-2.9 0.4 -0.9 0.2-1.7 0.6-2.4 0.9 -0.7 0.4-1.4 0.9-2 1.5s-1.2 1.3-1.7 1.9c-0.5 0.6-0.9 1.3-1.4 2.2 -0.5 0.9-0.9 1.7-1.2 2.3 -0.3 0.7-0.7 1.5-1.1 2.5 -0.7 1.6-1.3 2.9-1.7 3.8 -0.4 0.7-0.7 1.3-1 1.7s-0.7 0.9-1.1 1.4c-0.4 0.4-1 0.8-1.5 1 -0.6 0.2-1.2 0.3-1.9 0.3h-5c-0.2 0-0.4 0.1-0.5 0.2 -0.1 0.1-0.2 0.3-0.2 0.5v4.3c0 0.2 0.1 0.4 0.2 0.5 0.1 0.1 0.3 0.2 0.5 0.2h5c1 0 2-0.1 2.9-0.4 0.9-0.2 1.7-0.6 2.4-0.9 0.7-0.4 1.4-0.9 2-1.5 0.6-0.6 1.2-1.3 1.7-1.9s0.9-1.3 1.4-2.2c0.5-0.9 0.9-1.7 1.2-2.3C30.5 34.9 30.9 34.1 31.3 33.1zM13.7 24.9h5c0.7 0 1.3 0.1 1.8 0.3 0.6 0.2 1 0.5 1.4 0.8 0.4 0.3 0.8 0.7 1.1 1.3 0.4 0.5 0.7 1 0.9 1.4 0.2 0.4 0.5 0.9 0.8 1.6 1.1-2.7 2.2-4.7 3.1-6.1 -2.4-3.3-5.4-5-9.2-5h-5c-0.2 0-0.4 0.1-0.5 0.2 -0.1 0.1-0.2 0.3-0.2 0.5v4.3c0 0.2 0.1 0.4 0.2 0.5C13.3 24.8 13.5 24.9 13.7 24.9zM45.7 34.4c-0.2-0.1-0.4-0.2-0.5-0.2 -0.2 0-0.4 0.1-0.5 0.2 -0.1 0.1-0.2 0.3-0.2 0.5v4.3h-5.7c-0.7 0-1.3-0.1-1.8-0.3 -0.6-0.2-1-0.5-1.4-0.8 -0.4-0.3-0.8-0.7-1.1-1.3 -0.4-0.5-0.7-1-0.9-1.4 -0.2-0.4-0.5-0.9-0.8-1.6 -1.1 2.7-2.2 4.7-3 6.1 0.4 0.6 0.8 1.1 1.2 1.6 0.4 0.5 0.8 0.9 1.2 1.2 0.4 0.3 0.8 0.6 1.3 0.9 0.5 0.3 0.9 0.5 1.3 0.6 0.4 0.2 0.8 0.3 1.4 0.4 0.6 0.1 1 0.2 1.4 0.2 0.4 0.1 0.9 0.1 1.6 0.1 0.7 0 1.2 0 1.6 0 0.4 0 1 0 1.8 0 0.8 0 1.4 0 1.9 0v4.3c0 0.2 0.1 0.4 0.2 0.5s0.3 0.2 0.5 0.2c0.2 0 0.4-0.1 0.5-0.2l7.1-7.1c0.1-0.1 0.2-0.3 0.2-0.5 0-0.2-0.1-0.4-0.2-0.5L45.7 34.4z"/></svg>