<svg xmlns="http://www.w3.org/2000/svg" version="1.1" x="0px" y="0px" viewBox="0 0 64 64" xml:space="preserve"><path d="M49 15.2H15c-2.2 0-4 1.8-4 4v27.5c0 2.2 1.8 4 4 4H49c2.2 0 4-1.8 4-4V19.3C53 17 51.2 15.2 49 15.2zM23.9 46.7c0 0.5-0.4 0.8-0.8 0.8H15c-0.5 0-0.8-0.4-0.8-0.8v-4.8c0-0.5 0.4-0.8 0.8-0.8h8.1c0.5 0 0.8 0.4 0.8 0.8V46.7zM23.9 37c0 0.5-0.4 0.8-0.8 0.8H15c-0.5 0-0.8-0.4-0.8-0.8v-4.8c0-0.5 0.4-0.8 0.8-0.8h8.1c0.5 0 0.8 0.4 0.8 0.8V37zM23.9 27.3c0 0.5-0.4 0.8-0.8 0.8H15c-0.5 0-0.8-0.4-0.8-0.8v-4.8c0-0.5 0.4-0.8 0.8-0.8h8.1c0.5 0 0.8 0.4 0.8 0.8V27.3zM36.8 46.7c0 0.5-0.4 0.8-0.8 0.8H28c-0.5 0-0.8-0.4-0.8-0.8v-4.8c0-0.5 0.4-0.8 0.8-0.8H36c0.5 0 0.8 0.4 0.8 0.8V46.7zM36.8 37c0 0.5-0.4 0.8-0.8 0.8H28c-0.5 0-0.8-0.4-0.8-0.8v-4.8c0-0.5 0.4-0.8 0.8-0.8H36c0.5 0 0.8 0.4 0.8 0.8V37zM36.8 27.3c0 0.5-0.4 0.8-0.8 0.8H28c-0.5 0-0.8-0.4-0.8-0.8v-4.8c0-0.5 0.4-0.8 0.8-0.8H36c0.5 0 0.8 0.4 0.8 0.8V27.3zM49.8 46.7c0 0.5-0.4 0.8-0.8 0.8h-8.1c-0.5 0-0.8-0.4-0.8-0.8v-4.8c0-0.5 0.4-0.8 0.8-0.8H49c0.5 0 0.8 0.4 0.8 0.8V46.7zM49.8 37c0 0.5-0.4 0.8-0.8 0.8h-8.1c-0.5 0-0.8-0.4-0.8-0.8v-4.8c0-0.5 0.4-0.8 0.8-0.8H49c0.5 0 0.8 0.4 0.8 0.8V37zM49.8 27.3c0 0.5-0.4 0.8-0.8 0.8h-8.1c-0.5 0-0.8-0.4-0.8-0.8v-4.8c0-0.5 0.4-0.8 0.8-0.8H49c0.5 0 0.8 0.4 0.8 0.8V27.3z"/></svg>