<svg xmlns="http://www.w3.org/2000/svg" version="1.1" x="0px" y="0px" viewBox="0 0 64 64" xml:space="preserve"><path d="M18.3 26.6h-7.8C9.7 26.6 9 27.2 9 28v17.7c0 0.8 0.7 1.5 1.5 1.5h7.8c0.8 0 1.5-0.7 1.5-1.5V28C19.8 27.2 19.1 26.6 18.3 26.6zM14.4 44.2c-1.1 0-2-0.9-2-2 0-1.1 0.9-2 2-2s2 0.9 2 2C16.3 43.4 15.5 44.2 14.4 44.2zM51.5 32.3c1-1.1 1.5-2.5 1.5-4 0-1.4-0.5-2.6-1.5-3.6 -1-1-2.2-1.5-3.7-1.5h-7.5c0.1-0.2 0.1-0.5 0.2-0.6 0.1-0.2 0.2-0.4 0.3-0.6 0.1-0.2 0.2-0.4 0.3-0.5 0.3-0.6 0.6-1.1 0.7-1.5 0.2-0.4 0.3-0.9 0.5-1.6 0.2-0.7 0.3-1.4 0.3-2 0-0.4 0-0.8 0-1 0-0.3-0.1-0.7-0.1-1.2 -0.1-0.5-0.2-1-0.3-1.3 -0.1-0.4-0.4-0.8-0.6-1.2 -0.3-0.4-0.7-0.8-1.1-1.1 -0.4-0.3-1-0.5-1.6-0.7 -0.7-0.2-1.4-0.3-2.2-0.3 -0.5 0-0.9 0.2-1.2 0.5 -0.4 0.4-0.7 0.8-0.9 1.3 -0.3 0.5-0.4 1-0.5 1.4 -0.1 0.4-0.2 0.9-0.3 1.6 -0.2 0.8-0.3 1.3-0.4 1.6 -0.1 0.3-0.2 0.8-0.5 1.3 -0.2 0.5-0.5 1-0.8 1.3 -0.6 0.6-1.5 1.7-2.7 3.2 -0.9 1.1-1.8 2.2-2.7 3.2 -0.9 1-1.6 1.6-2.1 1.6 -0.5 0-0.8 0.2-1.2 0.6 -0.1 0.1-0.2 0.2-0.2 0.3 -0.2 0.2-0.3 0.5-0.3 0.8v0.1 17.2 0.3c0 0.8 0.7 1.5 1.5 1.5h0.4c0.7 0.1 2.1 0.5 4.1 1.2 1.4 0.5 2.5 0.8 3.3 1.1 0.8 0.2 1.9 0.5 3.3 0.8 1.4 0.3 2.7 0.4 3.9 0.4h0.5 2.1 1c2.4 0 4.2-0.7 5.3-2.1 1-1.2 1.5-2.9 1.3-4.9 0.7-0.7 1.2-1.5 1.5-2.5 0.3-1.1 0.3-2.1 0-3.1 0.8-1.1 1.2-2.3 1.2-3.7C51.9 33.8 51.8 33.1 51.5 32.3z"/></svg>