<svg xmlns="http://www.w3.org/2000/svg" version="1.1" x="0px" y="0px" viewBox="0 0 64 64" xml:space="preserve"><rect x="22.9" y="27" transform="matrix(0.707 -0.7072 0.7072 0.707 -13.2535 32.0019)" width="18.2" height="10.1"/><path d="M53 24.6l-3.3-3.3c-2 2-5.1 2-7.1 0 -2-2-2-5.1 0-7.1L39.4 11c-1.3-1.3-3.4-1.3-4.7 0L11 34.6c-1.3 1.3-1.3 3.4 0 4.7l3.3 3.3c2-2 5.1-2 7.1 0 2 2 2 5.1 0 7.1l3.3 3.3c1.3 1.3 3.4 1.3 4.7 0L53 29.3C54.3 28.1 54.3 25.9 53 24.6zM46 29.8L29.8 46c-0.3 0.3-0.7 0.5-1.2 0.5 -0.4 0-0.9-0.2-1.2-0.5L18 36.5c-0.7-0.7-0.7-1.7 0-2.3L34.2 18c0.6-0.6 1.7-0.6 2.4 0l9.5 9.5C46.6 28.1 46.6 29.2 46 29.8z"/></svg>