<svg xmlns="http://www.w3.org/2000/svg" version="1.1" x="0px" y="0px" viewBox="0 0 64 64" xml:space="preserve"><path d="M51,16.7h-8.2l-2.1-4.4c-0.8-1.7-2.6-2.8-4.5-2.8h-8.3c-1.9,0-3.7,1.1-4.5,2.8l-2.1,4.4H13c-0.6,0-1,0.4-1,1v2.6 c0,0.6,0.4,1,1,1h2.8v26.3c0,2.8,2.2,5,5,5h22.3c2.8,0,5-2.2,5-5V21.3H51c0.6,0,1-0.4,1-1v-2.6C52,17.1,51.6,16.7,51,16.7z M26.9,13.7c0.2-0.4,0.5-0.6,0.9-0.6h8.4c0.4,0,0.7,0.2,0.9,0.6l1.4,3h-13L26.9,13.7z M26.5,44.4c0,0.5-0.4,0.9-0.9,0.9H24 c-0.5,0-0.9-0.4-0.9-0.9V24.7c0-0.5,0.4-0.9,0.9-0.9h1.7c0.5,0,0.9,0.4,0.9,0.9V44.4z M33.8,44.4c0,0.5-0.4,0.9-0.9,0.9h-1.7 c-0.5,0-0.9-0.4-0.9-0.9V24.7c0-0.5,0.4-0.9,0.9-0.9h1.7c0.5,0,0.9,0.4,0.9,0.9V44.4z M41,44.4c0,0.5-0.4,0.9-0.9,0.9h-1.7 c-0.5,0-0.9-0.4-0.9-0.9V24.7c0-0.5,0.4-0.9,0.9-0.9h1.7c0.5,0,0.9,0.4,0.9,0.9V44.4z"/></svg>