<svg xmlns="http://www.w3.org/2000/svg" version="1.1" x="0px" y="0px" viewBox="0 0 64 64" xml:space="preserve"><path d="M32,10c-12.1,0-22,9.9-22,22c0,12.2,9.9,22,22,22s22-9.8,22-22C54,19.9,44.1,10,32,10z M43.8,44.8c-0.7,0.6-0.9,1.2-1.4,1.9 C41.8,47.8,35.8,53,34,51c-0.9-1.1,1.7-2.9,1.9-3.9c0.4-1.6,1.1-2-0.3-3.4c-1-1-1.5-1.3-1.9-2.6c-0.2-0.8-1.4-2.8-0.4-3.3 c0.1-1.5-2.1-1.9-3.3-2.5c-0.8-0.4-1.9-0.2-2.7-0.4c-0.4-0.1-0.7-0.4-1.2-0.5c-0.7-0.2-1.7-0.5-2.2-1c-1-0.8-1.7-2.3-2.4-3.3 c-0.9-1.3-1.6-3.2-1.7-4.7c-0.1-1.6,1.3-2.8,0.9-4.4c-0.3-1.3-1.4-2.9-0.4-4.1c0.7-0.9,0.6-1.1,1.7-1.2c1,0,2,0.2,3.1,0 c1.6-0.2,2.5-1,3.8-1.8c1.2-0.7,2.5-0.6,3.8-0.5c0.8,0,1.6,0.2,2.1,0.8c1.8,2.3-2.1,1.4-3.2,1.8c-2.6,1,2.7,4.9,4.6,4.6 c0.3-1-0.7-3.1,0.6-3.3c2.4-0.6,1.7,1,2.4,1.4c1.1,0.8,2.2,1,2.9,2.1c0.8,1.3,2,3.4,0,4c-1.2,0.4-2.6,0.2-3.7,0.7 c-1.1,0.5-1.3,1.6-2.1,2.4s-1.2,0.7-1.3,1.7c0,0.4,0.3,1.7-0.8,1.4c-0.8-0.2-0.5-1-1-1.4c-0.4-0.3-1.1-0.3-1.6-0.3 c-0.6,0-3.1,0.1-3.1,0.9c-0.1,1.8-0.7,1.4,0,2.9c2.3,0.5,2.1-1.7,3.5-0.5c-0.7,1.7-0.2,0.9,0.6,1.9c0.2,0.3,0.9,0.6,1.2,1 c1.6,2,5.8-1.3,8.1,0.3c0.8,0.6,1.2,1.7,1.8,2.4s1.4,1.3,1.9,2C46.9,42.1,45.5,43.5,43.8,44.8z"/></svg>