<svg xmlns="http://www.w3.org/2000/svg" version="1.1" x="0px" y="0px" viewBox="0 0 64 64" xml:space="preserve"><path d="M52.9 20.2c-1.5 0.7-3.2 1.1-4.9 1.4 1.8-1.1 3.1-2.7 3.8-4.7 -1.7 1-3.5 1.7-5.4 2.1 -1.6-1.7-3.8-2.7-6.3-2.7 -4.7 0-8.6 3.8-8.6 8.6 0 0.7 0.1 1.3 0.2 2 -7.1-0.4-13.5-3.8-17.7-9 -0.7 1.3-1.2 2.7-1.2 4.3 0 3 1.5 5.6 3.8 7.1 -1.4 0-2.7-0.4-3.9-1.1 0 0 0 0.1 0 0.1 0 4.2 3 7.6 6.9 8.4 -0.7 0.2-1.5 0.3-2.3 0.3 -0.6 0-1.1-0.1-1.6-0.2 1.1 3.4 4.3 5.9 8 6 -2.9 2.3-6.6 3.7-10.7 3.7 -0.7 0-1.4 0-2-0.1 3.8 2.4 8.3 3.9 13.2 3.9 15.8 0 24.4-13.1 24.4-24.4 0-0.4 0-0.7 0-1.1C50.3 23.4 51.8 21.9 52.9 20.2z"/></svg>