<svg xmlns="http://www.w3.org/2000/svg" version="1.1" x="0px" y="0px" viewBox="0 0 64 64" xml:space="preserve"><path d="M54.8 31.6c-2.2-9.4-11-14.9-20.1-15.5v-3.4c0-0.9-0.8-1.7-1.7-1.7s-1.7 0.8-1.7 1.7v3.4c-9.2 0.6-17.9 6.1-20.1 15.5 0 0.1 0 0.1 0 0.2 0 0.4 0.4 0.8 0.8 0.8 0.2 0 0.4-0.1 0.6-0.3 1.5-1.4 2.9-2.4 5.1-2.4 2.5 0 4.6 1.5 6.1 3.5 0.3 0.4 0.6 0.9 0.8 1.4 0.2 0.3 0.4 0.4 0.7 0.4 0.4 0 0.6-0.2 0.8-0.4 0.3-0.4 0.5-0.9 0.8-1.4 1.1-1.5 2.6-2.8 4.4-3.3v16.1c0 1.8-1.6 3.4-3.4 3.4 -1.8 0-3.4-1.6-3.4-3.4 0-0.9-0.8-1.7-1.7-1.7s-1.7 0.8-1.7 1.7c0 3.6 3.1 6.7 6.7 6.7 3.6 0 6.7-3.1 6.7-6.7V30.2c1.8 0.5 3.3 1.8 4.4 3.3 0.3 0.4 0.6 0.9 0.8 1.4 0.2 0.3 0.4 0.4 0.8 0.4 0.3 0 0.6-0.2 0.7-0.4 0.3-0.4 0.5-0.9 0.8-1.4 1.4-2 3.6-3.5 6.1-3.5 2.2 0 3.6 1 5.1 2.4 0.2 0.2 0.4 0.3 0.6 0.3 0.4 0 0.8-0.4 0.8-0.8C54.8 31.7 54.8 31.6 54.8 31.6z"/></svg>