<svg xmlns="http://www.w3.org/2000/svg" version="1.1" x="0px" y="0px" viewBox="0 0 64 64" xml:space="preserve"><path d="M33 11c-5.6 0-11.1 2.3-15.2 6.1l-3.7-3.7c-0.5-0.5-1.3-0.7-2-0.4 -0.7 0.3-1.1 0.9-1.1 1.7v12.8c0 1 0.8 1.8 1.8 1.8h12.8c0.7 0 1.4-0.5 1.7-1.1 0.3-0.7 0.1-1.5-0.4-2l-3.9-4c2.7-2.5 6.2-3.9 10-3.9 8.1 0 14.7 6.6 14.7 14.7 0 8.1-6.6 14.7-14.7 14.7 -4.6 0-8.8-2.1-11.6-5.7 -0.1-0.2-0.4-0.3-0.7-0.3 -0.3 0-0.5 0.1-0.7 0.3l-3.9 4c-0.3 0.3-0.3 0.9-0.1 1.2 4.2 5 10.4 7.9 16.9 7.9 12.1 0 22-9.9 22-22C55 20.9 45.1 11 33 11z"/></svg>