<svg xmlns="http://www.w3.org/2000/svg" version="1.1" x="0px" y="0px" viewBox="0 0 64 64" xml:space="preserve"><path d="M52.3 38.1H40.5c-0.7 2-2.7 3.5-5 3.5h-7.1c-2.3 0-4.3-1.5-5-3.5H11.7c-1.5 0-2.7 1.2-2.7 2.7v8.9c0 1.5 1.2 2.7 2.7 2.7h40.7c1.5 0 2.7-1.2 2.7-2.7v-8.9C55 39.3 53.8 38.1 52.3 38.1zM42.6 48.7c-1 0-1.8-0.8-1.8-1.8 0-1 0.8-1.8 1.8-1.8 1 0 1.8 0.8 1.8 1.8C44.4 47.9 43.6 48.7 42.6 48.7zM49.7 48.7c-1 0-1.8-0.8-1.8-1.8 0-1 0.8-1.8 1.8-1.8 1 0 1.8 0.8 1.8 1.8C51.5 47.9 50.7 48.7 49.7 48.7zM19.6 23.9h7.1v12.4c0 1 0.8 1.8 1.8 1.8h7.1c1 0 1.8-0.8 1.8-1.8V23.9h7.1c0.7 0 1.4-0.4 1.6-1.1 0.3-0.6 0.1-1.4-0.4-1.9L33.2 8.5C32.9 8.2 32.4 8 32 8c-0.4 0-0.9 0.2-1.2 0.5L18.4 20.9c-0.5 0.5-0.7 1.3-0.4 1.9C18.3 23.5 18.9 23.9 19.6 23.9z"/></svg>