<svg xmlns="http://www.w3.org/2000/svg" version="1.1" x="0px" y="0px" viewBox="0 0 64 64" xml:space="preserve"><path d="M19.9 21.4c2.1 0.3 5.1 1 6.7 2.6l1.8 1.8 -5.9 5.9c0.6 0.2 1 0.5 1.4 0.7C24.6 32.7 25 33 26 33c1 0 1.4-0.2 2.1-0.6 0.8-0.5 1.9-1.2 3.9-1.2s3.1 0.7 3.9 1.2C36.6 32.7 37 33 38 33s1.4-0.2 2.1-0.6c0.2-0.1 0.5-0.3 0.7-0.4L29.3 20.4c-2.2-2.2-5.8-3.2-8.8-3.5 -1.3-0.1-2.5 0.9-2.5 2.3C17.9 20.3 18.8 21.2 19.9 21.4zM50 41.1C50 41.1 50 41.1 50 41.1L50 41.1 50 41.1zM20 39.3c1 0 1.4 0.3 2.1 0.6 0.8 0.5 1.9 1.2 3.9 1.2 2 0 3.1-0.7 3.9-1.2 0.7-0.4 1.1-0.6 2.1-0.6 1 0 1.4 0.3 2.1 0.6 0.8 0.5 1.9 1.2 3.9 1.2s3.1-0.7 3.9-1.2c0.7-0.4 1.1-0.6 2.1-0.6 1 0 1.4 0.3 2.1 0.6 0.8 0.5 1.9 1.1 3.9 1.2v-3.6c-1 0-1.4-0.3-2.1-0.6 -0.8-0.5-1.9-1.2-3.9-1.2 -2 0-3.1 0.7-3.9 1.2 -0.7 0.4-1.1 0.6-2.1 0.6s-1.4-0.3-2.1-0.6c-0.8-0.5-1.9-1.2-3.9-1.2 -2 0-3.1 0.7-3.9 1.2 -0.7 0.4-1.1 0.6-2.1 0.6 -1 0-1.4-0.3-2.1-0.6 -0.8-0.5-1.9-1.2-3.9-1.2s-3.1 0.7-3.9 1.2c-0.7 0.4-1.1 0.6-2.1 0.6v3.6c2 0 3.1-0.7 4-1.2C18.6 39.5 19 39.3 20 39.3zM44 43.8c-2 0-3.1 0.7-3.9 1.2 -0.7 0.4-1.1 0.6-2.1 0.6s-1.4-0.3-2.1-0.6c-0.8-0.5-1.9-1.2-3.9-1.2s-3.1 0.7-3.9 1.2c-0.7 0.4-1.1 0.6-2.1 0.6 -1 0-1.4-0.2-2.1-0.6 -0.8-0.5-1.9-1.2-3.9-1.2s-3.1 0.7-3.9 1.2c-0.7 0.4-1.1 0.6-2.1 0.6v3.6c2 0 3.1-0.7 3.9-1.2 0.7-0.4 1.1-0.6 2.1-0.6s1.4 0.2 2.1 0.6c0.8 0.5 1.9 1.2 3.9 1.2 2 0 3.1-0.7 3.9-1.2 0.7-0.4 1.1-0.6 2.1-0.6 1 0 1.4 0.3 2.1 0.6 0.8 0.5 1.9 1.2 3.9 1.2s3.1-0.7 3.9-1.2c0.7-0.4 1.1-0.6 2.1-0.6 1 0 1.4 0.3 2.1 0.6 0.8 0.5 1.9 1.2 3.9 1.2v-3.6c-1 0-1.4-0.2-2.1-0.6C47.1 44.4 46 43.8 44 43.8z"/><circle cx="39.8" cy="21.6" r="4.5"/></svg>