<svg xmlns="http://www.w3.org/2000/svg" version="1.1" x="0px" y="0px" viewBox="0 0 64 64" xml:space="preserve"><path d="M47.6,37.9c-0.4-1.3-0.9-2.5-1.5-3.4c-0.6-0.9-1.4-1.7-2.4-2.3c-1-0.6-2.2-0.9-3.5-0.9c0,0,0,0,0,0c0,0,0,0,0,0 c-2.3,2.2-5,3.3-8.2,3.3c-3.2,0-5.9-1.1-8.2-3.3c0,0,0,0,0,0c0,0,0,0,0,0c-1.3,0-2.5,0.3-3.5,0.9c-1,0.6-1.8,1.4-2.4,2.3 c-0.6,0.9-1.1,2.1-1.5,3.4c-0.4,1.3-1.1,6.1-1,8.2c0,1.3,0.5,3.5,1.6,4.9s2.4,2,3.9,2h0h22.2h0c1.5,0,2.8-0.6,3.9-2 c1.1-1.4,1.6-3.6,1.6-4.9C48.7,44,48,39.2,47.6,37.9z"/><circle cx="32" cy="23" r="10"/></svg>