<svg xmlns="http://www.w3.org/2000/svg" version="1.1" x="0px" y="0px" viewBox="0 0 64 64" xml:space="preserve"><path d="M52.9,27.2c-0.2-0.7-0.5-1.4-0.9-1.9s-0.8-1-1.4-1.3c-0.6-0.3-1.3-0.5-2-0.5c0,0,0,0,0,0c0,0,0,0,0,0 c-1.3,1.3-2.8,1.9-4.7,1.9c-0.8,0-1.5-0.1-2.1-0.3c0.2,0.7,0.3,1.5,0.3,2.3c0,2.1-0.6,4-1.7,5.6c1.3,0,2.5,0.3,3.5,0.9 c0.9,0.5,1.6,1.2,2.2,2h4.2h0c0.9,0,1.6-0.3,2.2-1.1c0.6-0.8,0.9-2.1,0.9-2.8C53.5,30.7,53.1,27.9,52.9,27.2z"/><circle cx="44" cy="18.7" r="5"/><path d="M45.4,40.1c-0.3-1.1-0.8-2.2-1.3-2.9c-0.5-0.8-1.2-1.5-2.1-2c-0.9-0.5-1.9-0.8-3-0.8c0,0,0,0,0,0c0,0,0,0,0,0 c-2,1.9-4.3,2.8-7,2.8c-2.7,0-5.1-0.9-7-2.8c0,0,0,0,0,0c0,0,0,0,0,0c-1.1,0-2.1,0.3-3,0.8c-0.9,0.5-1.5,1.2-2.1,2 c-0.5,0.8-0.9,1.8-1.3,2.9c-0.3,1.1-0.9,5.3-0.9,7.1c0,1.1,0.4,3,1.4,4.2c0.9,1.2,2.1,1.7,3.4,1.7h0h19.1h0 c1.3,0,2.4-0.5,3.4-1.7c0.9-1.2,1.3-3.1,1.4-4.2C46.3,45.4,45.8,41.2,45.4,40.1z"/><circle cx="32" cy="27.3" r="8.5"/><path d="M11.1,27.2c0.2-0.7,0.5-1.4,0.9-1.9s0.8-1,1.4-1.3c0.6-0.3,1.3-0.5,2-0.5c0,0,0,0,0,0c0,0,0,0,0,0 c1.3,1.3,2.8,1.9,4.7,1.9c0.8,0,1.5-0.1,2.1-0.3c-0.2,0.7-0.3,1.5-0.3,2.3c0,2.1,0.6,4,1.7,5.6c-1.3,0-2.5,0.3-3.5,0.9 c-0.9,0.5-1.6,1.2-2.2,2h-4.2h0c-0.9,0-1.6-0.3-2.2-1.1c-0.6-0.8-0.9-2.1-0.9-2.8C10.5,30.7,10.9,27.9,11.1,27.2z"/><circle cx="20" cy="18.7" r="5"/></svg>