<svg xmlns="http://www.w3.org/2000/svg" version="1.1" x="0px" y="0px" viewBox="0 0 64 64" enable-background="new 0 0 64 64" xml:space="preserve"><path d="M45.1 21.3c-0.1-0.4-0.4-0.8-0.8-1.3L21.6 5l-2.1 3.1c-0.5 0.7-0.4 1.3 0.3 1.8 0.7 0.5 1.3 0.4 1.8-0.3l1.3-1.8 18.4 12.2 -15.1 2.7c-0.5 0.1-0.9 0.3-1.3 0.8 -0.4 0.5-0.5 0.9-0.3 1.4l3.3 12.8L17.3 53.5c-0.4 0.6-0.4 1.2-0.3 1.8 0.2 0.6 0.5 1.1 1.1 1.4 0.6 0.3 1.1 0.4 1.7 0.2 0.6-0.1 1.1-0.5 1.4-1.1 7.3-11.1 11-16.7 11.1-16.8l0.5 2.3L31.2 54c-0.1 0.6 0.1 1.1 0.4 1.6 0.4 0.5 0.8 0.8 1.5 1 0.6 0.1 1.2 0 1.7-0.4 0.5-0.4 0.8-0.9 0.9-1.4l1.7-12.9c0.1-0.4 0.1-0.9 0-1.4l-3.8-15.1 9.8-1.7c0.5-0.1 0.9-0.4 1.2-0.8C45 22.3 45.1 21.9 45.1 21.3z"/><circle cx="25.4" cy="17.6" r="3.8"/></svg>