<svg xmlns="http://www.w3.org/2000/svg" version="1.1" x="0px" y="0px" viewBox="0 0 64 64" xml:space="preserve"><circle cx="34.2" cy="14.8" r="3.8"/><path d="M44.3 29.8c-1.4-0.3-4.5-0.9-4.6-1.1 -0.1-0.1-2.3-5.8-3.7-7.2 -0.7-0.7-2.2-1.2-3.4-1.6 -3.9-0.8-6.8 1.9-8.4 3.6 -0.2 0.2-0.8 0.9-0.8 0.9l-3.1 4.9c-0.5 0.9-0.1 1.9 0.8 2.3l0 0c0.8 0.4 1.8 0.1 2.2-0.8l2.9-4.7 1.7-0.9c-0.2 0.4-1.6 5.9-2 7.9 -0.4 2.3-1.3 9.2-1.3 9.2l-6 7.1c-0.7 0.8-0.6 2.1 0.2 2.8l0 0c0.8 0.7 2.1 0.6 2.9-0.2 1.9-2.2 6.6-7.3 6.9-7.8 0.5-0.6 0.8-1.5 0.9-1.9s1-6 1-6l5.4 5.3V51c0 1.1 0.9 2 2 2l0.1 0c1.1 0 1.9-0.9 1.9-2 0-2.6 0-9.1 0-10.2 0.1-1.8-0.5-2.2-0.7-2.3 -0.2-0.2-5.1-5.4-5.1-5.4l1.1-5.2c0 0 1.4 2.7 1.6 3 0.2 0.3 0.6 0.9 1.1 0.9 0.3 0.1 3.8 0.9 5.6 1.2 1 0.2 1.9-0.5 2-1.4l0 0C45.8 30.8 45.2 30 44.3 29.8z"/></svg>