<svg xmlns="http://www.w3.org/2000/svg" version="1.1" x="0px" y="0px" viewBox="0 0 64 64" xml:space="preserve"><path d="M51.9 29.6h-1.6V23c0-0.9-0.7-1.6-1.6-1.6H47v21.2h1.6c0.9 0 1.6-0.7 1.6-1.6v-6.5h1.6c0.9 0 1.6-0.7 1.6-1.6v-1.6C53.5 30.3 52.8 29.6 51.9 29.6zM13.8 23v6.5h-1.6c-0.9 0-1.6 0.7-1.6 1.6v1.6c0 0.9 0.7 1.6 1.6 1.6h1.6V41c0 0.9 0.7 1.6 1.6 1.6H17V21.4h-1.6C14.5 21.4 13.8 22.1 13.8 23zM43.4 18.1h-3.3c-0.9 0-1.6 0.7-1.6 1.6v9.8h-13v-9.8c0-0.9-0.7-1.6-1.6-1.6h-3.3c-0.9 0-1.6 0.7-1.6 1.6v24.5c0 0.9 0.7 1.6 1.6 1.6h3.3c0.9 0 1.6-0.7 1.6-1.6v-9.8h13v9.8c0 0.9 0.7 1.6 1.6 1.6h3.3c0.9 0 1.6-0.7 1.6-1.6V19.8C45 18.9 44.3 18.1 43.4 18.1z"/></svg>