<?xml version="1.0" encoding="utf-8"?>
<!-- Generator: Adobe Illustrator 21.0.0, SVG Export Plug-In . SVG Version: 6.00 Build 0)  -->
<svg version="1.1" id="Layer_1" xmlns="http://www.w3.org/2000/svg" xmlns:xlink="http://www.w3.org/1999/xlink" x="0px" y="0px"
	 viewBox="0 0 408 104" style="enable-background:new 0 0 408 104;" xml:space="preserve">
<style type="text/css">
	.st0{clip-path:url(#SVGID_2_);}
	.st1{fill:#005FA7;}
	.st2{fill:#FFFFFF;}
	.st3{fill:#C42127;}
</style>
<g>
	<g>
		<defs>
			<rect id="SVGID_1_" x="4" y="4" width="400" height="96"/>
		</defs>
		<clipPath id="SVGID_2_">
			<use xlink:href="#SVGID_1_"  style="overflow:visible;"/>
		</clipPath>
		<g class="st0">
			<rect x="-3.1" y="-9" class="st1" width="430.5" height="109"/>
			<rect x="-1.1" y="82.4" class="st2" width="430.5" height="4.3"/>
			<rect x="-3.1" y="86.7" class="st3" width="430.5" height="50.6"/>
		</g>
	</g>
</g>
<path class="st2" d="M401.2,6.7v90.6H6.8V6.7H401.2 M408,0h-4H0v104h408V4V0L408,0z"/>
<g>
	<path class="st2" d="M76.7,65.2c0-1.2,0-42.1,0-42.1H63.5c0,0,0,39.2,0,40.3c0,6.3-5.4,10-12.9,10c-8.6,0-13.4-3.7-13.4-10.1
		c0-1.1,0-40.2,0-40.2H24c0,0,0,40,0,41.4c0,14.2,11.2,19.8,26.3,19.8c10.4,0,18.8-2.8,23.2-8.6v7.8h11.8V71.2h-9.4
		C76.4,69.4,76.7,67.4,76.7,65.2z"/>
	<path class="st2" d="M140,66.1c0-10.3-6.3-15.3-18.3-17.6c-1.4-0.2-5.4-1.1-8.4-1.7c-9.9-2-13.5-3.7-13.5-8.2c0-3.4,2-5.7,12-5.7
		c7.6,0,10.9,1.8,12.5,5.1c0.5,0.9,0.8,2.3,0.8,3h13.6c0-1.5-0.6-3.8-1.4-5.8c-3.1-7.6-10.2-12.9-25.3-12.9c-17.7,0-26,6.9-26,17.1
		c0,10,7.3,15.5,19,17.7c2.7,0.5,7.1,1.4,8.9,1.7c9.8,1.8,12.3,3.6,12.3,8.6c0,4-3.2,6.5-12.4,6.5c-8,0-12-1.5-13.7-5
		c-0.5-0.9-0.8-2.8-0.8-3.8H85.8c0,1.2,0.2,4.2,0.9,6.2c2.4,7.7,9,13.2,27.3,13.2c11.5,0,19.1-3.2,23-8.6v7.7h11.8V71.2h-9.5
		C139.7,69.6,140,67.9,140,66.1z"/>
	<polygon class="st2" points="191.5,62 168.2,23.1 152.8,23.1 152.8,83.5 165.5,83.5 165.5,42.6 189.8,83.5 204.1,83.5 204.1,23.1 
		191.5,23.1 	"/>
	<path class="st2" d="M233.3,37.9c-9.7,0-17.4,3.6-21.7,9.9c-2.5,3.6-3.9,8.1-3.9,13.2c0,5.6,1.2,10.1,3.4,13.5
		c4.3,6.8,12.3,9.7,22.2,9.7c7.2,0,12.6-1.5,16.5-4c4.5-2.8,7-6.9,8.1-11.2h-12.7c-0.2,1-1.4,2.4-3.7,3.5c-1.9,0.8-4.5,1.5-8.2,1.5
		c-4.9,0-8.5-1.3-10.4-3.3c-1.5-1.7-2.4-3.2-2.4-5.3h37.8c0.7-6.7-0.5-13.1-3.8-18C250.5,41.6,243.5,37.9,233.3,37.9z M220.4,56.9
		c0-1.3,1.2-4,2.8-5.3c2.2-1.9,5.6-3.2,10.2-3.2c4.9,0,7.9,1.5,9.8,3.4c1.6,1.7,2.2,3.8,2.2,5.1L220.4,56.9L220.4,56.9z"/>
	<path class="st2" d="M325.1,39l-10.4,33.1L304.6,39h-14.4l-9.8,33.1L269.7,39h-13.5l16,44.6h15.4c0,0,8.8-25.6,8.8-27.2
		c0.1-0.5,0.6-3.1,0.6-3.1s0.5,2.6,0.6,3.2c0.2,1.5,8.9,27.1,8.9,27.1h15.3L337.8,39L325.1,39z"/>
	<path class="st2" d="M368.6,56.5c-1.5-0.2-7.8-1.1-10.4-1.5c-6.3-1-7.7-1.7-7.7-3.6c0-2.1,2.1-3.2,9.2-3.2c6.2,0,8.5,1.1,9.4,2.3
		c0.4,0.6,0.6,1.9,0.6,2.4h12.6c0-0.9-0.2-3.6-0.8-5.3c-2.3-6.4-10-9.6-22.2-9.6c-14.4,0-21.5,5.2-21.5,13.1
		c0,8.5,4.7,12.8,14.5,14.2c2.7,0.4,8,1.2,9.7,1.5c6.6,1,9.2,1.5,9.2,4.1c0,2.6-2.3,3.9-9.6,3.9c-7.1,0-10.5-0.6-11.3-2.7
		c-0.3-0.9-0.4-1.7-0.4-2.3h-12.9c0,1.5,0.1,2.7,0.5,4.5c1.9,7.3,9,10.3,24.1,10.3c15.4,0,22.4-4.7,22.4-13.9
		C384,62.1,379.3,58.1,368.6,56.5z"/>
	<path class="st2" d="M215,35.3c1.2,0,2.4-0.2,3.3-0.6c0.2,0.2,0.4,0.3,0.6,0.5h4.6c-0.9-0.7-1.8-1.4-2.6-2c1-0.9,1.6-2.2,1.6-3.8
		h-3.4c0,0.7-0.3,1.3-0.7,1.8c-0.7-0.6-1.4-1.2-1.9-1.6c1.2-0.8,2.4-1.8,2.4-3.4c0-0.1,0-0.4,0-0.5c-0.1-1.5-1.4-2.8-3.7-2.8
		c-2.5,0-4,1.4-4.1,2.9c0,0.2,0,0.5,0,0.6c0,0.7,0.3,1.6,1,2.6c-1.4,0.7-2.8,1.5-2.8,2.9c0,0.2,0,0.4,0,0.6
		C209.6,34.8,212.2,35.3,215,35.3z M214.4,26.3c0.1-0.4,0.3-0.8,0.8-0.8c0.6,0,0.8,0.4,0.8,0.8c0,0,0,0.2,0,0.2
		c0,0.5-0.5,0.9-1.1,1.2c-0.3-0.4-0.5-0.8-0.5-1.1C214.4,26.6,214.4,26.4,214.4,26.3z M214,31.1c0.5,0.5,1.2,1.1,1.9,1.7
		c-0.3,0.1-0.7,0.1-1.1,0.1c-1.3,0-1.8-0.2-1.8-0.8C213.1,31.7,213.5,31.4,214,31.1z"/>
	<path class="st2" d="M234.1,35.2c0,0,1.9-7,1.9-7.4c0,0.4,1.9,7.4,1.9,7.4h4.1l3.4-12.1h-3.6c0,0-1.8,7.5-1.8,7.9
		c0-0.4-1.8-7.9-1.8-7.9h-3.8c0,0-1.8,7.5-1.8,7.9c0-0.4-1.9-7.9-1.9-7.9h-4l3.5,12.1H234.1z"/>
	<path class="st2" d="M251.9,35.4c4.4,0,6.5-2.1,6.5-6.4c0-4.1-1.9-6.2-6.5-6.2c-4.5,0-6.5,2.4-6.5,6.2
		C245.4,33.2,247.4,35.4,251.9,35.4z M251.9,25.7c2.1,0,2.7,1,2.7,3.4c0,2.7-1,3.4-2.7,3.4c-1.8,0-2.7-0.9-2.7-3.4
		C249.2,26.7,249.9,25.7,251.9,25.7z"/>
	<path class="st2" d="M263.7,31.1h2.5l2.1,4.1h4.2l-2.8-4.9c0.6-0.1,1.1-0.5,1.5-1.2c0.3-0.5,0.5-1.3,0.5-2.3c0-1.1-0.2-2-0.7-2.6
		c-0.6-0.8-1.7-1.3-3.3-1.3H260v12.1h3.7V31.1z M263.7,25.9h3.1c0.5,0,0.9,0.1,1.1,0.5c0.1,0.2,0.1,0.5,0.1,0.8c0,0.2,0,0.6-0.1,0.8
		c-0.1,0.3-0.5,0.4-1,0.4h-3.2V25.9z"/>
	<polygon class="st2" points="283.8,32.2 278,32.2 278,23.1 274.3,23.1 274.3,35.2 283.8,35.2 	"/>
	<path class="st2" d="M296.7,33.5c0.7-1,0.9-2,0.9-4.5c0-2.2-0.1-3.2-0.9-4.3c-0.8-1-2.1-1.6-4.3-1.6h-6.7v12.1h6.8
		C294.7,35.2,296,34.6,296.7,33.5z M289.4,32.3v-6.4h2.3c0.9,0,1.4,0.1,1.8,0.7c0.3,0.3,0.4,1.5,0.4,2.3c0,1,0,2.4-0.4,2.8
		c-0.4,0.5-0.9,0.7-1.9,0.7L289.4,32.3L289.4,32.3z"/>
	<path class="st2" d="M307.4,31.1h2.5l2.1,4.1h4.2l-2.8-4.9c0.6-0.1,1.1-0.5,1.5-1.2c0.3-0.5,0.5-1.3,0.5-2.3c0-1.1-0.2-2-0.7-2.6
		c-0.6-0.8-1.7-1.3-3.3-1.3h-7.7v12.1h3.7V31.1z M307.4,25.9h3.1c0.5,0,0.9,0.1,1.1,0.5c0.1,0.2,0.1,0.5,0.1,0.8
		c0,0.2,0,0.6-0.1,0.8c-0.1,0.3-0.5,0.4-1,0.4h-3.2V25.9z"/>
	<polygon class="st2" points="328.5,32.4 321.8,32.4 321.8,30.6 328.2,30.6 328.2,27.7 321.8,27.7 321.8,25.9 328.5,25.9 
		328.5,23.1 318.1,23.1 318.1,35.2 328.5,35.2 	"/>
	<path class="st2" d="M334.6,31.4c0,0,3.3,0,3.7,0c1.5,0,2.7-0.4,3.4-1.2c0.6-0.6,0.9-1.6,0.9-2.9c0-1.5-0.4-2.6-1.1-3.2
		c-0.7-0.7-1.7-1-3.2-1h-7.5v12.1h3.7L334.6,31.4L334.6,31.4z M334.6,25.9h3c0.6,0,1,0.2,1.2,0.6c0.1,0.2,0.2,0.5,0.2,0.9
		c0,0.4,0,0.6-0.2,0.8c-0.2,0.3-0.5,0.6-1.2,0.6c0,0-2.9,0-2.9,0L334.6,25.9L334.6,25.9z"/>
	<path class="st2" d="M350.4,35.4c4.4,0,6.5-2.1,6.5-6.4c0-4.1-1.9-6.2-6.5-6.2c-4.5,0-6.5,2.4-6.5,6.2
		C343.9,33.2,346,35.4,350.4,35.4z M350.4,25.7c2.1,0,2.7,1,2.7,3.4c0,2.7-1,3.4-2.7,3.4c-1.8,0-2.7-0.9-2.7-3.4
		C347.7,26.7,348.4,25.7,350.4,25.7z"/>
	<path class="st2" d="M362.3,31.1h2.5l2.1,4.1h4.2l-2.8-4.9c0.6-0.1,1.1-0.5,1.5-1.2c0.3-0.5,0.5-1.3,0.5-2.3c0-1.1-0.2-2-0.7-2.6
		c-0.6-0.8-1.7-1.3-3.3-1.3h-7.7v12.1h3.7V31.1z M362.3,25.9h3.1c0.5,0,0.9,0.1,1.1,0.5c0.1,0.2,0.1,0.5,0.1,0.8
		c0,0.2,0,0.6-0.1,0.8c-0.1,0.3-0.5,0.4-1,0.4h-3.2V25.9z"/>
	<polygon class="st2" points="375.2,35.2 379,35.2 379,26 382.9,26 382.9,23.1 371.4,23.1 371.4,26 375.2,26 	"/>
</g>
</svg>
